<?xml version="1.0" encoding="iso-8859-1"?>
<!-- Generator: Adobe Illustrator 19.0.0, SVG Export Plug-In . SVG Version: 6.00 Build 0)  -->
<svg version="1.1" id="Layer_1" xmlns="http://www.w3.org/2000/svg" xmlns:xlink="http://www.w3.org/1999/xlink" x="0px" y="0px"
	 viewBox="0 0 507.86 507.86" style="enable-background:new 0 0 507.86 507.86;" xml:space="preserve">
<g>
	<g>
		<path d="M430.08,128.36h-246.7v-60.8l52-42.5c6-4.9,6.9-13.8,2-19.9c-4.9-6-13.8-6.9-19.9-2l-57.2,46.7c-3.3,2.7-5.2,6.7-5.2,10.9
			v67.5h-77.4c-7.8,0-14.1,6.3-14.1,14.1c0,7.8,6.3,14.1,14.1,14.1h2.6c13,44.5,32.2,85.5,50.8,125.3
			c37.2,79.5,66.9,142.8,32.4,197.9h-11.2c-7.8,0-14.1,6.3-14.1,14.1c0,7.8,6.3,14.1,14.1,14.1h203.3c7.8,0,14.1-6.3,14.1-14.1
			s-6.3-14.1-14.1-14.1h-11.2c-34.5-55.2-4.8-118.5,32.4-197.9c18.6-39.7,37.7-80.8,50.8-125.3h2.6c7.8,0,14.1-6.3,14.1-14.1
			C444.18,134.66,437.88,128.36,430.08,128.36z M351.18,269.96c-35,74.7-68.2,145.7-38.9,209.9h-116.8
			c29.4-64.2-3.9-135.2-38.9-209.9c-17-36.3-34.6-73.8-46.9-113.3h288.4C385.68,196.16,368.18,233.56,351.18,269.96z"/>
	</g>
</g>
<g>
</g>
<g>
</g>
<g>
</g>
<g>
</g>
<g>
</g>
<g>
</g>
<g>
</g>
<g>
</g>
<g>
</g>
<g>
</g>
<g>
</g>
<g>
</g>
<g>
</g>
<g>
</g>
<g>
</g>
</svg>
