<?xml version="1.0" encoding="iso-8859-1"?>
<!-- Generator: Adobe Illustrator 19.0.0, SVG Export Plug-In . SVG Version: 6.00 Build 0)  -->
<svg version="1.1" id="Layer_1" xmlns="http://www.w3.org/2000/svg" xmlns:xlink="http://www.w3.org/1999/xlink" x="0px" y="0px"
	 viewBox="0 0 508 508" style="enable-background:new 0 0 508 508;" xml:space="preserve">
<g>
	<g>
		<path d="M493.9,261.6H14.1C6.3,261.6,0,268,0,275.8v180.7c0,7.8,6.3,14.1,14.1,14.1h479.8c7.8,0,14.1-6.3,14.1-14.1V275.8
			C508,268,501.7,261.6,493.9,261.6z M479.8,442.3L479.8,442.3H28.2V289.9h451.6V442.3z"/>
	</g>
</g>
<g>
	<g>
		<path d="M369.4,317.2c-26.7,0-48.5,21.8-48.5,48.5c0,26.8,21.8,48.5,48.5,48.5s48.5-21.8,48.5-48.5S396.1,317.2,369.4,317.2z
			 M369.4,386c-11.2,0-20.3-9.1-20.3-20.3c0-11.2,9.1-20.3,20.3-20.3s20.3,9.1,20.3,20.3C389.7,376.9,380.6,386,369.4,386z"/>
	</g>
</g>
<g>
	<g>
		<path d="M102.4,315.5c-7.8,0-14.1,6.3-14.1,14.1v73.1c0,7.7,6.3,14.1,14.1,14.1c7.8,0,14.1-6.3,14.1-14.1v-73.1
			C116.5,321.8,110.2,315.5,102.4,315.5z"/>
	</g>
</g>
<g>
	<g>
		<path d="M174.2,315.5c-7.8,0-14.1,6.3-14.1,14.1v73.1c0,7.7,6.3,14.1,14.1,14.1s14.1-6.3,14.1-14.1v-73.1
			C188.3,321.8,182,315.5,174.2,315.5z"/>
	</g>
</g>
<g>
	<g>
		<path d="M488.1,60.8c3.6-4.2,4.5-10.1,2.2-15.1s-7.3-8.3-12.9-8.3H114.8c-54.2,0-98.2,44.1-98.2,98.2c0,54.2,44,98.3,98.2,98.3
			h362.6c5.5,0,10.6-3.2,12.9-8.3c2.3-5,1.4-11-2.2-15.1C450.8,167.8,450.8,103.5,488.1,60.8z M114.8,149.8h317.8
			c1.9,19.4,7.7,38.5,17.6,55.9H114.8c-38.6,0-70-31.4-70-70c0-38.6,31.4-70,70-70h335.4c-9.8,17.4-15.6,36.5-17.6,55.9H114.8
			c-7.8,0-14.1,6.3-14.1,14.1C100.7,143.5,107,149.8,114.8,149.8z"/>
	</g>
</g>
<g>
</g>
<g>
</g>
<g>
</g>
<g>
</g>
<g>
</g>
<g>
</g>
<g>
</g>
<g>
</g>
<g>
</g>
<g>
</g>
<g>
</g>
<g>
</g>
<g>
</g>
<g>
</g>
<g>
</g>
</svg>
