<?xml version="1.0" encoding="iso-8859-1"?>
<!-- Generator: Adobe Illustrator 19.0.0, SVG Export Plug-In . SVG Version: 6.00 Build 0)  -->
<svg version="1.1" id="Layer_1" xmlns="http://www.w3.org/2000/svg" xmlns:xlink="http://www.w3.org/1999/xlink" x="0px" y="0px"
	 viewBox="0 0 508 508" style="enable-background:new 0 0 508 508;" xml:space="preserve">
<g>
	<g>
		<path d="M254.012,207.7c-42.1,0-76.2,34.1-76.2,76.2c0,42.1,34.1,76.2,76.2,76.2c42.1,0,76.2-34.1,76.2-76.2
			C330.212,241.8,296.112,207.7,254.012,207.7z M254.012,331.1c-26.1,0-47.2-21.1-47.2-47.2c0-26.1,21.1-47.2,47.2-47.2
			c26.1,0,47.2,21.1,47.2,47.2C301.212,310,280.112,331.1,254.012,331.1z"/>
	</g>
</g>
<g>
	<g>
		<path d="M454.812,83.1c-110.8-110.8-291-110.8-401.7,0c-5.7,5.7-5.7,14.9,0,20.5c5.7,5.7,14.9,5.7,20.5,0
			c99.5-99.4,261.2-99.4,360.7,0c2.8,2.8,14.6,5.7,20.5,0C460.712,98.1,460.512,88.7,454.812,83.1z"/>
	</g>
</g>
<g>
	<g>
		<path d="M405.612,132.3c-83.6-83.7-219.7-83.7-303.3,0c-5.7,5.7-5.7,14.9,0,20.5c5.7,5.7,14.9,5.7,20.5,0
			c72.3-72.3,190-72.3,262.3,0c2.8,2.8,13.6,6.5,20.5,0C411.412,147.3,411.312,137.9,405.612,132.3z"/>
	</g>
</g>
<g>
	<g>
		<path d="M356.412,181.4c-56.4-56.5-148.4-56.5-204.9,0c-5.7,5.7-5.7,14.9,0,20.5c5.7,5.7,14.9,5.7,20.5,0
			c45.2-45.2,118.7-45.2,163.9,0c2.8,2.8,14.2,6.6,20.5,0C362.012,196.1,362.112,187,356.412,181.4z"/>
	</g>
</g>
<g>
	<g>
		<polygon points="224.812,424.9 208.312,472.7 193.612,424.9 174.312,424.9 159.512,472.7 143.112,424.9 123.012,424.9 
			152.012,508 165.812,508 183.912,450.2 202.112,508 215.912,508 244.912,424.9 		"/>
	</g>
</g>
<g>
	<g>
		<rect x="254.712" y="424.9" width="18.5" height="83.1"/>
	</g>
</g>
<g>
	<g>
		<polygon points="350.712,441.2 350.712,424.9 293.712,424.9 293.712,508 312.212,508 312.212,475.4 348.812,475.4 348.812,459.2 
			312.212,459.2 312.212,441.2 		"/>
	</g>
</g>
<g>
	<g>
		<rect x="366.412" y="424.9" width="18.5" height="83.1"/>
	</g>
</g>
<g>
</g>
<g>
</g>
<g>
</g>
<g>
</g>
<g>
</g>
<g>
</g>
<g>
</g>
<g>
</g>
<g>
</g>
<g>
</g>
<g>
</g>
<g>
</g>
<g>
</g>
<g>
</g>
<g>
</g>
</svg>
