<?xml version="1.0" encoding="iso-8859-1"?>
<!-- Generator: Adobe Illustrator 19.0.0, SVG Export Plug-In . SVG Version: 6.00 Build 0)  -->
<svg version="1.1" id="Layer_1" xmlns="http://www.w3.org/2000/svg" xmlns:xlink="http://www.w3.org/1999/xlink" x="0px" y="0px"
	 viewBox="0 0 508.1 508.1" style="enable-background:new 0 0 508.1 508.1;" xml:space="preserve">
<g>
	<g>
		<path d="M293.7,275.6v-50.4c0-7.8-6.3-14.1-14.1-14.1H173.3c-7.8,0-14.1,6.3-14.1,14.1v50.4c-48.3,25-79.1,75-79.1,129.9
			c0,36.1,13.4,70.9,37.7,97.9c2.7,3,6.5,4.7,10.5,4.7h196.3c4,0,7.8-1.7,10.5-4.7c24.3-27,37.7-61.7,37.7-97.9
			C372.8,350.6,342,300.6,293.7,275.6z M187.4,239.3h78.1v31h-78.1V239.3z M318.1,479.8H134.8c-17.1-21.1-26.5-47.2-26.5-74.3
			c0-45.8,26.6-87.5,68-106.9h100.2c41.4,19.4,68,61.1,68,106.9C344.6,432.6,335.2,458.7,318.1,479.8z"/>
	</g>
</g>
<g>
	<g>
		<path d="M413.8,0c-77,0-139.8,61-143,137.2l-28.2,28.3c-5.5,5.5-5.5,14.4,0,20c6,6,17.2,2.8,20,0l28.2-28.3
			C367,153.9,428,91.1,428,14.2C427.9,6.3,421.6,0,413.8,0z M299.7,128.2c6.8-51.4,47.6-92.3,99-99
			C391.9,80.6,351.1,121.5,299.7,128.2z"/>
	</g>
</g>
<g>
</g>
<g>
</g>
<g>
</g>
<g>
</g>
<g>
</g>
<g>
</g>
<g>
</g>
<g>
</g>
<g>
</g>
<g>
</g>
<g>
</g>
<g>
</g>
<g>
</g>
<g>
</g>
<g>
</g>
</svg>
