<?xml version="1.0" encoding="iso-8859-1"?>
<!-- Generator: Adobe Illustrator 19.0.0, SVG Export Plug-In . SVG Version: 6.00 Build 0)  -->
<svg version="1.1" id="Layer_1" xmlns="http://www.w3.org/2000/svg" xmlns:xlink="http://www.w3.org/1999/xlink" x="0px" y="0px"
	 viewBox="0 0 508 508" style="enable-background:new 0 0 508 508;" xml:space="preserve">
<g>
	<g>
		<path d="M493.9,0.029H14.1c-7.8,0-14.1,6.3-14.1,14.1v334.9c0,7.8,6.3,14.1,14.1,14.1h225.8v58.8c-41.2,4-80.3,25.3-113.9,62.5
			c-5.2,5.8-4.8,14.8,1,19.9c6.4,5.6,17.1,2.1,19.9-1c28-30.9,59.9-49,93-53.1v43.6c0,7.8,6.3,14.1,14.1,14.1s14.1-6.3,14.1-14.1
			v-43.6c33.1,4,65,22.2,93,53.1c5.2,5.8,14.1,6.2,19.9,1s6.2-14.2,1-19.9c-33.6-37.1-72.7-58.5-113.9-62.5v-58.8h225.8
			c7.8,0,14.1-6.3,14.1-14.1v-334.9C508,6.329,501.7,0.029,493.9,0.029z M479.8,334.929L479.8,334.929H28.2v-306.7h451.6V334.929z"
			/>
	</g>
</g>
<g>
	<g>
		<path d="M437.4,56.529h-82c-7.8,0-14.1,6.3-14.1,14.1c0,7.8,6.3,14.1,14.1,14.1h47.9l-135.4,135.4l-62.5-62.5
			c-5.3-5.3-14.7-5.3-20,0l-124.8,125c-5.5,5.5-5.5,14.4,0,20c7,6.9,17.2,2.7,19.9-0.1l114.9-114.9l62.5,62.5c5.3,5.3,14.7,5.3,20,0
			l145.4-145.5v48c0,7.8,6.3,14.1,14.1,14.1c7.8,0,14.1-6.3,14.1-14.1v-82C451.5,62.829,445.2,56.529,437.4,56.529z"/>
	</g>
</g>
<g>
</g>
<g>
</g>
<g>
</g>
<g>
</g>
<g>
</g>
<g>
</g>
<g>
</g>
<g>
</g>
<g>
</g>
<g>
</g>
<g>
</g>
<g>
</g>
<g>
</g>
<g>
</g>
<g>
</g>
</svg>
