<?xml version="1.0" encoding="iso-8859-1"?>
<!-- Generator: Adobe Illustrator 19.0.0, SVG Export Plug-In . SVG Version: 6.00 Build 0)  -->
<svg version="1.1" id="Layer_1" xmlns="http://www.w3.org/2000/svg" xmlns:xlink="http://www.w3.org/1999/xlink" x="0px" y="0px"
	 viewBox="0 0 508.057 508.057" style="enable-background:new 0 0 508.057 508.057;" xml:space="preserve">
<g>
	<g>
		<path d="M504.557,156.679c-13-36.1-57.3-56-124.9-56c0,0,0,0-0.1,0c-34.2-28-77.9-44.9-125.5-44.9c-97,0-178,70.2-194.9,162.5
			c-48.2,41.5-68,83.4-55.5,118.1c11.9,33.2,52.2,51.9,107.9,55.2c36.1,37.4,86.6,60.7,142.5,60.7c103.1,0,188-79.1,197.3-179.9
			C495.757,233.079,516.957,191.079,504.557,156.679z M30.257,326.779c-6.3-17.5,3.3-41.2,25.8-66.3c1.2,36.7,12.4,70.8,31,99.9
			C56.457,354.879,36.057,343.079,30.257,326.779z M254.157,423.979c-37.4,0-72.1-12.2-100.2-32.8c42.7-2.8,91-12.9,141-30.9
			c47.5-17,89.4-38.5,123.3-62C398.657,370.579,332.557,423.979,254.157,423.979z M424.057,258.679c-33.3,27.2-80.4,54.2-138.6,75.1
			c-61,21.9-116.9,30.8-160.9,30.1c-25.2-29.7-40.4-68-40.4-109.9c0-93.7,76.2-170,170-170c93.7,0,170,76.3,170,170
			C424.157,255.579,424.057,257.079,424.057,258.679z M451.157,233.079c-4.1-38.6-19.2-73.8-42.2-102.6c37.2,4.3,62.3,16.9,69,35.7
			C484.157,183.579,474.357,207.579,451.157,233.079z"/>
	</g>
</g>
<g>
</g>
<g>
</g>
<g>
</g>
<g>
</g>
<g>
</g>
<g>
</g>
<g>
</g>
<g>
</g>
<g>
</g>
<g>
</g>
<g>
</g>
<g>
</g>
<g>
</g>
<g>
</g>
<g>
</g>
</svg>
