<?xml version="1.0" encoding="iso-8859-1"?>
<!-- Generator: Adobe Illustrator 19.0.0, SVG Export Plug-In . SVG Version: 6.00 Build 0)  -->
<svg version="1.1" id="Layer_1" xmlns="http://www.w3.org/2000/svg" xmlns:xlink="http://www.w3.org/1999/xlink" x="0px" y="0px"
	 viewBox="0 0 508.1 508.1" style="enable-background:new 0 0 508.1 508.1;" xml:space="preserve">
<g>
	<g>
		<path d="M306.95,70.6H84.75c-7.8,0-14.1,6.3-14.1,14.1s6.3,14.1,14.1,14.1h222.2c7.8,0,14.1-6.3,14.1-14.1
			S314.75,70.6,306.95,70.6z"/>
	</g>
</g>
<g>
	<g>
		<path d="M306.95,155.2H84.75c-7.8,0-14.1,6.3-14.1,14.1s6.3,14.1,14.1,14.1h222.2c7.8,0,14.1-6.3,14.1-14.1
			S314.75,155.2,306.95,155.2z"/>
	</g>
</g>
<g>
	<g>
		<path d="M239.45,239.9H84.75c-7.8,0-14.1,6.3-14.1,14.1s6.3,14.1,14.1,14.1h154.7c7.8,0,14.1-6.3,14.1-14.1
			C253.55,246.2,247.25,239.9,239.45,239.9z"/>
	</g>
</g>
<g>
	<g>
		<path d="M195.85,324.6H84.75c-7.8,0-14.1,6.3-14.1,14.1c0,7.8,6.3,14.1,14.1,14.1h111.1c7.8,0,14.1-6.4,14.1-14.1
			C209.95,330.9,203.65,324.6,195.85,324.6z"/>
	</g>
</g>
<g>
	<g>
		<path d="M210.55,409.2h-38.6c-7.8,0-14.1,6.3-14.1,14.1s6.3,14.1,14.1,14.1h38.6c7.8,0,14.1-6.3,14.1-14.1
			C224.65,415.5,218.35,409.2,210.55,409.2z"/>
	</g>
</g>
<g>
	<g>
		<path d="M391.55,238.6V40.8c0-22.5-18.3-40.8-40.7-40.8h-310c-22.5,0-40.8,18.3-40.8,40.8v338.9c0,10.9,4.2,21.1,12,28.8
			l87.6,87.6c7.7,7.7,17.9,12,28.8,12c0,0,238.7,0,244.2,0c74.7,0,135.4-60.8,135.4-135.4C508.05,304.3,457.25,247.8,391.55,238.6z
			 M103.25,459.8l-55-55h55V459.8z M131.45,479.8v-89.1c0-7.8-6.3-14.1-14.1-14.1h-89.1V40.8c0-6.9,5.6-12.6,12.6-12.6h310
			c6.9,0,12.5,5.6,12.5,12.6v196.8c-70.4,4.8-126.2,63.4-126.2,135c0,43.7,20.9,82.5,53,107.2H131.45z M372.65,479.8
			c-59.1,0-107.2-48.1-107.2-107.2c0-59.1,48.1-107.2,107.2-107.2c59.1,0,107.2,48.1,107.2,107.2
			C479.85,431.7,431.75,479.8,372.65,479.8z"/>
	</g>
</g>
<g>
	<g>
		<path d="M392.65,372.5l29.1-29.1c5.5-5.5,5.5-14.5,0-20s-14.4-5.5-20,0l-29.1,29.1l-29.1-29.1c-5.5-5.5-14.4-5.5-20,0
			c-5.5,5.5-5.5,14.4,0,20l29.1,29.1l-29.1,29.1c-5.5,5.5-5.5,14.4,0,20c5.7,5.7,14.4,5.5,20,0l29.1-29.1l29.1,29.1
			c5.6,5.6,14.7,5.3,20,0c5.5-5.5,5.5-14.4,0-20L392.65,372.5z"/>
	</g>
</g>
<g>
</g>
<g>
</g>
<g>
</g>
<g>
</g>
<g>
</g>
<g>
</g>
<g>
</g>
<g>
</g>
<g>
</g>
<g>
</g>
<g>
</g>
<g>
</g>
<g>
</g>
<g>
</g>
<g>
</g>
</svg>
