<?xml version="1.0" encoding="iso-8859-1"?>
<!-- Generator: Adobe Illustrator 19.0.0, SVG Export Plug-In . SVG Version: 6.00 Build 0)  -->
<svg version="1.1" id="Layer_1" xmlns="http://www.w3.org/2000/svg" xmlns:xlink="http://www.w3.org/1999/xlink" x="0px" y="0px"
	 viewBox="0 0 392.598 392.598" style="enable-background:new 0 0 392.598 392.598;" xml:space="preserve">
<g>
	<g>
		<path d="M299.636,176.226V10.925C299.636,4.913,294.788,0,288.711,0H103.887c-6.012,0-10.925,4.848-10.925,10.925v165.301
			c0,53.269,40.598,97.228,92.444,102.723v51.2c-40.016,2.909-73.18,21.721-82.554,47.838c-1.228,3.297-1.81,13.059,10.214,14.61
			h166.4c11.636-1.487,11.442-11.313,10.214-14.61c-9.374-26.052-42.473-44.865-82.554-47.838v-51.2
			C259.103,273.519,299.636,229.56,299.636,176.226z M114.812,21.85h162.974v113.002H114.812V21.85z M258.457,370.812h-124.25
			c13.576-11.572,37.042-19.265,62.125-19.265S244.881,359.24,258.457,370.812z M196.331,257.745
			c-44.865,0-81.519-36.525-81.519-81.519v-19.653h162.974v19.653C277.851,221.22,241.325,257.745,196.331,257.745z"/>
	</g>
</g>
<g>
</g>
<g>
</g>
<g>
</g>
<g>
</g>
<g>
</g>
<g>
</g>
<g>
</g>
<g>
</g>
<g>
</g>
<g>
</g>
<g>
</g>
<g>
</g>
<g>
</g>
<g>
</g>
<g>
</g>
</svg>
