<?xml version="1.0" encoding="iso-8859-1"?>
<!-- Generator: Adobe Illustrator 19.0.0, SVG Export Plug-In . SVG Version: 6.00 Build 0)  -->
<svg version="1.1" id="Layer_1" xmlns="http://www.w3.org/2000/svg" xmlns:xlink="http://www.w3.org/1999/xlink" x="0px" y="0px"
	 viewBox="0 0 392.576 392.576" style="enable-background:new 0 0 392.576 392.576;" xml:space="preserve">
<g>
	<g>
		<path d="M359.865,0.022H212.536c-18.036,0-32.711,14.675-32.711,32.711v86.303c0,14.222,9.115,26.376,21.786,30.836v43.572
			c1.552,15.774,16.356,9.826,18.489,7.822l51.071-49.519h88.695c18.036,0,32.711-14.675,32.711-32.711V32.733
			C392.576,14.696,377.902,0.022,359.865,0.022z M370.791,119.036c0,6.012-4.849,10.925-10.925,10.925h-93.091
			c-2.844,0-5.56,1.099-7.564,3.103l-35.749,34.651v-26.828c0-6.012-4.849-10.925-10.925-10.925
			c-6.012,0-10.925-4.849-10.925-10.925V32.733c0-6.012,4.849-10.925,10.925-10.925h147.329c6.012,0,10.925,4.849,10.925,10.925
			V119.036z"/>
	</g>
</g>
<g>
	<g>
		<path d="M329.481,309.872l-53.98-53.915c-6.206-6.206-27.539-18.747-46.287,0l-27.992,27.992
			c-1.875,1.875-4.913,2.844-9.115,2.844c-12.412,0-34.521-9.503-55.725-30.578c-13.059-13.059-23.273-28.251-27.927-41.697
			c-3.685-10.667-3.62-19.329,0.129-23.079l27.992-27.992c12.735-12.735,12.735-33.552,0-46.287l-53.85-54.044
			c-6.206-6.206-27.152-19.135-46.287,0L18.726,80.83c-21.075,21.075-24.501,56.501-9.568,99.556
			c14.093,40.469,42.796,83.846,81.067,122.052c55.531,55.531,120.954,90.117,170.602,90.117c21.075,0,38.723-6.465,50.941-18.683
			l17.713-17.713C342.217,343.424,342.217,322.607,329.481,309.872z M313.966,340.708l-17.713,17.713
			c-8.21,8.21-20.17,12.347-35.556,12.347c-43.442,0-104.339-32.84-155.151-83.782c-35.943-35.943-62.836-76.347-75.83-113.713
			c-11.895-34.327-10.279-62.384,4.396-77.059l17.713-17.713c6.206-6.206,13.382-2.069,15.451,0l53.915,53.915
			c4.267,4.267,4.267,11.184,0,15.451L93.199,175.86c-10.15,10.149-11.96,26.376-5.301,45.64
			c5.818,16.679,17.519,34.457,33.099,49.972c22.885,22.885,50.101,37.042,71.111,37.042c10.02,0,18.489-3.168,24.501-9.18
			l27.992-27.992c4.073-4.073,11.313-4.073,15.451,0l53.915,53.915C318.233,329.589,318.233,336.442,313.966,340.708z"/>
	</g>
</g>
<g>
	<g>
		<circle cx="237.037" cy="75.917" r="10.925"/>
	</g>
</g>
<g>
	<g>
		<circle cx="286.168" cy="75.917" r="10.925"/>
	</g>
</g>
<g>
	<g>
		<circle cx="335.3" cy="75.917" r="10.925"/>
	</g>
</g>
<g>
</g>
<g>
</g>
<g>
</g>
<g>
</g>
<g>
</g>
<g>
</g>
<g>
</g>
<g>
</g>
<g>
</g>
<g>
</g>
<g>
</g>
<g>
</g>
<g>
</g>
<g>
</g>
<g>
</g>
</svg>
