<?xml version="1.0" encoding="iso-8859-1"?>
<!-- Generator: Adobe Illustrator 19.0.0, SVG Export Plug-In . SVG Version: 6.00 Build 0)  -->
<svg version="1.1" id="Layer_1" xmlns="http://www.w3.org/2000/svg" xmlns:xlink="http://www.w3.org/1999/xlink" x="0px" y="0px"
	 viewBox="0 0 507.9 507.9" style="enable-background:new 0 0 507.9 507.9;" xml:space="preserve">
<g>
	<g>
		<path d="M381.296,269h-121.7v-45.5c85.5-7.2,152.8-79,152.8-166.3c0-7.8-6.3-14.1-14.1-14.1c-57.8,0-108.7,29.5-138.7,74.2V14.1
			c0-7.8-6.3-14.1-14.1-14.1c-7.8,0-14.1,6.3-14.1,14.1v42.6c-24-30.2-60.8-49.6-102.2-49.6c-7.8,0-14.1,6.3-14.1,14.1
			c0,67.1,51,122.5,116.2,129.5V269h-121.7c-5.3,0-10.1,2.9-12.5,7.6c-2.4,4.7-2.1,10.3,1,14.6c41.7,59.4,57.8,123.3,50.6,201.3
			c-0.4,4,1.6,15.4,14,15.4h165.5c13.1,0,14.4-11.5,14-15.4c-7.2-78,8.9-142,50.6-201.3c3-4.3,3.4-9.9,1-14.6
			C391.396,272,386.496,269,381.296,269z M383.296,72.1c-6.9,64.6-58.4,116.1-123,123C267.196,130.5,318.696,79,383.296,72.1z
			 M144.396,36.4c44.1,6.6,79.1,41.6,85.7,85.7C185.996,115.5,151.096,80.6,144.396,36.4z M312.996,479.8h-135.2
			c3.9-68.8-9.7-127.7-42.3-182.5h219.8C322.696,352.1,309.096,411,312.996,479.8z"/>
	</g>
</g>
<g>
</g>
<g>
</g>
<g>
</g>
<g>
</g>
<g>
</g>
<g>
</g>
<g>
</g>
<g>
</g>
<g>
</g>
<g>
</g>
<g>
</g>
<g>
</g>
<g>
</g>
<g>
</g>
<g>
</g>
</svg>
