<?xml version="1.0" encoding="iso-8859-1"?>
<!-- Generator: Adobe Illustrator 19.0.0, SVG Export Plug-In . SVG Version: 6.00 Build 0)  -->
<svg version="1.1" id="Layer_1" xmlns="http://www.w3.org/2000/svg" xmlns:xlink="http://www.w3.org/1999/xlink" x="0px" y="0px"
	 viewBox="0 0 508 508" style="enable-background:new 0 0 508 508;" xml:space="preserve">
<g>
	<g>
		<path d="M445.15,0H62.75c-7.8,0-14.1,6.3-14.1,14.1v67.1c0,7.8,6.3,14.1,14.1,14.1h11.5l30.6,373.8c1.8,21.8,20.3,38.9,42.2,38.9
			h213.9c21.9,0,40.4-17.1,42.2-38.9l30.6-373.8h11.5c7.8,0,14.1-6.3,14.1-14.1V14.1C459.25,6.3,452.95,0,445.15,0z M374.95,466.8
			c-0.6,7.3-6.8,13-14.1,13h-213.8c-7.3,0-13.5-5.7-14.1-13l-30.4-371.5h302.8L374.95,466.8z M431.05,67H76.85V28.2h354.2V67z"/>
	</g>
</g>
<g>
	<g>
		<path d="M336.05,205.5l-0.1-0.1c-0.1-0.1-0.2-0.2-0.3-0.2c-12.6-12.4-29.7-18.9-49.6-18.9c-30.6,0-64.6,15.8-91.1,42.3
			c-45.6,45.6-55.9,106.8-23.8,140.2c0-0.1,0.1,0,0.2,0.1c0.2,0.2,0.4,0.4,0.6,0.7c12.6,12.6,29.9,19.3,50,19.3
			c30.6,0,64.6-15.8,91.1-42.3C359.05,300.6,369.15,238.6,336.05,205.5z M214.85,248.4c21.3-21.3,47.9-34,71.1-34
			c2.9,0,6.3,0.3,9.8,0.9c-23.9,14.3-55.9,39.6-55.9,72.2c0,21.8-33.3,43.7-53.7,54.4C173.25,318.5,184.75,278.4,214.85,248.4z
			 M293.05,326.7c-21.3,21.3-47.9,34-71.1,34c-2.9,0-6.3-0.3-9.8-0.9c23.9-14.3,55.9-39.6,55.9-72.2c0-21.8,33.3-43.7,53.7-54.4
			C334.65,256.5,323.15,296.6,293.05,326.7z"/>
	</g>
</g>
<g>
</g>
<g>
</g>
<g>
</g>
<g>
</g>
<g>
</g>
<g>
</g>
<g>
</g>
<g>
</g>
<g>
</g>
<g>
</g>
<g>
</g>
<g>
</g>
<g>
</g>
<g>
</g>
<g>
</g>
</svg>
