<?xml version="1.0" encoding="iso-8859-1"?>
<!-- Generator: Adobe Illustrator 19.0.0, SVG Export Plug-In . SVG Version: 6.00 Build 0)  -->
<svg version="1.1" id="Layer_1" xmlns="http://www.w3.org/2000/svg" xmlns:xlink="http://www.w3.org/1999/xlink" x="0px" y="0px"
	 viewBox="0 0 508 508" style="enable-background:new 0 0 508 508;" xml:space="preserve">
<g>
	<g>
		<path d="M397.2,168.7c5.9-8.5,9.4-18.8,9.4-30c0-29-23.6-52.6-52.6-52.6c-13.8,0-26.3,5.4-35.7,14.1
			c-20.4-8.6-41.9-12.9-64.2-12.9C162,87.2,87.2,162,87.2,254S162,420.8,254,420.8S420.8,346,420.8,254
			C420.8,223.7,412.6,194.5,397.2,168.7z M353.9,114.3c13.5,0,24.4,10.9,24.4,24.4c0,15.1-11,24.4-24.4,24.4
			c-13.5,0-24.4-10.9-24.4-24.4S340.5,114.3,353.9,114.3z M254,392.5c-76.4,0-138.5-62.1-138.5-138.5S177.6,115.5,254,115.5
			c30.5,0,49.1,9.8,49,10.2c-1.1,4.2-1.7,8.5-1.7,13c0,29,23.6,52.6,52.6,52.6c7.5,0,14.6-1.6,21.1-4.4c0.1,0,17.6,26.9,17.6,67.1
			C392.5,330.4,330.4,392.5,254,392.5z"/>
	</g>
</g>
<g>
	<g>
		<path d="M508,254C508,113.9,394.1,0,254,0S0,113.9,0,254s113.9,254,254,254c48.7,0,95.6-13.9,136.4-40.1
			c8.8,6.6,19.6,10.5,31.4,10.5c29,0,52.6-23.6,52.6-52.6c0-11.3-3.6-21.7-9.7-30.3C493.1,353.6,508,304.9,508,254z M421.8,450.2
			c-13.5,0-24.4-10.9-24.4-24.4s10.9-24.4,24.4-24.4s24.4,10.9,24.4,24.4C446.2,439.2,435.3,450.2,421.8,450.2z M442.7,377.5
			c-6.4-2.8-13.5-4.3-20.9-4.3c-29,0-52.6,23.6-52.6,52.6c0,7,1.4,13.6,3.9,19.7c-35.8,22.4-76.7,34.2-119.1,34.2
			C129.5,479.8,28.2,378.5,28.2,254S129.5,28.2,254,28.2S479.8,129.5,479.8,254C479.8,298.3,466.9,340.7,442.7,377.5z"/>
	</g>
</g>
<g>
	<g>
		<path d="M254,174.5c-27.4,0-52.8,14.4-67.3,37.3c-22.5,1-40.5,19.5-40.5,42.2s18,41.3,40.5,42.2c14.4,22.9,39.9,37.3,67.3,37.3
			c43.9,0,79.5-35.7,79.5-79.5S297.9,174.5,254,174.5z M188.6,268.1c-7.8,0-14.1-6.3-14.1-14.1s6.3-14.1,14.1-14.1
			c7.8,0,14.1,6.3,14.1,14.1S196.4,268.1,188.6,268.1z M254,305.3c-15.2,0-29.4-6.9-39.1-18.3c9.7-7.8,16-19.7,16-33.1
			c0-13.4-6.3-25.3-16-33.1c9.6-11.3,23.9-18.2,39.1-18.2c28.3,0,51.3,23,51.3,51.3C305.3,282.2,282.3,305.3,254,305.3z"/>
	</g>
</g>
<g>
</g>
<g>
</g>
<g>
</g>
<g>
</g>
<g>
</g>
<g>
</g>
<g>
</g>
<g>
</g>
<g>
</g>
<g>
</g>
<g>
</g>
<g>
</g>
<g>
</g>
<g>
</g>
<g>
</g>
</svg>
