<?xml version="1.0" encoding="iso-8859-1"?>
<!-- Generator: Adobe Illustrator 19.0.0, SVG Export Plug-In . SVG Version: 6.00 Build 0)  -->
<svg version="1.1" id="Layer_1" xmlns="http://www.w3.org/2000/svg" xmlns:xlink="http://www.w3.org/1999/xlink" x="0px" y="0px"
	 viewBox="0 0 507.968 507.968" style="enable-background:new 0 0 507.968 507.968;" xml:space="preserve">
<g>
	<g>
		<path d="M406.071,349.1l-29.2-30.1l5.9-41.5c1.1-7.5-4-14.6-11.5-15.9l-41.3-7.2c0,0-1.1-0.3-1.1-9.7v-61.6
			c0-7.8-6.3-14.1-14.1-14.1h-6.2l91.5-147.4c2.7-4.4,2.8-9.8,0.3-14.3s-7.2-7.3-12.3-7.3h-78.3c-4.9,0-9.4,2.5-12,6.7l-43.8,70.4
			l-43.7-70.4c-2.6-4.1-7.1-6.7-12-6.7h-78.3c-5.1,0-9.8,2.8-12.3,7.3s-2.4,9.9,0.3,14.3l89,147.4h-3.8c-7.8,0-14.1,6.3-14.1,14.1
			v61.6c0,9.4-1.1,9.7-1.1,9.7l-41.3,7.2c-7.5,1.3-12.6,8.3-11.5,15.9l5.9,41.5l-29.2,30.1c-5.3,5.5-5.3,14.2,0,19.6l29.2,30.1
			l-5.9,41.5c-1.1,7.5,4,14.6,11.5,15.9l41.3,7.2l19.7,37c3,7,9.7,9.3,18.7,6.1l37.7-18.4l37.7,18.4c6.8,3.4,15.1,0.7,18.7-6.1
			l19.7-37l41.3-7.2c7.5-1.3,12.6-8.3,11.5-15.9l-5.9-41.5l29.2-30.1C411.371,363.2,411.371,354.5,406.071,349.1z M317.571,28.2
			h45.1l-87.4,140.8h-45.1L317.571,28.2z M300.671,197.2v33.3h-93.3v-33.3H300.671z M145.271,28.2h45.1l47,75.7l-23.5,37.7
			L145.271,28.2z M351.871,384.2c-3,3.1-4.4,7.5-3.8,11.8l4.9,34.8l-34.6,6.1c-4.3,0.8-8,3.4-10,7.3l-16.5,31.1l-31.6-15.4
			c-3.9-1.9-8.5-1.9-12.4,0l-31.6,15.4l-16.5-31.1c-2-3.8-5.7-6.5-10-7.3l-34.6-6.1l4.8-34.8c0.6-4.3-0.8-8.7-3.8-11.8l-24.5-25.3
			l24.5-25.3c3-3.1,4.4-7.5,3.8-11.8l-4.9-34.8l34.6-6.1c4.3-0.8,8-3.4,10-7.3l7.9-14.9h92.8l7.9,14.9c2,3.8,5.7,6.5,10,7.3
			l34.6,6.1l-4.9,34.8c-0.6,4.3,0.8,8.7,3.8,11.8l24.5,25.3L351.871,384.2z"/>
	</g>
</g>
<g>
	<g>
		<path d="M278.971,394.5h-9.7v-84.2c0-5.7-3.4-10.9-8.7-13c-5.3-2.2-11.3-1-15.4,3.1l-26.2,26c-5.5,5.5-5.5,14.4,0,20
			c5.5,5.5,14.4,5.5,20,0l2-2v50.2h-9.7c-7.8,0-14.1,6.3-14.1,14.1c0,7.8,6.3,14.1,14.1,14.1h47.7c7.8,0,14.1-6.3,14.1-14.1
			C293.071,400.8,286.771,394.5,278.971,394.5z"/>
	</g>
</g>
<g>
</g>
<g>
</g>
<g>
</g>
<g>
</g>
<g>
</g>
<g>
</g>
<g>
</g>
<g>
</g>
<g>
</g>
<g>
</g>
<g>
</g>
<g>
</g>
<g>
</g>
<g>
</g>
<g>
</g>
</svg>
