<?xml version="1.0" encoding="iso-8859-1"?>
<!-- Generator: Adobe Illustrator 19.0.0, SVG Export Plug-In . SVG Version: 6.00 Build 0)  -->
<svg version="1.1" id="Layer_1" xmlns="http://www.w3.org/2000/svg" xmlns:xlink="http://www.w3.org/1999/xlink" x="0px" y="0px"
	 viewBox="0 0 508.038 508.038" style="enable-background:new 0 0 508.038 508.038;" xml:space="preserve">
<g>
	<g>
		<path d="M502.957,100.006l-73.9-73.8c-5.5-5.5-10-10-19.9,0l-31,31c-94-82-228.7-73.2-311.6,9.7c-85.4,85.3-88.6,222.1-9.7,311.3
			l-31,31c-10,10-2.6,17.3,0,19.9l73.9,73.8c2.8,2.7,10,10,19.9,0l383.3-383C512.957,109.906,505.557,102.606,502.957,100.006z
			 M450.357,132.606l-19.2-19.2c-5.5-5.5-14.4-5.5-19.9,0s-5.5,14.4,0,19.9l19.2,19.2l-22.7,22.7l-9.2-9.1c-5.5-5.5-14.4-5.5-19.9,0
			s-5.5,14.4,0,19.9l9.1,9.1l-22.7,22.6l-19.1-19.2c-5.5-5.5-14.4-5.5-19.9,0s-5.5,14.4,0,19.9l19.2,19.2l-22.7,22.6l-9.1-9.1
			c-5.5-5.5-14.4-5.5-19.9,0c-5.5,5.5-5.5,14.4,0,19.9l9.1,9.1l-22.7,22.7l-19.2-19.2c-5.5-5.5-14.4-5.5-19.9,0s-5.5,14.4,0,19.9
			l19.2,19.2l-22.7,22.6l-9.2-9.1c-5.5-5.5-14.4-5.5-19.9,0s-5.5,14.4,0,19.9l9.2,9.1l-22.7,22.6l-19.2-19.2
			c-5.5-5.5-14.4-5.5-19.9,0s-5.5,14.4,0,19.9l19.2,19.2l-22.7,22.7l-9.1-9.1c-5.5-5.5-14.4-5.5-19.9,0c-5.5,5.5-5.5,14.4,0,19.9
			l9.1,9.1l-22.6,22.7l-53.9-53.9l30.7-30.7c10.2-10.2,2.6-17.3,0-19.9c-77.7-77.7-77.7-204.1,0-281.8c77.8-77.7,204.3-77.6,282,0
			c5.5,5.5,10.5,9.4,19.9,0l30.7-30.7l53.9,53.9L450.357,132.606z"/>
	</g>
</g>
<g>
	<g>
		<path d="M317.757,137.306c-49.7-49.8-134.8-45.9-180.8,0c-49.9,49.8-49.9,130.9,0,180.7c2.6,2.6,10,10,19.9,0l160.9-160.8
			C327.757,147.206,320.357,139.906,317.757,137.306z M147.657,287.406c-29.3-39-26.2-94.8,9.3-130.2c37.3-37.3,93.7-37.6,130.3-9.3
			L147.657,287.406z"/>
	</g>
</g>
<g>
</g>
<g>
</g>
<g>
</g>
<g>
</g>
<g>
</g>
<g>
</g>
<g>
</g>
<g>
</g>
<g>
</g>
<g>
</g>
<g>
</g>
<g>
</g>
<g>
</g>
<g>
</g>
<g>
</g>
</svg>
