<?xml version="1.0" encoding="iso-8859-1"?>
<!-- Generator: Adobe Illustrator 19.0.0, SVG Export Plug-In . SVG Version: 6.00 Build 0)  -->
<svg version="1.1" id="Layer_1" xmlns="http://www.w3.org/2000/svg" xmlns:xlink="http://www.w3.org/1999/xlink" x="0px" y="0px"
	 viewBox="0 0 508.1 508.1" style="enable-background:new 0 0 508.1 508.1;" xml:space="preserve">
<g>
	<g>
		<path d="M174.1,124.75H70.6c-7.8,0-14.1,6.3-14.1,14.1v298.6c0,7.8,6.3,14.1,14.1,14.1h103.5c7.8,0,14.1-6.3,14.1-14.1v-298.6
			C188.2,131.05,181.9,124.75,174.1,124.75z M160,423.35H84.7v-270.4H160V423.35z"/>
	</g>
</g>
<g>
	<g>
		<path d="M467.2,68.25h-25.8v-54.1c0-7.8-6.3-14.1-14.1-14.1H238.5c-7.8,0-14.1,6.3-14.1,14.1v54.1H40.8
			c-22.5,0-40.8,18.3-40.8,40.8v358.2c0,22.5,18.3,40.8,40.8,40.8h426.5c22.5,0,40.8-18.3,40.8-40.8v-358.2
			C508,86.55,489.7,68.25,467.2,68.25z M252.6,28.25h160.5v99.3H252.6V28.25z M479.8,467.25c0,6.9-5.6,12.5-12.5,12.5H40.8
			c-6.9,0-12.5-5.6-12.5-12.5v-358.2c0-6.9,5.6-12.5,12.5-12.5h183.6v31.1h-3.2c-7.8,0-14.1,6.3-14.1,14.1s6.3,14.1,14.1,14.1h223.5
			c7.8,0,14.1-6.3,14.1-14.1s-6.3-14.1-14.1-14.1h-3.2v-31.1h25.8c6.9,0,12.5,5.6,12.5,12.5V467.25z"/>
	</g>
</g>
<g>
	<g>
		<path d="M427.3,184.05H238.5c-7.8,0-14.1,6.3-14.1,14.1v66.1c0,7.8,6.3,14.1,14.1,14.1h188.8c7.8,0,14.1-6.3,14.1-14.1v-66.1
			C441.4,190.35,435.1,184.05,427.3,184.05z M252.6,250.15v-37.9h160.5v37.9H252.6z"/>
	</g>
</g>
<g>
	<g>
		<path d="M258.2,306.65h-10.5c-7.8,0-14.1,6.3-14.1,14.1c0,7.8,6.3,14.1,14.1,14.1h10.5c7.8,0,14.1-6.3,14.1-14.1
			C272.3,312.95,266,306.65,258.2,306.65z"/>
	</g>
</g>
<g>
	<g>
		<path d="M311.5,306.65H301c-7.8,0-14.1,6.3-14.1,14.1c0,7.8,6.3,14.1,14.1,14.1h10.5c7.8,0,14.1-6.3,14.1-14.1
			C325.6,312.95,319.3,306.65,311.5,306.65z"/>
	</g>
</g>
<g>
	<g>
		<path d="M364.8,306.65h-10.5c-7.8,0-14.1,6.3-14.1,14.1c0,7.8,6.3,14.1,14.1,14.1h10.5c7.8,0,14.1-6.3,14.1-14.1
			C378.9,312.95,372.6,306.65,364.8,306.65z"/>
	</g>
</g>
<g>
	<g>
		<path d="M418.1,306.65h-10.5c-7.8,0-14.1,6.3-14.1,14.1c0,7.8,6.3,14.1,14.1,14.1h10.5c7.8,0,14.1-6.3,14.1-14.1
			C432.2,312.95,425.9,306.65,418.1,306.65z"/>
	</g>
</g>
<g>
	<g>
		<path d="M258.2,363.05h-10.5c-7.8,0-14.1,6.3-14.1,14.1s6.3,14.1,14.1,14.1h10.5c7.8,0,14.1-6.3,14.1-14.1
			C272.3,369.35,266,363.05,258.2,363.05z"/>
	</g>
</g>
<g>
	<g>
		<path d="M311.5,363.05H301c-7.8,0-14.1,6.3-14.1,14.1s6.3,14.1,14.1,14.1h10.5c7.8,0,14.1-6.3,14.1-14.1
			C325.6,369.35,319.3,363.05,311.5,363.05z"/>
	</g>
</g>
<g>
	<g>
		<path d="M364.8,363.05h-10.5c-7.8,0-14.1,6.3-14.1,14.1s6.3,14.1,14.1,14.1h10.5c7.8,0,14.1-6.3,14.1-14.1
			C378.9,369.35,372.6,363.05,364.8,363.05z"/>
	</g>
</g>
<g>
	<g>
		<path d="M418.1,363.05h-10.5c-7.8,0-14.1,6.3-14.1,14.1s6.3,14.1,14.1,14.1h10.5c7.8,0,14.1-6.3,14.1-14.1
			C432.2,369.35,425.9,363.05,418.1,363.05z"/>
	</g>
</g>
<g>
	<g>
		<path d="M258.2,419.45h-10.5c-7.8,0-14.1,6.3-14.1,14.1c0,7.8,6.3,14.1,14.1,14.1h10.5c7.8,0,14.1-6.3,14.1-14.1
			C272.3,425.85,266,419.45,258.2,419.45z"/>
	</g>
</g>
<g>
	<g>
		<path d="M311.5,419.45H301c-7.8,0-14.1,6.3-14.1,14.1c0,7.8,6.3,14.1,14.1,14.1h10.5c7.8,0,14.1-6.3,14.1-14.1
			C325.6,425.85,319.3,419.45,311.5,419.45z"/>
	</g>
</g>
<g>
	<g>
		<path d="M364.8,419.45h-10.5c-7.8,0-14.1,6.3-14.1,14.1c0,7.8,6.3,14.1,14.1,14.1h10.5c7.8,0,14.1-6.3,14.1-14.1
			C378.9,425.85,372.6,419.45,364.8,419.45z"/>
	</g>
</g>
<g>
	<g>
		<path d="M418.1,419.45h-10.5c-7.8,0-14.1,6.3-14.1,14.1c0,7.8,6.3,14.1,14.1,14.1h10.5c7.8,0,14.1-6.3,14.1-14.1
			C432.2,425.85,425.9,419.45,418.1,419.45z"/>
	</g>
</g>
<g>
</g>
<g>
</g>
<g>
</g>
<g>
</g>
<g>
</g>
<g>
</g>
<g>
</g>
<g>
</g>
<g>
</g>
<g>
</g>
<g>
</g>
<g>
</g>
<g>
</g>
<g>
</g>
<g>
</g>
</svg>
