<?xml version="1.0" encoding="iso-8859-1"?>
<!-- Generator: Adobe Illustrator 19.0.0, SVG Export Plug-In . SVG Version: 6.00 Build 0)  -->
<svg version="1.1" id="Layer_1" xmlns="http://www.w3.org/2000/svg" xmlns:xlink="http://www.w3.org/1999/xlink" x="0px" y="0px"
	 viewBox="0 0 508 508" style="enable-background:new 0 0 508 508;" xml:space="preserve">
<g>
	<g>
		<path d="M451.657,199.9h-68.8c-1.4-13.3-3.5-26.7-6.5-40.1c-1.4-6.5-7.2-11.1-13.8-11.1h-297.7c-6.6,0-12.3,4.6-13.8,11.1
			c-15.4,69.3-7.7,138.7-0.3,205.8c4.7,42.1,9.5,85.6,8.3,127.9c-0.1,3.8,2.4,14.5,14.2,14.5h281c12.9,0,14.2-10.7,14.1-14.5
			c-0.7-25.8,0.8-52,3.2-78c58.3-37.7,94.3-98.8,94.3-161.3V214C465.757,206.2,459.457,199.9,451.657,199.9z M173.157,281.9
			c7.8,0,14.1-6.3,14.1-14.1v-7.2h16.3v85h-60.8v-85h16.3v7.2C159.057,275.6,165.357,281.9,173.157,281.9z M348.557,362.5
			c-4.3,38.3-8.6,77.8-8.7,117.3h-252.3c0-39.4-4.4-78.9-8.7-117.3c-7.1-63.9-13.8-124.5-2.5-185.5h82.7v55.5h-30.4
			c-7.8,0-14.1,6.3-14.1,14.1v113.2c0,7.8,6.3,14.1,14.1,14.1h89c7.8,0,14.1-6.3,14.1-14.1V246.6c0-7.8-6.3-14.1-14.1-14.1h-30.4
			V177h163.8C362.357,238,355.657,298.6,348.557,362.5z M437.557,254.2c0,45-23.8,91-62.2,123.4c0.4-4,0.9-8,1.3-11.9
			c5-45,10.1-91.1,8.2-137.5h52.7V254.2z"/>
	</g>
</g>
<g>
	<g>
		<path d="M139.057,27.9c-7.8,0-14.1,6.3-14.1,14.1v41.7c0,7.8,6.3,14.2,14.1,14.2c7.8,0,14.1-6.3,14.1-14.1V42
			C153.157,34.2,146.857,27.9,139.057,27.9z"/>
	</g>
</g>
<g>
	<g>
		<path d="M213.657,0c-7.8,0-14.1,6.3-14.1,14.1v41.7c0,7.8,6.4,14.1,14.1,14.1c7.8,0,14.1-6.3,14.1-14.1V14.1
			C227.757,6.3,221.457,0,213.657,0z"/>
	</g>
</g>
<g>
	<g>
		<path d="M288.357,27.9c-7.8,0-14.1,6.3-14.1,14.1v41.7c0,7.8,6.3,14.2,14.1,14.2s14.1-6.3,14.1-14.1V42
			C302.457,34.2,296.157,27.9,288.357,27.9z"/>
	</g>
</g>
<g>
</g>
<g>
</g>
<g>
</g>
<g>
</g>
<g>
</g>
<g>
</g>
<g>
</g>
<g>
</g>
<g>
</g>
<g>
</g>
<g>
</g>
<g>
</g>
<g>
</g>
<g>
</g>
<g>
</g>
</svg>
