<?xml version="1.0" encoding="iso-8859-1"?>
<!-- Generator: Adobe Illustrator 19.0.0, SVG Export Plug-In . SVG Version: 6.00 Build 0)  -->
<svg version="1.1" id="Layer_1" xmlns="http://www.w3.org/2000/svg" xmlns:xlink="http://www.w3.org/1999/xlink" x="0px" y="0px"
	 viewBox="0 0 508 508" style="enable-background:new 0 0 508 508;" xml:space="preserve">
<g>
	<g>
		<path d="M464.85,0H95.95c-23.4,0-42.3,19-42.3,42.3v23.6h-10.6c-7.8,0-14.1,6.3-14.1,14.1s6.3,14.1,14.1,14.1h10.6v36.7h-10.6
			c-7.8,0-14.1,6.3-14.1,14.1c0,7.8,6.3,14.1,14.1,14.1h10.6v190h-10.6c-7.8,0-14.1,6.3-14.1,14.1s6.3,14.1,14.1,14.1h10.6v36.7
			h-10.6c-7.8,0-14.1,6.3-14.1,14.1s6.3,14.1,14.1,14.1h10.6v23.6c0,23.3,19,42.3,42.3,42.3h369c7.8,0,14.1-6.3,14.1-14.1V14.1
			C479.05,6.3,472.65,0,464.85,0z M133.95,479.8h-38c-7.8,0-14.1-6.3-14.1-14.1v-23.6h9.8c7.8,0,14.1-6.3,14.1-14.1
			c0-7.8-6.3-14.1-14.1-14.1h-9.8v-36.7h9.8c7.8,0,14.1-6.3,14.1-14.1c0-7.8-6.3-14.1-14.1-14.1h-9.8V159h9.8
			c7.8,0,14.1-6.3,14.1-14.1c0-7.8-6.3-14.1-14.1-14.1h-9.8V94.1h9.8c7.8,0,14.1-6.3,14.1-14.1s-6.3-14.1-14.1-14.1h-9.8V42.3
			c0-7.8,6.3-14.1,14.1-14.1h38V479.8z M450.75,479.8h-288.6V28.2h288.6V479.8z"/>
	</g>
</g>
<g>
	<g>
		<path d="M371.75,259.3c-41.8-16-88.8-16-130.6,0c-22.3,8.5-36.7,29.3-36.7,52.9v64.3c0,7.7,6.3,14.1,14.1,14.1h175.8
			c7.8,0,14.1-6.3,14.1-14.1v-64.3C408.45,288.6,394.05,267.8,371.75,259.3z M380.35,362.4h-147.6v-50.2c0-11.8,7.3-22.3,18.6-26.6
			c35.3-13.5,75.1-13.6,110.4,0c11.3,4.3,18.6,14.8,18.6,26.6V362.4z"/>
	</g>
</g>
<g>
	<g>
		<path d="M306.45,117.5c-30.7,0-55.6,24.9-55.6,55.6c0,30.7,24.9,55.6,55.6,55.6s55.6-24.9,55.6-55.6
			C362.05,142.4,337.15,117.5,306.45,117.5z M306.45,200.5c-15.1,0-27.4-12.3-27.4-27.4s12.3-27.4,27.4-27.4
			c15.1,0,27.4,12.3,27.4,27.4C333.85,188.2,321.55,200.5,306.45,200.5z"/>
	</g>
</g>
<g>
</g>
<g>
</g>
<g>
</g>
<g>
</g>
<g>
</g>
<g>
</g>
<g>
</g>
<g>
</g>
<g>
</g>
<g>
</g>
<g>
</g>
<g>
</g>
<g>
</g>
<g>
</g>
<g>
</g>
</svg>
