<?xml version="1.0" encoding="iso-8859-1"?>
<!-- Generator: Adobe Illustrator 19.0.0, SVG Export Plug-In . SVG Version: 6.00 Build 0)  -->
<svg version="1.1" id="Layer_1" xmlns="http://www.w3.org/2000/svg" xmlns:xlink="http://www.w3.org/1999/xlink" x="0px" y="0px"
	 viewBox="0 0 508.025 508.025" style="enable-background:new 0 0 508.025 508.025;" xml:space="preserve">
<g>
	<g>
		<path d="M502.513,187.025l-81.4-62.4v-39.4c0-7.8-6.3-14.1-14.1-14.1h-55.6l-88.8-68.2c-5.1-3.9-12.1-3.9-17.2,0l-88.8,68.2h-55.6
			c-7.8,0-14.1,6.3-14.1,14.1v39.4l-81.4,62.4c-3.5,2.7-5.5,6.8-5.5,11.2c0,0.2,0,295.7,0,295.7c0,7.8,6.3,14.1,14.1,14.1h479.8
			c7.8,0,14.1-6.3,14.1-14.1c0,0,0-295.2,0-295.7C508.013,193.825,506.013,189.725,502.513,187.025z M421.113,160.225l49.6,38.1
			l-49.6,38.1V160.225z M254.012,31.925l51.1,39.2h-102.2L254.012,31.925z M115.112,99.325h277.8v158.7l-138.9,106.6l-138.9-106.6
			V99.325z M86.913,160.225v76.1l-49.6-38.1L86.913,160.225z M28.213,226.925l155.3,119.2l-155.3,119.2V226.925z M55.713,479.825
			l151-115.9l38.8,29.8c5.1,3.9,12.1,3.9,17.2,0l38.8-29.8l151,115.9H55.713z M479.813,465.325l-155.3-119.2l155.3-119.2V465.325z"
			/>
	</g>
</g>
<g>
	<g>
		<path d="M336.513,207.925h-164.9c-7.8,0-14.1,6.3-14.1,14.1s6.3,14.1,14.1,14.1h164.9c7.7,0,14.1-6.3,14.1-14.1
			S344.313,207.925,336.513,207.925z"/>
	</g>
</g>
<g>
	<g>
		<path d="M336.513,141.725h-164.9c-7.8,0-14.1,6.3-14.1,14.1s6.3,14.1,14.1,14.1h164.9c7.8,0,14.1-6.3,14.1-14.1
			S344.313,141.725,336.513,141.725z"/>
	</g>
</g>
<g>
	<g>
		<path d="M297.913,274.125h-87.7c-7.8,0-14.1,6.3-14.1,14.1c0,7.8,6.3,14.1,14.1,14.1h87.7c7.7,0,14.1-6.3,14.1-14.1
			S305.713,274.125,297.913,274.125z"/>
	</g>
</g>
<g>
</g>
<g>
</g>
<g>
</g>
<g>
</g>
<g>
</g>
<g>
</g>
<g>
</g>
<g>
</g>
<g>
</g>
<g>
</g>
<g>
</g>
<g>
</g>
<g>
</g>
<g>
</g>
<g>
</g>
</svg>
