<?xml version="1.0" encoding="iso-8859-1"?>
<!-- Generator: Adobe Illustrator 19.0.0, SVG Export Plug-In . SVG Version: 6.00 Build 0)  -->
<svg version="1.1" id="Layer_1" xmlns="http://www.w3.org/2000/svg" xmlns:xlink="http://www.w3.org/1999/xlink" x="0px" y="0px"
	 viewBox="0 0 507.9 507.9" style="enable-background:new 0 0 507.9 507.9;" xml:space="preserve">
<g>
	<g>
		<path d="M437.25,0H70.45c-23.3,0-42.3,19-42.3,42.3v367.4c0,22.7,18,41.3,40.6,42.2v41.9c0,7.8,6.3,14.1,14.1,14.1h69.9
			c7.8,0,14.1-6.3,14.1-14.1V452h174.2v41.8c0,7.8,6.3,14.1,14.1,14.1h69.9c7.8,0,14.1-6.3,14.1-14.1V452
			c22.5-0.9,40.6-19.5,40.6-42.2V42.3C479.55,19,460.55,0,437.25,0z M138.55,479.8h-41.6v-27.7h41.6V479.8z M410.85,479.8h-41.6
			v-27.7h41.6V479.8z M451.35,409.8c0,7.8-6.3,14.1-14.1,14.1H70.45c-7.8,0-14.1-6.3-14.1-14.1V42.3c0-7.8,6.3-14.1,14.1-14.1h366.8
			c7.8,0,14.1,6.3,14.1,14.1V409.8z"/>
	</g>
</g>
<g>
	<g>
		<path d="M409.55,55.9H98.15c-7.8,0-14.1,6.3-14.1,14.1v167.3c0,5.3,3,10.1,7.7,12.5c48.4,24.9,104.4,38,162.2,38
			c57.7,0,113.8-13.1,162.2-38c4.7-2.4,7.7-7.3,7.7-12.5V70C423.65,62.2,417.35,55.9,409.55,55.9z M159.45,246.4
			c5.7-10.4,16.7-17.2,29.1-17.2c16.9,0,30.7,12.6,32.9,28.9C200.25,256.1,179.45,252.2,159.45,246.4z M395.45,228.6
			c-42.6,20.4-91.4,31.1-141.6,31.1c-1.3,0-2.5-0.1-3.8-0.1c-1.6-32.6-28.5-58.6-61.4-58.6c-24.8,0-46.4,14.4-56.2,36.3
			c-6.9-2.7-13.6-5.5-20.2-8.7V84.1h283.2V228.6z"/>
	</g>
</g>
<g>
	<g>
		<path d="M126.05,312.1c-23.2,0-42.1,18.9-42.1,42.1s18.9,42.1,42.1,42.1s42.1-18.9,42.1-42.1S149.25,312.1,126.05,312.1z
			 M126.05,368c-7.6,0-13.8-6.2-13.8-13.8c0-7.6,6.2-13.8,13.8-13.8c7.6,0,13.8,6.2,13.8,13.8C139.95,361.8,133.65,368,126.05,368z"
			/>
	</g>
</g>
<g>
	<g>
		<path d="M381.65,312.1c-23.2,0-42.1,18.9-42.1,42.1s18.9,42.1,42.1,42.1s42.1-18.9,42.1-42.1
			C423.65,331,404.85,312.1,381.65,312.1z M381.65,368c-7.6,0-13.8-6.2-13.8-13.8c0-7.6,6.2-13.8,13.8-13.8
			c7.6,0,13.8,6.2,13.8,13.8C395.45,361.8,389.25,368,381.65,368z"/>
	</g>
</g>
<g>
	<g>
		<path d="M293.55,315.7h-79.5c-7.8,0-14.1,6.3-14.1,14.1s6.3,14.1,14.1,14.1h79.5c7.8,0,14.1-6.3,14.1-14.1
			C307.65,322,301.35,315.7,293.55,315.7z"/>
	</g>
</g>
<g>
	<g>
		<path d="M293.55,364.8h-79.5c-7.8,0-14.1,6.3-14.1,14.1s6.3,14.1,14.1,14.1h79.5c7.8,0,14.1-6.3,14.1-14.1
			C307.65,371.2,301.35,364.8,293.55,364.8z"/>
	</g>
</g>
<g>
</g>
<g>
</g>
<g>
</g>
<g>
</g>
<g>
</g>
<g>
</g>
<g>
</g>
<g>
</g>
<g>
</g>
<g>
</g>
<g>
</g>
<g>
</g>
<g>
</g>
<g>
</g>
<g>
</g>
</svg>
