<?xml version="1.0" encoding="iso-8859-1"?>
<!-- Generator: Adobe Illustrator 19.0.0, SVG Export Plug-In . SVG Version: 6.00 Build 0)  -->
<svg version="1.1" id="Layer_1" xmlns="http://www.w3.org/2000/svg" xmlns:xlink="http://www.w3.org/1999/xlink" x="0px" y="0px"
	 viewBox="0 0 392.678 392.678" style="enable-background:new 0 0 392.678 392.678;" xml:space="preserve">
<g>
	<g>
		<path d="M309.892,0.632c-5.624-2.004-11.895,0.905-13.899,6.594c-21.527,60.25-34.069,112.097-38.077,158.125H117.31
			c-9.762,0-18.23,5.883-21.527,14.998c-3.426,9.18-0.776,19.329,6.723,25.729c12.347,10.602,17.842,19.653,16.614,26.958H86.344
			c-6.012,0-10.925,4.849-10.925,10.925c0,6.012,4.849,10.925,10.925,10.925h81.39v85.98h-52.558c-4.719,0-8.857,3.038-10.343,7.499
			l-9.826,29.996c-1.875,5.689,1.228,11.895,6.982,13.77c5.689,1.875,11.895-1.228,13.77-6.982l7.37-22.497h44.671v19.071
			c0,6.012,4.849,10.925,10.925,10.925c6.012,0,10.925-4.848,10.925-10.925v-19.071h44.671l7.37,22.497
			c1.487,4.59,8.21,8.598,13.77,6.982c5.818-1.681,8.792-8.016,6.982-13.77l-9.826-29.996c-1.487-4.461-5.624-7.499-10.343-7.499
			h-52.558v-85.98h81.455c11.055,0,11.313-9.503,10.731-12.671c-3.297-20.234-12.671-103.628,34.78-227.491
			C318.619,9.037,315.516,2.701,309.892,0.632z M141.229,233.037c0.711-11.378-4.396-26.246-24.566-43.507
			c-0.259-0.259-1.228-2.327,0.711-2.327h139.248c-0.453,15.903,0.129,31.224,1.875,45.834H141.229z"/>
	</g>
</g>
<g>
</g>
<g>
</g>
<g>
</g>
<g>
</g>
<g>
</g>
<g>
</g>
<g>
</g>
<g>
</g>
<g>
</g>
<g>
</g>
<g>
</g>
<g>
</g>
<g>
</g>
<g>
</g>
<g>
</g>
</svg>
