<?xml version="1.0" encoding="iso-8859-1"?>
<!-- Generator: Adobe Illustrator 19.0.0, SVG Export Plug-In . SVG Version: 6.00 Build 0)  -->
<svg version="1.1" id="Layer_1" xmlns="http://www.w3.org/2000/svg" xmlns:xlink="http://www.w3.org/1999/xlink" x="0px" y="0px"
	 viewBox="0 0 508 508" style="enable-background:new 0 0 508 508;" xml:space="preserve">
<g>
	<g>
		<path d="M357.4,71.6C339.1,27.3,299.2-0.1,253.5,0c-46,0.2-85.6,28.1-103.4,72.8c-13,32.7-6.4,70.2,16.9,97.1
			c8.6,49.2,44.2,86.3,86.8,86.3c42.6,0,78.2-37,86.8-86.1C364.5,143,371.1,104.7,357.4,71.6z M253.8,228c-33.5,0-60.7-36.3-60.7-81
			c0-6.5,0.6-12.9,1.7-19.1c15.6-8.5,29.9-20.4,41.6-34.5c22.1,20.2,47.6,31.7,76.2,34.3c1.2,6.4,1.8,12.8,1.8,19.3
			C314.5,191.6,287.3,228,253.8,228z M324.2,100.1c-30.7-0.4-56.4-12.7-78.6-37.7c-2.9-3.3-7.2-5.1-11.6-4.7
			c-4.4,0.3-8.4,2.7-10.8,6.4c-11.7,18.1-28.3,32.8-46.7,41.6c-1.8,0.9-3.4,2.1-4.6,3.6c-0.3-8.8,1-17.7,4.4-26
			c13.5-33.8,43.1-54.9,77.3-55c0.1,0,0.2,0,0.3,0c34,0,63.7,20.7,77.6,54.2c3.3,8.1,4.8,16.6,4.8,25
			C333.9,103.1,329.4,100.2,324.2,100.1z"/>
	</g>
</g>
<g>
	<g>
		<path d="M405.4,297.8c-27.7-13-57-22.3-87.2-27.8c-6.4-1.2-12.7,2.2-15.4,8.1L254,385.9l-48.9-107.8c-2.7-5.9-9-9.2-15.4-8.1
			c-30.1,5.5-59.5,14.8-87.1,27.8c-25.5,11.9-41.9,38-41.9,66.6v129.5c0,7.8,6.3,14.1,14.1,14.1h358.4c7.8,0,14.1-6.3,14.1-14.1
			V364.4C447.3,335.8,430.9,309.7,405.4,297.8z M419.1,479.8H88.9V364.4c0-17.7,10.1-33.8,25.6-41.1c22.2-10.4,45.5-18.2,69.5-23.4
			l57.1,126c2.3,5,7.3,8.3,12.9,8.3c5.5,0,10.6-3.2,12.9-8.3l57.1-126c24,5.2,47.3,13,69.5,23.4c15.6,7.3,25.6,23.4,25.6,41V479.8z"
			/>
	</g>
</g>
<g>
</g>
<g>
</g>
<g>
</g>
<g>
</g>
<g>
</g>
<g>
</g>
<g>
</g>
<g>
</g>
<g>
</g>
<g>
</g>
<g>
</g>
<g>
</g>
<g>
</g>
<g>
</g>
<g>
</g>
</svg>
