<?xml version="1.0" encoding="iso-8859-1"?>
<!-- Generator: Adobe Illustrator 19.0.0, SVG Export Plug-In . SVG Version: 6.00 Build 0)  -->
<svg version="1.1" id="Layer_1" xmlns="http://www.w3.org/2000/svg" xmlns:xlink="http://www.w3.org/1999/xlink" x="0px" y="0px"
	 viewBox="0 0 508 508" style="enable-background:new 0 0 508 508;" xml:space="preserve">
<g>
	<g>
		<path d="M429.25,0h-281.6c-22.5,0-40.8,18.3-40.8,40.8v28h-28c-22.5,0-40.8,18.3-40.8,40.8v279.3c0,10.9,4.2,21.1,11.9,28.8
			l78.4,78.4c7.7,7.7,17.9,11.9,28.8,11.9h203.2c22.5,0,40.8-18.3,40.8-40.8v-28h28c22.5,0,40.8-18.3,40.8-40.8V40.8
			C469.95,18.3,451.65,0,429.25,0z M132.25,459.9L86.35,414h45.9V459.9z M372.95,467.2c0,6.9-5.6,12.5-12.5,12.5h-200.1v-79.9
			c0-7.8-6.3-14.1-14.1-14.1h-79.9V109.5c0-6.9,5.6-12.5,12.5-12.5h281.6c6.9,0,12.5,5.6,12.5,12.5V467.2z M429.25,411h-28V109.5
			c0-22.5-18.3-40.8-40.8-40.8h-225.3v-28c0-6.9,5.6-12.5,12.5-12.5h281.5c6.9,0,12.5,5.6,12.5,12.5v357.8h0.1
			C441.75,405.4,436.15,411,429.25,411z"/>
	</g>
</g>
<g>
	<g>
		<path d="M333.85,129.8h-121.7c-7.8,0-14.1,6.3-14.1,14.1c0,7.8,6.3,14.1,14.1,14.1h121.6c7.8,0,14.1-6.3,14.1-14.1
			C347.95,136.1,341.55,129.8,333.85,129.8z"/>
	</g>
</g>
<g>
	<g>
		<path d="M333.85,202h-121.7c-7.8,0-14.1,6.3-14.1,14.1c0,7.8,6.3,14.1,14.1,14.1h121.6c7.8,0,14.1-6.3,14.1-14.1
			C347.85,208.3,341.55,202,333.85,202z"/>
	</g>
</g>
<g>
	<g>
		<path d="M333.85,274.3h-121.7c-7.8,0-14.1,6.3-14.1,14.1s6.3,14.1,14.1,14.1h121.6c7.8,0,14.1-6.3,14.1-14.1
			C347.95,280.6,341.55,274.3,333.85,274.3z"/>
	</g>
</g>
<g>
	<g>
		<path d="M333.85,346.5h-121.7c-7.8,0-14.1,6.3-14.1,14.1s6.3,14.1,14.1,14.1h121.6c7.8,0,14.1-6.3,14.1-14.1
			C347.95,352.8,341.55,346.5,333.85,346.5z"/>
	</g>
</g>
<g>
	<g>
		<path d="M333.85,418.7h-121.7c-7.8,0-14.1,6.3-14.1,14.1s6.3,14.1,14.1,14.1h121.6c7.8,0,14.1-6.3,14.1-14.1
			C347.95,425.1,341.55,418.7,333.85,418.7z"/>
	</g>
</g>
<g>
	<g>
		<path d="M161.95,122.1h-56.4c-7.8,0-14.1,6.3-14.1,14.1v56.5c0,7.8,6.3,14.1,14.1,14.1h56.4c7.8,0,14.1-6.3,14.1-14.1v-56.5
			C176.05,128.4,169.75,122.1,161.95,122.1z M147.85,178.5h-28.2v-28.2h28.2V178.5z"/>
	</g>
</g>
<g>
	<g>
		<path d="M161.95,228.7h-56.4c-7.8,0-14.1,6.3-14.1,14.1v56.4c0,7.8,6.3,14.1,14.1,14.1h56.4c7.8,0,14.1-6.3,14.1-14.1v-56.4
			C176.05,235,169.75,228.7,161.95,228.7z M147.85,285.1h-28.2v-28.2h28.2V285.1z"/>
	</g>
</g>
<g>
</g>
<g>
</g>
<g>
</g>
<g>
</g>
<g>
</g>
<g>
</g>
<g>
</g>
<g>
</g>
<g>
</g>
<g>
</g>
<g>
</g>
<g>
</g>
<g>
</g>
<g>
</g>
<g>
</g>
</svg>
