<?xml version="1.0" encoding="iso-8859-1"?>
<!-- Generator: Adobe Illustrator 19.0.0, SVG Export Plug-In . SVG Version: 6.00 Build 0)  -->
<svg version="1.1" id="Layer_1" xmlns="http://www.w3.org/2000/svg" xmlns:xlink="http://www.w3.org/1999/xlink" x="0px" y="0px"
	 viewBox="0 0 508 508" style="enable-background:new 0 0 508 508;" xml:space="preserve">
<g>
	<g>
		<path d="M438.85,94.4h-36.8V14.1c0-7.8-6.3-14.1-14.1-14.1h-267.8c-7.8,0-14.1,6.3-14.1,14.1v80.2h-36.9
			c-38.1,0.1-69.1,31.1-69.1,69.3v139.3c0,38.1,31,69.1,69.1,69.1h36.9v121.9c0,7.8,6.3,14.1,14.1,14.1h267.7
			c7.8,0,14.1-6.3,14.1-14.1V372h36.8c38.2,0,69.2-31,69.2-69.1V163.6C508.05,125.4,477.05,94.4,438.85,94.4z M134.25,28.2h239.5
			v66.1h-239.5V28.2z M373.75,479.8h-239.5V323.6h239.5V479.8z M438.85,343.7h-36.8v-20.1h17.3c7.8,0,14.1-6.3,14.1-14.1
			c0-7.8-6.3-14.1-14.1-14.1H88.75c-7.8,0-14.1,6.3-14.1,14.1s6.3,14.1,14.1,14.1h17.3v20.1h-36.9c-22.6,0-40.9-18.4-40.9-40.9
			V163.6c0-22.6,18.4-41,40.9-41h369.6c22.6,0,41,18.4,41,41v139.2h0.1C479.85,325.4,461.45,343.7,438.85,343.7z"/>
	</g>
</g>
<g>
	<g>
		<path d="M331.45,420.6h-154.8c-7.8,0-14.1,6.3-14.1,14.1c0,7.7,6.3,14.1,14.1,14.1h154.8c7.8,0,14.1-6.3,14.1-14.1
			C345.55,426.9,339.25,420.6,331.45,420.6z"/>
	</g>
</g>
<g>
	<g>
		<path d="M331.45,359.5h-154.8c-7.8,0-14.1,6.3-14.1,14.1s6.3,14.1,14.1,14.1h154.8c7.8,0,14.1-6.3,14.1-14.1
			C345.55,365.8,339.25,359.5,331.45,359.5z"/>
	</g>
</g>
<g>
	<g>
		<circle cx="433.45" cy="168.8" r="14.1"/>
	</g>
</g>
<g>
	<g>
		<circle cx="433.45" cy="217.5" r="14.1"/>
	</g>
</g>
<g>
</g>
<g>
</g>
<g>
</g>
<g>
</g>
<g>
</g>
<g>
</g>
<g>
</g>
<g>
</g>
<g>
</g>
<g>
</g>
<g>
</g>
<g>
</g>
<g>
</g>
<g>
</g>
<g>
</g>
</svg>
