<?xml version="1.0" encoding="iso-8859-1"?>
<!-- Generator: Adobe Illustrator 19.0.0, SVG Export Plug-In . SVG Version: 6.00 Build 0)  -->
<svg version="1.1" id="Layer_1" xmlns="http://www.w3.org/2000/svg" xmlns:xlink="http://www.w3.org/1999/xlink" x="0px" y="0px"
	 viewBox="0 0 508.1 508.1" style="enable-background:new 0 0 508.1 508.1;" xml:space="preserve">
<g>
	<g>
		<path d="M377.5,177.4c-18.4-18.6-28.9-45.1-28.9-73.1C348.7,46.8,306.2,0,254,0s-94.7,46.8-94.7,104.3c0,28.5-10.9,55.5-29.9,74.1
			c-4.1,4-5.4,10.1-3.2,15.4s7.4,8.8,13.1,8.8h229.4h0.1c7.8,0,14.1-6.3,14.1-14.1C382.9,184,380.8,180,377.5,177.4z M168.3,174.4
			c12.4-20.6,19.2-45,19.2-70.1c0-41.9,29.8-76,66.5-76c36.6,0,66.5,34.1,66.5,76c0,25.2,6.8,49.6,19.3,70.1H168.3z"/>
	</g>
</g>
<g>
	<g>
		<path d="M373.9,245.3c-77.2-26-162.5-26-239.7,0c-38.5,13-64.3,49.2-64.1,90.2L70.7,494c0,7.8,6.3,14.1,14.1,14.1h338.5
			c7.8,0,14.1-6.3,14.1-14.1l0.6-158.5C438.1,294.5,412.3,258.3,373.9,245.3z M335.3,479.8H172.7l-16.2-127.2h194.9L335.3,479.8z
			 M409.2,479.8h-45.5l17.7-139.6c0.5-4-2.2-15.9-14-15.9H140.6c-13.5,0-14.5,11.9-14,15.9l17.7,139.6H98.8l-0.6-144.4
			c-0.1-28.8,18-54.2,44.9-63.3c71.4-24.1,150.3-24.1,221.7,0c27,9.1,45,34.5,44.9,63.3L409.2,479.8z"/>
	</g>
</g>
<g>
</g>
<g>
</g>
<g>
</g>
<g>
</g>
<g>
</g>
<g>
</g>
<g>
</g>
<g>
</g>
<g>
</g>
<g>
</g>
<g>
</g>
<g>
</g>
<g>
</g>
<g>
</g>
<g>
</g>
</svg>
