<?xml version="1.0" encoding="iso-8859-1"?>
<!-- Generator: Adobe Illustrator 19.0.0, SVG Export Plug-In . SVG Version: 6.00 Build 0)  -->
<svg version="1.1" id="Layer_1" xmlns="http://www.w3.org/2000/svg" xmlns:xlink="http://www.w3.org/1999/xlink" x="0px" y="0px"
	 viewBox="0 0 507.9 507.9" style="enable-background:new 0 0 507.9 507.9;" xml:space="preserve">
<g>
	<g>
		<path d="M124.8,56.5c-7.8,0-14.1,6.3-14.1,14.1v63.5c0,7.8,6.3,14.1,14.1,14.1s14.1-6.3,14.1-14.1V70.6
			C138.9,62.8,132.6,56.5,124.8,56.5z"/>
	</g>
</g>
<g>
	<g>
		<path d="M195.3,56.5c-7.8,0-14.1,6.3-14.1,14.1v63.5c0,7.8,6.3,14.1,14.1,14.1c7.8,0,14.1-6.3,14.1-14.1V70.6
			C209.5,62.8,203.1,56.5,195.3,56.5z"/>
	</g>
</g>
<g>
	<g>
		<path d="M265.9,56.5c-7.8,0-14.1,6.3-14.1,14.1v63.5c0,7.8,6.3,14.1,14.1,14.1s14.1-6.3,14.1-14.1V70.6
			C280,62.8,273.7,56.5,265.9,56.5z"/>
	</g>
</g>
<g>
	<g>
		<path d="M336.5,56.5c-7.8,0-14.1,6.3-14.1,14.1v63.5c0,7.8,6.3,14.1,14.1,14.1c7.8,0,14.1-6.3,14.1-14.1V70.6
			C350.6,62.8,344.2,56.5,336.5,56.5z"/>
	</g>
</g>
<g>
	<g>
		<path d="M453.6,309.7h-21.2v-68.9h21.1v-0.1c7.8,0,14.1-6.3,14.1-14.1V96.8c0-3.7-1.5-7.3-4.1-10L380.9,4.1
			c-2.6-2.7-6.2-4.1-10-4.1H54.3c-7.8,0-14.1,6.3-14.1,14.1v212.5c0,7.8,6.3,14.1,14.1,14.1h21.2v68.9H54.3
			c-7.8,0-14.1,6.3-14.1,14.1v170.1c0,7.8,6.3,14.1,14.1,14.1h399.3c7.8,0,14.1-6.3,14.1-14.1v-170
			C467.7,316,461.4,309.7,453.6,309.7z M439.5,479.8H68.4V337.9h21.2c7.8,0,14.1-6.3,14.1-14.1v-97.2c0-7.8-6.3-14.1-14.1-14.1H68.4
			V28.2h296.7l74.4,74.4v109.9h-21.2c-7.8,0-14.1,6.3-14.1,14.1v97.2c0,7.8,6.3,14.1,14.1,14.1h21.2V479.8z"/>
	</g>
</g>
<g>
</g>
<g>
</g>
<g>
</g>
<g>
</g>
<g>
</g>
<g>
</g>
<g>
</g>
<g>
</g>
<g>
</g>
<g>
</g>
<g>
</g>
<g>
</g>
<g>
</g>
<g>
</g>
<g>
</g>
</svg>
