<?xml version="1.0" encoding="iso-8859-1"?>
<!-- Generator: Adobe Illustrator 19.0.0, SVG Export Plug-In . SVG Version: 6.00 Build 0)  -->
<svg version="1.1" id="Layer_1" xmlns="http://www.w3.org/2000/svg" xmlns:xlink="http://www.w3.org/1999/xlink" x="0px" y="0px"
	 viewBox="0 0 508 508" style="enable-background:new 0 0 508 508;" xml:space="preserve">
<g>
	<g>
		<path d="M493.9,289.7h-45v-24c0-7.8-6.3-14.1-14.1-14.1H230.5c-7.8,0-14.1,6.3-14.1,14.1v185.9c0,31.1,25.3,56.4,56.4,56.4h119.7
			c31.1,0,56.4-25.3,56.4-56.4v-21.1c38.6-31.7,59.1-75.4,59.1-126.7C508,296,501.7,289.7,493.9,289.7z M420.7,451.6
			c0,15.6-12.7,28.2-28.2,28.2H272.8c-15.6,0-28.2-12.7-28.2-28.2V279.8h176.1V451.6z M448.9,391.1v-73.2h30.2
			C476.6,345.8,466.3,370.6,448.9,391.1z"/>
	</g>
</g>
<g>
	<g>
		<path d="M271.3,160.3c-7.8,0.1-14.1,6.4-14.1,14.2V209c0,7.8,6.3,14.1,14.1,14.1c7.8,0,14.1-6.3,14.1-14.1v-34.6
			C285.4,166.6,279.1,160.3,271.3,160.3z"/>
	</g>
</g>
<g>
	<g>
		<path d="M332.6,131.7c-7.8,0-14.1,6.3-14.1,14.1v34.6c0,7.8,6.3,14.1,14.1,14.1c7.8,0,14.1-6.3,14.1-14.1v-34.6
			C346.7,138,340.4,131.7,332.6,131.7z"/>
	</g>
</g>
<g>
	<g>
		<path d="M393.9,160.4c-7.8,0-14.1,6.3-14.1,14.1V209c0,7.8,6.4,14.2,14.1,14.2c7.8,0,14.1-6.3,14.1-14.1v-34.6
			C408,166.7,401.7,160.4,393.9,160.4z"/>
	</g>
</g>
<g>
	<g>
		<path d="M325.8,52.6C289.8,18.7,242.7,0,193.2,0C86.7,0,0,86.7,0,193.2c0,95.4,71.1,177.6,165.4,191.2c0.7,0.1,13.3,1,16-12
			c1.6-7.6-4.3-14.8-12-16C88.9,344.8,28.2,274.7,28.2,193.2c0-91,74-165,165-165c42.3,0,82.5,16,113.3,45
			c5.7,5.4,14.6,5.1,19.9-0.6C331.8,66.9,331.5,58,325.8,52.6z"/>
	</g>
</g>
<g>
	<g>
		<path d="M193.2,61.2c-7.8,0-14.1,6.3-14.1,14.1v103.8h-37.9c-7.8,0-14.1,6.3-14.1,14.1s6.3,14.1,14.1,14.1h52.1
			c7.8,0,14.1-6.3,14.1-14.1V75.3C207.3,67.5,201,61.2,193.2,61.2z"/>
	</g>
</g>
<g>
</g>
<g>
</g>
<g>
</g>
<g>
</g>
<g>
</g>
<g>
</g>
<g>
</g>
<g>
</g>
<g>
</g>
<g>
</g>
<g>
</g>
<g>
</g>
<g>
</g>
<g>
</g>
<g>
</g>
</svg>
