<?xml version="1.0" encoding="iso-8859-1"?>
<!-- Generator: Adobe Illustrator 19.0.0, SVG Export Plug-In . SVG Version: 6.00 Build 0)  -->
<svg version="1.1" id="Layer_1" xmlns="http://www.w3.org/2000/svg" xmlns:xlink="http://www.w3.org/1999/xlink" x="0px" y="0px"
	 viewBox="0 0 508 508" style="enable-background:new 0 0 508 508;" xml:space="preserve">
<g>
	<g>
		<path d="M447.7,0c-7.8,0-14.1,6.3-14.1,14.1v123h-81.4l2.8-24.5h4.1c7.8,0,14.1-6.3,14.1-14.1s-6.3-14.1-14.1-14.1H60.3
			c-7.8,0-14.1,6.3-14.1,14.1s6.3,14.1,14.1,14.1h4.1l36.7,322.8c0.9,7.7,7.8,13.3,15.6,12.4c7.7-0.9,13.3-7.9,12.4-15.6l-4.5-39.6
			l26.4-33.4l47.6,60.2c2.8,3.5,6.9,5.4,11.1,5.4c7.1,0,11-5.3,11.1-5.4l47.6-60.2l26.4,33.5l-4.5,39.5c-0.9,7.7,4.7,14.7,12.4,15.6
			c0.5,0.1,1.1,0.1,1.6,0.1c7.1,0,13.2-5.3,14-12.5l23.2-204.2h92.1v262.7c0,7.8,6.3,14.1,14.1,14.1s14.1-6.3,14.1-14.1V14.1
			C461.8,6.3,455.5,0,447.7,0z M310.1,112.6l-41.8,52.8l-39.5-52.8H310.1z M250.3,188.2l-40.6,51.3L169,188.1l40.6-51.3L250.3,188.2
			z M190.5,112.6l-39.4,52.8l-41.8-52.8H190.5z M96,141.3l37.1,46.9l-27.8,35.1L96,141.3z M120.1,352.9l-4.4-38.3l17.3,21.9
			L120.1,352.9z M110.4,262.3l40.7-51.5l40.7,51.4l-40.7,51.5L110.4,262.3z M209.7,387.9L169,336.5l40.7-51.4l40.6,51.4L209.7,387.9
			z M299.3,352.9l-13-16.4l17.3-21.9L299.3,352.9z M268.3,313.7l-40.6-51.4l40.6-51.3l40.6,51.4L268.3,313.7z M314,223.3l-27.8-35.1
			l37.1-46.9L314,223.3z M433.7,203h-0.1h-88.8l4.3-37.7h84.6V203z"/>
	</g>
</g>
<g>
</g>
<g>
</g>
<g>
</g>
<g>
</g>
<g>
</g>
<g>
</g>
<g>
</g>
<g>
</g>
<g>
</g>
<g>
</g>
<g>
</g>
<g>
</g>
<g>
</g>
<g>
</g>
<g>
</g>
</svg>
