<?xml version="1.0" encoding="iso-8859-1"?>
<!-- Generator: Adobe Illustrator 19.0.0, SVG Export Plug-In . SVG Version: 6.00 Build 0)  -->
<svg version="1.1" id="Layer_1" xmlns="http://www.w3.org/2000/svg" xmlns:xlink="http://www.w3.org/1999/xlink" x="0px" y="0px"
	 viewBox="0 0 508.04 508.04" style="enable-background:new 0 0 508.04 508.04;" xml:space="preserve">
<g>
	<g>
		<path d="M500.846,135.42l-239.9-133.6c-4.3-2.4-9.5-2.4-13.7,0l-240,133.6c-5.6,3.1-8.4,9.7-6.8,15.9c1.6,6.2,7.2,10.6,13.7,10.6
			h21.3v332c0,7.8,6.3,14.1,14.1,14.1h408.9c7.8,0,14.1-6.3,14.1-14.1v-332h21.3c6.4,0,12-4.3,13.7-10.6
			C509.246,145.12,506.447,138.62,500.846,135.42z M254.046,30.32l185.6,103.4h-371.2L254.046,30.32z M276.046,479.82h-44v-92h44
			V479.82z M444.447,479.82h-0.1h-140.1v-106.1c0-7.8-6.3-14.1-14.1-14.1h-72.2c-7.8,0-14.1,6.3-14.1,14.1v106.1h-140.1v-317.9
			h380.7V479.82z"/>
	</g>
</g>
<g>
	<g>
		<path d="M169.346,210.22h-56.4c-7.8,0-14.1,6.3-14.1,14.1v56.4c0,7.7,6.3,14.1,14.1,14.1h56.4c7.8,0,14.1-6.3,14.1-14.1v-56.4
			C183.447,216.52,177.147,210.22,169.346,210.22z M155.247,266.52h-28.2v-28.2h28.2V266.52z"/>
	</g>
</g>
<g>
	<g>
		<path d="M282.246,210.22h-56.4c-7.8,0-14.1,6.3-14.1,14.1v56.4c0,7.7,6.3,14.1,14.1,14.1h56.4c7.8,0,14.1-6.3,14.1-14.1v-56.4
			C296.347,216.52,290.047,210.22,282.246,210.22z M268.147,266.52h-28.2v-28.2h28.2V266.52z"/>
	</g>
</g>
<g>
	<g>
		<path d="M395.147,210.22h-56.4c-7.8,0-14.1,6.3-14.1,14.1v56.4c0,7.7,6.3,14.1,14.1,14.1h56.4c7.8,0,14.1-6.3,14.1-14.1v-56.4
			C409.246,216.52,402.947,210.22,395.147,210.22z M381.046,266.52h-28.2v-28.2h28.2V266.52z"/>
	</g>
</g>
<g>
	<g>
		<path d="M169.346,346.92h-56.4c-7.8,0-14.1,6.3-14.1,14.1v56.4c0,7.8,6.3,14.2,14.1,14.2h56.4c7.8,0,14.1-6.3,14.1-14.1v-56.5
			C183.447,353.22,177.147,346.92,169.346,346.92z M155.247,403.32h-28.2v-28.2h28.2V403.32z"/>
	</g>
</g>
<g>
	<g>
		<path d="M395.147,346.92h-56.4c-7.8,0-14.1,6.3-14.1,14.1v56.4c0,7.8,6.3,14.2,14.1,14.2h56.4c7.8,0,14.1-6.3,14.1-14.1v-56.5
			C409.246,353.22,402.947,346.92,395.147,346.92z M381.046,403.32h-28.2v-28.2h28.2V403.32z"/>
	</g>
</g>
<g>
</g>
<g>
</g>
<g>
</g>
<g>
</g>
<g>
</g>
<g>
</g>
<g>
</g>
<g>
</g>
<g>
</g>
<g>
</g>
<g>
</g>
<g>
</g>
<g>
</g>
<g>
</g>
<g>
</g>
</svg>
