<?xml version="1.0" encoding="iso-8859-1"?>
<!-- Generator: Adobe Illustrator 19.0.0, SVG Export Plug-In . SVG Version: 6.00 Build 0)  -->
<svg version="1.1" id="Layer_1" xmlns="http://www.w3.org/2000/svg" xmlns:xlink="http://www.w3.org/1999/xlink" x="0px" y="0px"
	 viewBox="0 0 507.99 507.99" style="enable-background:new 0 0 507.99 507.99;" xml:space="preserve">
<g>
	<g>
		<path d="M506.4,170.282l-83.8-162.6c-3.6-6.9-12.1-9.7-19-6.1c0,0-214.7,97.4-236.1,174.8l-46.1,23.8c-6.3,3.3-9.1,10.6-6.8,17.2
			l-65.3,70.6c-4,4.4-5.1,10.9-2.2,16c4.6,8.1,13.7,7.6,14.3,7.6l95.5-12c1.8,2.5,8,8.5,17.9,4.4l46-23.7
			c101.7,19.9,279.4-90.9,279.4-90.9C507.3,185.782,510,177.182,506.4,170.282z M96.3,278.682l31.9-34.5l14.8,28.6L96.3,278.682z
			 M174.5,272.382l-27.6-53.6l26.9-13.9l27.6,53.6L174.5,272.382z M230.7,253.782l-36.1-70c9.6-36.2,89.5-88.7,146.7-118.5l71,137.7
			C289.3,258.682,235.7,255.582,230.7,253.782z M437.4,189.982l-70.9-137.6l37.5-19.3l70.9,137.6L437.4,189.982z"/>
	</g>
</g>
<g>
	<g>
		<path d="M64.8,368.482c-2.6-3.9-6.9-6.2-11.6-6.2c-4.6,0-9,2.3-11.6,6.1c-9.8,14.2-41.6,62.3-41.6,86.4
			c0,29.3,23.9,53.2,53.2,53.2s53.2-23.9,53.2-53.2C106.4,430.682,74.6,382.582,64.8,368.482z M53.2,479.782c-13.8,0-25-11.2-25-25
			c0-8.3,11.6-30.9,25-52.5c13.4,21.7,25,44.2,25,52.5C78.2,468.582,67,479.782,53.2,479.782z"/>
	</g>
</g>
<g>
</g>
<g>
</g>
<g>
</g>
<g>
</g>
<g>
</g>
<g>
</g>
<g>
</g>
<g>
</g>
<g>
</g>
<g>
</g>
<g>
</g>
<g>
</g>
<g>
</g>
<g>
</g>
<g>
</g>
</svg>
