<?xml version="1.0" encoding="iso-8859-1"?>
<!-- Generator: Adobe Illustrator 19.0.0, SVG Export Plug-In . SVG Version: 6.00 Build 0)  -->
<svg version="1.1" id="Layer_1" xmlns="http://www.w3.org/2000/svg" xmlns:xlink="http://www.w3.org/1999/xlink" x="0px" y="0px"
	 viewBox="0 0 508 508" style="enable-background:new 0 0 508 508;" xml:space="preserve">
<g>
	<g>
		<path d="M441.9,0H66.1C58.3,0,52,6.3,52,14.1v479.8c0,7.8,6.3,14.1,14.1,14.1h375.8c7.8,0,14.1-6.3,14.1-14.1V14.1
			C456,6.3,449.7,0,441.9,0z M364.5,28.2c-7,54.8-53.8,97.4-110.5,97.4S150.4,83,143.5,28.2H364.5z M143.5,479.8
			c7-54.8,53.8-97.4,110.5-97.4s103.6,42.6,110.5,97.4H143.5z M427.8,479.8H393c-7.1-70.5-66.7-125.6-139-125.6
			s-131.9,55.2-139,125.6H80.2V268.1h103.9c6.6,32.6,35.4,57.2,69.9,57.2s63.3-24.6,69.9-57.2h103.9V479.8z M294.6,268.1
			c-5.9,16.8-21.8,28.9-40.6,28.9c-18.8,0-34.8-12.1-40.6-28.9H294.6z M213.4,239.9c5.9-16.8,21.8-28.9,40.6-28.9
			s34.8,12.1,40.6,28.9H213.4z M427.8,239.9H323.9c-6.6-32.6-35.4-57.2-69.9-57.2s-63.3,24.6-69.9,57.2H80.2V28.2H115
			c7.1,70.5,66.7,125.6,139,125.6S385.9,98.6,393,28.2h34.8V239.9z"/>
	</g>
</g>
<g>
</g>
<g>
</g>
<g>
</g>
<g>
</g>
<g>
</g>
<g>
</g>
<g>
</g>
<g>
</g>
<g>
</g>
<g>
</g>
<g>
</g>
<g>
</g>
<g>
</g>
<g>
</g>
<g>
</g>
</svg>
