<?xml version="1.0" encoding="iso-8859-1"?>
<!-- Generator: Adobe Illustrator 19.0.0, SVG Export Plug-In . SVG Version: 6.00 Build 0)  -->
<svg version="1.1" id="Layer_1" xmlns="http://www.w3.org/2000/svg" xmlns:xlink="http://www.w3.org/1999/xlink" x="0px" y="0px"
	 viewBox="0 0 508 508" style="enable-background:new 0 0 508 508;" xml:space="preserve">
<g>
	<g>
		<path d="M451.65,143.4h-1.1l-101-103.7c-2.7-2.7-6.3-4.3-10.1-4.3s-7.5,1.5-10.1,4.3l-41.4,42.5l-75.8-77.9
			c-2.7-2.8-6.3-4.3-10.1-4.3s-7.5,1.5-10.1,4.3L56.35,143.4c-31,0.1-56.3,25.4-56.3,56.5v251.7c0,31.1,25.3,56.4,56.4,56.4h395.1
			c31.1,0,56.4-25.3,56.4-56.4V199.9C508.05,168.7,482.75,143.4,451.65,143.4z M339.35,69.7l71.7,73.7h-63.6l-39.9-41L339.35,69.7z
			 M202.05,34.3l106.1,109.1H95.75L202.05,34.3z M479.85,451.5c0,15.6-12.7,28.3-28.2,28.3H56.45c-15.6,0-28.2-12.7-28.2-28.2V199.9
			c0-15.6,12.7-28.2,28.2-28.2h395.1c15.6,0,28.2,12.7,28.2,28.2v59.8h-115.6c-7.8,0-14.1,6.3-14.1,14.1v103.8
			c0,7.8,6.3,14.1,14.1,14.1h115.7V451.5z M479.85,363.5L479.85,363.5h-101.6v-75.6h101.6V363.5z"/>
	</g>
</g>
<g>
	<g>
		<circle cx="414.95" cy="325.7" r="14.1"/>
	</g>
</g>
<g>
</g>
<g>
</g>
<g>
</g>
<g>
</g>
<g>
</g>
<g>
</g>
<g>
</g>
<g>
</g>
<g>
</g>
<g>
</g>
<g>
</g>
<g>
</g>
<g>
</g>
<g>
</g>
<g>
</g>
</svg>
