<?xml version="1.0" encoding="iso-8859-1"?>
<!-- Generator: Adobe Illustrator 19.0.0, SVG Export Plug-In . SVG Version: 6.00 Build 0)  -->
<svg version="1.1" id="Layer_1" xmlns="http://www.w3.org/2000/svg" xmlns:xlink="http://www.w3.org/1999/xlink" x="0px" y="0px"
	 viewBox="0 0 392.351 392.351" style="enable-background:new 0 0 392.351 392.351;" xml:space="preserve">
<g>
	<g>
		<path d="M391.55,338.042l-31.16-74.343V50.107c0-6.012-4.849-10.925-10.925-10.925H42.782c-6.012,0-10.925,4.849-10.925,10.925
			v213.592L0.633,338.042c-3.168,10.99,6.4,15.127,10.149,15.127H381.53C385.214,353.169,395.235,349.226,391.55,338.042z
			 M53.707,60.967h284.897v193.939H53.707V60.967z M27.138,331.319L27.138,331.319l22.885-54.562H342.16l22.885,54.562H27.138z"/>
	</g>
</g>
<g>
	<g>
		<path d="M84.027,203.965c-6.012,0-10.925,4.849-10.925,10.925v9.826c0,6.012,4.849,10.925,10.925,10.925
			c6.012,0,10.925-4.849,10.925-10.925v-9.826C94.887,208.814,90.039,203.965,84.027,203.965z"/>
	</g>
</g>
<g>
	<g>
		<path d="M125.206,173.064c-6.012,0-10.925,4.849-10.925,10.925v40.727c0,6.012,4.848,10.925,10.925,10.925
			s10.925-4.848,10.925-10.925v-40.727C136.067,177.913,131.218,173.064,125.206,173.064z"/>
	</g>
</g>
<g>
	<g>
		<path d="M166.386,131.884c-6.012,0-10.925,4.849-10.925,10.925v81.907c0,6.012,4.848,10.925,10.925,10.925
			c6.012,0,10.925-4.849,10.925-10.925v-81.972C177.247,136.733,172.398,131.884,166.386,131.884z"/>
	</g>
</g>
<g>
	<g>
		<path d="M207.566,90.64c-6.012,0-10.925,4.849-10.925,10.925v123.087c0,6.012,4.848,10.925,10.925,10.925
			c6.012,0,10.925-4.849,10.925-10.925V101.565C218.427,95.553,213.578,90.64,207.566,90.64z"/>
	</g>
</g>
<g>
	<g>
		<path d="M218.233,293.113h-44.218c-6.012,0-10.925,4.848-10.925,10.925c0,6.012,4.848,10.925,10.925,10.925h44.218
			c6.012,0,10.925-4.849,10.925-10.925C229.093,297.961,224.245,293.113,218.233,293.113z"/>
	</g>
</g>
<g>
	<g>
		<path d="M316.043,171.189l-27.41-27.281h11.96c6.012,0,10.925-4.849,10.925-10.925c0-6.012-4.848-10.925-10.925-10.925h-38.271
			c-6.012,0-10.925,4.849-10.925,10.925v38.271c0,6.012,4.848,10.925,10.925,10.925c6.012,0,10.925-4.849,10.925-10.925v-11.96
			l27.345,27.345c3.943,3.943,11.442,4.008,15.451,0C320.309,182.373,320.309,175.521,316.043,171.189z"/>
	</g>
</g>
<g>
</g>
<g>
</g>
<g>
</g>
<g>
</g>
<g>
</g>
<g>
</g>
<g>
</g>
<g>
</g>
<g>
</g>
<g>
</g>
<g>
</g>
<g>
</g>
<g>
</g>
<g>
</g>
<g>
</g>
</svg>
