<?xml version="1.0" encoding="iso-8859-1"?>
<!-- Generator: Adobe Illustrator 19.0.0, SVG Export Plug-In . SVG Version: 6.00 Build 0)  -->
<svg version="1.1" id="Layer_1" xmlns="http://www.w3.org/2000/svg" xmlns:xlink="http://www.w3.org/1999/xlink" x="0px" y="0px"
	 viewBox="0 0 508.138 508.138" style="enable-background:new 0 0 508.138 508.138;" xml:space="preserve">
<g>
	<g>
		<path d="M504.025,397.825l-393.8-393.6c-5.5-5.5-14.4-5.5-20,0l-86.1,86c-5.5,5.5-5.5,14.4,0,19.9l393.7,393.6
			c5.8,5.8,14.2,5.7,20,0l86.1-86C509.525,412.225,509.525,403.325,504.025,397.825z M407.925,473.825l-27.2-27.2l22.1-22
			c5.5-5.5,5.5-14.4,0-19.9s-14.4-5.5-20,0l-22.1,22l-31.2-31.2l11-11c5.5-5.5,5.5-14.4,0-19.9s-14.4-5.5-20,0l-11,11l-31.2-31.2
			l22.1-22c5.5-5.5,5.5-14.4,0-19.9s-14.4-5.5-20,0l-22.1,22.1l-31.2-31.2l11-11c5.5-5.5,5.5-14.4,0-19.9s-14.4-5.5-20,0l-11,11
			l-31-31.4l22.1-22.1c5.5-5.5,5.5-14.4,0-19.9s-14.4-5.5-20,0l-22.1,22l-31.2-31.2l11-11c5.5-5.5,5.5-14.4,0-19.9s-14.4-5.5-20,0
			l-11,11l-70.8-70.8l66.1-66.1l373.8,373.6L407.925,473.825z"/>
	</g>
</g>
<g>
	<g>
		<path d="M112.025,90.025c-6-6-15.8-6-21.9,0c-6.1,6.1-6.1,15.8,0,21.9c6,6,15.8,6,21.9,0
			C118.025,105.925,118.025,96.125,112.025,90.025z"/>
	</g>
</g>
<g>
</g>
<g>
</g>
<g>
</g>
<g>
</g>
<g>
</g>
<g>
</g>
<g>
</g>
<g>
</g>
<g>
</g>
<g>
</g>
<g>
</g>
<g>
</g>
<g>
</g>
<g>
</g>
<g>
</g>
</svg>
