<?xml version="1.0" encoding="iso-8859-1"?>
<!-- Generator: Adobe Illustrator 19.0.0, SVG Export Plug-In . SVG Version: 6.00 Build 0)  -->
<svg version="1.1" id="Layer_1" xmlns="http://www.w3.org/2000/svg" xmlns:xlink="http://www.w3.org/1999/xlink" x="0px" y="0px"
	 viewBox="0 0 508 508" style="enable-background:new 0 0 508 508;" xml:space="preserve">
<g>
	<g>
		<path d="M507.5,220.1C474.7,101.1,370.5,18,254,18S33.3,101.1,0.5,220.1c-1.2,4.2-0.1,17.9,13.6,17.9h479.8
			C507.6,238,508.7,224.4,507.5,220.1z M33.3,209.7C67.7,112.6,156.1,46.2,254,46.2s186.3,66.4,220.7,163.5H33.3z"/>
	</g>
</g>
<g>
	<g>
		<path d="M493.9,387H14.1C6.3,387,0,393.3,0,401.1c0,49,39.9,88.9,88.9,88.9h330.2c49,0,88.9-39.9,88.9-88.9
			C508,393.3,501.7,387,493.9,387z M419.1,461.8H88.9c-28.6,0-52.6-19.9-59-46.6h448.2C471.7,441.9,447.7,461.8,419.1,461.8z"/>
	</g>
</g>
<g>
	<g>
		<path d="M461.7,266.2H46.3C20.8,266.2,0,287,0,312.5s20.8,46.3,46.3,46.3h415.4c25.5,0,46.3-20.8,46.3-46.3
			S487.2,266.2,461.7,266.2z M461.7,330.6H46.3c-10,0-18.1-8.1-18.1-18.1s8.1-18.1,18.1-18.1h415.4c10,0,18.1,8.1,18.1,18.1
			S471.7,330.6,461.7,330.6z"/>
	</g>
</g>
<g>
</g>
<g>
</g>
<g>
</g>
<g>
</g>
<g>
</g>
<g>
</g>
<g>
</g>
<g>
</g>
<g>
</g>
<g>
</g>
<g>
</g>
<g>
</g>
<g>
</g>
<g>
</g>
<g>
</g>
</svg>
