<?xml version="1.0" encoding="iso-8859-1"?>
<!-- Generator: Adobe Illustrator 19.0.0, SVG Export Plug-In . SVG Version: 6.00 Build 0)  -->
<svg version="1.1" id="Layer_1" xmlns="http://www.w3.org/2000/svg" xmlns:xlink="http://www.w3.org/1999/xlink" x="0px" y="0px"
	 viewBox="0 0 507.992 507.992" style="enable-background:new 0 0 507.992 507.992;" xml:space="preserve">
<g>
	<g>
		<path d="M506.47,431.896l-47.8-96.9v-265.1c0-7.8-6.3-14.1-14.1-14.1H63.37c-7.8,0-14.1,6.3-14.1,14.1v265.1l-47.8,96.8
			c-2.2,4.4-1.9,9.6,0.7,13.7c2.6,4.1,7.1,6.7,12,6.7h479.8c4.9,0,9.4-2.5,12-6.7C508.47,441.396,508.67,436.196,506.47,431.896z
			 M77.569,83.996h352.9v240.2h-352.9V83.996z M36.769,423.996l35.4-71.5h363.6l35.4,71.5H36.769z"/>
	</g>
</g>
<g>
	<g>
		<path d="M269.77,374.096h-31.6c-7.8,0-14.1,6.3-14.1,14.1c0,7.8,6.3,14.1,14.1,14.1h31.6c7.8,0,14.1-6.3,14.1-14.1
			C283.87,380.396,277.57,374.096,269.77,374.096z"/>
	</g>
</g>
<g>
	<g>
		<path d="M153.87,187.196h-16.3c-4.5,0-8.2,3.7-8.2,8.2s3.7,8.2,8.2,8.2h8v74.1c0,4.5,3.7,8.2,8.2,8.2s8.2-3.7,8.2-8.2v-82.3
			C162.07,190.796,158.37,187.196,153.87,187.196z"/>
	</g>
</g>
<g>
	<g>
		<path d="M376.27,216.596c0-16.3-13.2-29.4-29.4-29.4s-29.4,13.2-29.4,29.4c0,5.2,4.2,9.3,9.3,9.3c5.2,0,9.3-4.2,9.3-9.3
			c0-5.9,4.8-10.7,10.7-10.7s10.7,4.8,10.7,10.7c0,5.9-4.8,10.7-10.7,10.7c-5.2,0-9.3,4.2-9.3,9.3c0,5.2,4.2,9.3,9.3,9.3
			c5.9,0,10.7,4.8,10.7,10.7c0,5.9-4.8,10.7-10.7,10.7c-5.9,0-10.7-4.8-10.7-10.7c0-5.2-4.2-9.3-9.3-9.3c-5.2,0-9.3,4.2-9.3,9.3
			c0,16.2,13.2,29.4,29.4,29.4s29.4-13.2,29.4-29.4c0-7.7-3-14.8-7.9-20C373.27,231.396,376.27,224.296,376.27,216.596z"/>
	</g>
</g>
<g>
	<g>
		<path d="M271.07,205.196h-37.2l29.3-29.8c0.2-0.2,0.5-0.5,0.7-0.8c4.3-5.7,6.6-12.4,6.6-19.5c0-17.8-14.5-32.2-32.2-32.2
			c-17.8,0-32.2,14.5-32.2,32.2c0,4.5,3.7,8.2,8.2,8.2s8.2-3.7,8.2-8.2c0-8.7,7.1-15.8,15.8-15.8s15.8,7.1,15.8,15.8
			c0,3.3-1,6.5-2.9,9.2l-42.7,43.4c-2.3,2.4-3,5.9-1.7,9c1.3,3.1,4.3,5.1,7.6,5.1h56.9c4.5,0,8.2-3.7,8.2-8.2
			C279.37,208.896,275.67,205.196,271.07,205.196z"/>
	</g>
</g>
<g>
</g>
<g>
</g>
<g>
</g>
<g>
</g>
<g>
</g>
<g>
</g>
<g>
</g>
<g>
</g>
<g>
</g>
<g>
</g>
<g>
</g>
<g>
</g>
<g>
</g>
<g>
</g>
<g>
</g>
</svg>
