<?xml version="1.0" encoding="iso-8859-1"?>
<!-- Generator: Adobe Illustrator 19.0.0, SVG Export Plug-In . SVG Version: 6.00 Build 0)  -->
<svg version="1.1" id="Layer_1" xmlns="http://www.w3.org/2000/svg" xmlns:xlink="http://www.w3.org/1999/xlink" x="0px" y="0px"
	 viewBox="0 0 508 508" style="enable-background:new 0 0 508 508;" xml:space="preserve">
<g>
	<g>
		<path d="M389.35,0h-270.8c-23.4,0-42.3,19-42.3,42.3v406.4c0,22.3,17.3,40.5,39.2,42.2v3c0,7.8,6.3,14.1,14.1,14.1
			c7.8,0,14.1-6.3,14.1-14.1V491h220.7v2.8c0,7.8,6.3,14.1,14.1,14.1c7.8,0,14.1-6.3,14.1-14.1v-3c21.9-1.6,39.2-19.9,39.2-42.2
			V42.3C431.65,19,412.75,0,389.35,0z M403.45,448.7c0,7.8-6.3,14.1-14.1,14.1h-270.8c-7.8,0-14.1-6.3-14.1-14.1V42.3
			c0-7.8,6.3-14.1,14.1-14.1h270.8c7.8,0,14.1,6.3,14.1,14.1V448.7z"/>
	</g>
</g>
<g>
	<g>
		<path d="M253.95,51.7c-69.7,0-126.3,56.7-126.3,126.3s56.7,126.4,126.3,126.4s126.3-56.7,126.3-126.4S323.65,51.7,253.95,51.7z
			 M253.95,276.1c-54.1,0-98.1-44-98.1-98.1s44-98.1,98.1-98.1s98.1,44,98.1,98.1S308.05,276.1,253.95,276.1z"/>
	</g>
</g>
<g>
	<g>
		<path d="M253.95,135.7c-23.3,0-42.3,19-42.3,42.3s19,42.3,42.3,42.3s42.3-19,42.3-42.3S277.25,135.7,253.95,135.7z M253.95,192.2
			c-7.8,0-14.1-6.3-14.1-14.1s6.3-14.1,14.1-14.1c7.8,0,14.1,6.3,14.1,14.1C268.05,185.8,261.75,192.2,253.95,192.2z"/>
	</g>
</g>
<g>
	<g>
		<path d="M180.35,334.3c-29,0-52.7,23.6-52.7,52.7c0,29,23.6,52.7,52.7,52.7c29,0,52.7-23.6,52.7-52.7
			C232.95,357.9,209.35,334.3,180.35,334.3z M180.35,411.4c-13.5,0-24.5-11-24.5-24.5s11-24.5,24.5-24.5s24.5,11,24.5,24.5
			C204.75,400.4,193.75,411.4,180.35,411.4z"/>
	</g>
</g>
<g>
	<g>
		<path d="M327.55,334.3c-29,0-52.7,23.6-52.7,52.7c0,29,23.6,52.7,52.7,52.7c29,0,52.7-23.6,52.7-52.7
			C380.25,357.9,356.65,334.3,327.55,334.3z M327.55,411.4c-13.5,0-24.5-11-24.5-24.5s11-24.5,24.5-24.5s24.5,11,24.5,24.5
			S341.05,411.4,327.55,411.4z"/>
	</g>
</g>
<g>
</g>
<g>
</g>
<g>
</g>
<g>
</g>
<g>
</g>
<g>
</g>
<g>
</g>
<g>
</g>
<g>
</g>
<g>
</g>
<g>
</g>
<g>
</g>
<g>
</g>
<g>
</g>
<g>
</g>
</svg>
