<?xml version="1.0" encoding="iso-8859-1"?>
<!-- Generator: Adobe Illustrator 19.0.0, SVG Export Plug-In . SVG Version: 6.00 Build 0)  -->
<svg version="1.1" id="Layer_1" xmlns="http://www.w3.org/2000/svg" xmlns:xlink="http://www.w3.org/1999/xlink" x="0px" y="0px"
	 viewBox="0 0 508 508" style="enable-background:new 0 0 508 508;" xml:space="preserve">
<g>
	<g>
		<path d="M444.1,479.8h-1.8c18-66.8-71.7-164.3-138.6-225.8c66.9-61.5,156.7-159,138.6-225.8h1.8c7.8,0,14.1-6.3,14.1-14.1
			c0-7.8-6.3-14.1-14.1-14.1H63.9c-7.8,0-14.1,6.3-14.1,14.1c0,7.8,6.3,14.1,14.1,14.1h1.8C47.7,95,137.4,192.5,204.3,254
			C137.4,315.5,47.6,413,65.7,479.8h-1.8c-7.8,0-14.1,6.3-14.1,14.1S56.1,508,63.9,508h380.2c7.8,0,14.1-6.3,14.1-14.1
			C458.2,486.1,451.9,479.8,444.1,479.8z M177.1,476.7c14.2-19.9,37.9-48.5,76.9-85.5c39,37,62.8,65.6,76.9,85.5H177.1z
			 M412.1,479.8h-45.4c-14.5-24.4-44-63.6-103.1-118.2c-5.4-5-13.7-5-19.1,0c-59.2,54.6-88.6,93.9-103.1,118.2H95.9
			C71.8,434.4,150.4,340,234.8,264.5c3-2.7,4.7-6.5,4.7-10.5s-1.7-7.8-4.7-10.5C150.4,168.1,71.7,73.6,95.9,28.2h316.3
			c24.1,45.4-54.6,139.8-138.9,215.3c-3,2.7-4.7,6.5-4.7,10.5s1.7,7.8,4.7,10.5C357.6,339.9,436.3,434.4,412.1,479.8z"/>
	</g>
</g>
<g>
	<g>
		<path d="M349.1,100.8c-2.4-4.8-7.3-7.8-12.6-7.8H171.6c-5.4,0-10.2,3-12.6,7.8c-2.4,4.8-1.9,10.5,1.4,14.8
			c20.8,27.6,49.1,58,84.1,90.3c2.7,2.5,6.1,3.7,9.6,3.7c3.4,0,6.9-1.2,9.6-3.7c34.9-32.3,63.2-62.6,84-90.3
			C350.9,111.3,351.4,105.6,349.1,100.8z M254,176.2c-20.3-19.2-38-37.6-52.9-55h105.8C292,138.6,274.3,157,254,176.2z"/>
	</g>
</g>
<g>
</g>
<g>
</g>
<g>
</g>
<g>
</g>
<g>
</g>
<g>
</g>
<g>
</g>
<g>
</g>
<g>
</g>
<g>
</g>
<g>
</g>
<g>
</g>
<g>
</g>
<g>
</g>
<g>
</g>
</svg>
