<?xml version="1.0" encoding="iso-8859-1"?>
<!-- Generator: Adobe Illustrator 19.0.0, SVG Export Plug-In . SVG Version: 6.00 Build 0)  -->
<svg version="1.1" id="Layer_1" xmlns="http://www.w3.org/2000/svg" xmlns:xlink="http://www.w3.org/1999/xlink" x="0px" y="0px"
	 viewBox="0 0 508.1 508.1" style="enable-background:new 0 0 508.1 508.1;" xml:space="preserve">
<g>
	<g>
		<path d="M405.5,322.1c-27.3-12.4-56.1-21.4-85.4-26.7c-4.5-0.8-9.1,0.6-12.4,3.8c-3.3,3.2-4.8,7.8-4,12.3l9.9,60.9l-52.5-30
			c-4.3-2.5-9.7-2.5-14.1,0l-52.4,30.1l9.9-60.9c0.7-4.5-0.8-9.1-4-12.3c-3.3-3.2-7.9-4.6-12.4-3.8c-29.3,5.3-58.1,14.3-85.4,26.7
			C74.3,335.1,56,363.6,56,394.8V494c0,7.8,6.3,14.1,14.1,14.1H438c7.8,0,14.1-6.3,14.1-14.1v-99.2
			C452.2,363.5,433.8,335,405.5,322.1z M423.9,479.8L423.9,479.8H84.3v-85.1c0-20.2,11.8-38.6,30.1-46.9c19-8.6,38.8-15.5,59-20.4
			l-11.3,69.8c-0.9,5.4,1.4,10.8,5.9,13.9c4.5,3.1,10.3,3.3,15.1,0.6l71-40.8l71,40.8c4.7,2.7,10.6,2.5,15.1-0.6
			c4.5-3.1,6.8-8.5,5.9-13.9l-11.3-69.8c20.2,4.9,40,11.8,59,20.4c18.3,8.3,30.1,26.8,30.1,46.9V479.8z"/>
	</g>
</g>
<g>
	<g>
		<path d="M364.3,116.7C357.2,51,310.5,0,254.1,0C197.4,0,151,49.8,144,116.9c-52.6,6.5-93.5,51.2-93.5,105.5
			c0,7.8,6.3,14.1,14.1,14.1c36.7,0,69.1-18.7,88.3-47.1c17.5,46.4,56.2,78.8,101.2,78.8c44.7,0,83.7-31.7,101.2-78.8
			c19.1,28.4,51.5,47.1,88.2,47.1c7.8,0,14.1-6.3,14.1-14.1C457.7,168,416.8,123.2,364.3,116.7z M80.3,206.6
			c6.2-30.6,30.4-54.7,61-61C135.1,176.2,110.9,200.4,80.3,206.6z M254.1,239.9c-45.1,0-82-46.2-83-103.5c0,0,52.2-5.8,84.1-43.3
			c39.3,56.4,78.4,69.3,78.7,69.5C324,207.9,291.6,239.9,254.1,239.9z M265.9,60.1c-2.6-4-7.1-6.4-11.8-6.4
			c-5.9,0-10.9,3.7-12.9,8.5c-11.5,26.4-40.2,39-67.2,44.9c9.5-45.4,42.3-78.8,80.2-78.8c45.1,0,81.9,46.1,83,103.2
			C336.5,131.1,310.2,128.5,265.9,60.1z M366.9,145.6c30.6,6.2,54.8,30.4,61,61C397.3,200.4,373.1,176.2,366.9,145.6z"/>
	</g>
</g>
<g>
</g>
<g>
</g>
<g>
</g>
<g>
</g>
<g>
</g>
<g>
</g>
<g>
</g>
<g>
</g>
<g>
</g>
<g>
</g>
<g>
</g>
<g>
</g>
<g>
</g>
<g>
</g>
<g>
</g>
</svg>
