<?xml version="1.0" encoding="iso-8859-1"?>
<!-- Generator: Adobe Illustrator 19.0.0, SVG Export Plug-In . SVG Version: 6.00 Build 0)  -->
<svg version="1.1" id="Layer_1" xmlns="http://www.w3.org/2000/svg" xmlns:xlink="http://www.w3.org/1999/xlink" x="0px" y="0px"
	 viewBox="0 0 508 508" style="enable-background:new 0 0 508 508;" xml:space="preserve">
<g>
	<g>
		<path d="M465.7,0.02H42.3C19,0.02,0,19.02,0,42.32v320.7c0,23.3,19,42.3,42.3,42.3H182l22.8,54.1c-16.5,5.1-32.2,12.7-46.7,22.8
			c-6.4,4.5-7.9,13.3-3.5,19.7c4.5,6.4,13.2,8,19.7,3.5c23.6-16.5,51.2-25.2,79.7-25.2s55.8,9,79.7,25.2c3.7,2.5,14.8,3.9,19.7-3.5
			c4.3-6.5,2.9-15.2-3.5-19.7c-14.5-10.1-30.2-17.7-46.7-22.8l22.8-54.1h139.7c23.3,0,42.3-19,42.3-42.3V42.32
			C508,19.02,489,0.02,465.7,0.02z M28.2,42.32c0-7.8,6.3-14.1,14.1-14.1h423.3c7.8,0,14.1,6.3,14.1,14.1v242.5h-28.1V70.62
			c0-7.8-6.3-14.1-14.1-14.1H70.6c-7.8,0-14.1,6.3-14.1,14.1v214.2H28.2V42.32z M423.4,84.72v200.1H84.7V84.72H423.4z M274.9,453.72
			c-7-1.1-14-1.7-20.9-1.7c-6.9,0-13.9,0.6-20.9,1.7l-20.4-48.3h82.6L274.9,453.72z M479.8,363.12L479.8,363.12
			c0,7.8-6.3,14.1-14.1,14.1H42.3c-7.8,0-14.1-6.3-14.1-14.1v-50.1h451.6V363.12z"/>
	</g>
</g>
<g>
	<g>
		<path d="M258.7,331.02h-9.4c-7.8,0-14.1,6.3-14.1,14.1s6.3,14.1,14.1,14.1h9.4c7.8,0,14.1-6.3,14.1-14.1
			C272.8,337.32,266.5,331.02,258.7,331.02z"/>
	</g>
</g>
<g>
	<g>
		<path d="M279.3,122.52v74.6c0,14-11.3,25.3-25.3,25.3s-25.3-11.3-25.3-25.3v-74.6h-27.5v71.7c0,29.2,23.7,52.8,52.8,52.8
			c29.2,0,52.8-23.7,52.8-52.8v-71.7H279.3z"/>
	</g>
</g>
<g>
</g>
<g>
</g>
<g>
</g>
<g>
</g>
<g>
</g>
<g>
</g>
<g>
</g>
<g>
</g>
<g>
</g>
<g>
</g>
<g>
</g>
<g>
</g>
<g>
</g>
<g>
</g>
<g>
</g>
</svg>
