<?xml version="1.0" encoding="iso-8859-1"?>
<!-- Generator: Adobe Illustrator 19.0.0, SVG Export Plug-In . SVG Version: 6.00 Build 0)  -->
<svg version="1.1" id="Layer_1" xmlns="http://www.w3.org/2000/svg" xmlns:xlink="http://www.w3.org/1999/xlink" x="0px" y="0px"
	 viewBox="0 0 508.023 508.023" style="enable-background:new 0 0 508.023 508.023;" xml:space="preserve">
<g>
	<g>
		<path d="M493.911,335.4h-5.4V28.2h5.4c7.8,0,14.1-6.3,14.1-14.1c0-7.8-6.3-14.1-14.1-14.1h-479.8c-7.8,0-14.1,6.3-14.1,14.1
			c0,7.8,6.3,14.1,14.1,14.1h5.4v307.2h-5.4c-7.8,0-14.1,6.3-14.1,14.1c0,7.8,6.3,14.1,14.1,14.1h133l-62.4,124.1
			c-3.5,7-0.8,15.7,6.3,19c8.2,3.8,16.5-1.3,18.9-6.3l32.4-64.5h223.3l32.4,64.5c2.5,4.9,10.7,10.1,18.9,6.3c7.1-3.3,9.8-12,6.3-19
			l-62.4-124.1h133c7.8,0,14.1-6.3,14.1-14.1C507.911,341.7,501.711,335.4,493.911,335.4z M156.511,407.7l22.1-44h150.6l22.1,44
			H156.511z M460.211,335.4h-412.4V28.2h412.4V335.4z"/>
	</g>
</g>
<g>
	<g>
		<path d="M332.411,162.5h-42.2c-3.9,0-7.1,3.2-7.1,7.1s3.1,7.1,7.1,7.1h42.2c3.9,0,7.1-3.2,7.1-7.1
			C339.511,165.7,336.311,162.5,332.411,162.5z"/>
	</g>
</g>
<g>
	<g>
		<path d="M332.411,186.9h-42.2c-3.9,0-7.1,3.2-7.1,7.1v0.1c0,3.9,3.1,7.1,7.1,7.1h42.2c3.9,0,7.1-3.2,7.1-7.1V194
			C339.511,190.1,336.311,186.9,332.411,186.9z"/>
	</g>
</g>
<g>
	<g>
		<path d="M207.711,174.7h-13.1v-12.8c0-4.4-3.6-8-8-8c-4.4,0-8,3.6-8,8v12.8h-13.1c-3.9,0-7.1,3.2-7.1,7.1c0,4,3.2,7.1,7.1,7.1
			h13.1v12.8c0,4.4,3.6,8,8,8c4.4,0,8-3.6,8-8v-12.8h13.1c3.9,0,7.1-3.2,7.1-7.1S211.611,174.7,207.711,174.7z"/>
	</g>
</g>
<g>
	<g>
		<path d="M146.811,206.2h-26.6l21.1-21.4c0.2-0.2,0.4-0.4,0.6-0.7c3.4-4.5,5.2-9.9,5.2-15.5c0-14.1-11.5-25.6-25.6-25.6
			c-14.1,0-25.6,11.5-25.6,25.6c0,4,3.2,7.2,7.2,7.2s7.2-3.2,7.2-7.2c0-6.2,5.1-11.3,11.3-11.3c6.2,0,11.3,5.1,11.3,11.3
			c0,2.4-0.7,4.6-2.1,6.5l-32.8,33.3c-2,2.1-2.6,5.1-1.5,7.8c1.1,2.7,3.7,4.4,6.6,4.4h43.7c4,0,7.2-3.2,7.2-7.2
			S150.811,206.2,146.811,206.2z"/>
	</g>
</g>
<g>
	<g>
		<path d="M270.811,206.2h-26.6l21.1-21.4c0.2-0.2,0.4-0.4,0.6-0.7c3.4-4.5,5.2-9.9,5.2-15.5c0-14.1-11.5-25.6-25.6-25.6
			c-14.1,0-25.6,11.5-25.6,25.6c0,4,3.2,7.2,7.2,7.2s7.2-3.2,7.2-7.2c0-6.2,5.1-11.3,11.3-11.3c6.2,0,11.3,5.1,11.3,11.3
			c0,2.4-0.7,4.6-2.1,6.5l-32.8,33.3c-2,2.1-2.6,5.1-1.5,7.8c1.1,2.7,3.7,4.4,6.6,4.4h43.7c4,0,7.2-3.2,7.2-7.2
			S274.811,206.2,270.811,206.2z"/>
	</g>
</g>
<g>
	<g>
		<path d="M404.911,188.3h-5v-38.1c0-3-1.9-5.7-4.7-6.8c-2.8-1-6-0.2-8,2.2l-37.7,45.3c-1.8,2.1-2.2,5.1-1,7.6
			c1.2,2.6,3.8,4.2,6.5,4.2h30.5v10.8c0,4,3.2,7.2,7.2,7.2s7.2-3.2,7.2-7.2v-10.8h5c4,0,7.2-3.2,7.2-7.2
			S408.911,188.3,404.911,188.3z M385.511,188.3h-15.2l15.2-18.3V188.3z"/>
	</g>
</g>
<g>
</g>
<g>
</g>
<g>
</g>
<g>
</g>
<g>
</g>
<g>
</g>
<g>
</g>
<g>
</g>
<g>
</g>
<g>
</g>
<g>
</g>
<g>
</g>
<g>
</g>
<g>
</g>
<g>
</g>
</svg>
