<?xml version="1.0" encoding="iso-8859-1"?>
<!-- Generator: Adobe Illustrator 19.0.0, SVG Export Plug-In . SVG Version: 6.00 Build 0)  -->
<svg version="1.1" id="Layer_1" xmlns="http://www.w3.org/2000/svg" xmlns:xlink="http://www.w3.org/1999/xlink" x="0px" y="0px"
	 viewBox="0 0 508 508" style="enable-background:new 0 0 508 508;" xml:space="preserve">
<g>
	<g>
		<path d="M493.9,264.6H334c-7.8,0-14.1,6.3-14.1,14.1v65.6H174c-7.8,0-14.1,6.3-14.1,14.1v52.3h-8.6V309.2h7.9
			c7.8,0,14.1-6.3,14.1-14.1V167.5c0-22.4-18.3-40.7-40.8-40.7h-77c-22.5,0-40.8,18.3-40.8,40.7v127.6c0,7.8,6.3,14.1,14.1,14.1h7.9
			v101.4H14.1C6.3,410.7,0,417,0,424.8v69.1c0,7.8,6.3,14.1,14.1,14.1h479.8c7.8,0,14.1-6.3,14.1-14.1V278.7
			C508,270.9,501.7,264.6,493.9,264.6z M43,167.5c0-6.9,5.6-12.5,12.5-12.5h77c6.9,0,12.5,5.6,12.5,12.5V281H43V167.5z M94.1,338.8
			c-7.8,0-14.1,6.3-14.1,14.1v57.8H65V309.2h58.1v101.4h-14.9v-57.8C108.2,345.1,101.9,338.8,94.1,338.8z M159.9,479.8H28.2v-40.9
			h131.7V479.8z M188.1,479.8V372.5h131.7v107.3H188.1z M479.8,479.8H348.1v-187h131.7V479.8z"/>
	</g>
</g>
<g>
	<g>
		<path d="M94.1,0C66.8,0,44.7,22.2,44.7,49.4c0,27.2,22.1,49.4,49.4,49.4c27.2,0,49.4-22.2,49.4-49.4C143.5,22.2,121.3,0,94.1,0z
			 M94.1,70.6c-11.7,0-21.2-9.5-21.2-21.2c0-11.7,9.5-21.2,21.2-21.2c11.7,0,21.2,9.5,21.2,21.2C115.3,61.1,105.8,70.6,94.1,70.6z"
			/>
	</g>
</g>
<g>
	<g>
		<path d="M423.9,107.5h-19.7c-5.5,0-10,4.5-10,10c-0.1,5.5,4.3,10,9.9,10h9.8v90c0,5.5,4.5,10,10,10s10-4.5,10-10v-100
			C433.9,112,429.4,107.5,423.9,107.5z"/>
	</g>
</g>
<g>
	<g>
		<path d="M288.5,285.8h-45.2l35.6-36.2c0.3-0.3,8.8-10.3,8.8-24.7c0-21.6-17.6-39.1-39.1-39.1c-21.6,0-39.1,17.6-39.1,39.1
			c0,5.7,4.4,10.1,10,10.1c5.5,0,10-4.5,10-10c0-10.6,8.6-19.1,19.1-19.1c10.6,0,19.1,8.6,19.1,19.1c0,4-1.2,7.9-3.6,11.1
			l-51.8,52.7c-2.8,2.9-3.7,7.2-2.1,10.9s5.2,6.1,9.2,6.1h69.1c5.5,0,10-4.5,10-10S294,285.8,288.5,285.8z"/>
	</g>
</g>
<g>
</g>
<g>
</g>
<g>
</g>
<g>
</g>
<g>
</g>
<g>
</g>
<g>
</g>
<g>
</g>
<g>
</g>
<g>
</g>
<g>
</g>
<g>
</g>
<g>
</g>
<g>
</g>
<g>
</g>
</svg>
