<?xml version="1.0" encoding="iso-8859-1"?>
<!-- Generator: Adobe Illustrator 19.0.0, SVG Export Plug-In . SVG Version: 6.00 Build 0)  -->
<svg version="1.1" id="Layer_1" xmlns="http://www.w3.org/2000/svg" xmlns:xlink="http://www.w3.org/1999/xlink" x="0px" y="0px"
	 viewBox="0 0 508.02 508.02" style="enable-background:new 0 0 508.02 508.02;" xml:space="preserve">
<g>
	<g>
		<path d="M503.825,210.792l-57.3-57.2l10.7-28.5c1.9-5.2,0.7-11-3.2-14.9l-56.3-56.3c-3.9-3.9-9.8-5.2-14.9-3.2l-28.5,10.7
			l-57.4-57.2c-5.5-5.5-14.4-5.5-19.9,0l-41.1,41c-5.5,5.5-5.5,14.4,0,19.9l59.9,59.8l-291.7,291.3c-5.5,5.5-5.5,14.4,0,19.9
			l67.1,67c9.6,9.5,17.3,2.6,19.9,0l291.6-291.2l59.9,59.8c8.3,8.3,17.2,2.8,19.9,0l41.1-41
			C506.425,228.092,511.825,218.892,503.825,210.792z M81.225,473.292l-47.2-47.1l18.4-18.4l15.3,15.3c5.8,5.8,15,4.9,19.9,0
			c5.5-5.5,5.5-14.4,0-19.9l-15.3-15.3l25-25l7.7,7.6c5.8,5.8,15,4.9,19.9,0c5.5-5.5,5.5-14.4,0-19.9l-7.7-7.6l25-25l15.3,15.3
			c5.8,5.8,15,4.9,19.9,0c5.5-5.5,5.5-14.4,0-19.9l-15-15.3l25-25l7.7,7.6c5.8,5.8,15,4.9,19.9,0c5.5-5.5,5.5-14.4,0-19.9l-7.7-7.6
			l25-25l15.3,15.3c5.8,5.8,15,4.9,19.9,0c5.5-5.5,5.5-14.4,0-19.9l-15.3-15.3l25-25l7.7,7.6c5.8,5.8,15,4.9,19.9,0
			c5.5-5.5,5.5-14.4,0-19.9l-7.7-7.6l18.4-18.4l47.2,47.1L81.225,473.292z M452.725,241.892l-186.9-186.7l21.1-21.1l53.8,53.7
			c3.9,3.9,9.8,5.2,14.9,3.2l28.4-10.6l43.5,43.4l-10.6,28.5c-1.9,5.2-0.7,11,3.2,14.9l53.7,53.6L452.725,241.892z"/>
	</g>
</g>
<g>
</g>
<g>
</g>
<g>
</g>
<g>
</g>
<g>
</g>
<g>
</g>
<g>
</g>
<g>
</g>
<g>
</g>
<g>
</g>
<g>
</g>
<g>
</g>
<g>
</g>
<g>
</g>
<g>
</g>
</svg>
