<?xml version="1.0" encoding="iso-8859-1"?>
<!-- Generator: Adobe Illustrator 19.0.0, SVG Export Plug-In . SVG Version: 6.00 Build 0)  -->
<svg version="1.1" id="Layer_1" xmlns="http://www.w3.org/2000/svg" xmlns:xlink="http://www.w3.org/1999/xlink" x="0px" y="0px"
	 viewBox="0 0 508 508" style="enable-background:new 0 0 508 508;" xml:space="preserve">
<g>
	<g>
		<path d="M493.9,266.5H194.2c-1.5-7.4-4.3-14.3-7.9-20.4h51.3c7.8,0,14.1-6.3,14.1-14.1V81.9c0-7.8-6.3-14.1-14.1-14.1H41.3
			c-7.8,0-14.1,6.3-14.1,14.1V232c0,7.8,6.3,14.1,14.1,14.1h51.2c-3.6,6.1-6.3,13-7.8,20.4H14.1c-7.8,0-14.1,6.3-14.1,14.1
			s6.3,14.1,14.1,14.1h38.5v199.1c0,7.8,6.3,14.1,14.1,14.1s14.1-6.3,14.1-14.1v-199h346.4v199.1c0,7.8,6.3,14.1,14.1,14.1
			s14.1-6.3,14.1-14.1V294.8h38.5c7.8,0,14.1-6.3,14.1-14.1C508,272.9,501.7,266.5,493.9,266.5z M55.4,217.9V96h168v121.9H55.4z
			 M113.9,266.5c4.4-12,14.2-20.4,25.5-20.4c11.4,0,21.2,8.4,25.5,20.4H113.9z"/>
	</g>
</g>
<g>
	<g>
		<path d="M404.9,0c-56.8,0-103.1,46.2-103.1,103.1c0,56.8,46.3,103.1,103.1,103.1S508,160,508,103.1C508,46.2,461.8,0,404.9,0z
			 M404.9,178c-41.3,0-74.9-33.6-74.9-74.9s33.6-74.9,74.9-74.9s74.9,33.6,74.9,74.9C479.8,144.4,446.2,178,404.9,178z"/>
	</g>
</g>
<g>
	<g>
		<path d="M404.9,42.2c-7.8,0-14.1,6.3-14.1,14.1V89h-16.2c-7.8,0-14.1,6.3-14.1,14.1s6.3,14.1,14.1,14.1h30.3
			c7.8,0,14.1-6.3,14.1-14.1V56.3C419,48.5,412.7,42.2,404.9,42.2z"/>
	</g>
</g>
<g>
</g>
<g>
</g>
<g>
</g>
<g>
</g>
<g>
</g>
<g>
</g>
<g>
</g>
<g>
</g>
<g>
</g>
<g>
</g>
<g>
</g>
<g>
</g>
<g>
</g>
<g>
</g>
<g>
</g>
</svg>
