<?xml version="1.0" encoding="iso-8859-1"?>
<!-- Generator: Adobe Illustrator 19.0.0, SVG Export Plug-In . SVG Version: 6.00 Build 0)  -->
<svg version="1.1" id="Layer_1" xmlns="http://www.w3.org/2000/svg" xmlns:xlink="http://www.w3.org/1999/xlink" x="0px" y="0px"
	 viewBox="0 0 508 508" style="enable-background:new 0 0 508 508;" xml:space="preserve">
<g>
	<g>
		<path d="M377.2,0H130.8C101,0,76.7,24.3,76.7,54.1v399.8c0,29.8,24.3,54.1,54.1,54.1h246.4c29.8,0,54.1-24.3,54.1-54.1V54.1
			C431.3,24.3,407,0,377.2,0z M403,453.9c0,14.3-11.6,25.9-25.9,25.9H130.8c-14.3,0-25.9-11.6-25.9-25.9v-47.4H403V453.9z
			 M403.2,378.3H403H105V54.1c0-14.3,11.6-25.9,25.9-25.9h246.4c14.3,0,25.9,11.6,25.9,25.9V378.3z"/>
	</g>
</g>
<g>
	<g>
		<path d="M294.7,67.2h-81.3c-7.8,0-14.1,6.3-14.1,14.1s6.3,14.1,14.1,14.1h81.3c7.8,0,14.1-6.3,14.1-14.1S302.5,67.2,294.7,67.2z"
			/>
	</g>
</g>
<g>
	<g>
		<path d="M279.5,429.1h-51c-7.8,0-14.1,6.3-14.1,14.1c0,7.8,6.3,14.1,14.1,14.1h51c7.8,0,14.1-6.3,14.1-14.1
			C293.6,435.4,287.3,429.1,279.5,429.1z"/>
	</g>
</g>
<g>
	<g>
		<path d="M160.5,429.1h-7.2c-7.8,0-14.1,6.3-14.1,14.1c0,7.8,6.4,14.1,14.1,14.1h7.2c7.8,0,14.1-6.3,14.1-14.1
			C174.6,435.4,168.3,429.1,160.5,429.1z"/>
	</g>
</g>
<g>
	<g>
		<path d="M354.7,429.1h-7.2c-7.8,0-14.1,6.3-14.1,14.1c0,7.8,6.3,14.1,14.1,14.1h7.2c7.8,0,14.1-6.3,14.1-14.1
			C368.8,435.4,362.5,429.1,354.7,429.1z"/>
	</g>
</g>
<g>
</g>
<g>
</g>
<g>
</g>
<g>
</g>
<g>
</g>
<g>
</g>
<g>
</g>
<g>
</g>
<g>
</g>
<g>
</g>
<g>
</g>
<g>
</g>
<g>
</g>
<g>
</g>
<g>
</g>
</svg>
