<?xml version="1.0" encoding="iso-8859-1"?>
<!-- Generator: Adobe Illustrator 19.0.0, SVG Export Plug-In . SVG Version: 6.00 Build 0)  -->
<svg version="1.1" id="Layer_1" xmlns="http://www.w3.org/2000/svg" xmlns:xlink="http://www.w3.org/1999/xlink" x="0px" y="0px"
	 viewBox="0 0 508 508" style="enable-background:new 0 0 508 508;" xml:space="preserve">
<g>
	<g>
		<path d="M337.2,74.1h-72L255.7,49c-2.1-5.5-7.3-9.1-13.2-9.1h-19.9v-7.5c0-17.9-14.5-32.4-32.4-32.4H161
			c-17.9,0-32.4,14.5-32.4,32.4v7.5H102c-5.9,0-11.1,3.6-13.2,9.1l-9.5,25.1H14.1C6.3,74.1,0,80.4,0,88.2v405.7
			c0,7.8,6.3,14.1,14.1,14.1h323.1c7.8,0,14.1-6.3,14.1-14.1V88.2C351.3,80.4,345,74.1,337.2,74.1z M111.7,68.1h31
			c7.8,0,14.1-6.3,14.1-14.1V32.4c0-2.3,1.9-4.2,4.2-4.2h29.2c2.3,0,4.2,1.9,4.2,4.2V54c0,7.8,6.3,14.1,14.1,14.1h24.3l16,42.1h-153
			L111.7,68.1z M28.2,479.8V102.3h40.4l-6.5,17c-1.6,4.3,0,19.1,13.2,19.1h193.8c0.1,0,0.1,0,0.1,0c16.5,0,13.5-18.9,12.4-20.9
			l-5.8-15.3H323v377.6H28.2z"/>
	</g>
</g>
<g>
	<g>
		<path d="M277.2,186.2H74.1c-7.8,0-14.1,6.3-14.1,14.1s6.3,14.1,14.1,14.1h203.1c7.8,0,14.1-6.3,14.1-14.1S285,186.2,277.2,186.2z"
			/>
	</g>
</g>
<g>
	<g>
		<path d="M277.2,261.3H74.1c-7.8,0-14.1,6.3-14.1,14.1s6.3,14.1,14.1,14.1h203.1c7.8,0,14.1-6.3,14.1-14.1
			C291.3,267.7,285,261.3,277.2,261.3z"/>
	</g>
</g>
<g>
	<g>
		<path d="M277.2,336.5H74.1c-7.8,0-14.1,6.3-14.1,14.1c0,7.8,6.3,14.1,14.1,14.1h203.1c7.8,0,14.1-6.3,14.1-14.1
			C291.3,342.8,285,336.5,277.2,336.5z"/>
	</g>
</g>
<g>
	<g>
		<path d="M206,411.6H74.1c-7.8,0-14.1,6.3-14.1,14.1c0,7.8,6.3,14.1,14.1,14.1H206c7.8,0,14.1-6.3,14.1-14.1
			C220.1,417.9,213.8,411.6,206,411.6z"/>
	</g>
</g>
<g>
	<g>
		<path d="M506,137.8l-41.3-68.7c-2.6-4.2-7.1-6.8-12.1-6.8s-9.5,2.6-12.1,6.8l-41.3,68.7c-1.3,2.2-2,4.7-2,7.3v245.3
			c0,30.6,24.9,55.4,55.4,55.4c30.6,0,55.4-24.9,55.4-55.4V145C508,142.5,507.3,140,506,137.8z M452.6,103.7l16.4,27.2h-32.8
			L452.6,103.7z M425.3,159.2h54.5v198.4h-54.5V159.2z M479.9,390.3h-0.1c0,15-12.2,27.2-27.2,27.2s-27.2-12.2-27.2-27.2v-4.5h54.5
			V390.3z"/>
	</g>
</g>
<g>
</g>
<g>
</g>
<g>
</g>
<g>
</g>
<g>
</g>
<g>
</g>
<g>
</g>
<g>
</g>
<g>
</g>
<g>
</g>
<g>
</g>
<g>
</g>
<g>
</g>
<g>
</g>
<g>
</g>
</svg>
