<?xml version="1.0" encoding="iso-8859-1"?>
<!-- Generator: Adobe Illustrator 19.0.0, SVG Export Plug-In . SVG Version: 6.00 Build 0)  -->
<svg xmlns="http://www.w3.org/2000/svg" xmlns:xlink="http://www.w3.org/1999/xlink" version="1.1" id="Capa_1" x="0px" y="0px" viewBox="0 0 512.001 512.001" style="enable-background:new 0 0 512.001 512.001;" xml:space="preserve">
<g>
	<g>
		<path d="M57.527,0v454.467h40.27v57.528h40.27v-57.528h235.865v57.534h40.27v-57.534h40.27V0H57.527z M299.145,132.309h28.764    v57.528h-28.764V132.309z M184.09,132.309h28.764v57.528H184.09V132.309z M169.701,385.433c-11.121,0-20.129-9.015-20.129-20.135    c0-11.126,9.009-20.135,20.129-20.135c11.132,0,20.141,9.009,20.141,20.135C189.842,376.418,180.833,385.433,169.701,385.433z     M342.286,385.433c-11.121,0-20.129-9.015-20.129-20.135c0-11.126,9.009-20.135,20.129-20.135    c11.132,0,20.141,9.009,20.141,20.135C362.427,376.418,353.418,385.433,342.286,385.433z M414.185,310.646L414.185,310.646    H270.382v103.556h-28.764V310.646H97.78v-28.764h143.837V40.27h28.764v241.612h143.803V310.646z"/>
	</g>
</g>
<g>
</g>
<g>
</g>
<g>
</g>
<g>
</g>
<g>
</g>
<g>
</g>
<g>
</g>
<g>
</g>
<g>
</g>
<g>
</g>
<g>
</g>
<g>
</g>
<g>
</g>
<g>
</g>
<g>
</g>
</svg>
