<?xml version="1.0" encoding="iso-8859-1"?>
<!-- Generator: Adobe Illustrator 19.0.0, SVG Export Plug-In . SVG Version: 6.00 Build 0)  -->
<svg xmlns="http://www.w3.org/2000/svg" xmlns:xlink="http://www.w3.org/1999/xlink" version="1.1" id="Capa_1" x="0px" y="0px" viewBox="0 0 512 512" style="enable-background:new 0 0 512 512;" xml:space="preserve">
<g>
	<g>
		<path d="M202.097,45.511c0.723,13.812,6.514,26.169,15.684,35.374c9.831,9.797,23.251,15.821,38.219,15.821    s28.387-6.025,38.213-15.821c9.177-9.205,14.967-21.561,15.69-35.374H202.097z"/>
	</g>
</g>
<g>
	<g>
		<path d="M420.977,79.645l-83.052-27.682c-4.626,41.176-39.515,73.182-81.926,73.193c-42.411-0.011-77.3-32.017-81.926-73.193    L91.021,79.645L0,227.556l79.644,56.889l17.067-22.756v204.8h318.577v-204.8l17.067,22.756L512,227.556L420.977,79.645z"/>
	</g>
</g>
<g>
</g>
<g>
</g>
<g>
</g>
<g>
</g>
<g>
</g>
<g>
</g>
<g>
</g>
<g>
</g>
<g>
</g>
<g>
</g>
<g>
</g>
<g>
</g>
<g>
</g>
<g>
</g>
<g>
</g>
</svg>
