<?xml version="1.0" encoding="iso-8859-1"?>
<!-- Generator: Adobe Illustrator 19.0.0, SVG Export Plug-In . SVG Version: 6.00 Build 0)  -->
<svg xmlns="http://www.w3.org/2000/svg" xmlns:xlink="http://www.w3.org/1999/xlink" version="1.1" id="Capa_1" x="0px" y="0px" viewBox="0 0 512 512" style="enable-background:new 0 0 512 512;" xml:space="preserve">
<g>
	<g>
		<path d="M0,70.095v280.381c0,33.524,27.428,60.952,60.952,60.952h6.095v30.476h42.667v-30.476h292.571v30.476h42.667v-30.476    h6.095c33.524,0,60.952-27.428,60.952-60.952V70.095H0z M341.333,350.476H54.857V124.953h286.476V350.476z M426.667,350.476    c-20.194,0-36.571-16.384-36.571-36.571s16.384-36.571,36.571-36.571c20.187,0,36.571,16.384,36.571,36.571    S446.861,350.476,426.667,350.476z M469.334,192h-85.333v-67.047h85.333V192z"/>
	</g>
</g>
<g>
</g>
<g>
</g>
<g>
</g>
<g>
</g>
<g>
</g>
<g>
</g>
<g>
</g>
<g>
</g>
<g>
</g>
<g>
</g>
<g>
</g>
<g>
</g>
<g>
</g>
<g>
</g>
<g>
</g>
</svg>
