<?xml version="1.0" encoding="iso-8859-1"?>
<!-- Generator: Adobe Illustrator 19.0.0, SVG Export Plug-In . SVG Version: 6.00 Build 0)  -->
<svg xmlns="http://www.w3.org/2000/svg" xmlns:xlink="http://www.w3.org/1999/xlink" version="1.1" id="Capa_1" x="0px" y="0px" viewBox="0 0 512 512" style="enable-background:new 0 0 512 512;" xml:space="preserve">
<g>
	<g>
		<path d="M447.19,139.342h-51.822V61.57c14.317,0,25.924-11.607,25.924-25.924S409.685,9.722,395.368,9.722H116.684    c-14.317,0-25.924,11.607-25.924,25.924s11.607,25.924,25.924,25.924v77.773H64.81C29.164,139.342,0,168.507,0,204.152v265.722    h71.291v32.405h45.368v-32.405h278.683v32.405h45.368v-32.405H512V204.152C512,168.507,482.836,139.342,447.19,139.342z     M430.988,197.671c12.521,0,22.683,10.149,22.683,22.683s-10.162,22.683-22.683,22.683c-12.534,0-22.683-10.149-22.683-22.683    S418.453,197.671,430.988,197.671z M162.052,61.57v-6.481h187.949v6.481v77.773H162.052    C162.052,139.342,162.052,61.57,162.052,61.57z M466.659,392.102L466.659,392.102H45.393v-32.405h421.266V392.102z"/>
	</g>
</g>
<g>
</g>
<g>
</g>
<g>
</g>
<g>
</g>
<g>
</g>
<g>
</g>
<g>
</g>
<g>
</g>
<g>
</g>
<g>
</g>
<g>
</g>
<g>
</g>
<g>
</g>
<g>
</g>
<g>
</g>
</svg>
