<?xml version="1.0" encoding="iso-8859-1"?>
<!-- Generator: Adobe Illustrator 19.0.0, SVG Export Plug-In . SVG Version: 6.00 Build 0)  -->
<svg xmlns="http://www.w3.org/2000/svg" xmlns:xlink="http://www.w3.org/1999/xlink" version="1.1" id="Capa_1" x="0px" y="0px" viewBox="0 0 512 512" style="enable-background:new 0 0 512 512;" xml:space="preserve">
<g>
	<g>
		<path d="M457.649,118.292c-4.792-5.757-10.712-10.68-17.644-14.218c-6.912-3.538-14.895-5.625-23.184-5.612    c-2.894,0-5.652,0-8.337,0l5.054-19.693V52.513h-0.098V32.82h-98.365V0H150.974v32.82h-98.56v32.82h0.098v13.128l65.641,255.999    L39.384,512h387.282l-78.77-177.231l8.416-32.82h53.944c17.165,0,32.859-7.07,44.059-18.301    c11.231-11.198,18.307-26.893,18.301-44.059v-78.77C472.589,144.758,467.227,129.831,457.649,118.292z M233.025,466.051    c-27.195,0-49.231-22.035-49.231-49.231s22.035-49.231,49.231-49.231s49.231,22.035,49.231,49.231    S260.221,466.051,233.025,466.051z M361.026,98.566l-23.539,91.792h-42.26l-6.407,32.82h40.257l-8.416,32.82h-39.686l-6.407,32.82    h37.672l-8.409,32.82H162.218L104.999,98.461h256.026V98.566z M421.828,251.155c-3.086,3.052-7.076,4.838-11.572,4.844h-42.161    l28.606-111.59c5.586,0,12.511,0,20.113,0c0.735,0.013,1.372,0.138,2.311,0.604c1.359,0.67,3.314,2.331,4.877,5.113    c1.563,2.764,2.664,6.485,2.659,10.693l0.006,78.77C426.659,244.085,424.875,248.077,421.828,251.155z"/>
	</g>
</g>
<g>
</g>
<g>
</g>
<g>
</g>
<g>
</g>
<g>
</g>
<g>
</g>
<g>
</g>
<g>
</g>
<g>
</g>
<g>
</g>
<g>
</g>
<g>
</g>
<g>
</g>
<g>
</g>
<g>
</g>
</svg>
