<?xml version="1.0" encoding="iso-8859-1"?>
<!-- Generator: Adobe Illustrator 19.0.0, SVG Export Plug-In . SVG Version: 6.00 Build 0)  -->
<svg xmlns="http://www.w3.org/2000/svg" xmlns:xlink="http://www.w3.org/1999/xlink" version="1.1" id="Capa_1" x="0px" y="0px" viewBox="0 0 512 512" style="enable-background:new 0 0 512 512;" xml:space="preserve">
<g>
	<g>
		<path d="M451.955,319.536L512,255.842l-60.14-63.617l11.13-86.821L376.954,89.27l-42.017-76.768l-79.08,37.5l-79.124-37.399    l-41.928,76.813l-86.023,16.248l11.238,86.808L0,256.152l60.115,63.617l-11.149,86.814l86.048,16.147l42.024,76.768l79.067-37.5    l79.137,37.399l41.928-76.818l86.011-16.254l-1.153-8.88L451.955,319.536z M163.196,208.625c0-20.992,17.014-38.001,38.014-38.001    c20.987,0,38.001,17.009,38.001,38.001c0,20.987-17.014,38.014-38.001,38.014C180.211,246.639,163.196,229.617,163.196,208.625z     M207.285,338.812l-24.832-19.656l120.356-152.028l24.832,19.656L207.285,338.812z M308.896,341.656    c-20.999,0-38.014-17.027-38.014-38.014c0-20.992,17.014-38.001,38.014-38.001c20.987,0,38.001,17.009,38.001,38.001    S329.888,341.656,308.896,341.656z"/>
	</g>
</g>
<g>
</g>
<g>
</g>
<g>
</g>
<g>
</g>
<g>
</g>
<g>
</g>
<g>
</g>
<g>
</g>
<g>
</g>
<g>
</g>
<g>
</g>
<g>
</g>
<g>
</g>
<g>
</g>
<g>
</g>
</svg>
