<?xml version="1.0" encoding="iso-8859-1"?>
<!-- Generator: Adobe Illustrator 19.0.0, SVG Export Plug-In . SVG Version: 6.00 Build 0)  -->
<svg xmlns="http://www.w3.org/2000/svg" xmlns:xlink="http://www.w3.org/1999/xlink" version="1.1" id="Capa_1" x="0px" y="0px" viewBox="0 0 511.999 511.999" style="enable-background:new 0 0 511.999 511.999;" xml:space="preserve">
<g>
	<g>
		<path d="M471.083,191.814c8.006-26.12-9.748-68.978-45.839-105.069c-36.078-36.09-78.937-53.839-105.063-45.832L279.268,0    L0.002,279.272l40.908,40.913c-8.006,26.115,9.737,68.979,45.826,105.075c36.089,36.097,78.96,53.839,105.075,45.826    l40.919,40.913l279.267-279.272L471.083,191.814z M272.71,344.331l-21.154-21.16l9.408-9.401    c-2.585-2.771-5.457-5.853-8.533-9.126c-3.369-3.597-6.917-7.367-10.412-11.076l-10.041,10.041l-21.154-21.154l10.423-10.412    c-0.712-0.688-1.251-1.19-1.472-1.388l0.012,0.012c-5.619-4.967-9.844-11.065-12.555-17.582    c-2.711-6.529-3.961-13.458-3.961-20.346c0.035-16.085,6.648-32.153,18.874-44.444c7.54-7.54,16.516-12.794,25.899-15.72v0.006    l8.904,28.562c-4.871,1.514-9.586,4.248-13.649,8.312c-6.684,6.63-10.155,15.625-10.108,23.284c0,3.28,0.599,6.271,1.658,8.844    c1.089,2.585,2.609,4.769,4.757,6.679l0.012,0.012c0.868,0.766,1.789,1.64,2.783,2.622l27.796-27.802l21.154,21.16l-28.167,28.167    c2.184,2.31,4.381,4.644,6.571,6.959c4.416,4.71,8.695,9.287,12.375,13.231l41.057-41.045l21.154,21.154L272.71,344.331z"/>
	</g>
</g>
<g>
</g>
<g>
</g>
<g>
</g>
<g>
</g>
<g>
</g>
<g>
</g>
<g>
</g>
<g>
</g>
<g>
</g>
<g>
</g>
<g>
</g>
<g>
</g>
<g>
</g>
<g>
</g>
<g>
</g>
</svg>
