<?xml version="1.0" encoding="iso-8859-1"?>
<!-- Generator: Adobe Illustrator 16.0.0, SVG Export Plug-In . SVG Version: 6.00 Build 0)  -->
<!DOCTYPE svg PUBLIC "-//W3C//DTD SVG 1.1//EN" "http://www.w3.org/Graphics/SVG/1.1/DTD/svg11.dtd">
<svg version="1.1" id="Capa_1" xmlns="http://www.w3.org/2000/svg" xmlns:xlink="http://www.w3.org/1999/xlink" x="0px" y="0px"
	 width="981.387px" height="981.387px" viewBox="0 0 981.387 981.387" style="enable-background:new 0 0 981.387 981.387;"
	 xml:space="preserve">
<g>
	<path d="M267.486,839.793h555.3c4.101,0,8.2-0.398,12.2-1.299c83.4-19.6,146.4-94.6,146.4-183c0-76.1-46.7-142.301-113-169.6
		c-2-190.2-156.7-344.3-347.3-344.3c-130,0-243.2,71.2-302.8,176.9c-128.3,21-225.2,137.7-217.9,273.401
		C7.986,731.895,127.287,839.793,267.486,839.793z M366.687,482.394h86v-86c0-27.6,22.4-50,50-50s50,22.4,50,50v86h86
		c27.6,0,50,22.399,50,50c0,27.6-22.4,50-50,50h-86v86c0,27.6-22.4,50-50,50s-50-22.4-50-50v-86h-86c-27.6,0-50-22.4-50-50
		C316.687,504.793,339.087,482.394,366.687,482.394z"/>
</g>
<g>
</g>
<g>
</g>
<g>
</g>
<g>
</g>
<g>
</g>
<g>
</g>
<g>
</g>
<g>
</g>
<g>
</g>
<g>
</g>
<g>
</g>
<g>
</g>
<g>
</g>
<g>
</g>
<g>
</g>
</svg>
