<?xml version="1.0" encoding="iso-8859-1"?>
<!-- Generator: Adobe Illustrator 16.0.0, SVG Export Plug-In . SVG Version: 6.00 Build 0)  -->
<!DOCTYPE svg PUBLIC "-//W3C//DTD SVG 1.1//EN" "http://www.w3.org/Graphics/SVG/1.1/DTD/svg11.dtd">
<svg version="1.1" id="Capa_1" xmlns="http://www.w3.org/2000/svg" xmlns:xlink="http://www.w3.org/1999/xlink" x="0px" y="0px"
	 width="126.1px" height="126.1px" viewBox="0 0 126.1 126.1" style="enable-background:new 0 0 126.1 126.1;" xml:space="preserve"
	>
<g>
	<path d="M11.35,86.8h11.4c0.4,3,1.1,6.399,2,9.399l-13,13.301c-2.7,2.8-2.6,7.199,0.1,9.8c1.4,1.3,3.1,2,4.9,2
		c1.8,0,3.6-0.7,5-2.101l9.7-9.899c7.4,10.2,18.9,16.8,31.6,16.8h0.2l0,0c12.7,0,24.1-6.5,31.5-16.8l9.699,9.899
		c1.4,1.4,3.2,2.101,5,2.101c1.7,0,3.5-0.7,4.801-2c2.8-2.7,2.8-7.101,0.1-9.8l-13-13.301c1-3,1.7-6.399,2-9.399h11.4
		c3.8,0,7-3.2,7-7s-3.101-7-7-7h-11.801c-0.5-3-1.3-6.2-2.399-9l13.7-14.1c2.699-2.8,2.6-7.2-0.101-9.8c-2.8-2.7-7.2-2.6-9.8,0.1
		l-10.3,10.8l-0.3,0.3c-4,4.1-7.801,9.1-13,11.7c-3.301,1.601-6.4,2.899-10.4,3.601V93.6c0,3.801-3.2,7-7,7c-4,0-7-3.1-7-7V66.4
		c-4-0.701-7.3-2-10.6-3.601c-5.2-2.6-9.2-7.6-13.2-11.7l-0.3-0.3L21.75,40c-2.7-2.8-7.1-2.8-9.8-0.1c-2.8,2.7-2.8,7.1-0.1,9.8
		l13.6,14.1c-1.1,2.899-1.9,6-2.4,9h-11.7c-3.8,0-7,3.2-7,7S7.45,86.8,11.35,86.8z"/>
	<path d="M86.949,11.3c2.101-2.7,2-6.6-0.5-9.1c-1.3-1.4-3.1-2.1-4.899-2.2c-2,0-3.601,0.8-5,2.1c-7.3,6.5-19.3,6.5-26.5,0
		c-1.4-1.3-3.3-2.1-5.2-2.1c-1.8,0-3.6,0.8-4.9,2.1c-2.4,2.5-2.6,6.4-0.5,9.1c0.2,0.3,0.4,0.5,0.7,0.7c1.5,1.4,3,2.6,4.7,3.7
		c-3.1,3.9-4.9,8.9-4.9,14.3c0,4.3,1.2,8.2,3.2,11.7c4,6.9,11.7,11.5,20.2,11.5h0.2l0,0c8.5,0,16-4.6,20-11.5
		c2-3.4,3.2-7.4,3.2-11.7c0-5.4-1.801-10.3-4.9-14.3c1.6-1.1,3.2-2.3,4.7-3.7C86.55,11.8,86.75,11.5,86.949,11.3z"/>
</g>
<g>
</g>
<g>
</g>
<g>
</g>
<g>
</g>
<g>
</g>
<g>
</g>
<g>
</g>
<g>
</g>
<g>
</g>
<g>
</g>
<g>
</g>
<g>
</g>
<g>
</g>
<g>
</g>
<g>
</g>
</svg>
