<?xml version="1.0" encoding="iso-8859-1"?>
<!-- Generator: Adobe Illustrator 16.0.0, SVG Export Plug-In . SVG Version: 6.00 Build 0)  -->
<!DOCTYPE svg PUBLIC "-//W3C//DTD SVG 1.1//EN" "http://www.w3.org/Graphics/SVG/1.1/DTD/svg11.dtd">
<svg version="1.1" id="Capa_1" xmlns="http://www.w3.org/2000/svg" xmlns:xlink="http://www.w3.org/1999/xlink" x="0px" y="0px"
	 width="118.898px" height="118.898px" viewBox="0 0 118.898 118.898" style="enable-background:new 0 0 118.898 118.898;"
	 xml:space="preserve">
<g>
	<path d="M83.465,114.798c5.8-5.2,10.101-12.1,12.3-19.9c0.9-3.1,1.4-6.399,1.5-9.699c0.101-3.301-0.1-6.5-0.699-9.601
		c-1.9-10.6-7.4-20-14.101-28.299c-3.5-4.4-7.5-8.5-11.1-12.9c-3.5-4.5-6.5-9.5-8.601-14.8c-0.3-0.8-0.6-1.6-0.899-2.5
		c-2.101-6.2-1.2-15.6-1.2-15.6c0.2-1.6-2.1-2.1-2.5-0.6c-2.5,7.8-3.4,21.5,7.8,40.9c3.601,6.1,7.9,15.7,3.101,22.299
		c-3.4,4.7-11.7,6-16.2,2.101c-0.5-0.4-0.9-0.9-1.3-1.5c-3.101-4.601,0.399-10.5,0.199-15.6c-0.199-5.6-2.1-11.1-4.699-16.1
		c-0.7-1.3-2.601-0.7-2.5,0.8c0.5,3.8,0.3,7.8-0.601,11.4c-2.2,9.2-9.8,13.4-15,20.6c-5.6,7.8-8.399,17.7-7,27.2
		c1.7,11.399,8.601,20.5,17.9,25.899c-0.101-0.199-0.101-0.5-0.2-0.699c-0.8-4.5,0.8-9.101,4.1-12.7c3-3.3,7.4-5.3,8.7-9.601
		c0.5-1.699,0.601-3.5,0.3-5.3c-0.1-0.7,1-1,1.4-0.399c1.5,2.3,2.6,4.899,2.8,7.5c0.101,2.399-2,5.1-0.1,7.3
		c0.2,0.3,0.5,0.5,0.8,0.7c2.6,1.8,7.4,1.199,9.4-1c2.8-3.101,0.3-7.601-1.801-10.4c-6.6-9.1-6-15.4-4.6-19.1
		c0.3-0.7,1.6-0.5,1.5,0.3l0,0c-0.4,2.5-0.3,4.8,0.7,7.3c0.2,0.4,0.3,0.8,0.5,1.2c1.2,2.5,2.899,4.8,5,6.899
		c2,2.101,4.399,4,6.399,6c3.801,3.9,7.101,8.301,8.2,13.2c0.3,1.4,0.5,2.9,0.4,4.5C83.465,114.598,83.465,114.699,83.465,114.798z"
		/>
</g>
<g>
</g>
<g>
</g>
<g>
</g>
<g>
</g>
<g>
</g>
<g>
</g>
<g>
</g>
<g>
</g>
<g>
</g>
<g>
</g>
<g>
</g>
<g>
</g>
<g>
</g>
<g>
</g>
<g>
</g>
</svg>
