<?xml version="1.0" encoding="iso-8859-1"?>
<!-- Generator: Adobe Illustrator 16.0.0, SVG Export Plug-In . SVG Version: 6.00 Build 0)  -->
<!DOCTYPE svg PUBLIC "-//W3C//DTD SVG 1.1//EN" "http://www.w3.org/Graphics/SVG/1.1/DTD/svg11.dtd">
<svg version="1.1" id="Capa_1" xmlns="http://www.w3.org/2000/svg" xmlns:xlink="http://www.w3.org/1999/xlink" x="0px" y="0px"
	 width="981.5px" height="981.5px" viewBox="0 0 981.5 981.5" style="enable-background:new 0 0 981.5 981.5;" xml:space="preserve"
	>
<g>
	<path d="M60,374.1V782h231.7V374.1c0-33.1-26.9-60-60-60H120C86.9,314.1,60,340.9,60,374.1z"/>
	<path d="M434.9,165.8c-33.101,0-60,26.9-60,60V782H606.6V225.8c0-33.1-26.899-60-60-60H434.9z"/>
	<path d="M749.8,9.6c-33.1,0-60,26.9-60,60v712.3h231.7V69.6c0-33.1-26.9-60-60-60H749.8z"/>
	<path d="M921.5,851.9h-9.3H699.1H597.3H384.2H282.4H69.3H60c-33.1,0-60,26.9-60,60c0,33.101,26.9,60,60,60h861.5
		c33.1,0,60-26.899,60-60C981.5,878.8,954.6,851.9,921.5,851.9z"/>
</g>
<g>
</g>
<g>
</g>
<g>
</g>
<g>
</g>
<g>
</g>
<g>
</g>
<g>
</g>
<g>
</g>
<g>
</g>
<g>
</g>
<g>
</g>
<g>
</g>
<g>
</g>
<g>
</g>
<g>
</g>
</svg>
