<?xml version="1.0" encoding="iso-8859-1"?>
<!-- Generator: Adobe Illustrator 16.0.0, SVG Export Plug-In . SVG Version: 6.00 Build 0)  -->
<!DOCTYPE svg PUBLIC "-//W3C//DTD SVG 1.1//EN" "http://www.w3.org/Graphics/SVG/1.1/DTD/svg11.dtd">
<svg version="1.1" id="Capa_1" xmlns="http://www.w3.org/2000/svg" xmlns:xlink="http://www.w3.org/1999/xlink" x="0px" y="0px"
	 width="975.801px" height="975.801px" viewBox="0 0 975.801 975.801" style="enable-background:new 0 0 975.801 975.801;"
	 xml:space="preserve">
<g>
	<path d="M488.4,0C218.7-0.3,0,218.3,0,487.9c0,269.5,218.4,487.9,487.899,487.9c0.101,0,0.2,0,0.301,0
		c8.5,0,11.5-11.301,4.199-15.601c-18.699-11.1-36.5-23.8-52.8-38.899c-23.8-21.9-42.899-49.301-55.399-79.5
		C367.8,802.4,362.8,758.5,373.4,716.7C390.3,650.4,449,600,518.201,598.5C647.9,595.801,684,740.301,740.6,828.4
		c5.9,9.2,12.101,18.1,19,26.6c0.101,0.101,0.101,0.2,0.2,0.2c11.1,13.7,31.3,15.3,44.6,3.9c104.9-89.3,171.4-222.5,171.4-371.2
		C975.8,218.4,757.8,0.2,488.4,0z M169.8,643.601c-43.9,0-79.5-35.601-79.5-79.5c0-43.9,35.6-79.5,79.5-79.5s79.5,35.6,79.5,79.5
		C249.3,608,213.7,643.601,169.8,643.601z M260.3,351.4c-43.9,0-79.5-35.6-79.5-79.5s35.6-79.5,79.5-79.5
		c43.9,0,79.5,35.5,79.5,79.5S304.201,351.4,260.3,351.4z M561.8,262.5c-43.9,0-79.5-35.6-79.5-79.5s35.6-79.5,79.5-79.5
		s79.5,35.6,79.5,79.5S605.701,262.5,561.8,262.5z M862.3,391.9c0,43.9-35.6,79.5-79.5,79.5s-79.5-35.5-79.5-79.5
		s35.6-79.5,79.5-79.5S862.3,348,862.3,391.9z"/>
</g>
<g>
</g>
<g>
</g>
<g>
</g>
<g>
</g>
<g>
</g>
<g>
</g>
<g>
</g>
<g>
</g>
<g>
</g>
<g>
</g>
<g>
</g>
<g>
</g>
<g>
</g>
<g>
</g>
<g>
</g>
</svg>
