<?xml version="1.0" encoding="iso-8859-1"?>
<!-- Generator: Adobe Illustrator 16.0.0, SVG Export Plug-In . SVG Version: 6.00 Build 0)  -->
<!DOCTYPE svg PUBLIC "-//W3C//DTD SVG 1.1//EN" "http://www.w3.org/Graphics/SVG/1.1/DTD/svg11.dtd">
<svg version="1.1" id="Capa_1" xmlns="http://www.w3.org/2000/svg" xmlns:xlink="http://www.w3.org/1999/xlink" x="0px" y="0px"
	 width="127.3px" height="127.3px" viewBox="0 0 127.3 127.3" style="enable-background:new 0 0 127.3 127.3;" xml:space="preserve"
	>
<g>
	<path d="M72.3,65.3c4.3,0,7.7,3.5,7.5,7.8c-0.2,4.101-3.7,7.2-7.8,7.2H52.6c-2.1,0-3.8-0.6-5.1-2c-1.4-1.4-2-3.1-2-5.1V44.5
		c0-4.1,2.9-7.6,7-7.8c4.3-0.2,7.7,3.2,7.7,7.5V59c0,3.6,2.9,6.3,6.5,6.3H72.3z M125.5,48.4c-2.2-1.9-5.7-1.7-7.5,0.6l-3.3,4.1
		C109.7,26.3,86.1,5.8,57.8,5.8C25.9,5.8,0,31.8,0,63.7s25.9,57.8,57.8,57.8C77,121.5,95,112,105.7,96c2-3,1.2-7-1.7-9
		c-3-2-7-1.2-9,1.7c-8.4,12.399-22.3,19.8-37.2,19.8C33.1,108.5,13,88.399,13,63.7s20.1-44.8,44.8-44.8c21.9,0,40.101,15.8,44,36.5
		l-5-4c-2.3-1.8-5.7-1.3-7.399,1.1C87.8,54.8,88.3,58,90.5,59.7l15.7,12.4c1.1,0.9,2.7,1.3,4,1.101c1.3-0.2,2.7-0.801,3.6-1.9
		l12.4-15.7C127.9,53.5,127.6,50.2,125.5,48.4z"/>
</g>
<g>
</g>
<g>
</g>
<g>
</g>
<g>
</g>
<g>
</g>
<g>
</g>
<g>
</g>
<g>
</g>
<g>
</g>
<g>
</g>
<g>
</g>
<g>
</g>
<g>
</g>
<g>
</g>
<g>
</g>
</svg>
