<?xml version="1.0" encoding="iso-8859-1"?>
<!-- Generator: Adobe Illustrator 16.0.0, SVG Export Plug-In . SVG Version: 6.00 Build 0)  -->
<!DOCTYPE svg PUBLIC "-//W3C//DTD SVG 1.1//EN" "http://www.w3.org/Graphics/SVG/1.1/DTD/svg11.dtd">
<svg version="1.1" id="Capa_1" xmlns="http://www.w3.org/2000/svg" xmlns:xlink="http://www.w3.org/1999/xlink" x="0px" y="0px"
	 width="124px" height="124px" viewBox="0 0 124 124" style="enable-background:new 0 0 124 124;" xml:space="preserve">
<g>
	<path d="M110,117.6V34c0-5.5-2.6-10.8-6.6-14.8L89.6,5.9C85.7,1.9,80.2,0,74.6,0H21.1C17.7,0,14,2.3,14,5.7V117.6
		c0,3.4,3.7,6.4,7.1,6.4h81.8C106.3,124,110,121,110,117.6z M38.6,65.8l9.1,9.101c1.9,1.899,1.8,4.899-0.2,6.699
		c-1.8,1.7-4.7,1.5-6.5-0.199L26,66.3c-0.9-0.899-1.4-2.1-1.4-3.3s0.5-2.4,1.4-3.3l15.1-15.1c1.8-1.8,4.6-1.9,6.5-0.2
		c2,1.8,2,4.8,0.2,6.7l-9.1,9.1C37.1,61.8,37.1,64.3,38.6,65.8z M98,66.3L82.9,81.4C81.1,83.2,78.3,83.3,76.4,81.6
		c-2-1.8-2-4.8-0.2-6.699l9.1-9.101c1.5-1.5,1.5-4,0-5.6l-9.1-9.1c-1.9-1.9-1.8-4.9,0.2-6.7c1.8-1.7,4.699-1.5,6.5,0.2L98,59.8
		c0.9,0.9,1.4,2.1,1.4,3.3C99.4,64.3,98.9,65.4,98,66.3z"/>
</g>
<g>
</g>
<g>
</g>
<g>
</g>
<g>
</g>
<g>
</g>
<g>
</g>
<g>
</g>
<g>
</g>
<g>
</g>
<g>
</g>
<g>
</g>
<g>
</g>
<g>
</g>
<g>
</g>
<g>
</g>
</svg>
