<?xml version="1.0" encoding="iso-8859-1"?>
<!-- Generator: Adobe Illustrator 16.0.0, SVG Export Plug-In . SVG Version: 6.00 Build 0)  -->
<!DOCTYPE svg PUBLIC "-//W3C//DTD SVG 1.1//EN" "http://www.w3.org/Graphics/SVG/1.1/DTD/svg11.dtd">
<svg version="1.1" id="Capa_1" xmlns="http://www.w3.org/2000/svg" xmlns:xlink="http://www.w3.org/1999/xlink" x="0px" y="0px"
	 width="124.7px" height="124.7px" viewBox="0 0 124.7 124.7" style="enable-background:new 0 0 124.7 124.7;" xml:space="preserve"
	>
<g>
	<path d="M24.7,2.35h-12c-3.3,0-6,2.7-6,6v9.3h24v-9.3C30.7,5.05,28,2.35,24.7,2.35z"/>
	<path d="M6.7,116.35c0,3.3,2.7,6,6,6h12c3.3,0,6-2.7,6-6v-70.7h-24V116.35z"/>
	<path d="M6,37.65h0.7h24h0.7c3.3,0,6-2.7,6-6c0-3.3-2.7-6-6-6h-0.7h-24H6c-3.3,0-6,2.7-6,6C0,34.95,2.7,37.65,6,37.65z"/>
	<path d="M74.4,8.35c0-3.3-2.7-6-6-6h-12c-3.3,0-6,2.7-6,6v66.9h24V8.35z"/>
	<path d="M50.4,116.35c0,3.3,2.7,6,6,6h12c3.3,0,6-2.7,6-6v-13.1h-24V116.35z"/>
	<path d="M75,95.25c3.301,0,6-2.7,6-6c0-3.301-2.699-6-6-6h-0.699h-24h-0.6c-3.3,0-6,2.699-6,6c0,3.3,2.7,6,6,6h0.7h24H75z"/>
	<path d="M112,2.35h-12c-3.3,0-6,2.7-6,6v29.3h24V8.35C118,5.05,115.301,2.35,112,2.35z"/>
	<path d="M112,122.35c3.301,0,6-2.7,6-6v-50.7H94v50.7c0,3.3,2.7,6,6,6H112z"/>
	<path d="M118.7,45.65H118H94h-0.699c-3.301,0-6,2.7-6,6c0,3.3,2.699,6,6,6H94h24h0.7c3.3,0,6-2.7,6-6
		C124.7,48.35,122,45.65,118.7,45.65z"/>
</g>
<g>
</g>
<g>
</g>
<g>
</g>
<g>
</g>
<g>
</g>
<g>
</g>
<g>
</g>
<g>
</g>
<g>
</g>
<g>
</g>
<g>
</g>
<g>
</g>
<g>
</g>
<g>
</g>
<g>
</g>
</svg>
