<?xml version="1.0" encoding="iso-8859-1"?>
<!-- Generator: Adobe Illustrator 16.0.0, SVG Export Plug-In . SVG Version: 6.00 Build 0)  -->
<!DOCTYPE svg PUBLIC "-//W3C//DTD SVG 1.1//EN" "http://www.w3.org/Graphics/SVG/1.1/DTD/svg11.dtd">
<svg version="1.1" id="Capa_1" xmlns="http://www.w3.org/2000/svg" xmlns:xlink="http://www.w3.org/1999/xlink" x="0px" y="0px"
	 width="122px" height="122px" viewBox="0 0 122 122" style="enable-background:new 0 0 122 122;" xml:space="preserve">
<g>
	<path d="M122,102V20c0-11-9-20-20-20H20C9,0,0,9,0,20v82c0,11,9,20,20,20h82C113,122,122,113,122,102z M108,102c0,3.3-2.7,6-6,6H20
		c-3.3,0-6-2.7-6-6V20c0-3.3,2.7-6,6-6h82c3.3,0,6,2.7,6,6V102z"/>
	<path d="M82.2,51H71V40c0-4.7-4.1-9-8.8-9h-2.9c-4.7,0-8.3,4.3-8.3,9v11H39.3c-4.7,0-8.3,4.3-8.3,9v2.9c0,4.699,3.6,8.1,8.3,8.1H51
		v11.9c0,4.699,3.6,8.1,8.3,8.1h2.9c4.7,0,8.8-3.4,8.8-8.1V71h11.2c4.7,0,8.8-3.4,8.8-8.1V60C91,55.3,86.9,51,82.2,51z"/>
</g>
<g>
</g>
<g>
</g>
<g>
</g>
<g>
</g>
<g>
</g>
<g>
</g>
<g>
</g>
<g>
</g>
<g>
</g>
<g>
</g>
<g>
</g>
<g>
</g>
<g>
</g>
<g>
</g>
<g>
</g>
</svg>
