<?xml version="1.0" encoding="iso-8859-1"?>
<!-- Generator: Adobe Illustrator 16.0.0, SVG Export Plug-In . SVG Version: 6.00 Build 0)  -->
<!DOCTYPE svg PUBLIC "-//W3C//DTD SVG 1.1//EN" "http://www.w3.org/Graphics/SVG/1.1/DTD/svg11.dtd">
<svg version="1.1" id="Capa_1" xmlns="http://www.w3.org/2000/svg" xmlns:xlink="http://www.w3.org/1999/xlink" x="0px" y="0px"
	 width="125.8px" height="125.8px" viewBox="0 0 125.8 125.8" style="enable-background:new 0 0 125.8 125.8;" xml:space="preserve"
	>
<g>
	<path d="M27.3,89.95c15.1,0,27.3-12.301,27.3-27.3c0-15-12.2-27.3-27.3-27.3c-15,0-27.3,12.2-27.3,27.3
		C0,77.75,12.3,89.95,27.3,89.95z M42.7,62.65c0,8.5-6.9,15.3-15.3,15.3c-2,0-4-0.4-5.8-1.1l20-20C42.3,58.65,42.7,60.55,42.7,62.65
		z M27.3,47.25c2,0,4,0.4,5.8,1.1l-20,20c-0.7-1.801-1.1-3.701-1.1-5.8C12,54.15,18.9,47.25,27.3,47.25z"/>
	<path d="M80.2,45.05c1.6-1.6,3.7-2.4,5.7-2.4c2.1,0,4.199,0.8,5.699,2.4c3.2,3.2,3.2,8.3,0,11.5l-4.399,4.3H97.6
		c3.2,0,6.2-1.3,8.5-3.5c2.301-2.3,3.5-5.3,3.5-8.5v-10.3c0-4.5,3.601-8.1,8.101-8.1s8.1,3.6,8.1,8.1v10.2c0,3.8-0.8,7.5-2.2,11
		c-1.399,3.4-3.5,6.399-6.1,9s-5.6,4.601-9,6.101c-3.5,1.5-7.2,2.199-11,2.199H87.3l4.4,4.4c3.2,3.199,3.2,8.3,0,11.5
		c-3.2,3.199-8.3,3.199-11.5,0L62,74.75c-3.2-3.2-3.2-8.3,0-11.5L80.2,45.05z"/>
</g>
<g>
</g>
<g>
</g>
<g>
</g>
<g>
</g>
<g>
</g>
<g>
</g>
<g>
</g>
<g>
</g>
<g>
</g>
<g>
</g>
<g>
</g>
<g>
</g>
<g>
</g>
<g>
</g>
<g>
</g>
</svg>
