<?xml version="1.0" encoding="iso-8859-1"?>
<!-- Generator: Adobe Illustrator 16.0.0, SVG Export Plug-In . SVG Version: 6.00 Build 0)  -->
<!DOCTYPE svg PUBLIC "-//W3C//DTD SVG 1.1//EN" "http://www.w3.org/Graphics/SVG/1.1/DTD/svg11.dtd">
<svg version="1.1" id="Capa_1" xmlns="http://www.w3.org/2000/svg" xmlns:xlink="http://www.w3.org/1999/xlink" x="0px" y="0px"
	 width="125.091px" height="125.092px" viewBox="0 0 125.091 125.092" style="enable-background:new 0 0 125.091 125.092;"
	 xml:space="preserve">
<g>
	<path d="M98.064,16.396c-1.301-1.2-3-1.9-4.801-1.9h-61.5c-1.8,0-3.5,0.7-4.8,1.9l-24.8,23.6c-2.8,2.7-2.9,7.1-0.2,9.9l55.5,58.5
		c1.3,1.399,3.2,2.199,5.1,2.199c1.899,0,3.8-0.8,5.1-2.199l55.5-58.5c2.7-2.8,2.5-7.2-0.2-9.9L98.064,16.396z M106.064,47.496
		l-38.4,40.5c-1.9,2-5.2,0.6-5.2-2.1v-54.5c0-1.7,1.3-3,3-3h23.7c0.8,0,1.5,0.3,2.1,0.8l14.7,14
		C107.164,44.396,107.164,46.296,106.064,47.496z"/>
</g>
<g>
</g>
<g>
</g>
<g>
</g>
<g>
</g>
<g>
</g>
<g>
</g>
<g>
</g>
<g>
</g>
<g>
</g>
<g>
</g>
<g>
</g>
<g>
</g>
<g>
</g>
<g>
</g>
<g>
</g>
</svg>
