<?xml version="1.0" encoding="iso-8859-1"?>
<!-- Generator: Adobe Illustrator 16.0.0, SVG Export Plug-In . SVG Version: 6.00 Build 0)  -->
<!DOCTYPE svg PUBLIC "-//W3C//DTD SVG 1.1//EN" "http://www.w3.org/Graphics/SVG/1.1/DTD/svg11.dtd">
<svg version="1.1" id="Capa_1" xmlns="http://www.w3.org/2000/svg" xmlns:xlink="http://www.w3.org/1999/xlink" x="0px" y="0px"
	 width="966.801px" height="966.801px" viewBox="0 0 966.801 966.801" style="enable-background:new 0 0 966.801 966.801;"
	 xml:space="preserve">
<g>
	<path d="M483.4,966.801c38.7,0,70-31.301,70-70v-18h38.9c101.899,0,184.899-82.9,184.899-184.9v-95.701
		c0-101.898-82.899-184.899-184.899-184.899h-38.9V228h91.7c38.7,0,70-31.3,70-70c0-38.7-31.3-70-70-70h-91.7V70
		c0-38.7-31.3-70-70-70s-70,31.3-70,70v18h-38.9c-101.899,0-184.899,82.9-184.899,184.9v95.7c0,101.899,82.9,184.9,184.899,184.9
		h38.9v185.4H299.7c-38.7,0-70,31.299-70,70c0,38.699,31.3,70,70,70h113.7v18C413.4,935.4,444.7,966.801,483.4,966.801z
		 M374.5,413.4c-24.699,0-44.899-20.1-44.899-44.9v-95.7c0-24.7,20.1-44.9,44.899-44.9h38.9v185.5H374.5z M553.4,553.4h38.9
		c24.699,0,44.899,20.1,44.899,44.9V694c0,24.699-20.1,44.9-44.899,44.9h-38.9V553.4z"/>
</g>
<g>
</g>
<g>
</g>
<g>
</g>
<g>
</g>
<g>
</g>
<g>
</g>
<g>
</g>
<g>
</g>
<g>
</g>
<g>
</g>
<g>
</g>
<g>
</g>
<g>
</g>
<g>
</g>
<g>
</g>
</svg>
