<?xml version="1.0" encoding="iso-8859-1"?>
<!-- Generator: Adobe Illustrator 16.0.0, SVG Export Plug-In . SVG Version: 6.00 Build 0)  -->
<!DOCTYPE svg PUBLIC "-//W3C//DTD SVG 1.1//EN" "http://www.w3.org/Graphics/SVG/1.1/DTD/svg11.dtd">
<svg version="1.1" id="Capa_1" xmlns="http://www.w3.org/2000/svg" xmlns:xlink="http://www.w3.org/1999/xlink" x="0px" y="0px"
	 width="964.2px" height="964.2px" viewBox="0 0 964.2 964.2" style="enable-background:new 0 0 964.2 964.2;" xml:space="preserve"
	>
<g>
	<path d="M100,531.2c55.2,0,100-44.801,100-100v-89.8l422.801,422.8H533c-55.2,0-100,44.8-100,100c0,55.199,44.801,100,100,100
		H864.2c24.701,0,48.5-9.4,66.9-25.7c4.9-4.3,9.301-9.2,13.201-14.4l0,0C957.1,907,964.1,886,964.2,864.6c0-0.1,0-0.2,0-0.3v-324.4
		c0-55.199-44.799-100-100-100c-55.199,0-100,44.801-100,100v82.9L341.4,200h82.8c55.2,0,100-44.8,100-100
		c0-55.2-44.799-100-100-100H100c-0.1,0-0.1,0-0.2,0C86.3,0.1,72.7,2.8,60.2,8.2C47.5,13.8,36,21.9,26.5,32.1
		c-2.7,2.9-5.1,5.9-7.4,9c-2.6,3.6-5,7.3-7.1,11.2c0,0,0,0,0,0.1C6.2,62.9,2.4,74.6,0.9,86.6C0.3,91,0,95.3,0,99.7
		c0,0.1,0,0.2,0,0.3v331.2C0,486.399,44.8,531.2,100,531.2z"/>
</g>
<g>
</g>
<g>
</g>
<g>
</g>
<g>
</g>
<g>
</g>
<g>
</g>
<g>
</g>
<g>
</g>
<g>
</g>
<g>
</g>
<g>
</g>
<g>
</g>
<g>
</g>
<g>
</g>
<g>
</g>
</svg>
