<?xml version="1.0" encoding="iso-8859-1"?>
<!-- Generator: Adobe Illustrator 16.0.0, SVG Export Plug-In . SVG Version: 6.00 Build 0)  -->
<!DOCTYPE svg PUBLIC "-//W3C//DTD SVG 1.1//EN" "http://www.w3.org/Graphics/SVG/1.1/DTD/svg11.dtd">
<svg version="1.1" id="Capa_1" xmlns="http://www.w3.org/2000/svg" xmlns:xlink="http://www.w3.org/1999/xlink" x="0px" y="0px"
	 width="121.806px" height="121.806px" viewBox="0 0 121.806 121.806" style="enable-background:new 0 0 121.806 121.806;"
	 xml:space="preserve">
<g>
	<circle cx="99.306" cy="98.983" r="22.5"/>
	<path d="M80.206,13.883v55.4c0,6.5-4.9,11.399-11.4,11.399h-55.3c-6.5,0-11.7-5-11.7-11.399c0-6.3,5.7-11.3,11.8-11.3h27
		c0,0-37.2-37.1-37.2-37.2c-2.3-2.3-3.5-5.4-3.4-8.6c0.2-7.6,8.1-13.6,15.5-11.4c1.9,0.5,3.6,1.6,5,2.9l37.2,37.2v-27
		c0-6.1,5-11.8,11.3-11.8S80.206,7.383,80.206,13.883z"/>
</g>
<g>
</g>
<g>
</g>
<g>
</g>
<g>
</g>
<g>
</g>
<g>
</g>
<g>
</g>
<g>
</g>
<g>
</g>
<g>
</g>
<g>
</g>
<g>
</g>
<g>
</g>
<g>
</g>
<g>
</g>
</svg>
