<?xml version="1.0" encoding="iso-8859-1"?>
<!-- Generator: Adobe Illustrator 16.0.0, SVG Export Plug-In . SVG Version: 6.00 Build 0)  -->
<!DOCTYPE svg PUBLIC "-//W3C//DTD SVG 1.1//EN" "http://www.w3.org/Graphics/SVG/1.1/DTD/svg11.dtd">
<svg version="1.1" id="Capa_1" xmlns="http://www.w3.org/2000/svg" xmlns:xlink="http://www.w3.org/1999/xlink" x="0px" y="0px"
	 width="125.046px" height="125.045px" viewBox="0 0 125.046 125.045" style="enable-background:new 0 0 125.046 125.045;"
	 xml:space="preserve">
<g>
	<path d="M24.846,92.219c-0.1-0.7-0.1-1.4-0.1-2.1c0-5.301,2.1-10.301,5.8-14.101c3.8-3.8,8.5-5.8,13.8-5.8c0.4,0,1,0,1,0v-7.1
		c0-11,9-19.9,20-19.9c11,0,20,8.9,20,19.9v7.1c1-0.1,1.7-0.1,2.4-0.1c5.3,0,10.5,2.1,14.2,5.799c3.8,3.801,6,8.801,6,14.101
		c0,1.101-0.101,2.101-0.3,3.101c5.6-0.9,17.399-5.101,17.399-23.301c0-9.7-6-18.2-14.399-21.7c-0.2-24.3-20-43.9-44.301-43.9
		c-16.6,0-31,9.1-38.6,22.6c-16.3,2.8-28.6,17.7-27.7,35C0.846,76.519,11.246,88.418,24.846,92.219z"/>
	<path d="M65.446,54.319c-4.9,0-9,4-9,8.9v27.199l-7-6.6c-1.7-1.699-3.5-2.6-5.9-2.6s-4.5,0.9-6.2,2.6c-1.7,1.7-2.6,3.9-2.6,6.301
		c0,0.699,0.1,1.399,0.2,2c0.4,1.6,1.2,3.1,2.4,4.299c22,22,22,22,22,22c1.8,1.701,4.2,2.5,6.7,2.4c2.2-0.199,4.3-1.199,6-2.9
		c0.2-0.199,21.5-21.5,21.5-21.5c1.2-1.199,2-2.6,2.3-4.199c0.2-0.7,0.301-1.4,0.301-2.1c0-2.4-1-4.601-2.601-6.301
		c-1.7-1.699-4-2.6-6.3-2.6c-2.4,0-5,0.9-6.6,2.6l-6.2,6.6V63.219C74.446,58.319,70.346,54.319,65.446,54.319z"/>
</g>
<g>
</g>
<g>
</g>
<g>
</g>
<g>
</g>
<g>
</g>
<g>
</g>
<g>
</g>
<g>
</g>
<g>
</g>
<g>
</g>
<g>
</g>
<g>
</g>
<g>
</g>
<g>
</g>
<g>
</g>
</svg>
