<?xml version="1.0" encoding="iso-8859-1"?>
<!-- Generator: Adobe Illustrator 16.0.0, SVG Export Plug-In . SVG Version: 6.00 Build 0)  -->
<!DOCTYPE svg PUBLIC "-//W3C//DTD SVG 1.1//EN" "http://www.w3.org/Graphics/SVG/1.1/DTD/svg11.dtd">
<svg version="1.1" id="Capa_1" xmlns="http://www.w3.org/2000/svg" xmlns:xlink="http://www.w3.org/1999/xlink" x="0px" y="0px"
	 width="967.304px" height="967.304px" viewBox="0 0 967.304 967.304" style="enable-background:new 0 0 967.304 967.304;"
	 xml:space="preserve">
<g>
	<path d="M129.252,327.204h466.8c-29.101-75.4-93.601-133.1-173.2-152.8l7.3-96.1c1.3-17.4-12.4-32.3-29.9-32.3h-76
		c-17.6,0-31.399,15-29.899,32.5l8,95.9C222.852,194.104,158.352,251.804,129.252,327.204z"/>
	<path d="M130.552,507.204h-18l0,0v400.1c0,33.101,26.9,60,60,60h380.2c33.101,0,60-26.899,60-60v-400.1h-18.3H130.552z"/>
	<path d="M657.751,417.204c0-24.9-20.1-45-45-45h-4.1h-492h-4c-24.9,0-45,20.1-45,45c0,24.899,20.1,45,45,45h1.9h2.3h491.8h2.3h1.9
		C637.552,462.204,657.751,442.004,657.751,417.204z"/>
	<path d="M899.652,203.404v-85.4v-88c0-19.7-18.6-34-37.6-29l-335.2,87.6c-30,7.8-29.8,50.4,0.2,58.1l335.199,85.7
		C881.152,237.304,899.652,222.904,899.652,203.404z"/>
</g>
<g>
</g>
<g>
</g>
<g>
</g>
<g>
</g>
<g>
</g>
<g>
</g>
<g>
</g>
<g>
</g>
<g>
</g>
<g>
</g>
<g>
</g>
<g>
</g>
<g>
</g>
<g>
</g>
<g>
</g>
</svg>
