<?xml version="1.0" encoding="iso-8859-1"?>
<!-- Generator: Adobe Illustrator 16.0.0, SVG Export Plug-In . SVG Version: 6.00 Build 0)  -->
<!DOCTYPE svg PUBLIC "-//W3C//DTD SVG 1.1//EN" "http://www.w3.org/Graphics/SVG/1.1/DTD/svg11.dtd">
<svg version="1.1" id="Capa_1" xmlns="http://www.w3.org/2000/svg" xmlns:xlink="http://www.w3.org/1999/xlink" x="0px" y="0px"
	 width="966.64px" height="966.64px" viewBox="0 0 966.64 966.64" style="enable-background:new 0 0 966.64 966.64;"
	 xml:space="preserve">
<g>
	<path d="M927.7,303.17H376.3c-24.8,0-39.6-13.7-39.6-36.6c0-21.7,15.4-35.2,40.1-35.2c0,0,143.7,0,145,0c52.301,0,52.2-92.9,0-92.9
		H300.3c-28.6,0-54.399,11.3-76.7,33.5L70,339.771l-0.1,0.1c-0.9,0.9-1.9,1.4-2.8,1.8l-37.1,0.4c-16.5,0-30,13.5-30,30v394.8
		c0,16.5,13.5,30,30,30h32.2l1.5,1.699c22.1,25.801,65.4,29.6,89.2,29.6c0,0,474.3,0,474.8,0c25.3,0,38.2-22.799,38.5-45.799
		c0.3-23.4-12.4-47.1-38.5-47.1h-47.5c-12.8,0-22.1-8.602-22.1-20.4c0-11.801,9.3-20.4,22.1-20.4c0,0,86.1,0,86.6,0
		c51.9,0,52-103.199,0-103.199h-86.699c-12.801,0-22.101-8.602-22.101-20.4c0-11.801,9.3-20.4,22.101-20.4c0,0,111.6,0,112.3,0
		c52.6,0,50.7-103.2,0-103.2H580.2c-12.8,0-22.1-8.601-22.1-20.4s9.3-20.399,22.1-20.399c0,0,347.5,0,347.6,0
		C980.3,406.271,978.9,303.17,927.7,303.17z"/>
</g>
<g>
</g>
<g>
</g>
<g>
</g>
<g>
</g>
<g>
</g>
<g>
</g>
<g>
</g>
<g>
</g>
<g>
</g>
<g>
</g>
<g>
</g>
<g>
</g>
<g>
</g>
<g>
</g>
<g>
</g>
</svg>
