<?xml version="1.0" encoding="iso-8859-1"?>
<!-- Generator: Adobe Illustrator 16.0.0, SVG Export Plug-In . SVG Version: 6.00 Build 0)  -->
<!DOCTYPE svg PUBLIC "-//W3C//DTD SVG 1.1//EN" "http://www.w3.org/Graphics/SVG/1.1/DTD/svg11.dtd">
<svg version="1.1" id="Capa_1" xmlns="http://www.w3.org/2000/svg" xmlns:xlink="http://www.w3.org/1999/xlink" x="0px" y="0px"
	 width="985px" height="985px" viewBox="0 0 985 985" style="enable-background:new 0 0 985 985;" xml:space="preserve">
<g>
	<path d="M915,61.5H70c-38.7,0-70,31.3-70,70s31.3,70,70,70h845c38.7,0,70-31.3,70-70S953.6,61.5,915,61.5z"/>
	<path d="M915,302.2H70c-38.7,0-70,31.3-70,70s31.3,70,70,70h845c38.7,0,70-31.3,70-70S953.6,302.2,915,302.2z"/>
	<path d="M915,542.8H70c-38.7,0-70,31.3-70,70s31.3,70,70,70h845c38.7,0,70-31.3,70-70S953.6,542.8,915,542.8z"/>
	<path d="M915,783.5H70c-38.7,0-70,31.3-70,70s31.3,70,70,70h845c38.7,0,70-31.3,70-70S953.6,783.5,915,783.5z"/>
</g>
<g>
</g>
<g>
</g>
<g>
</g>
<g>
</g>
<g>
</g>
<g>
</g>
<g>
</g>
<g>
</g>
<g>
</g>
<g>
</g>
<g>
</g>
<g>
</g>
<g>
</g>
<g>
</g>
<g>
</g>
</svg>
