<?xml version="1.0" encoding="iso-8859-1"?>
<!-- Generator: Adobe Illustrator 16.0.0, SVG Export Plug-In . SVG Version: 6.00 Build 0)  -->
<!DOCTYPE svg PUBLIC "-//W3C//DTD SVG 1.1//EN" "http://www.w3.org/Graphics/SVG/1.1/DTD/svg11.dtd">
<svg version="1.1" id="Capa_1" xmlns="http://www.w3.org/2000/svg" xmlns:xlink="http://www.w3.org/1999/xlink" x="0px" y="0px"
	 width="999px" height="999px" viewBox="0 0 999 999" style="enable-background:new 0 0 999 999;" xml:space="preserve">
<g>
	<path d="M152.6,105.25H30c-16.6,0-30,13.4-30,30v238.5c0,16.6,13.4,30,30,30h122.6c16.6,0,30-13.4,30-30v-238.5
		C182.6,118.75,169.2,105.25,152.6,105.25z"/>
	<path d="M218,272.85c0,8.3,6.7,15,15,15h167c8.3,0,15-6.7,15-15v-37.8c0-8.3-6.7-15-15-15H233c-8.3,0-15,6.7-15,15V272.85z"/>
	<path d="M218,391.05c0,8.3,6.7,15,15,15h105.5c8.3,0,15-6.7,15-15v-37.8c0-8.3-6.7-15-15-15H233c-8.3,0-15,6.7-15,15V391.05z"/>
	<path d="M341.5,825.35H236.1c-8.3,0-15,6.7-15,15v37.801c0,8.3,6.7,15,15,15h105.5c8.301,0,15-6.7,15-15V840.35
		C356.5,832.05,349.8,825.35,341.5,825.35z"/>
	<path d="M233,173.15h212.1c8.301,0,15-6.7,15-15v-37.8c0-8.3-6.699-15-15-15H233c-8.3,0-15,6.7-15,15v37.8
		C218,166.35,224.7,173.15,233,173.15z"/>
	<path d="M690.4,105.25H567.8c-16.6,0-30,13.4-30,30v239.5c0,16.6,13.4,30,30,30H690.4c16.6,0,30-13.4,30-30v-239.5
		C720.4,118.75,707,105.25,690.4,105.25z"/>
	<path d="M952.8,272.85v-37.8c0-8.3-6.7-15-15-15h-167c-8.3,0-15,6.7-15,15v37.8c0,8.3,6.7,15,15,15h167
		C946.1,287.85,952.8,281.15,952.8,272.85z"/>
	<path d="M770.9,338.75c-8.301,0-15,6.7-15,15v37.8c0,8.3,6.699,15,15,15h105.5c8.3,0,15-6.7,15-15v-37.8c0-8.3-6.7-15-15-15H770.9z
		"/>
	<path d="M876.3,825.35H770.9c-8.301,0-15,6.7-15,15v37.801c0,8.3,6.699,15,15,15h105.5c8.3,0,15-6.7,15-15V840.35
		C891.3,832.05,884.6,825.35,876.3,825.35z"/>
	<path d="M984,105.25H771.9c-8.301,0-15,6.7-15,15v37.8c0,8.3,6.699,15,15,15H984c8.3,0,15-6.7,15-15v-37.8
		C999,112.05,992.3,105.25,984,105.25z"/>
	<path d="M152.6,591.85H30c-16.6,0-30,13.4-30,30V861.45c0,16.6,13.4,30,30,30h122.6c16.6,0,30-13.4,30-30V621.85
		C182.6,605.25,169.2,591.85,152.6,591.85z"/>
	<path d="M403.1,706.55h-167c-8.3,0-15,6.7-15,15v37.8c0,8.301,6.7,15,15,15h167c8.301,0,15-6.699,15-15v-37.8
		C418.1,713.25,411.3,706.55,403.1,706.55z"/>
	<path d="M448.2,591.85H236.1c-8.3,0-15,6.7-15,15v37.801c0,8.3,6.7,15,15,15h212.1c8.3,0,15-6.7,15-15V606.85
		C463.2,598.55,456.5,591.85,448.2,591.85z"/>
	<path d="M690.4,591.85H567.8c-16.6,0-30,13.4-30,30v241.9c0,16.6,13.4,30,30,30H690.4c16.6,0,30-13.4,30-30v-241.9
		C720.4,605.25,707,591.85,690.4,591.85z"/>
	<path d="M937.8,706.55h-167c-8.3,0-15,6.7-15,15v37.8c0,8.301,6.7,15,15,15h167c8.3,0,15-6.699,15-15v-37.8
		C952.8,713.25,946.1,706.55,937.8,706.55z"/>
	<path d="M983,591.85H770.9c-8.301,0-15,6.7-15,15v37.801c0,8.3,6.699,15,15,15H983c8.3,0,15-6.7,15-15V606.85
		C998,598.55,991.3,591.85,983,591.85z"/>
</g>
<g>
</g>
<g>
</g>
<g>
</g>
<g>
</g>
<g>
</g>
<g>
</g>
<g>
</g>
<g>
</g>
<g>
</g>
<g>
</g>
<g>
</g>
<g>
</g>
<g>
</g>
<g>
</g>
<g>
</g>
</svg>
