<?xml version="1.0" encoding="iso-8859-1"?>
<!-- Generator: Adobe Illustrator 16.0.0, SVG Export Plug-In . SVG Version: 6.00 Build 0)  -->
<!DOCTYPE svg PUBLIC "-//W3C//DTD SVG 1.1//EN" "http://www.w3.org/Graphics/SVG/1.1/DTD/svg11.dtd">
<svg version="1.1" id="Capa_1" xmlns="http://www.w3.org/2000/svg" xmlns:xlink="http://www.w3.org/1999/xlink" x="0px" y="0px"
	 width="965.068px" height="965.069px" viewBox="0 0 965.068 965.069" style="enable-background:new 0 0 965.068 965.069;"
	 xml:space="preserve">
<g>
	<path d="M881.134,927.367v-40.6l2.2-1.9c32.5-27.8,37.4-82.399,37.4-112.5c0,0,0-599.8,0-600.4c0-31.9-28.8-48.2-57.8-48.5
		c-29.601-0.4-59.4,15.7-59.4,48.5v61.4c0,16.2-10.8,27.9-25.8,27.9c-14.9,0-25.8-11.7-25.8-27.9c0,0,0-146.5,0-147.1
		c0-65.4-130.2-65.6-130.2,0v147.2c0,16.2-10.8,27.9-25.8,27.9c-14.9,0-25.801-11.7-25.801-27.9c0,0,0-183.6,0-184.6
		c0-66.4-130.1-63.9-130.1,0v184.6c0,16.2-10.8,27.9-25.8,27.9c-14.9,0-25.8-11.7-25.8-27.9v-113.1c0-66.3-130.2-64.6-130.2,0v370.3
		c0,25.101-19.9,42-42.7,47.801c-8.8,2.199-17.3-4.601-17.3-13.601c-0.1-13.7-0.1-31.6-0.1-33.399c0,0,0-95.2,0-96.801
		c0-66-109.2-83-124.8,0l-29,191.7c0,36.101,14.2,68.7,42.2,96.7l218,193.8l0.1,0.101c1.1,1.1,1.7,2.399,2.2,3.5l0.5,46.8
		c0,20.899,17,37.8,37.8,37.8h498C864.234,965.267,881.134,948.267,881.134,927.367z"/>
</g>
<g>
</g>
<g>
</g>
<g>
</g>
<g>
</g>
<g>
</g>
<g>
</g>
<g>
</g>
<g>
</g>
<g>
</g>
<g>
</g>
<g>
</g>
<g>
</g>
<g>
</g>
<g>
</g>
<g>
</g>
</svg>
