<?xml version="1.0" encoding="iso-8859-1"?>
<!-- Generator: Adobe Illustrator 16.0.0, SVG Export Plug-In . SVG Version: 6.00 Build 0)  -->
<!DOCTYPE svg PUBLIC "-//W3C//DTD SVG 1.1//EN" "http://www.w3.org/Graphics/SVG/1.1/DTD/svg11.dtd">
<svg version="1.1" id="Capa_1" xmlns="http://www.w3.org/2000/svg" xmlns:xlink="http://www.w3.org/1999/xlink" x="0px" y="0px"
	 width="964px" height="964px" viewBox="0 0 964 964" style="enable-background:new 0 0 964 964;" xml:space="preserve">
<g>
	<path d="M0,482c0,266.2,215.8,482,482,482s482-215.8,482-482S748.2,0,482,0S0,215.8,0,482z M647.8,245c43.3,0,78.5,35.1,78.5,78.5
		c0,43.3-35.1,78.5-78.5,78.5c-43.399,0-78.5-35.1-78.5-78.5S604.4,245,647.8,245z M316.2,245c43.3,0,78.5,35.1,78.5,78.5
		c0,43.3-35.101,78.5-78.5,78.5c-43.4,0-78.5-35.1-78.5-78.5S272.9,245,316.2,245z M226.8,512.6c27.3-4.399,52.9,14.101,57.4,41.4
		c7.5,46.4,31.399,89,67.399,119.8C387.9,705,434.2,722.1,482.1,722.1c47.801,0,94.2-17.1,130.4-48.199
		c35.9-30.801,59.8-73.2,67.4-119.601C684.4,527,710.1,508.6,737.3,513c27.3,4.5,45.7,30.2,41.3,57.4
		C767.2,640,731.3,703.6,677.6,749.7C623.2,796.3,553.8,822,482.1,822c-71.8,0-141.3-25.7-195.7-72.4
		c-53.8-46.199-89.6-110-100.9-179.699C181,542.7,199.5,517,226.8,512.6z"/>
</g>
<g>
</g>
<g>
</g>
<g>
</g>
<g>
</g>
<g>
</g>
<g>
</g>
<g>
</g>
<g>
</g>
<g>
</g>
<g>
</g>
<g>
</g>
<g>
</g>
<g>
</g>
<g>
</g>
<g>
</g>
</svg>
