<?xml version="1.0" encoding="iso-8859-1"?>
<!-- Generator: Adobe Illustrator 16.0.0, SVG Export Plug-In . SVG Version: 6.00 Build 0)  -->
<!DOCTYPE svg PUBLIC "-//W3C//DTD SVG 1.1//EN" "http://www.w3.org/Graphics/SVG/1.1/DTD/svg11.dtd">
<svg version="1.1" id="Capa_1" xmlns="http://www.w3.org/2000/svg" xmlns:xlink="http://www.w3.org/1999/xlink" x="0px" y="0px"
	 width="118.2px" height="118.2px" viewBox="0 0 118.2 118.2" style="enable-background:new 0 0 118.2 118.2;" xml:space="preserve"
	>
<g>
	<path d="M101.6,84.1v-49c0-2.8-2.199-5-5-5h-75c-2.8,0-5,2.2-5,5v49c0,2.801,2.2,5,5,5h75C99.4,89.1,101.6,86.9,101.6,84.1z
		 M87.6,72.6c0,1.4-1.1,2.5-2.5,2.5h-52c-1.4,0-2.5-1.1-2.5-2.5v-26c0-1.4,1.1-2.5,2.5-2.5h52c1.4,0,2.5,1.1,2.5,2.5V72.6z"/>
	<path d="M118.2,18.5c0-2.8-2.2-5-5-5H91c-2.8,0-5,2.2-5,5c0,2.8,2.2,5,5,5h14.6c1.4,0,2.5,1.1,2.5,2.5v14.6c0,2.8,2.201,5,5,5
		c2.801,0,5-2.2,5-5V18.5H118.2z"/>
	<path d="M91,104.7h22.1c2.801,0,5-2.2,5-5V77.5c0-2.8-2.199-5-5-5c-2.799,0-5,2.2-5,5v14.6c0,1.4-1.1,2.5-2.5,2.5H91
		c-2.8,0-5,2.201-5,5C86,102.4,88.301,104.7,91,104.7z"/>
	<path d="M0,40.7c0,2.8,2.2,5,5,5c2.8,0,5-2.2,5-5V26c0-1.4,1.1-2.5,2.5-2.5h14.6c2.8,0,5-2.2,5-5c0-2.8-2.2-5-5-5H5
		c-2.8,0-5,2.2-5,5V40.7z"/>
	<path d="M0,99.7c0,2.8,2.2,5,5,5h22.1c2.8,0,5-2.2,5-5s-2.2-5-5-5H12.5c-1.4,0-2.5-1.101-2.5-2.5V77.5c0-2.8-2.2-5-5-5
		c-2.8,0-5,2.2-5,5V99.7z"/>
</g>
<g>
</g>
<g>
</g>
<g>
</g>
<g>
</g>
<g>
</g>
<g>
</g>
<g>
</g>
<g>
</g>
<g>
</g>
<g>
</g>
<g>
</g>
<g>
</g>
<g>
</g>
<g>
</g>
<g>
</g>
</svg>
