<?xml version="1.0" encoding="iso-8859-1"?>
<!-- Generator: Adobe Illustrator 16.0.0, SVG Export Plug-In . SVG Version: 6.00 Build 0)  -->
<!DOCTYPE svg PUBLIC "-//W3C//DTD SVG 1.1//EN" "http://www.w3.org/Graphics/SVG/1.1/DTD/svg11.dtd">
<svg version="1.1" id="Capa_1" xmlns="http://www.w3.org/2000/svg" xmlns:xlink="http://www.w3.org/1999/xlink" x="0px" y="0px"
	 width="124.1px" height="124.1px" viewBox="0 0 124.1 124.1" style="enable-background:new 0 0 124.1 124.1;" xml:space="preserve"
	>
<g>
	<path d="M14.05,101.1c0,12.7,10.3,23,23,23s23-10.3,23-23c0-6.5-2.7-12.3-6.9-16.5c12.6-0.199,24.6-1.699,32.5-9.6
		c5.101-5,7.801-12.2,7.9-20.9c9.5-2.8,16.5-11.6,16.5-22.1c0-12.7-10.3-23-23-23s-23,10.3-23,23c0,10.4,7,19.2,16.5,22.1
		c-0.1,5.5-1.6,9.1-4.2,11.6c-6.1,6-19.6,6-32.8,5.801V45.1c9.5-2.8,16.5-11.6,16.5-22.1c0-12.7-10.3-23-23-23s-23,10.3-23,23
		c0,10.4,7,19.3,16.5,22.1V79C21.05,81.8,14.05,90.6,14.05,101.1z M78.05,32.1c0-5,4-9,9-9s9,4,9,9s-4,9-9,9S78.05,37,78.05,32.1z
		 M28.05,23.1c0-5,4-9,9-9s9,4,9,9s-4,9-9,9S28.05,28,28.05,23.1z M37.05,92.1c5,0,9,4,9,9s-4,9-9,9s-9-4-9-9S32.05,92.1,37.05,92.1
		z"/>
</g>
<g>
</g>
<g>
</g>
<g>
</g>
<g>
</g>
<g>
</g>
<g>
</g>
<g>
</g>
<g>
</g>
<g>
</g>
<g>
</g>
<g>
</g>
<g>
</g>
<g>
</g>
<g>
</g>
<g>
</g>
</svg>
