<?xml version="1.0" encoding="iso-8859-1"?>
<!-- Generator: Adobe Illustrator 16.0.0, SVG Export Plug-In . SVG Version: 6.00 Build 0)  -->
<!DOCTYPE svg PUBLIC "-//W3C//DTD SVG 1.1//EN" "http://www.w3.org/Graphics/SVG/1.1/DTD/svg11.dtd">
<svg version="1.1" id="Capa_1" xmlns="http://www.w3.org/2000/svg" xmlns:xlink="http://www.w3.org/1999/xlink" x="0px" y="0px"
	 width="956.199px" height="956.199px" viewBox="0 0 956.199 956.199" style="enable-background:new 0 0 956.199 956.199;"
	 xml:space="preserve">
<g>
	<path d="M152.2,773.5c17.6,17.6,40.6,26.4,63.6,26.4s46.1-8.801,63.6-26.4l234.2-234.199C530.5,522.4,540,499.5,540,475.7
		c0-23.899-9.5-46.8-26.4-63.6L284.4,182.7c-35.1-35.1-92.1-35.1-127.3,0c-35.1,35.1-35.1,92.1,0,127.3l165.6,165.6L152.2,646.199
		C117,681.4,117,738.301,152.2,773.5z"/>
	<path d="M740.399,956.199c49.7,0,90-40.299,90-90V90c0-49.7-40.3-90-90-90s-90,40.3-90,90v776.199
		C650.399,915.9,690.699,956.199,740.399,956.199z"/>
</g>
<g>
</g>
<g>
</g>
<g>
</g>
<g>
</g>
<g>
</g>
<g>
</g>
<g>
</g>
<g>
</g>
<g>
</g>
<g>
</g>
<g>
</g>
<g>
</g>
<g>
</g>
<g>
</g>
<g>
</g>
</svg>
