<?xml version="1.0" encoding="iso-8859-1"?>
<!-- Generator: Adobe Illustrator 16.0.0, SVG Export Plug-In . SVG Version: 6.00 Build 0)  -->
<!DOCTYPE svg PUBLIC "-//W3C//DTD SVG 1.1//EN" "http://www.w3.org/Graphics/SVG/1.1/DTD/svg11.dtd">
<svg version="1.1" id="Capa_1" xmlns="http://www.w3.org/2000/svg" xmlns:xlink="http://www.w3.org/1999/xlink" x="0px" y="0px"
	 width="115px" height="115px" viewBox="0 0 115 115" style="enable-background:new 0 0 115 115;" xml:space="preserve">
<g>
	<path d="M23.2,75.6c-0.3-1.5-1.5-2.6-3-2.6H15c-1.7,0-3-1.3-3-3V45c0-1.7,1.3-3,3-3h52c1.7,0,3,1.3,3,3v16c0,1.7,1.3,3,3,3h6
		c1.7,0,3-1.3,3-3V41.7C82,35.2,76.8,30,70.3,30H11.9C5.3,30,0,35.3,0,41.9v30.8C0,79.5,5.5,85,12.3,85H23h1.8
		c1.8,0,2.7-2.1,1.4-3.4C24.9,80.2,23.7,78.2,23.2,75.6z"/>
	<path d="M102.7,30H92h-1.8c-1.8,0-2.7,2.1-1.4,3.4c1.4,1.4,2.5,3.4,3,6c0.3,1.5,1.5,2.6,3,2.6h5.2c1.7,0,3,1.3,3,3v25
		c0,1.7-1.3,3-3,3H48c-1.7,0-3-1.3-3-3V54c0-1.7-1.3-3-3-3h-6c-1.7,0-3,1.3-3,3v19.3C33,79.8,38.2,85,44.7,85H103.1
		c6.601,0,11.9-5.3,11.9-11.9V42.3C115,35.5,109.5,30,102.7,30z"/>
</g>
<g>
</g>
<g>
</g>
<g>
</g>
<g>
</g>
<g>
</g>
<g>
</g>
<g>
</g>
<g>
</g>
<g>
</g>
<g>
</g>
<g>
</g>
<g>
</g>
<g>
</g>
<g>
</g>
<g>
</g>
</svg>
