<?xml version="1.0" encoding="iso-8859-1"?>
<!-- Generator: Adobe Illustrator 16.0.0, SVG Export Plug-In . SVG Version: 6.00 Build 0)  -->
<!DOCTYPE svg PUBLIC "-//W3C//DTD SVG 1.1//EN" "http://www.w3.org/Graphics/SVG/1.1/DTD/svg11.dtd">
<svg version="1.1" id="Capa_1" xmlns="http://www.w3.org/2000/svg" xmlns:xlink="http://www.w3.org/1999/xlink" x="0px" y="0px"
	 width="120px" height="120px" viewBox="0 0 120 120" style="enable-background:new 0 0 120 120;" xml:space="preserve">
<g>
	<path d="M102.048,42V21.3c0-11.5-9.6-21.3-21.2-21.3h-41.6c-11.6,0-21.2,9.8-21.2,21.3V42h14V21.3c0-3.9,3.3-7.3,7.2-7.3h41.7
		c3.899,0,7.199,3.5,7.199,7.3V42H102.048z"/>
	<path d="M109.848,52h-7.8h-14h-56h-14h-7.8c-3.3,0-6.2,2.4-6.2,5.7v56.7c0,3.3,2.9,5.6,6.2,5.6h99.5c3.3,0,6.2-2.3,6.2-5.6V57.7
		C116.048,54.4,113.148,52,109.848,52z"/>
</g>
<g>
</g>
<g>
</g>
<g>
</g>
<g>
</g>
<g>
</g>
<g>
</g>
<g>
</g>
<g>
</g>
<g>
</g>
<g>
</g>
<g>
</g>
<g>
</g>
<g>
</g>
<g>
</g>
<g>
</g>
</svg>
