<?xml version="1.0" encoding="iso-8859-1"?>
<!-- Generator: Adobe Illustrator 16.0.0, SVG Export Plug-In . SVG Version: 6.00 Build 0)  -->
<!DOCTYPE svg PUBLIC "-//W3C//DTD SVG 1.1//EN" "http://www.w3.org/Graphics/SVG/1.1/DTD/svg11.dtd">
<svg version="1.1" id="Capa_1" xmlns="http://www.w3.org/2000/svg" xmlns:xlink="http://www.w3.org/1999/xlink" x="0px" y="0px"
	 width="975.1px" height="975.1px" viewBox="0 0 975.1 975.1" style="enable-background:new 0 0 975.1 975.1;" xml:space="preserve"
	>
<g>
	<path d="M216.3,178.4c7.8,21.8,28.6,36.5,51.8,36.5h440.8c22.8,0,43.5-14.3,51.5-35.7L827.6,0H152.5L216.3,178.4z"/>
	<path d="M780.199,262.6c-21,14.6-45.6,22.3-71.199,22.3H525.8v516h186.7c42.3,0,81.399,21.1,104.6,56.5l43.2,66V112.3L826,203.8
		C817.1,227.7,801.199,248.1,780.199,262.6z"/>
	<path d="M758.5,895.801c-10.2-15.602-27.4-24.9-46-24.9H264.7c-19.1,0-36.5,9.6-46.6,25.799L169,975.1h641.4L758.5,895.801z"/>
	<path d="M114.8,102.3v827.501l44-70.201c23-36.699,62.6-58.6,105.9-58.6h191.1V284.9H268.1c-52.7,0-100-33.3-117.7-82.9
		L114.8,102.3z"/>
</g>
<g>
</g>
<g>
</g>
<g>
</g>
<g>
</g>
<g>
</g>
<g>
</g>
<g>
</g>
<g>
</g>
<g>
</g>
<g>
</g>
<g>
</g>
<g>
</g>
<g>
</g>
<g>
</g>
<g>
</g>
</svg>
