<?xml version="1.0" encoding="iso-8859-1"?>
<!-- Generator: Adobe Illustrator 16.0.0, SVG Export Plug-In . SVG Version: 6.00 Build 0)  -->
<!DOCTYPE svg PUBLIC "-//W3C//DTD SVG 1.1//EN" "http://www.w3.org/Graphics/SVG/1.1/DTD/svg11.dtd">
<svg version="1.1" id="Capa_1" xmlns="http://www.w3.org/2000/svg" xmlns:xlink="http://www.w3.org/1999/xlink" x="0px" y="0px"
	 width="971.8px" height="971.8px" viewBox="0 0 971.8 971.8" style="enable-background:new 0 0 971.8 971.8;" xml:space="preserve"
	>
<g>
	<path d="M899.6,911.8V833.9H73.2V911.8c0,33.101,26.9,60,60,60h706.4C872.8,971.8,899.6,945,899.6,911.8z"/>
	<path d="M360.2,473.8H126.4c-57.4,0-104,46.601-104,104V733.9c0,16.6,13.4,30,30,30h867c16.6,0,30-13.4,30-30V577.8
		c0-57.399-46.6-104-104-104H612.6c-24.8,0-33.3-21-28.601-42.6c5.601-25.4,28.9-41,45.301-59.4C669,327.1,679,274.1,679,212.7
		C679.1,95.2,604.3,0,486.8,0c-0.101,0-0.301,0-0.4,0s-0.3,0-0.4,0C368.5,0,293.8,95.2,293.8,212.7c0,61.3,10,114.4,49.699,159.1
		c16.4,18.5,39.7,34,45.301,59.4C393.5,452.8,385,473.8,360.2,473.8z"/>
</g>
<g>
</g>
<g>
</g>
<g>
</g>
<g>
</g>
<g>
</g>
<g>
</g>
<g>
</g>
<g>
</g>
<g>
</g>
<g>
</g>
<g>
</g>
<g>
</g>
<g>
</g>
<g>
</g>
<g>
</g>
</svg>
