<?xml version="1.0" encoding="iso-8859-1"?>
<!-- Generator: Adobe Illustrator 16.0.0, SVG Export Plug-In . SVG Version: 6.00 Build 0)  -->
<!DOCTYPE svg PUBLIC "-//W3C//DTD SVG 1.1//EN" "http://www.w3.org/Graphics/SVG/1.1/DTD/svg11.dtd">
<svg version="1.1" id="Capa_1" xmlns="http://www.w3.org/2000/svg" xmlns:xlink="http://www.w3.org/1999/xlink" x="0px" y="0px"
	 width="952px" height="952px" viewBox="0 0 952 952" style="enable-background:new 0 0 952 952;" xml:space="preserve">
<g>
	<path d="M339,155.55c-16,0-29,13-29,29v590c0,16,13,29,29,29h274c16,0,29-13,29-29v-590c0-16-13-29-29-29H339z"/>
	<path d="M728.5,795.451l201.3-79.2c13.4-5.3,22.2-18.2,22.2-32.601V82.45c0-11-11.1-18.6-21.3-14.5l-200.5,78.9
		c-13.4,5.3-22.2,18.2-22.2,32.6V781.55C708,792.15,718.7,799.35,728.5,795.451z"/>
	<path d="M223.5,156.65l-201.3,79.2C8.8,241.05,0,254.05,0,268.35V869.55c0,11,11.1,18.6,21.3,14.5l200.5-78.9
		c13.4-5.3,22.2-18.199,22.2-32.6v-602C244,159.95,233.3,152.75,223.5,156.65z"/>
</g>
<g>
</g>
<g>
</g>
<g>
</g>
<g>
</g>
<g>
</g>
<g>
</g>
<g>
</g>
<g>
</g>
<g>
</g>
<g>
</g>
<g>
</g>
<g>
</g>
<g>
</g>
<g>
</g>
<g>
</g>
</svg>
