<?xml version="1.0" encoding="iso-8859-1"?>
<!-- Generator: Adobe Illustrator 16.0.0, SVG Export Plug-In . SVG Version: 6.00 Build 0)  -->
<!DOCTYPE svg PUBLIC "-//W3C//DTD SVG 1.1//EN" "http://www.w3.org/Graphics/SVG/1.1/DTD/svg11.dtd">
<svg version="1.1" id="Capa_1" xmlns="http://www.w3.org/2000/svg" xmlns:xlink="http://www.w3.org/1999/xlink" x="0px" y="0px"
	 width="124px" height="124px" viewBox="0 0 124 124" style="enable-background:new 0 0 124 124;" xml:space="preserve">
<g>
	<path d="M89,0h-2.1C84.2,0,81.8,1.7,81,4.3c-2.3,8.3-10,14.4-19,14.4c-9.1,0-16.7-6.1-19-14.4C42.3,1.7,39.8,0,37.1,0H35
		c-3.3,0-6,2.7-6,6v26.1c0,8.7-5.8,15.9-13.8,18.2C12.7,51,11,53.4,11,56v62c0,3.3,2.7,6,6,6h45h45c3.3,0,6-2.7,6-6V56
		c0-2.6-1.7-5-4.2-5.7C100.8,48,95,40.7,95,32.1V6C95,2.7,92.3,0,89,0z M55,87.8c0,2.8-2.3,5.2-5.2,5.2H39.2c-2.8,0-5.2-2.3-5.2-5.2
		V57.2c0-2.8,2.3-5.2,5.2-5.2h10.7c2.8,0,5.2,2.3,5.2,5.2v30.6H55z M90,87.8c0,2.8-2.3,5.2-5.2,5.2H74.2c-2.8,0-5.2-2.3-5.2-5.2
		V57.2c0-2.8,2.3-5.2,5.2-5.2h10.7c2.8,0,5.199,2.3,5.199,5.2v30.6H90z"/>
</g>
<g>
</g>
<g>
</g>
<g>
</g>
<g>
</g>
<g>
</g>
<g>
</g>
<g>
</g>
<g>
</g>
<g>
</g>
<g>
</g>
<g>
</g>
<g>
</g>
<g>
</g>
<g>
</g>
<g>
</g>
</svg>
