<?xml version="1.0" encoding="iso-8859-1"?>
<!-- Generator: Adobe Illustrator 16.0.0, SVG Export Plug-In . SVG Version: 6.00 Build 0)  -->
<!DOCTYPE svg PUBLIC "-//W3C//DTD SVG 1.1//EN" "http://www.w3.org/Graphics/SVG/1.1/DTD/svg11.dtd">
<svg version="1.1" id="Capa_1" xmlns="http://www.w3.org/2000/svg" xmlns:xlink="http://www.w3.org/1999/xlink" x="0px" y="0px"
	 width="126px" height="126px" viewBox="0 0 126 126" style="enable-background:new 0 0 126 126;" xml:space="preserve">
<g>
	<path d="M13.502,99.8h30.3v12.4h-13.2c-3.8,0-6.9,3.1-6.9,6.899c0,3.801,3.1,6.9,6.9,6.9h74.9c3.8,0,6.899-3.1,6.899-6.9
		c0-3.8-3.1-6.899-6.899-6.899v-8.3c7-4,11.8-11.601,11.8-20.301c0-8.399-4.5-15.8-11.2-19.899c-0.1-7.3-1.9-18.8-10-31l-5.5,6
		l-4.6,5l-1,1.1c3.399,6.1,4.8,11.7,5.199,15.9c-11.1,1.8-19.5,11.399-19.5,23c0,2.2,0.301,4.3,0.9,6.3h-58c-2.7,0-4.9,2.2-4.9,4.9
		C8.602,97.6,10.802,99.8,13.502,99.8z M94.002,76.1c4.199,0,7.6,3.4,7.6,7.601c0,2.6-1.3,4.899-3.3,6.3c-1.2,0.8-2.7,1.3-4.2,1.3
		c-1.6,0-3-0.5-4.2-1.3c-2-1.4-3.3-3.7-3.3-6.3C86.401,79.5,89.802,76.1,94.002,76.1z"/>
	<path d="M41.302,56.9l6.4,6.4c2.4,2.4,6.2,2.3,8.5-0.2l38.9-42.1c1-1.1,1.6-2.6,1.6-4c0-1.5-0.5-2.9-1.6-4.1
		c1.9-1.2,3.1-3.4,3.1-5.8c0-2-0.8-3.7-2.1-5c-1.3-1.3-3-2.1-5-2.1c-2.4,0-4.6,1.2-5.8,3.1c-1.101-1.1-2.601-1.6-4.101-1.6
		c-1.399,0-2.899,0.5-4,1.6L35.002,42c-2.5,2.3-2.5,6.1-0.2,8.5L41.302,56.9z"/>
</g>
<g>
</g>
<g>
</g>
<g>
</g>
<g>
</g>
<g>
</g>
<g>
</g>
<g>
</g>
<g>
</g>
<g>
</g>
<g>
</g>
<g>
</g>
<g>
</g>
<g>
</g>
<g>
</g>
<g>
</g>
</svg>
