<?xml version="1.0" encoding="iso-8859-1"?>
<!-- Generator: Adobe Illustrator 16.0.0, SVG Export Plug-In . SVG Version: 6.00 Build 0)  -->
<!DOCTYPE svg PUBLIC "-//W3C//DTD SVG 1.1//EN" "http://www.w3.org/Graphics/SVG/1.1/DTD/svg11.dtd">
<svg version="1.1" id="Capa_1" xmlns="http://www.w3.org/2000/svg" xmlns:xlink="http://www.w3.org/1999/xlink" x="0px" y="0px"
	 width="974.5px" height="974.5px" viewBox="0 0 974.5 974.5" style="enable-background:new 0 0 974.5 974.5;" xml:space="preserve"
	>
<g>
	<path d="M249.45,238.7c0,63.8,24.8,123.7,69.899,168.8C347.45,435.6,381.25,455.8,418.15,467.1v367.4h-85.9
		c-38.7,0-70,31.301-70,70s31.3,70,70,70h155.9h155.899c38.701,0,70-31.301,70-70s-31.299-70-70-70H558.15V467.1
		c36.898-11.3,70.799-31.5,98.799-59.601c45.1-45.1,69.9-105.1,69.9-168.8c0-63.7-24.801-123.7-69.9-168.8S551.949,0,488.15,0
		c-63.801,0-123.7,24.8-168.801,69.9C274.25,115,249.45,174.9,249.45,238.7z M586.949,238.7c0,27.1-11,51.7-28.799,69.6
		c-17.9,18-42.701,29.2-70,29.2c-27.301,0-52.101-11.2-70-29.2c-17.801-17.9-28.801-42.5-28.801-69.6
		c0-54.5,44.301-98.8,98.801-98.8C542.65,140,586.949,184.3,586.949,238.7z"/>
	<path d="M797.449,45c-29.6,24.9-33.4,69-8.6,98.6c22.4,26.7,34.801,60.7,34.801,95.6c0,33.9-11.102,65.8-32,92.2
		c-24,30.3-18.9,74.3,11.5,98.3c12.898,10.2,28.199,15.101,43.398,15.101c20.701,0,41.102-9.101,54.9-26.601
		c19.701-25,35.1-52.8,45.701-82.7c11-30.9,16.5-63.4,16.5-96.4c0-67.9-24-133.8-67.602-185.7C871.15,24,827.049,20.2,797.449,45z"
		/>
	<path d="M27.35,335.7c10.6,29.9,26,57.7,45.7,82.7c13.8,17.5,34.3,26.6,54.9,26.6c15.2,0,30.5-4.899,43.4-15.1
		c30.3-24,35.5-68,11.5-98.3c-20.9-26.5-32-58.4-32-92.2c0-35,12.4-68.9,34.8-95.6c24.9-29.6,21-73.8-8.6-98.6
		c-29.6-24.9-73.8-21-98.6,8.6c-43.6,51.7-67.6,117.6-67.6,185.5C10.85,272.3,16.45,304.8,27.35,335.7z"/>
</g>
<g>
</g>
<g>
</g>
<g>
</g>
<g>
</g>
<g>
</g>
<g>
</g>
<g>
</g>
<g>
</g>
<g>
</g>
<g>
</g>
<g>
</g>
<g>
</g>
<g>
</g>
<g>
</g>
<g>
</g>
</svg>
