<?xml version="1.0" encoding="iso-8859-1"?>
<!-- Generator: Adobe Illustrator 16.0.0, SVG Export Plug-In . SVG Version: 6.00 Build 0)  -->
<!DOCTYPE svg PUBLIC "-//W3C//DTD SVG 1.1//EN" "http://www.w3.org/Graphics/SVG/1.1/DTD/svg11.dtd">
<svg version="1.1" id="Capa_1" xmlns="http://www.w3.org/2000/svg" xmlns:xlink="http://www.w3.org/1999/xlink" x="0px" y="0px"
	 width="964.199px" height="964.199px" viewBox="0 0 964.199 964.199" style="enable-background:new 0 0 964.199 964.199;"
	 xml:space="preserve">
<g>
	<path d="M542,0H422.199C297.3,0,196.1,101.3,196.1,226.1v512c0,124.801,101.2,226.1,226.1,226.1h119.9
		c124.8,0,226-101.299,226-226.1v-512C768.1,101.3,666.899,0,542,0z M538.1,315.1c0,24.8-20.3,45-45,45h-22c-24.8,0-45-20.3-45-45
		v-148c0-24.8,20.3-45,45-45h22c24.8,0,45,20.3,45,45V315.1z"/>
</g>
<g>
</g>
<g>
</g>
<g>
</g>
<g>
</g>
<g>
</g>
<g>
</g>
<g>
</g>
<g>
</g>
<g>
</g>
<g>
</g>
<g>
</g>
<g>
</g>
<g>
</g>
<g>
</g>
<g>
</g>
</svg>
