<?xml version="1.0" encoding="iso-8859-1"?>
<!-- Generator: Adobe Illustrator 16.0.0, SVG Export Plug-In . SVG Version: 6.00 Build 0)  -->
<!DOCTYPE svg PUBLIC "-//W3C//DTD SVG 1.1//EN" "http://www.w3.org/Graphics/SVG/1.1/DTD/svg11.dtd">
<svg version="1.1" id="Capa_1" xmlns="http://www.w3.org/2000/svg" xmlns:xlink="http://www.w3.org/1999/xlink" x="0px" y="0px"
	 width="986.032px" height="986.032px" viewBox="0 0 986.032 986.032" style="enable-background:new 0 0 986.032 986.032;"
	 xml:space="preserve">
<g>
	<path d="M201.832,907.53c109.601,0,198.7-87.3,201.7-196.2h0.1v-443.8l438.601,110.4v212.701c-18.7-5.601-38.5-8.601-59-8.4
		c-111.5,0.5-202.8,94-200.7,205.5c2,109.7,91.6,198,201.7,198c109.6,0,198.7-87.3,201.7-196.2h0.1v-578.6c0-25.5-17.3-47.7-42-54
		l-615-154.9c-35.2-8.9-69.3,17.7-69.3,54v456.401c-18.7-5.601-38.5-8.601-59-8.4c-111.5,0.5-202.7,94-200.7,205.5
		C2.132,819.23,91.632,907.53,201.832,907.53z"/>
</g>
<g>
</g>
<g>
</g>
<g>
</g>
<g>
</g>
<g>
</g>
<g>
</g>
<g>
</g>
<g>
</g>
<g>
</g>
<g>
</g>
<g>
</g>
<g>
</g>
<g>
</g>
<g>
</g>
<g>
</g>
</svg>
