<?xml version="1.0" encoding="iso-8859-1"?>
<!-- Generator: Adobe Illustrator 16.0.0, SVG Export Plug-In . SVG Version: 6.00 Build 0)  -->
<!DOCTYPE svg PUBLIC "-//W3C//DTD SVG 1.1//EN" "http://www.w3.org/Graphics/SVG/1.1/DTD/svg11.dtd">
<svg version="1.1" id="Capa_1" xmlns="http://www.w3.org/2000/svg" xmlns:xlink="http://www.w3.org/1999/xlink" x="0px" y="0px"
	 width="979.273px" height="979.273px" viewBox="0 0 979.273 979.273" style="enable-background:new 0 0 979.273 979.273;"
	 xml:space="preserve">
<g>
	<path d="M615.387,891h-125.5v22c0,33.1,26.899,60,60,60h234.6c33.1,0,60-26.9,60-60V61c0-33.1-26.9-60-60-60h-234.6
		c-33.101,0-60,26.9-60,60v22h125.5c16.6,0,30,13.4,30,30s-13.4,30-30,30h-125.5v60.7h63.6c16.6,0,30,13.4,30,30
		c0,16.6-13.4,30-30,30h-63.6v66h63.6c16.6,0,30,13.4,30,30c0,16.6-13.4,30-30,30h-63.6v66h125.5c16.6,0,30,13.399,30,30
		c0,16.6-13.4,30-30,30h-125.5v64.6h63.6c16.6,0,30,13.4,30,30c0,16.601-13.4,30-30,30h-63.6v66h63.6c16.6,0,30,13.4,30,30
		c0,16.601-13.4,30-30,30h-63.6V831h125.5c16.6,0,30,13.4,30,30S631.987,891,615.387,891z"/>
	<polygon points="327.487,191.2 135.087,191.2 136.787,771.4 329.086,771.4 	"/>
	<path d="M279.586,0h-97.3c-23.5,0-47.5,23.6-47.5,46.6l0.2,84.6h192.3l-0.2-84.6C326.987,23.6,302.987,0,279.586,0z"/>
	<path d="M223.887,970.4c7.4,12.3,25.8,11.699,32.3-1.101l69.2-136.8c0.199-0.4,0.3-0.7,0.5-1.1h-185c0.3,0.6,0.7,1.3,1,1.899
		L223.887,970.4z"/>
</g>
<g>
</g>
<g>
</g>
<g>
</g>
<g>
</g>
<g>
</g>
<g>
</g>
<g>
</g>
<g>
</g>
<g>
</g>
<g>
</g>
<g>
</g>
<g>
</g>
<g>
</g>
<g>
</g>
<g>
</g>
</svg>
