<?xml version="1.0" encoding="iso-8859-1"?>
<!-- Generator: Adobe Illustrator 16.0.0, SVG Export Plug-In . SVG Version: 6.00 Build 0)  -->
<!DOCTYPE svg PUBLIC "-//W3C//DTD SVG 1.1//EN" "http://www.w3.org/Graphics/SVG/1.1/DTD/svg11.dtd">
<svg version="1.1" id="Capa_1" xmlns="http://www.w3.org/2000/svg" xmlns:xlink="http://www.w3.org/1999/xlink" x="0px" y="0px"
	 width="994px" height="994px" viewBox="0 0 994 994" style="enable-background:new 0 0 994 994;" xml:space="preserve">
<g>
	<path d="M795.7,210.35H198.3c-33.1,0-60,26.9-60,60v453.3c0,33.101,26.9,60,60,60h597.4c33.1,0,60-26.899,60-60v-453.3
		C855.7,237.25,828.8,210.35,795.7,210.35z"/>
	<path d="M42.5,249.35c-23.5,0-42.5,19.1-42.5,42.5v410.3c0,23.5,19,42.5,42.5,42.5s42.5-19,42.5-42.5v-410.3
		C85,268.45,66,249.35,42.5,249.35z"/>
	<path d="M951.5,247.15c-23.5,0-42.5,19-42.5,42.5v410.3c0,23.5,19,42.5,42.5,42.5s42.5-19,42.5-42.5v-410.3
		C994,266.15,975,247.15,951.5,247.15z"/>
</g>
<g>
</g>
<g>
</g>
<g>
</g>
<g>
</g>
<g>
</g>
<g>
</g>
<g>
</g>
<g>
</g>
<g>
</g>
<g>
</g>
<g>
</g>
<g>
</g>
<g>
</g>
<g>
</g>
<g>
</g>
</svg>
