<?xml version="1.0" encoding="iso-8859-1"?>
<!-- Generator: Adobe Illustrator 16.0.0, SVG Export Plug-In . SVG Version: 6.00 Build 0)  -->
<!DOCTYPE svg PUBLIC "-//W3C//DTD SVG 1.1//EN" "http://www.w3.org/Graphics/SVG/1.1/DTD/svg11.dtd">
<svg version="1.1" id="Capa_1" xmlns="http://www.w3.org/2000/svg" xmlns:xlink="http://www.w3.org/1999/xlink" x="0px" y="0px"
	 width="124px" height="124px" viewBox="0 0 124 124" style="enable-background:new 0 0 124 124;" xml:space="preserve">
<g>
	<path d="M18.1,54.5H0v51.4c0,3.1,2.5,5.6,5.6,5.6h112c3.5,0,6.4-2.9,6.4-6.4V35.6c0-3.4-2.7-6.1-6.1-6.1H89.1
		c-3,0-5.5-2.2-5.899-5.1l-1-6.6c-0.5-2.9-3-5.3-5.9-5.3H47.5c-3,0-5.5,2.3-5.9,5.3l-1,6.6c-0.4,2.9-3,5.1-5.9,5.1H6
		c-3.3,0-6,2.7-6,6v5h18.1c3.8,0,6.9,3.1,6.9,6.9v0.1C25,51.4,21.9,54.5,18.1,54.5z M108,40.7c3.9,0,7,3.1,7,7c0,3.9-3.1,7-7,7
		s-7-3.1-7-7C101,43.9,104.1,40.7,108,40.7z M62.3,43.2c16.601,0,30,13.4,30,30c0,16.6-13.399,30-30,30c-16.6,0-30-13.4-30-30
		C32.3,56.6,45.8,43.2,62.3,43.2z"/>
	<circle cx="62" cy="73.2" r="15"/>
</g>
<g>
</g>
<g>
</g>
<g>
</g>
<g>
</g>
<g>
</g>
<g>
</g>
<g>
</g>
<g>
</g>
<g>
</g>
<g>
</g>
<g>
</g>
<g>
</g>
<g>
</g>
<g>
</g>
<g>
</g>
</svg>
