<?xml version="1.0" encoding="iso-8859-1"?>
<!-- Generator: Adobe Illustrator 16.0.0, SVG Export Plug-In . SVG Version: 6.00 Build 0)  -->
<!DOCTYPE svg PUBLIC "-//W3C//DTD SVG 1.1//EN" "http://www.w3.org/Graphics/SVG/1.1/DTD/svg11.dtd">
<svg version="1.1" id="Capa_1" xmlns="http://www.w3.org/2000/svg" xmlns:xlink="http://www.w3.org/1999/xlink" x="0px" y="0px"
	 width="122.873px" height="122.873px" viewBox="0 0 122.873 122.873" style="enable-background:new 0 0 122.873 122.873;"
	 xml:space="preserve">
<g>
	<path d="M50.755,0c-3.9,0-7,3.1-7,7v24.6h14V7C57.755,3.1,54.655,0,50.755,0z"/>
	<path d="M82.455,7v24.6h14V7c0-3.9-3.101-7-7-7C85.555,0,82.455,3.1,82.455,7z"/>
	<path d="M60.655,90c-4.7,6-12.9,7.4-20.1,8.2c-11.9,1.5-24.7,4-31.1,15.399c-3.9,7,6.8,13.2,10.7,6.2c4.7-8.3,15.7-9.2,24.2-10.2
		c4.8-0.6,9.8-1.1,14.3-3c4.1-1.699,7.8-4.5,10.7-7.899c1.7-2,3.101-4.101,4.3-6.4c1.2-2.399,2-4.6,4.2-6.2
		c1-0.8,2.2-1.399,3.5-1.699c18-4.7,31.5-20.5,32.9-39.601c0.1-1.7-1.3-3.2-3-3.2h-14.8h-14h-24.7h-14h-14.8c-1.7,0-3.1,1.4-3,3.2
		c1.4,19.4,15.2,35.3,33.6,39.8c2,0.5,2.9,2.801,1.8,4.5C61.155,89.4,60.955,89.7,60.655,90z"/>
</g>
<g>
</g>
<g>
</g>
<g>
</g>
<g>
</g>
<g>
</g>
<g>
</g>
<g>
</g>
<g>
</g>
<g>
</g>
<g>
</g>
<g>
</g>
<g>
</g>
<g>
</g>
<g>
</g>
<g>
</g>
</svg>
