<?xml version="1.0" encoding="iso-8859-1"?>
<!-- Generator: Adobe Illustrator 16.0.0, SVG Export Plug-In . SVG Version: 6.00 Build 0)  -->
<!DOCTYPE svg PUBLIC "-//W3C//DTD SVG 1.1//EN" "http://www.w3.org/Graphics/SVG/1.1/DTD/svg11.dtd">
<svg version="1.1" id="Capa_1" xmlns="http://www.w3.org/2000/svg" xmlns:xlink="http://www.w3.org/1999/xlink" x="0px" y="0px"
	 width="122.901px" height="122.9px" viewBox="0 0 122.901 122.9" style="enable-background:new 0 0 122.901 122.9;"
	 xml:space="preserve">
<g>
	<path d="M25.85,119c-0.6,1.9,0.8,3.9,2.9,3.9h65.5c1.9,0,3.4-1.801,2.9-3.7C94.35,108.1,79.25,105.1,79.25,105.1l4.9-49.6h-45.5
		l4.9,49.6C43.55,105.1,29.15,109.2,25.85,119z"/>
	<path d="M41.55,11.3c0-2.8-2.2-5-5-5c-2.8,0-5,2.2-5,5v2.5v5v5h-13.2c-3.3,0-6,2.7-6,6v9.8c0,3.3,2.7,6,6,6h19.3h47.6h19.3
		c3.3,0,6-2.7,6-6v-9.8c0-3.3-2.7-6-6-6H87.45h-40.2c1-1.7,2.2-3.4,3.6-5c1.5-1.9,3.2-3.6,5.1-5c3-2.3,6.5-3.8,10.5-3.8
		c2.801,0,5-2.2,5-5c0-2.8-2.199-5-5-5C55.55,0,47.55,6.5,41.95,13.8c-0.1,0.2-0.4,0.5-0.4,0.5V11.3z"/>
</g>
<g>
</g>
<g>
</g>
<g>
</g>
<g>
</g>
<g>
</g>
<g>
</g>
<g>
</g>
<g>
</g>
<g>
</g>
<g>
</g>
<g>
</g>
<g>
</g>
<g>
</g>
<g>
</g>
<g>
</g>
</svg>
