<?xml version="1.0" encoding="iso-8859-1"?>
<!-- Generator: Adobe Illustrator 16.0.0, SVG Export Plug-In . SVG Version: 6.00 Build 0)  -->
<!DOCTYPE svg PUBLIC "-//W3C//DTD SVG 1.1//EN" "http://www.w3.org/Graphics/SVG/1.1/DTD/svg11.dtd">
<svg version="1.1" id="Capa_1" xmlns="http://www.w3.org/2000/svg" xmlns:xlink="http://www.w3.org/1999/xlink" x="0px" y="0px"
	 width="985px" height="985px" viewBox="0 0 985 985" style="enable-background:new 0 0 985 985;" xml:space="preserve">
<g>
	<path d="M550.55,910v-89.7h-150V910c0,41.4,33.6,75,75,75S550.55,951.5,550.55,910z"/>
	<rect x="400.55" y="409.3" width="150" height="59.2"/>
	<path d="M475.55,0c-35.4,0-65.1,24.5-72.9,57.5h145.9C540.55,24.5,510.951,0,475.55,0z"/>
	<path d="M52.85,669.4l80.1,81.899c5.6,5.8,13.4,9,21.4,9h246.101h150h324.6c16.6,0,30-13.399,30-30V558.5c0-16.6-13.4-30-30-30
		h-324.5h-150h-245.4c-8.5,0-16.6,3.6-22.3,9.9l-80.9,90C41.35,640.2,41.75,658.1,52.85,669.4z"/>
	<path d="M110.05,117.5c-16.6,0-30,13.4-30,30v171.8c0,16.6,13.4,30,30,30h290.4h150H830.65c8.101,0,15.801-3.2,21.4-9l80.1-81.9
		c11.101-11.3,11.5-29.3,0.9-41l-80.9-90c-5.699-6.3-13.8-9.9-22.3-9.9h-279.3h-150H110.05z"/>
</g>
<g>
</g>
<g>
</g>
<g>
</g>
<g>
</g>
<g>
</g>
<g>
</g>
<g>
</g>
<g>
</g>
<g>
</g>
<g>
</g>
<g>
</g>
<g>
</g>
<g>
</g>
<g>
</g>
<g>
</g>
</svg>
