<?xml version="1.0" encoding="iso-8859-1"?>
<!-- Generator: Adobe Illustrator 16.0.0, SVG Export Plug-In . SVG Version: 6.00 Build 0)  -->
<!DOCTYPE svg PUBLIC "-//W3C//DTD SVG 1.1//EN" "http://www.w3.org/Graphics/SVG/1.1/DTD/svg11.dtd">
<svg version="1.1" id="Capa_1" xmlns="http://www.w3.org/2000/svg" xmlns:xlink="http://www.w3.org/1999/xlink" x="0px" y="0px"
	 width="975.1px" height="975.1px" viewBox="0 0 975.1 975.1" style="enable-background:new 0 0 975.1 975.1;" xml:space="preserve"
	>
<g>
	<path d="M445.964,0c-48.801,0-89.4,35-98.2,81.2h196.5C535.364,34.9,494.764,0,445.964,0z"/>
	<path d="M545.964,875V526.2h-200V875.1c0,55.2,44.8,100,100,100C501.164,975.1,545.964,930.3,545.964,875z"/>
	<path d="M952.064,275.3l-72-107.5c-11.1-16.6-29.8-26.6-49.9-26.6H545.964h-200H72.864c-33.1,0-60,26.9-60,60v205
		c0,33.1,26.9,60,60,60h273.2h200h285.6c19.2,0,37.301-9.2,48.601-24.8l70.6-97.5C965.564,323.5,966.064,296.1,952.064,275.3z"/>
</g>
<g>
</g>
<g>
</g>
<g>
</g>
<g>
</g>
<g>
</g>
<g>
</g>
<g>
</g>
<g>
</g>
<g>
</g>
<g>
</g>
<g>
</g>
<g>
</g>
<g>
</g>
<g>
</g>
<g>
</g>
</svg>
