<?xml version="1.0" encoding="iso-8859-1"?>
<!-- Generator: Adobe Illustrator 16.0.0, SVG Export Plug-In . SVG Version: 6.00 Build 0)  -->
<!DOCTYPE svg PUBLIC "-//W3C//DTD SVG 1.1//EN" "http://www.w3.org/Graphics/SVG/1.1/DTD/svg11.dtd">
<svg version="1.1" id="Capa_1" xmlns="http://www.w3.org/2000/svg" xmlns:xlink="http://www.w3.org/1999/xlink" x="0px" y="0px"
	 width="122px" height="122px" viewBox="0 0 122 122" style="enable-background:new 0 0 122 122;" xml:space="preserve">
<g>
	<path d="M122,102V20c0-11-9-20-20-20H20C9,0,0,9,0,20v82c0,11,9,20,20,20h82C113,122,122,113,122,102z M108,102c0,3.3-2.7,6-6,6H20
		c-3.3,0-6-2.7-6-6V20c0-3.3,2.7-6,6-6h82c3.3,0,6,2.7,6,6V102z"/>
	<path d="M72.9,29.7c-1.9-1.9-4.4-2.9-7-2.9c-2.7,0-5.101,1-7,2.9C57,31.5,56,34,56,36.7c0,2.7,1,5.1,2.9,7l7.4,7.3H34.8
		c-5.5,0-9.9,4.5-9.9,10s4.5,10,9.9,10h31.5l-7.4,7.3c-1.9,1.9-2.9,4.4-2.9,7c0,2.7,1,5.101,2.9,7c1.9,1.9,4.4,2.9,7,2.9
		c2.699,0,5.1-1,7-2.9c0,0,23.8-23.8,24-24c1.899-1.899,3.1-4.2,3.199-6.7c0.2-2.7-0.8-5.5-2.6-7.5C97.5,54.2,97.5,54.2,72.9,29.7z"
		/>
</g>
<g>
</g>
<g>
</g>
<g>
</g>
<g>
</g>
<g>
</g>
<g>
</g>
<g>
</g>
<g>
</g>
<g>
</g>
<g>
</g>
<g>
</g>
<g>
</g>
<g>
</g>
<g>
</g>
<g>
</g>
</svg>
