<?xml version="1.0" encoding="iso-8859-1"?>
<!-- Generator: Adobe Illustrator 16.0.0, SVG Export Plug-In . SVG Version: 6.00 Build 0)  -->
<!DOCTYPE svg PUBLIC "-//W3C//DTD SVG 1.1//EN" "http://www.w3.org/Graphics/SVG/1.1/DTD/svg11.dtd">
<svg version="1.1" id="Capa_1" xmlns="http://www.w3.org/2000/svg" xmlns:xlink="http://www.w3.org/1999/xlink" x="0px" y="0px"
	 width="124px" height="124px" viewBox="0 0 124 124" style="enable-background:new 0 0 124 124;" xml:space="preserve">
<g>
	<path d="M6,124h112c3.3,0,6-2.7,6-6V6c0-3.3-2.7-6-6-6H6C2.7,0,0,2.7,0,6v112C0,121.3,2.7,124,6,124z M92.4,58.4L80.6,46.5
		c-2.399-2.4-2.3-6.3,0.2-8.7c2.4-2.2,6.101-2,8.4,0.3l19.6,19.6c1.2,1.2,1.8,2.7,1.8,4.2c0,1.5-0.6,3.1-1.8,4.2L89.2,85.8
		c-2.3,2.3-6,2.5-8.4,0.3c-2.5-2.3-2.6-6.3-0.2-8.699L92.4,65.6C94.4,63.6,94.4,60.4,92.4,58.4z M15.3,57.8l19.6-19.6
		c2.3-2.3,6-2.5,8.4-0.3c2.5,2.3,2.6,6.3,0.2,8.7L31.6,58.4c-2,2-2,5.3,0,7.3l11.8,11.8c2.4,2.4,2.3,6.3-0.2,8.7
		c-2.4,2.2-6.1,2-8.4-0.3L15.3,66.2c-1.2-1.2-1.8-2.7-1.8-4.2S14.1,58.9,15.3,57.8z"/>
</g>
<g>
</g>
<g>
</g>
<g>
</g>
<g>
</g>
<g>
</g>
<g>
</g>
<g>
</g>
<g>
</g>
<g>
</g>
<g>
</g>
<g>
</g>
<g>
</g>
<g>
</g>
<g>
</g>
<g>
</g>
</svg>
