<?xml version="1.0" encoding="iso-8859-1"?>
<!-- Generator: Adobe Illustrator 16.0.0, SVG Export Plug-In . SVG Version: 6.00 Build 0)  -->
<!DOCTYPE svg PUBLIC "-//W3C//DTD SVG 1.1//EN" "http://www.w3.org/Graphics/SVG/1.1/DTD/svg11.dtd">
<svg version="1.1" id="Capa_1" xmlns="http://www.w3.org/2000/svg" xmlns:xlink="http://www.w3.org/1999/xlink" x="0px" y="0px"
	 width="124px" height="124px" viewBox="0 0 124 124" style="enable-background:new 0 0 124 124;" xml:space="preserve">
<g>
	<path d="M44,57.15H32c-3.3,0-6,2.7-6,6v12c0,3.299,2.7,6,6,6h12c3.3,0,6-2.701,6-6v-12C50,59.85,47.3,57.15,44,57.15z"/>
	<path d="M118,34.15h-9.5H92v-10c4-2.1,6.1-6,6.1-10.4c0-6.6-5.399-12-12-12c-6.6,0-12,5.4-12,12c0,4.4,1.9,8.2,5.9,10.3v10.1H62H44
		v-10.1c3.5-2.1,5.9-5.9,5.9-10.3c0-6.6-5.4-12-12-12s-12,5.4-12,12c0,4.5,2.5,8.4,6.1,10.4v10H15.5H6c-3.3,0-6,2.7-6,6v7.4v61v7.7
		c0,3.3,2.7,6,6,6h9.5h35H62h11.5h35h9.5c3.3,0,6-2.7,6-6v-7.7v-61v-7.4C124,36.85,121.3,34.15,118,34.15z M108,102.15
		c0,3.299-2.7,6-6,6H80v-7c0-3.301-3.2-6-6.5-6H62H50.5c-3.3,0-6.5,2.699-6.5,6v7H22c-3.3,0-6-2.701-6-6v-48c0-3.3,2.7-6,6-6h40h40
		c3.3,0,6,2.7,6,6V102.15z"/>
	<path d="M92,57.15H80c-3.3,0-6,2.7-6,6v12c0,3.299,2.7,6,6,6h12c3.3,0,6-2.701,6-6v-12C98,59.85,95.3,57.15,92,57.15z"/>
</g>
<g>
</g>
<g>
</g>
<g>
</g>
<g>
</g>
<g>
</g>
<g>
</g>
<g>
</g>
<g>
</g>
<g>
</g>
<g>
</g>
<g>
</g>
<g>
</g>
<g>
</g>
<g>
</g>
<g>
</g>
</svg>
