<?xml version="1.0" encoding="iso-8859-1"?>
<!-- Generator: Adobe Illustrator 16.0.0, SVG Export Plug-In . SVG Version: 6.00 Build 0)  -->
<!DOCTYPE svg PUBLIC "-//W3C//DTD SVG 1.1//EN" "http://www.w3.org/Graphics/SVG/1.1/DTD/svg11.dtd">
<svg version="1.1" id="Capa_1" xmlns="http://www.w3.org/2000/svg" xmlns:xlink="http://www.w3.org/1999/xlink" x="0px" y="0px"
	 width="122.711px" height="122.711px" viewBox="0 0 122.711 122.711" style="enable-background:new 0 0 122.711 122.711;"
	 xml:space="preserve">
<g>
	<path d="M77.73,70.221c5.2-4.5,10.6-9.6,16.2-15.199c9.6-9.6,16-18.1,20.3-25.4c-10.6-2.3-18.9-10.7-21.2-21.2
		c-7.2,4.3-15.7,10.8-25.3,20.5c-5.6,5.6-10.7,11-15.2,16.2c-1.3,1.5-3.2,2.3-5.2,2l-14.1-1.6c-1.8-0.2-3.6,0.4-4.9,1.7l-27.3,27.3
		c-1.8,1.8-0.7,4.8,1.8,5.1l18.1,2.1c1.8,0.2,3.6-0.399,4.9-1.699l6.5-6.5c1.4-1.4,3.7-0.4,3.7,1.5c-0.1,3.3,1,6.199,3.4,8.5
		c2.4,2.399,5.2,3.399,8.5,3.3c1.9,0,2.9,2.3,1.5,3.7l-6.5,6.5c-1.3,1.3-1.9,3.1-1.7,4.899l2.1,18.101c0.3,2.5,3.3,3.6,5.1,1.8
		l27.3-27.3c1.3-1.301,1.9-3.101,1.7-4.9l-1.601-14.1C75.53,73.521,76.23,71.521,77.73,70.221z M68.83,63.721
		c-5.3,5.301-11.699,7.301-14.399,4.7c-2.7-2.7-0.6-9.1,4.7-14.399c5.3-5.3,11.699-7.3,14.399-4.7S74.03,58.521,68.83,63.721z"/>
	<path d="M102.431,3.621c0.6,8.9,7.7,16,16.5,16.7c5.2-12.7,3.3-19.8,3.3-19.8S115.431-1.879,102.431,3.621z"/>
</g>
<g>
</g>
<g>
</g>
<g>
</g>
<g>
</g>
<g>
</g>
<g>
</g>
<g>
</g>
<g>
</g>
<g>
</g>
<g>
</g>
<g>
</g>
<g>
</g>
<g>
</g>
<g>
</g>
<g>
</g>
</svg>
