<?xml version="1.0" encoding="iso-8859-1"?>
<!-- Generator: Adobe Illustrator 16.0.0, SVG Export Plug-In . SVG Version: 6.00 Build 0)  -->
<!DOCTYPE svg PUBLIC "-//W3C//DTD SVG 1.1//EN" "http://www.w3.org/Graphics/SVG/1.1/DTD/svg11.dtd">
<svg version="1.1" id="Capa_1" xmlns="http://www.w3.org/2000/svg" xmlns:xlink="http://www.w3.org/1999/xlink" x="0px" y="0px"
	 width="126px" height="126px" viewBox="0 0 126 126" style="enable-background:new 0 0 126 126;" xml:space="preserve">
<g>
	<path d="M90.101,63l23-35.2c3.6-5.5,3.899-12.6,0.8-18.4C110.7,3.6,104.601,0,98,0H63H28c-6.6,0-12.7,3.6-15.8,9.4
		C9,15.3,9.3,22.3,12.9,27.8l23,35.2l-23,35.2c-3.6,5.5-3.9,12.6-0.8,18.399c3.1,5.801,9.2,9.4,15.8,9.4h35h35
		c6.6,0,12.7-3.6,15.8-9.4c3.1-5.8,2.9-12.899-0.8-18.399L90.101,63z M56,86.2c0,1.5-1,2.8-2.5,3c-7.5,1-14.4,3.1-20.4,6.2
		c-1.8,0.899-3.6-1.101-2.5-2.801L48.5,63.9c0.4-0.601,1-0.9,1.7-0.9h4c1.1,0,1.8,0.9,1.8,2V86.2z M27.701,26c-1,0-2-0.5-2.5-1.4
		L23,21.3c-2.6-4,0.3-9.3,5-9.3h35h35c4.8,0,7.601,5.3,5,9.3l-2.2,3.4c-0.6,0.8-1.5,1.4-2.5,1.4H63h-35.3V26z M92.9,95.4
		C86.9,92.3,80,90.1,72.5,89.2C71,89,70,87.7,70,86.2V65c0-1.1,0.7-2,1.8-2h4c0.7,0,1.4,0.4,1.7,0.9L95.4,92.6
		C96.5,94.3,94.7,96.4,92.9,95.4z"/>
</g>
<g>
</g>
<g>
</g>
<g>
</g>
<g>
</g>
<g>
</g>
<g>
</g>
<g>
</g>
<g>
</g>
<g>
</g>
<g>
</g>
<g>
</g>
<g>
</g>
<g>
</g>
<g>
</g>
<g>
</g>
</svg>
