<?xml version="1.0" encoding="iso-8859-1"?>
<!-- Generator: Adobe Illustrator 16.0.0, SVG Export Plug-In . SVG Version: 6.00 Build 0)  -->
<!DOCTYPE svg PUBLIC "-//W3C//DTD SVG 1.1//EN" "http://www.w3.org/Graphics/SVG/1.1/DTD/svg11.dtd">
<svg version="1.1" id="Capa_1" xmlns="http://www.w3.org/2000/svg" xmlns:xlink="http://www.w3.org/1999/xlink" x="0px" y="0px"
	 width="984.227px" height="984.228px" viewBox="0 0 984.227 984.228" style="enable-background:new 0 0 984.227 984.228;"
	 xml:space="preserve">
<g>
	<path d="M714.514,512.828c0,1.199,0,123.699,0,123.699c0,22.801-7.4,37-27.4,37c-21.1,0-28.699-13.699-28.699-36.5
		c0,0,0-99.899,0-211.6c0-141.2,0-303.8,0-303.8c0-67.7-94.701-69.7-94.701-4.6l-0.6,331.9c0,11.8-7.9,20.4-18.799,20.4
		c-10.9,0-18.9-8.601-18.9-20.4v-401.3c0-62.6-95.201-64.4-95.201,0c0,0.7,0,401.3,0,401.3c0,11.8-7.899,20.4-18.8,20.4
		c-10.899,0-18.8-8.601-18.8-20.4v-359c0-63.8-95.2-63.7-95.2,0c0,0.5,0,359,0,359c0,11.8-7.899,20.4-18.899,20.4
		c-10.9,0-18.8-8.601-18.8-20.4v-275.3c0-22.2-19.5-39.9-40.9-40.8c-22.2-0.9-44.8,17.4-44.8,40.8c0,0.1,0,141.6,0,276.399
		c0,184.401,0,393.101,0,393.101c0,22,3.5,61.899,27.3,82.3l1.6,1.4v29.699c0,15.301,12.4,27.7,27.7,27.7h364.099
		c15.301,0,27.701-12.399,27.701-27.7l0.4-34.199c0.398-0.801,0.799-1.801,1.6-2.601l0.1-0.1l154.801-141.7
		c20.5-20.5,30.898-44.3,30.898-70.7V512.828C810.114,448.727,714.514,448.727,714.514,512.828z"/>
</g>
<g>
</g>
<g>
</g>
<g>
</g>
<g>
</g>
<g>
</g>
<g>
</g>
<g>
</g>
<g>
</g>
<g>
</g>
<g>
</g>
<g>
</g>
<g>
</g>
<g>
</g>
<g>
</g>
<g>
</g>
</svg>
