<?xml version="1.0" encoding="iso-8859-1"?>
<!-- Generator: Adobe Illustrator 16.0.0, SVG Export Plug-In . SVG Version: 6.00 Build 0)  -->
<!DOCTYPE svg PUBLIC "-//W3C//DTD SVG 1.1//EN" "http://www.w3.org/Graphics/SVG/1.1/DTD/svg11.dtd">
<svg version="1.1" id="Capa_1" xmlns="http://www.w3.org/2000/svg" xmlns:xlink="http://www.w3.org/1999/xlink" x="0px" y="0px"
	 width="984.879px" height="984.879px" viewBox="0 0 984.879 984.879" style="enable-background:new 0 0 984.879 984.879;"
	 xml:space="preserve">
<g>
	<path d="M743.939,163.823l-225.2-156.2c-8-5.3-17.2-7.9-26.3-7.6c-9.2-0.3-18.4,2.3-26.3,7.6l-225.2,156.2
		c-12.5,8.4-20,22.4-20,37.4v738.6c0,36.1,40.4,57.5,70.3,37.2l175.101-121.7c7.899-5.3,17-7.9,26.1-7.8
		c9.1-0.2,18.2,2.399,26.1,7.8l175.101,121.7c29.899,20.3,70.3-1.101,70.3-37.2v-738.6
		C763.939,186.223,756.439,172.123,743.939,163.823z M492.439,466.224c-84.2,0-152.5-68.301-152.5-152.5s68.3-152.5,152.5-152.5
		s152.5,68.3,152.5,152.5S576.64,466.224,492.439,466.224z"/>
</g>
<g>
</g>
<g>
</g>
<g>
</g>
<g>
</g>
<g>
</g>
<g>
</g>
<g>
</g>
<g>
</g>
<g>
</g>
<g>
</g>
<g>
</g>
<g>
</g>
<g>
</g>
<g>
</g>
<g>
</g>
</svg>
