<?xml version="1.0" encoding="iso-8859-1"?>
<!-- Generator: Adobe Illustrator 16.0.0, SVG Export Plug-In . SVG Version: 6.00 Build 0)  -->
<!DOCTYPE svg PUBLIC "-//W3C//DTD SVG 1.1//EN" "http://www.w3.org/Graphics/SVG/1.1/DTD/svg11.dtd">
<svg version="1.1" id="Capa_1" xmlns="http://www.w3.org/2000/svg" xmlns:xlink="http://www.w3.org/1999/xlink" x="0px" y="0px"
	 width="993.9px" height="993.9px" viewBox="0 0 993.9 993.9" style="enable-background:new 0 0 993.9 993.9;" xml:space="preserve"
	>
<g>
	<path d="M234,788.45h112.5c12.3,0,22.3-10,22.3-22.301v-15.398c0-11.602-8.9-21.301-20.5-22.201c-8.3-0.699-16.7-1.5-25-2.299
		c-16.5-1.701-34.7-3.5-34.7-24.102l-0.1-434.699c65-1,100.6,36.6,119.5,92.2c3.1,9.1,11.6,15.3,21.2,15.3h16.3
		c12.3,0,22.3-10,22.3-22.3v-124.9c0-12.3-10-22.3-22.3-22.3H234h-0.1H22.3c-12.3,0-22.3,10-22.3,22.3v124.8
		c0,12.3,10,22.3,22.3,22.3h16.3c9.6,0,18.1-6.2,21.2-15.3c18.9-55.6,54.6-93.1,119.5-92.2l-0.1,434.7c0,20.5-18.2,22.301-34.7,24.1
		c-8.3,0.9-16.6,1.602-25,2.301c-11.6,1-20.5,10.6-20.5,22.199v15.4c0,12.301,10,22.301,22.3,22.301h112.5h0.2V788.45z"/>
	<path d="M971.7,205.45H760.1H760H548.5c-12.3,0-22.3,10-22.3,22.3v124.8c0,12.3,10,22.3,22.3,22.3h16.3c9.6,0,18.1-6.2,21.2-15.3
		c18.899-55.6,54.6-93.1,119.5-92.2l-0.101,434.7c0,20.5-18.199,22.301-34.699,24.1c-8.301,0.9-16.601,1.602-25,2.301
		c-11.601,1-20.5,10.6-20.5,22.199v15.4c0,12.301,10,22.301,22.3,22.301H760h0.1h112.5c12.3,0,22.3-10,22.3-22.301v-15.4
		c0-11.6-8.899-21.299-20.5-22.199c-8.3-0.699-16.699-1.5-25-2.301c-16.5-1.699-34.699-3.5-34.699-24.1l-0.101-434.7
		c65-1,100.601,36.6,119.5,92.2c3.101,9.1,11.601,15.3,21.2,15.3h16.3c12.3,0,22.3-10,22.3-22.3v-124.8
		C994,215.45,984,205.45,971.7,205.45z"/>
</g>
<g>
</g>
<g>
</g>
<g>
</g>
<g>
</g>
<g>
</g>
<g>
</g>
<g>
</g>
<g>
</g>
<g>
</g>
<g>
</g>
<g>
</g>
<g>
</g>
<g>
</g>
<g>
</g>
<g>
</g>
</svg>
