<?xml version="1.0" encoding="iso-8859-1"?>
<!-- Generator: Adobe Illustrator 16.0.0, SVG Export Plug-In . SVG Version: 6.00 Build 0)  -->
<!DOCTYPE svg PUBLIC "-//W3C//DTD SVG 1.1//EN" "http://www.w3.org/Graphics/SVG/1.1/DTD/svg11.dtd">
<svg version="1.1" id="Capa_1" xmlns="http://www.w3.org/2000/svg" xmlns:xlink="http://www.w3.org/1999/xlink" x="0px" y="0px"
	 width="120.951px" height="120.951px" viewBox="0 0 120.951 120.951" style="enable-background:new 0 0 120.951 120.951;"
	 xml:space="preserve">
<g>
	<path d="M37.55,92.951c2.9,2.9,6.7,4.3,10.5,4.3c3.8,0,7.6-1.399,10.5-4.3c5.8-5.8,5.8-15.2,0-20.899l-8.1-7.801h18.9
		c5.801,0,11.301,2.301,15.5,6.5c4.2,4.2,6.5,9.7,6.5,15.5v18.7c0,8.2,6.601,14.8,14.801,14.8c8.199,0,14.8-6.6,14.8-14.8v-18.8
		c0-6.9-1.4-13.7-4.101-20.1c-2.6-6.101-6.3-11.601-11.1-16.4c-4.7-4.7-10.2-8.5-16.4-11.1c-6.399-2.7-13.1-4.101-20.1-4.101h-18.8
		l8-8c5.8-5.8,5.8-15.2,0-20.899c-5.8-5.801-15.2-5.801-20.9,0L4.35,38.75c-5.8,5.801-5.8,15.2,0,20.9L37.55,92.951z"/>
</g>
<g>
</g>
<g>
</g>
<g>
</g>
<g>
</g>
<g>
</g>
<g>
</g>
<g>
</g>
<g>
</g>
<g>
</g>
<g>
</g>
<g>
</g>
<g>
</g>
<g>
</g>
<g>
</g>
<g>
</g>
</svg>
