<?xml version="1.0" encoding="iso-8859-1"?>
<!-- Generator: Adobe Illustrator 16.0.0, SVG Export Plug-In . SVG Version: 6.00 Build 0)  -->
<!DOCTYPE svg PUBLIC "-//W3C//DTD SVG 1.1//EN" "http://www.w3.org/Graphics/SVG/1.1/DTD/svg11.dtd">
<svg version="1.1" id="Capa_1" xmlns="http://www.w3.org/2000/svg" xmlns:xlink="http://www.w3.org/1999/xlink" x="0px" y="0px"
	 width="123.941px" height="123.941px" viewBox="0 0 123.941 123.941" style="enable-background:new 0 0 123.941 123.941;"
	 xml:space="preserve">
<g>
	<path d="M17.371,55.871c1.3,1.5,3.2,2.1,5.1,2.1h79c2,0,3.8-0.6,5.1-2.1l15.7-17.9c3.8-4.4,0.7-11-5.1-11H85.37l-13.6,14.2
		c-2.5,2.7-6.1,4.1-9.8,4.1s-7.2-1.5-9.8-4.1l-13.6-14.2h-31.8c-5.8,0-8.9,6.6-5.1,11L17.371,55.871z"/>
	<path d="M37.971,2.971c-3.1,0-4.7,3.8-2.5,6.1l17,17.9l7,7.3c0.7,0.7,1.6,1,2.5,1c0.899,0,1.8-0.3,2.5-1l7-7.3l17-17.9
		c2.2-2.3,0.6-6.1-2.5-6.1H37.971z"/>
	<path d="M6.771,96.971h31.8l13.6-14.2c2.5-2.7,6.1-4.1,9.8-4.1s7.2,1.5,9.8,4.1l13.6,14.2h31.801c5.8,0,8.899-6.8,5.1-11.1
		l-15.7-17.801c-1.3-1.5-3.2-2.1-5.1-2.1h-79c-2,0-3.8,0.6-5.1,2.1l-15.7,17.9C-2.129,90.371,0.971,96.971,6.771,96.971z"/>
	<path d="M64.471,89.671c-0.7-0.7-1.601-1-2.5-1c-0.9,0-1.8,0.3-2.5,1l-7,7.3l-17,17.9c-2.1,2.199-0.5,6.1,2.5,6.1h48
		c3.1,0,4.7-3.8,2.5-6.1l-16.9-17.9L64.471,89.671z"/>
</g>
<g>
</g>
<g>
</g>
<g>
</g>
<g>
</g>
<g>
</g>
<g>
</g>
<g>
</g>
<g>
</g>
<g>
</g>
<g>
</g>
<g>
</g>
<g>
</g>
<g>
</g>
<g>
</g>
<g>
</g>
</svg>
