<?xml version="1.0" encoding="iso-8859-1"?>
<!-- Generator: Adobe Illustrator 16.0.0, SVG Export Plug-In . SVG Version: 6.00 Build 0)  -->
<!DOCTYPE svg PUBLIC "-//W3C//DTD SVG 1.1//EN" "http://www.w3.org/Graphics/SVG/1.1/DTD/svg11.dtd">
<svg version="1.1" id="Capa_1" xmlns="http://www.w3.org/2000/svg" xmlns:xlink="http://www.w3.org/1999/xlink" x="0px" y="0px"
	 width="963.8px" height="963.799px" viewBox="0 0 963.8 963.799" style="enable-background:new 0 0 963.8 963.799;"
	 xml:space="preserve">
<g>
	<path d="M963.8,833.1V388.9c0-33.1-26.899-60-60-60H765.6v246c0,32.1-12.5,62.2-35.1,84.9c-22.6,22.699-52.9,35.1-84.9,35.1H258.3
		v138.2c0,33.1,26.9,60,60,60H903.9C937,893.1,963.8,866.2,963.8,833.1z"/>
	<path d="M0,130.7v444.2c0,33.1,26.9,60,60,60h198.2h387.3c33.1,0,60-26.9,60-60v-246V130.7c0-33.1-26.9-60-60-60H60
		C26.9,70.7,0,97.6,0,130.7z"/>
</g>
<g>
</g>
<g>
</g>
<g>
</g>
<g>
</g>
<g>
</g>
<g>
</g>
<g>
</g>
<g>
</g>
<g>
</g>
<g>
</g>
<g>
</g>
<g>
</g>
<g>
</g>
<g>
</g>
<g>
</g>
</svg>
