<?xml version="1.0" encoding="iso-8859-1"?>
<!-- Generator: Adobe Illustrator 16.0.0, SVG Export Plug-In . SVG Version: 6.00 Build 0)  -->
<!DOCTYPE svg PUBLIC "-//W3C//DTD SVG 1.1//EN" "http://www.w3.org/Graphics/SVG/1.1/DTD/svg11.dtd">
<svg version="1.1" id="Capa_1" xmlns="http://www.w3.org/2000/svg" xmlns:xlink="http://www.w3.org/1999/xlink" x="0px" y="0px"
	 width="950.75px" height="950.75px" viewBox="0 0 950.75 950.75" style="enable-background:new 0 0 950.75 950.75;"
	 xml:space="preserve">
<g>
	<path d="M884.875,500.75h-80.6c-27.101,0-50.601,17.2-56.301,43.7l-29.199,135.5c-5.7,26.5-29.2,45.8-56.301,45.8H288.275
		c-27.101,0-50.601-20.1-56.3-46.6l-29.2-134.101c-5.7-26.5-29.2-44.3-56.3-44.3h-80.6c-31.8,0-56.5,22.4-56.5,54.2v336.8
		c0,31.8,24.7,59,57.5,59h819c30.8,0,55.5-27.2,55.5-59v-336.8C941.375,523.15,916.675,500.75,884.875,500.75z"/>
	<path d="M146.375,298.649c0,0,273.1-272.699,273.2-272.699c34.6-34.601,86.5-34.601,121,0l272.5,272.699
		c34.5,34.5,36,88.601,1.7,122.801c-33.5,33.5-89.9,29.899-122.4-2.601l-122.3-122.399c0,0,0.3,289.6,0.3,289.7
		c0,24-10.1,47.1-27.6,63.6c-42.101,39.4-115.601,28.9-143.601-21.6c-7.1-12.801-10.8-27.301-10.8-42l0.3-289.7
		c0,0-122.2,122.3-122.3,122.399c-32.6,32.601-88.9,35.9-122.2,2.601C110.075,387.25,111.875,333.149,146.375,298.649z"/>
</g>
<g>
</g>
<g>
</g>
<g>
</g>
<g>
</g>
<g>
</g>
<g>
</g>
<g>
</g>
<g>
</g>
<g>
</g>
<g>
</g>
<g>
</g>
<g>
</g>
<g>
</g>
<g>
</g>
<g>
</g>
</svg>
