<?xml version="1.0" encoding="iso-8859-1"?>
<!-- Generator: Adobe Illustrator 16.0.0, SVG Export Plug-In . SVG Version: 6.00 Build 0)  -->
<!DOCTYPE svg PUBLIC "-//W3C//DTD SVG 1.1//EN" "http://www.w3.org/Graphics/SVG/1.1/DTD/svg11.dtd">
<svg version="1.1" id="Capa_1" xmlns="http://www.w3.org/2000/svg" xmlns:xlink="http://www.w3.org/1999/xlink" x="0px" y="0px"
	 width="123.295px" height="123.295px" viewBox="0 0 123.295 123.295" style="enable-background:new 0 0 123.295 123.295;"
	 xml:space="preserve">
<g>
	<path d="M51.298,27.6v-6.5c0-1.7-1.4-3.1-3.1-3.1h-6.5c-1.7,0-3.1,1.4-3.1,3.1v6.5c0,1.7,1.4,3.1,3.1,3.1h6.5
		C49.897,30.6,51.298,29.3,51.298,27.6z"/>
	<path d="M106.897,0h-90.5c-3.4,0-6.1,2.7-6.1,6.1v79.6v21c0,3.399,2.7,6.101,6.1,6.101h36.2V102.6h-29.1c-1.7,0-3.1-1.399-3.1-3.1
		v-5.699c0-1.701,1.4-3.101,3.1-3.101h29.1v-10h-19c-1.7,0-3.1-1.399-3.1-3.101V13.3c0-1.7,1.4-3.1,3.1-3.1h66.2
		c1.699,0,3.1,1.4,3.1,3.1V77.6c0,1.701-1.4,3.101-3.1,3.101h-17.7v10.2h17.899c-1.1,4.4-0.699,8.5,0.201,11.8H82.098v10.2h25.601
		c1.5,0,2.899-0.5,3.899-1.6c1.7-1.801,1.8-4.5,0.399-6.4c-1.899-2.6-2.799-6.301-2.5-9.5c0.201-1.801,0.701-3.5,1.5-5
		c0.5-1,1.201-1.801,1.601-2.801c0.399-0.899,0.399-1.799,0.399-2.799V6.1C112.997,2.8,110.298,0,106.897,0z"/>
	<path d="M40.598,62.9l21.8-21.7c2.801-2.8,6.9-2.8,9.6,0l21.701,21.7c2.699,2.699,2.899,7.1,0.1,9.8c-2.7,2.7-7.2,2.399-9.801-0.2
		l-9.799-9.8v53.601c0,1.899-0.801,3.799-2.201,5.1c-3.399,3.1-9.199,2.3-11.399-1.7c-0.6-1-0.9-2.2-0.9-3.3v-53.6
		c0,0-9.7,9.699-9.7,9.799c-2.6,2.601-7.1,2.9-9.7,0.201C37.698,70,37.897,65.7,40.598,62.9z"/>
</g>
<g>
</g>
<g>
</g>
<g>
</g>
<g>
</g>
<g>
</g>
<g>
</g>
<g>
</g>
<g>
</g>
<g>
</g>
<g>
</g>
<g>
</g>
<g>
</g>
<g>
</g>
<g>
</g>
<g>
</g>
</svg>
