<?xml version="1.0" encoding="iso-8859-1"?>
<!-- Generator: Adobe Illustrator 16.0.0, SVG Export Plug-In . SVG Version: 6.00 Build 0)  -->
<!DOCTYPE svg PUBLIC "-//W3C//DTD SVG 1.1//EN" "http://www.w3.org/Graphics/SVG/1.1/DTD/svg11.dtd">
<svg version="1.1" id="Capa_1" xmlns="http://www.w3.org/2000/svg" xmlns:xlink="http://www.w3.org/1999/xlink" x="0px" y="0px"
	 width="967.5px" height="967.5px" viewBox="0 0 967.5 967.5" style="enable-background:new 0 0 967.5 967.5;" xml:space="preserve"
	>
<g>
	<path d="M847.413,967.5c30.7,0,61.399-11.699,84.899-35.1c46.9-46.9,46.9-122.801,0-169.701L409.712,240h230.7
		c66.3,0,120-53.7,120-120c0-66.3-53.7-120-120-120h-520.4c-0.1,0-0.2,0-0.2,0c-19.8,0-39.5,5-56.9,14.4c0,0-0.1,0-0.1,0.1
		c-21.6,11.8-39.3,30.2-50.3,52.1c-8.3,16.5-12.5,35-12.5,53.4v520.4c0,66.299,53.7,120,120,120c66.3,0,120-53.701,120-120V409.7
		l522.601,522.601C786.012,955.801,816.712,967.5,847.413,967.5z"/>
</g>
<g>
</g>
<g>
</g>
<g>
</g>
<g>
</g>
<g>
</g>
<g>
</g>
<g>
</g>
<g>
</g>
<g>
</g>
<g>
</g>
<g>
</g>
<g>
</g>
<g>
</g>
<g>
</g>
<g>
</g>
</svg>
