<?xml version="1.0" encoding="iso-8859-1"?>
<!-- Generator: Adobe Illustrator 16.0.0, SVG Export Plug-In . SVG Version: 6.00 Build 0)  -->
<!DOCTYPE svg PUBLIC "-//W3C//DTD SVG 1.1//EN" "http://www.w3.org/Graphics/SVG/1.1/DTD/svg11.dtd">
<svg version="1.1" id="Capa_1" xmlns="http://www.w3.org/2000/svg" xmlns:xlink="http://www.w3.org/1999/xlink" x="0px" y="0px"
	 width="948px" height="948px" viewBox="0 0 948 948" style="enable-background:new 0 0 948 948;" xml:space="preserve">
<g>
	<path d="M328.401,546.8h-127c-66.3,0-120,53.7-120,120v190c0,49.7,175,90.101,392.6,91.2c217.701-1.1,392.599-41.5,392.599-91.2
		v-190c0-66.3-53.699-120-120-120h-127c-28.6,0-38.5-24.2-33-49.2C593,468.3,619.9,450.3,638.9,429c45.9-51.5,81-112.8,81-183.6
		C719.9,109.9,610,0,474.5,0c-0.2,0-0.299,0-0.5,0s-0.3,0-0.5,0c-135.5,0-245.4,109.9-245.4,245.4c0,70.8,35.1,132,81,183.6
		c19,21.3,45.801,39.3,52.301,68.6C366.8,522.6,357,546.8,328.401,546.8z"/>
</g>
<g>
</g>
<g>
</g>
<g>
</g>
<g>
</g>
<g>
</g>
<g>
</g>
<g>
</g>
<g>
</g>
<g>
</g>
<g>
</g>
<g>
</g>
<g>
</g>
<g>
</g>
<g>
</g>
<g>
</g>
</svg>
