<?xml version="1.0" encoding="iso-8859-1"?>
<!-- Generator: Adobe Illustrator 19.0.0, SVG Export Plug-In . SVG Version: 6.00 Build 0)  -->
<svg xmlns="http://www.w3.org/2000/svg" xmlns:xlink="http://www.w3.org/1999/xlink" version="1.1" id="Capa_1" x="0px" y="0px" viewBox="0 0 512 512" style="enable-background:new 0 0 512 512;" xml:space="preserve">
<g>
	<g>
		<path d="M484.567,195.908L288.647,0l-34.424,34.429c-9.718-12.268-23.322-20.584-38.845-23.54    c-4.035-0.768-8.152-1.155-12.239-1.155c-22.777,0-43.249,11.846-54.943,30.172l-0.985-0.194    c-4.668-0.885-9.43-1.342-14.156-1.342c-36.195,0-67.357,25.838-74.101,61.44c-3.788,19.78,0.375,39.883,11.717,56.567    c8.515,12.526,20.326,21.997,34.083,27.527l-77.32,77.315L129.39,363.17c-3.953,8.644-6.779,17.916-8.251,27.65    c-8.691,57.47,30.975,111.298,88.428,119.989c5.231,0.791,10.555,1.191,15.816,1.191c28.466,0,55.241-11.517,74.735-31.221    c3.859,1.237,7.835,2.164,11.893,2.785c3.753,0.569,7.583,0.857,11.377,0.857c37.133,0,69.328-27.732,74.893-64.495    c2.622-17.294-0.956-34.6-9.394-49.196c6.738-9.154,11.3-19.909,13.048-31.479c2.656-17.546-1.267-35.057-10.925-49.793    L484.567,195.908z M245.626,160.142c6.872-6.872,18.01-6.872,24.877-0.006c6.872,6.872,6.872,18.015,0,24.882    c-6.872,6.872-18.009,6.867-24.877,0C238.759,178.157,238.759,167.01,245.626,160.142z M262.216,267.957    c6.872,6.867,6.872,18.009,0,24.877c-6.873,6.872-18.009,6.867-24.877,0c-6.872-6.867-6.872-18.009,0-24.882    C244.201,261.084,255.349,261.084,262.216,267.957z M87.765,105.265c4.193-22.15,23.54-37.572,45.296-37.572    c2.862,0,5.765,0.27,8.685,0.827c11.16,2.117,20.449,8.228,27.076,16.426c-1.525-5.272-2.023-10.89-0.897-16.678    c3.278-17.212,18.314-29.204,35.221-29.204c2.229,0,4.486,0.206,6.756,0.64c9.993,1.9,18.209,7.788,23.364,15.693L128.782,159.875    c-1.425-0.135-2.862-0.34-4.298-0.61C99.406,154.501,82.968,130.34,87.765,105.265z M133.671,247.221    c9.16-9.16,24.015-9.16,33.169,0c9.165,9.165,9.165,24.02,0,33.174c-9.16,9.16-24.015,9.16-33.169,0    C124.505,271.241,124.505,256.381,133.671,247.221z M372.946,334.875c-2.369,15.717-13.177,27.914-27.076,33.11    c16.478,9.154,26.418,27.815,23.428,47.542c-3.489,23.029-23.316,39.567-45.906,39.567c-2.316,0-4.65-0.17-7.002-0.533    c-9.448-1.425-17.786-5.612-24.349-11.593c-13.101,24.056-38.569,39.707-66.653,39.707c-3.777,0-7.588-0.288-11.43-0.862    c-41.577-6.287-70.107-45.073-63.827-86.615c0.475-3.167,1.208-6.234,2.058-9.236l71.17,71.163l146.202-146.202    C372.887,318.161,374.23,326.407,372.946,334.875z M378.317,209.901c-9.16,9.165-24.015,9.165-33.169,0    c-9.165-9.16-9.165-24.015,0-33.169c9.16-9.16,24.015-9.16,33.169,0C387.484,185.886,387.484,200.741,378.317,209.901z"/>
	</g>
</g>
<g>
</g>
<g>
</g>
<g>
</g>
<g>
</g>
<g>
</g>
<g>
</g>
<g>
</g>
<g>
</g>
<g>
</g>
<g>
</g>
<g>
</g>
<g>
</g>
<g>
</g>
<g>
</g>
<g>
</g>
</svg>
