<?xml version="1.0" encoding="iso-8859-1"?>
<!-- Generator: Adobe Illustrator 19.0.0, SVG Export Plug-In . SVG Version: 6.00 Build 0)  -->
<svg xmlns="http://www.w3.org/2000/svg" xmlns:xlink="http://www.w3.org/1999/xlink" version="1.1" id="Capa_1" x="0px" y="0px" viewBox="0 0 512.001 512.001" style="enable-background:new 0 0 512.001 512.001;" xml:space="preserve">
<g>
	<g>
		<path d="M135.903,9.987v0.007L135.522,0H82.174v98.431l4.336-1.404c6.384-2.073,12.68-5.714,18.577-10.828    c5.904-5.101,11.372-11.643,15.98-19.197c9.253-15.127,14.937-34.285,14.905-53.242C135.972,12.471,135.947,11.219,135.903,9.987z    "/>
	</g>
</g>
<g>
	<g>
		<path d="M377.091,0l-0.429,9.311c-0.069,1.447-0.101,2.933-0.101,4.45c-0.012,14.545,3.293,29.197,9.046,42.053    c5.727,12.875,13.9,23.887,23.047,31.396c6.099,5.025,12.567,8.508,19.114,10.341l2.06,0.575V0H377.091z"/>
	</g>
</g>
<g>
	<g>
		<path d="M419.246,127.981c-11.347-3.179-21.674-8.944-30.688-16.377c-9.033-7.446-16.808-16.567-23.229-26.788    c-12.806-20.455-20.341-45.359-20.373-71.055c0-1.972,0.044-3.945,0.133-5.929v0.007L345.455,0h-73.652v94.814h18.963v31.605    h-50.568V0h-73.051l0.342,8.787c0.069,1.675,0.094,3.331,0.094,4.975c-0.013,18.843-4.096,37.269-11.296,53.823    c-7.218,16.542-17.528,31.27-30.523,42.528c-8.659,7.491-18.558,13.426-29.475,16.985l-14.115,4.576v7.39l12.641,372.938h132.741    L256,170.668l28.444,341.333h132.741l12.641-372.938v-8.116L419.246,127.981z"/>
	</g>
</g>
<g>
</g>
<g>
</g>
<g>
</g>
<g>
</g>
<g>
</g>
<g>
</g>
<g>
</g>
<g>
</g>
<g>
</g>
<g>
</g>
<g>
</g>
<g>
</g>
<g>
</g>
<g>
</g>
<g>
</g>
</svg>
