<?xml version="1.0" encoding="iso-8859-1"?>
<!-- Generator: Adobe Illustrator 19.0.0, SVG Export Plug-In . SVG Version: 6.00 Build 0)  -->
<svg xmlns="http://www.w3.org/2000/svg" xmlns:xlink="http://www.w3.org/1999/xlink" version="1.1" id="Capa_1" x="0px" y="0px" viewBox="0 0 512 512" style="enable-background:new 0 0 512 512;" xml:space="preserve">
<g>
	<g>
		<circle cx="255.995" cy="313.259" r="42.17"/>
	</g>
</g>
<g>
	<g>
		<path d="M87.32,0v475.914h42.17V512h42.17v-36.086h168.679V512h42.17v-36.086h42.17V0H87.32z M255.999,48.194    c29.947,0,54.218,24.271,54.218,54.218c0,29.947-24.271,54.218-54.218,54.218c-29.947,0-54.218-24.271-54.218-54.218    C201.781,72.465,226.052,48.194,255.999,48.194z M255.999,421.696c-59.881,0-108.436-48.556-108.436-108.436    c0-59.881,48.556-108.436,108.436-108.436c59.875,0,108.436,48.556,108.436,108.436    C364.435,373.141,315.874,421.696,255.999,421.696z"/>
	</g>
</g>
<g>
	<g>
		<circle cx="255.995" cy="102.413" r="18.073"/>
	</g>
</g>
<g>
</g>
<g>
</g>
<g>
</g>
<g>
</g>
<g>
</g>
<g>
</g>
<g>
</g>
<g>
</g>
<g>
</g>
<g>
</g>
<g>
</g>
<g>
</g>
<g>
</g>
<g>
</g>
<g>
</g>
</svg>
