<?xml version="1.0" encoding="iso-8859-1"?>
<!-- Generator: Adobe Illustrator 19.0.0, SVG Export Plug-In . SVG Version: 6.00 Build 0)  -->
<svg xmlns="http://www.w3.org/2000/svg" xmlns:xlink="http://www.w3.org/1999/xlink" version="1.1" id="Capa_1" x="0px" y="0px" viewBox="0 0 512 512" style="enable-background:new 0 0 512 512;" xml:space="preserve">
<g>
	<g>
		<path d="M34.594,0v442.811c0,38.054,31.135,69.189,69.189,69.189h304.433c38.054,0,69.189-31.135,69.189-69.189V0H34.594z     M390.912,41.513c17.208,0,31.142,13.934,31.142,31.135s-13.934,31.135-31.142,31.135c-17.194,0-31.128-13.934-31.128-31.135    S373.719,41.513,390.912,41.513z M300.966,41.513c17.208,0,31.142,13.934,31.142,31.135c0,17.194-13.934,31.135-31.142,31.135    c-17.194,0-31.128-13.942-31.128-31.135C269.837,55.449,283.773,41.513,300.966,41.513z M211.021,41.513    c17.208,0,31.142,13.934,31.142,31.135s-13.934,31.135-31.142,31.135c-17.194,0-31.128-13.934-31.128-31.135    S193.827,41.513,211.021,41.513z M121.075,41.513c17.208,0,31.142,13.934,31.142,31.135c0,17.194-13.934,31.135-31.142,31.135    c-17.194,0-31.128-13.942-31.128-31.135C89.946,55.449,103.88,41.513,121.075,41.513z M415.135,442.811H96.865V242.163h318.27    V442.811z M428.974,172.972h-0.001H83.028v-34.594h345.946V172.972z"/>
	</g>
</g>
<g>
</g>
<g>
</g>
<g>
</g>
<g>
</g>
<g>
</g>
<g>
</g>
<g>
</g>
<g>
</g>
<g>
</g>
<g>
</g>
<g>
</g>
<g>
</g>
<g>
</g>
<g>
</g>
<g>
</g>
</svg>
