<?xml version="1.0" encoding="iso-8859-1"?>
<!-- Generator: Adobe Illustrator 19.0.0, SVG Export Plug-In . SVG Version: 6.00 Build 0)  -->
<svg xmlns="http://www.w3.org/2000/svg" xmlns:xlink="http://www.w3.org/1999/xlink" version="1.1" id="Capa_1" x="0px" y="0px" viewBox="0 0 512 512" style="enable-background:new 0 0 512 512;" xml:space="preserve">
<g>
	<g>
		<path d="M227.556,0v151.703h-31.605V0h-31.605v151.703h-31.605V0h-31.606c0,0,0,153.795,0,154.864    c0,33.387,20.745,61.882,50.024,73.45l-18.261,239.438c1.631,24.703,22.13,44.247,47.249,44.247    c25.114,0,45.618-19.545,47.249-44.247l-18.261-239.438c29.273-11.567,50.024-40.062,50.024-73.45c0-1.069,0-154.864,0-154.864    H227.556z"/>
	</g>
</g>
<g>
	<g>
		<path d="M132.742,464.592c0,26.188,21.219,47.407,47.407,47.407c26.181,0,47.407-21.219,47.407-47.407L132.742,464.592z"/>
	</g>
</g>
<g>
	<g>
		<path d="M410.864,94.492c0-54.366-50.568-94.505-107.387-94.492v464.592h-0.069c0,0.449,0.057,0.892,0.069,1.333v1.826h0.094    c1.631,24.703,22.13,44.247,47.249,44.247c25.114,0,45.613-19.545,47.249-44.247h0.227l-0.17-1.112    c0.019-0.683,0.094-1.36,0.094-2.048h-0.417l-34.589-224.395h47.648V94.492z"/>
	</g>
</g>
<g>
</g>
<g>
</g>
<g>
</g>
<g>
</g>
<g>
</g>
<g>
</g>
<g>
</g>
<g>
</g>
<g>
</g>
<g>
</g>
<g>
</g>
<g>
</g>
<g>
</g>
<g>
</g>
<g>
</g>
</svg>
