<?xml version="1.0" encoding="iso-8859-1"?>
<!-- Generator: Adobe Illustrator 19.0.0, SVG Export Plug-In . SVG Version: 6.00 Build 0)  -->
<svg xmlns="http://www.w3.org/2000/svg" xmlns:xlink="http://www.w3.org/1999/xlink" version="1.1" id="Capa_1" x="0px" y="0px" viewBox="0 0 512 512" style="enable-background:new 0 0 512 512;" xml:space="preserve">
<g>
	<g>
		<path d="M451.4,154.256l-20.706-20.526l-25.091,25.307l-16.56-16.421l32.847-33.126l-20.706-20.53l-32.847,33.133l-16.56-16.414    l25.091-25.307l-20.706-20.532L331.07,85.145l-24.852-24.636l-20.526,20.706l24.841,24.636l-16.421,16.56l-33.132-32.84    l-20.526,20.712l33.133,32.84l-16.421,16.56l-24.852-24.636l-20.526,20.712l24.852,24.636l-25.091,25.301l20.695,20.531    l25.091-25.307l16.572,16.414l-32.847,33.133L261.766,271l32.847-33.133l16.572,16.432l-25.08,25.295l20.706,20.531l25.08-25.301    l24.852,24.63l20.526-20.712l-24.841-24.625l16.409-16.572l33.133,32.84l20.526-20.712l-33.12-32.835l16.409-16.566l24.851,24.638    l20.526-20.712l-24.852-24.63L451.4,154.256z M294.439,196.626l-16.56-16.416l16.421-16.56l16.56,16.409L294.439,196.626z     M331.245,126.377l16.572,16.421l-16.421,16.56l-16.56-16.414L331.245,126.377z M331.723,233.588l-16.583-16.426l16.421-16.566    l16.572,16.426L331.723,233.588z M368.668,196.31l-16.572-16.421l16.421-16.566l16.56,16.426L368.668,196.31z"/>
	</g>
</g>
<g>
	<g>
		<path d="M499.722,97.368c-7.517-19.534-18.986-37.587-34.374-52.835c-15.184-15.068-33.074-26.287-52.375-33.634    C393.648,3.528,372.931,0,351.817,0C295.063,0.075,235.294,25.243,188.33,72.556c-46.456,46.917-71.075,106.213-71.134,162.466    c0,12.893,1.335,25.634,4.017,37.989L88.676,382.649l-87.548,88.3L42.541,512l87.361-88.12l106.99-33.872    c12.788,2.903,25.989,4.333,39.36,4.333c56.737-0.07,116.505-25.231,163.475-72.539h0.011    c46.445-46.935,71.063-106.226,71.134-162.479C510.872,137.911,507.25,116.913,499.722,97.368z M131.919,380.428l14.689-49.518    c4.781,6.671,10.134,12.998,16.094,18.904c5.639,5.592,11.65,10.647,17.96,15.184L131.919,380.428z M410.74,293.065    c-39.733,40.159-89.985,60.521-134.488,60.451c-16.583,0-32.333-2.769-46.625-8.216c-14.303-5.464-27.161-13.546-38.188-24.468    c-11.161-11.079-19.429-24.047-25.009-38.52c-5.581-14.467-8.415-30.462-8.415-47.284c-0.07-44.194,19.872-94.033,59.302-133.736    c39.733-40.159,89.985-60.533,134.5-60.463c16.572,0,32.322,2.776,46.613,8.222c14.303,5.458,27.15,13.539,38.176,24.473    c11.172,11.079,19.44,24.047,25.032,38.52c5.569,14.461,8.415,30.45,8.415,47.279C470.112,203.517,450.17,253.338,410.74,293.065z    "/>
	</g>
</g>
<g>
</g>
<g>
</g>
<g>
</g>
<g>
</g>
<g>
</g>
<g>
</g>
<g>
</g>
<g>
</g>
<g>
</g>
<g>
</g>
<g>
</g>
<g>
</g>
<g>
</g>
<g>
</g>
<g>
</g>
</svg>
