<?xml version="1.0" encoding="iso-8859-1"?>
<!-- Generator: Adobe Illustrator 19.0.0, SVG Export Plug-In . SVG Version: 6.00 Build 0)  -->
<svg xmlns="http://www.w3.org/2000/svg" xmlns:xlink="http://www.w3.org/1999/xlink" version="1.1" id="Capa_1" x="0px" y="0px" viewBox="0 0 512 512" style="enable-background:new 0 0 512 512;" xml:space="preserve">
<g>
	<g>
		<path d="M430.666,237.137c-2.666-37.051-51.431-89.675-118.471-110.012V74.927h-37.463V31.219h49.951V0H193.561    c-3.023,0.012-5.795,0.331-8.654,0.781c-2.86,0.475-5.588,1.049-8.448,1.986l-50.282,16.765l9.878,29.621l50.27-16.765    c0.394-0.137,2.03-0.55,3.583-0.793c1.555-0.256,3.24-0.387,3.653-0.375h37.463v43.708h-31.219v52.199    c-67.041,20.336-115.806,72.96-118.471,110.005l-0.163,0.137V512h349.658V237.268L430.666,237.137z M181.073,405.853V287.219    h149.853v118.634H181.073z"/>
	</g>
</g>
<g>
</g>
<g>
</g>
<g>
</g>
<g>
</g>
<g>
</g>
<g>
</g>
<g>
</g>
<g>
</g>
<g>
</g>
<g>
</g>
<g>
</g>
<g>
</g>
<g>
</g>
<g>
</g>
<g>
</g>
</svg>
