<?xml version="1.0" encoding="iso-8859-1"?>
<!-- Generator: Adobe Illustrator 19.0.0, SVG Export Plug-In . SVG Version: 6.00 Build 0)  -->
<svg xmlns="http://www.w3.org/2000/svg" xmlns:xlink="http://www.w3.org/1999/xlink" version="1.1" id="Capa_1" x="0px" y="0px" viewBox="0 0 511.999 511.999" style="enable-background:new 0 0 511.999 511.999;" xml:space="preserve">
<g>
	<g>
		<circle cx="255.996" cy="315.076" r="45.949"/>
	</g>
</g>
<g>
	<g>
		<path d="M374.153,0H137.847H72.205v65.641v13.128v334.769c0,36.103,29.538,65.641,65.641,65.641h6.564v32.82h45.949v-32.82H321.64    v32.82h45.949v-32.82h6.564c36.103,0,65.641-29.538,65.641-65.641V78.77V65.642V0H374.153z M255.999,45.949    c32.631,0,59.077,26.446,59.077,59.077c0,32.631-26.446,59.077-59.077,59.077c-32.63,0-59.077-26.446-59.077-59.077    C196.922,72.396,223.37,45.949,255.999,45.949z M255.999,433.23c-65.247,0-118.154-52.907-118.154-118.154    s52.907-118.154,118.154-118.154c65.241,0,118.154,52.907,118.154,118.154S321.24,433.23,255.999,433.23z"/>
	</g>
</g>
<g>
	<g>
		<circle cx="255.996" cy="105.021" r="19.693"/>
	</g>
</g>
<g>
</g>
<g>
</g>
<g>
</g>
<g>
</g>
<g>
</g>
<g>
</g>
<g>
</g>
<g>
</g>
<g>
</g>
<g>
</g>
<g>
</g>
<g>
</g>
<g>
</g>
<g>
</g>
<g>
</g>
</svg>
