<?xml version="1.0" encoding="iso-8859-1"?>
<!-- Generator: Adobe Illustrator 19.0.0, SVG Export Plug-In . SVG Version: 6.00 Build 0)  -->
<svg xmlns="http://www.w3.org/2000/svg" xmlns:xlink="http://www.w3.org/1999/xlink" version="1.1" id="Capa_1" x="0px" y="0px" viewBox="0 0 512 512" style="enable-background:new 0 0 512 512;" xml:space="preserve">
<g>
	<g>
		<path d="M397.557,196.488l-53.089,53.089l-20.11-20.11l47.263-47.268l-34.851-19.206l-56.656,56.649l-20.11-20.11l50.83-50.836    l-41.54-22.886c-13.568-7.788-33.001-4.443-43.179,7.436l-31.243,36.443c-10.177,11.878-31.312,21.601-46.956,21.601h-28.444    c-15.644,0-34.844-10.24-42.667-22.756c-7.828-12.515-27.028-22.756-42.673-22.756h-5.689C12.8,145.777,0,158.577,0,174.221    v68.267c47.576,0,87.045,34.383,95.118,79.644H512v-62.577L397.557,196.488z"/>
	</g>
</g>
<g>
	<g>
		<rect y="350.572" width="512" height="39.823"/>
	</g>
</g>
<g>
</g>
<g>
</g>
<g>
</g>
<g>
</g>
<g>
</g>
<g>
</g>
<g>
</g>
<g>
</g>
<g>
</g>
<g>
</g>
<g>
</g>
<g>
</g>
<g>
</g>
<g>
</g>
<g>
</g>
</svg>
