<?xml version="1.0" encoding="iso-8859-1"?>
<!-- Generator: Adobe Illustrator 19.0.0, SVG Export Plug-In . SVG Version: 6.00 Build 0)  -->
<svg xmlns="http://www.w3.org/2000/svg" xmlns:xlink="http://www.w3.org/1999/xlink" version="1.1" id="Capa_1" x="0px" y="0px" viewBox="0 0 512.001 512.001" style="enable-background:new 0 0 512.001 512.001;" xml:space="preserve">
<g>
	<g>
		<path d="M498.648,347.631c-7.905-11.644-18.892-20.975-31.819-26.946L276.135,212.29V178.2    c10.976-3.348,20.82-9.336,28.678-17.212c12.46-12.426,20.233-29.805,20.221-48.807c0.011-19.002-7.76-36.387-20.221-48.813    C292.381,50.908,275.002,43.135,256,43.147c-19.002-0.011-36.387,7.76-48.813,20.221c-12.46,12.426-20.233,29.811-20.221,48.813    h40.27c0.011-8.013,3.187-15.066,8.428-20.336c5.27-5.241,12.328-8.416,20.336-8.428c8.008,0.011,15.066,3.187,20.336,8.428    c5.235,5.27,8.416,12.323,8.428,20.336c-0.011,8.008-3.193,15.066-8.428,20.336c-5.27,5.235-12.328,8.416-20.336,8.428h-20.135    v71.335L42.266,322.094c-11.931,6.115-22.045,15.165-29.391,26.261C4.746,360.615-0.006,375.439,0,391.191    c-0.011,21.383,8.727,40.919,22.747,54.917c13.991,14.019,33.534,22.758,54.917,22.747h356.674    c21.383,0.011,40.926-8.727,54.917-22.747c14.025-13.996,22.758-33.534,22.747-54.917    C512.006,375.123,507.07,360.022,498.648,347.631z M460.783,417.631c-6.835,6.795-16.05,10.942-26.445,10.953H77.663    c-10.395-0.011-19.612-4.16-26.445-10.953c-6.8-6.829-10.936-16.044-10.948-26.44c0.006-7.692,2.267-14.676,6.178-20.601    c3.912-5.914,9.498-10.677,16.004-13.577l-0.029-0.058l193.559-109.792c0,0,192.26,109.292,192.771,109.499    c6.719,2.808,12.501,7.582,16.557,13.57c4.061,6.001,6.403,13.111,6.414,20.957C471.719,401.586,467.577,410.803,460.783,417.631z    "/>
	</g>
</g>
<g>
</g>
<g>
</g>
<g>
</g>
<g>
</g>
<g>
</g>
<g>
</g>
<g>
</g>
<g>
</g>
<g>
</g>
<g>
</g>
<g>
</g>
<g>
</g>
<g>
</g>
<g>
</g>
<g>
</g>
</svg>
