<?xml version="1.0" encoding="iso-8859-1"?>
<!-- Generator: Adobe Illustrator 19.0.0, SVG Export Plug-In . SVG Version: 6.00 Build 0)  -->
<svg xmlns="http://www.w3.org/2000/svg" xmlns:xlink="http://www.w3.org/1999/xlink" version="1.1" id="Capa_1" x="0px" y="0px" viewBox="0 0 512 512" style="enable-background:new 0 0 512 512;" xml:space="preserve">
<g>
	<g>
		<path d="M450.313,120.289h-98.698l-18.506-55.518H185.061l-18.506,55.518H92.53V89.447H49.355v30.843H0v74.024h177.67v-0.001    c21.732-19.147,50.182-30.843,81.414-30.843c31.238,0,59.688,11.696,81.42,30.843H512v-74.025H450.313z"/>
	</g>
</g>
<g>
	<g>
		<path d="M365.821,225.157c10.518,18.154,16.636,39.19,16.636,61.687c0,68.145-55.228,123.373-123.373,123.373    c-68.133,0-123.373-55.228-123.373-123.373c0-22.497,6.12-43.533,16.636-61.687H0v160.386c0,33.928,27.758,61.687,61.687,61.687    h388.627c33.928,0,61.687-27.758,61.687-61.687V225.157H365.821z"/>
	</g>
</g>
<g>
	<g>
		<path d="M259.084,194.313c-51.021,0-92.53,41.509-92.53,92.53s41.509,92.53,92.53,92.53c51.021,0,92.53-41.509,92.53-92.53    C351.614,235.822,310.105,194.313,259.084,194.313z"/>
	</g>
</g>
<g>
</g>
<g>
</g>
<g>
</g>
<g>
</g>
<g>
</g>
<g>
</g>
<g>
</g>
<g>
</g>
<g>
</g>
<g>
</g>
<g>
</g>
<g>
</g>
<g>
</g>
<g>
</g>
<g>
</g>
</svg>
