<?xml version="1.0" encoding="iso-8859-1"?>
<!-- Generator: Adobe Illustrator 19.0.0, SVG Export Plug-In . SVG Version: 6.00 Build 0)  -->
<svg xmlns="http://www.w3.org/2000/svg" xmlns:xlink="http://www.w3.org/1999/xlink" version="1.1" id="Capa_1" x="0px" y="0px" viewBox="0 0 512 512" style="enable-background:new 0 0 512 512;" xml:space="preserve">
<g>
	<g>
		<path d="M368.071,142.391c3.205-2.145,6.32-4.424,9.228-6.944c7.84-6.853,14.548-15.136,19.395-24.703    c4.842-9.549,7.755-20.468,7.75-31.968c0.007-20.947-7.532-40.59-21.008-55.126c-6.72-7.253-14.936-13.221-24.242-17.311    C349.905,2.211,339.526-0.012,328.71,0c-11.1,0-21.565,1.387-31.271,4.327c-14.555,4.363-27.345,12.493-36.876,23.425    c-5.095,5.811-9.21,12.33-12.549,19.31c-12.354-10.452-28.757-16.827-46.547-16.766c-17.505-0.012-33.537,7.15-44.99,18.632    c-11.482,11.452-18.644,27.485-18.632,44.99c-0.012,9.658,2.624,18.753,6.786,26.509c4.787,8.895,11.44,16.184,19.092,21.965    H13.633v121.183h484.733V142.391H368.071z M207.527,115.119c-2.988,0.007-6.477-0.636-9.919-1.951    c-5.175-1.927-10.076-5.429-13.1-9.113c-1.533-1.836-2.617-3.678-3.284-5.374c-0.673-1.696-0.957-3.217-0.964-4.769    c0.011-5.926,2.344-11.089,6.21-14.991c3.902-3.872,9.07-6.198,14.997-6.21c8.204,0.061,14.269,2.599,19.523,7.01    c5.187,4.429,9.349,11.094,11.409,19.335c0.061,0.224,0.279,1.309,0.479,2.726c0.357,2.52,1.103,12.209,1.169,13.336    C224.063,115.119,213.234,115.119,207.527,115.119z M358.849,91.603c-3.156,6.302-8.931,12.434-16.111,16.754    c-7.156,4.356-15.512,6.793-23.11,6.768c-8.362,0-40.299,0-41.402,0c0.163-2.957,1.533-21.564,2.133-26.866    c0.303-2.648,0.618-5.053,0.928-7.041c0.309-1.975,0.63-3.562,0.83-4.302c1.587-6.241,3.727-11.397,6.247-15.573    c3.841-6.265,8.277-10.459,14.458-13.664c6.181-3.156,14.5-5.26,25.891-5.265c5.078,0.007,9.465,1.006,13.372,2.721    c5.829,2.581,10.682,6.853,14.245,12.591c3.545,5.738,5.707,12.912,5.707,21.044C362.029,83.163,360.97,87.386,358.849,91.603z"/>
	</g>
</g>
<g>
	<g>
		<path d="M43.929,293.87v157.539c0,33.326,27.266,60.592,60.591,60.592h302.959c33.326,0,60.592-27.266,60.592-60.592V293.87    H43.929z"/>
	</g>
</g>
<g>
</g>
<g>
</g>
<g>
</g>
<g>
</g>
<g>
</g>
<g>
</g>
<g>
</g>
<g>
</g>
<g>
</g>
<g>
</g>
<g>
</g>
<g>
</g>
<g>
</g>
<g>
</g>
<g>
</g>
</svg>
