<?xml version="1.0" encoding="iso-8859-1"?>
<!-- Generator: Adobe Illustrator 19.0.0, SVG Export Plug-In . SVG Version: 6.00 Build 0)  -->
<svg xmlns="http://www.w3.org/2000/svg" xmlns:xlink="http://www.w3.org/1999/xlink" version="1.1" id="Capa_1" x="0px" y="0px" viewBox="0 0 512 512" style="enable-background:new 0 0 512 512;" xml:space="preserve">
<g>
	<g>
		<path d="M471.083,191.814c8.006-26.115-9.748-68.978-45.839-105.075S346.284,32.9,320.169,40.913L279.268,0L0.003,279.267    L40.91,320.18c-8.006,26.109,9.737,68.979,45.826,105.075c36.089,36.097,78.96,53.839,105.075,45.826L232.731,512l279.267-279.272    L471.083,191.814z M307.436,327.271l-9.7-9.695c-2.363,1.58-4.782,3.016-7.295,4.177c-6.145,2.867-12.728,4.434-19.299,4.434    c-10.838,0.072-21.435-4.453-29.101-12.214l21.154-21.166c2.627,2.531,4.919,3.392,7.947,3.459c1.849,0,4.057-0.419,6.66-1.633    c2.603-1.215,5.601-3.238,8.706-6.349v0.012c4.022-4.01,7.109-7.971,8.965-11.328c1.891-3.375,2.489-5.96,2.477-7.677    c-0.012-1.101-0.173-1.969-0.665-3.105c-0.502-1.119-1.388-2.543-3.154-4.315c-1.903-1.897-3.375-2.788-4.524-3.291    c-1.155-0.49-2.083-0.665-3.357-0.676c-1.532-0.012-3.668,0.365-6.367,1.365c-2.699,0.982-5.888,2.561-9.359,4.518    c-6.989,3.902-14.823,9.317-23.9,13.577c-6.068,2.788-12.938,5.212-21.004,5.254c-4.524,0.012-9.359-0.874-13.919-2.837    c-4.572-1.951-8.767-4.913-12.447-8.599c-3.447-3.447-6.439-7.654-8.647-12.614c-2.196-4.948-3.578-10.675-3.578-16.833    c0-5.996,1.334-12.339,4.135-18.479c1.203-2.651,2.723-5.248,4.453-7.81l-9.467-9.467l21.154-21.147l9.844,9.849    c1.975-1.274,3.961-2.459,5.996-3.471c6.732-3.369,13.871-5.248,21.004-5.242c5.361-0.006,10.67,1.083,15.511,3.172    c4.841,2.083,9.173,5.116,12.842,8.802l-21.166,21.142c-1.239-1.227-2.382-1.981-3.506-2.466c-1.131-0.479-2.244-0.724-3.681-0.73    c-1.873,0-4.392,0.479-7.666,2.107c-3.273,1.621-7.223,4.411-11.549,8.737c-3.447,3.447-5.41,6.462-6.534,8.916    c-1.113,2.471-1.437,4.392-1.448,6.091c0.012,1.729,0.377,3.261,1.005,4.698c0.628,1.412,1.556,2.699,2.442,3.59    c1.4,1.388,2.382,1.951,3.088,2.256c0.712,0.294,1.239,0.401,2.137,0.413c1.167,0.012,3.088-0.317,5.667-1.304    c2.561-0.97,5.703-2.561,9.149-4.535c6.954-3.938,14.937-9.425,24.301-13.686c6.242-2.801,13.357-5.153,21.519-5.176    c4.967-0.018,10.251,0.957,15.254,3.142c5.002,2.16,9.641,5.445,13.77,9.586c3.985,3.961,7.187,8.449,9.359,13.344    c2.172,4.883,3.249,10.143,3.238,15.229c-0.012,8.216-2.609,15.709-6.266,22.267c-0.898,1.603-1.873,3.154-2.897,4.68l9.874,9.868    L307.436,327.271z"/>
	</g>
</g>
<g>
</g>
<g>
</g>
<g>
</g>
<g>
</g>
<g>
</g>
<g>
</g>
<g>
</g>
<g>
</g>
<g>
</g>
<g>
</g>
<g>
</g>
<g>
</g>
<g>
</g>
<g>
</g>
<g>
</g>
</svg>
