<?xml version="1.0" encoding="iso-8859-1"?>
<!-- Generator: Adobe Illustrator 19.0.0, SVG Export Plug-In . SVG Version: 6.00 Build 0)  -->
<svg xmlns="http://www.w3.org/2000/svg" xmlns:xlink="http://www.w3.org/1999/xlink" version="1.1" id="Capa_1" x="0px" y="0px" viewBox="0 0 512.001 512.001" style="enable-background:new 0 0 512.001 512.001;" xml:space="preserve">
<g>
	<g>
		<path d="M368,0.185V64h-32V0.262l-32,0.09V96h-32V0.435L227.2,0.55v229.849c0,0-75.756,64.96-130.042,121.415    C84.173,365.325,73.6,394.637,73.6,414.772c0,53.69,43.539,97.229,97.229,97.229c31.75,0,63.98-16.589,85.127-37.152    c59.431-57.824,145.094-138.426,145.094-138.426c20.211-23.085,37.351-45.472,37.351-76.602V0L368,0.185z M224.723,442.74    c-15.047,14.63-36.71,24.461-53.895,24.461c-28.909,0-52.429-23.527-52.429-52.429c0-10.016,7.014-27.482,11.047-31.904    c8.428-8.762,17.434-17.766,26.605-26.72l77.76,77.767C230.727,436.903,227.686,439.854,224.723,442.74z M393.6,259.828    c0,14.151-8.026,26.119-24.864,45.485c-2.809,2.65-9.171,8.647-17.914,16.908c-14.893-12.557-24.428-31.213-24.423-52.224    c0.007-18.944,7.629-35.936,20.032-48.371c12.16-12.135,28.711-19.642,47.168-19.962V259.828z"/>
	</g>
</g>
<g>
</g>
<g>
</g>
<g>
</g>
<g>
</g>
<g>
</g>
<g>
</g>
<g>
</g>
<g>
</g>
<g>
</g>
<g>
</g>
<g>
</g>
<g>
</g>
<g>
</g>
<g>
</g>
<g>
</g>
</svg>
