<?xml version="1.0" encoding="iso-8859-1"?>
<!-- Generator: Adobe Illustrator 19.0.0, SVG Export Plug-In . SVG Version: 6.00 Build 0)  -->
<svg version="1.1" id="Capa_1" xmlns="http://www.w3.org/2000/svg" xmlns:xlink="http://www.w3.org/1999/xlink" x="0px" y="0px"
	 viewBox="0 0 397.4 397.4" style="enable-background:new 0 0 397.4 397.4;" xml:space="preserve">
<g>
	<g>
		<path d="M302.7,41.7h-73c-5.5,0-10,4.5-10,10v241c0,5.5,4.5,10,10,10h73c5.5,0,10-4.5,10-10v-241
			C312.7,46.2,308.2,41.7,302.7,41.7z M293.7,282.7h-54v-221h54V282.7z"/>
	</g>
</g>
<g>
	<g>
		<path d="M166.7,115.7h-73c-5.5,0-10,4.5-10,10v168c0,5.5,4.5,10,10,10h73c5.5,0,10-4.5,10-10v-168
			C176.7,120.2,172.2,115.7,166.7,115.7z M157.7,282.7h-54v-147h54V282.7z"/>
	</g>
</g>
<g>
	<g>
		<path d="M387.4,335.7H10c-5.5,0-10,4.5-10,10s4.5,10,10,10h377.4c5.5,0,10-4.5,10-10S392.9,335.7,387.4,335.7z"/>
	</g>
</g>
<g>
</g>
<g>
</g>
<g>
</g>
<g>
</g>
<g>
</g>
<g>
</g>
<g>
</g>
<g>
</g>
<g>
</g>
<g>
</g>
<g>
</g>
<g>
</g>
<g>
</g>
<g>
</g>
<g>
</g>
</svg>
