<?xml version="1.0" encoding="iso-8859-1"?>
<!-- Generator: Adobe Illustrator 19.0.0, SVG Export Plug-In . SVG Version: 6.00 Build 0)  -->
<svg version="1.1" id="Capa_1" xmlns="http://www.w3.org/2000/svg" xmlns:xlink="http://www.w3.org/1999/xlink" x="0px" y="0px"
	 viewBox="0 0 407.889 407.889" style="enable-background:new 0 0 407.889 407.889;" xml:space="preserve">
<g>
	<g>
		<path d="M397.889,68.945h-208.7c-5.5,0-10,4.5-10,10s4.5,10,10,10h208.7c5.5,0,10-4.5,10-10S403.489,68.945,397.889,68.945z"/>
	</g>
</g>
<g>
	<g>
		<path d="M340.489,151.945h-151.3c-5.5,0-10,4.5-10,10s4.5,10,10,10h151.3c5.5,0,10-4.5,10-10S345.989,151.945,340.489,151.945z"/>
	</g>
</g>
<g>
	<g>
		<path d="M397.889,235.945h-208.7c-5.5,0-10,4.5-10,10s4.5,10,10,10h208.7c5.5,0,10-4.5,10-10S403.489,235.945,397.889,235.945z"/>
	</g>
</g>
<g>
	<g>
		<path d="M298.789,318.945h-109.6c-5.5,0-10,4.5-10,10s4.5,10,10,10h109.6c5.5,0,10-4.5,10-10S304.289,318.945,298.789,318.945z"/>
	</g>
</g>
<g>
	<g>
		<path d="M128.689,280.845c-1.7-1.3-3.9-2-6-2h-46.7v-149.9h46.6c5.5,0,10-4.4,10-9.9c0-2.2-0.7-4.3-2-6l-56.3-75.2
			c-1.9-2.5-4.9-3.9-8-3.9c-3.1-0.1-6.1,1.4-8,3.9l-56.3,75.2c-3.3,4.4-2.4,10.6,2,13.9c1.7,1.3,3.9,2,6,2h46v150h-45.9
			c-5.5,0-10,4.4-10,9.9c0,2.2,0.7,4.3,2,6l56.3,75.2c1.9,2.5,4.9,3.9,8,3.9c3.1,0.1,6.1-1.4,8-3.9l56.3-75.3
			C133.989,290.345,133.089,284.145,128.689,280.845z M29.989,108.945l36.3-48.6l36.4,48.6H29.989z M66.389,347.545l-36.4-48.6h72.7
			L66.389,347.545z"/>
	</g>
</g>
<g>
</g>
<g>
</g>
<g>
</g>
<g>
</g>
<g>
</g>
<g>
</g>
<g>
</g>
<g>
</g>
<g>
</g>
<g>
</g>
<g>
</g>
<g>
</g>
<g>
</g>
<g>
</g>
<g>
</g>
</svg>
