<?xml version="1.0" encoding="iso-8859-1"?>
<!-- Generator: Adobe Illustrator 19.0.0, SVG Export Plug-In . SVG Version: 6.00 Build 0)  -->
<svg version="1.1" id="Capa_1" xmlns="http://www.w3.org/2000/svg" xmlns:xlink="http://www.w3.org/1999/xlink" x="0px" y="0px"
	 viewBox="0 0 362 362" style="enable-background:new 0 0 362 362;" xml:space="preserve">
<g>
	<g>
		<path d="M352,84.401c5.5,0,10-4.5,10-10v-59.9c-0.2-5.6-4.8-10.1-10.3-10H10.3c-5.6-0.1-10.2,4.4-10.3,9.9v59.9
			c0,5.5,4.5,10,10,10s10-4.5,10-10v-49.8h151v183H10.3c-5.5,0-10,4.5-10,10s4.5,10,10,10H171v110h-66.9c-5.5,0-10,4.5-10,10
			s4.5,10,10,10h153.7c5.5,0,10-4.5,10-10s-4.5-10-10-10H191v-110h160.7c5.5,0,10-4.5,10-10s-4.5-10-10-10H191v-183h151v49.9
			C342,79.901,346.5,84.401,352,84.401z"/>
	</g>
</g>
<g>
</g>
<g>
</g>
<g>
</g>
<g>
</g>
<g>
</g>
<g>
</g>
<g>
</g>
<g>
</g>
<g>
</g>
<g>
</g>
<g>
</g>
<g>
</g>
<g>
</g>
<g>
</g>
<g>
</g>
</svg>
