<?xml version="1.0" encoding="iso-8859-1"?>
<!-- Generator: Adobe Illustrator 19.0.0, SVG Export Plug-In . SVG Version: 6.00 Build 0)  -->
<svg version="1.1" id="Capa_1" xmlns="http://www.w3.org/2000/svg" xmlns:xlink="http://www.w3.org/1999/xlink" x="0px" y="0px"
	 viewBox="0 0 397 397" style="enable-background:new 0 0 397 397;" xml:space="preserve">
<g>
	<g>
		<path d="M294.6,232.5l-87.9-107.2c-3.5-4.3-9.8-4.9-14.1-1.3c-0.5,0.4-1,0.9-1.4,1.4l-88,107.2c-2.5,2.9-3,7-1.3,10.4
			s5.2,5.6,9,5.5h78v119c0,5.5,4.5,10,10,10s10-4.5,10-10v-119h78c5.4,0.1,9.9-4.1,10-9.5C297,236.6,296.1,234.3,294.6,232.5z
			 M132.1,228.5l66.9-81.4l66.9,81.4H132.1z"/>
	</g>
</g>
<g>
	<g>
		<path d="M387,19.5H10c-5.5,0-10,4.5-10,10v42c0,5.5,4.5,10,10,10h377c5.5,0,10-4.5,10-10v-42C397,24,392.5,19.5,387,19.5z
			 M378,61.5H20v-22h358V61.5z"/>
	</g>
</g>
<g>
</g>
<g>
</g>
<g>
</g>
<g>
</g>
<g>
</g>
<g>
</g>
<g>
</g>
<g>
</g>
<g>
</g>
<g>
</g>
<g>
</g>
<g>
</g>
<g>
</g>
<g>
</g>
<g>
</g>
</svg>
