<?xml version="1.0" encoding="iso-8859-1"?>
<!-- Generator: Adobe Illustrator 19.0.0, SVG Export Plug-In . SVG Version: 6.00 Build 0)  -->
<svg version="1.1" id="Capa_1" xmlns="http://www.w3.org/2000/svg" xmlns:xlink="http://www.w3.org/1999/xlink" x="0px" y="0px"
	 viewBox="0 0 397 397" style="enable-background:new 0 0 397 397;" xml:space="preserve">
<g>
	<g>
		<path d="M296.1,154c-1.7-3.4-5.2-5.6-9-5.5h-78v-119c0-5.5-4.5-10-10-10s-10,4.5-10,10v119h-78c-5.4-0.1-9.9,4.1-10,9.5
			c-0.1,2.4,0.8,4.7,2.3,6.5l87.9,107.1c3.5,4.3,9.8,4.9,14.1,1.4c0.5-0.4,1-0.9,1.4-1.4l88-107.2
			C297.3,161.5,297.8,157.4,296.1,154z M199,249.9l-66.9-81.4h133.8L199,249.9z"/>
	</g>
</g>
<g>
	<g>
		<path d="M387,315.5H10c-5.5,0-10,4.5-10,10v42c0,5.5,4.5,10,10,10h377c5.5,0,10-4.5,10-10v-42C397,320,392.5,315.5,387,315.5z
			 M378,357.5H20v-22h358V357.5z"/>
	</g>
</g>
<g>
</g>
<g>
</g>
<g>
</g>
<g>
</g>
<g>
</g>
<g>
</g>
<g>
</g>
<g>
</g>
<g>
</g>
<g>
</g>
<g>
</g>
<g>
</g>
<g>
</g>
<g>
</g>
<g>
</g>
</svg>
