<?xml version="1.0" encoding="iso-8859-1"?>
<!-- Generator: Adobe Illustrator 19.0.0, SVG Export Plug-In . SVG Version: 6.00 Build 0)  -->
<svg version="1.1" id="Capa_1" xmlns="http://www.w3.org/2000/svg" xmlns:xlink="http://www.w3.org/1999/xlink" x="0px" y="0px"
	 viewBox="0 0 473.3 473.3" style="enable-background:new 0 0 473.3 473.3;" xml:space="preserve">
<g>
	<g>
		<path d="M261.45,124.7h-14.4l0.1-13.2c0.2-22.5,18.5-40.6,41-40.6c33.6,0,60.9-27.3,61-60.9c0-5.5-4.5-10-10-10s-10,4.5-10,10
			c0,22.6-18.4,41-41,41c-33.4,0-60.6,26.9-61,60.4l-0.2,13.3h-15.1c-51.4,0-93.2,42.2-93.2,93.7v136.8c0,65.1,52.9,118.1,118,118.1
			s118-53,118-118.1V218.4C354.65,166.9,312.85,124.7,261.45,124.7z M138.65,218.4c0-40.5,32.8-73.7,73.2-73.7h14.8v109h-88V218.4z
			 M334.65,355.2c0,54.1-43.9,98-98,98s-98-43.9-98-98v-81.5h196V355.2z M334.65,253.7h-88v-109h14.8c40.4,0,73.2,33.2,73.2,73.7
			V253.7z"/>
	</g>
</g>
<g>
</g>
<g>
</g>
<g>
</g>
<g>
</g>
<g>
</g>
<g>
</g>
<g>
</g>
<g>
</g>
<g>
</g>
<g>
</g>
<g>
</g>
<g>
</g>
<g>
</g>
<g>
</g>
<g>
</g>
</svg>
