<?xml version="1.0" encoding="iso-8859-1"?>
<!-- Generator: Adobe Illustrator 19.0.0, SVG Export Plug-In . SVG Version: 6.00 Build 0)  -->
<svg version="1.1" id="Capa_1" xmlns="http://www.w3.org/2000/svg" xmlns:xlink="http://www.w3.org/1999/xlink" x="0px" y="0px"
	 viewBox="0 0 468.2 468.2" style="enable-background:new 0 0 468.2 468.2;" xml:space="preserve">
<g>
	<g>
		<path d="M207.2,36.25c-5.5,0-10,4.5-10,10v375.7c0,5.5,4.5,10,10,10s10-4.5,10-10V46.25C217.2,40.75,212.7,36.25,207.2,36.25z"/>
	</g>
</g>
<g>
	<g>
		<path d="M179.4,227.95c-0.4-0.6-1-1.2-1.6-1.6l-91.1-72c-3.1-2.4-7.2-2.8-10.7-1.2c-3.5,1.7-5.7,5.1-5.8,9v62H10
			c-5.5,0-10,4.5-10,10s4.5,10,10,10h60.2v62c0.1,3.9,2.3,7.3,5.8,9c1.4,0.7,2.9,1,4.4,1c2.3,0,4.5-0.8,6.2-2.2l91.1-72
			C182,238.55,182.8,232.25,179.4,227.95z M90.2,285.45v-102.6l64.9,51.3L90.2,285.45z"/>
	</g>
</g>
<g>
	<g>
		<path d="M458.2,99.15h-203c-5.5,0-10,4.5-10,10s4.5,10,10,10h203c5.5,0,10-4.5,10-10S463.7,99.15,458.2,99.15z"/>
	</g>
</g>
<g>
	<g>
		<path d="M391.2,182.15h-136c-5.5,0-10,4.5-10,10s4.5,10,10,10h136c5.5,0,10-4.5,10-10S396.7,182.15,391.2,182.15z"/>
	</g>
</g>
<g>
	<g>
		<path d="M458.2,266.15h-203c-5.5,0-10,4.5-10,10s4.5,10,10,10h203c5.5,0,10-4.5,10-10S463.7,266.15,458.2,266.15z"/>
	</g>
</g>
<g>
	<g>
		<path d="M349.2,349.15h-94c-5.5,0-10,4.5-10,10s4.5,10,10,10h94c5.5,0,10-4.5,10-10S354.7,349.15,349.2,349.15z"/>
	</g>
</g>
<g>
</g>
<g>
</g>
<g>
</g>
<g>
</g>
<g>
</g>
<g>
</g>
<g>
</g>
<g>
</g>
<g>
</g>
<g>
</g>
<g>
</g>
<g>
</g>
<g>
</g>
<g>
</g>
<g>
</g>
</svg>
