<?xml version="1.0" encoding="iso-8859-1"?>
<!-- Generator: Adobe Illustrator 19.0.0, SVG Export Plug-In . SVG Version: 6.00 Build 0)  -->
<svg version="1.1" id="Capa_1" xmlns="http://www.w3.org/2000/svg" xmlns:xlink="http://www.w3.org/1999/xlink" x="0px" y="0px"
	 viewBox="0 0 414.401 414.401" style="enable-background:new 0 0 414.401 414.401;" xml:space="preserve">
<g>
	<g>
		<path d="M386.1,54.2c-0.1,0-0.1,0-0.2,0H201.6c-16,0-29.2,12.9-29.2,28.8v133.6c0,15.9,13.2,28.6,29.2,28.6h184.3
			c15.7,0.1,28.4-12.5,28.5-28.2c0-0.1,0-0.3,0-0.4V83C414.5,67.2,401.9,54.3,386.1,54.2z M201.6,225.2c-4.9,0-9.2-3.7-9.2-8.6
			v-53.2l68.8,35.6l-36.6,26.2H201.6z M394.4,216.6c0.1,4.6-3.5,8.5-8.1,8.6c-0.1,0-0.3,0-0.4,0h-127l77.4-55.5l58.1,26.7V216.6z
			 M394.4,83v91.4l-55.1-25.2c-3.2-1.5-7-1.1-9.9,1l-50,35.9l-87-45.2V83c0.2-5,4.3-8.9,9.2-8.8h184.3c4.7,0,8.5,3.8,8.5,8.5
			C394.4,82.8,394.4,82.9,394.4,83z"/>
	</g>
</g>
<g>
	<g>
		<path d="M268.2,87.2c-19.6,0-35.6,15.9-35.6,35.5s15.9,35.6,35.5,35.6s35.6-15.9,35.6-35.5C303.7,103.1,287.8,87.2,268.2,87.2z
			 M283.7,122.8c0,8.5-6.9,15.5-15.5,15.5c-8.6,0-15.6-6.9-15.6-15.5c0-8.6,7-15.6,15.5-15.6s15.6,6.9,15.6,15.5
			C283.7,122.7,283.7,122.7,283.7,122.8z"/>
	</g>
</g>
<g>
	<g>
		<path d="M135.2,51.2H10c-5.5,0-10,4.5-10,10s4.5,10,10,10h125.2c5.5,0,10-4.5,10-10S140.7,51.2,135.2,51.2z"/>
	</g>
</g>
<g>
	<g>
		<path d="M135.2,124.2H10c-5.5,0-10,4.5-10,10s4.5,10,10,10h125.2c5.5,0,10-4.5,10-10S140.7,124.2,135.2,124.2z"/>
	</g>
</g>
<g>
	<g>
		<path d="M135.2,197.2H10c-5.5,0-10,4.5-10,10s4.5,10,10,10h125.2c5.5,0,10-4.5,10-10S140.7,197.2,135.2,197.2z"/>
	</g>
</g>
<g>
	<g>
		<path d="M344,270.2H10c-5.5,0-10,4.5-10,10s4.5,10,10,10h334c5.5,0,10-4.5,10-10S349.5,270.2,344,270.2z"/>
	</g>
</g>
<g>
	<g>
		<path d="M344,343.2H10c-5.5,0-10,4.5-10,10s4.5,10,10,10h334c5.5,0,10-4.5,10-10S349.5,343.2,344,343.2z"/>
	</g>
</g>
<g>
</g>
<g>
</g>
<g>
</g>
<g>
</g>
<g>
</g>
<g>
</g>
<g>
</g>
<g>
</g>
<g>
</g>
<g>
</g>
<g>
</g>
<g>
</g>
<g>
</g>
<g>
</g>
<g>
</g>
</svg>
