<?xml version="1.0" encoding="iso-8859-1"?>
<!-- Generator: Adobe Illustrator 19.0.0, SVG Export Plug-In . SVG Version: 6.00 Build 0)  -->
<svg version="1.1" id="Capa_1" xmlns="http://www.w3.org/2000/svg" xmlns:xlink="http://www.w3.org/1999/xlink" x="0px" y="0px"
	 viewBox="0 0 457.601 457.601" style="enable-background:new 0 0 457.601 457.601;" xml:space="preserve">
<g>
	<g>
		<path d="M374.701,0h-291.9c-5.6,0.2-10.1,4.8-10.1,10.4v231.5c0,23.2,20.3,44.1,42.4,44.1h72.7v74.3c-11,10.4-16.2,24.2-16.2,39.5
			c-0.1,15.2,5.8,29.9,16.5,40.8c10.7,10.9,25.3,17.1,40.5,17c31.7,0,57.4-25.9,57.4-57.8c0-15.4-5.1-29.2-16.1-39.5V286h72.6
			c22.1,0,42.4-20.9,42.4-44.1V10.4C384.801,4.8,380.301,0.2,374.701,0z M364.801,241.9c0,12.3-11.1,24.1-22.4,24.1h-82.3
			c-5.6,0.1-10.2,4.6-10.3,10.2v88.5c0.1,3,1.4,5.8,3.7,7.7c8.1,6.8,12.7,16.9,12.5,27.5c0.1,20.8-16.7,37.7-37.5,37.8
			c-20.8,0-37.1-16.6-37.1-37.8c-0.1-10.6,4.5-20.7,12.7-27.4c2.3-1.9,3.7-4.7,3.7-7.7v-88.6c-0.1-5.6-4.7-10.1-10.3-10.2h-82.3
			c-11.4,0-22.4-11.8-22.4-24.1V198h272V241.9z M364.801,178h-272V20h48v98.7c0,5.5,4.5,10,10,10s10-4.5,10-10V20h53v98.7
			c0,5.5,4.5,10,10,10s10-4.5,10-10V20h58v98.7c0,5.5,4.5,10,10,10s10-4.5,10-10V20h53V178z"/>
	</g>
</g>
<g>
	<g>
		<path d="M228.701,374.1c-14.2,0-25.7,11.5-25.7,25.7s11.5,25.7,25.7,25.7s25.7-11.5,25.7-25.7S242.901,374.1,228.701,374.1z
			 M228.701,405.5c-3.2,0-5.7-2.5-5.7-5.7c0-3.1,2.6-5.7,5.7-5.7c3.1,0,5.7,2.5,5.7,5.7S231.901,405.5,228.701,405.5z"/>
	</g>
</g>
<g>
</g>
<g>
</g>
<g>
</g>
<g>
</g>
<g>
</g>
<g>
</g>
<g>
</g>
<g>
</g>
<g>
</g>
<g>
</g>
<g>
</g>
<g>
</g>
<g>
</g>
<g>
</g>
<g>
</g>
</svg>
