<?xml version="1.0" encoding="iso-8859-1"?>
<!-- Generator: Adobe Illustrator 19.0.0, SVG Export Plug-In . SVG Version: 6.00 Build 0)  -->
<svg version="1.1" id="Capa_1" xmlns="http://www.w3.org/2000/svg" xmlns:xlink="http://www.w3.org/1999/xlink" x="0px" y="0px"
	 viewBox="0 0 460.815 460.815" style="enable-background:new 0 0 460.815 460.815;" xml:space="preserve">
<g>
	<g>
		<path d="M450.815,358.339h-226.7c-3.4-49.9-28.6-95.8-68.9-125.4l129.3-133.4c3.9-4,3.8-10.3-0.2-14.2c-4-3.9-10.3-3.8-14.2,0.2
			l-137.6,142l-129.7,133.7c-3.9,4-3.7,10.4,0.3,14.3c1.9,1.8,4.3,2.8,6.9,2.8h440.8c5.5,0,10-4.5,10-10
			S456.315,358.339,450.815,358.339z M33.615,358.339l107.5-110.8c36.5,25.6,59.7,66.3,63,110.8H33.615z"/>
	</g>
</g>
<g>
</g>
<g>
</g>
<g>
</g>
<g>
</g>
<g>
</g>
<g>
</g>
<g>
</g>
<g>
</g>
<g>
</g>
<g>
</g>
<g>
</g>
<g>
</g>
<g>
</g>
<g>
</g>
<g>
</g>
</svg>
