<?xml version="1.0" encoding="iso-8859-1"?>
<!-- Generator: Adobe Illustrator 19.0.0, SVG Export Plug-In . SVG Version: 6.00 Build 0)  -->
<svg version="1.1" id="Capa_1" xmlns="http://www.w3.org/2000/svg" xmlns:xlink="http://www.w3.org/1999/xlink" x="0px" y="0px"
	 viewBox="0 0 404.7 404.7" style="enable-background:new 0 0 404.7 404.7;" xml:space="preserve">
<g>
	<g>
		<path d="M394.7,278.35h-149v-70.8c-0.1-5.6-4.7-10.2-10.3-10.2H162c-5.6,0.1-10.2,4.6-10.3,10.2v70.8H10c-5.5,0-10,4.5-10,10
			s4.5,10,10,10h141.7v71.7c0.1,5.6,4.7,10.2,10.3,10.3h73.4c5.6-0.1,10.2-4.6,10.3-10.3v-71.7h149c5.5,0,10-4.5,10-10
			S400.2,278.35,394.7,278.35z M225.7,360.35h-54v-143h54V360.35z"/>
	</g>
</g>
<g>
	<g>
		<path d="M394.7,69.35h-149v-34.7c-0.1-5.6-4.7-10.2-10.3-10.3H162c-5.6,0.1-10.2,4.6-10.3,10.3v34.7H10c-5.5,0-10,4.5-10,10
			s4.5,10,10,10h141.7v34.4c0,5.5,4.8,9.6,10.3,9.6h73.4c5.5,0,10.3-4.1,10.3-9.6v-34.4h149c5.5,0,10-4.5,10-10
			S400.2,69.35,394.7,69.35z M225.7,113.35h-54v-69h54V113.35z"/>
	</g>
</g>
<g>
</g>
<g>
</g>
<g>
</g>
<g>
</g>
<g>
</g>
<g>
</g>
<g>
</g>
<g>
</g>
<g>
</g>
<g>
</g>
<g>
</g>
<g>
</g>
<g>
</g>
<g>
</g>
<g>
</g>
</svg>
