<?xml version="1.0" encoding="iso-8859-1"?>
<!-- Generator: Adobe Illustrator 19.0.0, SVG Export Plug-In . SVG Version: 6.00 Build 0)  -->
<svg version="1.1" id="Capa_1" xmlns="http://www.w3.org/2000/svg" xmlns:xlink="http://www.w3.org/1999/xlink" x="0px" y="0px"
	 viewBox="0 0 405.9 405.9" style="enable-background:new 0 0 405.9 405.9;" xml:space="preserve">
<g>
	<g>
		<path d="M396.3,162c-0.1,0-0.2,0-0.3,0h-26.5c-15.3-62-63.6-110.4-125.6-125.6V9.9c0.1-5.3-4.1-9.8-9.4-9.9c-0.1,0-0.2,0-0.3,0
			h-62.6c-5.3,0-9.7,4.3-9.7,9.7c0,0.1,0,0.2,0,0.3v26.5C99.9,51.6,51.6,100,36.4,162H9.9c-5.3-0.1-9.8,4.1-9.9,9.4
			c0,0.1,0,0.2,0,0.3v62.6c0,5.3,4.3,9.7,9.6,9.7c0.1,0,0.2,0,0.3,0h26.5c15.1,62,63.5,110.4,125.5,125.5V396
			c-0.1,5.3,4.1,9.8,9.4,9.9c0.1,0,0.2,0,0.3,0h62.6c5.3,0,9.7-4.3,9.7-9.7c0-0.1,0-0.2,0-0.3v-26.5c30.2-7.5,57.8-23.2,79.9-45.2
			c22.4-22.3,38.1-49.4,45.7-80.4H396c5.3,0.1,9.8-4.1,9.9-9.4c0-0.1,0-0.2,0-0.3v-62.4C405.9,166.4,401.6,162,396.3,162z M181.9,20
			h42v43h-42V20z M19.9,224v-42h43v42H19.9z M223.9,386h-42v-43h42V386z M309.7,310.2c-18.2,18.3-40.9,31.6-65.8,38.7v-15.4
			c0-5.5-4.2-10.5-9.7-10.5h-62.6c-5.5,0-9.7,4.9-9.7,10.5v15.4C111,334.7,71.2,294.9,57,244h15.4c5.5,0,10.5-4.2,10.5-9.7v-62.6
			c0-5.5-4.9-9.7-10.5-9.7H57c14.2-50.9,54-90.7,104.9-104.9v15.4c0,5.5,4.2,10.5,9.7,10.5h62.6c5.5,0,9.7-4.9,9.7-10.5V57.1
			c50.9,14.2,90.7,54,104.9,104.9h-15.4c-5.5,0-10.5,4.2-10.5,9.7v62.6c0,5.5,4.9,9.7,10.5,9.7h15.4
			C341.7,269.1,328.2,291.9,309.7,310.2z M385.9,224h-43v-42h43V224z"/>
	</g>
</g>
<g>
</g>
<g>
</g>
<g>
</g>
<g>
</g>
<g>
</g>
<g>
</g>
<g>
</g>
<g>
</g>
<g>
</g>
<g>
</g>
<g>
</g>
<g>
</g>
<g>
</g>
<g>
</g>
<g>
</g>
</svg>
