<?xml version="1.0" encoding="iso-8859-1"?>
<!-- Generator: Adobe Illustrator 19.0.0, SVG Export Plug-In . SVG Version: 6.00 Build 0)  -->
<svg version="1.1" id="Capa_1" xmlns="http://www.w3.org/2000/svg" xmlns:xlink="http://www.w3.org/1999/xlink" x="0px" y="0px"
	 viewBox="0 0 397.4 397.4" style="enable-background:new 0 0 397.4 397.4;" xml:space="preserve">
<g>
	<g>
		<path d="M345.7,83.7h-241c-5.5,0-10,4.5-10,10v73c0,5.5,4.5,10,10,10h241c5.5,0,10-4.5,10-10v-73
			C355.7,88.2,351.2,83.7,345.7,83.7z M335.7,157.7h-221v-54h221V157.7z"/>
	</g>
</g>
<g>
	<g>
		<path d="M272.7,219.7h-168c-5.5,0-10,4.5-10,10v73c0,5.5,4.5,10,10,10h168c5.5,0,10-4.5,10-10v-73
			C282.7,224.2,278.2,219.7,272.7,219.7z M261.7,293.7h-147v-54h147V293.7z"/>
	</g>
</g>
<g>
	<g>
		<path d="M51.7,0c-5.5,0-10,4.5-10,10v377.4c0,5.5,4.5,10,10,10s10-4.5,10-10V10C61.7,4.5,57.2,0,51.7,0z"/>
	</g>
</g>
<g>
</g>
<g>
</g>
<g>
</g>
<g>
</g>
<g>
</g>
<g>
</g>
<g>
</g>
<g>
</g>
<g>
</g>
<g>
</g>
<g>
</g>
<g>
</g>
<g>
</g>
<g>
</g>
<g>
</g>
</svg>
