<?xml version="1.0" encoding="iso-8859-1"?>
<!-- Generator: Adobe Illustrator 19.0.0, SVG Export Plug-In . SVG Version: 6.00 Build 0)  -->
<svg version="1.1" id="Capa_1" xmlns="http://www.w3.org/2000/svg" xmlns:xlink="http://www.w3.org/1999/xlink" x="0px" y="0px"
	 viewBox="0 0 453.401 453.401" style="enable-background:new 0 0 453.401 453.401;" xml:space="preserve">
<g>
	<g>
		<path d="M393.5,305.424h-59l-65.5-153.2c38.8-23.4,51.3-73.7,28-112.5s-73.7-51.3-112.5-28s-51.3,73.7-28,112.5
			c6.9,11.5,16.5,21.1,28,28l-65.6,153.2h-59c-5.5,0-10,4.5-10,10s4.5,10,10,10h50.4l-48.9,114.1c-2.1,5.1,0.3,11,5.4,13.1
			c5,2.1,10.8-0.2,13-5.2l52.3-122h84.6v62.5c0,5.5,4.5,10,10,10s10-4.5,10-10v-62.5h84.6l52.3,121.9c1.6,3.7,5.2,6,9.2,6
			c1.4,0,2.7-0.3,3.9-0.9c5-2.1,7.4-7.8,5.3-12.8c0-0.1,0-0.1-0.1-0.2l-48.8-114h50.4c5.5,0,10-4.5,10-10S399,305.424,393.5,305.424
			z M164.7,81.624c0-34.3,27.8-62,62.1-62c34.3,0,62,27.8,62,62.1c0,24.4-14.4,46.6-36.7,56.6c-16.1,7.2-34.5,7.2-50.6,0h-0.1
			C179,128.324,164.7,106.124,164.7,81.624z M236.7,305.424v-47.7c0-5.5-4.5-10-10-10s-10,4.5-10,10v47.7h-76l62-145.1
			c15.7,4.6,32.3,4.7,48,0.1l62,145H236.7z"/>
	</g>
</g>
<g>
</g>
<g>
</g>
<g>
</g>
<g>
</g>
<g>
</g>
<g>
</g>
<g>
</g>
<g>
</g>
<g>
</g>
<g>
</g>
<g>
</g>
<g>
</g>
<g>
</g>
<g>
</g>
<g>
</g>
</svg>
