<?xml version="1.0" encoding="iso-8859-1"?>
<!-- Generator: Adobe Illustrator 19.0.0, SVG Export Plug-In . SVG Version: 6.00 Build 0)  -->
<svg version="1.1" id="Capa_1" xmlns="http://www.w3.org/2000/svg" xmlns:xlink="http://www.w3.org/1999/xlink" x="0px" y="0px"
	 viewBox="0 0 424 424" style="enable-background:new 0 0 424 424;" xml:space="preserve">
<g>
	<g>
		<path d="M248,283h-73c-5.5,0-10,4.5-10,10v89c0,5.5,4.5,10,10,10h73c5.5,0,10-4.5,10-10v-89C258,287.5,253.5,283,248,283z
			 M239,372h-54v-69h54V372z"/>
	</g>
</g>
<g>
	<g>
		<path d="M400.7,404H23.3c-5.5,0-10,4.5-10,10s4.5,10,10,10h377.4c5.5,0,10-4.5,10-10S406.2,404,400.7,404z"/>
	</g>
</g>
<g>
	<g>
		<path d="M248,0h-73c-5.5,0-10,4.5-10,10v162c0,5.5,4.5,10,10,10h73c5.5,0,10-4.5,10-10V10C258,4.5,253.5,0,248,0z M239,163h-54V20
			h54V163z"/>
	</g>
</g>
<g>
	<g>
		<path d="M400.7,194H23.3c-5.5,0-10,4.5-10,10s4.5,10,10,10h377.4c5.5,0,10-4.5,10-10S406.2,194,400.7,194z"/>
	</g>
</g>
<g>
</g>
<g>
</g>
<g>
</g>
<g>
</g>
<g>
</g>
<g>
</g>
<g>
</g>
<g>
</g>
<g>
</g>
<g>
</g>
<g>
</g>
<g>
</g>
<g>
</g>
<g>
</g>
<g>
</g>
</svg>
