<?xml version="1.0" encoding="iso-8859-1"?>
<!-- Generator: Adobe Illustrator 19.0.0, SVG Export Plug-In . SVG Version: 6.00 Build 0)  -->
<svg version="1.1" id="Capa_1" xmlns="http://www.w3.org/2000/svg" xmlns:xlink="http://www.w3.org/1999/xlink" x="0px" y="0px"
	 viewBox="0 0 367.8 367.8" style="enable-background:new 0 0 367.8 367.8;" xml:space="preserve">
<g>
	<g>
		<path d="M357.6,173.9h-43.7V100c-0.1-5.6-4.6-10.1-10.2-10.1h-73.4c-5.5,0-10.5,4.6-10.5,10.1v73.9h-42V63.3
			c-0.2-5.7-4.8-10.3-10.5-10.4H93.9c-5.6,0.2-10.1,4.8-10.2,10.4v110.6H10c-5.5,0-10,4.5-10,10s4.5,10,10,10h73.9v110.6
			c0,5.6,4.5,10.2,10.2,10.4h73.4c5.7-0.2,10.3-4.7,10.5-10.4V193.9h42v73.9c0,5.5,4.9,10.1,10.5,10.1h73.4
			c5.6,0,10.1-4.6,10.2-10.1v-73.9h43.7c5.5,0,10-4.5,10-10S363.1,173.9,357.6,173.9z M157.9,173.9v20v101h-54v-101v-20v-101h54
			V173.9z M293.9,257.9h-54v-148h54V257.9z"/>
	</g>
</g>
<g>
</g>
<g>
</g>
<g>
</g>
<g>
</g>
<g>
</g>
<g>
</g>
<g>
</g>
<g>
</g>
<g>
</g>
<g>
</g>
<g>
</g>
<g>
</g>
<g>
</g>
<g>
</g>
<g>
</g>
</svg>
