<?xml version="1.0" encoding="iso-8859-1"?>
<!-- Generator: Adobe Illustrator 19.0.0, SVG Export Plug-In . SVG Version: 6.00 Build 0)  -->
<svg version="1.1" id="Capa_1" xmlns="http://www.w3.org/2000/svg" xmlns:xlink="http://www.w3.org/1999/xlink" x="0px" y="0px"
	 viewBox="0 0 448 448" style="enable-background:new 0 0 448 448;" xml:space="preserve">
<g>
	<g>
		<path d="M438,264.049h-26.5c-15.3-62-63.7-110.3-125.6-125.6c-2.5-20.8-20.1-36.5-41-36.5c-11,0-21.5,4.4-29.2,12.3
			c-4.9,4.6-8.4,10.4-10.2,16.8H80.7c-5.4-17.2-21.3-28.9-39.3-28.9c-22.8-0.1-41.3,18.2-41.4,41c-0.1,22.8,18.2,41.3,41,41.4
			c0.1,0,0.3,0,0.4,0c19.9,0.2,37-13.9,40.6-33.4h87.9c-45.8,22.2-79.4,63.6-91.5,113H51.9c-5.2-0.2-9.6,3.9-9.8,9.1
			c0,0.1,0,0.3,0,0.4v62.6c-0.1,5.3,4.2,9.7,9.5,9.8c0.1,0,0.2,0,0.3,0h62.6c5.2,0.1,9.5-4.1,9.6-9.4c0-0.1,0-0.3,0-0.4v-62.6
			c0.2-5.1-3.9-9.4-9-9.6c-0.2,0-0.4,0-0.6,0H99c14.4-51.8,55.3-92,107.4-105.6c2.1,5.3,5.2,10,9.2,14c16.1,16.1,42.3,16.1,58.4,0
			c4-3.9,7.2-8.7,9.3-13.9c52.1,13.5,93,53.7,107.4,105.5h-15.4c-5.5,0-10.3,4.1-10.3,9.6v62.6c0,5.5,4.8,9.8,10.3,9.8H438
			c5.5,0.1,10-4.2,10-9.7v-0.1v-62.6C448,268.149,443.5,264.049,438,264.049z M56.4,158.249c-8.3,8.3-21.8,8.2-30.1-0.1
			c-8.3-8.3-8.2-21.8,0.1-30.1c4-4,9.4-6.2,15-6.2c11,0.1,20.2,8.5,21.2,19.4c0,0.7,0.1,1.3,0.1,1.9
			C62.7,148.849,60.4,154.249,56.4,158.249z M104,284.049v42H62v-42H104z M259.9,158.249c-8.3,8.3-21.8,8.2-30.1-0.1
			c-8.3-8.3-8.2-21.8,0.1-30.1c4-4,9.4-6.2,15-6.2c11.8,0,21.3,9.5,21.3,21.3C266.2,148.849,263.9,154.249,259.9,158.249z
			 M428,326.049h-43v-42h43V326.049z"/>
	</g>
</g>
<g>
</g>
<g>
</g>
<g>
</g>
<g>
</g>
<g>
</g>
<g>
</g>
<g>
</g>
<g>
</g>
<g>
</g>
<g>
</g>
<g>
</g>
<g>
</g>
<g>
</g>
<g>
</g>
<g>
</g>
</svg>
