<?xml version="1.0" encoding="iso-8859-1"?>
<!-- Generator: Adobe Illustrator 19.0.0, SVG Export Plug-In . SVG Version: 6.00 Build 0)  -->
<svg version="1.1" id="Capa_1" xmlns="http://www.w3.org/2000/svg" xmlns:xlink="http://www.w3.org/1999/xlink" x="0px" y="0px"
	 viewBox="0 0 466 466" style="enable-background:new 0 0 466 466;" xml:space="preserve">
<g>
	<g>
		<path d="M455.6,73.1c5.7-0.1,10.2-4.7,10.4-10.4V10.9c0-5.5-4.9-9.8-10.4-9.8h-51.8c-5.4-0.1-9.8,4.3-9.8,9.6c0,0.1,0,0.1,0,0.2
			V26H256V10.9c0-5.5-4.5-9.9-10-9.9c0,0,0,0-0.1,0h-51.8c-5.5-0.1-10.1,4.3-10.2,9.9V26H10.4C4.9,26,0,30.3,0,35.8v419.3
			c0,5.5,4.9,9.9,10.4,9.9h419.3c5.5,0.1,10.1-4.3,10.3-9.9v-174h15.6c5.5,0,10.4-4.2,10.4-9.7v-51.7c0-5.5-4.9-9.6-10.4-9.6H440
			v-137H455.6z M256,62.7V46.1h138v16.6c0,5.5,4.3,10.4,9.8,10.4H420v137h-16.2c-5.2-0.2-9.6,3.9-9.8,9.2c0,0.1,0,0.3,0,0.4v15.4
			H256v-15.4c0-5.5-4.5-9.6-10.1-9.6H230v-137h15.9C251.5,72.9,256,68.3,256,62.7z M236,230.1v31h-32v-31H236z M204,21.1h32v32h-32
			V21.1z M420,445.1H20v-399h164v16.6c0,5.6,4.5,10.2,10.2,10.4H210v137h-15.8c-5.5,0-10.2,4.1-10.2,9.6v51.7
			c0.1,5.5,4.6,9.8,10.1,9.7h0.1H246c5.4,0.2,9.9-4.1,10-9.5c0-0.1,0-0.1,0-0.2v-16.3h138v16.3c-0.1,5.3,4.2,9.6,9.5,9.7
			c0.1,0,0.2,0,0.3,0H420V445.1z M446,230.1v31h-32v-31H446z M414,53.1v-32h32v32H414z"/>
	</g>
</g>
<g>
</g>
<g>
</g>
<g>
</g>
<g>
</g>
<g>
</g>
<g>
</g>
<g>
</g>
<g>
</g>
<g>
</g>
<g>
</g>
<g>
</g>
<g>
</g>
<g>
</g>
<g>
</g>
<g>
</g>
</svg>
