<?xml version="1.0" encoding="iso-8859-1"?>
<!-- Generator: Adobe Illustrator 19.0.0, SVG Export Plug-In . SVG Version: 6.00 Build 0)  -->
<svg version="1.1" id="Capa_1" xmlns="http://www.w3.org/2000/svg" xmlns:xlink="http://www.w3.org/1999/xlink" x="0px" y="0px"
	 viewBox="0 0 436 436" style="enable-background:new 0 0 436 436;" xml:space="preserve">
<g>
	<g>
		<path d="M421,0H15C9.5,0,5,4.5,5,10v416c0,5.5,4.5,10,10,10h406c5.5,0,10-4.5,10-10V10C431,4.5,426.5,0,421,0z M208,202.6V416H25
			V201h183.1C208,202,208,202.1,208,202.6z M411,416H228V202.6c0-0.5,0-0.6-0.1-1.6H411V416z M411,181H25V20h386V181z"/>
	</g>
</g>
<g>
</g>
<g>
</g>
<g>
</g>
<g>
</g>
<g>
</g>
<g>
</g>
<g>
</g>
<g>
</g>
<g>
</g>
<g>
</g>
<g>
</g>
<g>
</g>
<g>
</g>
<g>
</g>
<g>
</g>
</svg>
