<?xml version="1.0" encoding="iso-8859-1"?>
<!-- Generator: Adobe Illustrator 19.0.0, SVG Export Plug-In . SVG Version: 6.00 Build 0)  -->
<svg version="1.1" id="Capa_1" xmlns="http://www.w3.org/2000/svg" xmlns:xlink="http://www.w3.org/1999/xlink" x="0px" y="0px"
	 viewBox="0 0 468.302 468.302" style="enable-background:new 0 0 468.302 468.302;" xml:space="preserve">
<g>
	<g>
		<path d="M261,36.301c-5.5,0-10,4.5-10,10v375.7c0,5.5,4.5,10,10,10s10-4.5,10-10v-375.7C271,40.801,266.5,36.301,261,36.301z"/>
	</g>
</g>
<g>
	<g>
		<path d="M458.4,224.201H398v-62c-0.1-5.6-4.6-10.1-10.2-10c-2.2,0-4.4,0.8-6.1,2.1l-91.1,72c-4.3,3.4-5.1,9.7-1.7,14
			c0.5,0.6,1,1.2,1.6,1.6l91.1,72c1.8,1.4,3.9,2.2,6.2,2.2c1.5,0,3.1-0.3,4.4-1c3.5-1.7,5.7-5.2,5.7-9v-61.9h60.4
			c5.5,0,10-4.5,10-10C468.4,228.701,464,224.201,458.4,224.201z M378,285.501l-64.9-51.3l64.9-51.3V285.501z"/>
	</g>
</g>
<g>
	<g>
		<path d="M214,99.201H10c-5.5,0-10,4.5-10,10s4.5,10,10,10h204c5.5,0,10-4.5,10-10S219.5,99.201,214,99.201z"/>
	</g>
</g>
<g>
	<g>
		<path d="M214,182.201H78c-5.5,0-10,4.5-10,10s4.5,10,10,10h136c5.5,0,10-4.5,10-10S219.5,182.201,214,182.201z"/>
	</g>
</g>
<g>
	<g>
		<path d="M214,266.201H10c-5.5,0-10,4.5-10,10s4.5,10,10,10h204c5.5,0,10-4.5,10-10S219.5,266.201,214,266.201z"/>
	</g>
</g>
<g>
	<g>
		<path d="M214,349.201h-94c-5.5,0-10,4.5-10,10s4.5,10,10,10h94c5.5,0,10-4.5,10-10S219.5,349.201,214,349.201z"/>
	</g>
</g>
<g>
</g>
<g>
</g>
<g>
</g>
<g>
</g>
<g>
</g>
<g>
</g>
<g>
</g>
<g>
</g>
<g>
</g>
<g>
</g>
<g>
</g>
<g>
</g>
<g>
</g>
<g>
</g>
<g>
</g>
</svg>
