<?xml version="1.0" encoding="iso-8859-1"?>
<!-- Generator: Adobe Illustrator 19.0.0, SVG Export Plug-In . SVG Version: 6.00 Build 0)  -->
<svg version="1.1" id="Capa_1" xmlns="http://www.w3.org/2000/svg" xmlns:xlink="http://www.w3.org/1999/xlink" x="0px" y="0px"
	 viewBox="0 0 466.386 466.386" style="enable-background:new 0 0 466.386 466.386;" xml:space="preserve">
<g>
	<g>
		<path d="M342.595,108.2h-104.2c-5.5,0-10,4.5-10,10s4.5,10,10,10h104.2c5.5,0,10-4.5,10-10S348.195,108.2,342.595,108.2z"/>
	</g>
</g>
<g>
	<g>
		<path d="M316.895,229.3c53.4-11.4,91.6-58.6,91.6-113.3c0-64.1-51.9-116-116-116c-47.9,0-90.9,29.5-108.2,74.1l-55.8-65.3
			c-3.6-4.2-9.9-4.7-14.1-1.1c-1.9,1.6-3.1,3.8-3.4,6.2l-53,382c-0.8,5.5,3.1,10.5,8.5,11.3c2.6,0.4,5.3-0.3,7.4-1.9l101.9-77.6
			l38.7,131.5c1.6,5.3,7.1,8.3,12.4,6.8l55-16.2c5.3-1.6,8.3-7.1,6.8-12.4l-37.8-128.6l119.6,9.7c5.5,0.4,10.3-3.7,10.8-9.2
			c0.2-2.7-0.6-5.3-2.4-7.3L316.895,229.3z M198.495,97.1c0.1-0.3,0.1-0.5,0.1-0.8c10.9-51.9,61.8-85.1,113.7-74.2
			c51.9,10.9,85.1,61.8,74.2,113.7c-9,42.3-45.2,73.5-88.5,76h-0.2c-1.5,0.1-3.2,0.2-5.2,0.2c-53.1,0-96-43.1-96-96.1
			C196.595,109.6,197.195,103.3,198.495,97.1z M237.995,287.7c-5.5-0.4-10.3,3.7-10.8,9.2c-0.1,1.2,0,2.4,0.4,3.6l39.1,132.9
			l-35.8,10.6l-40-135.8c-1.6-5.3-7.1-8.3-12.4-6.8c-1.2,0.3-2.3,0.9-3.2,1.6l-94.2,71.7l46.7-336l50.2,58.8
			c-10.1,63.3,32.9,122.8,96.2,133c6.1,1,12.2,1.5,18.4,1.5h0.2l55.1,64.6L237.995,287.7z"/>
	</g>
</g>
<g>
</g>
<g>
</g>
<g>
</g>
<g>
</g>
<g>
</g>
<g>
</g>
<g>
</g>
<g>
</g>
<g>
</g>
<g>
</g>
<g>
</g>
<g>
</g>
<g>
</g>
<g>
</g>
<g>
</g>
</svg>
