<?xml version="1.0" encoding="iso-8859-1"?>
<!-- Generator: Adobe Illustrator 19.0.0, SVG Export Plug-In . SVG Version: 6.00 Build 0)  -->
<svg version="1.1" id="Capa_1" xmlns="http://www.w3.org/2000/svg" xmlns:xlink="http://www.w3.org/1999/xlink" x="0px" y="0px"
	 viewBox="0 0 466.1 466.1" style="enable-background:new 0 0 466.1 466.1;" xml:space="preserve">
<g>
	<g>
		<path d="M455.2,26H281.1V10.4c0-5.5-4.2-10.4-9.7-10.4h-51.7c-5.5,0-9.6,4.9-9.6,10.4V26h-137V10.4C73,4.7,68.4,0.2,62.7,0H10.9
			C5.4,0,1,4.9,1,10.4v51.8C0.9,67.6,5.3,72,10.6,72c0.1,0,0.1,0,0.2,0h15.3v138H11c-5.5,0-9.9,4.5-9.9,10c0,0,0,0,0,0.1v51.8
			C1,277.4,5.4,282,11,282.1h15.1v173.6c0,5.5,4.3,10.4,9.8,10.4h419.3c5.5,0,9.9-4.9,9.9-10.4V36.4C465.2,30.7,460.8,26.1,455.2,26
			z M230.1,20h31v32h-31V20z M73.1,62.2V46h137v16.2c-0.2,5.2,3.9,9.6,9.2,9.8c0.1,0,0.3,0,0.4,0h15.4v138h-15.4
			c-5.5,0-9.6,4.5-9.6,10.1V236h-137v-15.9c-0.2-5.6-4.8-10.1-10.4-10.1H46.1V72h16.6C68.3,72,73.1,67.7,73.1,62.2z M261.1,230v32
			h-31v-32H261.1z M21.1,52V20h32v32H21.1z M21.1,262v-32h32v32H21.1z M445.1,446h-399V282h16.6c5.6,0,10.2-4.5,10.4-10.2V256h137
			v15.8c0,5.5,4.1,10.2,9.6,10.2h51.7c5.5-0.1,9.8-4.6,9.7-10.1v-0.1v-51.7c0.2-5.4-4.1-9.9-9.5-10c-0.1,0-0.1,0-0.2,0h-16.3v-138
			h16.3c5.3,0.1,9.6-4.2,9.7-9.5c0-0.1,0-0.2,0-0.3V46h164V446z"/>
	</g>
</g>
<g>
	<g>
		<path d="M413,399l-46.8-46.8l32.9-32.9c3.9-3.9,3.9-10.2,0-14.1c-1.5-1.5-3.5-2.5-5.6-2.8l-93.4-13.7c-5.5-0.8-10.5,3-11.3,8.5
			c-0.1,0.9-0.1,1.9,0,2.9l13.5,93.4c0.8,5.5,5.9,9.3,11.3,8.5c2.1-0.3,4.1-1.3,5.6-2.8l32.9-32.9l46.8,46.8
			c3.9,3.9,10.2,3.9,14.1,0C416.9,409.2,416.9,402.9,413,399z M319.2,370.9l-8.8-60.5l60.6,8.7L319.2,370.9z"/>
	</g>
</g>
<g>
</g>
<g>
</g>
<g>
</g>
<g>
</g>
<g>
</g>
<g>
</g>
<g>
</g>
<g>
</g>
<g>
</g>
<g>
</g>
<g>
</g>
<g>
</g>
<g>
</g>
<g>
</g>
<g>
</g>
</svg>
