<?xml version="1.0" encoding="iso-8859-1"?>
<!-- Generator: Adobe Illustrator 19.0.0, SVG Export Plug-In . SVG Version: 6.00 Build 0)  -->
<svg version="1.1" id="Capa_1" xmlns="http://www.w3.org/2000/svg" xmlns:xlink="http://www.w3.org/1999/xlink" x="0px" y="0px"
	 viewBox="0 0 374.8 374.8" style="enable-background:new 0 0 374.8 374.8;" xml:space="preserve">
<g>
	<g>
		<path d="M279.5,34.4H95.3c-15.9,0-28.9,12.8-28.9,28.8v133.6c0,15.8,12.9,28.6,28.7,28.6c0.1,0,0.1,0,0.2,0h184.2
			c15.8,0.1,28.8-12.6,28.9-28.4c0-0.1,0-0.1,0-0.2V63.2C308.4,47.3,295.5,34.4,279.5,34.4z M95.3,205.4c-4.8,0.1-8.8-3.6-8.9-8.4
			c0-0.1,0-0.1,0-0.2v-53.2l68.7,35.6l-36.8,26.2H95.3z M288.4,196.8c0,4.8-3.9,8.6-8.7,8.6c-0.1,0-0.1,0-0.2,0H152.6l77.5-55.5
			l58.3,26.7V196.8z M288.4,63.2v91.4l-55.2-25.2c-3.3-1.5-7.1-1.1-10,1l-49.9,35.9l-86.9-45.2V63.2c0-4.9,4-8.8,8.8-8.8h0.1h184.2
			c4.9,0,8.9,3.9,8.9,8.7V63.2z"/>
	</g>
</g>
<g>
	<g>
		<path d="M161.9,67.5c-19.6-0.1-35.5,15.9-35.5,35.5c0,19.6,15.9,35.5,35.5,35.5c19.6-0.1,35.5-15.9,35.5-35.5
			C197.4,83.4,181.5,67.5,161.9,67.5z M177.4,103c0,8.5-7,15.5-15.5,15.5c-8.6,0-15.6-6.9-15.6-15.5c0-8.6,6.9-15.6,15.5-15.6
			c8.6,0,15.6,6.9,15.6,15.5C177.4,102.9,177.4,102.9,177.4,103z"/>
	</g>
</g>
<g>
	<g>
		<path d="M364.8,31.4h-36.5c-5.5,0-10,4.5-10,10s4.5,10,10,10h36.5c5.5,0,10-4.5,10-10S370.4,31.4,364.8,31.4z"/>
	</g>
</g>
<g>
	<g>
		<path d="M364.8,104.4h-36.5c-5.5,0-10,4.5-10,10s4.5,10,10,10h36.5c5.5,0,10-4.5,10-10S370.4,104.4,364.8,104.4z"/>
	</g>
</g>
<g>
	<g>
		<path d="M364.8,177.4h-36.5c-5.5,0-10,4.5-10,10s4.5,10,10,10h36.5c5.5,0,10-4.5,10-10S370.4,177.4,364.8,177.4z"/>
	</g>
</g>
<g>
	<g>
		<path d="M364.8,250.4H10c-5.5,0-10,4.5-10,10s4.5,10,10,10h354.8c5.5,0,10-4.5,10-10S370.3,250.4,364.8,250.4z"/>
	</g>
</g>
<g>
	<g>
		<path d="M364.8,323.4H10c-5.5,0-10,4.5-10,10s4.5,10,10,10h354.8c5.5,0,10-4.5,10-10S370.3,323.4,364.8,323.4z"/>
	</g>
</g>
<g>
	<g>
		<path d="M46.5,31.4H10c-5.5,0-10,4.5-10,10s4.5,10,10,10h36.5c5.5,0,10-4.5,10-10S52,31.4,46.5,31.4z"/>
	</g>
</g>
<g>
	<g>
		<path d="M46.5,104.4H10c-5.5,0-10,4.5-10,10s4.5,10,10,10h36.5c5.5,0,10-4.5,10-10S52,104.4,46.5,104.4z"/>
	</g>
</g>
<g>
	<g>
		<path d="M46.5,177.4H10c-5.5,0-10,4.5-10,10s4.5,10,10,10h36.5c5.5,0,10-4.5,10-10S52,177.4,46.5,177.4z"/>
	</g>
</g>
<g>
</g>
<g>
</g>
<g>
</g>
<g>
</g>
<g>
</g>
<g>
</g>
<g>
</g>
<g>
</g>
<g>
</g>
<g>
</g>
<g>
</g>
<g>
</g>
<g>
</g>
<g>
</g>
<g>
</g>
</svg>
