<?xml version="1.0" encoding="iso-8859-1"?>
<!-- Generator: Adobe Illustrator 19.0.0, SVG Export Plug-In . SVG Version: 6.00 Build 0)  -->
<svg version="1.1" id="Capa_1" xmlns="http://www.w3.org/2000/svg" xmlns:xlink="http://www.w3.org/1999/xlink" x="0px" y="0px"
	 viewBox="0 0 404.8 404.8" style="enable-background:new 0 0 404.8 404.8;" xml:space="preserve">
<g>
	<g>
		<path d="M370.799,152.4c-0.2,0-0.3,0-0.5,0h-34.4V10c0-5.5-4.5-10-10-10s-10,4.5-10,10v142.4h-34.7c-5.5,0-10.3,4.1-10.3,9.7v73.3
			c0.1,5.6,4.7,10,10.3,10h34.7v149.4c0,5.5,4.5,10,10,10s10-4.5,10-10V245.4h34.4c5.3,0,9.6-4.3,9.6-9.7c0-0.1,0-0.2,0-0.3v-73.3
			C379.999,156.9,375.999,152.6,370.799,152.4z M359.899,225.4h-69v-53h69V225.4z"/>
	</g>
</g>
<g>
	<g>
		<path d="M197.799,152.4c-0.2,0-0.3,0-0.5,0h-71.4V10c0-5.5-4.5-10-10-10s-10,4.5-10,10v142.4h-71.1c-5.3-0.2-9.8,4-9.9,9.4
			c0,0.1,0,0.2,0,0.3v73.3c0,5.5,4.4,9.9,9.8,10h0.1h71.1v149.4c0,5.5,4.5,10,10,10s10-4.5,10-10V245.4h71.4c5.3,0,9.6-4.3,9.6-9.6
			c0-0.1,0-0.2,0-0.3v-73.4C207.099,156.9,202.999,152.6,197.799,152.4z M186.899,225.4h-142v-53h142V225.4z"/>
	</g>
</g>
<g>
</g>
<g>
</g>
<g>
</g>
<g>
</g>
<g>
</g>
<g>
</g>
<g>
</g>
<g>
</g>
<g>
</g>
<g>
</g>
<g>
</g>
<g>
</g>
<g>
</g>
<g>
</g>
<g>
</g>
</svg>
