<?xml version="1.0" encoding="iso-8859-1"?>
<!-- Generator: Adobe Illustrator 19.0.0, SVG Export Plug-In . SVG Version: 6.00 Build 0)  -->
<svg version="1.1" id="Capa_1" xmlns="http://www.w3.org/2000/svg" xmlns:xlink="http://www.w3.org/1999/xlink" x="0px" y="0px"
	 viewBox="0 0 466.1 466.1" style="enable-background:new 0 0 466.1 466.1;" xml:space="preserve">
<g>
	<g>
		<path d="M455.6,1H36.3C30.8,0.9,26.2,5.3,26,10.9V185H10.4C4.9,185,0,189.2,0,194.7v51.7c0,5.5,4.9,9.6,10.4,9.6H26v137H10.4
			c-5.7,0.1-10.2,4.7-10.4,10.4v51.8c0,5.5,4.9,9.9,10.4,9.9h51.8c5.4,0.1,9.8-4.3,9.8-9.6c0-0.1,0-0.1,0-0.2V440h138v15.1
			c0,5.5,4.5,9.9,10,9.9c0,0,0,0,0.1,0h51.8c5.5,0.1,10.1-4.3,10.2-9.9V440h173.6c5.5,0,10.4-4.3,10.4-9.8V10.9
			C466,5.3,461.1,1,455.6,1z M20,236v-31h32v31H20z M52,445H20v-32h32V445z M210,403.4V420H72v-16.6c0-5.5-4.3-10.4-9.8-10.4H46V256
			h16.2c5.2,0.2,9.6-3.9,9.8-9.2c0-0.1,0-0.3,0-0.4V231h138v15.4c0,5.5,4.5,9.6,10.1,9.6H236v137h-15.9
			C214.5,393.2,210,397.8,210,403.4z M230,236v-31h32v31H230z M262,445h-32v-32h32V445z M446,420H282v-16.6
			c0-5.6-4.5-10.2-10.2-10.4H256V256h15.8c5.5,0,10.2-4.1,10.2-9.6v-51.7c-0.1-5.5-4.6-9.8-10.1-9.7h-0.1H220
			c-5.4-0.2-9.9,4.1-10,9.5c0,0.1,0,0.1,0,0.2V211H72v-16.3c0.1-5.3-4.2-9.6-9.5-9.7c-0.1,0-0.2,0-0.3,0H46V21h400V420z"/>
	</g>
</g>
<g>
</g>
<g>
</g>
<g>
</g>
<g>
</g>
<g>
</g>
<g>
</g>
<g>
</g>
<g>
</g>
<g>
</g>
<g>
</g>
<g>
</g>
<g>
</g>
<g>
</g>
<g>
</g>
<g>
</g>
</svg>
