<?xml version="1.0" encoding="iso-8859-1"?>
<!-- Generator: Adobe Illustrator 16.0.0, SVG Export Plug-In . SVG Version: 6.00 Build 0)  -->
<!DOCTYPE svg PUBLIC "-//W3C//DTD SVG 1.1//EN" "http://www.w3.org/Graphics/SVG/1.1/DTD/svg11.dtd">
<svg version="1.1" id="Capa_1" xmlns="http://www.w3.org/2000/svg" xmlns:xlink="http://www.w3.org/1999/xlink" x="0px" y="0px"
	 width="976.4px" height="976.401px" viewBox="0 0 976.4 976.401" style="enable-background:new 0 0 976.4 976.401;"
	 xml:space="preserve">
<g>
	<path d="M976.4,916.05v-542.1H0v542.1c0,33.1,26.9,60,60,60h856.3C949.5,976.05,976.4,949.25,976.4,916.05z M488.2,803.85H262.3
		c-27.6,0-50-22.4-50-50s22.4-50,50-50h225.9c27.6,0,50,22.4,50,50S515.8,803.85,488.2,803.85z M714.101,601.65H262.3
		c-27.6,0-50-22.399-50-50c0-27.6,22.4-50,50-50H714c27.601,0,50,22.4,50,50C764,579.25,741.7,601.65,714.101,601.65z"/>
	<path d="M976.4,60.35c0-33.1-26.9-60-60-60H60c-33.1,0-60,26.9-60,60v241.7h976.3V60.35H976.4z M70,70.35h67.2l58.5,80.8
		l-58.5,80.8H70V70.35z M265.6,70.35h132l58.5,80.8l-58.5,80.8h-132l58.5-80.8L265.6,70.35z M526,70.35h132l58.5,80.8l-58.5,80.8
		H526l58.5-80.8L526,70.35z M906.4,231.95H786.5l58.5-80.8l-58.5-80.8h119.9V231.95z"/>
</g>
<g>
</g>
<g>
</g>
<g>
</g>
<g>
</g>
<g>
</g>
<g>
</g>
<g>
</g>
<g>
</g>
<g>
</g>
<g>
</g>
<g>
</g>
<g>
</g>
<g>
</g>
<g>
</g>
<g>
</g>
</svg>
