<?xml version="1.0" encoding="iso-8859-1"?>
<!-- Generator: Adobe Illustrator 16.0.0, SVG Export Plug-In . SVG Version: 6.00 Build 0)  -->
<!DOCTYPE svg PUBLIC "-//W3C//DTD SVG 1.1//EN" "http://www.w3.org/Graphics/SVG/1.1/DTD/svg11.dtd">
<svg version="1.1" id="Capa_1" xmlns="http://www.w3.org/2000/svg" xmlns:xlink="http://www.w3.org/1999/xlink" x="0px" y="0px"
	 width="966.717px" height="966.717px" viewBox="0 0 966.717 966.717" style="enable-background:new 0 0 966.717 966.717;"
	 xml:space="preserve">
<g>
	<path d="M939.116,549.821c17.4-18.3,27.601-43.399,27.601-68.7c0.1-26.199-10.7-52-29-70.6c-0.101-0.1-0.2-0.2-0.301-0.3
		l-215.199-215.2c-39.101-39.1-102.4-39.1-141.4,0c-39.1,39.1-39.1,102.4,0,141.4l44.4,44.4H341.416l44.4-44.4
		c39.1-39.1,39.1-102.4,0-141.4c-39.1-39.1-102.4-39.1-141.4,0l-215.1,215.1c-11.1,11.101-19.4,24.7-24.4,39.601
		c-4.6,13.899-5.9,28.8-4.2,43.3c1.6,13.3,6,26.3,12.7,37.9c4.3,7.5,9.7,14.5,15.9,20.6l220,220.2c19.5,19.5,45.1,29.3,70.7,29.3
		c25.6,0,51.2-9.8,70.7-29.3c39.1-39.101,39.1-102.4,0-141.4l-49.301-49.3h283.9l-49.3,49.3c-39.101,39.101-39.101,102.4,0,141.4
		c19.5,19.5,45.1,29.3,70.7,29.3c25.6,0,51.199-9.8,70.699-29.3l220.101-220.101C938.016,551.021,938.516,550.421,939.116,549.821z"
		/>
</g>
<g>
</g>
<g>
</g>
<g>
</g>
<g>
</g>
<g>
</g>
<g>
</g>
<g>
</g>
<g>
</g>
<g>
</g>
<g>
</g>
<g>
</g>
<g>
</g>
<g>
</g>
<g>
</g>
<g>
</g>
</svg>
