<?xml version="1.0" encoding="iso-8859-1"?>
<!-- Generator: Adobe Illustrator 16.0.0, SVG Export Plug-In . SVG Version: 6.00 Build 0)  -->
<!DOCTYPE svg PUBLIC "-//W3C//DTD SVG 1.1//EN" "http://www.w3.org/Graphics/SVG/1.1/DTD/svg11.dtd">
<svg version="1.1" id="Capa_1" xmlns="http://www.w3.org/2000/svg" xmlns:xlink="http://www.w3.org/1999/xlink" x="0px" y="0px"
	 width="123.375px" height="123.375px" viewBox="0 0 123.375 123.375" style="enable-background:new 0 0 123.375 123.375;"
	 xml:space="preserve">
<g>
	<path d="M4.288,112.875l32.1-32.1c0.9-0.9,0.7-2.5-0.4-3.1l-32.1-18.601c-1.3-0.8-3,0.2-3,1.7v50.701
		C0.888,113.176,2.987,114.075,4.288,112.875z"/>
	<path d="M3.487,46.975l11,6.4c1.3,0.8,3-0.2,3-1.7v-14.8c0-1.7-1.9-2.6-3.2-1.6l-11,8.3C2.087,44.475,2.188,46.275,3.487,46.975z"
		/>
	<path d="M49.788,12.975h11.9h11.899c1.9,0,2.701-2.4,1.201-3.6l-11.9-9c-0.7-0.5-1.7-0.5-2.4,0l-11.9,9
		C46.987,10.575,47.788,12.975,49.788,12.975z"/>
	<path d="M28.487,61.175l32,18.3c0.7,0.399,1.801,0.399,2.4,0l32-18.3c0.6-0.4,1-1,1-1.7v-34.5c0-1.1-0.9-2-2-2h-32.2h-32.2
		c-1.1,0-2,0.9-2,2v34.4C27.487,60.175,27.888,60.775,28.487,61.175z M46.087,33.475h15.6h15.601c2.199,0,4,1.8,4,4s-1.801,4-4,4
		H61.688h-15.6c-2.2,0-4-1.8-4-4S43.888,33.475,46.087,33.475z M46.087,51.275h15.6h15.601c2.199,0,4,1.8,4,4c0,2.2-1.801,4-4,4
		H61.688h-15.6c-2.2,0-4-1.8-4-4C42.087,53.075,43.888,51.275,46.087,51.275z"/>
	<path d="M119.487,59.075l-32.1,18.5c-1.1,0.7-1.301,2.2-0.4,3.101l32.1,32.1c1.301,1.3,3.4,0.4,3.4-1.4v-50.6
		C122.487,59.275,120.888,58.275,119.487,59.075z"/>
	<path d="M74.788,84.875l-12.101,7c-0.601,0.301-1.4,0.301-2,0l-12.1-7c-0.8-0.5-1.8-0.3-2.4,0.301l-34.8,34.8
		c-1.3,1.3-0.4,3.399,1.4,3.399h48.9h48.899c1.801,0,2.701-2.199,1.4-3.399l-34.699-34.8C76.587,84.476,75.587,84.375,74.788,84.875
		z"/>
	<path d="M108.888,53.375l11-6.4c1.199-0.7,1.3-2.5,0.199-3.3l-11-8.3c-1.299-1-3.199-0.1-3.199,1.6v14.7
		C105.888,53.175,107.587,54.075,108.888,53.375z"/>
</g>
<g>
</g>
<g>
</g>
<g>
</g>
<g>
</g>
<g>
</g>
<g>
</g>
<g>
</g>
<g>
</g>
<g>
</g>
<g>
</g>
<g>
</g>
<g>
</g>
<g>
</g>
<g>
</g>
<g>
</g>
</svg>
