<?xml version="1.0" encoding="iso-8859-1"?>
<!-- Generator: Adobe Illustrator 16.0.0, SVG Export Plug-In . SVG Version: 6.00 Build 0)  -->
<!DOCTYPE svg PUBLIC "-//W3C//DTD SVG 1.1//EN" "http://www.w3.org/Graphics/SVG/1.1/DTD/svg11.dtd">
<svg version="1.1" id="Capa_1" xmlns="http://www.w3.org/2000/svg" xmlns:xlink="http://www.w3.org/1999/xlink" x="0px" y="0px"
	 width="974.405px" height="974.404px" viewBox="0 0 974.405 974.404" style="enable-background:new 0 0 974.405 974.404;"
	 xml:space="preserve">
<g>
	<path d="M459.1,0.104H174.9c-33.3,0-60.2,27-60.2,60.2v853.9c0,33.3,27,60.199,60.2,60.199h624.5c33.3,0,60.2-27,60.2-60.199v-522
		c0-24.9-20.101-45-45-45H549.1c-24.9,0-45-20.1-45-45v-257.1C504.1,20.205,484,0.104,459.1,0.104z"/>
	<path d="M839.7,274.705c17.8,0,26.7-21.5,14.101-34.1L619.2,5.905c-12.6-12.6-34.1-3.7-34.1,14.1v234.6c0,11.1,9,20.1,20.1,20.1
		H839.7L839.7,274.705z"/>
</g>
<g>
</g>
<g>
</g>
<g>
</g>
<g>
</g>
<g>
</g>
<g>
</g>
<g>
</g>
<g>
</g>
<g>
</g>
<g>
</g>
<g>
</g>
<g>
</g>
<g>
</g>
<g>
</g>
<g>
</g>
</svg>
