<?xml version="1.0" encoding="iso-8859-1"?>
<!-- Generator: Adobe Illustrator 16.0.0, SVG Export Plug-In . SVG Version: 6.00 Build 0)  -->
<!DOCTYPE svg PUBLIC "-//W3C//DTD SVG 1.1//EN" "http://www.w3.org/Graphics/SVG/1.1/DTD/svg11.dtd">
<svg version="1.1" id="Capa_1" xmlns="http://www.w3.org/2000/svg" xmlns:xlink="http://www.w3.org/1999/xlink" x="0px" y="0px"
	 width="984.1px" height="984.1px" viewBox="0 0 984.1 984.1" style="enable-background:new 0 0 984.1 984.1;" xml:space="preserve"
	>
<g>
	<path d="M871.445,984c24.899,0,45-20.1,45-45V45c0-24.9-20.101-45-45-45h-20c-24.9,0-45,20.1-45,45v894.1c0,24.9,20.1,45,45,45h20
		V984z"/>
	<path d="M256.844,316.6l-174.9,165c-29.6,27.9-9.8,77.701,30.9,77.701h579.101c24.899,0,45-20.102,45-45V53.2
		c0-24.9-20.101-45-45-45H112.744c-40.7,0-60.5,49.8-30.9,77.7l175,165.2C275.644,268.9,275.644,298.9,256.844,316.6z"/>
</g>
<g>
</g>
<g>
</g>
<g>
</g>
<g>
</g>
<g>
</g>
<g>
</g>
<g>
</g>
<g>
</g>
<g>
</g>
<g>
</g>
<g>
</g>
<g>
</g>
<g>
</g>
<g>
</g>
<g>
</g>
</svg>
