<?xml version="1.0" encoding="iso-8859-1"?>
<!-- Generator: Adobe Illustrator 16.0.0, SVG Export Plug-In . SVG Version: 6.00 Build 0)  -->
<!DOCTYPE svg PUBLIC "-//W3C//DTD SVG 1.1//EN" "http://www.w3.org/Graphics/SVG/1.1/DTD/svg11.dtd">
<svg version="1.1" id="Capa_1" xmlns="http://www.w3.org/2000/svg" xmlns:xlink="http://www.w3.org/1999/xlink" x="0px" y="0px"
	 width="124px" height="124px" viewBox="0 0 124 124" style="enable-background:new 0 0 124 124;" xml:space="preserve">
<g>
	<path d="M117.8,25.5H63v-3.3c0-3.4-3.1-6.7-6.6-6.7H6.2c-3.4,0-6.2,3.2-6.2,6.7v9.7v6.3V102.1c0,3.4,2.8,6.4,6.2,6.4h111.6
		c3.4,0,6.2-2.9,6.2-6.4V31.9C124,28.5,121.2,25.5,117.8,25.5z M91.7,69.1c-0.101,2-1,3.9-2.601,5.301
		C88.9,74.5,69.9,93.6,69.9,93.6C68.4,95.1,66.4,95.9,64.3,95.9c-2.1,0-4.1-0.801-5.6-2.301s-2.3-3.5-2.3-5.6s0.8-4.1,2.3-5.6
		l5.899-5.9H39.3c-4.4,0-8-3.6-8-8s3.6-8,8-8h25.2l-5.9-5.9c-1.5-1.5-2.3-3.5-2.3-5.6s0.8-4.1,2.3-5.6s3.5-2.3,5.6-2.3
		c2.1,0,4.1,0.8,5.6,2.3c19.7,19.7,19.7,19.7,19.7,19.7C91,64.7,91.8,66.9,91.7,69.1z"/>
</g>
<g>
</g>
<g>
</g>
<g>
</g>
<g>
</g>
<g>
</g>
<g>
</g>
<g>
</g>
<g>
</g>
<g>
</g>
<g>
</g>
<g>
</g>
<g>
</g>
<g>
</g>
<g>
</g>
<g>
</g>
</svg>
