<?xml version="1.0" encoding="iso-8859-1"?>
<!-- Generator: Adobe Illustrator 16.0.0, SVG Export Plug-In . SVG Version: 6.00 Build 0)  -->
<!DOCTYPE svg PUBLIC "-//W3C//DTD SVG 1.1//EN" "http://www.w3.org/Graphics/SVG/1.1/DTD/svg11.dtd">
<svg version="1.1" id="Capa_1" xmlns="http://www.w3.org/2000/svg" xmlns:xlink="http://www.w3.org/1999/xlink" x="0px" y="0px"
	 width="979.9px" height="979.9px" viewBox="0 0 979.9 979.9" style="enable-background:new 0 0 979.9 979.9;" xml:space="preserve"
	>
<g>
	<path d="M171.8,690.75c63.1,0,142.601-25.7,236.2-76.5c32.6-17.6,61.1-35.2,82-48.7c20.9,13.5,49.4,31.101,82,48.7
		c93.7,50.7,173.1,76.5,236.2,76.5l0,0c64.6,0,103.1-27,123.899-49.6c31.7-34.4,47.801-84.5,47.801-148.9
		c0-65.6-15.9-116.7-47.2-151.8c-20.9-23.4-59.5-51.3-124.601-51.3c-63.399,0-143.1,26.6-237,79.2c-32.199,18-60.399,36-81.199,49.9
		c-20.801-13.899-49.101-31.9-81.2-49.9c-93.9-52.6-173.6-79.2-237-79.2c-65.1,0-103.7,27.9-124.6,51.3
		C15.9,375.55,0,426.65,0,492.25c0,64.4,16.1,114.5,47.8,148.9C68.7,663.75,107.2,690.75,171.8,690.75z M631.1,472.351
		c73-40.801,135.9-63.2,177.101-63.2c25,0,32.399,8.2,35.1,11.3c6.2,7,16.7,25.6,16.7,71.8c0,43.601-10,61-16,67.5
		c-2.5,2.7-10.1,11-35.7,11l0,0c-41.399,0-104.6-21.8-177.8-61.3c-11.2-6-21.9-12.1-31.9-18
		C608.7,485.25,619.6,478.75,631.1,472.351z M136.7,420.45c2.8-3.1,10.1-11.3,35.1-11.3c41.2,0,104,22.5,177.101,63.2
		c11.5,6.399,22.399,12.8,32.699,19c-10,5.899-20.699,11.899-31.899,18c-73.2,39.5-136.4,61.3-177.8,61.3c-25.6,0-33.3-8.3-35.8-11
		c-6-6.5-16-23.9-16-67.5C120,446.05,130.5,427.45,136.7,420.45z"/>
</g>
<g>
</g>
<g>
</g>
<g>
</g>
<g>
</g>
<g>
</g>
<g>
</g>
<g>
</g>
<g>
</g>
<g>
</g>
<g>
</g>
<g>
</g>
<g>
</g>
<g>
</g>
<g>
</g>
<g>
</g>
</svg>
