<?xml version="1.0" encoding="iso-8859-1"?>
<!-- Generator: Adobe Illustrator 16.0.0, SVG Export Plug-In . SVG Version: 6.00 Build 0)  -->
<!DOCTYPE svg PUBLIC "-//W3C//DTD SVG 1.1//EN" "http://www.w3.org/Graphics/SVG/1.1/DTD/svg11.dtd">
<svg version="1.1" id="Capa_1" xmlns="http://www.w3.org/2000/svg" xmlns:xlink="http://www.w3.org/1999/xlink" x="0px" y="0px"
	 width="976.416px" height="976.416px" viewBox="0 0 976.416 976.416" style="enable-background:new 0 0 976.416 976.416;"
	 xml:space="preserve">
<g>
	<path d="M117.026,324.3l68.1-68.1c-10.8-39.5,2.8-88.1,38.7-124c26.8-26.8,62-42.2,96.4-42.2c8,0,17.6,0.9,27.6,3.5l61.9-61.9
		l6.2-6.2c-28.2-16.6-61-25.4-95.7-25.4c-58.1,0-116.5,25-160.1,68.6c-40.2,40.2-64.4,91.9-68.1,145.7c-1.9,27,1.5,53.1,9.9,77.6
		C106.026,303.3,111.026,314.1,117.026,324.3z"/>
	<path d="M363.526,919.2c11.9,11.899,27.4,17.8,43,17.8c15.5,0,31.101-5.9,43-17.8l274.3-274.301c6.9-6.899,15.4-12,24.7-15
		l125.7-39.6c32.7-10.3,42.8-51.6,18.5-75.8l-19.3-19.3l-35.9-35.9l-346.8-346.9l-38.5-38.5l-54.4,54.4l-177.8,177.8l-64.1,64.1
		L28.227,498c-23.7,23.7-23.7,62.2,0,85.899L363.526,919.2z M117.927,544.6h647.5c6.3,0,7.5,9,1.3,10.601l-64.4,16.399
		c-2.6,0.7-5,2-7,4l-281.3,280.3c-5.899,5.9-15.5,5.9-21.5,0l-285.3-285.3C97.626,561,104.427,544.6,117.927,544.6z"/>
	<path d="M883.727,650.2c-4.6-4.301-10.5-6.601-16.6-6.801c-9.2,0.301-18.2,5.4-22.5,15.301c-0.601,1.5-1.301,2.899-1.9,4.399
		c-15.3,35.4-31.9,70.101-45.7,106.101c-21.399,55.8-51.8,131.899-0.899,181.199c19.6,19,45.399,27.101,71,25.9
		c25.6,1.2,51.399-6.9,71-25.9c50.899-49.3,20.5-125.399-0.9-181.199c-14.4-37.5-31.8-73.601-47.5-110.5
		C888.127,655.3,886.127,652.399,883.727,650.2z"/>
</g>
<g>
</g>
<g>
</g>
<g>
</g>
<g>
</g>
<g>
</g>
<g>
</g>
<g>
</g>
<g>
</g>
<g>
</g>
<g>
</g>
<g>
</g>
<g>
</g>
<g>
</g>
<g>
</g>
<g>
</g>
</svg>
