<?xml version="1.0" encoding="iso-8859-1"?>
<!-- Generator: Adobe Illustrator 16.0.0, SVG Export Plug-In . SVG Version: 6.00 Build 0)  -->
<!DOCTYPE svg PUBLIC "-//W3C//DTD SVG 1.1//EN" "http://www.w3.org/Graphics/SVG/1.1/DTD/svg11.dtd">
<svg version="1.1" id="Capa_1" xmlns="http://www.w3.org/2000/svg" xmlns:xlink="http://www.w3.org/1999/xlink" x="0px" y="0px"
	 width="962.364px" height="962.364px" viewBox="0 0 962.364 962.364" style="enable-background:new 0 0 962.364 962.364;"
	 xml:space="preserve">
<g>
	<path d="M879.827,41h-101.1l-2-2.3C747.927,5,691.327,0,660.228,0c0,0-489.201,0-489.901,0c-33,0-49.9,29.8-50.3,59.8
		c-0.3,30.7,16.3,61.6,50.3,61.6h88.2c16.7,0,28.9,11.2,28.9,26.7s-12.1,26.7-28.9,26.7c0,0-143.9,0-144.6,0
		c-67.8,0-67.9,134.8,0,134.8h144.6c16.7,0,28.9,11.2,28.9,26.7s-12.1,26.7-28.9,26.7c0,0-163.4,0-164.4,0
		c-68.7,0-66.2,134.801,0,134.801h164.4c16.7,0,28.9,11.199,28.9,26.699s-12.1,26.699-28.9,26.699h-141.7
		c-68.7,0-66.9,134.801,0,134.801c0,0,276.7,0,279.3,0c12.2,0-2.399,20-5.3,23.801c-31.2,40.398-58.4,84.1-71.1,134
		c-9.4,36.799-10.101,91,29.1,111.398c56.5,29.5,83.2-39.299,106.8-75.6c56.701-86.9,153.401-142.299,235.8-202.299
		c18-13.102,56.601-41.201,57.801-41.701l130.399-0.5c21.601,0,39.2-17.6,39.2-39.199V80.2C919.027,58.5,901.427,41,879.827,41z"/>
</g>
<g>
</g>
<g>
</g>
<g>
</g>
<g>
</g>
<g>
</g>
<g>
</g>
<g>
</g>
<g>
</g>
<g>
</g>
<g>
</g>
<g>
</g>
<g>
</g>
<g>
</g>
<g>
</g>
<g>
</g>
</svg>
