<?xml version="1.0" encoding="iso-8859-1"?>
<!-- Generator: Adobe Illustrator 16.0.0, SVG Export Plug-In . SVG Version: 6.00 Build 0)  -->
<!DOCTYPE svg PUBLIC "-//W3C//DTD SVG 1.1//EN" "http://www.w3.org/Graphics/SVG/1.1/DTD/svg11.dtd">
<svg version="1.1" id="Capa_1" xmlns="http://www.w3.org/2000/svg" xmlns:xlink="http://www.w3.org/1999/xlink" x="0px" y="0px"
	 width="964.2px" height="964.2px" viewBox="0 0 964.2 964.2" style="enable-background:new 0 0 964.2 964.2;" xml:space="preserve"
	>
<g>
	<path d="M134.7,10v894.2c0,33.101,26.9,60,60,60H769.5c33.1,0,60-26.899,60-60V10c0-10.1-13.301-13.8-18.602-5.2l-42.6,70.6
		c-11.699,19.3-39.699,19.3-51.4,0l-35.5-58.8C669.7-2.7,641.7-2.7,630,16.6l-35.5,58.8c-11.701,19.3-39.701,19.3-51.4,0l-35.5-58.8
		c-11.701-19.3-39.701-19.3-51.401,0l-35.5,58.8C409,94.7,381,94.7,369.3,75.4l-35.2-58.7c-11.7-19.3-39.7-19.3-51.4,0l-35.5,58.8
		c-11.7,19.3-39.7,19.3-51.4,0L153.2,4.9C148-3.8,134.7-0.1,134.7,10z M284.2,260h197.9c22.1,0,40,17.9,40,40s-17.9,40-40,40H284.2
		c-22.1,0-40-17.9-40-40S262.1,260,284.2,260z M284.2,483.101h197.9c22.1,0,40,17.9,40,40s-17.9,40-40,40H284.2
		c-22.1,0-40-17.9-40-40S262.1,483.101,284.2,483.101z M284.2,701.2H680c22.1,0,40,17.9,40,40c0,22.101-17.9,40-40,40H284.2
		c-22.1,0-40-17.899-40-40C244.2,719.101,262.1,701.2,284.2,701.2z"/>
</g>
<g>
</g>
<g>
</g>
<g>
</g>
<g>
</g>
<g>
</g>
<g>
</g>
<g>
</g>
<g>
</g>
<g>
</g>
<g>
</g>
<g>
</g>
<g>
</g>
<g>
</g>
<g>
</g>
<g>
</g>
</svg>
