<?xml version="1.0" encoding="iso-8859-1"?>
<!-- Generator: Adobe Illustrator 16.0.0, SVG Export Plug-In . SVG Version: 6.00 Build 0)  -->
<!DOCTYPE svg PUBLIC "-//W3C//DTD SVG 1.1//EN" "http://www.w3.org/Graphics/SVG/1.1/DTD/svg11.dtd">
<svg version="1.1" id="Capa_1" xmlns="http://www.w3.org/2000/svg" xmlns:xlink="http://www.w3.org/1999/xlink" x="0px" y="0px"
	 width="124.133px" height="124.133px" viewBox="0 0 124.133 124.133" style="enable-background:new 0 0 124.133 124.133;"
	 xml:space="preserve">
<g>
	<path d="M109.587,10.1c-15.5-13.4-39-13.5-54.5-0.1c-11.8,10.2-16.5,25.2-13.9,39.2c0.7,3.9-0.4,7.9-3.2,10.7l-33.9,33.8
		c-5.4,5.399-5.4,14.199,0,19.5l6.8,6.699c5.1,5.101,14,5.9,18.4,0.7c0.4-0.5,0.7-1.3,0.7-2V110c0-1.7,1.3-3,3-3h7c1.7,0,3-1.4,3-3
		v-6c0-1.7,1.3-3,3-3h7c1.7,0,3-1.4,3-3v-8.2c0-1.6,1.3-3,2.9-3c9.6-0.2,18.801,2.8,28.4,2.2c9.3-0.601,18-5.101,24.5-11.601
		C128.887,54.3,128.188,26.2,109.587,10.1z M94.486,54c-7,7-18.399,7-25.5,0c-7-7-7-18.4,0-25.5c7-7,18.4-7,25.5,0
		C101.486,35.6,101.486,47,94.486,54z"/>
</g>
<g>
</g>
<g>
</g>
<g>
</g>
<g>
</g>
<g>
</g>
<g>
</g>
<g>
</g>
<g>
</g>
<g>
</g>
<g>
</g>
<g>
</g>
<g>
</g>
<g>
</g>
<g>
</g>
<g>
</g>
</svg>
