<?xml version="1.0" encoding="iso-8859-1"?>
<!-- Generator: Adobe Illustrator 16.0.0, SVG Export Plug-In . SVG Version: 6.00 Build 0)  -->
<!DOCTYPE svg PUBLIC "-//W3C//DTD SVG 1.1//EN" "http://www.w3.org/Graphics/SVG/1.1/DTD/svg11.dtd">
<svg version="1.1" id="Capa_1" xmlns="http://www.w3.org/2000/svg" xmlns:xlink="http://www.w3.org/1999/xlink" x="0px" y="0px"
	 width="948px" height="948px" viewBox="0 0 948 948" style="enable-background:new 0 0 948 948;" xml:space="preserve">
<g>
	<path d="M5,888c0,33.1,26.9,60,60,60h302c33.1,0,60-26.9,60-60V60c0-33.1-26.9-60-60-60H65C31.9,0,5,26.9,5,60V888z"/>
	<path d="M581,948h302c33.1,0,60-26.9,60-60V60c0-33.1-26.9-60-60-60H581c-33.1,0-60,26.9-60,60v828C521,921.1,547.9,948,581,948z"
		/>
</g>
<g>
</g>
<g>
</g>
<g>
</g>
<g>
</g>
<g>
</g>
<g>
</g>
<g>
</g>
<g>
</g>
<g>
</g>
<g>
</g>
<g>
</g>
<g>
</g>
<g>
</g>
<g>
</g>
<g>
</g>
</svg>
