<?xml version="1.0" encoding="iso-8859-1"?>
<!-- Generator: Adobe Illustrator 16.0.0, SVG Export Plug-In . SVG Version: 6.00 Build 0)  -->
<!DOCTYPE svg PUBLIC "-//W3C//DTD SVG 1.1//EN" "http://www.w3.org/Graphics/SVG/1.1/DTD/svg11.dtd">
<svg version="1.1" id="Capa_1" xmlns="http://www.w3.org/2000/svg" xmlns:xlink="http://www.w3.org/1999/xlink" x="0px" y="0px"
	 width="122.95px" height="122.95px" viewBox="0 0 122.95 122.95" style="enable-background:new 0 0 122.95 122.95;"
	 xml:space="preserve">
<g>
	<path d="M58.575,120.7c0.8,3,5,3,5.8,0l10.7-41.2h-27.2L58.575,120.7z"/>
	<path d="M98.075,7.1c0.7-3.7-2.1-7.1-5.899-7.1H30.775c-3.8,0-6.6,3.4-5.9,7.1c1.3,6.6,4.3,12.7,8.6,17.6v20.1
		c-4.3,4.9-7.4,10.9-8.6,17.601c-0.7,3.699,2.1,7.1,5.9,7.1h18h25.401h18c3.8,0,6.6-3.4,5.899-7.1c-1.3-6.601-4.3-12.7-8.6-17.601
		V24.7C93.775,19.8,96.875,13.8,98.075,7.1z"/>
</g>
<g>
</g>
<g>
</g>
<g>
</g>
<g>
</g>
<g>
</g>
<g>
</g>
<g>
</g>
<g>
</g>
<g>
</g>
<g>
</g>
<g>
</g>
<g>
</g>
<g>
</g>
<g>
</g>
<g>
</g>
</svg>
