<?xml version="1.0" encoding="iso-8859-1"?>
<!-- Generator: Adobe Illustrator 16.0.0, SVG Export Plug-In . SVG Version: 6.00 Build 0)  -->
<!DOCTYPE svg PUBLIC "-//W3C//DTD SVG 1.1//EN" "http://www.w3.org/Graphics/SVG/1.1/DTD/svg11.dtd">
<svg version="1.1" id="Capa_1" xmlns="http://www.w3.org/2000/svg" xmlns:xlink="http://www.w3.org/1999/xlink" x="0px" y="0px"
	 width="122px" height="122px" viewBox="0 0 122 122" style="enable-background:new 0 0 122 122;" xml:space="preserve">
<g>
	<path d="M122,102V20c0-11-9-20-20-20H20C9,0,0,9,0,20v82c0,11,9,20,20,20h82C113,122,122,113,122,102z M108,102c0,3.3-2.7,6-6,6H20
		c-3.3,0-6-2.7-6-6V20c0-3.3,2.7-6,6-6h82c3.3,0,6,2.7,6,6V102z"/>
	<path d="M73.7,31.3L31.3,73.7c-4.7,4.7-4.7,12.3,0,17c2.3,2.3,5.4,3.5,8.5,3.5c3.1,0,6.1-1.2,8.5-3.5l42.4-42.4
		c4.7-4.7,4.7-12.3,0-17C86,26.6,78.4,26.6,73.7,31.3z"/>
</g>
<g>
</g>
<g>
</g>
<g>
</g>
<g>
</g>
<g>
</g>
<g>
</g>
<g>
</g>
<g>
</g>
<g>
</g>
<g>
</g>
<g>
</g>
<g>
</g>
<g>
</g>
<g>
</g>
<g>
</g>
</svg>
