<?xml version="1.0" encoding="iso-8859-1"?>
<!-- Generator: Adobe Illustrator 16.0.0, SVG Export Plug-In . SVG Version: 6.00 Build 0)  -->
<!DOCTYPE svg PUBLIC "-//W3C//DTD SVG 1.1//EN" "http://www.w3.org/Graphics/SVG/1.1/DTD/svg11.dtd">
<svg version="1.1" id="Capa_1" xmlns="http://www.w3.org/2000/svg" xmlns:xlink="http://www.w3.org/1999/xlink" x="0px" y="0px"
	 width="122.879px" height="122.879px" viewBox="0 0 122.879 122.879" style="enable-background:new 0 0 122.879 122.879;"
	 xml:space="preserve">
<g>
	<path d="M94.684,9.527l-17.3,6.7c-0.6,0.2-0.9,0.9-0.8,1.5c1.5,5.1,7.1,26.3,8.399,31.5c0.2,0.7,0.801,1.1,1.5,0.9l18.7-3.9
		c1.4-0.3,2.101-1.9,1.3-3.1c-3-4.4-5.3-10-6.899-15.4c-2-6.4-2.2-12.7-2.101-16.3C97.584,10.027,96.084,8.927,94.684,9.527z"/>
	<path d="M111.983,5.227c-1.399-1.1-3.399-1.7-4.899-0.4c-2.9,2.6-3.3,11.3-0.601,21c1.301,4.5,3,9,5.7,12.8
		c2.3,3.4,7.601,7.6,9.8,1.7c1.4-3.9,1.2-11-0.899-18.6C118.983,13.927,115.384,7.627,111.983,5.227z"/>
	<path d="M8.483,65.727l27-5.599c0.6-0.1,1-0.7,0.8-1.3c-1.1-4.2-4.9-19.1-6-23.4c-0.2-0.6-0.8-1-1.5-0.7l-26.3,10
		c-2.5,0.7-3.2,5.9-1.7,11.8C2.284,62.428,5.983,66.428,8.483,65.727z"/>
	<path d="M90.384,117.127c1.8,1.801,5.3,1.9,7.2,0c2-2,2-5.199,0-7.199l-30.4-30.301c-1.899-1.9-2.899-4.4-2.899-7.1v-10.1
		c0-1.5,1.1-2.701,2.5-3l5.6-1c3.3-0.6,5.7-4.2,4.8-7.5l-7.7-29.7c-0.199-0.6-0.399-1.2-0.8-1.7c-1.5-2.4-4.7-3.4-7.3-2.4l-21.9,8.7
		c-2.7,1.1-4.4,4.3-3.6,7.2l6.4,25c0.7,2.6,3.2,4.6,5.9,4.6c0.2,0,1.8-0.3,3.5-0.5c1.8-0.3,3.5,1.1,3.5,3v7.6
		c0,2.701-1.1,5.201-2.9,7.101l-30.3,30.3c-2,2-2,5.2,0,7.2c1.9,1.899,5.2,2,7.2,0l20.9-20.899c1.9-1.9,5.2-0.601,5.2,2.1v15
		c0,0.4,0,0.699,0.1,1.1c1,4.6,7.9,4.6,8.9,0c0.1-0.4,0.1-0.699,0.1-1.1v-15c0-2.7,3.3-4.1,5.2-2.1
		C69.483,96.227,90.384,117.127,90.384,117.127z"/>
</g>
<g>
</g>
<g>
</g>
<g>
</g>
<g>
</g>
<g>
</g>
<g>
</g>
<g>
</g>
<g>
</g>
<g>
</g>
<g>
</g>
<g>
</g>
<g>
</g>
<g>
</g>
<g>
</g>
<g>
</g>
</svg>
