<?xml version="1.0" encoding="iso-8859-1"?>
<!-- Generator: Adobe Illustrator 16.0.0, SVG Export Plug-In . SVG Version: 6.00 Build 0)  -->
<!DOCTYPE svg PUBLIC "-//W3C//DTD SVG 1.1//EN" "http://www.w3.org/Graphics/SVG/1.1/DTD/svg11.dtd">
<svg version="1.1" id="Capa_1" xmlns="http://www.w3.org/2000/svg" xmlns:xlink="http://www.w3.org/1999/xlink" x="0px" y="0px"
	 width="124px" height="124px" viewBox="0 0 124 124" style="enable-background:new 0 0 124 124;" xml:space="preserve">
<g>
	<path d="M89.3,5.9C85.3,1.9,80,0,74.5,0H21c-3.5,0-6.5,2.3-6.5,5.7V117.6c0,3.4,3,6.4,6.5,6.4h81.8c3.4,0,6.7-3,6.7-6.4V34
		c0-5.5-2.5-10.7-6.4-14.6L89.3,5.9z M30.5,40h25c3.8,0,7,3.1,7,7c0,3.8-3.2,7-7,7h-25c-3.8,0-7-3.2-7-7C23.5,43.1,26.7,40,30.5,40z
		 M93.5,104h-63c-3.8,0-7-3.2-7-7c0-3.9,3.2-7,7-7h63c3.8,0,7,3.1,7,7C100.5,100.8,97.3,104,93.5,104z M93.5,79h-63
		c-3.8,0-7-3.2-7-7c0-3.9,3.2-7,7-7h63c3.8,0,7,3.1,7,7C100.5,75.8,97.3,79,93.5,79z"/>
</g>
<g>
</g>
<g>
</g>
<g>
</g>
<g>
</g>
<g>
</g>
<g>
</g>
<g>
</g>
<g>
</g>
<g>
</g>
<g>
</g>
<g>
</g>
<g>
</g>
<g>
</g>
<g>
</g>
<g>
</g>
</svg>
