<?xml version="1.0" encoding="iso-8859-1"?>
<!-- Generator: Adobe Illustrator 16.0.0, SVG Export Plug-In . SVG Version: 6.00 Build 0)  -->
<!DOCTYPE svg PUBLIC "-//W3C//DTD SVG 1.1//EN" "http://www.w3.org/Graphics/SVG/1.1/DTD/svg11.dtd">
<svg version="1.1" id="Capa_1" xmlns="http://www.w3.org/2000/svg" xmlns:xlink="http://www.w3.org/1999/xlink" x="0px" y="0px"
	 width="124.73px" height="124.73px" viewBox="0 0 124.73 124.73" style="enable-background:new 0 0 124.73 124.73;"
	 xml:space="preserve">
<g>
	<path d="M6,122.565h89.8c1.4,0,2.9-0.5,3.9-1.601c1.6-1.8,1.7-4.399,0.399-6.3c-1.899-2.6-2.8-6.301-2.399-9.5
		c0.2-1.7,0.7-3.301,1.5-4.7c0.6-1.2,1.5-2.2,1.8-3.5c0.2-0.7,0.1-1.3,0.1-2c0-1.601,0-3.2,0-4.8c0-2.2,0-4.5,0-6.7H91v4.601
		c0,1.699-1.3,3-3,3H23c-1.7,0-3-1.301-3-3v-63.4c0-1.7,1.3-3,3-3h33.4v-10H6c-3.3,0-6,2.7-6,6v78.199v20.701
		C0,119.864,2.7,122.565,6,122.565z M10,103.965c0-1.7,1.3-3,3-3h75.2c-1.101,4.3-0.7,8.399,0.2,11.601H13c-1.7,0-3-1.301-3-3
		V103.965z"/>
	<path d="M40,31.865c0-1.7-1.3-3-3-3h-6.3c-1.7,0-3,1.3-3,3v6.3c0,1.7,1.3,3,3,3H37c1.7,0,3-1.3,3-3V31.865z"/>
	<path d="M40,53.565c0-1.7-1.3-3-3-3h-6.3c-1.7,0-3,1.3-3,3v6.3c0,1.7,1.3,3,3,3H37c1.7,0,3-1.299,3-3V53.565z"/>
	<path d="M37,72.165h-6.3c-1.7,0-3,1.3-3,3v6.4c0,1.699,1.3,3,3,3H37c1.7,0,3-1.301,3-3v-6.301C40,73.465,38.6,72.165,37,72.165z"/>
	<path d="M123.7,56.465c0.5-0.9,1-1.8,1-2.8v-48.5c0-1.7-1.3-3-3-3H69.3c-1.7,0-3,1.3-3,3v6.5v10v31.9v16.799c0,1.701,1.3,3,3,3H91
		h10h18.5c1.6,0,3.2-0.699,4.2-2c1.5-1.899,1.3-4.5-0.2-6.299c-0.9-1.101-1.5-2.601-1.6-4c0-1.2,0.3-2.5,1.1-3.6
		C123.2,57.165,123.4,56.865,123.7,56.465z M101,63.364H91H77.8c-0.8,0-1.5-0.699-1.5-1.5v-1.8c0-0.8,0.7-1.5,1.5-1.5H91h10h11.1
		c-0.199,1.7-0.199,3.3,0.101,4.799H101z M114.7,47.065c0,0.8-0.7,1.5-1.5,1.5H101H91h-9.2c-0.8,0-1.5-0.7-1.5-1.5v-25.4v-8
		c0-0.8,0.7-1.5,1.5-1.5h15.5h15.9c0.8,0,1.5,0.7,1.5,1.5V47.065z"/>
	<path d="M91.1,14.765H87.9c-0.801,0-1.5,0.7-1.5,1.5v0.9v2.4c0,0.8,0.699,1.5,1.5,1.5H91.1c0.801,0,1.5-0.7,1.5-1.5v-2.4v-0.9
		C92.6,15.465,92,14.765,91.1,14.765z"/>
	<path d="M91.1,26.765H91h-0.7H87.9c-0.801,0-1.5,0.7-1.5,1.5v3.3c0,0.8,0.699,1.5,1.5,1.5H90.3H91h0.2c0.8,0,1.5-0.7,1.5-1.5v-3.2
		C92.6,27.465,92,26.765,91.1,26.765z"/>
	<path d="M91.1,38.865H91h-3.1c-0.801,0-1.5,0.7-1.5,1.5v3.2l0,0c0,0.8,0.699,1.5,1.5,1.5H91h0.2c0.8,0,1.5-0.7,1.5-1.5l0,0v-3.2
		C92.6,39.465,92,38.865,91.1,38.865z"/>
</g>
<g>
</g>
<g>
</g>
<g>
</g>
<g>
</g>
<g>
</g>
<g>
</g>
<g>
</g>
<g>
</g>
<g>
</g>
<g>
</g>
<g>
</g>
<g>
</g>
<g>
</g>
<g>
</g>
<g>
</g>
</svg>
