<?xml version="1.0" encoding="iso-8859-1"?>
<!-- Generator: Adobe Illustrator 16.0.0, SVG Export Plug-In . SVG Version: 6.00 Build 0)  -->
<!DOCTYPE svg PUBLIC "-//W3C//DTD SVG 1.1//EN" "http://www.w3.org/Graphics/SVG/1.1/DTD/svg11.dtd">
<svg version="1.1" id="Capa_1" xmlns="http://www.w3.org/2000/svg" xmlns:xlink="http://www.w3.org/1999/xlink" x="0px" y="0px"
	 width="932.199px" height="932.199px" viewBox="0 0 932.199 932.199" style="enable-background:new 0 0 932.199 932.199;"
	 xml:space="preserve">
<g>
	<path d="M757,243.1c38.699,0,70-31.3,70-70V130C827,58.3,768.699,0,697,0H235.2c-71.7,0-130,58.3-130,130v153.3h140V140H687v33.1
		C687,211.8,718.3,243.1,757,243.1z"/>
	<path d="M60.399,358.3c-33.1,0-60,26.899-60,60v453.899c0,33.102,26.9,60,60,60h811.4c33.1,0,60-26.898,60-60V418.3
		c0-33.101-26.9-60-60-60H245.2h-140H60.399z"/>
</g>
<g>
</g>
<g>
</g>
<g>
</g>
<g>
</g>
<g>
</g>
<g>
</g>
<g>
</g>
<g>
</g>
<g>
</g>
<g>
</g>
<g>
</g>
<g>
</g>
<g>
</g>
<g>
</g>
<g>
</g>
</svg>
