<?xml version="1.0" encoding="iso-8859-1"?>
<!-- Generator: Adobe Illustrator 16.0.0, SVG Export Plug-In . SVG Version: 6.00 Build 0)  -->
<!DOCTYPE svg PUBLIC "-//W3C//DTD SVG 1.1//EN" "http://www.w3.org/Graphics/SVG/1.1/DTD/svg11.dtd">
<svg version="1.1" id="Capa_1" xmlns="http://www.w3.org/2000/svg" xmlns:xlink="http://www.w3.org/1999/xlink" x="0px" y="0px"
	 width="124px" height="124px" viewBox="0 0 124 124" style="enable-background:new 0 0 124 124;" xml:space="preserve">
<g>
	<path d="M71,30c0-3.3-2.7-6-6-6h-6c-3.3,0-6,2.7-6,6v41c0,3.3,2.7,6,6,6h6c3.3,0,6-2.7,6-6V30z"/>
	<circle cx="62" cy="92" r="9"/>
	<path d="M109.2,53.2C109.7,56,110,59,110,62c0,26.5-21.5,48-48,48S14,88.5,14,62s21.5-48,48-48c12.6,0,24,4.9,32.6,12.8l9.9-9.9
		C93.4,6.4,78.4,0,62,0C27.8,0,0,27.8,0,62s27.8,62,62,62s62-27.8,62-62c0-7.1-1.2-13.9-3.4-20.2L109.2,53.2z"/>
	<path d="M91.4,37L89.3,34.9c-2.399-2.4-6.2-2.4-8.5,0c-2.399,2.4-2.399,6.2,0,8.5l8.9,8.9c1.1,1.1,2.7,1.8,4.3,1.8s3.1-0.6,4.3-1.8
		l23-23c2.3-2.3,2.5-6.1,0.3-8.5c-2.3-2.5-6.3-2.6-8.699-0.1L96.4,37C95,38.4,92.8,38.4,91.4,37z"/>
</g>
<g>
</g>
<g>
</g>
<g>
</g>
<g>
</g>
<g>
</g>
<g>
</g>
<g>
</g>
<g>
</g>
<g>
</g>
<g>
</g>
<g>
</g>
<g>
</g>
<g>
</g>
<g>
</g>
<g>
</g>
</svg>
