<?xml version="1.0" encoding="iso-8859-1"?>
<!-- Generator: Adobe Illustrator 19.0.0, SVG Export Plug-In . SVG Version: 6.00 Build 0)  -->
<svg version="1.1" id="Layer_1" xmlns="http://www.w3.org/2000/svg" xmlns:xlink="http://www.w3.org/1999/xlink" x="0px" y="0px"
	 viewBox="0 0 392.598 392.598" style="enable-background:new 0 0 392.598 392.598;" xml:space="preserve">
<g>
	<g>
		<path d="M382.384,370.877V212.17c0-23.014-18.747-41.826-41.826-41.826h-85.721l-9.18-35.168
			c17.131-14.481,27.216-35.879,27.216-58.57C272.937,34.327,238.545,0,196.396,0S119.79,34.327,119.79,76.606
			c0,22.691,10.02,44.024,27.216,58.57l-9.18,35.168h-85.85c-23.014,0-41.826,18.747-41.826,41.826v158.707
			C4.525,371.265,0,375.984,0,381.673c0,6.012,4.848,10.925,10.925,10.925h370.747c6.012,0,10.925-4.848,10.925-10.925
			C392.598,375.919,388.137,371.265,382.384,370.877z M32,370.812V212.17c0-11.055,8.986-20.04,20.04-20.04h80.032L85.139,370.812
			H32z M107.701,370.812l62.19-237.123c1.164-4.461-0.646-9.18-4.396-11.766c-14.998-10.214-23.984-27.151-23.984-45.253
			c0-30.19,24.566-54.756,54.756-54.756c30.19,0,54.756,24.566,54.756,54.756c0,18.101-8.986,34.974-23.984,45.253
			c-3.814,2.651-5.56,7.37-4.396,11.766l62.19,237.123H107.701z M360.598,370.812h-53.139l-46.933-178.683h80.032
			c11.055,0,20.04,8.986,20.04,20.04V370.812z"/>
	</g>
</g>
<g>
</g>
<g>
</g>
<g>
</g>
<g>
</g>
<g>
</g>
<g>
</g>
<g>
</g>
<g>
</g>
<g>
</g>
<g>
</g>
<g>
</g>
<g>
</g>
<g>
</g>
<g>
</g>
<g>
</g>
</svg>
