<?xml version="1.0" encoding="iso-8859-1"?>
<!-- Generator: Adobe Illustrator 19.0.0, SVG Export Plug-In . SVG Version: 6.00 Build 0)  -->
<svg version="1.1" id="Layer_1" xmlns="http://www.w3.org/2000/svg" xmlns:xlink="http://www.w3.org/1999/xlink" x="0px" y="0px"
	 viewBox="0 0 508.016 508.016" style="enable-background:new 0 0 508.016 508.016;" xml:space="preserve">
<g>
	<g>
		<path d="M445.08,484.016L85.38,4.916c-5.5-7.5-25.4-7.7-25.4,8.5v480.5c0,7.8,6.3,14.1,14.1,14.1c0,0,360.8,0,360.9,0
			C445.58,508.016,452.18,493.316,445.08,484.016z M355.48,479.816v-0.1v-10.6c0-7.8-6.3-14.1-14.1-14.1s-14.1,6.3-14.1,14.1v10.6
			h-34.2v-22.1c0-7.8-6.3-14.1-14.1-14.1s-14.1,6.3-14.1,14.1v22.1h-34.2v-10.6c0-7.8-6.3-14.1-14.1-14.1s-14.1,6.3-14.1,14.1v10.6
			h-34.2v-22.1c0-7.8-6.3-14.1-14.1-14.1s-14.1,6.3-14.1,14.1v22.1h-51.9v-51.8h22c7.8,0,14.1-6.3,14.1-14.1
			c0-7.8-6.3-14.1-14.1-14.1h-22v-38.2h10.6c7.8,0,14.1-6.3,14.1-14.1c0-7.8-6.3-14.1-14.1-14.1h-10.6v-38.3h22.1
			c7.8,0,14.1-6.3,14.1-14.1c0-7.8-6.3-14.1-14.1-14.1h-22.1v-38.2h10.6c7.8,0,14.1-6.3,14.1-14.1c0-7.8-6.3-14.1-14.1-14.1h-10.6
			v-38.2h22.1c7.8,0,14.1-6.3,14.1-14.1s-6.3-14.1-14.1-14.1h-22.1v-78.2l318.3,424H355.48z"/>
	</g>
</g>
<g>
	<g>
		<path d="M271.38,397.216l-99.3-132.2c-7.4-8-25.4-4.8-25.4,8.5v133.7c0,7.7,6.3,14,14.1,14c0,0,100.4,0,100.5,0
			C275.38,421.216,277.38,405.616,271.38,397.216z M174.88,393.016v-77.2l57.9,77.2H174.88z"/>
	</g>
</g>
<g>
</g>
<g>
</g>
<g>
</g>
<g>
</g>
<g>
</g>
<g>
</g>
<g>
</g>
<g>
</g>
<g>
</g>
<g>
</g>
<g>
</g>
<g>
</g>
<g>
</g>
<g>
</g>
<g>
</g>
</svg>
