<?xml version="1.0" encoding="iso-8859-1"?>
<!-- Generator: Adobe Illustrator 19.0.0, SVG Export Plug-In . SVG Version: 6.00 Build 0)  -->
<svg version="1.1" id="Layer_1" xmlns="http://www.w3.org/2000/svg" xmlns:xlink="http://www.w3.org/1999/xlink" x="0px" y="0px"
	 viewBox="0 0 508 508" style="enable-background:new 0 0 508 508;" xml:space="preserve">
<g>
	<g>
		<path d="M436.873,254c43.5-45.5,66.6-92.6,46.7-127.1c-5.7-9.7-14.4-17.3-25.9-22.5c-2.7-20.7-20.5-36.8-41.9-36.8
			c-19.5,0-36,13.3-40.8,31.4c-8,1.3-16.2,3-24.7,5c-17.6-60.4-46.8-104-86.6-104s-69,43.5-86.6,103.9c-34.5-8.3-65.2-10.4-89-5.4
			c-7.7-7.1-17.8-11.5-28.9-11.5c-23.3,0-42.3,19-42.3,42.3c0,15.6,8.5,29.2,21,36.5c4.3,26.5,23.1,57.2,52.5,88.2
			c-6.1,6.5-11.9,13-17.1,19.4c-34.5,42.7-45,80.9-29.6,107.6c11.8,20.5,39.2,33.4,107.8,28.2c8.3-0.6,16.8-3.1,25.5-5.2
			c17.6,60.5,46.8,104,86.7,104c39.8,0,69-43.5,86.6-104c54.6,13.9,114.4,8.3,133.4-23C504.173,346.9,480.373,299.5,436.873,254z
			 M45.073,129.4c0-7.8,6.3-14.1,14.1-14.1s14.1,6.3,14.1,14.1c0,7.8-6.3,14.1-14.1,14.1S45.073,137.2,45.073,129.4z M147.073,381.3
			c-40.6,6.4-70.1,1-79-14.4c-8.9-15.4,1.2-43.7,27-75.6c4.7-5.8,9.9-11.6,15.4-17.4c14.8,13.5,31.5,26.9,49.8,39.9
			c2.1,21.7,5.4,42.9,9.8,62.8C162.173,378.5,154.473,380.1,147.073,381.3z M157.773,276.9c-9.8-7.6-18.8-15.2-27.1-22.7
			c8.4-7.7,17.5-15.3,27.1-22.8c-0.3,7.5-0.4,15.1-0.4,22.6C157.373,261.6,157.473,269.3,157.773,276.9z M160.273,194.2
			c-18.1,12.9-34.8,26.4-49.8,40.1c-22.4-23.7-36.7-45.7-42.5-63.5c19.1-4.1,33.5-21.1,33.5-41.4c0-1.5-0.1-3-0.2-4.5
			c18.5-2.3,42.2,0,68.8,6.5C165.673,151.4,162.473,172.6,160.273,194.2z M336.373,173.8c-6.5-4.1-13-8-19.6-11.8
			c-6.6-3.8-13.2-7.4-19.7-10.9c11.2-4.5,22.4-8.7,33.2-12.1C332.573,149.9,334.673,161.5,336.373,173.8z M263.673,28.2
			c21.4,0,44.2,31.2,59.6,83.3c-19.3,6.1-39.3,13.8-59.5,23c-20.4-9.4-40.5-17.1-59.7-23.1C219.473,59.4,242.273,28.2,263.673,28.2z
			 M197.073,139c10.8,3.5,21.9,7.5,33.2,12.1c-6.6,3.5-13.2,7.1-19.8,10.9c-6.7,3.8-13.2,7.8-19.6,11.8
			C192.573,161.5,194.673,150,197.073,139z M190.873,334.3c6.4,4,12.9,7.9,19.6,11.8c6.5,3.8,13.2,7.4,19.8,10.9
			c-11.3,4.6-22.4,8.6-33.3,12.1C194.673,358.1,192.573,346.5,190.873,334.3z M263.673,479.8c-21.4,0-44.2-31.2-59.6-83.3
			c19.4-6.1,39.4-13.8,59.6-23.1c19.9,9.1,40,16.8,59.6,23C307.873,448.6,285.073,479.8,263.673,479.8z M330.173,369.2
			c-10.7-3.4-21.9-7.5-33.4-12.1c6.7-3.5,13.3-7.2,20-11c6.6-3.8,13.1-7.8,19.6-11.8C334.673,346.6,332.573,358.2,330.173,369.2z
			 M340.173,298.2c-11.7,8-24.2,15.8-37.5,23.5c-13,7.5-26.1,14.4-39.1,20.7c-12.7-6.2-25.8-13-39-20.7
			c-13.3-7.7-25.8-15.5-37.5-23.4c-1-14.2-1.6-28.9-1.6-44.2c0-15.3,0.6-30,1.6-44.1c12-8.1,24.5-16,37.5-23.5
			c12.9-7.5,26-14.3,39-20.6c13,6.3,26.1,13.1,39,20.6c13.2,7.7,25.7,15.5,37.5,23.5c1,14.1,1.6,28.8,1.6,44.1
			C341.673,269.3,341.173,284,340.173,298.2z M415.873,95.9c7.8,0,14.1,6.3,14.1,14.1s-6.3,14.1-14.1,14.1s-14.1-6.3-14.1-14.1
			S408.073,95.9,415.873,95.9z M377.273,127.4c6.6,14.7,21.4,25,38.6,25c14.9,0,27.9-7.7,35.5-19.3c3.4,2.3,6.1,5,7.9,8.1
			c10.7,18.5-5,53.9-42.4,93.3c-15.2-13.8-32-27.3-49.8-40.1c-2.1-21.7-5.4-42.9-9.8-62.9
			C364.173,129.8,370.773,128.4,377.273,127.4z M369.473,231.2c9.8,7.6,18.8,15.3,27.2,22.8c-8.3,7.6-17.4,15.2-27.2,22.8
			c0.3-7.6,0.4-15.3,0.4-22.9C369.973,246.4,369.773,238.8,369.473,231.2z M459.173,366.9c-10.7,18.5-49.1,22.7-102,10
			c4.4-20.1,7.7-41.4,9.8-63.2c17.8-12.7,34.6-26.2,49.8-40.1C454.273,313,469.873,348.4,459.173,366.9z"/>
	</g>
</g>
<g>
	<g>
		<path d="M263.673,207.3c-23.3,0-42.3,19-42.3,42.3c0,23.3,19,42.3,42.3,42.3s42.3-19,42.3-42.3S286.973,207.3,263.673,207.3z
			 M263.673,263.7c-7.8,0-14.1-6.3-14.1-14.1c0-7.8,6.3-14.1,14.1-14.1c7.8,0,14.1,6.3,14.1,14.1
			C277.773,257.4,271.473,263.7,263.673,263.7z"/>
	</g>
</g>
<g>
</g>
<g>
</g>
<g>
</g>
<g>
</g>
<g>
</g>
<g>
</g>
<g>
</g>
<g>
</g>
<g>
</g>
<g>
</g>
<g>
</g>
<g>
</g>
<g>
</g>
<g>
</g>
<g>
</g>
</svg>
