<?xml version="1.0" encoding="iso-8859-1"?>
<!-- Generator: Adobe Illustrator 19.0.0, SVG Export Plug-In . SVG Version: 6.00 Build 0)  -->
<svg version="1.1" id="Layer_1" xmlns="http://www.w3.org/2000/svg" xmlns:xlink="http://www.w3.org/1999/xlink" x="0px" y="0px"
	 viewBox="0 0 508.05 508.05" style="enable-background:new 0 0 508.05 508.05;" xml:space="preserve">
<g>
	<g>
		<path d="M493.925,177.95h-105.5v-58.4h20.9c6.4,0,11.9-4.3,13.6-10.4c1.7-6.1-1-12.6-6.5-15.9l-155.3-91.3
			c-4.4-2.6-9.9-2.6-14.3,0l-155.4,91.2c-5.5,3.2-8.1,9.7-6.5,15.9c1.7,6.1,7.3,10.4,13.6,10.4h20.9v58.4h-105.3
			c-7.8,0.1-14.1,6.4-14.1,14.2v301.9c0,7.8,6.3,14.1,14.1,14.1h479.8c7.8,0,14.1-6.3,14.1-14.1v-301.9
			C508.025,184.25,501.725,177.95,493.925,177.95z M254.025,30.55l103.5,60.7h-207L254.025,30.55z M119.525,479.85h-91.3v-273.7
			h91.3V479.85z M285.925,479.85h-63.9v-93.3h63.9V479.85z M314.125,479.85v-107.5c0-7.8-6.3-14.1-14.1-14.1h-92.1
			c-7.8,0-14.1,6.3-14.1,14.1v107.4h-46.1v-287.7v-0.1v-72.4h212.4v360.3H314.125z M479.825,479.85h-91.3v-273.7h91.3V479.85z"/>
	</g>
</g>
<g>
	<g>
		<path d="M78.825,240.75h-9.8c-7.8,0-14.1,6.3-14.1,14.1c0,7.7,6.3,14.1,14.1,14.1h9.8c7.8,0,14.1-6.3,14.1-14.1
			C92.925,247.05,86.625,240.75,78.825,240.75z"/>
	</g>
</g>
<g>
	<g>
		<path d="M78.825,299.45h-9.8c-7.8,0-14.1,6.3-14.1,14.1c0,7.8,6.3,14.1,14.1,14.1h9.8c7.8,0,14.1-6.3,14.1-14.1
			S86.625,299.45,78.825,299.45z"/>
	</g>
</g>
<g>
	<g>
		<path d="M78.825,358.25h-9.8c-7.8,0-14.1,6.3-14.1,14.1s6.3,14.1,14.1,14.1h9.8c7.8,0,14.1-6.3,14.1-14.1
			C92.925,364.55,86.625,358.25,78.825,358.25z"/>
	</g>
</g>
<g>
	<g>
		<path d="M78.825,417.05h-9.8c-7.8,0-14.1,6.3-14.1,14.1s6.3,14.1,14.1,14.1h9.8c7.8,0,14.1-6.3,14.1-14.1
			C92.925,423.35,86.625,417.05,78.825,417.05z"/>
	</g>
</g>
<g>
	<g>
		<path d="M439.025,240.75h-9.8c-7.8,0-14.1,6.3-14.1,14.1c0,7.7,6.3,14.1,14.1,14.1h9.8c7.8,0,14.1-6.3,14.1-14.1
			C453.125,247.05,446.825,240.75,439.025,240.75z"/>
	</g>
</g>
<g>
	<g>
		<path d="M439.025,299.45h-9.8c-7.8,0-14.1,6.3-14.1,14.1c0,7.8,6.3,14.1,14.1,14.1h9.8c7.8,0,14.1-6.3,14.1-14.1
			S446.825,299.45,439.025,299.45z"/>
	</g>
</g>
<g>
	<g>
		<path d="M439.025,358.25h-9.8c-7.8,0-14.1,6.3-14.1,14.1c0,7.8,6.3,14.1,14.1,14.1h9.8c7.8,0,14.1-6.3,14.1-14.1
			S446.825,358.25,439.025,358.25z"/>
	</g>
</g>
<g>
	<g>
		<path d="M439.025,417.05h-9.8c-7.8,0-14.1,6.3-14.1,14.1s6.3,14.1,14.1,14.1h9.8c7.8,0,14.1-6.3,14.1-14.1
			C453.125,423.35,446.825,417.05,439.025,417.05z"/>
	</g>
</g>
<g>
	<g>
		<path d="M254.025,147.15c-44.8,0-81.2,36.4-81.2,81.2s36.4,81.2,81.2,81.2s81.2-36.4,81.2-81.2S298.825,147.15,254.025,147.15z
			 M254.025,281.25c-29.1,0-53-23.6-53-52.8s23.8-53,53-53s52.9,23.8,52.9,52.9S283.125,281.25,254.025,281.25z"/>
	</g>
</g>
<g>
	<g>
		<path d="M271.725,217.45h-3.5v-15c0-7.8-6.3-14.1-14.1-14.1c-7.8,0-14.1,6.3-14.1,14.1v29.1c-0.1,7.7,6.2,14.1,14,14.1h17.7
			c7.8,0,14.1-6.3,14.1-14.1S279.525,217.45,271.725,217.45z"/>
	</g>
</g>
<g>
</g>
<g>
</g>
<g>
</g>
<g>
</g>
<g>
</g>
<g>
</g>
<g>
</g>
<g>
</g>
<g>
</g>
<g>
</g>
<g>
</g>
<g>
</g>
<g>
</g>
<g>
</g>
<g>
</g>
</svg>
