<?xml version="1.0" encoding="iso-8859-1"?>
<!-- Generator: Adobe Illustrator 19.0.0, SVG Export Plug-In . SVG Version: 6.00 Build 0)  -->
<svg version="1.1" id="Layer_1" xmlns="http://www.w3.org/2000/svg" xmlns:xlink="http://www.w3.org/1999/xlink" x="0px" y="0px"
	 viewBox="0 0 392.341 392.341" style="enable-background:new 0 0 392.341 392.341;" xml:space="preserve">
<g>
	<g>
		<path d="M325.722,200.212c-2.004-2.909-5.43-4.719-8.986-4.719h-24.048c-1.552-20.622-2.457-38.335-2.78-54.562
			c11.895-9.956,19.459-24.954,19.459-41.632c0-17.455-11.442-28.962-22.432-40.016c-13.188-13.188-24.566-24.63-21.269-46.739
			c0.646-3.879-1.034-7.822-4.073-10.214c-3.038-2.392-7.24-3.038-10.925-1.487c-30.707,12.8-50.295,71.887-50.295,98.457
			c0,16.679,7.564,31.612,19.394,41.632c-0.323,16.291-1.228,33.939-2.78,54.626h-31.224v-59.992c0-1.875-0.453-3.685-1.422-5.301
			l-32.97-58.699c-1.939-3.491-5.56-5.56-9.503-5.56s-7.564,2.133-9.503,5.56l-32.84,58.699c-0.905,1.616-1.422,3.491-1.422,5.301
			v59.798H75.54c-3.556,0-6.982,1.745-8.986,4.719c-2.004,2.909-2.457,6.723-1.164,10.02c18.36,47.838,28.057,96.97,29.543,150.303
			c0.453,17.907,14.804,31.935,32.711,31.935h137.18c17.842,0,32.129-14.093,32.711-31.935
			c1.487-53.333,11.119-102.465,29.543-150.303C328.178,206.935,327.791,203.186,325.722,200.212z M244.914,33.941
			c4.396,18.36,16.743,30.836,26.57,40.663c9.956,10.02,16.097,16.549,16.097,24.63c0,18.036-14.675,32.711-32.711,32.711
			c-18.036,0-32.711-14.675-32.711-32.711C222.223,82.168,232.179,51.719,244.914,33.941z M270.837,195.428h-31.935
			c1.228-15.968,2.004-30.319,2.457-43.507c4.331,1.099,8.792,1.745,13.511,1.745c4.655,0,9.18-0.646,13.511-1.745
			C268.833,165.238,269.673,179.525,270.837,195.428z M141.932,99.04l14.352,25.6h-28.638L141.932,99.04z M164.041,146.426v49.002
			h-44.154c0,0,0-49.002,0-49.002H164.041z M275.556,359.954c-0.129,6.012-4.913,10.731-10.925,10.731H127.516
			c-5.947,0-10.731-4.719-10.925-10.731c-1.422-50.295-9.826-97.164-25.6-142.675h210.036
			C285.383,262.79,276.978,309.659,275.556,359.954z"/>
	</g>
</g>
<g>
</g>
<g>
</g>
<g>
</g>
<g>
</g>
<g>
</g>
<g>
</g>
<g>
</g>
<g>
</g>
<g>
</g>
<g>
</g>
<g>
</g>
<g>
</g>
<g>
</g>
<g>
</g>
<g>
</g>
</svg>
