<?xml version="1.0" encoding="iso-8859-1"?>
<!-- Generator: Adobe Illustrator 19.0.0, SVG Export Plug-In . SVG Version: 6.00 Build 0)  -->
<svg version="1.1" id="Layer_1" xmlns="http://www.w3.org/2000/svg" xmlns:xlink="http://www.w3.org/1999/xlink" x="0px" y="0px"
	 viewBox="0 0 508 508" style="enable-background:new 0 0 508 508;" xml:space="preserve">
<g>
	<g>
		<path d="M438.193,446.3l-11.8-302.7c-1.4-36.3-31-64.7-67.3-64.7h-26c-5.7-44.6-38.3-78.9-77.6-78.9s-71.8,34.3-77.6,78.8h-29.1
			c-36.3,0-65.9,28.4-67.3,64.7l-11.7,302.8c-0.5,11.8,11.7,44.7,43,44.7h12v2.9c0,7.8,6.3,14.1,14.1,14.1s14.1-6.3,14.1-14.1V491
			h202v2.9c0,7.8,6.3,14.1,14.1,14.1c7.8,0,14.1-6.3,14.1-14.1V491h12C433.093,491,438.693,458.1,438.193,446.3z M255.493,28.2
			c24,0,44.1,21.7,49.2,50.6h-98.3C211.393,49.9,231.493,28.2,255.493,28.2z M109.793,144.6c0.8-21.1,18-37.6,39.1-37.6h210.3
			c21.1,0,38.2,16.5,39.1,37.6l3.6,91.4c-96.3,34.2-195.7,34.2-295.6-0.1L109.793,144.6z M395.193,462.7h-282.4
			c-10.7,0-15-11.3-14.8-15.4l7.1-182.1c23,7.5,45.9,13.3,68.7,17.4v16.7c0,7.8,6.3,14.1,14.1,14.1c7.8,0,14.1-6.3,14.1-14.1v-12.6
			c17.9,2.1,35.7,3.2,53.5,3.2c16.9,0,33.7-1.1,50.5-2.9v12.3c0,7.8,6.3,14.1,14.1,14.1c7.8,0,14.1-6.3,14.1-14.1V283
			c23.1-4.1,46-9.9,68.8-17.6l7.1,181.9C410.193,451.4,408.293,462.7,395.193,462.7z"/>
	</g>
</g>
<g>
	<g>
		<path d="M351.793,139.7h-195.7c-7.8,0-14.1,6.3-14.1,14.1s6.3,14.1,14.1,14.1h159.7V189c0,7.8,6.3,14.1,14.1,14.1
			c7.8,0,14.1-6.3,14.1-14.1v-21.1h7.8c7.8,0,14.1-6.3,14.1-14.1S359.593,139.7,351.793,139.7z"/>
	</g>
</g>
<g>
</g>
<g>
</g>
<g>
</g>
<g>
</g>
<g>
</g>
<g>
</g>
<g>
</g>
<g>
</g>
<g>
</g>
<g>
</g>
<g>
</g>
<g>
</g>
<g>
</g>
<g>
</g>
<g>
</g>
</svg>
