<?xml version="1.0" encoding="iso-8859-1"?>
<!-- Generator: Adobe Illustrator 19.0.0, SVG Export Plug-In . SVG Version: 6.00 Build 0)  -->
<svg version="1.1" id="Layer_1" xmlns="http://www.w3.org/2000/svg" xmlns:xlink="http://www.w3.org/1999/xlink" x="0px" y="0px"
	 viewBox="0 0 392.598 392.598" style="enable-background:new 0 0 392.598 392.598;" xml:space="preserve">
<g>
	<g>
		<path d="M256.776,151.984v-46.739c0-6.012-4.849-10.925-10.925-10.925h-13.059L206.739,7.758C205.317,3.103,201.115,0,196.331,0
			s-9.05,3.168-10.408,7.758l-26.117,86.562h-13.059c-6.012,0-10.925,4.849-10.925,10.925v46.739
			c-47.386,23.079-77.576,70.917-77.576,123.992c0,46.158,22.885,89.018,61.285,114.747c1.745,1.228,3.943,1.875,6.077,1.875H266.99
			c2.133,0,4.267-0.646,6.077-1.875c38.335-25.729,61.285-68.59,61.285-114.747C334.352,222.901,304.097,175.063,256.776,151.984z
			 M196.331,48.743l13.77,45.576h-27.539L196.331,48.743z M157.673,116.105h77.253v31.806h-77.253V116.105z M149.01,169.826h94.578
			c17.842,7.952,32.97,20.105,44.541,34.844H104.533C116.04,189.931,131.168,177.778,149.01,169.826z M263.628,370.812H129.034
			c-13.317-9.438-24.178-21.333-32.323-34.844h199.24C287.806,349.479,276.945,361.374,263.628,370.812z M86.497,314.117
			c-4.202-12.024-6.4-24.889-6.4-38.077c0-17.519,3.943-34.327,11.055-49.519h210.36c7.111,15.127,11.055,32,11.055,49.519
			c0,13.123-2.263,25.988-6.4,38.077H86.497z"/>
	</g>
</g>
<g>
</g>
<g>
</g>
<g>
</g>
<g>
</g>
<g>
</g>
<g>
</g>
<g>
</g>
<g>
</g>
<g>
</g>
<g>
</g>
<g>
</g>
<g>
</g>
<g>
</g>
<g>
</g>
<g>
</g>
</svg>
