<?xml version="1.0" encoding="iso-8859-1"?>
<!-- Generator: Adobe Illustrator 19.0.0, SVG Export Plug-In . SVG Version: 6.00 Build 0)  -->
<svg version="1.1" id="Layer_1" xmlns="http://www.w3.org/2000/svg" xmlns:xlink="http://www.w3.org/1999/xlink" x="0px" y="0px"
	 viewBox="0 0 507.9 507.9" style="enable-background:new 0 0 507.9 507.9;" xml:space="preserve">
<g>
	<g>
		<path d="M444.45,0h-381c-23.3,0-42.3,19-42.3,42.3v423.3c0,23.3,19,42.3,42.3,42.3h381c23.3,0,42.3-19,42.3-42.3V42.3
			C486.75,19,467.75,0,444.45,0z M458.55,465.7c0,7.8-6.3,14.1-14.1,14.1h-381c-7.8,0-14.1-6.3-14.1-14.1V42.3
			c0-7.8,6.3-14.1,14.1-14.1h381c7.8,0,14.1,6.3,14.1,14.1V465.7z"/>
	</g>
</g>
<g>
	<g>
		<path d="M408.15,56.5H91.65c-7.8,0-14.1,6.3-14.1,14.1v112.9c0,7.7,6.3,14.1,14.1,14.1h316.5c7.8,0,14.1-6.3,14.1-14.1V70.6
			C422.25,62.8,415.95,56.5,408.15,56.5z M394.05,169.4h-288.3V84.7h288.3V169.4z"/>
	</g>
</g>
<g>
	<g>
		<path d="M162.25,225.8h-70.6c-7.8,0-14.1,6.3-14.1,14.1v70.6c0,7.8,6.3,14.1,14.1,14.1h70.6c7.8,0,14.1-6.3,14.1-14.1v-70.6
			C176.35,232.1,170.05,225.8,162.25,225.8z M148.15,296.3h-42.3V254h42.3V296.3z"/>
	</g>
</g>
<g>
	<g>
		<path d="M162.25,352.8h-70.6c-7.8,0-14.1,6.3-14.1,14.1v70.6c0,7.8,6.3,14.1,14.1,14.1h70.6c7.8,0,14.1-6.3,14.1-14.1v-70.6
			C176.35,359.1,170.05,352.8,162.25,352.8z M148.15,423.3h-42.3V381h42.3V423.3z"/>
	</g>
</g>
<g>
	<g>
		<path d="M289.25,225.8h-70.6c-7.8,0-14.1,6.3-14.1,14.1v70.6c0,7.8,6.3,14.1,14.1,14.1h70.6c7.8,0,14.1-6.3,14.1-14.1v-70.6
			C303.35,232.1,297.05,225.8,289.25,225.8z M275.15,296.3h-42.3V254h42.3V296.3z"/>
	</g>
</g>
<g>
	<g>
		<path d="M289.25,352.8h-70.6c-7.8,0-14.1,6.3-14.1,14.1v70.6c0,7.8,6.3,14.1,14.1,14.1h70.6c7.8,0,14.1-6.3,14.1-14.1v-70.6
			C303.35,359.1,297.05,352.8,289.25,352.8z M275.15,423.3h-42.3V381h42.3V423.3z"/>
	</g>
</g>
<g>
	<g>
		<path d="M416.25,225.8h-70.6c-7.8,0-14.1,6.3-14.1,14.1v70.6c0,7.8,6.3,14.1,14.1,14.1h70.6c7.8,0,14.1-6.3,14.1-14.1v-70.6
			C430.35,232.1,424.05,225.8,416.25,225.8z M402.15,296.3h-42.3V254h42.3V296.3z"/>
	</g>
</g>
<g>
	<g>
		<path d="M416.25,352.8h-70.6c-7.8,0-14.1,6.3-14.1,14.1v70.6c0,7.8,6.3,14.1,14.1,14.1h70.6c7.8,0,14.1-6.3,14.1-14.1v-70.6
			C430.35,359.1,424.05,352.8,416.25,352.8z M402.15,423.3h-42.3V381h42.3V423.3z"/>
	</g>
</g>
<g>
</g>
<g>
</g>
<g>
</g>
<g>
</g>
<g>
</g>
<g>
</g>
<g>
</g>
<g>
</g>
<g>
</g>
<g>
</g>
<g>
</g>
<g>
</g>
<g>
</g>
<g>
</g>
<g>
</g>
</svg>
