<?xml version="1.0" encoding="iso-8859-1"?>
<!-- Generator: Adobe Illustrator 19.0.0, SVG Export Plug-In . SVG Version: 6.00 Build 0)  -->
<svg version="1.1" id="Layer_1" xmlns="http://www.w3.org/2000/svg" xmlns:xlink="http://www.w3.org/1999/xlink" x="0px" y="0px"
	 viewBox="0 0 507.994 507.994" style="enable-background:new 0 0 507.994 507.994;" xml:space="preserve">
<g>
	<g>
		<path d="M503.869,132.387l-128.3-128.4c-5.3-5.3-14.7-5.3-19.9,0l-106.4,106.4l-5.8-5.8c-4.3-4.3-10.8-5.4-16.2-2.7
			c-40,19.8-79.8,48.9-115,84.2c-106.1,106.2-143.2,235.5-84.4,294.4c61.3,61.4,195.4,14.2,294.1-84.5
			c35.2-35.3,64.3-75.1,84.1-115.2c2.7-5.4,1.6-12-2.7-16.2l-5.8-5.8l106.3-106.4C509.369,146.887,509.369,137.887,503.869,132.387z
			 M301.969,375.987c-88.3,88.5-208.3,130.4-254.2,84.5c-46-46.1-7.4-162.6,84.4-254.5c30.4-30.5,64.3-56,98.6-74.2l145.3,145.5
			C357.869,311.587,332.369,345.587,301.969,375.987z M377.569,238.687l-108.3-108.3l96.3-96.5l108.3,108.4L377.569,238.687z"/>
	</g>
</g>
<g>
	<g>
		<path d="M375.569,89.287c-5.5-5.5-14.4-5.5-19.9,0l-31,31c-5.5,5.5-5.5,14.5,0,20s13.9,6,19.9,0l31-31
			C381.069,103.787,381.069,94.887,375.569,89.287z"/>
	</g>
</g>
<g>
	<g>
		<path d="M418.569,132.387c-5.5-5.5-14.4-5.5-19.9,0l-31,31c-5.5,5.5-5.5,14.5,0,20s13.9,6,19.9,0l31-31
			C424.069,146.787,424.069,137.887,418.569,132.387z"/>
	</g>
</g>
<g>
</g>
<g>
</g>
<g>
</g>
<g>
</g>
<g>
</g>
<g>
</g>
<g>
</g>
<g>
</g>
<g>
</g>
<g>
</g>
<g>
</g>
<g>
</g>
<g>
</g>
<g>
</g>
<g>
</g>
</svg>
