<?xml version="1.0" encoding="iso-8859-1"?>
<!-- Generator: Adobe Illustrator 19.0.0, SVG Export Plug-In . SVG Version: 6.00 Build 0)  -->
<svg version="1.1" id="Layer_1" xmlns="http://www.w3.org/2000/svg" xmlns:xlink="http://www.w3.org/1999/xlink" x="0px" y="0px"
	 viewBox="0 0 507.931 507.931" style="enable-background:new 0 0 507.931 507.931;" xml:space="preserve">
<g>
	<g>
		<path d="M433,345.222H14.1c-7.8,0-14.1,6.3-14.1,14.1v83.8c0,7.8,6.3,14.1,14.1,14.1H433c7.8,0,14.1-6.3,14.1-14.1v-83.8
			C447.1,351.522,440.8,345.222,433,345.222z M99,429.022H28.2v-55.6H99V429.022z M354.9,429.022H127.2v-55.6h227.7V429.022z
			 M418.9,429.022h-35.8v-55.6h35.8V429.022z"/>
	</g>
</g>
<g>
	<g>
		<path d="M475.3,170.822c-17-17-25.2-34.2-24.4-51.1c1.3-25.5,22.9-43.5,23.3-43.9c6-4.9,7-13.7,2.1-19.8
			c-4.9-6.1-13.8-7.1-19.8-2.2c-1.3,1-31.7,25.8-33.8,64.1c-1.4,25.3,9.6,49.8,32.6,72.8c16.6,16.6,24.8,33.9,24.4,51.5
			c-0.6,28.7-23.7,50.1-23.9,50.3c-5.8,5.2-6.5,14.4-1,19.9c7.1,7.1,17.2,3.5,19.9,1c1.3-1.2,32.2-29.4,33.2-70.3
			C508.6,217.622,497.6,193.222,475.3,170.822z"/>
	</g>
</g>
<g>
	<g>
		<path d="M411,170.822c-17-17-25.2-34.2-24.4-51.1c1.3-25.5,22.9-43.5,23.3-43.9c6-4.9,7-13.7,2.1-19.8c-4.9-6.1-13.8-7.1-19.8-2.2
			c-1.3,1-31.7,25.8-33.8,64.1c-1.4,25.3,9.6,49.8,32.6,72.8c16.7,16.7,24.9,34,24.5,51.6c-0.6,28.7-23.7,50.1-23.9,50.3
			c-5.8,5.2-6.5,14.4-1,19.9c7.1,7.1,17.2,3.5,19.9,1c1.3-1.2,32.2-29.4,33.2-70.3C444.4,217.522,433.4,193.122,411,170.822z"/>
	</g>
</g>
<g>
</g>
<g>
</g>
<g>
</g>
<g>
</g>
<g>
</g>
<g>
</g>
<g>
</g>
<g>
</g>
<g>
</g>
<g>
</g>
<g>
</g>
<g>
</g>
<g>
</g>
<g>
</g>
<g>
</g>
</svg>
