<?xml version="1.0" encoding="iso-8859-1"?>
<!-- Generator: Adobe Illustrator 19.0.0, SVG Export Plug-In . SVG Version: 6.00 Build 0)  -->
<svg version="1.1" id="Layer_1" xmlns="http://www.w3.org/2000/svg" xmlns:xlink="http://www.w3.org/1999/xlink" x="0px" y="0px"
	 viewBox="0 0 508 508" style="enable-background:new 0 0 508 508;" xml:space="preserve">
<g>
	<g>
		<path d="M251.849,197.8h-181.2c-7.8,0-14.1,6.3-14.1,14.1v65.4c-0.1,7.7,6.3,14.1,14.1,14.1h181.2c7.8,0,14.1-6.3,14.1-14.1v-65.4
			C265.949,204.1,259.649,197.8,251.849,197.8z M237.649,263.2h-152.9V226h152.9V263.2z"/>
	</g>
</g>
<g>
	<g>
		<path d="M79.449,319.6h-5.9c-7.8,0-14.1,6.3-14.1,14.1c0,7.8,6.3,14.1,14.1,14.1h5.9c7.8,0,14.1-6.3,14.1-14.1
			C93.549,325.9,87.249,319.6,79.449,319.6z"/>
	</g>
</g>
<g>
	<g>
		<path d="M135.849,319.6h-5.8c-7.8,0-14.1,6.3-14.1,14.1c0,7.8,6.3,14.1,14.1,14.1h5.9c7.8,0,14.1-6.3,14.1-14.1
			C150.049,325.9,143.649,319.6,135.849,319.6z"/>
	</g>
</g>
<g>
	<g>
		<path d="M192.349,319.6h-5.9c-7.8,0-14.1,6.3-14.1,14.1c0,7.8,6.3,14.1,14.1,14.1h5.9c7.8,0,14.1-6.3,14.1-14.1
			C206.449,325.9,200.149,319.6,192.349,319.6z"/>
	</g>
</g>
<g>
	<g>
		<path d="M248.749,319.6h-5.9c-7.8,0-14.1,6.3-14.1,14.1c0,7.8,6.3,14.1,14.1,14.1h5.9c7.8,0,14.1-6.3,14.1-14.1
			C262.849,325.9,256.549,319.6,248.749,319.6z"/>
	</g>
</g>
<g>
	<g>
		<path d="M79.449,376h-5.9c-7.8,0-14.1,6.3-14.1,14.1s6.3,14.1,14.1,14.1h5.9c7.8,0,14.1-6.3,14.1-14.1
			C93.549,382.3,87.249,376,79.449,376z"/>
	</g>
</g>
<g>
	<g>
		<path d="M135.849,376h-5.8c-7.8,0-14.1,6.3-14.1,14.1s6.3,14.1,14.1,14.1h5.9c7.8,0,14.1-6.3,14.1-14.1
			C150.049,382.3,143.649,376,135.849,376z"/>
	</g>
</g>
<g>
	<g>
		<path d="M192.349,376h-5.9c-7.8,0-14.1,6.3-14.1,14.1s6.3,14.1,14.1,14.1h5.9c7.8,0,14.1-6.3,14.1-14.1
			C206.449,382.3,200.149,376,192.349,376z"/>
	</g>
</g>
<g>
	<g>
		<path d="M248.749,376h-5.9c-7.8,0-14.1,6.3-14.1,14.1s6.3,14.1,14.1,14.1h5.9c7.8,0,14.1-6.3,14.1-14.1
			C262.849,382.3,256.549,376,248.749,376z"/>
	</g>
</g>
<g>
	<g>
		<path d="M79.449,432.5h-5.9c-7.8,0-14.1,6.3-14.1,14.1s6.3,14.1,14.1,14.1h5.9c7.8,0,14.1-6.3,14.1-14.1
			C93.549,438.8,87.249,432.5,79.449,432.5z"/>
	</g>
</g>
<g>
	<g>
		<path d="M135.849,432.5h-5.8c-7.8,0-14.1,6.3-14.1,14.1s6.3,14.1,14.1,14.1h5.9c7.8,0,14.1-6.3,14.1-14.1
			C150.049,438.8,143.649,432.5,135.849,432.5z"/>
	</g>
</g>
<g>
	<g>
		<path d="M192.349,432.5h-5.9c-7.8,0-14.1,6.3-14.1,14.1s6.3,14.1,14.1,14.1h5.9c7.8,0,14.1-6.3,14.1-14.1
			C206.449,438.8,200.149,432.5,192.349,432.5z"/>
	</g>
</g>
<g>
	<g>
		<path d="M248.749,432.5h-5.9c-7.8,0-14.1,6.3-14.1,14.1s6.3,14.1,14.1,14.1h5.9c7.8,0,14.1-6.3,14.1-14.1
			C262.849,438.8,256.549,432.5,248.749,432.5z"/>
	</g>
</g>
<g>
	<g>
		<path d="M493.949,0h-316c-7.8,0-14.1,6.3-14.1,14.1v127.2h-149.7c-7.8,0-14.1,6.3-14.1,14.1v338.5c0,7.8,6.3,14.1,14.1,14.1h294
			c7.8,0,14.1-6.3,14.1-14.1v-61.4h87.4c3.7,0,7.3-1.5,10-4.1l84.2-84.2c2.6-2.6,4.1-6.2,4.1-10v-320
			C508.049,6.3,501.749,0,493.949,0z M294.049,479.8h-265.8V169.5h265.8V479.8z M423.849,384.3v-36h36L423.849,384.3z M479.849,320
			L479.849,320h-70.1c-7.8,0-14.1,6.3-14.1,14.1v70.1h-73.3V155.4c0-7.8-6.3-14.1-14.1-14.1h-116.1V28.2h287.7V320z"/>
	</g>
</g>
<g>
	<g>
		<path d="M437.549,66.3h-203.1c-7.8,0-14.1,6.3-14.1,14.1c0,7.7,6.3,14.1,14.1,14.1h203.1c7.8,0,14.1-6.3,14.1-14.1
			C451.649,72.6,445.349,66.3,437.549,66.3z"/>
	</g>
</g>
<g>
	<g>
		<path d="M437.449,132.7h-72.8c-7.8,0-14.1,6.3-14.1,14.1s6.3,14.1,14.1,14.1h72.8c7.8,0,14.1-6.3,14.1-14.1
			S445.249,132.7,437.449,132.7z"/>
	</g>
</g>
<g>
	<g>
		<path d="M437.449,199.1h-72.8c-7.8,0-14.1,6.3-14.1,14.1s6.3,14.1,14.1,14.1h72.8c7.8,0,14.1-6.3,14.1-14.1
			S445.249,199.1,437.449,199.1z"/>
	</g>
</g>
<g>
	<g>
		<path d="M437.449,265.5h-72.8c-7.8,0-14.1,6.3-14.1,14.1s6.3,14.1,14.1,14.1h72.8c7.8,0,14.1-6.3,14.1-14.1
			C451.649,271.8,445.249,265.5,437.449,265.5z"/>
	</g>
</g>
<g>
</g>
<g>
</g>
<g>
</g>
<g>
</g>
<g>
</g>
<g>
</g>
<g>
</g>
<g>
</g>
<g>
</g>
<g>
</g>
<g>
</g>
<g>
</g>
<g>
</g>
<g>
</g>
<g>
</g>
</svg>
