<?xml version="1.0" encoding="iso-8859-1"?>
<!-- Generator: Adobe Illustrator 19.0.0, SVG Export Plug-In . SVG Version: 6.00 Build 0)  -->
<svg version="1.1" id="Layer_1" xmlns="http://www.w3.org/2000/svg" xmlns:xlink="http://www.w3.org/1999/xlink" x="0px" y="0px"
	 viewBox="0 0 392.663 392.663" style="enable-background:new 0 0 392.663 392.663;" xml:space="preserve">
<g>
	<g>
		<path d="M384.97,126.545l-107.249-34.78V41.859c0-23.014-18.747-41.826-41.826-41.826H41.826C18.812,0.032,0,18.78,0,41.859
			v308.945c0,23.014,18.747,41.826,41.826,41.826H235.96c23.014,0,41.826-18.747,41.826-41.826V248.533
			c15.968,1.422,31.418,5.818,45.446,12.929c2.844,1.487,15.451,2.844,15.903-9.632v-89.665l45.964-14.933
			c4.461-1.487,7.564-5.624,7.564-10.343C392.598,132.17,389.495,127.968,384.97,126.545z M235.895,370.78H41.826
			c-11.055,0-20.04-8.986-20.04-20.04v-40.598h234.085v40.598h0.065C255.935,361.794,246.949,370.78,235.895,370.78z
			 M255.935,288.356H21.786V41.859c0-11.055,8.986-20.04,20.04-20.04H235.96c11.055,0,20.04,8.986,20.04,20.04v49.842
			l-107.313,34.844c-4.461,1.487-7.564,5.624-7.564,10.343s3.038,8.857,7.564,10.343l45.964,14.933v89.665
			c0,3.814,3.362,13.899,15.903,9.632c13.964-7.176,29.543-11.507,45.446-12.929L255.935,288.356z M266.796,226.166
			c-21.786,0-35.168,3.297-50.489,8.986v-65.939l47.063,15.192c2.133,0.711,4.59,0.711,6.723,0l47.127-15.321v66.046
			C301.923,229.518,287.583,226.166,266.796,226.166z M266.731,162.618l-79.451-25.729l79.451-25.794l79.515,25.794L266.731,162.618
			z"/>
	</g>
</g>
<g>
	<g>
		<path d="M159.483,329.535h-41.244c-6.012,0-10.925,4.849-10.925,10.925s4.849,10.925,10.925,10.925h41.244
			c6.012,0,10.925-4.849,10.925-10.925S165.56,329.535,159.483,329.535z"/>
	</g>
</g>
<g>
	<g>
		<path d="M156.38,39.855h-35.103c-6.012,0-10.925,4.849-10.925,10.925c0,6.077,4.849,10.925,10.925,10.925h34.974
			c6.141,0,11.055-4.913,11.055-10.925C167.305,44.768,162.457,39.855,156.38,39.855z"/>
	</g>
</g>
<g>
	<g>
		<circle cx="200.727" cy="50.78" r="10.279"/>
	</g>
</g>
<g>
</g>
<g>
</g>
<g>
</g>
<g>
</g>
<g>
</g>
<g>
</g>
<g>
</g>
<g>
</g>
<g>
</g>
<g>
</g>
<g>
</g>
<g>
</g>
<g>
</g>
<g>
</g>
<g>
</g>
</svg>
