<?xml version="1.0" encoding="iso-8859-1"?>
<!-- Generator: Adobe Illustrator 19.0.0, SVG Export Plug-In . SVG Version: 6.00 Build 0)  -->
<svg version="1.1" id="Layer_1" xmlns="http://www.w3.org/2000/svg" xmlns:xlink="http://www.w3.org/1999/xlink" x="0px" y="0px"
	 viewBox="0 0 508 508" style="enable-background:new 0 0 508 508;" xml:space="preserve">
<g>
	<g>
		<path d="M254,0C113.9,0,0,113.9,0,254s113.9,254,254,254s254-113.9,254-254S394.1,0,254,0z M28.2,254
			c0-58.1,22.1-111.2,58.3-151.3c37.7,41.6,58.3,94.8,58.3,151.3s-20.6,109.7-58.2,151.3C50.3,365.2,28.2,312.2,28.2,254z
			 M254,479.7c-56.2,0.1-107.6-20.6-147.2-54.7c42.8-46.9,66.2-107,66.2-171s-23.4-124.1-66.2-171c39.6-34.1,91-54.8,147.2-54.8
			S361.7,48.9,401.2,83C358.4,129.9,335,190,335,254s23.4,124.1,66.2,170.9C361.6,459,310.2,479.7,254,479.7z M421.5,405.3
			c-37.6-41.5-58.3-94.7-58.3-151.2c0-56.6,20.6-109.8,58.3-151.3c36.2,40.1,58.3,93.1,58.3,151.2
			C479.8,312.1,457.7,365.2,421.5,405.3z"/>
	</g>
</g>
<g>
</g>
<g>
</g>
<g>
</g>
<g>
</g>
<g>
</g>
<g>
</g>
<g>
</g>
<g>
</g>
<g>
</g>
<g>
</g>
<g>
</g>
<g>
</g>
<g>
</g>
<g>
</g>
<g>
</g>
</svg>
