<?xml version="1.0" encoding="iso-8859-1"?>
<!-- Generator: Adobe Illustrator 19.0.0, SVG Export Plug-In . SVG Version: 6.00 Build 0)  -->
<svg version="1.1" id="Layer_1" xmlns="http://www.w3.org/2000/svg" xmlns:xlink="http://www.w3.org/1999/xlink" x="0px" y="0px"
	 viewBox="0 0 507.83 507.83" style="enable-background:new 0 0 507.83 507.83;" xml:space="preserve">
<g>
	<g>
		<path d="M272.615,253.911c30.2-35.4,132.6-160.7,136.6-239.1c0.4-7.8-5.6-14.4-13.4-14.8c-7.8-0.3-14.4,5.6-14.8,13.4
			c-0.1,2.7-0.5,5.5-0.9,8.4h-252.4c-0.4-2.9-0.8-5.7-0.9-8.4c-0.4-7.8-7.2-13.7-14.8-13.4c-7.8,0.4-13.8,7-13.4,14.8
			c4,78.4,106.4,203.8,136.6,239.1c-30.2,35.4-132.6,160.7-136.6,239.1c-0.4,7.8,5.6,14.4,13.4,14.8c0.2,0,0.5,0,0.7,0
			c7.5,0,13.7-5.9,14.1-13.4c0.1-2.7,0.5-5.5,0.9-8.4h252.4c0.4,2.9,0.8,5.7,0.9,8.4c0.4,7.8,7.1,13.8,14.8,13.4
			c7.8-0.4,13.8-7,13.4-14.8C405.215,414.611,302.815,289.211,272.615,253.911z M135.215,50.011h237.4c-5.3,14.6-12.7,30-21.4,45.6
			h-194.6C147.915,80.011,140.515,64.511,135.215,50.011z M173.415,123.911h160.9c-10,15.8-20.7,31.3-31.2,45.5h-98.6
			C194.215,155.111,183.515,139.711,173.415,123.911z M225.915,197.711h56c-11.2,14.3-21,26.3-28,34.5
			C247.015,224.011,237.115,212.011,225.915,197.711z M253.915,275.611c6.9,8.2,16.8,20.2,28,34.5h-56
			C237.115,295.811,246.915,283.811,253.915,275.611z M204.615,338.411h98.6c10.4,14.3,21.1,29.7,31.2,45.5h-161
			C183.415,368.111,194.115,352.611,204.615,338.411z M135.215,457.811c5.3-14.6,12.7-30,21.4-45.6h194.6
			c8.7,15.6,16.1,31.1,21.4,45.6H135.215z"/>
	</g>
</g>
<g>
</g>
<g>
</g>
<g>
</g>
<g>
</g>
<g>
</g>
<g>
</g>
<g>
</g>
<g>
</g>
<g>
</g>
<g>
</g>
<g>
</g>
<g>
</g>
<g>
</g>
<g>
</g>
<g>
</g>
</svg>
