<?xml version="1.0" encoding="iso-8859-1"?>
<!-- Generator: Adobe Illustrator 19.0.0, SVG Export Plug-In . SVG Version: 6.00 Build 0)  -->
<svg version="1.1" id="Layer_1" xmlns="http://www.w3.org/2000/svg" xmlns:xlink="http://www.w3.org/1999/xlink" x="0px" y="0px"
	 viewBox="0 0 508 508" style="enable-background:new 0 0 508 508;" xml:space="preserve">
<g>
	<g>
		<path d="M430.1,0H77.9c-25,0-45.4,20.4-45.4,45.4v399.3c0,25,20.4,45.4,45.4,45.4H87v3.8c0,7.8,6.3,14.1,14.1,14.1
			c7.8,0,14.1-6.3,14.1-14.1V490h277.6v3.8c0,7.8,6.3,14.1,14.1,14.1c7.8,0,14.1-6.3,14.1-14.1V490h9.1c25,0,45.4-20.4,45.4-45.4
			V45.4C475.5,20.4,455.2,0,430.1,0z M447.3,444.7L447.3,444.7c0,9.5-7.7,17.2-17.2,17.2H77.9c-9.5,0-17.2-7.7-17.2-17.2V259.1
			h386.6V444.7z M447.3,230.9H60.7V45.4c0-9.5,7.7-17.2,17.2-17.2h352.2c9.5,0,17.2,7.7,17.2,17.2V230.9z"/>
	</g>
</g>
<g>
	<g>
		<path d="M291.5,346.4h-75c-7.8,0-14.1,6.3-14.1,14.1c0,7.8,6.3,14.1,14.1,14.1h75c7.8,0,14.1-6.3,14.1-14.1
			C305.6,352.7,299.3,346.4,291.5,346.4z"/>
	</g>
</g>
<g>
	<g>
		<path d="M291.5,115.5h-75c-7.8,0-14.1,6.3-14.1,14.1c0,7.8,6.3,14.1,14.1,14.1h75c7.8,0,14.1-6.3,14.1-14.1
			C305.6,121.8,299.3,115.5,291.5,115.5z"/>
	</g>
</g>
<g>
</g>
<g>
</g>
<g>
</g>
<g>
</g>
<g>
</g>
<g>
</g>
<g>
</g>
<g>
</g>
<g>
</g>
<g>
</g>
<g>
</g>
<g>
</g>
<g>
</g>
<g>
</g>
<g>
</g>
</svg>
