<?xml version="1.0" encoding="iso-8859-1"?>
<!-- Generator: Adobe Illustrator 19.0.0, SVG Export Plug-In . SVG Version: 6.00 Build 0)  -->
<svg version="1.1" id="Layer_1" xmlns="http://www.w3.org/2000/svg" xmlns:xlink="http://www.w3.org/1999/xlink" x="0px" y="0px"
	 viewBox="0 0 508.051 508.051" style="enable-background:new 0 0 508.051 508.051;" xml:space="preserve">
<g>
	<g>
		<path d="M498.775,19.86c-1.1-5.7-5.6-10.1-11.2-11.3c-56.6-11.7-151.2-8.5-168.7-7c-98.9,8.3-175.1,38.6-226.6,90.1
			s-81.8,127.9-90,226.9c-7.5,90.4,6.4,165.7,7,168.9c1.1,5.7,5.5,10.3,11.2,11.3c81.8,13.9,151.2,8.5,168.7,7
			c98.9-8.3,175.1-38.6,226.6-90.1s81.7-127.9,90-226.9C513.275,98.36,499.375,23.06,498.775,19.86z M35.375,472.56
			c-2.9-19.3-8.6-65.6-6.8-120.5l127.2,127.3C140.175,483.16,55.775,478.56,35.375,472.56z M395.875,395.76
			c-45.6,45.5-113.7,72.9-202.6,81.3l-162.4-162.6c8.4-89,35.7-157.2,81.3-202.8c45.5-45.6,113.6-72.9,202.5-81.3l162.4,162.6
			C468.675,281.96,441.375,350.16,395.875,395.76z M479.375,155.26l-127.2-127.3c7-0.2,85.9-0.4,120.4,6.8
			C475.475,54.06,481.175,100.26,479.375,155.26z"/>
	</g>
</g>
<g>
	<g>
		<path d="M353.275,154.26c-5.5-5.5-14.4-5.5-20,0l-28,28.1l-17.7-17.7c-5.5-5.5-14.4-5.5-20,0c-5.5,5.5-5.5,14.5,0,20l17.7,17.7
			l-31.3,31.4l-17.7-17.7c-5.5-5.5-14.4-5.5-20,0c-5.5,5.5-5.5,14.5,0,20l17.7,17.7l-31.3,31.3l-17.7-17.7c-5.5-5.5-14.4-5.5-20,0
			c-5.5,5.5-5.5,14.5,0,20l17.7,17.7l-28,28.1c-5.5,5.5-5.5,14.5,0,20s15,5,20,0l28-28l17.7,17.7c5.8,5.8,14.8,5.1,20,0
			c5.5-5.5,5.5-14.5,0-20l-17.8-17.8l31.4-31.4l17.7,17.7c5.8,5.8,14.8,5.1,20,0c5.5-5.5,5.5-14.5,0-20l-17.7-17.7l31.4-31.4
			l17.6,17.8c5.8,5.8,14.8,5.1,20,0c5.5-5.5,5.5-14.5,0-20l-17.7-17.7l28-28.1C358.775,168.76,358.775,159.76,353.275,154.26z"/>
	</g>
</g>
<g>
</g>
<g>
</g>
<g>
</g>
<g>
</g>
<g>
</g>
<g>
</g>
<g>
</g>
<g>
</g>
<g>
</g>
<g>
</g>
<g>
</g>
<g>
</g>
<g>
</g>
<g>
</g>
<g>
</g>
</svg>
