<?xml version="1.0" encoding="iso-8859-1"?>
<!-- Generator: Adobe Illustrator 19.0.0, SVG Export Plug-In . SVG Version: 6.00 Build 0)  -->
<svg version="1.1" id="Layer_1" xmlns="http://www.w3.org/2000/svg" xmlns:xlink="http://www.w3.org/1999/xlink" x="0px" y="0px"
	 viewBox="0 0 508.1 508.1" style="enable-background:new 0 0 508.1 508.1;" xml:space="preserve">
<g>
	<g>
		<path d="M499.55,217.2l-45.1-19.4c-4.5-16-10.8-31.4-18.9-45.8l18.1-45.6c2.1-5.2,0.9-11.2-3.1-15.2l-33.7-33.7
			c-4-4-10-5.2-15.2-3.1l-45.6,18.1c-14.4-8.1-29.8-14.5-45.8-18.9l-19.4-45.1c-2.2-5.2-7.3-8.5-13-8.5h-47.7
			c-5.6,0-10.7,3.4-13,8.5l-19.4,45.1c-16,4.5-31.4,10.8-45.8,18.9l-45.6-18.1c-5.2-2.1-11.2-0.9-15.2,3.1l-33.6,33.7
			c-4,4-5.2,10-3.1,15.2l18.1,45.6c-8.1,14.4-14.5,29.8-18.9,45.8l-45.1,19.4c-5.2,2.2-8.5,7.3-8.5,13v47.7c0,5.6,3.4,10.7,8.5,13
			l45.1,19.4c4.5,16,10.8,31.4,18.9,45.8l-18.1,45.6c-2.1,5.2-0.9,11.2,3.1,15.2l33.7,33.7c4,4,10,5.2,15.2,3.1l45.6-18.1
			c14.4,8.1,29.8,14.5,45.8,18.9l19.4,45.1c2.2,5.2,7.3,8.5,13,8.5h47.7c5.6,0,10.7-3.4,13-8.5l19.4-45.1
			c16-4.5,31.4-10.8,45.8-18.9l45.6,18.1c5.2,2.1,11.2,0.9,15.2-3.1l33.7-33.7c4-4,5.2-10,3.1-15.2l-18.2-45.7
			c8.1-14.4,14.5-29.8,18.9-45.8l45.1-19.4c5.2-2.2,8.5-7.3,8.5-13v-47.7C508.05,224.5,504.65,219.4,499.55,217.2z M479.85,268.5
			L479.85,268.5l-42.9,18.5c-4.1,1.8-7.1,5.3-8.1,9.6c-4.4,18-11.5,35.1-21,50.8c-2.3,3.8-2.7,8.4-1.1,12.6l17.2,43.3l-20.6,20.6
			l-43.3-17.2c-4.1-1.6-8.8-1.2-12.6,1.1c-15.7,9.6-32.8,16.7-50.8,21c-4.3,1-7.9,4.1-9.6,8.1l-18.5,42.9h-29.1l-18.4-42.9
			c-1.8-4.1-5.3-7.1-9.6-8.1c-18-4.4-35.1-11.4-50.8-21c-3.8-2.3-8.4-2.7-12.6-1.1l-43.3,17.2l-20.6-20.6l17.2-43.3
			c1.6-4.1,1.2-8.8-1.1-12.6c-9.6-15.7-16.7-32.8-21-50.8c-1-4.3-4.1-7.9-8.1-9.6l-42.9-18.5v-29.1l42.9-18.4
			c4.1-1.8,7.1-5.3,8.1-9.6c4.4-18,11.5-35.1,21-50.8c2.3-3.8,2.7-8.4,1.1-12.6l-17.2-43.3l20.6-20.6l43.3,17.2
			c4.1,1.6,8.8,1.2,12.6-1.1c15.7-9.6,32.8-16.6,50.8-21c4.3-1,7.9-4.1,9.6-8.1l18.5-42.9h29.1l18.4,42.9c1.8,4.1,5.3,7.1,9.6,8.1
			c18,4.4,35.1,11.5,50.8,21c3.8,2.3,8.4,2.7,12.6,1.1l43.3-17.2l20.6,20.6l-17.2,43.3c-1.6,4.1-1.2,8.8,1.1,12.6
			c9.6,15.7,16.7,32.8,21,50.8c1,4.3,4.1,7.9,8.1,9.6l42.9,18.5V268.5z"/>
	</g>
</g>
<g>
	<g>
		<path d="M254.05,102.3c-83.6,0-151.7,68-151.7,151.7s68.1,151.7,151.7,151.7s151.7-68,151.7-151.7S337.65,102.3,254.05,102.3z
			 M350.65,330.6l-3.4-3.4c-5.5-5.5-14.4-5.5-20,0c-5.5,5.5-5.5,14.4,0,20l3.4,3.4c-17.6,14-39.1,23.3-62.5,26v-4.8
			c0-7.8-6.3-14.1-14.1-14.1c-7.8,0-14.1,6.3-14.1,14.1v4.8c-23.5-2.7-44.9-12-62.5-26l3.4-3.4c5.5-5.5,5.5-14.4,0-20
			c-5.5-5.5-14.4-5.5-20,0l-3.4,3.4c-14-17.6-23.3-39.1-26-62.5h4.8c7.8,0,14.1-6.3,14.1-14.1s-6.3-14.1-14.1-14.1h-4.8
			c2.7-23.5,12-44.9,26-62.5l3.4,3.4c5.5,5.5,14.4,5.5,20,0c5.5-5.5,5.5-14.4,0-20l-3.4-3.4c17.6-14,39.1-23.3,62.5-26v4.8
			c0,7.8,6.3,14.1,14.1,14.1c7.8,0,14.1-6.3,14.1-14.1v-4.8c23.5,2.7,44.9,12,62.5,26l-3.4,3.4c-5.5,5.5-5.5,14.4,0,20
			c5.5,5.5,14.4,5.5,20,0l3.4-3.4c14,17.6,23.3,39.1,26,62.5h-4.8c-7.8,0-14.1,6.3-14.1,14.1s6.3,14.1,14.1,14.1h4.8
			C373.95,291.6,364.65,313,350.65,330.6z"/>
	</g>
</g>
<g>
	<g>
		<path d="M254.05,178.6c-7.8,0-14.1,6.3-14.1,14.1v47.2h-15c-7.8,0-14.1,6.3-14.1,14.1s6.3,14.1,14.1,14.1h29.1
			c7.8,0,14.1-6.3,14.1-14.1v-61.3C268.15,184.9,261.85,178.6,254.05,178.6z"/>
	</g>
</g>
<g>
</g>
<g>
</g>
<g>
</g>
<g>
</g>
<g>
</g>
<g>
</g>
<g>
</g>
<g>
</g>
<g>
</g>
<g>
</g>
<g>
</g>
<g>
</g>
<g>
</g>
<g>
</g>
<g>
</g>
</svg>
