<?xml version="1.0" encoding="iso-8859-1"?>
<!-- Generator: Adobe Illustrator 19.0.0, SVG Export Plug-In . SVG Version: 6.00 Build 0)  -->
<svg version="1.1" id="Layer_1" xmlns="http://www.w3.org/2000/svg" xmlns:xlink="http://www.w3.org/1999/xlink" x="0px" y="0px"
	 viewBox="0 0 508 508" style="enable-background:new 0 0 508 508;" xml:space="preserve">
<g>
	<g>
		<path d="M390,159.3h-54.8v-50c0-7.8-6.3-14.1-14.1-14.1h-59c-7.8,0-14.1,6.3-14.1,14.1v50h-54.1c-7.8,0-14.1,6.3-14.1,14.1v59
			c-0.1,7.8,6.2,14.1,14,14.1H248v152.2c0,7.8,6.3,14.1,14.1,14.1h59c7.8,0,14.1-6.3,14.1-14.1V246.5H390c7.8,0,14.1-6.3,14.1-14.1
			v-59C404.1,165.6,397.8,159.3,390,159.3z M375.8,218.3H321c-7.8,0-14.1,6.3-14.1,14.1v152.2h-30.8V232.4c0-7.8-6.3-14.1-14.1-14.1
			h-54.1v-30.8H262c7.8,0,14.1-6.3,14.1-14.1v-50h30.8v50c0,7.8,6.3,14.1,14.1,14.1h54.8V218.3z"/>
	</g>
</g>
<g>
	<g>
		<path d="M446.4,0H114.9C77.7,0,47.5,30.2,47.5,67.4v373.2c0,37.2,30.2,67.4,67.4,67.4h331.5c7.8,0,14.1-6.3,14.1-14.1V14.1
			C460.5,6.3,454.2,0,446.4,0z M122.6,479.8h-7.7c-21.6,0-39.2-17.6-39.2-39.2V67.4c0-21.6,17.6-39.2,39.2-39.2h7.7V479.8z
			 M432.3,479.8H150.8V28.2h281.5V479.8z"/>
	</g>
</g>
<g>
</g>
<g>
</g>
<g>
</g>
<g>
</g>
<g>
</g>
<g>
</g>
<g>
</g>
<g>
</g>
<g>
</g>
<g>
</g>
<g>
</g>
<g>
</g>
<g>
</g>
<g>
</g>
<g>
</g>
</svg>
