<?xml version="1.0" encoding="iso-8859-1"?>
<!-- Generator: Adobe Illustrator 19.0.0, SVG Export Plug-In . SVG Version: 6.00 Build 0)  -->
<svg version="1.1" id="Layer_1" xmlns="http://www.w3.org/2000/svg" xmlns:xlink="http://www.w3.org/1999/xlink" x="0px" y="0px"
	 viewBox="0 0 508 508" style="enable-background:new 0 0 508 508;" xml:space="preserve">
<g>
	<g>
		<path d="M430.549,0h-353c-7.8,0-14.1,6.3-14.1,14.1v479.8c0,7.8,6.3,14.1,14.1,14.1h352.9c7.8,0,14.1-6.3,14.1-14.1V14.1
			C444.649,6.3,438.349,0,430.549,0z M292.749,479.8h-77.4v-125h77.4V479.8z M321.049,479.8V340.7c0-7.8-6.3-14.1-14.1-14.1h-105.7
			c-7.8,0-14.1,6.3-14.1,14.1v139.1h-95.5V28.2h324.7v451.6H321.049z"/>
	</g>
</g>
<g>
	<g>
		<path d="M144.449,66.5h-10.4c-7.8,0-14.1,6.3-14.1,14.1s6.3,14.1,14.1,14.1h10.4c7.8,0,14.1-6.3,14.1-14.1
			S152.249,66.5,144.449,66.5z"/>
	</g>
</g>
<g>
	<g>
		<path d="M221.049,66.5h-10.4c-7.8,0-14.1,6.3-14.1,14.1s6.2,14.1,14,14.1h10.5c7.8,0,14.1-6.3,14.1-14.1
			S228.849,66.5,221.049,66.5z"/>
	</g>
</g>
<g>
	<g>
		<path d="M297.549,66.5h-10.4c-7.8,0-14.1,6.3-14.1,14.1s6.3,14.1,14.1,14.1h10.4c7.8,0,14.1-6.3,14.1-14.1
			S305.349,66.5,297.549,66.5z"/>
	</g>
</g>
<g>
	<g>
		<path d="M374.049,66.5h-10.4c-7.8,0-14.1,6.3-14.1,14.1s6.3,14.1,14.1,14.1h10.4c7.8,0,14.1-6.3,14.1-14.1
			S381.849,66.5,374.049,66.5z"/>
	</g>
</g>
<g>
	<g>
		<path d="M144.449,153.2h-10.4c-7.8,0-14.1,6.3-14.1,14.1s6.3,14.1,14.1,14.1h10.4c7.8,0,14.1-6.3,14.1-14.1
			S152.249,153.2,144.449,153.2z"/>
	</g>
</g>
<g>
	<g>
		<path d="M221.049,153.2h-10.4c-7.8,0-14.1,6.3-14.1,14.1s6.2,14.1,14,14.1h10.5c7.8,0,14.1-6.3,14.1-14.1
			S228.849,153.2,221.049,153.2z"/>
	</g>
</g>
<g>
	<g>
		<path d="M297.549,153.2h-10.4c-7.8,0-14.1,6.3-14.1,14.1s6.3,14.1,14.1,14.1h10.4c7.8,0,14.1-6.3,14.1-14.1
			S305.349,153.2,297.549,153.2z"/>
	</g>
</g>
<g>
	<g>
		<path d="M374.049,153.2h-10.4c-7.8,0-14.1,6.3-14.1,14.1s6.3,14.1,14.1,14.1h10.4c7.8,0,14.1-6.3,14.1-14.1
			S381.849,153.2,374.049,153.2z"/>
	</g>
</g>
<g>
	<g>
		<path d="M144.449,239.9h-10.4c-7.8,0-14.1,6.3-14.1,14.1s6.3,14.1,14.1,14.1h10.4c7.8,0,14.1-6.3,14.1-14.1
			S152.249,239.9,144.449,239.9z"/>
	</g>
</g>
<g>
	<g>
		<path d="M221.049,239.9h-10.4c-7.8,0-14.1,6.3-14.1,14.1c-0.1,7.8,6.2,14.1,14,14.1h10.5c7.8,0,14.1-6.3,14.1-14.1
			S228.849,239.9,221.049,239.9z"/>
	</g>
</g>
<g>
	<g>
		<path d="M297.549,239.9h-10.4c-7.8,0-14.1,6.3-14.1,14.1c-0.1,7.8,6.3,14.1,14.1,14.1h10.4c7.8,0,14.1-6.3,14.1-14.1
			S305.349,239.9,297.549,239.9z"/>
	</g>
</g>
<g>
	<g>
		<path d="M374.049,239.9h-10.4c-7.8,0-14.1,6.3-14.1,14.1s6.3,14.1,14.1,14.1h10.4c7.8,0,14.1-6.3,14.1-14.1
			S381.849,239.9,374.049,239.9z"/>
	</g>
</g>
<g>
	<g>
		<path d="M144.449,326.6h-10.4c-7.8,0-14.1,6.3-14.1,14.1c0,7.8,6.3,14.1,14.1,14.1h10.4c7.8,0,14.1-6.3,14.1-14.1
			C158.549,332.9,152.249,326.6,144.449,326.6z"/>
	</g>
</g>
<g>
	<g>
		<path d="M374.049,326.6h-10.4c-7.8,0-14.1,6.3-14.1,14.1c0,7.8,6.3,14.1,14.1,14.1h10.4c7.8,0,14.1-6.3,14.1-14.1
			C388.149,332.9,381.849,326.6,374.049,326.6z"/>
	</g>
</g>
<g>
	<g>
		<path d="M144.449,413.4h-10.4c-7.8,0-14.1,6.3-14.1,14.1c0,7.7,6.3,14.1,14.1,14.1h10.4c7.8,0,14.1-6.3,14.1-14.1
			S152.249,413.4,144.449,413.4z"/>
	</g>
</g>
<g>
	<g>
		<path d="M374.049,413.4h-10.4c-7.8,0-14.1,6.3-14.1,14.1c0,7.7,6.3,14.1,14.1,14.1h10.4c7.8,0,14.1-6.3,14.1-14.1
			S381.849,413.4,374.049,413.4z"/>
	</g>
</g>
<g>
</g>
<g>
</g>
<g>
</g>
<g>
</g>
<g>
</g>
<g>
</g>
<g>
</g>
<g>
</g>
<g>
</g>
<g>
</g>
<g>
</g>
<g>
</g>
<g>
</g>
<g>
</g>
<g>
</g>
</svg>
