<?xml version="1.0" encoding="iso-8859-1"?>
<!-- Generator: Adobe Illustrator 19.0.0, SVG Export Plug-In . SVG Version: 6.00 Build 0)  -->
<svg version="1.1" id="Layer_1" xmlns="http://www.w3.org/2000/svg" xmlns:xlink="http://www.w3.org/1999/xlink" x="0px" y="0px"
	 viewBox="0 0 508 508" style="enable-background:new 0 0 508 508;" xml:space="preserve">
<g>
	<g>
		<path d="M225.649,0h-188.3c-7.8,0-14.1,6.3-14.1,14.1v479.8c0,7.8,6.3,14.1,14.1,14.1h188.3c7.8,0,14.1-6.3,14.1-14.1V14.1
			C239.849,6.3,233.449,0,225.649,0z M211.549,479.8h-160.1V28.2h160.1V479.8z"/>
	</g>
</g>
<g>
	<g>
		<path d="M172.349,53.3h-81.7c-7.8,0-14.1,6.3-14.1,14.1v191.8c0,7.8,6.3,14.2,14.1,14.2h81.7c7.8,0,14.1-6.3,14.1-14.1V67.4
			C186.449,59.6,180.149,53.3,172.349,53.3z M158.249,245.1h-53.5V81.5h53.5V245.1z"/>
	</g>
</g>
<g>
	<g>
		<path d="M131.549,344.7c-30.3,0-55,24.7-55,55s24.7,55,55,55s55-24.7,55-55S161.849,344.7,131.549,344.7z M131.549,426.4
			c-14.7,0-26.7-12-26.7-26.7c-0.1-14.7,11.9-26.7,26.7-26.7c14.7,0,26.7,12,26.7,26.7S146.249,426.4,131.549,426.4z"/>
	</g>
</g>
<g>
	<g>
		<path d="M470.749,40.5h-169.4c-7.8,0-14.1,6.3-14.1,14.1v439.3c0,7.8,6.3,14.1,14.1,14.1h169.3c7.8,0,14.1-6.3,14.1-14.1V54.6
			C484.849,46.8,478.549,40.5,470.749,40.5z M315.449,479.8V68.7h141.1v411.1H315.449z"/>
	</g>
</g>
<g>
	<g>
		<path d="M414.249,96.9h-56.4c-7.8,0-14.1,6.3-14.1,14.1v195.5c0,7.8,6.3,14.1,14.1,14.1h56.4c7.8,0,14.1-6.3,14.1-14.1V111
			C428.349,103.2,422.049,96.9,414.249,96.9z M400.149,292.4h-28.2V125.1h28.2V292.4z"/>
	</g>
</g>
<g>
	<g>
		<path d="M386.049,357.5c-23.3,0-42.3,19-42.3,42.3s19,42.3,42.3,42.3s42.3-19,42.3-42.3S409.349,357.5,386.049,357.5z
			 M386.049,413.8c-7.8,0-14.1-6.3-14.1-14.1c0-7.8,6.3-14.1,14.1-14.1s14.1,6.3,14.1,14.1
			C400.149,407.5,393.849,413.8,386.049,413.8z"/>
	</g>
</g>
<g>
</g>
<g>
</g>
<g>
</g>
<g>
</g>
<g>
</g>
<g>
</g>
<g>
</g>
<g>
</g>
<g>
</g>
<g>
</g>
<g>
</g>
<g>
</g>
<g>
</g>
<g>
</g>
<g>
</g>
</svg>
