<?xml version="1.0" encoding="iso-8859-1"?>
<!-- Generator: Adobe Illustrator 19.0.0, SVG Export Plug-In . SVG Version: 6.00 Build 0)  -->
<svg version="1.1" id="Layer_1" xmlns="http://www.w3.org/2000/svg" xmlns:xlink="http://www.w3.org/1999/xlink" x="0px" y="0px"
	 viewBox="0 0 508.111 508.111" style="enable-background:new 0 0 508.111 508.111;" xml:space="preserve">
<g>
	<g>
		<path d="M450.51,44.751c-29-29-60.4-45.8-84.1-44.7c-100.4,4.6-276.6,261.4-296.3,290.7c-3.7,5.4-3,12.7,1.7,17.4l13,13
			l-67.6,67.4c-4,4-5.2,10-2.9,15.2l42.1,95.7c1.8,4.1,11.8,14.6,22.2,4.2l94.4-94.1l13,13c8.3,8.3,15.2,3.1,17.3,1.7
			c29.3-19.7,286.8-195.1,291.6-295.4C496.01,105.151,479.41,73.751,450.51,44.751z M73.31,470.051l-30.2-68.7l61-60.8l49.5,49.5
			L73.31,470.051z M467.51,127.551c-3.4,70.5-187.9,211.2-270.1,267.5l-98.2-98.4c56.6-82,197.9-266.1,268.4-269.2
			c15.4-0.7,40.9,14,63.5,36.7C453.61,86.751,468.21,112.151,467.51,127.551z"/>
	</g>
</g>
<g>
	<g>
		<path d="M266.51,228.051c-5.3-5.4-14-5.4-19.4,0l-55.1,54.9c-5.4,5.3-5.4,14,0,19.4c4.8,4.8,13.9,5.5,19.4,0l55.1-54.9
			C271.91,242.051,271.91,233.351,266.51,228.051z"/>
	</g>
</g>
<g>
</g>
<g>
</g>
<g>
</g>
<g>
</g>
<g>
</g>
<g>
</g>
<g>
</g>
<g>
</g>
<g>
</g>
<g>
</g>
<g>
</g>
<g>
</g>
<g>
</g>
<g>
</g>
<g>
</g>
</svg>
