<?xml version="1.0" encoding="iso-8859-1"?>
<!-- Generator: Adobe Illustrator 19.0.0, SVG Export Plug-In . SVG Version: 6.00 Build 0)  -->
<svg version="1.1" id="Layer_1" xmlns="http://www.w3.org/2000/svg" xmlns:xlink="http://www.w3.org/1999/xlink" x="0px" y="0px"
	 viewBox="0 0 508 508" style="enable-background:new 0 0 508 508;" xml:space="preserve">
<g>
	<g>
		<path d="M413.15,268h-24.7c-5.4-51.4-40-96-89.5-113.4c-6.4-2.3-13.5,0.4-16.9,6.2l-28.1,48.1l-28-48.1
			c-3.4-5.8-10.5-8.5-16.9-6.2c-49.6,17.5-84.1,62-89.5,113.4h-24.8c-7.8,0-14.1,6.3-14.1,14.1s6.3,14.1,14.1,14.1h4.5l38.1,200.3
			c1.3,6.7,7.1,11.5,13.9,11.5h205.5c6.8,0,12.6-4.8,13.9-11.5l38.1-200.3h4.5c7.8,0,14.1-6.3,14.1-14.1
			C427.25,274.4,420.95,268,413.15,268z M207.75,185.6l34.1,58.4c2.5,4.3,7.2,7,12.2,7c5,0,9.7-2.7,12.2-7l34.1-58.4
			c32.5,15.6,55.1,46.7,59.8,82.4h-212.3C152.55,232.4,175.15,201.2,207.75,185.6z M345.05,479.8h-182.2l-34.9-183.5h251.9
			L345.05,479.8z"/>
	</g>
</g>
<g>
	<g>
		<path d="M253.95,0c-36.1,0-65.5,29.4-65.5,65.5s29.4,65.6,65.5,65.6c36.1,0,65.5-29.4,65.5-65.5C319.45,29.5,290.05,0,253.95,0z
			 M253.95,102.8c-20.6,0-37.3-16.7-37.3-37.3c0-20.6,16.7-37.3,37.3-37.3c20.6,0,37.3,16.7,37.3,37.3S274.55,102.8,253.95,102.8z"
			/>
	</g>
</g>
<g>
</g>
<g>
</g>
<g>
</g>
<g>
</g>
<g>
</g>
<g>
</g>
<g>
</g>
<g>
</g>
<g>
</g>
<g>
</g>
<g>
</g>
<g>
</g>
<g>
</g>
<g>
</g>
<g>
</g>
</svg>
