<?xml version="1.0" encoding="iso-8859-1"?>
<!-- Generator: Adobe Illustrator 19.0.0, SVG Export Plug-In . SVG Version: 6.00 Build 0)  -->
<svg version="1.1" id="Layer_1" xmlns="http://www.w3.org/2000/svg" xmlns:xlink="http://www.w3.org/1999/xlink" x="0px" y="0px"
	 viewBox="0 0 507.901 507.901" style="enable-background:new 0 0 507.901 507.901;" xml:space="preserve">
<g>
	<g>
		<path d="M493.9,34.301h-65.3v-20.2c0-7.8-6.3-14.1-14.1-14.1s-14.1,6.3-14.1,14.1v20.2H107.6v-20.2c0-7.8-6.3-14.1-14.1-14.1
			s-14.1,6.3-14.1,14.1v20.2H14.1c-7.8,0-14.1,6.3-14.1,14.1v355.9c0,4.1,1.8,8,4.9,10.7l103.6,89.5c2.6,2.2,5.8,3.4,9.2,3.4h376.1
			c7.8,0,14.1-6.3,14.1-14.1v-445.4C508,40.601,501.7,34.301,493.9,34.301z M28.2,62.501h51.2v20.2c0,7.8,6.3,14.1,14.1,14.1
			s14.1-6.3,14.1-14.1v-20.2h292.7v20.2c0,7.8,6.3,14.1,14.1,14.1s14.1-6.3,14.1-14.1v-20.2h51.2v59.4H28.2V62.501z M103.6,463.101
			l-51.6-44.6h51.6V463.101z M479.8,479.801L479.8,479.801H131.9v-75.4c0-7.8-6.3-14.1-14.1-14.1H28.2v-240.2h451.6V479.801z"/>
	</g>
</g>
<g>
	<g>
		<path d="M101,191.201H87.9c-7.8,0-14.1,6.3-14.1,14.1s6.3,14.1,14.1,14.1H101c7.8,0,14.1-6.3,14.1-14.1S108.8,191.201,101,191.201
			z"/>
	</g>
</g>
<g>
	<g>
		<path d="M180.9,191.201h-13.2c-7.8,0-14.1,6.3-14.1,14.1s6.3,14.1,14.1,14.1h13.2c7.8,0,14.1-6.3,14.1-14.1
			S188.7,191.201,180.9,191.201z"/>
	</g>
</g>
<g>
	<g>
		<path d="M260.6,191.201h-13.2c-7.8,0-14.1,6.3-14.1,14.1s6.3,14.1,14.1,14.1h13.2c7.8,0,14.1-6.3,14.1-14.1
			S268.4,191.201,260.6,191.201z"/>
	</g>
</g>
<g>
	<g>
		<path d="M340.4,191.201h-13.2c-7.8,0-14.1,6.3-14.1,14.1s6.3,14.1,14.1,14.1h13.2c7.8,0,14.1-6.3,14.1-14.1
			S348.2,191.201,340.4,191.201z"/>
	</g>
</g>
<g>
	<g>
		<path d="M420.2,191.201H407c-7.8,0-14.1,6.3-14.1,14.1s6.3,14.1,14.1,14.1h13.2c7.8,0,14.1-6.3,14.1-14.1
			S428,191.201,420.2,191.201z"/>
	</g>
</g>
<g>
	<g>
		<path d="M101,264.301H87.9c-7.8,0-14.1,6.3-14.1,14.1c0,7.8,6.3,14.1,14.1,14.1H101c7.8,0,14.1-6.3,14.1-14.1
			C115.1,270.601,108.8,264.301,101,264.301z"/>
	</g>
</g>
<g>
	<g>
		<path d="M180.9,264.301h-13.2c-7.8,0-14.1,6.3-14.1,14.1c-0.1,7.8,6.3,14.1,14.1,14.1h13.2c7.8,0,14.1-6.3,14.1-14.1
			C195,270.601,188.7,264.301,180.9,264.301z"/>
	</g>
</g>
<g>
	<g>
		<path d="M260.6,264.301h-13.2c-7.8,0-14.1,6.3-14.1,14.1c0,7.8,6.3,14.1,14.1,14.1h13.2c7.8,0,14.1-6.3,14.1-14.1
			C274.7,270.601,268.4,264.301,260.6,264.301z"/>
	</g>
</g>
<g>
	<g>
		<path d="M340.4,264.301h-13.2c-7.8,0-14.1,6.3-14.1,14.1c0,7.8,6.3,14.1,14.1,14.1h13.2c7.8,0,14.1-6.3,14.1-14.1
			C354.5,270.601,348.2,264.301,340.4,264.301z"/>
	</g>
</g>
<g>
	<g>
		<path d="M420.2,264.301H407c-7.8,0-14.1,6.3-14.1,14.1c-0.1,7.8,6.3,14.1,14.1,14.1h13.2c7.8,0,14.1-6.3,14.1-14.1
			C434.3,270.601,428,264.301,420.2,264.301z"/>
	</g>
</g>
<g>
	<g>
		<path d="M101,337.401H87.9c-7.8,0-14.1,6.3-14.1,14.1c0,7.8,6.3,14.1,14.1,14.1H101c7.8,0,14.1-6.3,14.1-14.1
			S108.8,337.401,101,337.401z"/>
	</g>
</g>
<g>
	<g>
		<path d="M180.9,337.401h-13.2c-7.8,0-14.1,6.3-14.1,14.1c-0.1,7.8,6.3,14.1,14.1,14.1h13.2c7.8,0,14.1-6.3,14.1-14.1
			S188.7,337.401,180.9,337.401z"/>
	</g>
</g>
<g>
	<g>
		<path d="M260.6,337.401h-13.2c-7.8,0-14.1,6.3-14.1,14.1c0,7.8,6.3,14.1,14.1,14.1h13.2c7.8,0,14.1-6.3,14.1-14.1
			S268.4,337.401,260.6,337.401z"/>
	</g>
</g>
<g>
	<g>
		<path d="M340.4,337.401h-13.2c-7.8,0-14.1,6.3-14.1,14.1c0,7.8,6.3,14.1,14.1,14.1h13.2c7.8,0,14.1-6.3,14.1-14.1
			S348.2,337.401,340.4,337.401z"/>
	</g>
</g>
<g>
	<g>
		<path d="M420.2,337.401H407c-7.8,0-14.1,6.3-14.1,14.1c-0.1,7.8,6.3,14.1,14.1,14.1h13.2c7.8,0,14.1-6.3,14.1-14.1
			S428,337.401,420.2,337.401z"/>
	</g>
</g>
<g>
	<g>
		<path d="M180.9,410.601h-13.2c-7.8,0-14.1,6.3-14.1,14.1c-0.1,7.7,6.3,14.1,14.1,14.1h13.2c7.8,0,14.1-6.3,14.1-14.1
			C195,416.901,188.7,410.601,180.9,410.601z"/>
	</g>
</g>
<g>
	<g>
		<path d="M260.6,410.601h-13.2c-7.8,0-14.1,6.3-14.1,14.1c0,7.7,6.3,14.1,14.1,14.1h13.2c7.8,0,14.1-6.3,14.1-14.1
			C274.7,416.901,268.4,410.601,260.6,410.601z"/>
	</g>
</g>
<g>
	<g>
		<path d="M340.4,410.601h-13.2c-7.8,0-14.1,6.3-14.1,14.1c0,7.7,6.3,14.1,14.1,14.1h13.2c7.8,0,14.1-6.3,14.1-14.1
			C354.5,416.901,348.2,410.601,340.4,410.601z"/>
	</g>
</g>
<g>
	<g>
		<path d="M420.2,410.601H407c-7.8,0-14.1,6.3-14.1,14.1c-0.1,7.7,6.3,14.1,14.1,14.1h13.2c7.8,0,14.1-6.3,14.1-14.1
			C434.3,416.901,428,410.601,420.2,410.601z"/>
	</g>
</g>
<g>
</g>
<g>
</g>
<g>
</g>
<g>
</g>
<g>
</g>
<g>
</g>
<g>
</g>
<g>
</g>
<g>
</g>
<g>
</g>
<g>
</g>
<g>
</g>
<g>
</g>
<g>
</g>
<g>
</g>
</svg>
