<?xml version="1.0" encoding="iso-8859-1"?>
<!-- Generator: Adobe Illustrator 19.0.0, SVG Export Plug-In . SVG Version: 6.00 Build 0)  -->
<svg version="1.1" id="Layer_1" xmlns="http://www.w3.org/2000/svg" xmlns:xlink="http://www.w3.org/1999/xlink" x="0px" y="0px"
	 viewBox="0 0 508 508" style="enable-background:new 0 0 508 508;" xml:space="preserve">
<g>
	<g>
		<path d="M428.2,98.988H79.8c-7.8,0-14.1,6.3-14.1,14.1s6.3,14.1,14.1,14.1h348.4c7.8,0,14.1-6.3,14.1-14.1
			S436,98.988,428.2,98.988z"/>
	</g>
</g>
<g>
	<g>
		<path d="M428.2,193.088H79.8c-7.8,0-14.1,6.3-14.1,14.1s6.3,14.1,14.1,14.1h348.4c7.8,0,14.1-6.3,14.1-14.1
			C442.3,199.388,436,193.088,428.2,193.088z"/>
	</g>
</g>
<g>
	<g>
		<path d="M428.2,287.188H79.8c-7.8,0-14.1,6.3-14.1,14.1s6.3,14.1,14.1,14.1h348.4c7.8,0,14.1-6.3,14.1-14.1
			C442.3,293.488,436,287.188,428.2,287.188z"/>
	</g>
</g>
<g>
	<g>
		<path d="M452.2,18.088H55.8c-30.8,0-55.8,25-55.8,55.8v266.7c0,30.8,25,55.8,55.8,55.8h5.5v79.9c0,5.5,3,10.9,8.1,12.8
			c5.4,1.9,12.4,0.2,15-1.9l109.2-90.8h258.6c30.8,0,55.8-25,55.8-55.8v-266.7C508,43.088,483,18.088,452.2,18.088z M479.8,340.588
			c0,15.2-12.4,27.6-27.6,27.6H188.5c-3.3,0-6.5,1.2-9,3.3l-90,74.8v-64c0-7.8-6.3-14.1-14.1-14.1H55.8c-15.2,0-27.6-12.4-27.6-27.6
			v-266.7c0-15.2,12.4-27.6,27.6-27.6h396.4c15.2,0,27.6,12.4,27.6,27.6V340.588z"/>
	</g>
</g>
<g>
</g>
<g>
</g>
<g>
</g>
<g>
</g>
<g>
</g>
<g>
</g>
<g>
</g>
<g>
</g>
<g>
</g>
<g>
</g>
<g>
</g>
<g>
</g>
<g>
</g>
<g>
</g>
<g>
</g>
</svg>
