<?xml version="1.0" encoding="iso-8859-1"?>
<!-- Generator: Adobe Illustrator 19.0.0, SVG Export Plug-In . SVG Version: 6.00 Build 0)  -->
<svg version="1.1" id="Layer_1" xmlns="http://www.w3.org/2000/svg" xmlns:xlink="http://www.w3.org/1999/xlink" x="0px" y="0px"
	 viewBox="0 0 392.533 392.533" style="enable-background:new 0 0 392.533 392.533;" xml:space="preserve">
<g>
	<g>
		<path d="M365.091,140.606h-17.325V10.925C347.766,4.913,342.917,0,336.84,0H118.4c-6.012,0-10.925,4.848-10.925,10.925v123.992
			l-22.044-25.6c-2.069-2.392-5.107-3.814-8.275-3.814H27.507c-6.012,0-10.925,4.849-10.925,10.925v265.18
			c0,6.012,4.849,10.925,10.925,10.925h337.519c6.012,0,10.925-4.849,10.925-10.925V151.467
			C375.952,145.584,371.103,140.606,365.091,140.606z M129.325,21.85H325.98v118.756H129.325V21.85z M354.101,370.877H38.432v-0.065
			V127.418h33.745l26.893,31.289c2.069,2.392,5.107,3.814,8.275,3.814h246.756V370.877z"/>
	</g>
</g>
<g>
	<g>
		<path d="M293.269,43.636H162.036c-6.012,0-10.925,4.849-10.925,10.925c0,6.077,4.849,10.925,10.925,10.925h131.232
			c6.012,0,10.925-4.849,10.925-10.925C304.194,48.485,299.281,43.636,293.269,43.636z"/>
	</g>
</g>
<g>
	<g>
		<path d="M293.269,87.273H162.036c-6.012,0-10.925,4.849-10.925,10.925c0,6.077,4.913,10.861,10.925,10.861h131.232
			c6.012,0,10.925-4.849,10.925-10.925C304.194,92.057,299.281,87.273,293.269,87.273z"/>
	</g>
</g>
<g>
</g>
<g>
</g>
<g>
</g>
<g>
</g>
<g>
</g>
<g>
</g>
<g>
</g>
<g>
</g>
<g>
</g>
<g>
</g>
<g>
</g>
<g>
</g>
<g>
</g>
<g>
</g>
<g>
</g>
</svg>
