<?xml version="1.0" encoding="iso-8859-1"?>
<!-- Generator: Adobe Illustrator 19.0.0, SVG Export Plug-In . SVG Version: 6.00 Build 0)  -->
<svg version="1.1" id="Layer_1" xmlns="http://www.w3.org/2000/svg" xmlns:xlink="http://www.w3.org/1999/xlink" x="0px" y="0px"
	 viewBox="0 0 508 508" style="enable-background:new 0 0 508 508;" xml:space="preserve">
<g>
	<g>
		<path d="M423.4,82.3h-69.6v-16c0-7.8-6.3-14.1-14.1-14.1h-31L293.3,9.4C291.3,3.8,286,0,280,0h-52.1c-6,0-11.3,3.7-13.3,9.4
			l-15.3,42.8h-31c-7.8,0-14.1,6.3-14.1,14.1v16H84.6c-7.8,0-14.1,6.3-14.1,14.1v397.5c0,7.8,6.3,14.1,14.1,14.1h338.8
			c7.8,0,14.1-6.3,14.1-14.1V96.4C437.5,88.6,431.2,82.3,423.4,82.3z M237.9,28.2h32.3l8.6,24h-49.4L237.9,28.2z M182.4,80.4h143.1
			v43.1H182.4V80.4z M98.7,479.8V110.5h55.5v27.1c0,7.8,6.3,14.1,14.1,14.1h171.3c7.8,0,14.1-6.3,14.1-14.1v-27.1h55.5v369.3H98.7z"
			/>
	</g>
</g>
<g>
	<g>
		<path d="M357.9,194.5H150.1c-7.8-0.1-14.1,6.3-14.1,14.1c0,7.8,6.3,14.1,14.1,14.1h207.8c7.8,0,14.1-6.3,14.1-14.1
			C372,200.8,365.7,194.5,357.9,194.5z"/>
	</g>
</g>
<g>
	<g>
		<path d="M357.9,264.7H150.1c-7.8,0-14.1,6.3-14.1,14.1s6.3,14.1,14.1,14.1h207.8c7.8,0,14.1-6.3,14.1-14.1
			C372,271,365.7,264.7,357.9,264.7z"/>
	</g>
</g>
<g>
	<g>
		<path d="M357.9,334.9H150.1c-7.8,0-14.1,6.3-14.1,14.1c0,7.8,6.3,14.1,14.1,14.1h207.8c7.8,0,14.1-6.3,14.1-14.1
			C372,341.2,365.7,334.9,357.9,334.9z"/>
	</g>
</g>
<g>
	<g>
		<path d="M357.9,405.1H150.1c-7.8,0-14.1,6.3-14.1,14.1c0,7.8,6.3,14.1,14.1,14.1h207.8c7.8,0,14.1-6.3,14.1-14.1
			C372,411.4,365.7,405.1,357.9,405.1z"/>
	</g>
</g>
<g>
</g>
<g>
</g>
<g>
</g>
<g>
</g>
<g>
</g>
<g>
</g>
<g>
</g>
<g>
</g>
<g>
</g>
<g>
</g>
<g>
</g>
<g>
</g>
<g>
</g>
<g>
</g>
<g>
</g>
</svg>
