<?xml version="1.0" encoding="iso-8859-1"?>
<!-- Generator: Adobe Illustrator 19.0.0, SVG Export Plug-In . SVG Version: 6.00 Build 0)  -->
<svg version="1.1" id="Layer_1" xmlns="http://www.w3.org/2000/svg" xmlns:xlink="http://www.w3.org/1999/xlink" x="0px" y="0px"
	 viewBox="0 0 507.981 507.981" style="enable-background:new 0 0 507.981 507.981;" xml:space="preserve">
<g>
	<g>
		<path d="M355.04,373.981c-18.2,0-34.6,7.3-46.7,19l-38.9-89.3l123.7-283.9c3.1-7.1-0.2-15.5-7.3-18.6c-7.2-3.1-15.5,0.2-18.6,7.3
			l-113.2,259.9l-113.2-259.9c-3.1-7.2-11.4-10.4-18.6-7.3c-7.1,3.1-10.4,11.4-7.3,18.6l123.7,283.9l-38.9,89.3
			c-12.1-11.7-28.5-19-46.7-19c-37,0-67,30-67,67s30,67,67,67s67-30,67-67c0-6.3-0.9-12.4-2.6-18.1l36.6-83.9l36.5,83.8
			c-1.6,5.8-2.6,11.8-2.6,18.1c0,37,30,67,67,67s67-30,67-67C422.04,403.981,392.04,373.981,355.04,373.981z M153.04,479.781
			c-21.4,0-38.8-17.4-38.8-38.8c0-21.4,17.4-38.8,38.8-38.8s38.8,17.4,38.8,38.8C191.84,462.381,174.44,479.781,153.04,479.781z
			 M355.04,479.781c-21.4,0-38.8-17.4-38.8-38.8c0-21.4,17.4-38.8,38.8-38.8c21.4,0,38.8,17.4,38.8,38.8
			C393.84,462.381,376.44,479.781,355.04,479.781z"/>
	</g>
</g>
<g>
</g>
<g>
</g>
<g>
</g>
<g>
</g>
<g>
</g>
<g>
</g>
<g>
</g>
<g>
</g>
<g>
</g>
<g>
</g>
<g>
</g>
<g>
</g>
<g>
</g>
<g>
</g>
<g>
</g>
</svg>
