<?xml version="1.0" encoding="iso-8859-1"?>
<!-- Generator: Adobe Illustrator 19.0.0, SVG Export Plug-In . SVG Version: 6.00 Build 0)  -->
<svg version="1.1" id="Layer_1" xmlns="http://www.w3.org/2000/svg" xmlns:xlink="http://www.w3.org/1999/xlink" x="0px" y="0px"
	 viewBox="0 0 508.035 508.035" style="enable-background:new 0 0 508.035 508.035;" xml:space="preserve">
<g>
	<g>
		<path d="M150.435,177.017c-39.1,0-70.8,31.8-70.8,70.8s31.8,70.8,70.8,70.8s70.8-31.8,70.8-70.8S189.535,177.017,150.435,177.017z
			 M150.435,290.417c-23.5,0-42.6-19.1-42.6-42.6s19.1-42.6,42.6-42.6s42.6,19.1,42.6,42.6S173.935,290.417,150.435,290.417z"/>
	</g>
</g>
<g>
	<g>
		<path d="M300.735,493.117c-4.5-79.7-70.6-142-150.3-142s-145.8,62.4-150.4,142c-0.2,3.9,0,14.9,14.1,14.9h272.5
			C300.735,508.017,300.935,497.017,300.735,493.117z M30.035,479.817c10.4-57.4,60.7-100.5,120.4-100.5s110,43.1,120.4,100.5
			H30.035z"/>
	</g>
</g>
<g>
	<g>
		<path d="M465.735,0.017h-195c-23.3,0-42.3,19-42.3,42.3v116.1c0,45.8,44.2,42.3,44.2,42.3v54.2c0,5.3,2.8,10.3,7.6,12.5
			c5,2.3,12.2,0.7,14.6-1l93.2-65.7h77.7c23.3,0,42.3-19,42.3-42.3v-116.1C508.035,19.017,489.035,0.017,465.735,0.017z
			 M479.935,158.417h-0.1c0,7.8-6.3,14.1-14.1,14.1h-82.1c-2.9,0-5.8,0.9-8.1,2.6l-74.6,52.6v-41.1c0-7.8-6.3-14.1-14.1-14.1h-16
			c-7.8,0-14.1-6.3-14.1-14.1v-116.1c0-7.8,6.3-14.1,14.1-14.1h195c7.8,0,14.1,6.3,14.1,14.1V158.417z"/>
	</g>
</g>
<g>
	<g>
		<path d="M434.235,56.417h-132c-7.8,0-14.1,6.3-14.1,14.1s6.3,14.1,14.1,14.1h131.9c7.8,0,14.1-6.3,14.1-14.1
			S442.035,56.417,434.235,56.417z"/>
	</g>
</g>
<g>
	<g>
		<path d="M434.235,115.817h-132c-7.8,0-14.1,6.3-14.1,14.1c0,7.8,6.3,14.1,14.1,14.1h131.9c7.8,0,14.1-6.3,14.1-14.1
			C448.335,122.117,442.035,115.817,434.235,115.817z"/>
	</g>
</g>
<g>
</g>
<g>
</g>
<g>
</g>
<g>
</g>
<g>
</g>
<g>
</g>
<g>
</g>
<g>
</g>
<g>
</g>
<g>
</g>
<g>
</g>
<g>
</g>
<g>
</g>
<g>
</g>
<g>
</g>
</svg>
