<?xml version="1.0" encoding="iso-8859-1"?>
<!-- Generator: Adobe Illustrator 19.0.0, SVG Export Plug-In . SVG Version: 6.00 Build 0)  -->
<svg version="1.1" id="Layer_1" xmlns="http://www.w3.org/2000/svg" xmlns:xlink="http://www.w3.org/1999/xlink" x="0px" y="0px"
	 viewBox="0 0 507.805 507.805" style="enable-background:new 0 0 507.805 507.805;" xml:space="preserve">
<g>
	<g>
		<path d="M493.9,85.233c-7.8,0-14.1,6.3-14.1,14.1v159.9H343.5c-7.8,0-14.1,6.3-14.1,14.1s6.3,14.1,14.1,14.1H361l-20.2,118.5
			c-1.3,7.7,3.9,15,11.5,16.3c0.8,0.1,12.5,3.2,16.3-11.5l6.2-36.7h87.5l6.2,36.7c2,9.3,10.3,12.6,16.3,11.5
			c7.7-1.4,12.9-8.6,11.5-16.3l-20.2-118.5h17.6c7.8,0,14.1-6.3,14.1-14.1v-174C508,91.533,501.7,85.233,493.9,85.233z
			 M379.7,345.833l9.9-58.3h58.1l9.9,58.3H379.7z"/>
	</g>
</g>
<g>
	<g>
		<path d="M328.7,181.933H14.1c-7.8,0-14.1,6.4-14.1,14.1s6.3,14.1,14.1,14.1h35.8v198.2c0,7.8,6.3,14.1,14.1,14.1
			s14.1-6.3,14.1-14.1v-102.1h186.6v102.1c0,7.8,6.3,14.1,14.1,14.1c7.8,0,14.1-6.3,14.1-14.1v-198.1h35.8c7.8,0,14.1-6.4,14.1-14.2
			S336.5,181.933,328.7,181.933z M264.7,278.033H78.1v-67.8h186.6V278.033z"/>
	</g>
</g>
<g>
</g>
<g>
</g>
<g>
</g>
<g>
</g>
<g>
</g>
<g>
</g>
<g>
</g>
<g>
</g>
<g>
</g>
<g>
</g>
<g>
</g>
<g>
</g>
<g>
</g>
<g>
</g>
<g>
</g>
</svg>
