<?xml version="1.0" encoding="iso-8859-1"?>
<!-- Generator: Adobe Illustrator 19.0.0, SVG Export Plug-In . SVG Version: 6.00 Build 0)  -->
<svg version="1.1" id="Layer_1" xmlns="http://www.w3.org/2000/svg" xmlns:xlink="http://www.w3.org/1999/xlink" x="0px" y="0px"
	 viewBox="0 0 508.116 508.116" style="enable-background:new 0 0 508.116 508.116;" xml:space="preserve">
<g>
	<g>
		<path d="M322.858,185.255c-5.5-5.5-14.4-5.5-20,0l-48.8,48.9l-21.1-21.1c-5.5-5.5-14.4-5.5-20,0c-5.5,5.5-5.5,14.4,0,20l31.1,31
			c10,10,17.2,2.8,20,0l58.8-58.8C328.358,199.755,328.358,190.855,322.858,185.255z"/>
	</g>
</g>
<g>
	<g>
		<path d="M503.958,106.055l-101.9-101.9c-4.6-4.6-11.7-5.5-17.2-2.1l-110.3,65.7c-6.5-2.2-37.5-12.8-65.5,15.3l-126.1,126
			c-28.3,28.3-17.4,59-15.2,65.5l-65.7,110.4c-3.3,5.5-2.4,12.6,2.1,17.2l101.9,101.9c6.6,6.6,15,3.5,17.2,2.1l110.3-65.7
			c6.5,2.2,37.8,12.5,65.5-15.2l53-53.1l11.5,11.5c5.6,5.6,14.9,5.1,20,0c5.5-5.6,5.5-14.5,0-20l-11.5-11.5l53-53.1
			c29.2-29.2,17.4-59,15.2-65.5l65.8-110.3C509.358,117.755,508.458,110.655,503.958,106.055z M118.258,476.255l-86.3-86.3l53-88.9
			l122.2,122.3L118.258,476.255z M405.058,279.155l-125.9,126.1c-19.1,19.1-43.4,6.7-50.1,0l-126.1-126.1
			c-13.8-13.8-13.8-36.3,0-50.1l126-126.1c17.2-17.2,43.4-6.7,50.1,0l126,126.1C418.858,242.855,418.858,265.355,405.058,279.155z
			 M423.158,207.155l-122.2-122.2l88.9-53l86.3,86.3L423.158,207.155z"/>
	</g>
</g>
<g>
</g>
<g>
</g>
<g>
</g>
<g>
</g>
<g>
</g>
<g>
</g>
<g>
</g>
<g>
</g>
<g>
</g>
<g>
</g>
<g>
</g>
<g>
</g>
<g>
</g>
<g>
</g>
<g>
</g>
</svg>
