<?xml version="1.0" encoding="iso-8859-1"?>
<!-- Generator: Adobe Illustrator 19.0.0, SVG Export Plug-In . SVG Version: 6.00 Build 0)  -->
<svg version="1.1" id="Layer_1" xmlns="http://www.w3.org/2000/svg" xmlns:xlink="http://www.w3.org/1999/xlink" x="0px" y="0px"
	 viewBox="0 0 508.073 508.073" style="enable-background:new 0 0 508.073 508.073;" xml:space="preserve">
<g>
	<g>
		<path d="M470.459,378.925c-0.7-2.1-1.9-4-3.4-5.5l-113.9-113.9l149.8-149.8c10-10,2.6-17.3,0-19.9l-85.7-85.7
			c-5.5-5.5-14.4-5.5-19.9,0l-149.8,149.8l-134.7-134.7c-25.5-25.5-67.8-25.6-93.4,0c-25.8,25.8-25.8,67.7,0,93.5l134.6,134.7
			l-149.9,149.9c-5.5,5.5-5.5,14.4,0,19.9l85.6,85.7c2.6,2.6,10,10,19.9,0l150-149.9l113.9,113.9c1.5,1.5,3.4,2.7,5.5,3.4
			l110.4,36.9c6,2,10.7,0.3,14.4-3.4c3.8-3.8,5.1-9.4,3.4-14.4L470.459,378.925z M276.159,165.225l29.9,29.9
			c5.5,5.5,14.4,5.5,19.9,0c5-5,5.5-14.4,0-19.9l-29.9-29.9l23.7-23.7l13,13c5.5,5.5,14.4,5.5,19.9,0c5.2-5.2,6.2-13.7,0-19.9
			l-13-13l23.7-23.7l29.4,29.4c5.5,5.5,14.4,5.5,19.9,0c5.6-5.6,5.5-14.4,0-19.9l-29.4-29.5l24-24l65.8,65.7l-139.8,139.9
			l-65.8-65.8L276.159,165.225z M39.359,92.825c-14.8-14.8-14.8-38.8,0-53.6c14.1-14.1,38.8-14.7,53.6,0l15.5,15.5l-53.6,53.6
			L39.359,92.825z M99.759,473.025l-65.7-65.7l24-24l13.2,13.2c5.5,5.5,14.4,5.6,19.9,0c5.5-5.5,5.5-14.4,0-19.9l-13.1-13.3
			l23.7-23.7l29.6,29.6c6.2,6.2,14.7,5.2,19.9,0c5.5-5.5,5.5-14.4,0-19.9l-29.6-29.6l23.7-23.7l13.2,13.2c5.5,5.5,14.9,5,19.9,0
			c5.5-5.5,5.5-14.4,0-19.9l-13.2-13.2l8.8-8.8l65.8,65.7L99.759,473.025z M74.759,128.225l53.6-53.6l308.7,308.7l-53.6,53.6
			L74.759,128.225z M409.659,450.725l41.3-41.3l20.7,61.9L409.659,450.725z"/>
	</g>
</g>
<g>
</g>
<g>
</g>
<g>
</g>
<g>
</g>
<g>
</g>
<g>
</g>
<g>
</g>
<g>
</g>
<g>
</g>
<g>
</g>
<g>
</g>
<g>
</g>
<g>
</g>
<g>
</g>
<g>
</g>
</svg>
