<?xml version="1.0" encoding="iso-8859-1"?>
<!-- Generator: Adobe Illustrator 19.0.0, SVG Export Plug-In . SVG Version: 6.00 Build 0)  -->
<svg version="1.1" id="Layer_1" xmlns="http://www.w3.org/2000/svg" xmlns:xlink="http://www.w3.org/1999/xlink" x="0px" y="0px"
	 viewBox="0 0 508 508" style="enable-background:new 0 0 508 508;" xml:space="preserve">
<g>
	<g>
		<path d="M493.9,479.8H28.2V14.1C28.2,6.3,21.9,0,14.1,0C6.3,0,0,6.3,0,14.1v479.8c0,7.8,6.3,14.1,14.1,14.1h479.8
			c7.8,0,14.1-6.3,14.1-14.1C508,486.1,501.7,479.8,493.9,479.8z"/>
	</g>
</g>
<g>
	<g>
		<path d="M309.9,162.3h-56.4c-7.8,0-14.1,6.3-14.1,14.1v246.9c0,7.8,6.3,14.1,14.1,14.1h56.4c7.8,0,14.1-6.3,14.1-14.1V176.4
			C324,168.6,317.7,162.3,309.9,162.3z M295.8,409.2h-28.2V190.5h28.2V409.2z"/>
	</g>
</g>
<g>
	<g>
		<path d="M451.5,232.8h-56.4c-7.8,0-14.1,6.3-14.1,14.1v176.4c0,7.8,6.3,14.1,14.1,14.1h56.4c7.8,0,14.1-6.3,14.1-14.1V246.9
			C465.6,239.1,459.3,232.8,451.5,232.8z M437.4,409.3h-28.2V261.1h28.2V409.3z"/>
	</g>
</g>
<g>
	<g>
		<path d="M208.6,96.8l-57.2-68.2c-5.4-6.4-16.3-6.4-21.6,0L72.6,96.8c-3.5,4.2-4.3,10.1-2,15c2.3,5,7.3,8.1,12.8,8.1h14.9v303.4
			c0,7.8,6.3,14.1,14.1,14.1h56.4c7.8,0,14.1-6.3,14.1-14.1V119.9h14.9c5.5,0,10.5-3.2,12.8-8.1C212.9,106.8,212.1,101,208.6,96.8z
			 M154.7,409.2h-28.2V119.9h28.2V409.2z M113.7,91.8l26.9-32.2l27,32.2H113.7z"/>
	</g>
</g>
<g>
</g>
<g>
</g>
<g>
</g>
<g>
</g>
<g>
</g>
<g>
</g>
<g>
</g>
<g>
</g>
<g>
</g>
<g>
</g>
<g>
</g>
<g>
</g>
<g>
</g>
<g>
</g>
<g>
</g>
</svg>
