<?xml version="1.0" encoding="iso-8859-1"?>
<!-- Generator: Adobe Illustrator 19.0.0, SVG Export Plug-In . SVG Version: 6.00 Build 0)  -->
<svg version="1.1" id="Layer_1" xmlns="http://www.w3.org/2000/svg" xmlns:xlink="http://www.w3.org/1999/xlink" x="0px" y="0px"
	 viewBox="0 0 508 508" style="enable-background:new 0 0 508 508;" xml:space="preserve">
<g>
	<g>
		<path d="M282.95,0c-7.8,0-14.1,6.3-14.1,14.1V225c0,7.8,6.3,14.1,14.1,14.1h210.9c7.8,0,14.1-6.3,14.1-14.1
			C508.05,101,407.05,0,282.95,0z M297.15,210.9V28.7c97.3,6.9,175.3,84.9,182.2,182.2H297.15z"/>
	</g>
</g>
<g>
	<g>
		<path d="M436.05,268.8h-196.8V72c0-7.8-6.3-14.1-14.1-14.1c-124.1,0-225.1,101-225.1,225s101,225.1,225.1,225.1
			s225.1-101,225.1-225.1C450.15,275.2,443.85,268.8,436.05,268.8z M225.15,479.8c-108.5,0-196.8-88.3-196.8-196.8
			c0-103.8,80.7-189.1,182.7-196.3V283c0,7.8,6.3,14.1,14.1,14.1h196.3C414.15,399,328.85,479.8,225.15,479.8z"/>
	</g>
</g>
<g>
</g>
<g>
</g>
<g>
</g>
<g>
</g>
<g>
</g>
<g>
</g>
<g>
</g>
<g>
</g>
<g>
</g>
<g>
</g>
<g>
</g>
<g>
</g>
<g>
</g>
<g>
</g>
<g>
</g>
</svg>
