<?xml version="1.0" encoding="iso-8859-1"?>
<!-- Generator: Adobe Illustrator 19.0.0, SVG Export Plug-In . SVG Version: 6.00 Build 0)  -->
<svg version="1.1" id="Layer_1" xmlns="http://www.w3.org/2000/svg" xmlns:xlink="http://www.w3.org/1999/xlink" x="0px" y="0px"
	 viewBox="0 0 508 508" style="enable-background:new 0 0 508 508;" xml:space="preserve">
<g>
	<g>
		<path d="M451.6,0H56.4C25.3,0,0,25.3,0,56.4v301.8c0,31.1,25.3,56.4,56.4,56.4h148.1c-1.7,16.6-13,37.3-67.6,66.8
			c-5.7,3.1-8.6,9.6-7,15.9c1.6,6.3,7.2,10.7,13.7,10.7h220.8c6.5,0,12.1-4.4,13.7-10.7c1.6-6.3-1.3-12.8-7-15.9
			c-54.7-29.5-65.9-50.2-67.6-66.8h148.1c31.1,0,56.4-25.3,56.4-56.4V56.4C508,25.3,482.7,0,451.6,0z M28.2,56.4
			c0-15.6,12.7-28.2,28.2-28.2h395.1c15.6,0,28.2,12.7,28.2,28.2v238.4H28.2V56.4z M316,479.8H192c31.4-24.3,39.5-45.5,40.7-65.1
			h42.5C276.5,434.3,284.6,455.5,316,479.8z M479.8,358.2L479.8,358.2c0,15.6-12.7,28.2-28.2,28.2H56.4c-15.6,0-28.2-12.7-28.2-28.2
			V323h451.6V358.2z"/>
	</g>
</g>
<g>
	<g>
		<path d="M281.9,340.7h-55.8c-7.8,0-14.1,6.3-14.1,14.1c0,7.7,6.3,14.1,14.1,14.1h55.8c7.8,0,14.1-6.3,14.1-14.1
			S289.7,340.7,281.9,340.7z"/>
	</g>
</g>
<g>
</g>
<g>
</g>
<g>
</g>
<g>
</g>
<g>
</g>
<g>
</g>
<g>
</g>
<g>
</g>
<g>
</g>
<g>
</g>
<g>
</g>
<g>
</g>
<g>
</g>
<g>
</g>
<g>
</g>
</svg>
