<?xml version="1.0" encoding="iso-8859-1"?>
<!-- Generator: Adobe Illustrator 19.0.0, SVG Export Plug-In . SVG Version: 6.00 Build 0)  -->
<svg version="1.1" id="Layer_1" xmlns="http://www.w3.org/2000/svg" xmlns:xlink="http://www.w3.org/1999/xlink" x="0px" y="0px"
	 viewBox="0 0 507.9 507.9" style="enable-background:new 0 0 507.9 507.9;" xml:space="preserve">
<g>
	<g>
		<path d="M378.95,232.5l-32.3-220.4c-1-6.9-7-12.1-14-12.1h-157.4c-7,0-12.9,5.1-14,12.1l-32.6,222.4c-0.6,4-0.1,16.1,14,16.1
			h222.7c0.1,0,0.1,0,0.1,0C381.55,250.6,379.35,233.7,378.95,232.5z M158.95,222.4l28.5-194.2h133.1l28.4,194.2H158.95z"/>
	</g>
</g>
<g>
	<g>
		<path d="M467.25,197.4h-44.8c-7.8,0-14.1,6.3-14.1,14.1s6.3,14.1,14.1,14.1h8.3v82.9h-15.3c-5.9-17.3-22.2-29.8-41.5-29.8h-240
			c-19.2,0-35.6,12.5-41.5,29.8h-15.3v-82.9h8.3c7.8,0,14.1-6.3,14.1-14.1s-6.3-14.1-14.1-14.1h-44.8c-7.8,0-14.1,6.3-14.1,14.1
			s6.3,14.1,14.1,14.1h8.3v97c0,7.8,6.3,14.1,14.1,14.1h29.4c5.9,17.3,22.2,29.8,41.5,29.8h105.9V438h-85.3
			c-7.8,0-14.1,6.3-14.1,14.1v41.7c0,7.8,6.3,14.1,14.1,14.1c7.8,0,14.1-6.3,14.1-14.1v-27.6h71.2v27.6c0,7.8,6.3,14.1,14.1,14.1
			s14.1-6.3,14.1-14.1v-27.6h71.2v27.6c0,7.8,6.3,14.1,14.1,14.1c7.8,0,14.1-6.3,14.1-14.1v-41.7c0-7.8-6.3-14.1-14.1-14.1h-85.3
			v-71.5h105.9c19.2,0,35.6-12.5,41.5-29.8h29.4c7.8,0,14.1-6.3,14.1-14.1v-97h8.3c7.8,0,14.1-6.3,14.1-14.1
			S475.05,197.4,467.25,197.4z M373.95,338.3h-240c-8.6,0-15.6-7-15.6-15.6c0-8.6,7-15.6,15.6-15.6h240c8.6,0,15.6,7,15.6,15.6
			C389.65,331.3,382.55,338.3,373.95,338.3z"/>
	</g>
</g>
<g>
</g>
<g>
</g>
<g>
</g>
<g>
</g>
<g>
</g>
<g>
</g>
<g>
</g>
<g>
</g>
<g>
</g>
<g>
</g>
<g>
</g>
<g>
</g>
<g>
</g>
<g>
</g>
<g>
</g>
</svg>
