<?xml version="1.0" encoding="iso-8859-1"?>
<!-- Generator: Adobe Illustrator 19.0.0, SVG Export Plug-In . SVG Version: 6.00 Build 0)  -->
<svg version="1.1" id="Layer_1" xmlns="http://www.w3.org/2000/svg" xmlns:xlink="http://www.w3.org/1999/xlink" x="0px" y="0px"
	 viewBox="0 0 508 508" style="enable-background:new 0 0 508 508;" xml:space="preserve">
<g>
	<g>
		<path d="M366.596,282.8c78,0,141.4-63.4,141.4-141.4S444.596,0,366.596,0c-60.9,0-112.7,38.7-132.6,92.7c-0.5-0.1-1-0.2-1.5-0.4
			c3.5-6.3,5.5-13.6,5.5-21.3c0-24.3-19.8-44.1-44.1-44.1c-24.3,0-44.1,19.8-44.1,44.1c0,7.7,2,15,5.5,21.3
			c-60.7,17-105.4,72.6-105.4,138.6v86.8c0,43.1-16.4,84.1-46,115.4c-3.9,4.1-5,10.1-2.7,15.3c2.2,5.2,7.3,8.5,13,8.5h116.2
			c6.5,29.2,32.5,51.1,63.5,51.1c31.1,0,57.1-21.9,63.6-51.1h116.2c5.6,0,10.7-3.4,13-8.5c2.2-5.2,1.2-11.2-2.7-15.3
			c-29.7-31.3-46-72.2-46-115.4v-37.9C347.096,281.8,356.696,282.8,366.596,282.8z M193.896,55.2c8.8,0,15.9,7.1,15.9,15.9
			s-7.2,15.9-15.9,15.9c-8.8,0-15.9-7.1-15.9-15.9C177.996,62.3,185.096,55.2,193.896,55.2z M193.796,479.8
			c-15.4,0-28.5-9.4-34.1-22.8h68.3C222.396,470.3,209.196,479.8,193.796,479.8z M343.996,428.7h-300.3
			c22.4-32.4,34.5-70.9,34.5-111v-86.8c0-63.8,51.9-115.7,115.7-115.7c11.3,0,22.4,1.6,33.1,4.9c-1.1,7-1.8,14.1-1.8,21.4
			c0,57.7,34.8,107.3,84.4,129.3v47C309.596,357.8,321.696,396.3,343.996,428.7z M253.396,141.4c0-62.4,50.8-113.2,113.2-113.2
			s113.2,50.8,113.2,113.2s-50.8,113.2-113.2,113.2S253.396,203.8,253.396,141.4z"/>
	</g>
</g>
<g>
	<g>
		<path d="M412.796,127.3h-32.1V67.1c0-7.8-6.3-14.1-14.1-14.1c-7.8,0-14.1,6.3-14.1,14.1v74.3c0,7.8,6.3,14.1,14.1,14.1h46.2
			c7.8,0,14.1-6.3,14.1-14.1C426.896,133.6,420.596,127.3,412.796,127.3z"/>
	</g>
</g>
<g>
</g>
<g>
</g>
<g>
</g>
<g>
</g>
<g>
</g>
<g>
</g>
<g>
</g>
<g>
</g>
<g>
</g>
<g>
</g>
<g>
</g>
<g>
</g>
<g>
</g>
<g>
</g>
<g>
</g>
</svg>
