<?xml version="1.0" encoding="iso-8859-1"?>
<!-- Generator: Adobe Illustrator 19.0.0, SVG Export Plug-In . SVG Version: 6.00 Build 0)  -->
<svg version="1.1" id="Layer_1" xmlns="http://www.w3.org/2000/svg" xmlns:xlink="http://www.w3.org/1999/xlink" x="0px" y="0px"
	 viewBox="0 0 392.614 392.614" style="enable-background:new 0 0 392.614 392.614;" xml:space="preserve">
<g>
	<g>
		<path d="M343.558,6.335C341.812,2.457,337.933,0,333.667,0h-90.182c-3.168,0-6.271,1.422-8.275,3.879l-39.24,45.964L157.44,3.879
			C155.372,1.422,152.333,0,149.101,0H58.919c-4.267,0-8.145,2.457-9.891,6.335c-1.745,3.879-1.164,8.404,1.616,11.636l77.64,91.022
			c-4.008,1.616-6.788,5.495-6.788,10.149v43.636c0,6.012,4.849,10.925,10.925,10.925h41.18l-15.321,47.063H68.616
			c-4.719,0-8.857,3.038-10.343,7.499c-1.487,4.461,0.129,9.438,3.943,12.218l72.469,52.622l-27.669,85.204
			c-1.487,4.461,0.129,9.438,3.943,12.218c3.814,2.78,8.986,2.78,12.8,0l72.533-52.622l72.469,52.622
			c4.396,2.069,8.986,2.069,12.8,0c4.202-2.263,5.43-7.758,3.943-12.218l-27.669-85.204l72.469-52.622
			c3.814-2.78,5.43-7.758,3.943-12.218s-5.624-7.499-10.343-7.499h-89.6l-15.321-47.063h41.18c6.012,0,10.925-4.848,10.925-10.925
			v-43.636c0-4.59-2.78-8.469-6.788-10.15l77.64-91.022C344.721,14.739,345.368,10.214,343.558,6.335z M82.58,21.786h61.414
			l37.624,44.8l-30.448,35.685L82.58,21.786z M226.418,242.489h64l-51.782,37.56c-3.814,2.78-5.43,7.758-3.943,12.218l19.782,60.832
			l-51.717-37.56c-3.814-2.78-8.986-2.78-12.8,0l-51.782,37.56l19.782-60.832c1.487-4.461-0.129-9.438-3.943-12.218l-51.782-37.56
			h63.935c4.719,0,8.857-3.038,10.343-7.564l19.782-60.832l19.782,60.832C217.562,239.451,221.699,242.489,226.418,242.489z
			 M249.368,151.855h-0.065h-106.02v-21.786h106.085V151.855z M236.374,108.283h-61.608l73.697-86.368h61.608L236.374,108.283z"/>
	</g>
</g>
<g>
</g>
<g>
</g>
<g>
</g>
<g>
</g>
<g>
</g>
<g>
</g>
<g>
</g>
<g>
</g>
<g>
</g>
<g>
</g>
<g>
</g>
<g>
</g>
<g>
</g>
<g>
</g>
<g>
</g>
</svg>
