<?xml version="1.0" encoding="iso-8859-1"?>
<!-- Generator: Adobe Illustrator 19.0.0, SVG Export Plug-In . SVG Version: 6.00 Build 0)  -->
<svg version="1.1" id="Layer_1" xmlns="http://www.w3.org/2000/svg" xmlns:xlink="http://www.w3.org/1999/xlink" x="0px" y="0px"
	 viewBox="0 0 508.1 508.1" style="enable-background:new 0 0 508.1 508.1;" xml:space="preserve">
<g>
	<g>
		<path d="M268.146,307.3V171.5c0-7.8-6.3-14.1-14.1-14.1c-7.8,0-14.1,6.3-14.1,14.1v135.8c-33,6.6-58,35.8-58,70.7
			c0,39.8,32.4,72.1,72.1,72.1c39.8,0,72.1-32.4,72.1-72.1C326.146,343,301.246,313.8,268.146,307.3z M254.046,421.9
			c-24.2,0-43.9-19.7-43.9-43.9c0-24.2,19.7-43.9,43.9-43.9s43.9,19.7,43.9,43.9S278.246,421.9,254.046,421.9z"/>
	</g>
</g>
<g>
	<g>
		<path d="M326.046,269.8V72c0-39.7-32.3-72-72-72s-72,32.3-72,72v197.9c-38.3,25.5-60.3,68.9-57.8,115.2
			c3.5,65.8,50.8,123,129.8,123c96.7,0,130-87.7,130-130C384.046,334.6,362.046,293.8,326.046,269.8z M254.046,479.8
			c-57.2,0-97.8-42.4-101.6-96.2c-2.8-38.4,17.4-74.3,50.8-93.6c4.4-2.5,7-7.2,7-12.2V72c0-24.1,19.6-43.8,43.8-43.8
			c24.1,0,43.8,19.6,43.8,43.8v205.7c0,5,2.7,9.7,7,12.2c31.4,18.2,51,51.9,51,88.1C355.846,421.3,318.646,479.8,254.046,479.8z"/>
	</g>
</g>
<g>
</g>
<g>
</g>
<g>
</g>
<g>
</g>
<g>
</g>
<g>
</g>
<g>
</g>
<g>
</g>
<g>
</g>
<g>
</g>
<g>
</g>
<g>
</g>
<g>
</g>
<g>
</g>
<g>
</g>
</svg>
