<?xml version="1.0" encoding="iso-8859-1"?>
<!-- Generator: Adobe Illustrator 19.0.0, SVG Export Plug-In . SVG Version: 6.00 Build 0)  -->
<svg version="1.1" id="Layer_1" xmlns="http://www.w3.org/2000/svg" xmlns:xlink="http://www.w3.org/1999/xlink" x="0px" y="0px"
	 viewBox="0 0 508 508" style="enable-background:new 0 0 508 508;" xml:space="preserve">
<g>
	<g>
		<path d="M379.9,161.2V14.1c0-7.8-6.3-14.1-14.1-14.1H70.6C31.7,0,0,31.7,0,70.6v316.6c0,38.9,31.7,70.6,70.6,70.6h137.2
			c31.8,31,75.3,50.2,123.2,50.2c97.6,0,177-79.4,177-177C508,250.5,453.8,182.5,379.9,161.2z M81.5,429.5H70.6
			c-23.3,0-42.3-19-42.3-42.3V70.6c0-23.3,19-42.3,42.3-42.3h10.9V429.5z M109.7,429.6v-0.1V28.2h242v127.1
			c-6.9-0.8-13.8-1.2-20.7-1.2c-97.6,0-177,79.4-177,177c0,35.5,10.5,69.5,29.9,98.5H109.7z M331,479.8
			c-82,0-148.7-66.7-148.7-148.7S249,182.3,331,182.3S479.7,249,479.7,331S413.1,479.8,331,479.8z"/>
	</g>
</g>
<g>
	<g>
		<path d="M331,281.1c-27.5,0-50,22.4-50,50c0,27.6,22.4,50,50,50c27.6,0,50-22.4,50-50C381,303.5,358.6,281.1,331,281.1z
			 M331,352.8c-12,0-21.7-9.7-21.7-21.7s9.7-21.7,21.7-21.7s21.7,9.8,21.7,21.7C352.8,343,343,352.8,331,352.8z"/>
	</g>
</g>
<g>
	<g>
		<path d="M442.3,297.3c-11.1-34.8-38.5-62.2-73.3-73.3c-7.4-2.4-15.4,1.7-17.7,9.2c-2.4,7.4,1.7,15.4,9.2,17.7
			c26.1,8.3,46.5,29,55,55c2.8,8.5,11.3,11.1,17.7,9.2C440.6,312.8,444.6,304.8,442.3,297.3z"/>
	</g>
</g>
<g>
	<g>
		<path d="M309.1,412.1c-26.1-8.3-46.7-28.9-55-55c-2.4-7.4-10.3-11.5-17.7-9.2c-7.4,2.4-11.5,10.3-9.2,17.7
			c11.1,34.8,38.5,62.3,73.3,73.3c5.7,1.8,15.3-1.3,17.7-9.2C320.6,422.4,316.6,414.5,309.1,412.1z"/>
	</g>
</g>
<g>
</g>
<g>
</g>
<g>
</g>
<g>
</g>
<g>
</g>
<g>
</g>
<g>
</g>
<g>
</g>
<g>
</g>
<g>
</g>
<g>
</g>
<g>
</g>
<g>
</g>
<g>
</g>
<g>
</g>
</svg>
