<?xml version="1.0" encoding="iso-8859-1"?>
<!-- Generator: Adobe Illustrator 19.0.0, SVG Export Plug-In . SVG Version: 6.00 Build 0)  -->
<svg version="1.1" id="Layer_1" xmlns="http://www.w3.org/2000/svg" xmlns:xlink="http://www.w3.org/1999/xlink" x="0px" y="0px"
	 viewBox="0 0 392.566 392.566" style="enable-background:new 0 0 392.566 392.566;" xml:space="preserve">
<g>
	<g>
		<path d="M274.249,312.275L231.518,99.717l26.764-26.764c2.004-2.004,5.754-9.18,0-15.451L204.043,3.2
			c-4.267-4.267-11.119-4.267-15.451,0l-54.303,54.303c-5.947,7.37-2.004,13.382,0,15.451l26.764,26.764l-42.731,212.558
			c-0.711,3.556,0.388,7.24,3.038,9.891l67.232,67.232c2.133,2.133,4.913,3.168,7.758,3.168c2.78,0,5.56-1.099,7.758-3.168
			l67.232-67.232C273.796,319.58,274.96,315.83,274.249,312.275z M157.368,65.261l38.917-38.853l38.853,38.853l-20.04,20.04h-37.689
			L157.368,65.261z M196.285,366.19l-55.402-55.402l40.986-203.83h28.897l40.986,203.83L196.285,366.19z"/>
	</g>
</g>
<g>
</g>
<g>
</g>
<g>
</g>
<g>
</g>
<g>
</g>
<g>
</g>
<g>
</g>
<g>
</g>
<g>
</g>
<g>
</g>
<g>
</g>
<g>
</g>
<g>
</g>
<g>
</g>
<g>
</g>
</svg>
