<?xml version="1.0" encoding="iso-8859-1"?>
<!-- Generator: Adobe Illustrator 19.0.0, SVG Export Plug-In . SVG Version: 6.00 Build 0)  -->
<svg version="1.1" id="Layer_1" xmlns="http://www.w3.org/2000/svg" xmlns:xlink="http://www.w3.org/1999/xlink" x="0px" y="0px"
	 viewBox="0 0 392.547 392.547" style="enable-background:new 0 0 392.547 392.547;" xml:space="preserve">
<g>
	<g>
		<path d="M389.615,362.45l-44.994-47.968l4.784-4.461c2.069-2.004,6.982-9.826,0.517-15.451l-38.529-41.115l0.453-0.453
			c3.232-3.038,4.331-7.758,2.78-11.83c-17.39-45.899-55.014-101.754-103.305-153.212c-29.802-31.741-61.996-60.121-92.962-81.842
			c-5.624-3.943-26.44-12.994-42.473,3.103L10.787,69.86C-0.85,80.785-3.436,98.434,4.839,111.945
			c19.653,32.323,45.834,66.133,75.572,98.004c48.291,51.459,101.624,92.703,146.36,113.131c1.487,0.711,7.564,2.392,11.96-1.939
			l0.517-0.453l38.659,41.18c5.56,6.335,13.317,2.457,15.386,0.517l4.848-4.59l29.414,31.418c4.267,4.267,9.826,3.297,10.667,3.103
			l46.158-11.895C388.128,379.581,397.179,373.052,389.615,362.45z M229.227,300.131c-40.857-20.17-88.889-58.117-132.913-105.115
			c-28.832-30.707-54.044-63.354-72.857-94.319c-2.844-4.719-1.939-10.99,2.133-14.804l65.164-60.638
			c5.43-5.43,13.123-2.521,15.063-1.164c29.737,20.881,60.768,48.162,89.535,78.869c44.089,46.933,78.739,97.228,96.194,139.248
			L229.227,300.131z M286.31,338.983l-31.16-33.228l40.275-37.56l31.16,33.228L286.31,338.983z M338.997,369.625l-24.954-26.634
			l14.61-13.576l32.453,34.586L338.997,369.625z"/>
	</g>
</g>
<g>
</g>
<g>
</g>
<g>
</g>
<g>
</g>
<g>
</g>
<g>
</g>
<g>
</g>
<g>
</g>
<g>
</g>
<g>
</g>
<g>
</g>
<g>
</g>
<g>
</g>
<g>
</g>
<g>
</g>
</svg>
