<?xml version="1.0" encoding="iso-8859-1"?>
<!-- Generator: Adobe Illustrator 19.0.0, SVG Export Plug-In . SVG Version: 6.00 Build 0)  -->
<svg version="1.1" id="Layer_1" xmlns="http://www.w3.org/2000/svg" xmlns:xlink="http://www.w3.org/1999/xlink" x="0px" y="0px"
	 viewBox="0 0 508.1 508.1" style="enable-background:new 0 0 508.1 508.1;" xml:space="preserve">
<g>
	<g>
		<path d="M396.7,237.2c-25.3-10.1-51.8-17.6-78.8-22.1c-6.5-1.1-12.9,2.5-15.4,8.6l-48.4,118.7l-48.4-118.7
			c-2.5-6.1-8.9-9.7-15.4-8.6c-27,4.6-53.5,12-78.8,22.1c-23.6,9.4-38.8,31.9-38.8,57.2V494c0,7.8,6.3,14.1,14.1,14.1h334.5
			c7.8,0,14.1-6.3,14.1-14.1V294.3C435.5,269,420.2,246.6,396.7,237.2z M407.3,479.8H100.9V294.3c0-13.7,8.3-25.8,21.1-31
			c19.9-8,40.7-14.2,61.9-18.4L241,385.1c2.2,5.3,7.3,8.8,13.1,8.8c5.7,0,10.9-3.5,13.1-8.8l57.1-140.2c21.2,4.3,42,10.5,61.9,18.4
			c12.8,5.1,21.1,17.3,21.1,31V479.8z"/>
	</g>
</g>
<g>
	<g>
		<path d="M254.1,0c-52.3,0-94.8,42.5-94.8,94.8s42.5,94.8,94.8,94.8s94.8-42.5,94.8-94.8S306.4,0,254.1,0z M254.1,161.4
			c-36.7,0-66.6-29.9-66.6-66.6s29.9-66.6,66.6-66.6s66.6,29.9,66.6,66.6S290.8,161.4,254.1,161.4z"/>
	</g>
</g>
<g>
</g>
<g>
</g>
<g>
</g>
<g>
</g>
<g>
</g>
<g>
</g>
<g>
</g>
<g>
</g>
<g>
</g>
<g>
</g>
<g>
</g>
<g>
</g>
<g>
</g>
<g>
</g>
<g>
</g>
</svg>
