<?xml version="1.0" encoding="iso-8859-1"?>
<!-- Generator: Adobe Illustrator 19.0.0, SVG Export Plug-In . SVG Version: 6.00 Build 0)  -->
<svg version="1.1" id="Layer_1" xmlns="http://www.w3.org/2000/svg" xmlns:xlink="http://www.w3.org/1999/xlink" x="0px" y="0px"
	 viewBox="0 0 508 508" style="enable-background:new 0 0 508 508;" xml:space="preserve">
<g>
	<g>
		<path d="M451.65,0H56.45c-31.1,0-56.4,25.3-56.4,56.4v395.1c0,31.2,25.3,56.5,56.4,56.5h395.1c31.1,0,56.4-25.3,56.4-56.4V56.4
			C508.05,25.3,482.75,0,451.65,0z M479.65,239.8h-28.4c-7.8,0-14.1,6.3-14.1,14.1s6.3,14.1,14.1,14.1h28.4v183.4
			c0.2,15.7-12.5,28.4-28,28.4h-183.5v-28.4c0-7.8-6.3-14.1-14.1-14.1c-7.8,0-14.1,6.3-14.1,14.1v28.4H56.45
			c-15.6,0-28.2-12.7-28.2-28.2V268.1h28.4c7.8,0,14.1-6.3,14.1-14.1s-6.3-14.1-14.1-14.1h-28.4V56.4c0-15.6,12.7-28.2,28.2-28.2
			h183.4v28.4c0,7.8,6.3,14.1,14.1,14.1c7.8,0,14.1-6.3,14.1-14.1V28.2h183.4c15.6,0,28.2,12.7,28.2,28.2V239.8z"/>
	</g>
</g>
<g>
	<g>
		<path d="M433.75,74.3c-5.5-5.5-14.4-5.5-20,0l-30.1,30c-5.5,5.5-5.5,14.4,0,20s14.4,5.6,20,0.1l30.1-30.1
			C439.25,88.8,439.25,79.9,433.75,74.3z"/>
	</g>
</g>
<g>
	<g>
		<path d="M124.45,104.4l-30.1-30c-5.5-5.5-14.4-5.5-20,0c-5.5,5.5-5.5,14.4,0,20l30.1,30c5.5,5.5,14.4,5.5,20,0
			C129.95,118.9,129.95,110,124.45,104.4z"/>
	</g>
</g>
<g>
	<g>
		<path d="M124.55,383.6c-5.6-5.5-14.5-5.5-20,0l-30.1,30.1c-5.5,5.5-5.5,14.4,0,20c5.5,5.5,14.4,5.5,20,0l30.1-30.1
			C130.05,398.1,130.05,389.2,124.55,383.6z"/>
	</g>
</g>
<g>
	<g>
		<path d="M433.65,413.7l-30.1-30.1c-5.5-5.5-14.4-5.5-20,0c-5.5,5.5-5.5,14.4,0,20l30.1,30.1c5.5,5.5,14.4,5.5,20,0
			C439.15,428.2,439.15,419.3,433.65,413.7z"/>
	</g>
</g>
<g>
	<g>
		<path d="M254.05,105.6c-7.8,0-14.1,6.3-14.1,14.1v120.1h-47.7c-7.8,0-14.1,6.3-14.1,14.1s6.3,14.1,14.1,14.1h61.8
			c7.8,0,14.1-6.3,14.1-14.1V119.7C268.15,112,261.85,105.6,254.05,105.6z"/>
	</g>
</g>
<g>
</g>
<g>
</g>
<g>
</g>
<g>
</g>
<g>
</g>
<g>
</g>
<g>
</g>
<g>
</g>
<g>
</g>
<g>
</g>
<g>
</g>
<g>
</g>
<g>
</g>
<g>
</g>
<g>
</g>
</svg>
