<?xml version="1.0" encoding="iso-8859-1"?>
<!-- Generator: Adobe Illustrator 19.0.0, SVG Export Plug-In . SVG Version: 6.00 Build 0)  -->
<svg version="1.1" id="Layer_1" xmlns="http://www.w3.org/2000/svg" xmlns:xlink="http://www.w3.org/1999/xlink" x="0px" y="0px"
	 viewBox="0 0 508.045 508.045" style="enable-background:new 0 0 508.045 508.045;" xml:space="preserve">
<g>
	<g>
		<path d="M408.04,319.934h-70.8v-51.2h43.5c7.8,0,14.1-6.3,14.1-14.1s-6.3-14.1-14.1-14.1h-148c-7.8,0-14.1,6.3-14.1,14.1
			s6.3,14.1,14.1,14.1h76.3v51.2h-135.3c7.7-134.9-12.6-237.5-61.9-313.5c-4.2-6.5-13-8.4-19.5-4.2s-8.4,13-4.2,19.5
			c47.7,73.5,66.2,175.3,56.4,311.3c-0.3,3.9-0.2,15.1,14.1,15.1h96.5v101.8c-29.4,2.6-58.4,13.5-84.7,32.6
			c-6.3,4.6-7.7,13.4-3.1,19.7c4.6,6.3,13.4,7.7,19.7,3.1c21.5-15.6,44.7-24.6,68.1-27.2v15.8c0,7.8,6.3,14.1,14.1,14.1
			s14.1-6.3,14.1-14.1v-15.8c23.5,2.6,46.7,11.6,68.1,27.2c2.5,1.8,13.2,5.2,19.7-3.1c4.8-6.1,3.2-15.1-3.1-19.7
			c-26.3-19.1-55.3-29.9-84.7-32.6v-101.8h124.7c7.8,0,14.1-6.3,14.1-14.1S415.84,319.934,408.04,319.934z"/>
	</g>
</g>
<g>
</g>
<g>
</g>
<g>
</g>
<g>
</g>
<g>
</g>
<g>
</g>
<g>
</g>
<g>
</g>
<g>
</g>
<g>
</g>
<g>
</g>
<g>
</g>
<g>
</g>
<g>
</g>
<g>
</g>
</svg>
