<?xml version="1.0" encoding="iso-8859-1"?>
<!-- Generator: Adobe Illustrator 19.0.0, SVG Export Plug-In . SVG Version: 6.00 Build 0)  -->
<svg version="1.1" id="Layer_1" xmlns="http://www.w3.org/2000/svg" xmlns:xlink="http://www.w3.org/1999/xlink" x="0px" y="0px"
	 viewBox="0 0 508 508" style="enable-background:new 0 0 508 508;" xml:space="preserve">
<g>
	<g>
		<path d="M338.8,341.4c-1.7-5.1-6.1-8.8-11.4-9.6l-42.1-6.1l-18.8-38.1c-2.4-4.8-7.3-7.9-12.7-7.9s-10.3,3-12.7,7.9l-18.8,38.1
			l-42.1,6.1c-5.3,0.8-9.7,4.5-11.4,9.6c-1.7,5.1-0.3,10.7,3.6,14.5l30.4,29.7l-7.2,41.9c-0.9,5.3,1.3,10.6,5.6,13.8
			s10.1,3.6,14.9,1.1l37.6-19.8l37.6,19.8c2.1,1.1,10,2.3,14.9-1.1c4.4-3.1,6.5-8.5,5.6-13.8l-7.2-41.9l30.4-29.7
			C339.1,352.1,340.5,346.5,338.8,341.4z M279.8,370.5c-3.3,3.2-4.8,7.9-4.1,12.5l3.6,21l-18.9-9.9c-2.1-1.1-4.3-1.6-6.6-1.6
			c-2.3,0-4.5,0.5-6.6,1.6l-18.9,9.9l3.6-21c0.8-4.6-0.7-9.3-4.1-12.5l-15.3-14.9l21.1-3.1c4.6-0.7,8.6-3.6,10.6-7.7l9.4-19.1
			l9.4,19.1c2.1,4.2,6,7.1,10.6,7.7l21.1,3.1L279.8,370.5z"/>
	</g>
</g>
<g>
	<g>
		<path d="M319.2,231.4v-50.3c0-7.8-6.3-14.1-14.1-14.1h-4.2l73.9-146.5c2.2-4.4,2-9.6-0.6-13.8c-2.6-4.2-7.1-6.7-12-6.7H145.6
			c-4.9,0-9.5,2.5-12,6.7c-2.6,4.2-2.8,9.4-0.6,13.8L206.9,167h-4.2c-7.8,0-14.1,6.3-14.1,14.1v50.3c-47.8,24-80.8,73.3-80.8,130.4
			c0,80.6,65.6,146.2,146.2,146.2s146.2-65.6,146.2-146.2C400.1,304.8,367.1,255.4,319.2,231.4z M168.5,28.2h170.8l-70,138.8h-30.8
			L168.5,28.2z M291,195.2v25.2c-12-3.2-24.5-4.8-37.1-4.8c-12.6,0-25.1,1.6-37.1,4.8v-25.2H291z M253.9,479.8
			c-65,0-117.9-52.9-117.9-117.9s52.9-118,117.9-118s117.9,52.9,117.9,117.9S318.9,479.8,253.9,479.8z"/>
	</g>
</g>
<g>
</g>
<g>
</g>
<g>
</g>
<g>
</g>
<g>
</g>
<g>
</g>
<g>
</g>
<g>
</g>
<g>
</g>
<g>
</g>
<g>
</g>
<g>
</g>
<g>
</g>
<g>
</g>
<g>
</g>
</svg>
