<?xml version="1.0" encoding="iso-8859-1"?>
<!-- Generator: Adobe Illustrator 19.0.0, SVG Export Plug-In . SVG Version: 6.00 Build 0)  -->
<svg version="1.1" id="Layer_1" xmlns="http://www.w3.org/2000/svg" xmlns:xlink="http://www.w3.org/1999/xlink" x="0px" y="0px"
	 viewBox="0 0 508.029 508.029" style="enable-background:new 0 0 508.029 508.029;" xml:space="preserve">
<g>
	<g>
		<path d="M491.9,165.415c-30.6-30.6-60.3-9.3-69.6,0l-9.1,9.1v-159.4c0-7.8-6.3-14.1-14.1-14.1H66c-36.4,0-66,29.6-66,66v374
			c0,36.4,29.6,66,66,66h333.1c7.8,0,14.1-6.3,14.1-14.1v-179.3l78.7-78.7C501.2,225.615,523,196.415,491.9,165.415z M90.4,478.915
			H66c-20.9,0-37.9-17-37.9-37.9v-374c0-20.9,17-37.9,37.9-37.9h24.4V478.915z M118.5,478.915v-449.8h266.6v173.5l-131.9,131.9
			c-2.6,2.6-4.1,6.2-4.1,9.9v49.7c0,7.8,6.3,14.1,14.1,14.1h49.7c3.7,0,7.3-1.5,9.9-4.1l62.3-62.3v137.1H118.5z M472,215.015
			l-165,165h-29.8v-29.8l165-165c8-8,21.8-8,29.8,0C480.1,193.415,479.7,207.415,472,215.015z"/>
	</g>
</g>
<g>
	<g>
		<path d="M263.6,113.515h-12.4v-12.2c0-4.2-3.4-7.6-7.6-7.6s-7.6,3.4-7.6,7.6v12.2h-12.4c-3.7,0-6.7,3-6.7,6.7c0,3.7,3,6.7,6.7,6.7
			H236v12.2c0,4.2,3.4,7.6,7.6,7.6c4.2,0,7.6-3.4,7.6-7.6v-12.2h12.4c3.7,0,6.7-3,6.7-6.7
			C270.3,116.515,267.3,113.515,263.6,113.515z"/>
	</g>
</g>
<g>
	<g>
		<path d="M192.8,81.615h-12.7c-3.6,0-6.4,2.9-6.4,6.4c0,3.6,2.9,6.4,6.4,6.4h6.3v58c0,3.6,2.9,6.4,6.4,6.4c3.6,0,6.4-2.9,6.4-6.4
			v-64.3C199.2,84.515,196.4,81.615,192.8,81.615z"/>
	</g>
</g>
<g>
	<g>
		<path d="M329.9,105.015c0-12.7-10.3-23-23-23s-23,10.3-23,23c0,4,3.3,7.3,7.3,7.3s7.3-3.3,7.3-7.3c0-4.6,3.7-8.4,8.4-8.4
			c4.6,0,8.4,3.7,8.4,8.4c0,4.6-3.7,8.4-8.4,8.4c-4,0-7.3,3.3-7.3,7.3s3.3,7.3,7.3,7.3c4.6,0,8.4,3.7,8.4,8.4c0,4.7-3.8,8.4-8.4,8.4
			c-4.6,0-8.4-3.8-8.4-8.4c0-4-3.3-7.3-7.3-7.3s-7.3,3.3-7.3,7.3c0,12.7,10.3,23,23,23s23-10.3,23-23c0-6.1-2.4-11.6-6.3-15.7
			C327.5,116.615,329.9,111.115,329.9,105.015z"/>
	</g>
</g>
<g>
</g>
<g>
</g>
<g>
</g>
<g>
</g>
<g>
</g>
<g>
</g>
<g>
</g>
<g>
</g>
<g>
</g>
<g>
</g>
<g>
</g>
<g>
</g>
<g>
</g>
<g>
</g>
<g>
</g>
</svg>
