<?xml version="1.0" encoding="iso-8859-1"?>
<!-- Generator: Adobe Illustrator 19.0.0, SVG Export Plug-In . SVG Version: 6.00 Build 0)  -->
<svg version="1.1" id="Layer_1" xmlns="http://www.w3.org/2000/svg" xmlns:xlink="http://www.w3.org/1999/xlink" x="0px" y="0px"
	 viewBox="0 0 508 508" style="enable-background:new 0 0 508 508;" xml:space="preserve">
<g>
	<g>
		<path d="M253.9,0c-50.9,0-92.3,41.4-92.3,92.3c0,50.9,41.4,92.4,92.3,92.4c50.9,0,92.3-41.4,92.3-92.3C346.2,41.5,304.8,0,253.9,0
			z M253.9,156.4c-35.4,0-64.1-28.8-64.1-64.1s28.7-64.1,64.1-64.1c35.4,0,64.1,28.8,64.1,64.1C318,127.7,289.2,156.4,253.9,156.4z"
			/>
	</g>
</g>
<g>
	<g>
		<path d="M403.8,241.6c-46.5-22-98.4-33.7-149.9-33.7c-51.6,0-103.4,11.7-149.9,33.7c-24.3,11.5-39.9,36.5-39.9,63.6v188.7
			c0,7.8,6.3,14.1,14.1,14.1h351.6c7.8,0,14.1-6.3,14.1-14.1V305.2C443.8,278.1,428.1,253.1,403.8,241.6z M334.4,479.8h-161
			L154.8,348H353L334.4,479.8z M415.6,479.8h-52.7l20.3-143.9c0.6-4.1-0.6-8.1-3.3-11.2c-2.7-3.1-6.6-4.9-10.7-4.9H138.6
			c-4.1,0-8,1.8-10.7,4.9c-2.7,3.1-3.9,7.2-3.3,11.2l20.3,143.9H92.2V305.2c0-16.3,9.3-31.3,23.8-38.1c42.8-20.3,90.5-31,137.9-31
			c47.4,0,95.1,10.7,137.9,31c14.5,6.8,23.8,21.8,23.8,38.1V479.8z"/>
	</g>
</g>
<g>
</g>
<g>
</g>
<g>
</g>
<g>
</g>
<g>
</g>
<g>
</g>
<g>
</g>
<g>
</g>
<g>
</g>
<g>
</g>
<g>
</g>
<g>
</g>
<g>
</g>
<g>
</g>
<g>
</g>
</svg>
