<?xml version="1.0" encoding="iso-8859-1"?>
<!-- Generator: Adobe Illustrator 19.0.0, SVG Export Plug-In . SVG Version: 6.00 Build 0)  -->
<svg version="1.1" id="Layer_1" xmlns="http://www.w3.org/2000/svg" xmlns:xlink="http://www.w3.org/1999/xlink" x="0px" y="0px"
	 viewBox="0 0 507.925 507.925" style="enable-background:new 0 0 507.925 507.925;" xml:space="preserve">
<g>
	<g>
		<path d="M451.612,291.125h-339.1v-177.2c0-7.8-6.3-14.1-14.1-14.1s-14.1,6.3-14.1,14.1v177.2h-27.9c-31.1,0-56.4,25.3-56.4,56.5
			v103.9c0,31.1,25.3,56.4,56.4,56.4h395.1c31.1,0,56.4-25.3,56.4-56.4v-103.9C508.012,316.425,482.712,291.125,451.612,291.125z
			 M451.612,479.725h-395.2c-15.6,0-28.2-12.7-28.2-28.2v-103.9c0-15.6,12.7-28.2,28.2-28.2h395.1c15.6,0,28.2,12.7,28.2,28.2v103.9
			h0.1C479.812,467.125,467.112,479.725,451.612,479.725z"/>
	</g>
</g>
<g>
	<g>
		<path d="M125.012,358.725h-53.3c-7.8,0-14.1,6.3-14.1,14.1v53.3c0,7.8,6.3,14.1,14.1,14.1h53.3c7.8,0,14.1-6.3,14.1-14.1v-53.2
			C139.112,365.125,132.812,358.725,125.012,358.725z M110.912,412.125h-25.1v-25.1h25.1V412.125z"/>
	</g>
</g>
<g>
	<g>
		<path d="M238.312,358.725h-53.3c-7.8,0-14.1,6.3-14.1,14.1v53.3c0,7.8,6.3,14.1,14.1,14.1h53.3c7.8,0,14.1-6.3,14.1-14.1v-53.2
			C252.412,365.125,246.112,358.725,238.312,358.725z M224.212,412.125h-25.1v-25.1h25.1V412.125z"/>
	</g>
</g>
<g>
	<g>
		<path d="M351.612,358.725h-53.3c-7.8,0-14.1,6.3-14.1,14.1v53.3c0,7.8,6.3,14.1,14.1,14.1h53.3c7.8,0,14.1-6.3,14.1-14.1v-53.2
			C365.712,365.125,359.412,358.725,351.612,358.725z M337.512,412.125h-25.1v-25.1h25.1V412.125z"/>
	</g>
</g>
<g>
	<g>
		<circle cx="423.012" cy="399.525" r="13.3"/>
	</g>
</g>
<g>
	<g>
		<path d="M246.412,4.125c-5.5-5.5-14.4-5.5-20,0c-5.5,5.5-5.5,14.4,0,20c22.4,22.4,34.8,52.3,34.8,84.1c0,31.9-12.4,61.8-34.8,84.3
			c-5.5,5.5-5.5,14.4,0,20c7.1,7.1,17.2,2.8,20,0c27.8-27.8,43.1-64.8,43.1-104.2C289.512,68.925,274.212,31.925,246.412,4.125z"/>
	</g>
</g>
<g>
	<g>
		<path d="M201.612,41.825c-5.5-5.5-14.4-5.5-20,0c-5.5,5.5-5.5,14.4,0,20c25.7,25.6,25.7,67.3,0,93c-5.5,5.5-5.5,14.4,0,20
			c8.3,8.3,17.2,2.8,20,0C238.312,138.125,238.312,78.425,201.612,41.825z"/>
	</g>
</g>
<g>
	<g>
		<path d="M156.912,79.425c-5.5-5.5-14.4-5.5-20,0c-5.5,5.5-5.5,14.4,0,20c4.8,4.9,4.8,12.8,0,17.7c-5.5,5.5-5.5,14.4,0,20
			c7.6,7.6,17.2,2.8,20,0C172.812,121.225,172.812,95.325,156.912,79.425z"/>
	</g>
</g>
<g>
</g>
<g>
</g>
<g>
</g>
<g>
</g>
<g>
</g>
<g>
</g>
<g>
</g>
<g>
</g>
<g>
</g>
<g>
</g>
<g>
</g>
<g>
</g>
<g>
</g>
<g>
</g>
<g>
</g>
</svg>
