<?xml version="1.0" encoding="iso-8859-1"?>
<!-- Generator: Adobe Illustrator 19.0.0, SVG Export Plug-In . SVG Version: 6.00 Build 0)  -->
<svg version="1.1" id="Layer_1" xmlns="http://www.w3.org/2000/svg" xmlns:xlink="http://www.w3.org/1999/xlink" x="0px" y="0px"
	 viewBox="0 0 507.9 507.9" style="enable-background:new 0 0 507.9 507.9;" xml:space="preserve">
<g>
	<g>
		<path d="M418.899,0h-329.8c-7.8,0-14.1,6.3-14.1,14.1V479c0,7.8,6.3,14.1,14.1,14.1h12.4v0.7c0,7.8,6.3,14.1,14.1,14.1
			c7.8,0,14.1-6.3,14.1-14.1v-0.7h128.3h120.2v0.7c0,7.8,6.3,14.1,14.1,14.1c7.8,0,14.1-6.3,14.1-14.1v-0.7h12.4
			c7.8,0,14.1-6.3,14.1-14.1V14.1C432.999,6.3,426.699,0,418.899,0z M243.899,464.9h-140.7V183.2h140.7V464.9z M404.699,464.9
			h-132.6V183.2h132.6V464.9z M404.699,155h-146.7h-154.8V28.2h301.5V155z"/>
	</g>
</g>
<g>
	<g>
		<path d="M278.999,77.5h-50c-7.8,0-14.1,6.3-14.1,14.1s6.3,14.1,14.1,14.1h50c7.8,0,14.1-6.3,14.1-14.1
			C293.099,83.8,286.799,77.5,278.999,77.5z"/>
	</g>
</g>
<g>
	<g>
		<path d="M314.499,280c-7.8,0-14.1,6.3-14.1,14.1v50.1c0,7.8,6.3,14.1,14.1,14.1s14.1-6.3,14.1-14.1v-50.1
			C328.599,286.3,322.299,280,314.499,280z"/>
	</g>
</g>
<g>
	<g>
		<path d="M201.599,280c-7.8,0-14.1,6.3-14.1,14.1v50.1c0,7.8,6.3,14.1,14.1,14.1c7.8,0,14.1-6.3,14.1-14.1v-50.1
			C215.699,286.3,209.399,280,201.599,280z"/>
	</g>
</g>
<g>
</g>
<g>
</g>
<g>
</g>
<g>
</g>
<g>
</g>
<g>
</g>
<g>
</g>
<g>
</g>
<g>
</g>
<g>
</g>
<g>
</g>
<g>
</g>
<g>
</g>
<g>
</g>
<g>
</g>
</svg>
