<?xml version="1.0" encoding="iso-8859-1"?>
<!-- Generator: Adobe Illustrator 19.0.0, SVG Export Plug-In . SVG Version: 6.00 Build 0)  -->
<svg version="1.1" id="Layer_1" xmlns="http://www.w3.org/2000/svg" xmlns:xlink="http://www.w3.org/1999/xlink" x="0px" y="0px"
	 viewBox="0 0 392.598 392.598" style="enable-background:new 0 0 392.598 392.598;" xml:space="preserve">
<g>
	<g>
		<path d="M359.855,0H32.743C14.707,0,0.032,14.675,0.032,32.711v327.111c0,18.101,14.675,32.776,32.711,32.776h327.111
			c18.036,0,32.711-14.675,32.711-32.711V32.711C392.566,14.675,377.891,0,359.855,0z M370.78,359.822
			c0,6.012-4.849,10.925-10.925,10.925H32.743c-6.012,0-10.925-4.849-10.925-10.925V32.711c0-6.012,4.848-10.925,10.925-10.925
			h327.111c6.012,0,10.925,4.849,10.925,10.925V359.822z"/>
	</g>
</g>
<g>
	<g>
		<path d="M150.206,52.493c0.129-2.974-2.198-11.636-10.99-11.636H54.982c-9.115,0-11.055,8.663-10.925,11.636
			c6.853,103.499,6.853,184.049,0,287.483c-0.259,3.038,1.745,11.636,10.925,11.636h84.299c8.986,0,11.055-8.663,10.925-11.636
			C143.418,236.477,143.418,155.927,150.206,52.493z M127.58,329.762H66.554c5.947-95.095,5.947-172.024,0-267.119h61.026
			C121.632,157.867,121.632,234.667,127.58,329.762z"/>
	</g>
</g>
<g>
	<g>
		<path d="M337.616,43.572H180.331c-6.012,0-10.925,4.849-10.925,10.925v78.222c0,6.012,4.849,10.925,10.925,10.925h157.414
			c6.012,0,10.925-4.849,10.925-10.925V54.562C348.606,48.55,343.628,43.572,337.616,43.572z M326.82,121.794h-0.065H191.192V65.358
			H326.82V121.794z"/>
	</g>
</g>
<g>
	<g>
		<path d="M191.257,170.861h-5.495c-6.012,0-10.925,4.849-10.925,10.925c0,6.012,4.848,10.925,10.925,10.925h5.495
			c6.012,0,10.925-4.849,10.925-10.925C202.182,175.709,197.333,170.861,191.257,170.861z"/>
	</g>
</g>
<g>
	<g>
		<path d="M238.255,170.861h-5.495c-6.012,0-10.925,4.849-10.925,10.925c0,6.012,4.849,10.925,10.925,10.925h5.495
			c6.012,0,10.925-4.849,10.925-10.925C249.18,175.709,244.267,170.861,238.255,170.861z"/>
	</g>
</g>
<g>
	<g>
		<path d="M285.188,170.861h-5.495c-6.012,0-10.925,4.849-10.925,10.925c0,6.012,4.849,10.925,10.925,10.925h5.495
			c6.012,0,10.925-4.849,10.925-10.925C296.048,175.709,291.2,170.861,285.188,170.861z"/>
	</g>
</g>
<g>
	<g>
		<path d="M332.121,170.861h-5.495c-6.012,0-10.925,4.849-10.925,10.925c0,6.012,4.848,10.925,10.925,10.925h5.495
			c6.012,0,10.925-4.849,10.925-10.925C343.046,175.709,338.198,170.861,332.121,170.861z"/>
	</g>
</g>
<g>
	<g>
		<path d="M191.257,222.319h-5.495c-6.012,0-10.925,4.849-10.925,10.925c0,6.012,4.848,10.925,10.925,10.925h5.495
			c6.012,0,10.925-4.849,10.925-10.925C202.182,227.168,197.333,222.319,191.257,222.319z"/>
	</g>
</g>
<g>
	<g>
		<path d="M238.255,222.319h-5.495c-6.012,0-10.925,4.849-10.925,10.925c0,6.012,4.849,10.925,10.925,10.925h5.495
			c6.012,0,10.925-4.849,10.925-10.925C249.18,227.168,244.267,222.319,238.255,222.319z"/>
	</g>
</g>
<g>
	<g>
		<path d="M285.188,222.319h-5.495c-6.012,0-10.925,4.849-10.925,10.925c0,6.012,4.849,10.925,10.925,10.925h5.495
			c6.012,0,10.925-4.849,10.925-10.925C296.113,227.168,291.2,222.319,285.188,222.319z"/>
	</g>
</g>
<g>
	<g>
		<path d="M332.121,222.319h-5.495c-6.012,0-10.925,4.849-10.925,10.925c0,6.012,4.848,10.925,10.925,10.925h5.495
			c6.012,0,10.925-4.849,10.925-10.925C343.046,227.168,338.198,222.319,332.121,222.319z"/>
	</g>
</g>
<g>
	<g>
		<path d="M191.257,273.778h-5.495c-6.012,0-10.925,4.849-10.925,10.925s4.848,10.925,10.925,10.925h5.495
			c6.012,0,10.925-4.848,10.925-10.925S197.333,273.778,191.257,273.778z"/>
	</g>
</g>
<g>
	<g>
		<path d="M238.255,273.778h-5.495c-6.012,0-10.925,4.849-10.925,10.925s4.849,10.925,10.925,10.925h5.495
			c6.012,0,10.925-4.848,10.925-10.925S244.267,273.778,238.255,273.778z"/>
	</g>
</g>
<g>
	<g>
		<path d="M285.188,273.778h-5.495c-6.012,0-10.925,4.849-10.925,10.925s4.849,10.925,10.925,10.925h5.495
			c6.012,0,10.925-4.848,10.925-10.925S291.2,273.778,285.188,273.778z"/>
	</g>
</g>
<g>
	<g>
		<path d="M332.121,273.778h-5.495c-6.012,0-10.925,4.849-10.925,10.925s4.848,10.925,10.925,10.925h5.495
			c6.012,0,10.925-4.848,10.925-10.925S338.198,273.778,332.121,273.778z"/>
	</g>
</g>
<g>
	<g>
		<path d="M191.257,325.236h-5.495c-6.012,0-10.925,4.848-10.925,10.925c0,6.012,4.848,10.925,10.925,10.925h5.495
			c6.012,0,10.925-4.849,10.925-10.925S197.333,325.236,191.257,325.236z"/>
	</g>
</g>
<g>
	<g>
		<path d="M238.255,325.236h-5.495c-6.012,0-10.925,4.848-10.925,10.925c0,6.012,4.849,10.925,10.925,10.925h5.495
			c6.012,0,10.925-4.849,10.925-10.925S244.267,325.236,238.255,325.236z"/>
	</g>
</g>
<g>
	<g>
		<path d="M285.188,325.236h-5.495c-6.012,0-10.925,4.848-10.925,10.925c0,6.012,4.849,10.925,10.925,10.925h5.495
			c6.012,0,10.925-4.849,10.925-10.925S291.2,325.236,285.188,325.236z"/>
	</g>
</g>
<g>
	<g>
		<path d="M332.121,325.236h-5.495c-6.012,0-10.925,4.848-10.925,10.925c0,6.012,4.848,10.925,10.925,10.925h5.495
			c6.012,0,10.925-4.849,10.925-10.925S338.198,325.236,332.121,325.236z"/>
	</g>
</g>
<g>
</g>
<g>
</g>
<g>
</g>
<g>
</g>
<g>
</g>
<g>
</g>
<g>
</g>
<g>
</g>
<g>
</g>
<g>
</g>
<g>
</g>
<g>
</g>
<g>
</g>
<g>
</g>
<g>
</g>
</svg>
