<?xml version="1.0" encoding="iso-8859-1"?>
<!-- Generator: Adobe Illustrator 19.0.0, SVG Export Plug-In . SVG Version: 6.00 Build 0)  -->
<svg version="1.1" id="Layer_1" xmlns="http://www.w3.org/2000/svg" xmlns:xlink="http://www.w3.org/1999/xlink" x="0px" y="0px"
	 viewBox="0 0 508 508" style="enable-background:new 0 0 508 508;" xml:space="preserve">
<g>
	<g>
		<path d="M315.1,145.9V28.1c7.3-0.6,13-6.6,13-14C328.1,6.3,321.8,0,314,0H194.1C186.3,0,180,6.3,180,14.1c0,7.4,5.7,13.4,13,14
			v117.8C114,172,59.8,246.2,59.8,330.2c0,75.6,44.5,144.9,113.3,176.5c1.8,0.8,3.9,1.3,5.9,1.3h150c2,0,4-0.4,5.9-1.3
			c68.8-31.6,113.3-100.9,113.3-176.5C448.2,246.2,394,172,315.1,145.9z M210.7,170c6.2-1.7,10.4-7.2,10.4-13.6V28.2h65.7v128.1
			c0,6.4,4.3,12,10.4,13.6c67.7,18.2,116.2,77.2,122.1,146.1H88.7C94.5,247.2,143.1,188.2,210.7,170z M325.8,479.8H182.2
			c-53-25.5-88.4-77.4-93.4-135.5h330.5C414.3,402.3,378.8,454.3,325.8,479.8z"/>
	</g>
</g>
<g>
	<g>
		<circle cx="194.1" cy="376.9" r="14.6"/>
	</g>
</g>
<g>
	<g>
		<circle cx="313.9" cy="287" r="14.6"/>
	</g>
</g>
<g>
	<g>
		<circle cx="321.2" cy="418.4" r="14.6"/>
	</g>
</g>
<g>
	<g>
		<circle cx="254" cy="186.7" r="14.6"/>
	</g>
</g>
<g>
	<g>
		<circle cx="194.1" cy="262.2" r="14.6"/>
	</g>
</g>
<g>
</g>
<g>
</g>
<g>
</g>
<g>
</g>
<g>
</g>
<g>
</g>
<g>
</g>
<g>
</g>
<g>
</g>
<g>
</g>
<g>
</g>
<g>
</g>
<g>
</g>
<g>
</g>
<g>
</g>
</svg>
