<?xml version="1.0" encoding="iso-8859-1"?>
<!-- Generator: Adobe Illustrator 19.0.0, SVG Export Plug-In . SVG Version: 6.00 Build 0)  -->
<svg version="1.1" id="Layer_1" xmlns="http://www.w3.org/2000/svg" xmlns:xlink="http://www.w3.org/1999/xlink" x="0px" y="0px"
	 viewBox="0 0 508.089 508.089" style="enable-background:new 0 0 508.089 508.089;" xml:space="preserve">
<g>
	<g>
		<path d="M503.977,202.892l-198.6-198.7c-5.5-5.5-14.4-5.5-20,0c0,0-209.7,210.1-210.1,210.5c-1.2,1.5-74.8,275.9-74.8,275.9
			c-1.3,4.9,0.1,10.1,3.7,13.6c2.8,2.8,6.6,4.3,13.6,3.7l275.8-74.8c0.4-0.3,210.3-210.3,210.3-210.3
			C509.477,217.292,509.477,208.392,503.977,202.892z M295.477,34.192l29.6,29.7l-145.4,145.5h-59.3L295.477,34.192z
			 M34.077,474.392l12.6-47.4c15.1,7.3,27.4,19.6,34.7,34.8L34.077,474.392z M270.577,410.092v1.2l-161.5,43.1
			c-10.4-24.8-30.2-44.6-55-55l43-161.7h1.2h73.1v85.2c0,7.8,6.3,14.1,14.1,14.1h85.1V410.092z M278.877,308.792h-79.3v-79.4
			l145.5-145.6l79.3,79.4L278.877,308.792z M298.877,388.092v-59.4l145.5-145.5l29.7,29.7L298.877,388.092z"/>
	</g>
</g>
<g>
</g>
<g>
</g>
<g>
</g>
<g>
</g>
<g>
</g>
<g>
</g>
<g>
</g>
<g>
</g>
<g>
</g>
<g>
</g>
<g>
</g>
<g>
</g>
<g>
</g>
<g>
</g>
<g>
</g>
</svg>
