<?xml version="1.0" encoding="iso-8859-1"?>
<!-- Generator: Adobe Illustrator 19.0.0, SVG Export Plug-In . SVG Version: 6.00 Build 0)  -->
<svg version="1.1" id="Layer_1" xmlns="http://www.w3.org/2000/svg" xmlns:xlink="http://www.w3.org/1999/xlink" x="0px" y="0px"
	 viewBox="0 0 392.663 392.663" style="enable-background:new 0 0 392.663 392.663;" xml:space="preserve">
<g>
	<g>
		<path d="M357.366,234.279h-2.069v-39.952c0-25.018-5.947-49.713-17.131-71.758l9.503-9.956c3.491-3.62,4.008-9.115,1.293-13.382
			c-33.552-52.558-90.57-84.04-152.76-84.04c-62.19,0-119.208,31.354-152.695,83.976c-2.715,4.267-2.133,9.762,1.293,13.382
			l9.503,9.956c-11.184,22.238-17.131,46.804-17.131,71.822v39.951h-2.069C15.774,234.279,0,250.052,0,269.382v37.495
			c0,19.329,15.774,35.103,35.103,35.103h12.606c11.83,12.929,27.539,21.075,44.606,23.596v0.905
			c0,6.012,4.848,10.925,10.925,10.925s10.925-4.849,10.925-10.925V209.778c0-6.012-4.848-10.925-10.925-10.925
			s-10.925,4.849-10.925,10.925v0.905c-12.024,1.745-23.402,6.4-33.228,13.511v-29.931c0-19.006,4.008-37.624,11.572-54.885
			l5.689,5.948c10.02,7.046,15.903,0.646,17.519-2.521c19.911-38.4,59.281-62.384,102.465-62.384
			c43.184,0,82.554,23.855,102.465,62.384c6.465,9.374,15.127,5.107,17.519,2.521l5.689-5.948
			c7.499,17.261,11.572,35.879,11.572,54.885v29.931c-9.826-7.111-21.204-11.766-33.228-13.511v-0.905
			c0-6.012-4.848-10.925-10.925-10.925c-6.012,0-10.925,4.849-10.925,10.925v156.768c0,6.012,4.848,10.925,10.925,10.925
			c6.012,0,10.925-4.849,10.925-10.925v-1.034c17.067-2.457,32.776-10.667,44.606-23.596h12.606
			c19.329,0,35.103-15.774,35.103-35.103v-37.43C392.469,250.052,376.695,234.279,357.366,234.279z M61.156,251.992
			c7.951-9.956,18.877-16.679,30.966-19.265v110.804c-12.154-2.521-23.079-9.18-30.966-19.265c-2.069-2.651-5.172-4.073-8.598-4.073
			H35.038c-7.37,0-13.317-5.948-13.317-13.317v-37.495c0-7.37,5.947-13.317,13.317-13.317h17.648
			C55.984,256.065,59.152,254.578,61.156,251.992z M310.432,119.984c-25.341-38.012-67.814-61.091-114.23-61.091
			c-46.416,0-88.889,23.079-114.23,61.091l-15.386-16.097c29.931-42.02,77.705-66.844,129.616-66.844s99.685,24.824,129.616,66.844
			L310.432,119.984z M370.683,306.877c0,7.37-5.948,13.317-13.317,13.317h-17.648c-3.297,0-6.465,1.552-8.598,4.073
			c-7.952,9.956-18.877,16.679-30.966,19.265V232.727c12.154,2.521,23.079,9.18,30.966,19.265c2.069,2.651,5.172,4.073,8.598,4.073
			h17.648c7.37,0,13.317,5.947,13.317,13.317V306.877z"/>
	</g>
</g>
<g>
</g>
<g>
</g>
<g>
</g>
<g>
</g>
<g>
</g>
<g>
</g>
<g>
</g>
<g>
</g>
<g>
</g>
<g>
</g>
<g>
</g>
<g>
</g>
<g>
</g>
<g>
</g>
<g>
</g>
</svg>
