<?xml version="1.0" encoding="iso-8859-1"?>
<!-- Generator: Adobe Illustrator 19.0.0, SVG Export Plug-In . SVG Version: 6.00 Build 0)  -->
<svg version="1.1" id="Layer_1" xmlns="http://www.w3.org/2000/svg" xmlns:xlink="http://www.w3.org/1999/xlink" x="0px" y="0px"
	 viewBox="0 0 508.1 508.1" style="enable-background:new 0 0 508.1 508.1;" xml:space="preserve">
<g>
	<g>
		<path d="M84.3,311.55c-23.3,0-42.3,19-42.3,42.3s19,42.3,42.3,42.3c23.3,0,42.3-19,42.3-42.3S107.6,311.55,84.3,311.55z
			 M84.3,367.95c-7.8,0-14.1-6.3-14.1-14.1c0-7.8,6.4-14.1,14.1-14.1c7.8,0,14.1,6.3,14.1,14.1S92.1,367.95,84.3,367.95z"/>
	</g>
</g>
<g>
	<g>
		<path d="M224.9,311.55c-23.3,0-42.3,19-42.3,42.3c0,23.3,19,42.3,42.3,42.3s42.3-19,42.3-42.3S248.2,311.55,224.9,311.55z
			 M224.9,367.95c-7.8,0-14.1-6.3-14.1-14.1c0-7.8,6.3-14.1,14.1-14.1s14.1,6.3,14.1,14.1S232.7,367.95,224.9,367.95z"/>
	</g>
</g>
<g>
	<g>
		<path d="M224.9,409.65c-29.3,0-55.2,15.1-70.3,37.9c-15.1-22.8-40.9-37.9-70.3-37.9c-46.5,0-84.3,37.8-84.3,84.3
			c0,7.8,6.3,14.1,14.1,14.1h140.4c0.1,0,0.1,0,0.1,0H295c7.8,0,14.1-6.3,14.1-14.1C309.2,447.45,271.4,409.65,224.9,409.65z
			 M30,479.85c6.3-24.1,28.2-42,54.3-42c26.1,0,48,17.9,54.3,42H30z M170.6,479.85c6.3-24.1,28.2-42,54.3-42c26.1,0,48,17.9,54.3,42
			H170.6z"/>
	</g>
</g>
<g>
	<g>
		<path d="M493.9,183.25h-24.3v-24.1c0-21-13.2-40-32.9-47.2c-32.5-11.9-68.7-11.9-101.1,0c-19.6,7.1-32.8,26.1-32.8,47.1v24.1
			h-24.3c-7.8,0-14.1,6.3-14.1,14.1s6.3,14.1,14.1,14.1h4.6l37.5,156.1h-1.9c-7.8,0-14.1,6.3-14.1,14.1s6.3,14.1,14.1,14.1h135.1
			c7.8,0,14.1-6.3,14.1-14.1c0-7.8-6.3-14.1-14.1-14.1h-1.9l37.5-156.1h4.6c7.8,0,14.1-6.3,14.1-14.1S501.7,183.25,493.9,183.25z
			 M331,159.05c0-9.3,5.8-17.6,14.4-20.7c26.2-9.6,55.4-9.6,81.7,0c8.6,3.2,14.4,11.5,14.4,20.7v24.1H331V159.05z M422.8,367.55
			h-73.2L312,211.45h148.2L422.8,367.55z"/>
	</g>
</g>
<g>
	<g>
		<path d="M386.2,0.05c-26.2,0-47.4,21.3-47.4,47.4c0,26.1,21.2,47.5,47.4,47.5c26.1,0,47.4-21.3,47.4-47.4
			C433.6,21.45,412.3,0.05,386.2,0.05z M386.2,66.65c-10.6,0-19.2-8.6-19.2-19.2c0-10.6,8.6-19.2,19.2-19.2
			c10.6,0,19.2,8.6,19.2,19.2C405.4,58.05,396.8,66.65,386.2,66.65z"/>
	</g>
</g>
<g>
</g>
<g>
</g>
<g>
</g>
<g>
</g>
<g>
</g>
<g>
</g>
<g>
</g>
<g>
</g>
<g>
</g>
<g>
</g>
<g>
</g>
<g>
</g>
<g>
</g>
<g>
</g>
<g>
</g>
</svg>
