<?xml version="1.0" encoding="iso-8859-1"?>
<!-- Generator: Adobe Illustrator 19.0.0, SVG Export Plug-In . SVG Version: 6.00 Build 0)  -->
<svg version="1.1" id="Layer_1" xmlns="http://www.w3.org/2000/svg" xmlns:xlink="http://www.w3.org/1999/xlink" x="0px" y="0px"
	 viewBox="0 0 507.9 507.9" style="enable-background:new 0 0 507.9 507.9;" xml:space="preserve">
<g>
	<g>
		<path d="M465.7,140.75H268.1v-77.3c0-7.8-6.3-14.1-14.1-14.1c-7.8,0-14.1,6.3-14.1,14.1v77.3H42.3c-23.3,0-42.3,19-42.3,42.3
			v233.2c0,23.3,19,42.3,42.3,42.3h423.3c23.3,0,42.3-19,42.3-42.3v-233.2C508,159.75,489,140.75,465.7,140.75z M465.7,430.35H42.3
			c-7.8,0-14.1-6.3-14.1-14.1v-233.2c0-7.8,6.3-14.1,14.1-14.1h423.3c7.8,0,14.1,6.3,14.1,14.1v233.2h0.1
			C479.8,424.05,473.5,430.35,465.7,430.35z"/>
	</g>
</g>
<g>
	<g>
		<path d="M440.6,194.05h-85.4c-7.8,0-14.1,6.3-14.1,14.1s6.3,14.1,14.1,14.1h85.4c7.8,0,14.1-6.3,14.1-14.1
			C454.7,200.35,448.4,194.05,440.6,194.05z"/>
	</g>
</g>
<g>
	<g>
		<path d="M80.9,377.05H67.4c-7.8,0-14.1,6.3-14.1,14.1c0,7.8,6.3,14.1,14.1,14.1h13.5c7.8,0,14.1-6.3,14.1-14.1
			C95,383.35,88.7,377.05,80.9,377.05z"/>
	</g>
</g>
<g>
	<g>
		<path d="M303.3,377.05H141.6c-7.8,0-14.1,6.3-14.1,14.1c0,7.8,6.3,14.1,14.1,14.1h161.8c7.8,0,14.1-6.3,14.1-14.1
			C317.5,383.35,311.1,377.05,303.3,377.05z"/>
	</g>
</g>
<g>
	<g>
		<path d="M80.9,255.05H67.4c-7.8,0-14.1,6.3-14.1,14.1c0,7.8,6.3,14.1,14.1,14.1h13.5c7.8,0,14.1-6.3,14.1-14.1
			C95.1,261.35,88.7,255.05,80.9,255.05z"/>
	</g>
</g>
<g>
	<g>
		<path d="M152.8,255.05h-13.5c-7.8,0-14.1,6.3-14.1,14.1c0,7.8,6.4,14.1,14.1,14.1h13.5c7.8,0,14.1-6.3,14.1-14.1
			C166.9,261.35,160.6,255.05,152.8,255.05z"/>
	</g>
</g>
<g>
	<g>
		<path d="M224.8,255.05h-13.5c-7.8,0-14.1,6.3-14.1,14.1c0,7.8,6.3,14.1,14.1,14.1h13.5c7.8,0,14.1-6.3,14.1-14.1
			C238.9,261.35,232.6,255.05,224.8,255.05z"/>
	</g>
</g>
<g>
	<g>
		<path d="M296.7,255.05h-13.5c-7.8,0-14.1,6.3-14.1,14.1c0,7.8,6.3,14.1,14.1,14.1h13.5c7.8,0,14.1-6.3,14.1-14.1
			C310.8,261.35,304.5,255.05,296.7,255.05z"/>
	</g>
</g>
<g>
	<g>
		<path d="M80.9,194.05H67.4c-7.8,0-14.1,6.3-14.1,14.1s6.3,14.1,14.1,14.1h13.5c7.8,0,14.1-6.3,14.1-14.1
			C95.1,200.35,88.7,194.05,80.9,194.05z"/>
	</g>
</g>
<g>
	<g>
		<path d="M152.8,194.05h-13.5c-7.8,0-14.1,6.3-14.1,14.1c0,7.8,6.4,14.1,14.1,14.1h13.5c7.8,0,14.1-6.3,14.1-14.1
			C166.9,200.35,160.6,194.05,152.8,194.05z"/>
	</g>
</g>
<g>
	<g>
		<path d="M224.8,194.05h-13.5c-7.8,0-14.1,6.3-14.1,14.1c0,7.8,6.3,14.1,14.1,14.1h13.5c7.8,0,14.1-6.3,14.1-14.1
			C238.9,200.35,232.6,194.05,224.8,194.05z"/>
	</g>
</g>
<g>
	<g>
		<path d="M296.7,194.05h-13.5c-7.8,0-14.1,6.3-14.1,14.1c0,7.8,6.3,14.1,14.1,14.1h13.5c7.8,0,14.1-6.3,14.1-14.1
			C310.8,200.35,304.5,194.05,296.7,194.05z"/>
	</g>
</g>
<g>
	<g>
		<path d="M368.7,255.05h-13.5c-7.8,0-14.1,6.3-14.1,14.1c0,7.8,6.3,14.1,14.1,14.1h13.5c7.8,0,14.1-6.3,14.1-14.1
			C382.8,261.35,376.4,255.05,368.7,255.05z"/>
	</g>
</g>
<g>
	<g>
		<path d="M440.6,255.05h-13.5c-7.8,0-14.1,6.3-14.1,14.1c0,7.8,6.3,14.1,14.1,14.1h13.5c7.8,0,14.1-6.3,14.1-14.1
			C454.7,261.35,448.4,255.05,440.6,255.05z"/>
	</g>
</g>
<g>
	<g>
		<path d="M368.7,316.05h-13.5c-7.8,0-14.1,6.3-14.1,14.1c0,7.8,6.3,14.1,14.1,14.1h13.5c7.8,0,14.1-6.3,14.1-14.1
			C382.8,322.35,376.4,316.05,368.7,316.05z"/>
	</g>
</g>
<g>
	<g>
		<path d="M440.6,316.05h-13.5c-7.8,0-14.1,6.3-14.1,14.1c0,7.8,6.3,14.1,14.1,14.1h13.5c7.8,0,14.1-6.3,14.1-14.1
			C454.7,322.35,448.4,316.05,440.6,316.05z"/>
	</g>
</g>
<g>
	<g>
		<path d="M368.7,377.05h-13.5c-7.8,0-14.1,6.3-14.1,14.1c0,7.8,6.3,14.1,14.1,14.1h13.5c7.8,0,14.1-6.3,14.1-14.1
			C382.8,383.35,376.4,377.05,368.7,377.05z"/>
	</g>
</g>
<g>
	<g>
		<path d="M440.6,377.05h-13.5c-7.8,0-14.1,6.3-14.1,14.1c0,7.8,6.3,14.1,14.1,14.1h13.5c7.8,0,14.1-6.3,14.1-14.1
			C454.7,383.35,448.4,377.05,440.6,377.05z"/>
	</g>
</g>
<g>
	<g>
		<path d="M80.9,316.05H67.4c-7.8,0-14.1,6.3-14.1,14.1c0,7.8,6.3,14.1,14.1,14.1h13.5c7.8,0,14.1-6.3,14.1-14.1
			C95.1,322.35,88.7,316.05,80.9,316.05z"/>
	</g>
</g>
<g>
	<g>
		<path d="M152.8,316.05h-13.5c-7.8,0-14.1,6.3-14.1,14.1c0,7.8,6.4,14.1,14.1,14.1h13.5c7.8,0,14.1-6.3,14.1-14.1
			C166.9,322.35,160.6,316.05,152.8,316.05z"/>
	</g>
</g>
<g>
	<g>
		<path d="M224.8,316.05h-13.5c-7.8,0-14.1,6.3-14.1,14.1c0,7.8,6.3,14.1,14.1,14.1h13.5c7.8,0,14.1-6.3,14.1-14.1
			C238.9,322.35,232.6,316.05,224.8,316.05z"/>
	</g>
</g>
<g>
	<g>
		<path d="M296.7,316.05h-13.5c-7.8,0-14.1,6.3-14.1,14.1c0,7.8,6.3,14.1,14.1,14.1h13.5c7.8,0,14.1-6.3,14.1-14.1
			C310.8,322.35,304.5,316.05,296.7,316.05z"/>
	</g>
</g>
<g>
</g>
<g>
</g>
<g>
</g>
<g>
</g>
<g>
</g>
<g>
</g>
<g>
</g>
<g>
</g>
<g>
</g>
<g>
</g>
<g>
</g>
<g>
</g>
<g>
</g>
<g>
</g>
<g>
</g>
</svg>
