<?xml version="1.0" encoding="iso-8859-1"?>
<!-- Generator: Adobe Illustrator 19.0.0, SVG Export Plug-In . SVG Version: 6.00 Build 0)  -->
<svg version="1.1" id="Layer_1" xmlns="http://www.w3.org/2000/svg" xmlns:xlink="http://www.w3.org/1999/xlink" x="0px" y="0px"
	 viewBox="0 0 508.054 508.054" style="enable-background:new 0 0 508.054 508.054;" xml:space="preserve">
<g>
	<g>
		<path d="M508.054,238.012c0-73.5-42.9-215-205.8-235.9c-72.8-9.4-143,13.5-195,62.4c-32.2-11.2-67.1,3.4-81.9,18.2
			c-28.6,28.7-33.2,76.7-12.8,135.4c19.2,55.3,58.5,114.4,110.8,166.6c76,76,165.2,123.3,232.9,123.3c28.6,0,52.5-8.8,69.1-25.3
			c22.1-22.1,28.1-54.2,18.2-81.8C485.154,356.613,508.054,299.113,508.054,238.012z M405.354,462.813
			c-11.3,11.3-27.9,17.1-49.1,17.1c-59.6,0-143.2-45.1-213-115c-49.2-49.3-86.2-104.7-104-156c-16.4-47.2-14.1-85.9,6.1-106.2
			c9.4-9.4,43.6-27,70.7,0c0,0,40.1,28.7,40.1,60.8c0,28.5-28.7,49.4-28.7,49.4c-13.6,13.6-16.1,35.5-7,61.6
			c7.9,22.7,23.9,46.9,45.1,68.1c31.1,31.2,68.2,50.5,96.7,50.5c29.4,0,47-26.5,47-26.5c9.4-9.4,22-14.6,35.3-14.6
			c31.8,0,60.8,40.1,60.8,40.1C424.854,411.613,424.854,443.313,405.354,462.813z M399.954,346.712c-14.8-14.8-34.4-22.9-55.3-22.9
			c-20.9,0-40.5,8.1-55.3,22.9c0,0-14.1,18.2-27.1,18.2c-17.2,0-47.6-13.1-76.8-42.2c-18-18-32-38.9-38.4-57.4
			c-5.2-14.9-5-27,0.3-32.4c0,0,37-30.8,37-69.4c0-20.9-8.2-40.5-22.9-55.3c0,0-27.7-27.5-28.8-28.5c38.1-33.2,86.4-51.4,137.4-51.4
			c65.3,0,185.3,42.3,207.4,178c10.2,62.4-9,123.3-49.1,169.3C427.454,374.413,399.954,346.712,399.954,346.712z"/>
	</g>
</g>
<g>
	<g>
		<path d="M300.354,236.613h-41.1l32.6-33.1c0.3-0.3,0.6-0.7,0.9-1.1c5.3-6.9,8.1-15.2,8.1-24c0-21.8-17.8-39.6-39.6-39.6
			c-21.8,0-39.6,17.8-39.6,39.6c0,6.1,5,11.1,11.1,11.1c6.1,0,11.1-5,11.1-11.1c0-9.6,7.8-17.4,17.4-17.4c9.6,0,17.4,7.8,17.4,17.4
			c0,3.6-1.1,7.1-3.2,10l-50.6,51.5c-3.1,3.2-4.1,7.9-2.3,12.1c1.7,4.1,5.8,6.8,10.2,6.8h67.5c6.1,0,11.1-5,11.1-11.1
			C311.454,241.613,306.554,236.613,300.354,236.613z"/>
	</g>
</g>
<g>
	<g>
		<path d="M405.554,208.913h-7.7v-58.9c0-4.7-2.9-8.8-7.3-10.4c-4.4-1.6-9.3-0.3-12.3,3.3l-58.2,70c-2.8,3.3-3.3,7.9-1.5,11.8
			c1.8,3.9,5.7,6.4,10,6.4h47.1v16.7c0,6.1,5,11.1,11.1,11.1c6.1,0,11.1-5,11.1-11.1v-16.7h7.7c6.1,0,11.1-5,11.1-11.1
			C416.654,213.813,411.654,208.913,405.554,208.913z M375.654,208.913h-23.5l23.5-28.2V208.913z"/>
	</g>
</g>
<g>
</g>
<g>
</g>
<g>
</g>
<g>
</g>
<g>
</g>
<g>
</g>
<g>
</g>
<g>
</g>
<g>
</g>
<g>
</g>
<g>
</g>
<g>
</g>
<g>
</g>
<g>
</g>
<g>
</g>
</svg>
