<?xml version="1.0" encoding="iso-8859-1"?>
<!-- Generator: Adobe Illustrator 19.0.0, SVG Export Plug-In . SVG Version: 6.00 Build 0)  -->
<svg version="1.1" id="Layer_1" xmlns="http://www.w3.org/2000/svg" xmlns:xlink="http://www.w3.org/1999/xlink" x="0px" y="0px"
	 viewBox="0 0 507.9 507.9" style="enable-background:new 0 0 507.9 507.9;" xml:space="preserve">
<g>
	<g>
		<path d="M447.449,0h-193.5h-193.5c-7.8,0-14.1,6.3-14.1,14.1v465.1c0,7.8,6.3,14.1,14.1,14.1h40.6v0.5c0,7.8,6.3,14.1,14.1,14.1
			s14.1-6.3,14.1-14.1v-0.5h124.7h124.7v0.5c0,7.8,6.3,14.1,14.1,14.1c7.8,0,14.1-6.3,14.1-14.1v-0.5h40.6c7.8,0,14.1-6.3,14.1-14.1
			V14.1C461.649,6.3,455.249,0,447.449,0z M239.849,465.1h-165.3V28.2h165.3V465.1z M433.349,465.1h-165.3V28.2h165.3V465.1z"/>
	</g>
</g>
<g>
	<g>
		<path d="M310.349,210.3c-7.8,0-14.1,6.3-14.1,14.1V269c0,7.8,6.3,14.1,14.1,14.1s14.1-6.3,14.1-14.1v-44.6
			C324.449,216.6,318.149,210.3,310.349,210.3z"/>
	</g>
</g>
<g>
	<g>
		<path d="M197.549,210.3c-7.8,0-14.1,6.3-14.1,14.1V269c-0.1,7.8,6.3,14.1,14.1,14.1c7.8,0,14.1-6.3,14.1-14.1v-44.6
			C211.649,216.6,205.349,210.3,197.549,210.3z"/>
	</g>
</g>
<g>
</g>
<g>
</g>
<g>
</g>
<g>
</g>
<g>
</g>
<g>
</g>
<g>
</g>
<g>
</g>
<g>
</g>
<g>
</g>
<g>
</g>
<g>
</g>
<g>
</g>
<g>
</g>
<g>
</g>
</svg>
