<?xml version="1.0" encoding="iso-8859-1"?>
<!-- Generator: Adobe Illustrator 19.0.0, SVG Export Plug-In . SVG Version: 6.00 Build 0)  -->
<svg version="1.1" id="Layer_1" xmlns="http://www.w3.org/2000/svg" xmlns:xlink="http://www.w3.org/1999/xlink" x="0px" y="0px"
	 viewBox="0 0 508 508" style="enable-background:new 0 0 508 508;" xml:space="preserve">
<g>
	<g>
		<path d="M433,78.7h-29V14.1C404,6.3,397.6,0,389.9,0H118.1C110.3,0,104,6.3,104,14.1v64.6H74.9C33.6,78.7,0,112.3,0,153.6V290
			c0,41.3,33.6,74.9,74.9,74.9H104v129c0,7.8,6.3,14.1,14.1,14.1h271.7c7.8,0,14.1-6.3,14.1-14.1v-129H433c41.3,0,75-33.6,75-74.9
			V153.6C508,112.3,474.4,78.7,433,78.7z M132.3,28.2h243.5v50.5H132.3V28.2z M152.2,479.8l54.6-54.6l54.6,54.6H152.2z M375.7,479.8
			h-74.4l-20.7-20.7l51.3-51.3l43.8,43.8V479.8z M375.7,411.7l-33.8-33.8c-5.5-5.5-14.4-5.5-20,0l-61.2,61.2l-43.9-43.9
			c-5.5-5.5-14.4-5.5-20,0l-64.6,64.6V312.3h243.5V411.7z M433.1,336.6H404v-24.3h7.4c7.8,0,14.1-6.3,14.1-14.1s-6.3-14.1-14.1-14.1
			H96.8c-7.8,0-14.1,6.3-14.1,14.1c0,7.8,6.3,14.1,14.1,14.1h7.3v24.3H74.9c-25.8,0-46.7-20.9-46.7-46.6V153.6
			c0-25.7,21-46.6,46.7-46.6H118h0.1h271.7h0.1H433c25.8,0,46.7,20.9,46.7,46.6V290h0.1C479.8,315.7,458.8,336.6,433.1,336.6z"/>
	</g>
</g>
<g>
	<g>
		<path d="M440.6,131.9c-7.8,0-14.1,6.3-14.1,14.1v3.8c0,7.8,6.3,14.1,14.1,14.1c7.8,0,14.1-6.3,14.1-14.1V146
			C454.7,138.3,448.4,131.9,440.6,131.9z"/>
	</g>
</g>
<g>
	<g>
		<path d="M440.6,188.8c-7.8,0-14.1,6.3-14.1,14.1v3.8c0,7.8,6.3,14.1,14.1,14.1c7.8,0,14.1-6.3,14.1-14.1v-3.8
			C454.7,195.1,448.4,188.8,440.6,188.8z"/>
	</g>
</g>
<g>
	<g>
		<circle cx="260.7" cy="353.2" r="14.1"/>
	</g>
</g>
<g>
</g>
<g>
</g>
<g>
</g>
<g>
</g>
<g>
</g>
<g>
</g>
<g>
</g>
<g>
</g>
<g>
</g>
<g>
</g>
<g>
</g>
<g>
</g>
<g>
</g>
<g>
</g>
<g>
</g>
</svg>
