<?xml version="1.0" encoding="iso-8859-1"?>
<!-- Generator: Adobe Illustrator 19.0.0, SVG Export Plug-In . SVG Version: 6.00 Build 0)  -->
<svg version="1.1" id="Layer_1" xmlns="http://www.w3.org/2000/svg" xmlns:xlink="http://www.w3.org/1999/xlink" x="0px" y="0px"
	 viewBox="0 0 508.1 508.1" style="enable-background:new 0 0 508.1 508.1;" xml:space="preserve">
<g>
	<g>
		<path d="M451.6,53.3H56.4C25.3,53.3,0,78.7,0,109.8v270.3c0,28.9,21.8,52.7,49.9,56v4.6c0,7.8,6.3,14.1,14.1,14.1
			s14.1-6.3,14.1-14.1v-4.2H430v4.2c0,7.8,6.3,14.1,14.1,14.1c7.8,0,14.1-6.3,14.1-14.1v-4.6c28-3.3,49.9-27.1,49.9-56V109.8
			C508,78.7,482.7,53.3,451.6,53.3z M451.6,408.3H56.4c-15.6,0-28.2-12.7-28.2-28.2V109.8c0-15.6,12.7-28.2,28.2-28.2h395.1
			c15.6,0,28.2,12.7,28.2,28.2v270.3h0.1C479.8,395.7,467.1,408.3,451.6,408.3z"/>
	</g>
</g>
<g>
	<g>
		<path d="M324.6,109.8h-254c-7.8,0-14.1,6.3-14.1,14.1V366c0,7.8,6.3,14.1,14.1,14.1h254c7.8,0,14.1-6.3,14.1-14.1V123.9
			C338.7,116.1,332.3,109.8,324.6,109.8z M310.5,351.9h-0.1H84.7V138h225.8V351.9z"/>
	</g>
</g>
<g>
	<g>
		<path d="M409.2,139.1c-23.3,0-42.3,19-42.3,42.3s19,42.3,42.3,42.3s42.3-19,42.3-42.3C451.6,158.1,432.6,139.1,409.2,139.1z
			 M409.2,195.6c-7.8,0-14.1-6.3-14.1-14.1c0-7.8,6.3-14.1,14.1-14.1s14.1,6.3,14.1,14.1C423.3,189.2,417,195.6,409.2,195.6z"/>
	</g>
</g>
<g>
	<g>
		<path d="M409.2,252c-7.8,0-14.1,6.3-14.1,14.1v9.4c0,7.8,6.3,14.1,14.1,14.1s14.1-6.3,14.1-14.1v-9.4
			C423.3,258.3,417,252,409.2,252z"/>
	</g>
</g>
<g>
	<g>
		<path d="M409.2,313.1c-7.8,0-14.1,6.3-14.1,14.1v9.4c0,7.8,6.3,14.1,14.1,14.1s14.1-6.3,14.1-14.1v-9.4
			C423.3,319.5,417,313.1,409.2,313.1z"/>
	</g>
</g>
<g>
	<g>
		<path d="M141.1,199.7c-7.8,0-14.1,6.3-14.1,14.1V262c0,7.8,6.3,14.1,14.1,14.1c7.8,0,14.1-6.3,14.1-14.1v-48.2
			C155.2,206,148.9,199.7,141.1,199.7z"/>
	</g>
</g>
<g>
	<g>
		<path d="M197.6,171.5c-7.8,0-14.1,6.3-14.1,14.1v48.2c-0.1,7.8,6.3,14.1,14.1,14.1c7.8,0,14.1-6.3,14.1-14.1v-48.2
			C211.7,177.8,205.4,171.5,197.6,171.5z"/>
	</g>
</g>
<g>
	<g>
		<path d="M254,199.7c-7.8,0-14.1,6.3-14.1,14.1V262c0,7.8,6.3,14.1,14.1,14.1s14.1-6.3,14.1-14.1v-48.2
			C268.1,206,261.8,199.7,254,199.7z"/>
	</g>
</g>
<g>
</g>
<g>
</g>
<g>
</g>
<g>
</g>
<g>
</g>
<g>
</g>
<g>
</g>
<g>
</g>
<g>
</g>
<g>
</g>
<g>
</g>
<g>
</g>
<g>
</g>
<g>
</g>
<g>
</g>
</svg>
