<?xml version="1.0" encoding="iso-8859-1"?>
<!-- Generator: Adobe Illustrator 19.0.0, SVG Export Plug-In . SVG Version: 6.00 Build 0)  -->
<svg version="1.1" id="Layer_1" xmlns="http://www.w3.org/2000/svg" xmlns:xlink="http://www.w3.org/1999/xlink" x="0px" y="0px"
	 viewBox="0 0 508.038 508.038" style="enable-background:new 0 0 508.038 508.038;" xml:space="preserve">
<g>
	<g>
		<path d="M503.9,157.938l-144-143.5c-19.3-19.2-50.7-19.3-70,0c-16.4,16.4-20.7,49.2,0,69.9l42.5,42.4c13.3,13.3,4,25.9,0,29.9
			l-14,14c-25.5-20.8-58-32.6-91.1-32.6c-30.9,0-60.2,9.8-84.6,28.4c-14.7,11.2-29,23.6-42.5,37.1C38.4,265.138,0,341.738,0,403.438
			c0,31.3,9.8,57.7,28.5,76.2c18.6,18.6,45,28.4,76.4,28.4c61.8,0,138.7-38.3,200.5-99.9c13.4-13.4,26-27.6,37.2-42.3
			c39.7-51.9,37.2-124.9-4.2-175.2l14-13.9c9.4-9.3,30.3-39.6,0-69.9l-42.5-42.4c-8.3-8.3-7.6-22.3,0-29.9c8.3-8.3,21.8-8.3,30.2,0
			l143.9,143.5c5.5,5.5,14.5,5.5,20,0C509.4,172.338,509.4,163.438,503.9,157.938z M285.5,388.138c-56.8,56.5-126,91.7-180.6,91.7
			c-24.1,0-43.1-6.8-56.5-20.1c-13.4-13.3-20.2-32.3-20.2-56.2c0-54.5,35.2-123.4,92-180c5.7-5.7,11.6-11.2,17.7-16.5
			c34.4,72,91.8,129.3,164.1,163.6C296.7,376.638,291.2,382.438,285.5,388.138z M320.6,348.038c-31.4-14.1-59.9-32.7-84.7-55.3
			l22.5-22.4c5.5-5.5,5.5-14.4,0-20c-5.5-5.5-14.4-5.5-20,0l-22.4,22.5c-22.7-24.7-41.4-53.1-55.5-84.4
			c19.3-14.5,42.4-22.1,66.9-22.1c30.3,0,60.1,12.3,81.6,33.8C349.2,240.138,354.1,303.538,320.6,348.038z"/>
	</g>
</g>
<g>
</g>
<g>
</g>
<g>
</g>
<g>
</g>
<g>
</g>
<g>
</g>
<g>
</g>
<g>
</g>
<g>
</g>
<g>
</g>
<g>
</g>
<g>
</g>
<g>
</g>
<g>
</g>
<g>
</g>
</svg>
