<?xml version="1.0" encoding="iso-8859-1"?>
<!-- Generator: Adobe Illustrator 19.0.0, SVG Export Plug-In . SVG Version: 6.00 Build 0)  -->
<svg version="1.1" id="Layer_1" xmlns="http://www.w3.org/2000/svg" xmlns:xlink="http://www.w3.org/1999/xlink" x="0px" y="0px"
	 viewBox="0 0 508.05 508.05" style="enable-background:new 0 0 508.05 508.05;" xml:space="preserve">
<g>
	<g>
		<path d="M483.871,25.696c-48.1-47.9-111.7-17.2-129,0l-81.1,80.8c-16.1,16-42.8,73.3-8.4,118.8l-39.8,39.7
			c-46.6-35.5-103.2-7.7-119.3,8.4l-81.1,80.6c-17.2,17.1-46.8,81.8,0,128.4c48,47.8,111.7,17.2,129,0l81.1-80.7
			c15.6-15.7,39.5-72.8,9.8-116.3l40.8-40.6c46.1,32.7,101,5.7,116.9-10l81.1-80.7C501.071,136.896,528.371,69.896,483.871,25.696z
			 M215.171,381.496l-81.2,80.9c-11.9,11.8-55.1,33.5-88.7,0c-33.2-33.1-11.8-76.6,0-88.4l81.1-80.8c10.7-10.7,46.7-29.7,78.8-8.1
			l-33.4,33.3c-5.6,5.5-5.6,14.5,0,20c4.7,4.7,14.5,5.6,20.1,0l33.1-32.9C244.471,336.996,225.671,371.096,215.171,381.496z
			 M463.671,133.996l-81.1,80.7c-10.4,10.4-45.2,28.4-76.3,9.7l26.3-26.2c5.6-5.5,5.6-14.5,0-20c-5.5-5.5-14.6-5.5-20.1,0
			l-26.7,26.6c-20.9-31.3-2.6-67.7,8.1-78.4l81.1-80.8c11.9-11.8,54.6-34,88.7,0C498.271,79.996,475.471,122.196,463.671,133.996z"
			/>
	</g>
</g>
<g>
</g>
<g>
</g>
<g>
</g>
<g>
</g>
<g>
</g>
<g>
</g>
<g>
</g>
<g>
</g>
<g>
</g>
<g>
</g>
<g>
</g>
<g>
</g>
<g>
</g>
<g>
</g>
<g>
</g>
</svg>
