<?xml version="1.0" encoding="iso-8859-1"?>
<!-- Generator: Adobe Illustrator 19.0.0, SVG Export Plug-In . SVG Version: 6.00 Build 0)  -->
<svg version="1.1" id="Layer_1" xmlns="http://www.w3.org/2000/svg" xmlns:xlink="http://www.w3.org/1999/xlink" x="0px" y="0px"
	 viewBox="0 0 508 508" style="enable-background:new 0 0 508 508;" xml:space="preserve">
<g>
	<g>
		<path d="M345.1,139.9H162.8c-7.8,0-14.1,6.3-14.1,14.1c0,7.7,6.3,14.1,14.1,14.1h182.3c7.8,0,14.1-6.3,14.1-14.1
			S352.9,139.9,345.1,139.9z"/>
	</g>
</g>
<g>
	<g>
		<path d="M345.1,196.3H162.8c-7.8,0-14.1,6.3-14.1,14.1c0,7.8,6.3,14.1,14.1,14.1h182.3c7.8,0,14.1-6.3,14.1-14.1
			C359.2,202.6,352.9,196.3,345.1,196.3z"/>
	</g>
</g>
<g>
	<g>
		<path d="M345.1,252.7H162.8c-7.8,0-14.1,6.3-14.1,14.1c0,7.8,6.3,14.1,14.1,14.1h182.3c7.8,0,14.1-6.3,14.1-14.1
			S352.9,252.7,345.1,252.7z"/>
	</g>
</g>
<g>
	<g>
		<path d="M345.1,309.2H162.8c-7.8,0-14.1,6.3-14.1,14.1c0,7.8,6.3,14.1,14.1,14.1h182.3c7.8,0,14.1-6.3,14.1-14.1
			S352.9,309.2,345.1,309.2z"/>
	</g>
</g>
<g>
	<g>
		<path d="M432.2,0H75.8C68,0,61.7,6.3,61.7,14.1V94c0,7.8,6.3,14.1,14.1,14.1h16.5v385.8c0,7.8,6.3,14.1,14.1,14.1h295.2
			c7.8,0,14.1-6.3,14.1-14.1V108.1h16.5c7.8,0,14.1-6.3,14.1-14.1V14.1C446.3,6.3,440,0,432.2,0z M282.3,479.8h-56.5V402h56.5V479.8
			z M387.5,479.8h-77v-91.9c0-7.8-6.3-14.1-14.1-14.1h-84.8c-7.8,0-14.1,6.3-14.1,14.1v91.9h-77V108.1h267V479.8z M418.1,79.9H89.9
			V28.2h328.2V79.9z"/>
	</g>
</g>
<g>
</g>
<g>
</g>
<g>
</g>
<g>
</g>
<g>
</g>
<g>
</g>
<g>
</g>
<g>
</g>
<g>
</g>
<g>
</g>
<g>
</g>
<g>
</g>
<g>
</g>
<g>
</g>
<g>
</g>
</svg>
