<?xml version="1.0" encoding="iso-8859-1"?>
<!-- Generator: Adobe Illustrator 19.0.0, SVG Export Plug-In . SVG Version: 6.00 Build 0)  -->
<svg version="1.1" id="Layer_1" xmlns="http://www.w3.org/2000/svg" xmlns:xlink="http://www.w3.org/1999/xlink" x="0px" y="0px"
	 viewBox="0 0 392.76 392.76" style="enable-background:new 0 0 392.76 392.76;" xml:space="preserve">
<g>
	<g>
		<path d="M348.016,34.166L262.553,0.808c-2.715-1.099-9.826-2.457-14.158,6.206l-59.345,151.79h-10.343l-41.051-98.909
			c-0.776-1.875-2.004-3.426-3.556-4.59L77.664,13.414c-3.103-2.327-13.576-5.366-17.325,7.176L50.125,90.15
			c-0.323,1.939-0.065,3.943,0.711,5.818l26.117,62.901H48.767c-6.012,0-10.925,4.849-10.925,10.925
			c0,5.624,4.331,10.279,9.891,10.796l38.012,203.313c0.905,5.172,5.495,8.857,10.731,8.857h193.099
			c5.236,0,9.762-3.685,10.731-8.857l38.012-203.313c5.56-0.517,9.891-5.107,9.891-10.796c0-6.012-4.848-10.925-10.925-10.925
			h-26.182l43.184-110.352C355.321,45.608,356.096,37.722,348.016,34.166z M79.345,41.665l26.376,19.523l-31.16,12.929
			L79.345,41.665z M75.207,97.455l46.61-19.329l33.358,80.549h-54.562L75.207,97.455z M316.016,180.526L280.46,370.78H105.462
			L69.906,180.526H316.016z M287.571,158.675h-75.055l5.624-14.545l18.101,7.046c5.818,1.681,11.572-0.388,14.158-6.206
			c2.392-5.495-0.517-11.895-6.206-14.158l-18.101-7.046l9.438-24.113l32.582,12.735c4.719,1.487,10.925,1.293,14.158-6.206
			c2.392-5.495-0.517-11.895-6.206-14.158l-32.582-12.735l9.438-24.113l18.036,7.046c3.943,1.164,10.796,1.939,14.158-6.206
			c2.263-5.56-0.517-11.895-6.206-14.158l-18.036-7.046l3.943-9.956l65.164,25.471L287.571,158.675z"/>
	</g>
</g>
<g>
</g>
<g>
</g>
<g>
</g>
<g>
</g>
<g>
</g>
<g>
</g>
<g>
</g>
<g>
</g>
<g>
</g>
<g>
</g>
<g>
</g>
<g>
</g>
<g>
</g>
<g>
</g>
<g>
</g>
</svg>
