<?xml version="1.0" encoding="iso-8859-1"?>
<!-- Generator: Adobe Illustrator 19.0.0, SVG Export Plug-In . SVG Version: 6.00 Build 0)  -->
<svg version="1.1" id="Layer_1" xmlns="http://www.w3.org/2000/svg" xmlns:xlink="http://www.w3.org/1999/xlink" x="0px" y="0px"
	 viewBox="0 0 508 508" style="enable-background:new 0 0 508 508;" xml:space="preserve">
<g>
	<g>
		<path d="M467.949,0h-385.4c-31.2,0-56.5,24.3-56.5,54.1v399.8c0,29.8,25.3,54.1,56.4,54.1h385.4c7.8,0,14.1-6.3,14.1-14.1V14.1
			C482.049,6.3,475.749,0,467.949,0z M106.649,479.8h-24.1c-15.6,0-28.2-11.6-28.2-25.9V54.1c0-14.3,12.7-25.9,28.2-25.9h24.1V479.8
			z M453.849,479.8h-319V28.2h319V479.8z"/>
	</g>
</g>
<g>
	<g>
		<path d="M348.549,244.1l-88.3-89.3c-4-4.1-10.1-5.3-15.4-3.1c-5.3,2.2-8.7,7.3-8.7,13.1v178.5c-0.1,5.7,3.4,10.9,8.7,13
			c1.7,0.7,9.2,2.3,15.4-3.1l88.3-89.3C353.949,258.4,353.949,249.6,348.549,244.1z M264.249,308.9V199.1l54.3,54.9L264.249,308.9z"
			/>
	</g>
</g>
<g>
</g>
<g>
</g>
<g>
</g>
<g>
</g>
<g>
</g>
<g>
</g>
<g>
</g>
<g>
</g>
<g>
</g>
<g>
</g>
<g>
</g>
<g>
</g>
<g>
</g>
<g>
</g>
<g>
</g>
</svg>
