<?xml version="1.0" encoding="iso-8859-1"?>
<!-- Generator: Adobe Illustrator 19.0.0, SVG Export Plug-In . SVG Version: 6.00 Build 0)  -->
<svg version="1.1" id="Layer_1" xmlns="http://www.w3.org/2000/svg" xmlns:xlink="http://www.w3.org/1999/xlink" x="0px" y="0px"
	 viewBox="0 0 508 508" style="enable-background:new 0 0 508 508;" xml:space="preserve">
<g>
	<g>
		<path d="M451.6,0H56.4C25.3,0,0,25.3,0,56.4v378.1c0,23.8,14.8,44.2,35.7,52.5v6.9c0,7.8,6.3,14.1,14.1,14.1s14.1-6.3,14.1-14.1
			V491H444v2.9c0,7.8,6.3,14.1,14.1,14.1c7.8,0,14.1-6.3,14.1-14.1V487c20.9-8.3,35.8-28.6,35.8-52.5V56.4C508,25.3,482.7,0,451.6,0
			z M28.2,152.9h25.1v176.6H28.2V152.9z M451.6,462.7H56.4c-15.6,0-28.2-12.7-28.2-28.2v-76.8h25.1V415c0,7.8,6.3,14.1,14.1,14.1
			h373.2c7.8,0,14.1-6.3,14.1-14.1V67.5c0-7.8-6.3-14.1-14.1-14.1H67.4c-7.8,0-14.1,6.3-14.1,14.1v57.3H28.2V56.4
			c0-15.6,12.7-28.2,28.2-28.2h395.1c15.6,0,28.2,12.7,28.2,28.2v378.1h0.1C479.8,450.1,467.1,462.7,451.6,462.7z M81.5,400.9V81.6
			h344.9v319.3H81.5z"/>
	</g>
</g>
<g>
	<g>
		<path d="M387.3,183.2c-7.8,0-14.1,6.3-14.1,14.1v87.9c0,7.8,6.3,14.1,14.1,14.1s14.1-6.3,14.1-14.1v-87.9
			C401.4,189.5,395.1,183.2,387.3,183.2z"/>
	</g>
</g>
<g>
	<g>
		<path d="M319.1,227.1h-21.8c-4.5-13.8-15.4-24.7-29.2-29.2v-21.8c0-7.8-6.3-14.1-14.1-14.1c-7.8,0-14.1,6.3-14.1,14.1v21.8
			c-13.8,4.5-24.7,15.4-29.2,29.2h-21.8c-7.8,0-14.1,6.3-14.1,14.1s6.3,14.1,14.1,14.1h21.8c4.5,13.8,15.4,24.7,29.2,29.2v21.8
			c0,7.8,6.3,14.1,14.1,14.1s14.1-6.3,14.1-14.1v-21.8c13.8-4.5,24.7-15.4,29.2-29.2h21.8c7.8,0,14.1-6.3,14.1-14.1
			S326.9,227.1,319.1,227.1z M254,258.6c-9.6,0-17.3-7.8-17.3-17.4c0-9.6,7.7-17.3,17.3-17.4c0,0,0,0,0.1,0c0.1,0,0,0,0.1,0
			c9.5,0,17.3,7.8,17.3,17.4C271.3,250.8,263.6,258.6,254,258.6z"/>
	</g>
</g>
<g>
</g>
<g>
</g>
<g>
</g>
<g>
</g>
<g>
</g>
<g>
</g>
<g>
</g>
<g>
</g>
<g>
</g>
<g>
</g>
<g>
</g>
<g>
</g>
<g>
</g>
<g>
</g>
<g>
</g>
</svg>
