<?xml version="1.0" encoding="iso-8859-1"?>
<!-- Generator: Adobe Illustrator 19.0.0, SVG Export Plug-In . SVG Version: 6.00 Build 0)  -->
<svg version="1.1" id="Layer_1" xmlns="http://www.w3.org/2000/svg" xmlns:xlink="http://www.w3.org/1999/xlink" x="0px" y="0px"
	 viewBox="0 0 508.2 508.2" style="enable-background:new 0 0 508.2 508.2;" xml:space="preserve">
<g>
	<g>
		<path d="M498.4,153.923l-239.9-81.7c-2.9-1-6.1-1-9.1,0l-239.8,81.7c-5.7,1.9-9.6,7.3-9.6,13.4c0,6,3.8,11.4,9.6,13.4l76.5,26.1
			v215.8c0,4.8,2.4,9.2,6.4,11.8s9,3,13.4,1.2c47.1-20.4,96.9-30.7,148.2-30.7c51.3,0,101.1,10.3,148.2,30.7
			c1.8,0.8,8.6,1.8,13.4-1.2c4-2.5,6.4-7,6.4-11.8v-216l39.6-13.5v105.4c0,7.8,6.3,14.1,14.1,14.1s14.1-6.3,14.1-14.1v-115l8.7-2.9
			c5.7-1.9,9.6-7.3,9.6-13.4C508,161.223,504.2,155.823,498.4,153.923z M393.8,401.623h-0.1c-44.8-16.7-91.7-25.1-139.7-25.1
			s-94.9,8.4-139.7,25.1v-185.4l135.2,46c2.9,1,6.1,1,9.1,0l135.2-46V401.623z M254,234.023l-196.1-66.8l196.1-66.7l196.1,66.8
			L254,234.023z"/>
	</g>
</g>
<g>
</g>
<g>
</g>
<g>
</g>
<g>
</g>
<g>
</g>
<g>
</g>
<g>
</g>
<g>
</g>
<g>
</g>
<g>
</g>
<g>
</g>
<g>
</g>
<g>
</g>
<g>
</g>
<g>
</g>
</svg>
