<?xml version="1.0" encoding="iso-8859-1"?>
<!-- Generator: Adobe Illustrator 19.0.0, SVG Export Plug-In . SVG Version: 6.00 Build 0)  -->
<svg version="1.1" id="Layer_1" xmlns="http://www.w3.org/2000/svg" xmlns:xlink="http://www.w3.org/1999/xlink" x="0px" y="0px"
	 viewBox="0 0 507.9 507.9" style="enable-background:new 0 0 507.9 507.9;" xml:space="preserve">
<g>
	<g>
		<path d="M465.7,143.9H42.3C19,143.9,0,162.9,0,186.3v120.2c0,22.1,17,40.2,38.5,42.1v1.3c0,7.8,6.3,14.1,14.1,14.1
			c7.8,0,14.1-6.3,14.1-14.1v-1.1h374.5v1.1c0,7.8,6.3,14.1,14.1,14.1c7.8,0,14.1-6.3,14.1-14.1v-1.3c21.6-1.9,38.5-20.1,38.5-42.1
			V186.3C508,162.9,489,143.9,465.7,143.9z M42.3,320.6c-7.8,0-14.1-6.3-14.1-14.1V186.3c0-7.8,6.3-14.1,14.1-14.1h229.6
			c-19.7,18.7-32,45-32,74.2c0,29.2,12.4,55.6,32,74.2H42.3z M342.3,320.6c-40.9,0-74.2-33.3-74.2-74.2c0-40.9,33.3-74.2,74.2-74.2
			s74.2,33.3,74.2,74.2C416.6,287.3,383.3,320.6,342.3,320.6z M479.8,306.5c0,7.8-6.3,14.1-14.1,14.1h-52.9c19.7-18.7,32-45,32-74.2
			c0-29.2-12.4-55.5-32-74.2h52.9c7.8,0,14.1,6.3,14.1,14.1V306.5z"/>
	</g>
</g>
<g>
	<g>
		<path d="M177.6,259.8H67.4c-7.8,0-14.1,6.3-14.1,14.1S59.6,288,67.4,288h110.2c7.8,0,14.1-6.3,14.1-14.1
			C191.8,266.2,185.4,259.8,177.6,259.8z"/>
	</g>
</g>
<g>
	<g>
		<path d="M177.6,204.7H67.4c-7.8,0-14.1,6.3-14.1,14.1s6.3,14.1,14.1,14.1h110.2c7.8,0,14.1-6.3,14.1-14.1S185.4,204.7,177.6,204.7
			z"/>
	</g>
</g>
<g>
	<g>
		<path d="M342.3,197.2c-7.8,0-14.1,6.3-14.1,14.1s6.3,14.1,14.1,14.1c11.5,0,20.9,9.4,20.9,20.9c0,7.8,6.3,14.1,14.1,14.1
			s14.1-6.3,14.1-14.1C391.5,219.3,369.4,197.2,342.3,197.2z"/>
	</g>
</g>
<g>
</g>
<g>
</g>
<g>
</g>
<g>
</g>
<g>
</g>
<g>
</g>
<g>
</g>
<g>
</g>
<g>
</g>
<g>
</g>
<g>
</g>
<g>
</g>
<g>
</g>
<g>
</g>
<g>
</g>
</svg>
