<?xml version="1.0" encoding="iso-8859-1"?>
<!-- Generator: Adobe Illustrator 19.0.0, SVG Export Plug-In . SVG Version: 6.00 Build 0)  -->
<svg version="1.1" id="Layer_1" xmlns="http://www.w3.org/2000/svg" xmlns:xlink="http://www.w3.org/1999/xlink" x="0px" y="0px"
	 viewBox="0 0 507.9 507.9" style="enable-background:new 0 0 507.9 507.9;" xml:space="preserve">
<g>
	<g>
		<path d="M462.05,0H88.15c-31.1,0-56.4,25.3-56.4,56.4v395.1c0,31.1,25.3,56.4,56.4,56.4h373.9c7.8,0,14.1-6.3,14.1-14.1V14.1
			C476.15,6.3,469.85,0,462.05,0z M88.15,479.8c-15.6,0-28.2-12.7-28.2-28.2V56.4c0-15.6,12.7-28.2,28.2-28.2h18.2v451.6H88.15z
			 M447.95,479.8h-313.3V28.2h313.3V479.8z"/>
	</g>
</g>
<g>
	<g>
		<path d="M291.25,56.5c-31.1,0-56.4,25.3-56.4,56.4c0,31.1,25.3,56.4,56.4,56.4c31.1,0,56.4-25.3,56.4-56.4
			C347.65,81.8,322.35,56.5,291.25,56.5z M291.25,141.1c-15.6,0-28.2-12.7-28.2-28.2c0-15.6,12.7-28.2,28.2-28.2
			c15.6,0,28.2,12.7,28.2,28.2C319.45,128.5,306.75,141.1,291.25,141.1z"/>
	</g>
</g>
<g>
	<g>
		<path d="M403.35,301c-1.1-60.8-51-109.9-112-109.9c-61.8,0-112,50.3-112,112c-0.1,7.9,6.2,14.2,14,14.2h195.9c0.1,0,0.1,0,0.1,0
			C403.95,317.3,403.45,301.7,403.35,301z M208.65,289.1c6.7-39.5,41.2-69.7,82.6-69.7c41.4,0,75.9,30.2,82.6,69.7H208.65z"/>
	</g>
</g>
<g>
	<g>
		<path d="M389.25,362h-195.9c-7.8,0-14.1,6.3-14.1,14.1c0,7.7,6.3,14.1,14.1,14.1h195.9c7.8,0,14.1-6.3,14.1-14.1
			C403.35,368.3,397.05,362,389.25,362z"/>
	</g>
</g>
<g>
	<g>
		<path d="M389.25,418.4h-195.9c-7.8,0-14.1,6.3-14.1,14.1c0,7.8,6.3,14.1,14.1,14.1h195.9c7.8,0,14.1-6.3,14.1-14.1
			S397.05,418.4,389.25,418.4z"/>
	</g>
</g>
<g>
</g>
<g>
</g>
<g>
</g>
<g>
</g>
<g>
</g>
<g>
</g>
<g>
</g>
<g>
</g>
<g>
</g>
<g>
</g>
<g>
</g>
<g>
</g>
<g>
</g>
<g>
</g>
<g>
</g>
</svg>
