<?xml version="1.0" encoding="iso-8859-1"?>
<!-- Generator: Adobe Illustrator 19.0.0, SVG Export Plug-In . SVG Version: 6.00 Build 0)  -->
<svg version="1.1" id="Layer_1" xmlns="http://www.w3.org/2000/svg" xmlns:xlink="http://www.w3.org/1999/xlink" x="0px" y="0px"
	 viewBox="0 0 508.1 508.1" style="enable-background:new 0 0 508.1 508.1;" xml:space="preserve">
<g>
	<g>
		<path d="M322.05,383.5v-0.1c63.4,0,114.9-51.6,114.9-114.9c0-7.8-6.3-14.1-14.1-14.1c-7.8,0-14.1,6.3-14.1,14.1
			c0,47.8-38.9,86.7-86.7,86.7h-136c-47.8,0-86.7-38.9-86.7-86.7c0-7.8-6.3-14.1-14.1-14.1s-14.1,6.3-14.1,14.1
			c0,63.4,51.6,114.9,114.9,114.9h53.9v40h-36.7c-38.9,0-70.6,31.7-70.6,70.6c0,7.8,6.3,14.1,14.1,14.1c0,0,214.5,0,214.6,0
			c14.8,0,14-15.6,13.9-16.3c-1.2-37.9-32.4-68.3-70.5-68.3h-36.7v-40H322.05z M304.85,451.6c18.4,0,34.1,11.8,39.9,28.2h-181.4
			c5.8-16.4,21.5-28.2,39.9-28.2H304.85z"/>
	</g>
</g>
<g>
	<g>
		<path d="M322.05,0h-136c-32.3,0-58.5,26.2-58.5,58.5v209.9c0,32.3,26.3,58.5,58.5,58.5h136c32.3,0,58.5-26.2,58.5-58.5V58.5
			C380.55,26.2,354.25,0,322.05,0z M352.35,88.7h-35.8c-7.8,0-14.1,6.3-14.1,14.1s6.3,14.1,14.1,14.1h35.8v32.4h-35.8
			c-7.8,0-14.1,6.3-14.1,14.1c0,7.8,6.3,14.1,14.1,14.1h35.8V210h-35.8c-7.8,0-14.1,6.3-14.1,14.1c0,7.8,6.3,14.1,14.1,14.1h35.8
			v30.2c0,16.7-13.6,30.3-30.3,30.3h-136c-16.7,0-30.3-13.6-30.3-30.3v-30.2h35.8c7.8,0,14.1-6.3,14.1-14.1s-6.3-14.1-14.1-14.1
			h-35.8v-32.4h35.8c7.8,0,14.1-6.3,14.1-14.1c0-7.8-6.3-14.1-14.1-14.1h-35.8V117h35.8c7.8,0,14.1-6.3,14.1-14.1
			s-6.3-14.1-14.1-14.1h-35.8V58.5c0-16.7,13.6-30.3,30.3-30.3h136c16.7,0,30.3,13.6,30.3,30.3V88.7z"/>
	</g>
</g>
<g>
</g>
<g>
</g>
<g>
</g>
<g>
</g>
<g>
</g>
<g>
</g>
<g>
</g>
<g>
</g>
<g>
</g>
<g>
</g>
<g>
</g>
<g>
</g>
<g>
</g>
<g>
</g>
<g>
</g>
</svg>
