<?xml version="1.0" encoding="iso-8859-1"?>
<!-- Generator: Adobe Illustrator 19.0.0, SVG Export Plug-In . SVG Version: 6.00 Build 0)  -->
<svg version="1.1" id="Layer_1" xmlns="http://www.w3.org/2000/svg" xmlns:xlink="http://www.w3.org/1999/xlink" x="0px" y="0px"
	 viewBox="0 0 507.98 507.98" style="enable-background:new 0 0 507.98 507.98;" xml:space="preserve">
<g>
	<g>
		<path d="M494.563,489.68l-17.9-80.9c-0.6-2.6-1.9-4.9-3.7-6.8l-49-48.9c-25.4-50.7-74.1-113.8-134.1-173.7
			c-43.5-43.3-87.9-80-127.9-106.5l38.4-38.5l116.6,116.2c5.6,5.6,14.4,5.1,19.5,0c5.4-5.4,5.4-14.1,0-19.5l-126.6-126
			c-2.6-2.6-9.5-10-19.5,0l-52.6,52.8c-32.4-18.8-92.4-40.9-113.9-19.4c-40.8,40.8,40.6,164.5,142,265.4
			c60,59.9,123.3,108.4,174.1,133.5l49,48.9c1.9,1.9,4.2,3.2,6.8,3.7l82.8,18C490.063,507.98,496.363,499.28,494.563,489.68z
			 M43.463,57.981c14.9-15,108.1,25.6,178.6,96.1l-81.9,82.3C55.463,140.18,30.563,70.781,43.463,57.981z M185.263,284.38
			c-9.4-9.4-18.2-18.5-26.6-27.5l83.9-84.3c9.1,8.4,18.3,17.2,27.6,26.5c55.3,55.1,100.5,112.7,125.5,159.6l-50.3,50.6
			C298.363,384.481,240.663,339.481,185.263,284.38z M405.463,463.88l-37.9-37.8l45-45.2l37.9,37.8l12.8,57.8L405.463,463.88z"/>
	</g>
</g>
<g>
</g>
<g>
</g>
<g>
</g>
<g>
</g>
<g>
</g>
<g>
</g>
<g>
</g>
<g>
</g>
<g>
</g>
<g>
</g>
<g>
</g>
<g>
</g>
<g>
</g>
<g>
</g>
<g>
</g>
</svg>
