<?xml version="1.0" encoding="iso-8859-1"?>
<!-- Generator: Adobe Illustrator 19.0.0, SVG Export Plug-In . SVG Version: 6.00 Build 0)  -->
<svg version="1.1" id="Layer_1" xmlns="http://www.w3.org/2000/svg" xmlns:xlink="http://www.w3.org/1999/xlink" x="0px" y="0px"
	 viewBox="0 0 508 508" style="enable-background:new 0 0 508 508;" xml:space="preserve">
<g>
	<g>
		<path d="M324.7,327.6h54.8c7.8,0,14.1-6.3,14.1-14.1V272h11c7.8,0,14.1-6.3,14.1-14.1v-39.2h75.2c7.8,0,14.1-6.3,14.1-14.1V67.5
			c0-7.8-6.3-14.1-14.1-14.1H224.3V14.1C224.3,6.3,218,0,210.2,0H14.1C6.3,0,0,6.3,0,14.1v479.8c0,7.8,6.3,14.1,14.1,14.1h479.8
			c7.8,0,14.1-6.3,14.1-14.1c0-7.8-6.3-14.1-14.1-14.1H224.3V218.6h61.1v39.2c0,7.8,6.3,14.1,14.1,14.1h11v41.6
			C310.6,321.3,316.9,327.6,324.7,327.6z M365.3,299.4h-26.5V272h26.5V299.4z M390.4,243.7h-76.7v-25.1h76.7V243.7z M196.1,479.8
			H28.2V28.2h167.9v25.1H94.5c-9.9,0-14.1,9.2-14.1,14.1v137.1c0,7.8,6.3,14.1,14.1,14.1h101.6V479.8z M108.7,190.4V81.6h371.1
			v108.9L108.7,190.4z"/>
	</g>
</g>
<g>
	<g>
		<path d="M112.1,247.1c-23.3,0-42.3,18.9-42.3,42.3c0,23.3,19,42.3,42.3,42.3c23.3,0,42.3-19,42.3-42.3S135.4,247.1,112.1,247.1z
			 M112.2,303.5c-7.8,0-14.1-6.3-14.1-14.1c0-7.8,6.3-14.1,14.1-14.1s14.1,6.3,14.1,14.1S120,303.5,112.2,303.5z"/>
	</g>
</g>
<g>
	<g>
		<path d="M112.2,360.9c-7.8,0-14.1,6.3-14.1,14.1v6.7c0,7.8,6.3,14.1,14.1,14.1s14.1-6.3,14.1-14.1V375
			C126.3,367.2,120,360.9,112.2,360.9z"/>
	</g>
</g>
<g>
	<g>
		<path d="M112.2,416.7c-7.8,0-14.1,6.3-14.1,14.1v6.7c0,7.8,6.3,14.1,14.1,14.1s14.1-6.3,14.1-14.1v-6.7
			C126.3,423,120,416.7,112.2,416.7z"/>
	</g>
</g>
<g>
</g>
<g>
</g>
<g>
</g>
<g>
</g>
<g>
</g>
<g>
</g>
<g>
</g>
<g>
</g>
<g>
</g>
<g>
</g>
<g>
</g>
<g>
</g>
<g>
</g>
<g>
</g>
<g>
</g>
</svg>
