<?xml version="1.0" encoding="iso-8859-1"?>
<!-- Generator: Adobe Illustrator 19.0.0, SVG Export Plug-In . SVG Version: 6.00 Build 0)  -->
<svg version="1.1" id="Layer_1" xmlns="http://www.w3.org/2000/svg" xmlns:xlink="http://www.w3.org/1999/xlink" x="0px" y="0px"
	 viewBox="0 0 507.967 507.967" style="enable-background:new 0 0 507.967 507.967;" xml:space="preserve">
<g>
	<g>
		<path d="M493.966,326.083h-206.8l177-59.1c12.1-4.3,10.1-14.7,8.8-18.3l-12.9-34.3l15.2-5c11.3-3.6,10.1-14.7,8.8-18.3l-15-40.2
			c-16.1-43.1-57.8-72.1-103.8-72.1c-14.6,0-28.8,2.9-42.4,8.5l-282,117c-32.2,13.4-48.6,49.7-37.3,82.7l18.8,54.9v47.8
			c0,21.8,17.7,39.5,39.5,39.5h406.6c21.8,0,39.5-17.7,39.5-39.5v-49.5C508.066,332.483,501.766,326.083,493.966,326.083z
			 M198.166,326.083h-26.4c-1-5.2-2.6-10.2-4.6-14.9l266.1-88l8.1,21.7L198.166,326.083z M36.666,296.283l-6.3-18.5
			c-6.5-19,2.9-39.8,21.4-47.5l282-117c10.1-4.2,20.7-6.3,31.6-6.3c34.3,0,65.4,21.6,77.4,53.7l9.8,26.4l-301.6,99.7
			c-14.2-14.1-33.1-21.9-53.1-21.9C72.766,264.883,50.366,277.283,36.666,296.283z M479.866,389.683c0,6.2-5.1,11.3-11.3,11.3
			h-406.6c-6.2,0-11.3-5.1-11.3-11.3v-49.5c0-26,21.1-47.1,47.1-47.1s47.1,21.1,47.1,47.1c0,7.8,6.3,14.1,14.1,14.1h320.9V389.683z"
			/>
	</g>
</g>
<g>
	<g>
		<circle cx="97.766" cy="340.283" r="14.1"/>
	</g>
</g>
<g>
</g>
<g>
</g>
<g>
</g>
<g>
</g>
<g>
</g>
<g>
</g>
<g>
</g>
<g>
</g>
<g>
</g>
<g>
</g>
<g>
</g>
<g>
</g>
<g>
</g>
<g>
</g>
<g>
</g>
</svg>
