<?xml version="1.0" encoding="iso-8859-1"?>
<!-- Generator: Adobe Illustrator 19.0.0, SVG Export Plug-In . SVG Version: 6.00 Build 0)  -->
<svg version="1.1" id="Layer_1" xmlns="http://www.w3.org/2000/svg" xmlns:xlink="http://www.w3.org/1999/xlink" x="0px" y="0px"
	 viewBox="0 0 508 508" style="enable-background:new 0 0 508 508;" xml:space="preserve">
<g>
	<g>
		<path d="M495.3,69.2C415.2,61.4,334,57.4,254,57.4s-161.2,4-241.3,11.8C5.5,69.9,0,75.9,0,83.2v179.7c0,7.3,5.5,13.3,12.7,14
			c80,7.8,161.2,11.8,241.3,11.8c80,0,161.2-4,241.3-11.8c7.2-0.7,12.7-6.8,12.7-14V83.2C508,75.9,502.5,69.9,495.3,69.2z
			 M479.8,250.1c-75,6.9-150.9,10.4-225.8,10.4S103.2,257,28.2,250.1V96c75-6.9,150.9-10.4,225.8-10.4S404.8,89.1,479.8,96V250.1z"
			/>
	</g>
</g>
<g>
	<g>
		<path d="M451.5,210.1c-0.6-7.8-7.3-13.6-15.1-13c-121,9.2-243.7,9.2-364.7,0c-7.9-0.6-14.6,5.2-15.2,13c-0.6,7.8,5.2,14.6,13,15.1
			c61.2,4.7,122.9,7,184.5,7s123.3-2.3,184.5-7C446.3,224.6,452.1,217.8,451.5,210.1z"/>
	</g>
</g>
<g>
	<g>
		<path d="M432.7,113.8c-7.8,0-14.1,6.3-14.1,14.1v4.8c0,7.7,6.3,14.1,14.1,14.1s14.1-6.3,14.1-14.1v-4.8
			C446.8,120.1,440.5,113.8,432.7,113.8z"/>
	</g>
</g>
<g>
	<g>
		<path d="M118.5,330.4c-7.3-2.7-15.4,1.1-18.1,8.5l-33.7,93c-2.7,7.3,0.9,16.1,8.5,18.1c7.8,2.1,16-2.7,18.1-8.5l33.7-93
			C129.6,341.1,125.8,333,118.5,330.4z"/>
	</g>
</g>
<g>
	<g>
		<path d="M208.9,329.5c-7.8-0.9-14.8,4.6-15.7,12.3l-11.2,93c-0.9,7.7,4.7,15.8,14,15.8c7,0,13.1-5.3,14-12.4l11.2-93
			C222.2,337.4,216.7,330.4,208.9,329.5z"/>
	</g>
</g>
<g>
	<g>
		<path d="M441.3,431.8l-33.7-93c-2.7-7.3-10.7-11.1-18.1-8.5c-7.3,2.7-11.1,10.7-8.5,18.1l33.7,93c2.1,5.7,10.3,10.5,18.1,8.5
			C440.3,447.9,443.9,439.2,441.3,431.8z"/>
	</g>
</g>
<g>
	<g>
		<path d="M326,434.8l-11.2-93c-0.9-7.7-7.9-13.2-15.7-12.3c-7.7,0.9-13.3,8-12.3,15.7l11.2,93c0.9,7.2,7,12.4,14,12.4
			C321.3,450.6,327,442.5,326,434.8z"/>
	</g>
</g>
<g>
</g>
<g>
</g>
<g>
</g>
<g>
</g>
<g>
</g>
<g>
</g>
<g>
</g>
<g>
</g>
<g>
</g>
<g>
</g>
<g>
</g>
<g>
</g>
<g>
</g>
<g>
</g>
<g>
</g>
</svg>
