<?xml version="1.0" encoding="iso-8859-1"?>
<!-- Generator: Adobe Illustrator 19.0.0, SVG Export Plug-In . SVG Version: 6.00 Build 0)  -->
<svg version="1.1" id="Layer_1" xmlns="http://www.w3.org/2000/svg" xmlns:xlink="http://www.w3.org/1999/xlink" x="0px" y="0px"
	 viewBox="0 0 508 508" style="enable-background:new 0 0 508 508;" xml:space="preserve">
<g>
	<g>
		<path d="M493.9,341.8h-18.2V68.1c0-7.8-6.3-14.1-14.1-14.1H46.4c-7.8,0-14.1,6.3-14.1,14.1v273.7H14.1c-7.8,0-14.1,6.3-14.1,14.1
			v29C0,423,31,454,69.1,454h369.8c38.1,0,69.1-31,69.1-69.1v-29C508,348.1,501.7,341.8,493.9,341.8z M60.5,82.2h387v259.6H309.7
			c-5.7,0-10.9,3.5-13.1,8.8l-5.7,14.1H217l-5.7-14.1c-2.2-5.3-7.3-8.8-13.1-8.8H60.5V82.2z M438.9,425.8H69.1
			c-22.6,0-40.9-18.3-40.9-40.9V370h160.5l5.7,14.1c2.2,5.3,7.3,8.8,13.1,8.8h92.8c5.7,0,10.9-3.5,13.1-8.8l5.7-14.1h160.6v14.9h0.1
			C479.8,407.5,461.5,425.8,438.9,425.8z"/>
	</g>
</g>
<g>
	<g>
		<path d="M361,383.8h-6.4c-7.8,0-14.1,6.3-14.1,14.1c0,7.8,6.3,14.1,14.1,14.1h6.4c7.8,0,14.1-6.3,14.1-14.1
			C375.1,390.1,368.8,383.8,361,383.8z"/>
	</g>
</g>
<g>
	<g>
		<path d="M418.2,383.8h-6.4c-7.8,0-14.1,6.3-14.1,14.1c0,7.8,6.3,14.1,14.1,14.1h6.4c7.8,0,14.1-6.3,14.1-14.1
			C432.3,390.1,426,383.8,418.2,383.8z"/>
	</g>
</g>
<g>
</g>
<g>
</g>
<g>
</g>
<g>
</g>
<g>
</g>
<g>
</g>
<g>
</g>
<g>
</g>
<g>
</g>
<g>
</g>
<g>
</g>
<g>
</g>
<g>
</g>
<g>
</g>
<g>
</g>
</svg>
