<?xml version="1.0" encoding="iso-8859-1"?>
<!-- Generator: Adobe Illustrator 19.0.0, SVG Export Plug-In . SVG Version: 6.00 Build 0)  -->
<svg version="1.1" id="Layer_1" xmlns="http://www.w3.org/2000/svg" xmlns:xlink="http://www.w3.org/1999/xlink" x="0px" y="0px"
	 viewBox="0 0 508.01 508.01" style="enable-background:new 0 0 508.01 508.01;" xml:space="preserve">
<g>
	<g>
		<path d="M502.2,160.005c-6.3-4.6-15.1-3.1-19.7,3.2c-2.2,3.1-52.9,74.4-52.8,192.5H291c-7.8,0-14.1,6.3-14.1,14.1
			s6.3,14.1,14.1,14.1h17.2l-20.9,107.4c-1.5,7.6,3.4,15.7,11.2,16.5c9.3,1,15.2-4.4,16.5-11.2l9.9-50.7h85.2l9.9,50.7
			c1.3,6.7,8.7,12.1,16.5,11.2c7.7-0.9,12.6-8.9,11.2-16.5l-20.9-107.4H444c13.7,0,14.2-10.8,14.1-14.6
			c-4.1-116.3,46.5-188.5,47.2-189.6C509.9,173.305,508.5,164.505,502.2,160.005z M330.4,417.705l6.6-33.9h61l6.6,33.9H330.4z"/>
	</g>
</g>
<g>
	<g>
		<path d="M285,270.605H14.1c-7.8,0-14.1,6.3-14.1,14.1s6.3,14.1,14.1,14.1h79.8l-92.5,188.9c-3.8,8.8,1.2,20.3,12.7,20.3H229
			c7.8,0,14.1-6.3,14.1-14.1c0-7.8-6.3-14.1-14.1-14.1H36.7l88.6-181H285c7.8,0,14.1-6.3,14.1-14.1
			C299.1,276.905,292.8,270.605,285,270.605z"/>
	</g>
</g>
<g>
	<g>
		<path d="M227.4,0.005c-59.7,0-108.2,48.5-108.2,108.2c0,59.7,48.6,108.2,108.2,108.2c59.7,0,108.2-48.5,108.2-108.2
			C335.6,48.505,287.1,0.005,227.4,0.005z M227.4,188.205c-44.1,0-80-35.9-80-80c0-44.1,35.9-80,80-80c44.1,0,80,35.9,80,80
			C307.4,152.305,271.5,188.205,227.4,188.205z"/>
	</g>
</g>
<g>
	<g>
		<path d="M227.4,48.505c-7.8,0-14.1,6.3-14.1,14.1v31.5h-9.6c-7.8,0-14.1,6.3-14.1,14.1s6.3,14.1,14.1,14.1h23.7
			c7.8,0,14.1-6.3,14.1-14.1v-45.6C241.5,54.805,235.2,48.505,227.4,48.505z"/>
	</g>
</g>
<g>
</g>
<g>
</g>
<g>
</g>
<g>
</g>
<g>
</g>
<g>
</g>
<g>
</g>
<g>
</g>
<g>
</g>
<g>
</g>
<g>
</g>
<g>
</g>
<g>
</g>
<g>
</g>
<g>
</g>
</svg>
