<?xml version="1.0" encoding="iso-8859-1"?>
<!-- Generator: Adobe Illustrator 19.0.0, SVG Export Plug-In . SVG Version: 6.00 Build 0)  -->
<svg version="1.1" id="Layer_1" xmlns="http://www.w3.org/2000/svg" xmlns:xlink="http://www.w3.org/1999/xlink" x="0px" y="0px"
	 viewBox="0 0 507.92 507.92" style="enable-background:new 0 0 507.92 507.92;" xml:space="preserve">
<g>
	<g>
		<path d="M503.788,4.15c-3.9-4-9.8-5.2-15.1-3.2c-0.9,0.3-85.8,32.4-150.5,36.7c-5.7,0.4-10.6,4.2-12.5,9.6l-29.7,87.5
			c-45.1,25.1-100.8,69.6-154,122.9c-146.3,146.7-152.6,227.4-135.1,244.9c13.8,13.8,97.9,11.2,244.2-135.5
			c53.2-53.4,97.5-109.3,122.6-154.5l87.3-29.9c5.3-1.8,9.1-6.8,9.4-12.5c4.3-64.8,36.3-150.1,36.6-150.9
			C508.988,14.05,507.688,8.15,503.788,4.15z M230.988,346.95c-133.1,133.5-203.4,136.1-204.1,135.5c-2.2-2.2,2.4-70.8,135.1-204.6
			c49.7-50.2,101.7-91.8,143.9-116l40.8,40.9C322.488,244.95,280.888,296.95,230.988,346.95z M442.888,158.75l-74.5,25.5l-44.2-44.3
			l25.5-74.7c43.3-4.3,91.5-18.3,121.1-28C461.088,66.95,447.188,115.25,442.888,158.75z"/>
	</g>
</g>
<g>
	<g>
		<path d="M407.788,103.85l-3.3-3.3c-5.6-5.6-14.6-5.6-20.1,0c-5.5,5.6-5.5,14.6,0,20.1l3.3,3.3c6.1,6.2,15.1,4.9,20.1,0
			C413.288,118.35,413.288,109.35,407.788,103.85z"/>
	</g>
</g>
<g>
</g>
<g>
</g>
<g>
</g>
<g>
</g>
<g>
</g>
<g>
</g>
<g>
</g>
<g>
</g>
<g>
</g>
<g>
</g>
<g>
</g>
<g>
</g>
<g>
</g>
<g>
</g>
<g>
</g>
</svg>
