<?xml version="1.0" encoding="iso-8859-1"?>
<!-- Generator: Adobe Illustrator 19.0.0, SVG Export Plug-In . SVG Version: 6.00 Build 0)  -->
<svg version="1.1" id="Layer_1" xmlns="http://www.w3.org/2000/svg" xmlns:xlink="http://www.w3.org/1999/xlink" x="0px" y="0px"
	 viewBox="0 0 508 508" style="enable-background:new 0 0 508 508;" xml:space="preserve">
<g>
	<g>
		<path d="M493.9,150.5H281.1c-14-64.3-56.5-111.3-106.6-111.3c-50.1,0-92.6,46.9-106.6,111.3H14.1c-7.8,0-14.1,6.3-14.1,14.1v290.1
			c0,7.8,6.3,14.1,14.1,14.1c7.8,0,14.1-6.3,14.1-14.1v-276h35.5c-0.5,5.9-0.7,11.9-0.7,17.9c0,36.5,8.9,71.2,24.7,98.9h-9.9
			c-7.8,0-14.1,6.3-14.1,14.1s6.3,14.1,14.1,14.1h82.6v72.7h-41.8c-5,0-9.7,2.7-12.2,7l-18.5,31.9c-3.9,6.7-1.6,15.4,5.1,19.3
			c6.8,3.9,15.4,1.6,19.3-5.1l14.4-24.8h33.7v17.7c0,7.8,6.3,14.1,14.1,14.1s14.1-6.3,14.1-14.1v-17.7h33.7l14.4,24.8
			c3.9,6.6,13.9,8.2,19.3,5.1c6.8-3.8,9-12.6,5.1-19.3l-18.5-31.9c-2.5-4.3-7.2-7-12.2-7h-41.8v-72.7h82.6c7.8,0,14.1-6.3,14.1-14.1
			c0-7.8-6.3-14.1-14.1-14.1h-9.9c15.8-27.7,24.7-62.4,24.7-98.9c0-6.1-0.3-12-0.7-17.9h35.5v235.8c0,7.8,6.3,14.1,14.1,14.1h144.9
			v26c0,7.8,6.3,14.1,14.1,14.1c7.8,0,14.1-6.3,14.1-14.1v-290C508,156.8,501.7,150.5,493.9,150.5z M228.3,294.6H120.7
			c-18.8-24.8-29.5-60.1-29.5-98c0-71.2,37.4-129.2,83.3-129.2c45.9,0,83.3,58,83.3,129.2C257.8,234.6,247.1,269.9,228.3,294.6z
			 M479.8,400.4H349V272.8h130.8V400.4z M479.8,244.6H349v-65.9h130.8V244.6z"/>
	</g>
</g>
<g>
	<g>
		<path d="M388.2,307c-7.8,0-14.1,6.3-14.1,14.1V352c0,7.8,6.3,14.1,14.1,14.1s14.1-6.3,14.1-14.1v-30.9
			C402.3,313.3,396,307,388.2,307z"/>
	</g>
</g>
<g>
	<g>
		<path d="M429.8,197.5h-30.9c-7.8,0-14.1,6.3-14.1,14.1s6.3,14.1,14.1,14.1h30.9c7.8,0,14.1-6.3,14.1-14.1S437.6,197.5,429.8,197.5
			z"/>
	</g>
</g>
<g>
</g>
<g>
</g>
<g>
</g>
<g>
</g>
<g>
</g>
<g>
</g>
<g>
</g>
<g>
</g>
<g>
</g>
<g>
</g>
<g>
</g>
<g>
</g>
<g>
</g>
<g>
</g>
<g>
</g>
</svg>
