<?xml version="1.0" encoding="iso-8859-1"?>
<!-- Generator: Adobe Illustrator 19.0.0, SVG Export Plug-In . SVG Version: 6.00 Build 0)  -->
<svg version="1.1" id="Layer_1" xmlns="http://www.w3.org/2000/svg" xmlns:xlink="http://www.w3.org/1999/xlink" x="0px" y="0px"
	 viewBox="0 0 392.598 392.598" style="enable-background:new 0 0 392.598 392.598;" xml:space="preserve">
<g>
	<g>
		<path d="M137.18,23.499C121.988,8.372,101.818,0.032,80.291,0.032c-17.778,0-34.586,5.818-48.549,16.356l-3.038-3.038
			c-4.267-4.267-11.119-4.267-15.451,0c-4.267,4.267-4.267,11.184,0,15.45l3.038,3.038C5.818,45.673,0,62.546,0,80.323
			c0,21.463,8.339,41.568,23.596,56.824c2.133,2.133,4.978,3.168,7.758,3.168c2.78,0,5.56-1.099,7.758-3.168l98.133-98.069
			c1.939-2.133,3.103-4.913,3.103-7.822C140.347,28.412,139.184,25.632,137.18,23.499z M31.935,113.228
			c-6.594-9.632-10.149-21.01-10.149-32.905c0-15.58,6.077-30.319,17.131-41.309c11.055-10.99,25.729-17.131,41.438-17.131
			c11.895,0,23.337,3.556,32.905,10.149L31.935,113.228z"/>
	</g>
</g>
<g>
	<g>
		<path d="M376.178,31.839l3.038-3.038c4.267-4.267,4.267-11.184,0-15.45c-4.267-4.267-11.119-4.267-15.451,0l-3.038,3.038
			C346.828,5.786,330.02,0.032,312.307,0.032c-21.463,0-41.632,8.339-56.824,23.467c-2.069,2.004-3.168,4.784-3.168,7.758
			c0,2.844,1.164,5.624,3.168,7.758l98.133,98.069c2.133,2.133,4.913,3.168,7.758,3.168c2.78,0,5.56-1.099,7.758-3.168
			c15.127-15.127,23.467-35.297,23.467-56.824C392.533,62.546,386.715,45.673,376.178,31.839z M360.598,113.228l-81.325-81.261
			c9.632-6.594,21.01-10.149,32.905-10.149c15.58,0,30.319,6.077,41.438,17.131c11.055,11.055,17.131,25.729,17.131,41.309
			C370.747,92.218,367.192,103.596,360.598,113.228z"/>
	</g>
</g>
<g>
	<g>
		<path d="M196.267,129.002c-6.012,0-10.925,4.849-10.925,10.925v70.788h-39.176c-6.012,0-10.925,4.849-10.925,10.925
			c0,6.012,4.848,10.925,10.925,10.925h50.101c6.012,0,10.925-4.849,10.925-10.925v-81.778
			C207.192,133.851,202.279,129.002,196.267,129.002z"/>
	</g>
</g>
<g>
	<g>
		<path d="M353.358,221.317c0.065-86.497-70.465-157.026-157.091-157.026S39.111,134.756,39.111,221.317
			c0,53.721,27.216,101.236,68.461,129.616l-18.23,24.501c-3.62,4.849-2.651,11.636,2.263,15.321
			c3.685,2.78,11.83,1.939,15.192-2.263l19.717-26.44c21.01,10.408,44.671,16.356,69.689,16.356
			c24.954,0,48.614-5.883,69.624-16.291l19.846,26.57c3.426,4.202,11.507,5.042,15.192,2.263c4.849-3.556,5.818-10.408,2.263-15.321
			l-18.36-24.63C326.141,322.748,353.358,275.103,353.358,221.317z M294.206,304.194c-4.267-4.267-11.119-4.267-15.451,0
			c-4.267,4.267-4.267,11.184,0,15.451l4.913,4.913c-21.01,17.778-47.451,29.285-76.477,31.612v-7.176
			c0-6.012-4.849-10.925-10.925-10.925c-6.077,0-10.925,4.849-10.925,10.925v7.176c-29.026-2.327-55.661-13.899-76.671-31.741
			l5.107-5.107c4.267-4.267,4.267-11.184,0-15.451c-4.267-4.267-11.119-4.267-15.451,0l-5.107,5.107
			c-17.907-20.945-29.543-47.451-31.806-76.477h7.176c6.012,0,10.925-4.849,10.925-10.925c0-6.012-4.849-10.925-10.925-10.925h-7.24
			c2.327-29.156,13.834-55.725,31.741-76.735l5.042,5.042c4.267,4.267,11.119,4.267,15.451,0c4.267-4.267,4.267-11.184,0-15.451
			l-5.042-5.042c21.01-17.907,47.644-29.479,76.735-31.806v7.176c0,6.012,4.848,10.925,10.925,10.925
			c6.012,0,10.925-4.849,10.925-10.925v-7.176c29.026,2.327,55.661,13.899,76.606,31.677l-5.107,5.107
			c-4.267,4.267-4.267,11.184,0,15.451s11.119,4.267,15.451,0l5.107-5.107c18.036,21.075,29.608,47.709,31.935,76.865h-7.176
			c-6.012,0-10.925,4.849-10.925,10.925c0,6.012,4.849,10.99,10.925,10.99h7.176c-2.392,29.156-14.093,55.661-32,76.671
			L294.206,304.194z"/>
	</g>
</g>
<g>
</g>
<g>
</g>
<g>
</g>
<g>
</g>
<g>
</g>
<g>
</g>
<g>
</g>
<g>
</g>
<g>
</g>
<g>
</g>
<g>
</g>
<g>
</g>
<g>
</g>
<g>
</g>
<g>
</g>
</svg>
