<?xml version="1.0" encoding="iso-8859-1"?>
<!-- Generator: Adobe Illustrator 19.0.0, SVG Export Plug-In . SVG Version: 6.00 Build 0)  -->
<svg version="1.1" id="Layer_1" xmlns="http://www.w3.org/2000/svg" xmlns:xlink="http://www.w3.org/1999/xlink" x="0px" y="0px"
	 viewBox="0 0 508 508" style="enable-background:new 0 0 508 508;" xml:space="preserve">
<g>
	<g>
		<path d="M324.65,180.3V133c0-7.8-6.3-14.1-14.1-14.1h-10l-33-108.9c-1.8-6-7.3-10-13.5-10c-6.2,0-11.7,4.1-13.5,10l-32.9,109h-10
			c-7.8,0-14.1,6.3-14.1,14.1v47.3c-72.4,49.9-120.5,174.3-120.5,313.5c0,7.8,6.3,14.1,14.1,14.1h353.7c7.8,0,14.1-6.3,14.1-14.1
			C445.05,354.7,396.95,230.3,324.65,180.3z M254.05,62.9l17,56.1h-34L254.05,62.9z M211.65,147.1h84.7v26.7h-84.7V147.1z
			 M201.65,202.1h104.7c20.6,13.6,39.1,34.3,54.7,60.3h-214.1C162.65,236.4,181.05,215.6,201.65,202.1z M131.95,290.6h244.2
			c13.7,29.4,24.3,63.6,31.3,100.7h-306.8C107.65,354.1,118.25,320,131.95,290.6z M91.45,479.8c0.5-20.6,2.2-40.7,4.7-60.3h315.6
			c2.6,19.5,4.3,39.7,4.7,60.3H91.45z"/>
	</g>
</g>
<g>
</g>
<g>
</g>
<g>
</g>
<g>
</g>
<g>
</g>
<g>
</g>
<g>
</g>
<g>
</g>
<g>
</g>
<g>
</g>
<g>
</g>
<g>
</g>
<g>
</g>
<g>
</g>
<g>
</g>
</svg>
