<?xml version="1.0" encoding="iso-8859-1"?>
<!-- Generator: Adobe Illustrator 19.0.0, SVG Export Plug-In . SVG Version: 6.00 Build 0)  -->
<svg version="1.1" id="Layer_1" xmlns="http://www.w3.org/2000/svg" xmlns:xlink="http://www.w3.org/1999/xlink" x="0px" y="0px"
	 viewBox="0 0 508 508" style="enable-background:new 0 0 508 508;" xml:space="preserve">
<g>
	<g>
		<path d="M122.498,286.7c-27.3,0-49.5,22.2-49.5,49.5s22.2,49.5,49.5,49.5c27.3,0,49.5-22.2,49.5-49.5S149.798,286.7,122.498,286.7
			z M122.498,358.3c-12.2,0-22.1-9.9-22.1-22.1c0-12.2,9.9-22.1,22.1-22.1s22.1,9.9,22.1,22.1S134.698,358.3,122.498,358.3z"/>
	</g>
</g>
<g>
	<g>
		<path d="M219.798,493.8c-1.8-52.8-44.6-94.1-97.3-94.1s-95.5,41.3-97.3,94.1c-0.1,3.7,1.8,14.2,13.8,14.2h167.1
			C217.998,508,219.998,497.5,219.798,493.8z M54.598,480.5c7.4-30.8,34.9-53.4,67.9-53.4s60.5,22.5,67.9,53.4H54.598z"/>
	</g>
</g>
<g>
	<g>
		<path d="M482.898,493.8c-1.8-52.8-44.5-94.1-97.2-94.1c-52.7,0-95.5,41.3-97.3,94.1c-0.1,3.7,1.8,14.2,13.7,14.2h167.1
			C481.098,508,483.098,497.5,482.898,493.8z M317.798,480.5c7.4-30.8,34.9-53.4,67.9-53.4s60.5,22.5,67.9,53.4H317.798z"/>
	</g>
</g>
<g>
	<g>
		<path d="M385.698,286.7c-27.3,0-49.5,22.2-49.5,49.5s22.2,49.5,49.5,49.5s49.5-22.2,49.5-49.5S412.998,286.7,385.698,286.7z
			 M385.698,358.3c-12.2,0-22.1-9.9-22.1-22.1c0-12.2,9.9-22.1,22.1-22.1s22.1,9.9,22.1,22.1S397.898,358.3,385.698,358.3z"/>
	</g>
</g>
<g>
	<g>
		<path d="M487.498,0h-466.8c-7.6,0-13.7,6.1-13.7,13.7c0,7.6,6.1,13.7,13.7,13.7h4.5V217c0,30.3,24.6,54.9,54.9,54.9h160.2v74.9
			c-16,5.7-27.5,20.9-27.5,38.8c0,22.7,18.5,41.2,41.2,41.2c22.7,0,41.2-18.5,41.2-41.2c0-17.9-11.5-33.1-27.5-38.8V272h160.2
			c30.3,0,54.9-24.6,54.9-54.9V27.5h4.5c7.6,0,13.7-6.1,13.7-13.7C501.198,6.1,495.098,0,487.498,0z M267.798,385.7
			c0,7.5-6.1,13.7-13.7,13.7c-7.6,0-13.7-6.2-13.7-13.7c0-7.6,6.2-13.7,13.7-13.7C261.698,372,267.798,378.2,267.798,385.7z
			 M455.498,217.1c0,15.1-12.3,27.5-27.5,27.5h-347.8c-15.1,0-27.5-12.3-27.5-27.5V27.5h402.8V217.1z"/>
	</g>
</g>
<g>
</g>
<g>
</g>
<g>
</g>
<g>
</g>
<g>
</g>
<g>
</g>
<g>
</g>
<g>
</g>
<g>
</g>
<g>
</g>
<g>
</g>
<g>
</g>
<g>
</g>
<g>
</g>
<g>
</g>
</svg>
