<?xml version="1.0" encoding="iso-8859-1"?>
<!-- Generator: Adobe Illustrator 19.0.0, SVG Export Plug-In . SVG Version: 6.00 Build 0)  -->
<svg version="1.1" id="Layer_1" xmlns="http://www.w3.org/2000/svg" xmlns:xlink="http://www.w3.org/1999/xlink" x="0px" y="0px"
	 viewBox="0 0 508.1 508.1" style="enable-background:new 0 0 508.1 508.1;" xml:space="preserve">
<g>
	<g>
		<path d="M467.25,76h-84.6c3.7-7.2,5.8-15.3,5.8-23.9c0-28.7-23.4-52.1-52.1-52.1c-19.6,0-60.7,30.9-82.4,59.4
			c-21.6-28.4-62.8-59.3-82.3-59.3c-28.7,0-52.1,23.4-52.1,52.1c0,8.6,2.1,16.7,5.8,23.9h-84.6c-22.4-0.1-40.7,18.2-40.7,40.7v350.5
			c0,22.5,18.3,40.8,40.7,40.8h426.5c22.5,0,40.8-18.3,40.8-40.8V116.8C508.05,94.3,489.75,76,467.25,76z M211.65,479.8H40.75
			c-6.9,0.1-12.5-5.6-12.5-12.5V187.4h183.4V479.8z M211.65,159.2H28.25v-42.4c0-6.9,5.6-12.6,12.5-12.6h170.9V159.2z M171.55,76
			c-13.1,0-23.8-10.7-23.8-23.8c0-13.2,10.7-23.9,23.8-23.9c11.4,0.7,44.4,28.4,60,47.7H171.55z M268.15,479.9h-28.2V104.3h28.2
			V479.9z M336.45,28.3c13.2,0,23.9,10.7,23.9,23.9c0,13.2-10.7,23.9-23.9,23.9h-59.9C292.15,56.7,325.15,29,336.45,28.3z
			 M479.85,467.3c0,6.9-5.6,12.6-12.6,12.6h-170.9V187.4h183.5V467.3z M479.85,159.2h-183.5v-55h170.9c6.9,0.1,12.6,5.7,12.6,12.6
			V159.2z"/>
	</g>
</g>
<g>
</g>
<g>
</g>
<g>
</g>
<g>
</g>
<g>
</g>
<g>
</g>
<g>
</g>
<g>
</g>
<g>
</g>
<g>
</g>
<g>
</g>
<g>
</g>
<g>
</g>
<g>
</g>
<g>
</g>
</svg>
