<?xml version="1.0" encoding="iso-8859-1"?>
<!-- Generator: Adobe Illustrator 19.0.0, SVG Export Plug-In . SVG Version: 6.00 Build 0)  -->
<svg version="1.1" id="Layer_1" xmlns="http://www.w3.org/2000/svg" xmlns:xlink="http://www.w3.org/1999/xlink" x="0px" y="0px"
	 viewBox="0 0 507.936 507.936" style="enable-background:new 0 0 507.936 507.936;" xml:space="preserve">
<g>
	<g>
		<path d="M427.968,349.536c-5.3-5.7-14.2-6.2-20-1c-35.2,31.6-80.5,49-127.7,49c-105.4,0-191.2-85.8-191.2-191.2
			c0-79.1,49.8-151,124-179c7.3-2.7,11-10.9,8.2-18.2c-2.7-7.3-10.9-11-18.2-8.2c-85.1,32.1-142.2,114.6-142.2,205.4
			c0,116.2,90.9,211.6,205.3,218.9v54.5h-69c-7.8,0-14.1,6.3-14.1,14.1s6.3,14.1,14.1,14.1h166.3c7.8,0,14.1-6.3,14.1-14.1
			c0-7.8-6.3-14.1-14.1-14.1h-69v-54.6c49-3.2,95.6-22.6,132.4-55.7C432.668,364.236,433.168,355.336,427.968,349.536z"/>
	</g>
</g>
<g>
	<g>
		<path d="M280.268,39.536c-92,0-166.8,74.8-166.8,166.8s74.8,166.8,166.8,166.8s166.8-74.8,166.8-166.8
			S372.268,39.536,280.268,39.536z M223.368,80.136c-5.8,9.7-10.9,20.9-15.2,33.4h-30.5
			C190.468,99.436,205.968,88.036,223.368,80.136z M157.768,141.736h42.7c-3.3,15.7-5.5,32.7-6.3,50.5h-51.8
			C144.268,174.136,149.668,157.136,157.768,141.736z M157.768,271.036c-8.1-15.4-13.5-32.4-15.4-50.5h51.8
			c0.7,17.9,2.9,34.8,6.2,50.5H157.768z M177.768,299.236h30.5c4.2,12.4,9.3,23.6,15,33.3
			C205.868,324.636,190.368,313.236,177.768,299.236z M222.468,220.536h43.6v50.5h-36.8
			C225.768,255.936,223.268,238.936,222.468,220.536z M266.168,340.036c-10.4-6.9-20.3-21.1-28.1-40.8h28.1V340.036z
			 M266.168,192.236h-43.6c0.8-18.5,3.2-35.4,6.8-50.5h36.8V192.236z M266.168,113.436h-28.2c7.9-19.7,17.8-33.8,28.2-40.8V113.436z
			 M402.768,141.736c8.1,15.4,13.5,32.4,15.4,50.5h-51.8c-0.7-17.9-2.9-34.8-6.3-50.5H402.768z M382.868,113.536h-30.5
			c-4.3-12.5-9.4-23.6-15.2-33.4C354.668,88.036,370.168,99.436,382.868,113.536z M294.368,72.636c10.4,6.9,20.4,21.1,28.2,40.9
			h-28.2V72.636z M294.368,141.736L294.368,141.736h36.9c3.5,15.1,6,32.1,6.8,50.5h-43.7V141.736z M294.368,340.036v-40.8h28.2
			C314.768,319.036,304.768,333.136,294.368,340.036z M294.368,270.936v-50.5h43.7c-0.8,18.5-3.2,35.4-6.8,50.5H294.368z
			 M337.268,332.536c5.8-9.7,10.8-20.9,15-33.3h30.5C370.168,313.236,354.668,324.636,337.268,332.536z M402.768,271.036h-42.7
			c3.3-15.7,5.5-32.7,6.2-50.5h51.8C416.268,238.536,410.868,255.636,402.768,271.036z"/>
	</g>
</g>
<g>
</g>
<g>
</g>
<g>
</g>
<g>
</g>
<g>
</g>
<g>
</g>
<g>
</g>
<g>
</g>
<g>
</g>
<g>
</g>
<g>
</g>
<g>
</g>
<g>
</g>
<g>
</g>
<g>
</g>
</svg>
