<?xml version="1.0" encoding="iso-8859-1"?>
<!-- Generator: Adobe Illustrator 19.0.0, SVG Export Plug-In . SVG Version: 6.00 Build 0)  -->
<svg version="1.1" id="Layer_1" xmlns="http://www.w3.org/2000/svg" xmlns:xlink="http://www.w3.org/1999/xlink" x="0px" y="0px"
	 viewBox="0 0 508 508" style="enable-background:new 0 0 508 508;" xml:space="preserve">
<g>
	<g>
		<path d="M456.05,0h-293.5c-3.7,0-7.3,1.5-10,4.1L41.95,114.8c-2.6,2.6-4.1,6.2-4.1,10v369.1c0,7.8,6.3,14.1,14.1,14.1h404.1
			c7.8,0,14.1-6.3,14.1-14.1V14.1C470.15,6.3,463.85,0,456.05,0z M148.45,48.2v62.5h-62.5L148.45,48.2z M441.95,479.8h-376V138.9
			h96.5c7.8,0,14.1-6.3,14.1-14.1V28.2h265.4V479.8z"/>
	</g>
</g>
<g>
	<g>
		<path d="M402.75,426.5h-297.6c-7.8,0-14.1,6.3-14.1,14.1c0,7.8,6.3,14.1,14.1,14.1h297.5c7.8,0,14.1-6.3,14.1-14.1
			C416.75,432.8,410.55,426.5,402.75,426.5z"/>
	</g>
</g>
<g>
	<g>
		<path d="M235.85,339.4h-130.7c-7.8,0-14.1,6.3-14.1,14.1c0,7.7,6.3,14.1,14.1,14.1h130.7c7.8,0,14.1-6.3,14.1-14.1
			S243.65,339.4,235.85,339.4z"/>
	</g>
</g>
<g>
	<g>
		<path d="M197.05,252.2h-91.9c-7.8,0-14.1,6.3-14.1,14.1c0,7.8,6.3,14.1,14.1,14.1h91.9c7.8,0,14.1-6.3,14.1-14.1
			S204.85,252.2,197.05,252.2z"/>
	</g>
</g>
<g>
	<g>
		<path d="M197.05,165.1h-91.9c-7.8,0-14.1,6.3-14.1,14.1s6.3,14.1,14.1,14.1h91.9c7.8,0,14.1-6.3,14.1-14.1
			S204.85,165.1,197.05,165.1z"/>
	</g>
</g>
<g>
	<g>
		<path d="M402.75,78h-161.4c-7.8,0-14.1,6.3-14.1,14.1s6.3,14.1,14.1,14.1h161.3c7.8,0,14.1-6.3,14.1-14.1S410.55,78,402.75,78z"/>
	</g>
</g>
<g>
	<g>
		<path d="M319.45,133.4c-53.8,0-97.5,43.8-97.5,97.5c-0.2,36.9,20.6,69,51,85.5v80.2c0,5,2.5,10,7.1,12.2c3.8,1.9,10.8,1.9,14.1,0
			l25.2-14.6l25.2,14.6c4.4,2.5,9.7,2.5,14.1,0c4.4-2.5,7.1-7.2,7.1-12.2v-80.1c30.4-16.5,51.2-48.7,51.2-85.6
			C416.95,177.1,373.15,133.4,319.45,133.4z M319.25,363.8c-2.5,0-4.9,0.6-7.1,1.9l-11.1,6.4v-45.4c11.9,2.2,24.4,2.2,36.3,0v45.342
			l-11-6.342C324.15,364.4,321.75,363.8,319.25,363.8z M319.25,300.2c-38.2,0-69.3-31.1-69.3-69.3s31.1-69.3,69.3-69.3
			c38.2,0,69.3,31.1,69.3,69.3C388.55,269.1,357.45,300.2,319.25,300.2z"/>
	</g>
</g>
<g>
</g>
<g>
</g>
<g>
</g>
<g>
</g>
<g>
</g>
<g>
</g>
<g>
</g>
<g>
</g>
<g>
</g>
<g>
</g>
<g>
</g>
<g>
</g>
<g>
</g>
<g>
</g>
<g>
</g>
</svg>
