<?xml version="1.0" encoding="iso-8859-1"?>
<!-- Generator: Adobe Illustrator 19.0.0, SVG Export Plug-In . SVG Version: 6.00 Build 0)  -->
<svg version="1.1" id="Layer_1" xmlns="http://www.w3.org/2000/svg" xmlns:xlink="http://www.w3.org/1999/xlink" x="0px" y="0px"
	 viewBox="0 0 508 508" style="enable-background:new 0 0 508 508;" xml:space="preserve">
<g>
	<g>
		<path d="M493.9,479.8h-26.5V14.1c0-7.8-6.3-14.1-14.1-14.1c-7.8,0-14.1,6.3-14.1,14.1v60h-39.5V55.6c0-7.8-6.3-14.1-14.1-14.1
			c-7.8,0-14.1,6.3-14.1,14.1v18.5H344V55.6c0-7.8-6.3-14.1-14.1-14.1s-14.1,6.3-14.1,14.1v18.5h-61.1V55.6
			c0-7.8-6.3-14.1-14.1-14.1s-14.1,6.3-14.1,14.1v18.5h-76.7V55.6c0-7.8-6.3-14.1-14.1-14.1c-7.8,0-14.1,6.3-14.1,14.1v18.5H68.8
			v-60C68.8,6.3,62.5,0,54.7,0S40.6,6.3,40.6,14.1v465.7H14.1c-7.8,0-14.1,6.3-14.1,14.1c0,7.8,6.3,14.1,14.1,14.1h479.8
			c7.8,0,14.1-6.3,14.1-14.1C508,486.1,501.7,479.8,493.9,479.8z M438.9,479.8H68.8v-85.1h52.7v18.5c0,7.8,6.3,14.1,14.1,14.1
			c7.8,0,14.1-6.3,14.1-14.1v-18.5h76.7v18.5c0,7.8,6.3,14.1,14.1,14.1c7.8,0,14.1-6.3,14.1-14.1v-18.5h61.1v18.5
			c0,7.8,6.3,14.1,14.1,14.1c7.8,0,14.1-6.3,14.1-14.1v-18.5h27.3v18.5c0,7.8,6.3,14.1,14.1,14.1c7.8,0,14.1-6.3,14.1-14.1v-18.5
			h39.5V479.8z M438.9,366.5h-39.5V348c0.2-7.8-6.1-14.2-13.9-14.2s-14.1,6.3-14.1,14.1v18.5H344v-18.5c0-7.8-6.3-14.1-14.1-14.1
			s-14.1,6.3-14.1,14.1v18.5h-61.1v-18.5c0-7.8-6.3-14.1-14.1-14.1s-14.1,6.3-14.1,14.1v18.5h-76.7v-18.5c0-7.8-6.3-14.1-14.1-14.1
			c-7.8,0-14.1,6.3-14.1,14.1v18.5H68.8v-118h52.7V267c0,7.8,6.3,14.1,14.1,14.1c7.8,0,14.1-6.3,14.1-14.1v-18.5h76.7V267
			c0,7.8,6.3,14.1,14.1,14.1c7.8,0,14.1-6.3,14.1-14.1v-18.5h61.1V267c0,7.8,6.3,14.1,14.1,14.1c7.8,0,14.1-6.3,14.1-14.1v-18.5
			h27.3V267c0,7.8,6.3,14.1,14.1,14.1c7.8,0,14.1-6.3,14.1-14.1v-18.5h39.5V366.5z M439,220.3h-39.5v-18.5c0-7.8-6.3-14.1-14.1-14.1
			c-7.8,0-14.1,6.3-14.1,14.1v18.5H344v-18.5c0-7.8-6.3-14.1-14.1-14.1s-14.1,6.3-14.1,14.1v18.5h-61.1v-18.5
			c0-7.8-6.3-14.1-14.1-14.1s-14.1,6.3-14.1,14.1v18.5h-76.7v-18.5c0-7.8-6.3-14.1-14.1-14.1c-7.8,0-14.1,6.3-14.1,14.1v18.5H68.8
			v-118h52.8v18.5c0,7.8,6.3,14.1,14.1,14.1s14.1-6.3,14.1-14.1v-18.5h76.7v18.5c0,7.8,6.3,14.1,14.1,14.1c7.8,0,14.1-6.3,14.1-14.1
			v-18.5h61.1v18.5c0,7.8,6.3,14.1,14.1,14.1s14.1-6.3,14.1-14.1v-18.5h27.3v18.5c0,7.8,6.3,14.1,14.1,14.1s14.1-6.3,14.1-14.1
			v-18.5H439V220.3z"/>
	</g>
</g>
<g>
</g>
<g>
</g>
<g>
</g>
<g>
</g>
<g>
</g>
<g>
</g>
<g>
</g>
<g>
</g>
<g>
</g>
<g>
</g>
<g>
</g>
<g>
</g>
<g>
</g>
<g>
</g>
<g>
</g>
</svg>
