<?xml version="1.0" encoding="iso-8859-1"?>
<!-- Generator: Adobe Illustrator 19.0.0, SVG Export Plug-In . SVG Version: 6.00 Build 0)  -->
<svg version="1.1" id="Layer_1" xmlns="http://www.w3.org/2000/svg" xmlns:xlink="http://www.w3.org/1999/xlink" x="0px" y="0px"
	 viewBox="0 0 392.67 392.67" style="enable-background:new 0 0 392.67 392.67;" xml:space="preserve">
<g>
	<g>
		<circle cx="196.365" cy="125.931" r="10.925"/>
	</g>
</g>
<g>
	<g>
		<path d="M329.86,329.18l-71.693-170.537c5.172-9.762,8.146-20.881,8.146-32.711c0-26.893-15.321-50.295-37.624-61.996V32.388
			C228.753,14.545,214.208,0,196.365,0s-32.388,14.545-32.388,32.388v31.547c-22.303,11.636-37.624,35.103-37.624,61.996
			c0,11.83,2.909,22.885,8.146,32.711L62.806,329.18c-1.422,3.232-1.099,7.046,0.776,10.02l30.19,48.291
			c7.499,10.149,17.972,3.038,19.329-1.552l36.461-86.756h35.879v15.127c0,6.012,4.848,10.925,10.925,10.925
			c6.012,0,10.925-4.849,10.925-10.925v-15.127h35.879l36.461,86.756c5.689,11.507,17.261,5.43,19.329,1.552l30.19-48.291
			C330.959,336.226,331.282,332.412,329.86,329.18z M185.828,32.453c0-5.818,4.719-10.537,10.537-10.537s10.537,4.719,10.537,10.537
			v24.436c-3.491-0.517-6.982-0.84-10.537-0.84s-7.111,0.388-10.537,0.84V32.453z M196.365,77.77
			c26.57,0,48.162,21.657,48.162,48.162c0,26.57-21.657,48.162-48.162,48.162c-26.57,0-48.162-21.657-48.162-48.162
			C148.204,99.362,169.795,77.77,196.365,77.77z M101.141,358.141l-16.097-25.729l64.84-154.246
			c6.271,5.56,13.446,9.956,21.398,13.059L101.141,358.141z M207.29,277.398v-15.127c0-6.012-4.848-10.925-10.925-10.925
			s-10.925,4.848-10.925,10.925v15.127h-26.634l34.327-81.584c3.232,0.453,3.232,0.453,6.465,0l34.327,81.584H207.29z
			 M291.589,358.141l-70.206-166.853c7.952-3.038,15.127-7.499,21.398-13.059l64.84,154.182L291.589,358.141z"/>
	</g>
</g>
<g>
</g>
<g>
</g>
<g>
</g>
<g>
</g>
<g>
</g>
<g>
</g>
<g>
</g>
<g>
</g>
<g>
</g>
<g>
</g>
<g>
</g>
<g>
</g>
<g>
</g>
<g>
</g>
<g>
</g>
</svg>
