<?xml version="1.0" encoding="iso-8859-1"?>
<!-- Generator: Adobe Illustrator 19.0.0, SVG Export Plug-In . SVG Version: 6.00 Build 0)  -->
<svg version="1.1" id="Layer_1" xmlns="http://www.w3.org/2000/svg" xmlns:xlink="http://www.w3.org/1999/xlink" x="0px" y="0px"
	 viewBox="0 0 508.13 508.13" style="enable-background:new 0 0 508.13 508.13;" xml:space="preserve">
<g>
	<g>
		<path d="M480.369,340.178c-0.2-0.1-306-307.1-308.8-309.9c-13-13.1-30.9-19.5-50.5-18.2c-33.5,2.3-62.5,30.5-62.6,62.8
			c0,33.2,29.9,50.2,49.2,48.7c23.3-1.9,42.9-21.1,44.6-44.4c0.5-7.6-5.2-14.1-12.7-14.7c-7.5-0.5-14.1,5.1-14.7,12.7
			c-0.7,9.6-9.4,19.1-19.1,19c-12.5-0.2-20-11.7-19.8-20.4c0.4-18,17.9-34.1,37-36.3c27.1-3.1,40.9,21.5,39.3,39.3
			c-3,33.3-31.6,62.4-65,64.7c-20.2,1.4-38.6-5.1-51.6-18.2c-13-13.1-19.4-31.3-17.9-51.5c0.5-7.6-5.2-14.1-12.7-14.7
			c-7.6-0.4-14.3,5.2-14.8,12.8c-2,28.2,7.2,54,25.9,72.8c1.6,1.7,177.3,176.5,177.3,176.5c-10.8,0.9-21.6,3.6-29.6,10
			c-5.9,4.7-7.5,13.9-2.1,19.3c9.6,9.6,16.9,4,19.3,2.1c5-4,16.4-4.8,27.7-4c0,5.5-1.6,11.6-6.5,17.3c-5,5.7-4.4,14.4,1.3,19.4
			c2.7,2.4,10.7,7.4,19.4-1.3c6.6-6.6,9.7-14.5,11.6-21.9l107.1,106.6c28.4,28.4,84.3,44.2,128.5,0
			C522.069,426.778,512.469,372.278,480.369,340.178z M224.769,303.778l-133.3-132.8c55.5,6.2,94.1-45.7,97.4-83.8l121.8,121.9
			L224.769,303.778z M330.069,228.578l17.5,17.5l-92.3,65L330.069,228.578z M460.669,449.178c-24.7,24.7-65,24.6-89.8,0
			l-109.4-108.9l105.8-74.4l93.5,93.6C488.069,386.778,483.569,426.278,460.669,449.178z"/>
	</g>
</g>
<g>
</g>
<g>
</g>
<g>
</g>
<g>
</g>
<g>
</g>
<g>
</g>
<g>
</g>
<g>
</g>
<g>
</g>
<g>
</g>
<g>
</g>
<g>
</g>
<g>
</g>
<g>
</g>
<g>
</g>
</svg>
