<?xml version="1.0" encoding="iso-8859-1"?>
<!-- Generator: Adobe Illustrator 19.0.0, SVG Export Plug-In . SVG Version: 6.00 Build 0)  -->
<svg version="1.1" id="Layer_1" xmlns="http://www.w3.org/2000/svg" xmlns:xlink="http://www.w3.org/1999/xlink" x="0px" y="0px"
	 viewBox="0 0 508.037 508.037" style="enable-background:new 0 0 508.037 508.037;" xml:space="preserve">
<g>
	<g>
		<path d="M506.088,362.759c-0.5-3.8-2.5-7.3-5.6-9.6c-125.9-93.9-251.9-219.9-345.8-345.8c-2.3-3.1-5.8-5.1-9.6-5.6
			c-53.5-6.4-93.6,4.7-118.4,32.7c-22.3,25.2-30.7,62.4-24.9,110.7c0.5,3.8,2.5,7.3,5.6,9.6c56.3,42,112.5,90.4,166,142.3
			c-0.1,2.7-0.3,5.5-0.5,8.4c-23.4,2.2-49.3,9.9-62.9,31.3c-4.2,6.6-2.2,15.2,4.4,19.5c8.8,5.8,16.8-0.1,19.5-4.4
			c6.6-10.5,21.2-15.4,36.5-17.5c-2.3,20.1-5.7,39.5-10.3,48.6c-3.5,6.9-0.9,15.7,6.2,19c7.9,3.6,15.3,0.6,19-6.2
			c7.5-13.9,11.3-39.9,13.6-62.4c4.4,0.2,8.4,0.6,11.7,0.9c52,53.5,100.5,109.9,142.6,166.2c2.3,3.1,5.8,5.1,9.6,5.6
			c9.8,1.2,73.8,11.9,118.4-32.6C504.988,449.659,511.888,411.059,506.088,362.759z M180.888,265.159
			c-49.1-46.9-100.4-90.7-151.7-129.4c-3.5-36.9,2.7-64.7,18.7-82.7c17.4-19.7,47.2-27.8,88-23.9c37.9,50.3,80.8,100.6,126.6,148.8
			C240.388,194.159,197.988,228.459,180.888,265.159z M213.288,296.859c-3.4-3.5-6.9-6.9-10.4-10.3c8.1-31.3,53.6-69.6,79.3-88.1
			c8.8,9,17.7,17.9,26.6,26.7C282.188,238.359,234.388,265.159,213.288,296.859z M459.988,454.759c-17.4,19.7-47.2,27.8-88,23.9
			c-41.1-54.6-88-109.1-138.3-161.1c12-25.4,61.6-55.3,96.7-71.6c48.1,45.6,98.1,88.3,148.2,126
			C482.188,408.959,475.888,436.759,459.988,454.759z"/>
	</g>
</g>
<g>
</g>
<g>
</g>
<g>
</g>
<g>
</g>
<g>
</g>
<g>
</g>
<g>
</g>
<g>
</g>
<g>
</g>
<g>
</g>
<g>
</g>
<g>
</g>
<g>
</g>
<g>
</g>
<g>
</g>
</svg>
