<?xml version="1.0" encoding="iso-8859-1"?>
<!-- Generator: Adobe Illustrator 19.0.0, SVG Export Plug-In . SVG Version: 6.00 Build 0)  -->
<svg version="1.1" id="Layer_1" xmlns="http://www.w3.org/2000/svg" xmlns:xlink="http://www.w3.org/1999/xlink" x="0px" y="0px"
	 viewBox="0 0 508.14 508.14" style="enable-background:new 0 0 508.14 508.14;" xml:space="preserve">
<g>
	<g>
		<path d="M286.875,77.8h-216.4c-7.8,0-14.1,6.3-14.1,14.1c0,7.8,6.3,14.1,14.1,14.1h216.4c7.8,0,14.1-6.3,14.1-14.1
			C300.975,84.1,294.675,77.8,286.875,77.8z"/>
	</g>
</g>
<g>
	<g>
		<path d="M240.775,158.6h-170.3c-7.8,0-14.1,6.3-14.1,14.1c0,7.8,6.3,14.1,14.1,14.1h170.3c7.8,0,14.1-6.3,14.1-14.1
			C254.875,164.9,248.575,158.6,240.775,158.6z"/>
	</g>
</g>
<g>
	<g>
		<path d="M166.675,239.4h-96.2c-7.8,0-14.1,6.3-14.1,14.1c0,7.8,6.3,14.1,14.1,14.1h96.2c7.8,0,14.1-6.3,14.1-14.1
			C180.775,245.7,174.475,239.4,166.675,239.4z"/>
	</g>
</g>
<g>
	<g>
		<path d="M494.675,434.8l-68-68c7-15.3,10.9-32.2,10.9-50.1c0-52.4-33.6-97-80.4-113.6V42.2c0-23.3-19-42.2-42.3-42.2h-272.5
			c-23.3,0-42.3,18.9-42.3,42.2v282c0,11.3,4.4,21.9,12.4,29.9l67.8,67.9c8,8,18.6,12.4,29.9,12.4h179.6c8.7,2,17.8,3.2,27.1,3.2
			c17.9,0,34.7-4,50-11l68.1,68.1c16.7,16.7,40.6,19.1,59.7,0C512.975,476.3,512.075,452.2,494.675,434.8z M84.475,386.3h-0.1
			l-36.2-36.3h36.3V386.3z M112.575,406.1v-70.2c0-7.8-6.3-14.1-14.1-14.1h-70.2V42.2c0-7.8,6.3-14.1,14.1-14.1h272.7
			c7.8,0,14.1,6.3,14.1,14.1v154.4c-4-0.4-8.1-0.6-12.2-0.6c-66.6,0-120.8,54.2-120.8,120.7c0,35.5,15.5,67.3,39.9,89.4H112.575z
			 M316.875,409.3c-51.1,0-92.6-41.5-92.6-92.6c0-51.1,41.5-92.6,92.6-92.6c51.1,0,92.6,41.5,92.6,92.6
			C409.475,367.8,367.975,409.3,316.875,409.3z M474.775,474.6c-5.3,5.3-14.6,5.3-19.9,0l-63.2-63.2c7.4-5.8,14.1-12.5,19.9-19.9
			l63.2,63.2C480.575,460.5,480.375,469.1,474.775,474.6z"/>
	</g>
</g>
<g>
</g>
<g>
</g>
<g>
</g>
<g>
</g>
<g>
</g>
<g>
</g>
<g>
</g>
<g>
</g>
<g>
</g>
<g>
</g>
<g>
</g>
<g>
</g>
<g>
</g>
<g>
</g>
<g>
</g>
</svg>
