<?xml version="1.0" encoding="iso-8859-1"?>
<!-- Generator: Adobe Illustrator 19.0.0, SVG Export Plug-In . SVG Version: 6.00 Build 0)  -->
<svg version="1.1" id="Layer_1" xmlns="http://www.w3.org/2000/svg" xmlns:xlink="http://www.w3.org/1999/xlink" x="0px" y="0px"
	 viewBox="0 0 507.921 507.921" style="enable-background:new 0 0 507.921 507.921;" xml:space="preserve">
<g>
	<g>
		<path d="M434.776,0.17c-7.6-1.2-14.9,4.1-16,11.8l-36.9,240.2c-3.1,20.4-16.2,36.8-33.8,44.8l-5.1-36.3
			c-2.7-20.2-20-35.4-40.4-35.4h-149.8c-20.4,0-37.8,15.2-40.4,35.3l-5.8,41.7h-31.3c-7.8,0-14.1,6.3-14.1,14.1
			c0,7.8,6.3,14.1,14.1,14.1h27.4l-22.5,161.4c-1.1,7.7,4.3,14.8,12,15.9c7.6,1.1,14.8-4.3,15.9-12l11.2-80.4h216.7l11.2,80.4
			c1,7.1,8.6,13.2,15.9,12c7.7-1.2,13.1-8.2,12-15.9l-23.1-166.2c30-10.2,52.6-36.2,57.7-69.2l36.9-240.3
			C447.776,8.47,442.476,1.27,434.776,0.17z M140.376,264.369c0.8-6.2,6.2-10.9,12.4-10.9h149.7c6.3,0,11.6,4.7,12.5,11l5.3,37.8
			h-185.2L140.376,264.369z M123.276,387.27l7.9-56.8h192.4c0.2,0,0.4,0,0.7,0l7.9,56.8H123.276z"/>
	</g>
</g>
<g>
</g>
<g>
</g>
<g>
</g>
<g>
</g>
<g>
</g>
<g>
</g>
<g>
</g>
<g>
</g>
<g>
</g>
<g>
</g>
<g>
</g>
<g>
</g>
<g>
</g>
<g>
</g>
<g>
</g>
</svg>
