<?xml version="1.0" encoding="iso-8859-1"?>
<!-- Generator: Adobe Illustrator 19.0.0, SVG Export Plug-In . SVG Version: 6.00 Build 0)  -->
<svg version="1.1" id="Layer_1" xmlns="http://www.w3.org/2000/svg" xmlns:xlink="http://www.w3.org/1999/xlink" x="0px" y="0px"
	 viewBox="0 0 508 508" style="enable-background:new 0 0 508 508;" xml:space="preserve">
<g>
	<g>
		<path d="M404.2,355.6V28.2c7.7-0.1,13.9-6.4,13.9-14.1C418.1,6.3,411.8,0,404,0H104c-7.8,0-14.1,6.3-14.1,14.1
			c0,7.7,6.2,14,13.9,14.1v327.4c-7.7,0.1-13.9,6.4-13.9,14.1c0,7.8,6.3,14.1,14.1,14.1h71.8l23.6,78.1
			c-16.4,4.6-32.3,11.2-47.2,19.7c-6.8,3.9-9.1,12.5-5.2,19.3c2.6,4.5,7.4,7.1,12.3,7.1c2.4,0,39.9-25.4,94.8-25.4
			c30.6,0,61,8.1,87.8,23.5c6.8,3.9,15.4,1.5,19.3-5.2c3.9-6.8,1.5-15.4-5.2-19.3c-14.9-8.6-30.9-15-47.3-19.6l23.6-78.2H404
			c7.8,0,14.1-6.3,14.1-14.1C418.1,362,411.9,355.7,404.2,355.6z M280.9,456.2c-17.9-2.4-35.9-2.4-53.7,0l-21.8-72.3h97.4
			L280.9,456.2z M376,355.6H132V28.2h244V355.6z"/>
	</g>
</g>
<g>
</g>
<g>
</g>
<g>
</g>
<g>
</g>
<g>
</g>
<g>
</g>
<g>
</g>
<g>
</g>
<g>
</g>
<g>
</g>
<g>
</g>
<g>
</g>
<g>
</g>
<g>
</g>
<g>
</g>
</svg>
