<?xml version="1.0" encoding="iso-8859-1"?>
<!-- Generator: Adobe Illustrator 19.0.0, SVG Export Plug-In . SVG Version: 6.00 Build 0)  -->
<svg version="1.1" id="Layer_1" xmlns="http://www.w3.org/2000/svg" xmlns:xlink="http://www.w3.org/1999/xlink" x="0px" y="0px"
	 viewBox="0 0 392.581 392.581" style="enable-background:new 0 0 392.581 392.581;" xml:space="preserve">
<g>
	<g>
		<path d="M391.671,137.064L335.041,6.543c-2.392-5.56-8.792-8.016-14.352-5.624l-55.467,24.113
			c-2.651,1.164-8.857,5.236-5.624,14.352l3.103,7.111L60.229,155.553c-4.784,2.521-6.853,8.275-5.042,13.317L6.572,189.945
			c-8.404,4.396-6.788,11.766-5.624,14.352l18.23,41.956c5.107,8.857,12.994,6.271,14.352,5.624l48.679-21.075
			c1.875,3.685,5.624,6.012,9.632,6.012c1.164,0,102.4-33.939,102.4-33.939v28.121h-29.802c-6.012,0-10.925,4.848-10.925,10.925
			c0,6.012,4.849,10.925,10.925,10.925h8.986l-55.337,124.509c-2.457,5.495-0.065,12.218,5.56,14.352
			c4.461,1.745,11.572,0.776,14.352-5.56l56.242-126.642v95.289c0,6.012,4.848,10.925,10.925,10.925
			c6.012,0,10.925-4.849,10.925-10.925v-95.224l56.242,126.642c2.651,5.301,8.598,7.758,14.352,5.56
			c5.624-2.069,7.952-8.857,5.56-14.352l-55.337-124.509h8.792c6.012,0,10.925-4.848,10.925-10.925
			c0-6.012-4.848-10.925-10.925-10.925h-29.802v-35.556l97.034-32.776l3.103,7.111c1.745,4.073,6.335,7.758,14.352,5.624
			l55.467-24.113C391.606,149.088,394.063,142.624,391.671,137.064z M34.823,227.569l-9.503-21.915l38.529-16.743l9.503,21.915
			L34.823,227.569z M97.788,212.377l-18.295-42.214l-0.065-0.259l191.935-103.37l33.034,76.089L97.788,212.377z M331.873,151.222
			L283.905,40.741l35.556-15.451l47.968,110.481L331.873,151.222z"/>
	</g>
</g>
<g>
</g>
<g>
</g>
<g>
</g>
<g>
</g>
<g>
</g>
<g>
</g>
<g>
</g>
<g>
</g>
<g>
</g>
<g>
</g>
<g>
</g>
<g>
</g>
<g>
</g>
<g>
</g>
<g>
</g>
</svg>
