<?xml version="1.0" encoding="iso-8859-1"?>
<!-- Generator: Adobe Illustrator 19.0.0, SVG Export Plug-In . SVG Version: 6.00 Build 0)  -->
<svg version="1.1" id="Layer_1" xmlns="http://www.w3.org/2000/svg" xmlns:xlink="http://www.w3.org/1999/xlink" x="0px" y="0px"
	 viewBox="0 0 508.013 508.013" style="enable-background:new 0 0 508.013 508.013;" xml:space="preserve">
<g>
	<g>
		<path d="M448.114,249.606c2.2-9.4,4.3-18.8,6.2-28.5c0.8-4.1,0.1-16.9-13.9-16.9h-426.3c-13.9,0-14.7,12.8-13.9,16.9
			c22.5,110.4,57.8,200.6,100.6,258.7h-67.5c-7.8,0-14.1,6.3-14.1,14.1s6.3,14.1,14.1,14.1h387.9c7.8,0,14.1-6.3,14.1-14.1
			c0-7.8-6.3-14.1-14.1-14.1h-67.5c12.6-17.1,24.6-37.1,35.8-59.6c49.7-1.5,100-36.5,115.1-81.1
			C515.014,308.206,503.014,251.206,448.114,249.606z M317.514,479.806h-180.5c-44.1-50-81.2-137.1-105.5-247.3h391.5
			C398.814,342.706,361.714,429.706,317.514,479.806z M477.814,330.006c-9.8,28.7-41.7,53.5-74.4,60.3
			c14.3-33.5,27.1-71.5,37.9-113.1C480.514,277.706,482.614,316.006,477.814,330.006z"/>
	</g>
</g>
<g>
	<g>
		<path d="M146.714,28.106c-7.8,0-14.1,6.3-14.1,14.1v56.2c-0.1,7.8,6.2,14.1,14.1,14.1c7.8,0,14.1-6.3,14.1-14.1v-56.2
			C160.814,34.406,154.514,28.106,146.714,28.106z"/>
	</g>
</g>
<g>
	<g>
		<path d="M227.214,0.006c-7.8,0-14.1,6.3-14.1,14.1v56.2c0,7.8,6.3,14.1,14.1,14.1s14.1-6.3,14.1-14.1v-56.2
			C241.414,6.306,235.014,0.006,227.214,0.006z"/>
	</g>
</g>
<g>
	<g>
		<path d="M307.814,28.106c-7.8,0-14.1,6.3-14.1,14.1v56.2c0,7.8,6.3,14.1,14.1,14.1s14.1-6.3,14.1-14.1v-56.2
			C321.914,34.406,315.614,28.106,307.814,28.106z"/>
	</g>
</g>
<g>
</g>
<g>
</g>
<g>
</g>
<g>
</g>
<g>
</g>
<g>
</g>
<g>
</g>
<g>
</g>
<g>
</g>
<g>
</g>
<g>
</g>
<g>
</g>
<g>
</g>
<g>
</g>
<g>
</g>
</svg>
