<?xml version="1.0" encoding="iso-8859-1"?>
<!-- Generator: Adobe Illustrator 19.0.0, SVG Export Plug-In . SVG Version: 6.00 Build 0)  -->
<svg version="1.1" id="Layer_1" xmlns="http://www.w3.org/2000/svg" xmlns:xlink="http://www.w3.org/1999/xlink" x="0px" y="0px"
	 viewBox="0 0 392.551 392.551" style="enable-background:new 0 0 392.551 392.551;" xml:space="preserve">
<g>
	<g>
		<path d="M362.344,73.52c-32.517-28.703-72.081-45.188-108.412-45.188c-7.434,0-14.545,0.776-21.398,2.133l-15.321-15.321
			c-13.964-13.964-42.99-25.6-68.525,0c-26.376,26.376-13.964,54.562,0,68.525L160,94.983l-91.152,91.151
			c-3.038-0.905-6.206-1.422-9.503-1.422c-18.489,0-33.487,14.998-33.487,33.487c0,18.489,14.998,33.487,33.487,33.487
			c3.297,0,6.465-0.453,9.503-1.422l70.788,70.917c-35.556,6.4-65.358,26.893-79.386,55.79c-1.616,3.426-3.232,13.705,9.762,15.58
			h187.41c12.218-1.228,11.442-12.218,9.762-15.58c-7.628-15.774-20.04-28.962-35.362-38.852v-13.576
			c0-6.012-4.848-10.925-10.925-10.925s-10.925,4.848-10.925,10.925v2.78c-12.929-4.849-26.958-7.628-41.697-8.21l-81.648-81.519
			c3.814-5.43,6.077-12.024,6.077-19.135c0-7.111-2.263-13.77-6.077-19.135l73.891-73.891
			c0.905,34.263,16.356,72.081,45.253,104.857c2.004,2.263,8.21,8.21,15.838,0.453l36.396-36.396
			c19.717,12.347,45.964,9.115,61.802-6.723c16.743-16.743,19.006-42.602,6.788-61.802l36.331-36.331
			C370.554,81.73,364.606,75.589,362.344,73.52z M236.994,370.959H90.311c16.614-18.489,43.96-30.125,73.309-30.125
			C192.97,340.833,220.38,352.405,236.994,370.959z M59.216,230.094c-6.465,0-11.766-5.236-11.766-11.766
			c0-6.465,5.236-11.766,11.766-11.766s11.766,5.236,11.766,11.766C70.917,224.858,65.681,230.094,59.216,230.094z M164.073,68.478
			c-5.042-5.042-15.515-22.238,0-37.818c15.127-15.127,32.776-5.042,37.818,0l7.499,7.499c-8.21,4.073-15.515,9.438-22.044,15.838
			c-6.4,6.4-11.766,13.834-15.838,21.915L164.073,68.478z M304.356,172.171c-8.21,8.21-20.234,10.214-30.384,6.077l36.461-36.461
			C314.57,151.872,312.566,163.961,304.356,172.171z M214.562,206.821c-37.172-48.032-43.184-106.667-12.735-137.18
			c30.707-30.707,87.143-22.885,137.18,12.735L214.562,206.821z"/>
	</g>
</g>
<g>
</g>
<g>
</g>
<g>
</g>
<g>
</g>
<g>
</g>
<g>
</g>
<g>
</g>
<g>
</g>
<g>
</g>
<g>
</g>
<g>
</g>
<g>
</g>
<g>
</g>
<g>
</g>
<g>
</g>
</svg>
