<?xml version="1.0" encoding="iso-8859-1"?>
<!-- Generator: Adobe Illustrator 19.0.0, SVG Export Plug-In . SVG Version: 6.00 Build 0)  -->
<svg version="1.1" id="Layer_1" xmlns="http://www.w3.org/2000/svg" xmlns:xlink="http://www.w3.org/1999/xlink" x="0px" y="0px"
	 viewBox="0 0 392.502 392.502" style="enable-background:new 0 0 392.502 392.502;" xml:space="preserve">
<g>
	<g>
		<path d="M391.699,340.348l-31.612-77.059V48.081c0-6.012-4.849-10.925-10.925-10.925H43.319c-6.012,0-10.925,4.849-10.925,10.925
			v215.144L0.846,340.348c-1.422,3.426-1.034,7.176,1.034,10.214c2.004,3.038,5.43,4.784,9.05,4.784h370.747
			c3.62,0,7.046-1.745,9.05-4.784C392.668,347.524,393.056,343.645,391.699,340.348z M54.244,59.071h284.057v195.491H54.244V59.071z
			 M27.222,333.56l23.467-57.277h291.232l23.467,57.277H27.222z"/>
	</g>
</g>
<g>
	<g>
		<path d="M219.998,294.061h-47.451c-6.012,0-10.925,4.848-10.925,10.925c0,6.012,4.849,10.925,10.925,10.925h47.451
			c6.012,0,10.925-4.849,10.925-10.925S226.01,294.061,219.998,294.061z"/>
	</g>
</g>
<g>
	<g>
		<path d="M265.638,120.873l-65.293-26.634c-2.651-1.099-5.624-1.099-8.275,0l-65.293,26.634c-4.073,1.681-6.788,5.624-6.788,10.15
			c0,4.396,2.715,8.404,6.788,10.149l16.873,6.853v56.436c0,6.012,4.848,10.925,10.925,10.925h83.2
			c6.012,0,10.925-4.849,10.925-10.925v-56.436l16.873-6.853c4.073-1.681,6.788-5.624,6.788-10.149
			C272.491,126.562,269.775,122.619,265.638,120.873z M227.044,193.536H165.63v-36.655l26.57,10.925
			c4.073,1.293,4.073,1.293,8.275,0l26.57-10.925V193.536z M196.272,145.956l-36.461-14.933l36.461-14.933l36.461,14.933
			L196.272,145.956z"/>
	</g>
</g>
<g>
</g>
<g>
</g>
<g>
</g>
<g>
</g>
<g>
</g>
<g>
</g>
<g>
</g>
<g>
</g>
<g>
</g>
<g>
</g>
<g>
</g>
<g>
</g>
<g>
</g>
<g>
</g>
<g>
</g>
</svg>
