<?xml version="1.0" encoding="iso-8859-1"?>
<!-- Generator: Adobe Illustrator 19.0.0, SVG Export Plug-In . SVG Version: 6.00 Build 0)  -->
<svg version="1.1" id="Layer_1" xmlns="http://www.w3.org/2000/svg" xmlns:xlink="http://www.w3.org/1999/xlink" x="0px" y="0px"
	 viewBox="0 0 508.023 508.023" style="enable-background:new 0 0 508.023 508.023;" xml:space="preserve">
<g>
	<g>
		<path d="M502.915,274.353l-64.2-64.2c-5.5-5.5-14.4-5.5-19.9,0l-155.1,155c-45.4,45.4-99.2,20.4-119.6,0
			c-20.3-20.3-45.8-73.8,0-119.6l155.1-155c5.5-5.5,5.5-14.4,0-19.9l-64.2-64.2c-2.6-2.6-9.9-9.9-19.9,0l-155.1,155
			c-101.4,116.1-55.4,232.4,0,287.9c49.4,49.4,171.9,99.3,287.8,0l155.1-155.1C512.915,284.253,505.615,276.953,502.915,274.353z
			 M225.115,36.253l44.3,44.3l-26,26l-44.3-44.3L225.115,36.253z M328.015,429.453c-61.3,61.3-175.2,72.8-248,0
			c-72.9-72.9-64.9-183.1,0-248l99.2-99.2l44.3,44.3l-99.2,99.2c-47.5,47.5-45.1,114.2,0,159.4c44.8,44.8,114.4,45,159.4,0
			l99.2-99.2l44.3,44.3L328.015,429.453z M447.115,310.253l-44.3-44.3l26-26l44.3,44.3L447.115,310.253z"/>
	</g>
</g>
<g>
</g>
<g>
</g>
<g>
</g>
<g>
</g>
<g>
</g>
<g>
</g>
<g>
</g>
<g>
</g>
<g>
</g>
<g>
</g>
<g>
</g>
<g>
</g>
<g>
</g>
<g>
</g>
<g>
</g>
</svg>
