<?xml version="1.0" encoding="iso-8859-1"?>
<!-- Generator: Adobe Illustrator 19.0.0, SVG Export Plug-In . SVG Version: 6.00 Build 0)  -->
<svg version="1.1" id="Capa_1" xmlns="http://www.w3.org/2000/svg" xmlns:xlink="http://www.w3.org/1999/xlink" x="0px" y="0px"
	 viewBox="0 0 423 423" style="enable-background:new 0 0 423 423;" xml:space="preserve">
<g>
	<g>
		<path d="M400.2,0H22.8c-5.5,0-10,4.5-10,10s4.5,10,10,10h377.4c5.5,0,10-4.5,10-10S405.7,0,400.2,0z"/>
	</g>
</g>
<g>
	<g>
		<path d="M247.5,32h-73c-5.5,0-10,4.5-10,10v89c0,5.5,4.5,10,10,10h73c5.5,0,10-4.5,10-10V42C257.5,36.5,253,32,247.5,32z
			 M238.5,121h-54V52h54V121z"/>
	</g>
</g>
<g>
	<g>
		<path d="M247.5,241h-73c-5.5,0-10,4.5-10,10v162c0,5.5,4.5,10,10,10h73c5.5,0,10-4.5,10-10V251C257.5,245.5,253,241,247.5,241z
			 M238.5,404h-54V261h54V404z"/>
	</g>
</g>
<g>
	<g>
		<path d="M400.2,210H22.8c-5.5,0-10,4.5-10,10s4.5,10,10,10h377.4c5.5,0,10-4.5,10-10S405.7,210,400.2,210z"/>
	</g>
</g>
<g>
</g>
<g>
</g>
<g>
</g>
<g>
</g>
<g>
</g>
<g>
</g>
<g>
</g>
<g>
</g>
<g>
</g>
<g>
</g>
<g>
</g>
<g>
</g>
<g>
</g>
<g>
</g>
<g>
</g>
</svg>
