<?xml version="1.0" encoding="iso-8859-1"?>
<!-- Generator: Adobe Illustrator 19.0.0, SVG Export Plug-In . SVG Version: 6.00 Build 0)  -->
<svg version="1.1" id="Capa_1" xmlns="http://www.w3.org/2000/svg" xmlns:xlink="http://www.w3.org/1999/xlink" x="0px" y="0px"
	 viewBox="0 0 502.4 502.4" style="enable-background:new 0 0 502.4 502.4;" xml:space="preserve">
<g>
	<g>
		<path d="M492.3,241.7h-71.1v-72.8c-0.1-5.6-4.8-10.1-10.4-10c-2.2,0-4.4,0.8-6.1,2.2l-102,82.8c-4.3,3.5-5,9.8-1.5,14
			c0.4,0.5,0.9,1,1.5,1.5l101.9,82.8c1.8,1.4,4,2.2,6.3,2.2c1.5,0,3.1-0.3,4.5-1c3.5-1.6,5.8-5.1,5.9-9v-72.7h71.1
			c5.5,0,10-4.5,10-10C502.3,246.2,497.8,241.7,492.3,241.7z M401.2,313.5l-76-61.8l76-61.8V313.5z"/>
	</g>
</g>
<g>
	<g>
		<path d="M272.2,52.7h-42c-5.5,0-10,4.5-10,10v377c0,5.5,4.5,10,10,10h42c5.5,0,10-4.5,10-10v-377
			C282.2,57.2,277.7,52.7,272.2,52.7z M262.2,430.7h-22v-358h22V430.7z"/>
	</g>
</g>
<g>
	<g>
		<path d="M201.2,245.4c-0.4-0.5-0.9-1-1.5-1.5L97.8,161.2c-3.1-2.4-7.2-2.9-10.8-1.3c-3.5,1.6-5.8,5.1-5.9,9v72.8H10
			c-5.5,0-10,4.5-10,10s4.5,10,10,10h71.2v72.8c0.1,3.9,2.3,7.4,5.9,9c1.4,0.6,2.9,1,4.4,1c2.3,0,4.6-0.8,6.3-2.2l101.9-82.8
			C204,256,204.7,249.7,201.2,245.4z M101.2,313.5V189.9l76,61.8L101.2,313.5z"/>
	</g>
</g>
<g>
</g>
<g>
</g>
<g>
</g>
<g>
</g>
<g>
</g>
<g>
</g>
<g>
</g>
<g>
</g>
<g>
</g>
<g>
</g>
<g>
</g>
<g>
</g>
<g>
</g>
<g>
</g>
<g>
</g>
</svg>
