<?xml version="1.0" encoding="iso-8859-1"?>
<!-- Generator: Adobe Illustrator 19.0.0, SVG Export Plug-In . SVG Version: 6.00 Build 0)  -->
<svg version="1.1" id="Capa_1" xmlns="http://www.w3.org/2000/svg" xmlns:xlink="http://www.w3.org/1999/xlink" x="0px" y="0px"
	 viewBox="0 0 375.225 375.225" style="enable-background:new 0 0 375.225 375.225;" xml:space="preserve">
<g>
	<g>
		<path d="M285.125,132.5l-42.3-42.4c-3.9-3.9-10.2-3.9-14.1,0l-51.7,51.6L2.925,315.8c-3.9,3.9-3.9,10.2,0,14.1l42.4,42.4
			c3.9,3.9,10.2,3.9,14.1,0l225.7-225.7C289.025,142.7,289.025,136.4,285.125,132.5z M52.425,351.1l-28.2-28.2l160-160l28.2,28.2
			L52.425,351.1z M226.525,177l-28.2-28.2l37.4-37.4l28.2,28.2L226.525,177z"/>
	</g>
</g>
<g>
	<g>
		<path d="M343.225,33.1c-3.9-3.9-10.2-3.9-14.1,0l-36.8,36.8c-3.9,3.9-3.9,10.2,0,14.1c1.8,1.8,4.3,2.9,7,2.9s5.2-1.1,7.1-2.9
			l36.8-36.8C347.125,43.3,347.125,37,343.225,33.1z"/>
	</g>
</g>
<g>
	<g>
		<path d="M365.225,109.6h-52.1c-5.5,0-10,4.5-10,10s4.5,10,10,10h52.1c5.5,0,10-4.5,10-10S370.725,109.6,365.225,109.6z"/>
	</g>
</g>
<g>
	<g>
		<path d="M343.125,187.7l-36.8-36.8c-3.9-3.9-10.2-3.9-14.1,0c-3.9,3.9-3.9,10.2,0,14.1l36.8,36.8c3.9,3.9,10.2,3.9,14.1,0
			C347.025,197.9,347.025,191.6,343.125,187.7z"/>
	</g>
</g>
<g>
	<g>
		<path d="M225.225,69.9l-36.8-36.8c-3.9-3.9-10.2-3.9-14.1,0c-3.9,3.9-3.9,10.2,0,14.1l36.8,36.8c3.9,3.9,10.2,3.9,14.1,0
			C229.125,80.1,229.125,73.8,225.225,69.9z"/>
	</g>
</g>
<g>
	<g>
		<path d="M255.625,0c-5.5,0-10,4.5-10,10v52.1c0,5.5,4.5,10,10,10s10-4.5,10-10V10C265.625,4.5,261.125,0,255.625,0z"/>
	</g>
</g>
<g>
</g>
<g>
</g>
<g>
</g>
<g>
</g>
<g>
</g>
<g>
</g>
<g>
</g>
<g>
</g>
<g>
</g>
<g>
</g>
<g>
</g>
<g>
</g>
<g>
</g>
<g>
</g>
<g>
</g>
</svg>
