<?xml version="1.0" encoding="iso-8859-1"?>
<!-- Generator: Adobe Illustrator 19.0.0, SVG Export Plug-In . SVG Version: 6.00 Build 0)  -->
<svg version="1.1" id="Capa_1" xmlns="http://www.w3.org/2000/svg" xmlns:xlink="http://www.w3.org/1999/xlink" x="0px" y="0px"
	 viewBox="0 0 414.401 414.401" style="enable-background:new 0 0 414.401 414.401;" xml:space="preserve">
<g>
	<g>
		<path d="M212.801,54.2h-184.3c-15.8,0-28.5,12.8-28.5,28.6c0,0.1,0,0.2,0,0.2v133.6c-0.1,15.7,12.5,28.5,28.1,28.6
			c0.1,0,0.3,0,0.4,0h184.3c16,0,29.2-12.7,29.2-28.6V83C242.001,67.1,228.801,54.2,212.801,54.2z M28.501,225.2
			c-4.6,0.1-8.4-3.6-8.5-8.2c0-0.1,0-0.3,0-0.4v-53.2l68.5,35.6l-36.9,26.2H28.501z M222.001,216.6c0,4.9-4.3,8.6-9.2,8.6h-126.9
			l77.7-55.5l58.4,26.7V216.6z M222.001,174.4l-55.4-25.2c-3.3-1.5-7.1-1.1-10,1l-49.8,35.9l-86.8-45.2V83c-0.2-4.7,3.5-8.6,8.2-8.8
			c0.1,0,0.2,0,0.3,0h184.3c5-0.1,9.1,3.8,9.2,8.8V174.4z"/>
	</g>
</g>
<g>
	<g>
		<path d="M95.201,87.3c-19.6,0-35.5,15.9-35.5,35.5c0,19.6,15.9,35.5,35.5,35.5c19.6-0.1,35.5-15.9,35.5-35.5
			C130.701,103.2,114.801,87.3,95.201,87.3z M110.701,122.8c0,8.5-7,15.5-15.5,15.5c-8.6,0-15.6-6.9-15.6-15.5
			c0-8.6,6.9-15.6,15.5-15.6c8.6,0,15.6,6.9,15.6,15.5C110.701,122.7,110.701,122.7,110.701,122.8z"/>
	</g>
</g>
<g>
	<g>
		<path d="M404.401,51.2h-125.3c-5.5,0-10,4.5-10,10s4.5,10,10,10h125.2c5.5,0,10-4.5,10-10S409.901,51.2,404.401,51.2z"/>
	</g>
</g>
<g>
	<g>
		<path d="M404.401,124.2h-125.3c-5.5,0-10,4.5-10,10s4.5,10,10,10h125.2c5.5,0,10-4.5,10-10S409.901,124.2,404.401,124.2z"/>
	</g>
</g>
<g>
	<g>
		<path d="M404.401,197.2h-125.3c-5.5,0-10,4.5-10,10s4.5,10,10,10h125.2c5.5,0,10-4.5,10-10
			C414.401,201.7,409.901,197.2,404.401,197.2z"/>
	</g>
</g>
<g>
	<g>
		<path d="M404.401,270.2h-334c-5.5,0-10,4.5-10,10s4.5,10,10,10h334c5.5,0,10-4.5,10-10S409.901,270.2,404.401,270.2z"/>
	</g>
</g>
<g>
	<g>
		<path d="M404.401,343.2h-334c-5.5,0-10,4.5-10,10s4.5,10,10,10h334c5.5,0,10-4.5,10-10S409.901,343.2,404.401,343.2z"/>
	</g>
</g>
<g>
</g>
<g>
</g>
<g>
</g>
<g>
</g>
<g>
</g>
<g>
</g>
<g>
</g>
<g>
</g>
<g>
</g>
<g>
</g>
<g>
</g>
<g>
</g>
<g>
</g>
<g>
</g>
<g>
</g>
</svg>
