<?xml version="1.0" encoding="iso-8859-1"?>
<!-- Generator: Adobe Illustrator 19.0.0, SVG Export Plug-In . SVG Version: 6.00 Build 0)  -->
<svg version="1.1" id="Capa_1" xmlns="http://www.w3.org/2000/svg" xmlns:xlink="http://www.w3.org/1999/xlink" x="0px" y="0px"
	 viewBox="0 0 424 424" style="enable-background:new 0 0 424 424;" xml:space="preserve">
<g>
	<g>
		<path d="M382,165h-89c-5.5,0-10,4.5-10,10v73c0,5.5,4.5,10,10,10h89c5.5,0,10-4.5,10-10v-73C392,169.5,387.5,165,382,165z
			 M372,239h-69v-54h69V239z"/>
	</g>
</g>
<g>
	<g>
		<path d="M414,13.3c-5.5,0-10,4.5-10,10v377.4c0,5.5,4.5,10,10,10s10-4.5,10-10V23.3C424,17.8,419.5,13.3,414,13.3z"/>
	</g>
</g>
<g>
	<g>
		<path d="M172,165H10c-5.5,0-10,4.5-10,10v73c0,5.5,4.5,10,10,10h162c5.5,0,10-4.5,10-10v-73C182,169.5,177.5,165,172,165z
			 M163,239H20v-54h143V239z"/>
	</g>
</g>
<g>
	<g>
		<path d="M204,13.3c-5.5,0-10,4.5-10,10v377.4c0,5.5,4.5,10,10,10s10-4.5,10-10V23.3C214,17.8,209.5,13.3,204,13.3z"/>
	</g>
</g>
<g>
</g>
<g>
</g>
<g>
</g>
<g>
</g>
<g>
</g>
<g>
</g>
<g>
</g>
<g>
</g>
<g>
</g>
<g>
</g>
<g>
</g>
<g>
</g>
<g>
</g>
<g>
</g>
<g>
</g>
</svg>
