<?xml version="1.0" encoding="iso-8859-1"?>
<!-- Generator: Adobe Illustrator 19.0.0, SVG Export Plug-In . SVG Version: 6.00 Build 0)  -->
<svg version="1.1" id="Capa_1" xmlns="http://www.w3.org/2000/svg" xmlns:xlink="http://www.w3.org/1999/xlink" x="0px" y="0px"
	 viewBox="0 0 348.676 348.676" style="enable-background:new 0 0 348.676 348.676;" xml:space="preserve">
<g>
	<g>
		<g>
			<path d="M307.876,170.8C307.975,170.7,307.876,170.7,307.876,170.8L307.876,170.8z"/>
			<path d="M315.675,112.6l16.7-16.5c10.4-10.5,16.3-24.7,16.3-39.5c0-31-25.1-56.2-56.1-56.2c-14.8,0-29,5.8-39.5,16.2l-17,16.8
				l-5.8-5.8c-18.1-18.1-47.5-18.1-65.6,0c-14.7,14.7-17.8,37.5-7.6,55.7l-111.6,111.5l-0.1,0.1c-10.1,10.4-17.3,21.7-21.5,33.5
				c-5.1,14.9-5,29.9,0.3,44l-13.3,13.3c-14.4,14.2-14.5,37.4-0.3,51.7c14.2,14.4,37.4,14.5,51.7,0.3c0.1-0.1,0.2-0.2,0.3-0.3
				l13.3-13.3c12.2,4.8,25.6,5.6,38.3,2.2c13.9-3.6,27.5-11.7,39.4-23.6l64.2-64.2l47.2-47.2c21.8,13.4,50.4,6.6,63.8-15.2
				c11.3-18.3,8.5-41.9-6.7-57.1L315.675,112.6z M266.975,30.9c14.1-14.1,37-14,51.1,0.1c14.1,14.1,14.2,36.9,0.1,51l-16.7,16.8
				l-51.3-51.3L266.975,30.9z M139.476,288.6c-19.3,19.3-42.1,24.9-60.9,14.7c-3.9-2.1-8.7-1.4-11.8,1.8l-18.2,18.3
				c-6.4,6.5-16.9,6.7-23.4,0.3c-6.5-6.4-6.7-16.9-0.3-23.4c0.1-0.1,0.2-0.2,0.3-0.3l18.2-18.2c3.1-3.1,3.8-7.9,1.8-11.8
				c-4.6-8.7-6.1-18.8-4.1-28.5h145.6L139.476,288.6z M206.576,221.4h-157.1c3.1-4.5,6.5-8.7,10.3-12.6l110.3-110.3l79.9,79.7
				L206.576,221.4z M307.876,170.8c-4.9,5-11.7,7.8-18.7,7.8c-6.2,0-12.2-2.2-16.9-6.2c-0.7-1-1.7-1.9-2.8-2.6l-90.7-90.7l-0.1-0.1
				c-0.4-0.6-0.9-1.2-1.4-1.8c-0.1-0.1-0.3-0.3-0.4-0.4c-9-11.4-7.1-28,4.3-37c10.5-8.3,25.5-7.5,35,2l91.8,91.8
				C318.176,143.7,318.276,160.4,307.876,170.8z"/>
		</g>
	</g>
</g>
<g>
</g>
<g>
</g>
<g>
</g>
<g>
</g>
<g>
</g>
<g>
</g>
<g>
</g>
<g>
</g>
<g>
</g>
<g>
</g>
<g>
</g>
<g>
</g>
<g>
</g>
<g>
</g>
<g>
</g>
</svg>
