<?xml version="1.0" encoding="iso-8859-1"?>
<!-- Generator: Adobe Illustrator 19.0.0, SVG Export Plug-In . SVG Version: 6.00 Build 0)  -->
<svg version="1.1" id="Capa_1" xmlns="http://www.w3.org/2000/svg" xmlns:xlink="http://www.w3.org/1999/xlink" x="0px" y="0px"
	 viewBox="0 0 466 466" style="enable-background:new 0 0 466 466;" xml:space="preserve">
<g>
	<g>
		<path d="M455.45,394c-0.1,0-0.1,0-0.2,0h-15.3V256h15.1c5.5,0,9.9-4.5,9.9-10c0,0,0,0,0-0.1v-51.7c0.1-5.6-4.3-10.1-9.9-10.2
			h-15.1V10.4c0-5.5-4.3-10.4-9.8-10.4H10.85c-5.5,0-9.9,4.9-9.9,10.4v419.3c-0.1,5.5,4.3,10.1,9.9,10.3h174.1v15.6
			c0,5.5,4.2,10.4,9.7,10.4h51.7c5.5,0,9.6-4.9,9.6-10.4V440h137v15.6c0.1,5.7,4.7,10.2,10.4,10.4h51.8c5.5,0,9.9-4.9,9.9-10.4
			v-51.8C465.15,398.4,460.75,394,455.45,394z M444.95,204v32h-32v-32H444.95z M184.95,403.5c0,0.1,0,0.2,0,0.3V420h-164V20h399v164
			h-16.6c-5.6,0-10.2,4.5-10.4,10.2V210h-137v-15.8c0-5.5-4.1-10.2-9.6-10.2h-51.7c-5.5,0.1-9.8,4.6-9.7,10.1v0.1V246
			c-0.2,5.4,4.1,9.9,9.5,10c0.1,0,0.1,0,0.2,0h16.3v138h-16.3C189.35,393.9,185.05,398.2,184.95,403.5z M235.95,204v32h-31v-32
			H235.95z M235.95,446h-31v-32h31V446z M392.95,403.8V420h-137v-16.2c0.2-5.2-3.9-9.6-9.2-9.8c-0.1,0-0.3,0-0.4,0h-15.4V256h15.4
			c5.5,0,9.6-4.5,9.6-10.1V230h137v15.9c0.2,5.6,4.8,10.1,10.4,10.1h16.6v138h-16.6C397.75,394,392.95,398.3,392.95,403.8z
			 M444.95,446h-32v-32h32V446z"/>
	</g>
</g>
<g>
</g>
<g>
</g>
<g>
</g>
<g>
</g>
<g>
</g>
<g>
</g>
<g>
</g>
<g>
</g>
<g>
</g>
<g>
</g>
<g>
</g>
<g>
</g>
<g>
</g>
<g>
</g>
<g>
</g>
</svg>
