<?xml version="1.0" encoding="iso-8859-1"?>
<!-- Generator: Adobe Illustrator 19.0.0, SVG Export Plug-In . SVG Version: 6.00 Build 0)  -->
<svg xmlns="http://www.w3.org/2000/svg" xmlns:xlink="http://www.w3.org/1999/xlink" version="1.1" id="Capa_1" x="0px" y="0px" viewBox="0 0 512 512" style="enable-background:new 0 0 512 512;" xml:space="preserve">
<g>
	<g>
		<path d="M502.68,122.078c-4.885-11.996-11.917-23.391-21.144-33.483c-13.854-15.176-32.532-27.211-55.467-35.202    c-22.261-7.779-48.593-11.904-79.48-12.148l-2.895-23.179H72.704v-0.007H0l55.989,80.867L32.215,289.047L14.799,428.356    c-4.501,36.075,21.546,65.587,57.899,65.587H337.08c36.353,0,62.4-29.512,57.899-65.587l-5.757-46.055l10.727-11.051    c21.236-21.898,43.835-46.855,63.055-72.711c9.603-12.942,18.381-26.114,25.717-39.419c7.317-13.311,13.246-26.735,16.894-40.457    c4.045-15.315,6.378-30.966,6.385-46.577C511.993,155.098,509.21,138.099,502.68,122.078z M145.403,328.704    c0-10.945,8.877-19.829,19.829-19.829c10.953,0,19.829,8.884,19.829,19.829c0,10.945-8.876,19.835-19.829,19.835    C154.279,348.54,145.403,339.649,145.403,328.704z M188.365,447.675c-12.783,0-23.133-10.357-23.133-23.133    c0-12.783,10.35-23.133,23.133-23.133c12.77,0,23.133,10.35,23.133,23.133C211.498,437.319,201.134,447.675,188.365,447.675z     M251.156,381.587c-10.953,0-19.829-8.89-19.829-19.835s8.876-19.829,19.829-19.829s19.829,8.884,19.829,19.829    C270.985,372.698,262.107,381.587,251.156,381.587z M80.498,275.827L106.936,64.33h195.913l26.438,211.498H80.498z     M460.888,206.831c-2.32,8.784-6.663,19.056-12.69,29.968c-9.023,16.385-21.732,34.191-36.021,51.694    c-9.623,11.798-19.961,23.437-30.35,34.621l-4.264-34.065L352.38,87.588c21.071,0.595,38.507,3.365,52.606,7.588    c12.009,3.602,21.62,8.209,29.319,13.424c11.527,7.859,18.936,16.928,23.966,27.397c4.977,10.476,7.449,22.618,7.456,36.095    C465.727,183.064,464.061,194.849,460.888,206.831z"/>
	</g>
</g>
<g>
</g>
<g>
</g>
<g>
</g>
<g>
</g>
<g>
</g>
<g>
</g>
<g>
</g>
<g>
</g>
<g>
</g>
<g>
</g>
<g>
</g>
<g>
</g>
<g>
</g>
<g>
</g>
<g>
</g>
</svg>
