<?xml version="1.0" encoding="iso-8859-1"?>
<!-- Generator: Adobe Illustrator 19.0.0, SVG Export Plug-In . SVG Version: 6.00 Build 0)  -->
<svg xmlns="http://www.w3.org/2000/svg" xmlns:xlink="http://www.w3.org/1999/xlink" version="1.1" id="Capa_1" x="0px" y="0px" viewBox="0 0 512.003 512.003" style="enable-background:new 0 0 512.003 512.003;" xml:space="preserve">
<g>
	<g>
		<path d="M483.295,174.123c-11.539-11.539-29.76-12.051-42.067-1.81l-0.199-0.199l36.226-36.232l-0.205-0.199    c10.241-12.307,9.728-30.517-1.804-42.06c-11.539-11.539-29.76-12.051-42.066-1.81l-0.199-0.199l24.147-24.147l-0.199-0.199    c0.734-0.609,1.525-1.121,2.214-1.81c12.233-12.233,12.227-32.054,0-44.281c-12.227-12.222-32.043-12.227-44.27,0    c-0.688,0.688-1.201,1.48-1.81,2.214l-0.199-0.199L384.681,51.37l-0.199-0.199c10.241-12.307,9.734-30.528-1.804-42.073    c-11.539-11.545-29.76-12.051-42.066-1.81l-0.199-0.199l-91.305,91.305c7.19,7.167,14.049,16.45,19.326,27.448    c5.283,11.055,8.943,23.919,8.954,37.837c0.034,13.587-3.66,28.137-12.329,41.793l-24.05-15.233    c5.772-9.165,7.884-17.903,7.918-26.56c0.011-8.829-2.379-17.641-6.171-25.559c-3.757-7.884-8.92-14.823-13.77-19.605l-0.08,0.08    l-10.099-72.105h-0.342c0.916-9.04-1.941-18.387-8.869-25.314c-12.227-12.222-32.054-12.222-44.275,0    c-6.922,6.928-9.786,16.263-8.869,25.302h-0.273l-11.88,179.326L19.614,311.986l3.569,4.389    c23.151,23.846,39.493,7.998,62.644,31.854c23.151,23.839,6.802,39.692,29.97,63.549c23.128,23.822,39.488,7.969,62.599,31.808    c23.145,23.834,6.802,39.699,29.953,63.538l5.493,4.878c0,0,51.744-78.645,88.658-128.521l94.259-78.548l88.545-88.551    l-0.205-0.199C495.346,203.876,494.829,185.666,483.295,174.123z"/>
	</g>
</g>
<g>
</g>
<g>
</g>
<g>
</g>
<g>
</g>
<g>
</g>
<g>
</g>
<g>
</g>
<g>
</g>
<g>
</g>
<g>
</g>
<g>
</g>
<g>
</g>
<g>
</g>
<g>
</g>
<g>
</g>
</svg>
