<?xml version="1.0" encoding="iso-8859-1"?>
<!-- Generator: Adobe Illustrator 19.0.0, SVG Export Plug-In . SVG Version: 6.00 Build 0)  -->
<svg xmlns="http://www.w3.org/2000/svg" xmlns:xlink="http://www.w3.org/1999/xlink" version="1.1" id="Capa_1" x="0px" y="0px" viewBox="0 0 512 512" style="enable-background:new 0 0 512 512;" xml:space="preserve">
<g>
	<g>
		<path d="M270.227,309.883v-60.37c22.498,4.683,66.577,9.84,95.531-12.629c40.267-31.247,36.005-104.142,36.005-104.142    s-69.557-22.221-109.824,9.032c-9.516,7.386-16.528,17.116-21.719,27.644V88.376c16.666,2.956,44.252,4.828,62.956-9.684    c28.337-21.996,25.346-73.305,25.346-73.305s-48.952-15.632-77.301,6.364c-19.75,15.338-24.272,44.859-25.207,61.369h-0.462    c-0.936-16.51-5.457-46.03-25.207-61.369c-28.349-21.996-77.301-6.364-77.301-6.364s-2.997,51.315,25.346,73.305    c18.705,14.512,46.296,12.635,62.956,9.684v81.049c-5.186-10.527-12.197-20.258-21.719-27.644    c-40.267-31.253-109.824-9.032-109.824-9.032s-4.256,72.895,36.005,104.142c28.955,22.469,73.028,17.307,95.531,12.629v60.363    H100.293l11.429,57.747h288.437l11.549-57.747H270.227z"/>
	</g>
</g>
<g>
	<g>
		<polygon points="117.438,396.505 140.3,512 371.291,512 394.39,396.505   "/>
	</g>
</g>
<g>
</g>
<g>
</g>
<g>
</g>
<g>
</g>
<g>
</g>
<g>
</g>
<g>
</g>
<g>
</g>
<g>
</g>
<g>
</g>
<g>
</g>
<g>
</g>
<g>
</g>
<g>
</g>
<g>
</g>
</svg>
