<?xml version="1.0" encoding="iso-8859-1"?>
<!-- Generator: Adobe Illustrator 19.0.0, SVG Export Plug-In . SVG Version: 6.00 Build 0)  -->
<svg xmlns="http://www.w3.org/2000/svg" xmlns:xlink="http://www.w3.org/1999/xlink" version="1.1" id="Capa_1" x="0px" y="0px" viewBox="0 0 512 512" style="enable-background:new 0 0 512 512;" xml:space="preserve">
<g>
	<g>
		<path d="M434.718,37.041c0,0-54.741-31.969-206.085-31.969c-99.823,0-206.343,14.162-206.343,31.95l19.579,129.061h96.602v38.641    h45.082v-38.641h135.244v264.047H199.543c28.884-17.569,47.329-52.159,55.198-92.648c3.13-16.075,6.093-68.356,6.093-68.356H54.75    c0,0,0.219,6.788,0.638,16.171c-8.011,0.083-15.269,0.927-21.794,2.699c-10.24,2.756-19.018,7.947-24.995,15.398    c-6.021,7.406-8.649,16.564-8.598,24.995c0,4.785,0.766,9.435,2.074,13.853c1.346,4.527,3.497,8.423,5.95,11.818    c4.341,5.938,9.621,10.555,15.205,14.645c8.398,6.093,17.634,10.936,25.986,14.812c8.353,3.858,15.797,6.685,20.364,8.327    l11.96,4.289c8.855,14.2,19.901,25.915,33.187,33.998H22.548l-0.007,76.799H512v-77.282L434.718,37.041z M51.426,348.533    c-5.345-3.001-10.266-6.337-13.602-9.37c-1.668-1.494-2.93-2.905-3.723-3.999c-0.793-1.095-1.089-1.83-1.147-2.048    c-0.535-1.797-0.753-3.42-0.753-4.727c0.007-1.572,0.284-2.654,0.676-3.523c0.657-1.25,1.469-2.544,4.875-4.238    c3.369-1.636,9.48-3.207,18.831-3.194h0.683c0.638,8.212,1.391,15.566,2.267,20.055c1.147,5.88,2.544,11.624,4.135,17.227    C59.638,352.872,55.419,350.786,51.426,348.533z M408.959,429.639c-17.788,0-32.201-14.413-32.201-32.201    c0-17.775,14.413-32.195,32.201-32.195c17.788,0,32.201,14.42,32.201,32.195C441.159,415.226,426.746,429.639,408.959,429.639z"/>
	</g>
</g>
<g>
</g>
<g>
</g>
<g>
</g>
<g>
</g>
<g>
</g>
<g>
</g>
<g>
</g>
<g>
</g>
<g>
</g>
<g>
</g>
<g>
</g>
<g>
</g>
<g>
</g>
<g>
</g>
<g>
</g>
</svg>
