<?xml version="1.0" encoding="iso-8859-1"?>
<!-- Generator: Adobe Illustrator 19.0.0, SVG Export Plug-In . SVG Version: 6.00 Build 0)  -->
<svg xmlns="http://www.w3.org/2000/svg" xmlns:xlink="http://www.w3.org/1999/xlink" version="1.1" id="Capa_1" x="0px" y="0px" viewBox="0 0 512.001 512.001" style="enable-background:new 0 0 512.001 512.001;" xml:space="preserve">
<g>
	<g>
		<path d="M0,91.023v51.2v5.689v273.066h39.823V147.912H256v273.066h39.823v-62.577h176.356v62.577h39.823V147.912v-5.689v-51.2H0z     M383.994,164.979c11.008,0,19.917,8.909,19.917,19.911c0,10.997-8.909,19.911-19.917,19.911    c-10.997,0-19.906-8.915-19.906-19.911C364.089,173.888,372.997,164.979,383.994,164.979z M383.994,329.957    c-10.997,0-19.906-8.915-19.906-19.911c0-11.002,8.909-19.911,19.906-19.911c11.008,0,19.917,8.909,19.917,19.911    C403.91,321.042,395.002,329.957,383.994,329.957z M472.177,261.69H295.822v-28.444h176.356V261.69z"/>
	</g>
</g>
<g>
</g>
<g>
</g>
<g>
</g>
<g>
</g>
<g>
</g>
<g>
</g>
<g>
</g>
<g>
</g>
<g>
</g>
<g>
</g>
<g>
</g>
<g>
</g>
<g>
</g>
<g>
</g>
<g>
</g>
</svg>
