<?xml version="1.0" encoding="iso-8859-1"?>
<!-- Generator: Adobe Illustrator 19.0.0, SVG Export Plug-In . SVG Version: 6.00 Build 0)  -->
<svg xmlns="http://www.w3.org/2000/svg" xmlns:xlink="http://www.w3.org/1999/xlink" version="1.1" id="Capa_1" x="0px" y="0px" viewBox="0 0 512.001 512.001" style="enable-background:new 0 0 512.001 512.001;" xml:space="preserve">
<g>
	<g>
		<path d="M265.147,75.412c-3.994-6.572-8.665-11.712-12.941-16.09c-6.477-6.534-11.961-11.597-15.321-16.582    c-1.709-2.502-2.976-4.94-3.897-7.809c-0.921-2.867-1.517-6.22-1.524-10.65V9.6h-32v14.688    c-0.077,13.235,3.603,24.653,8.979,33.376c3.994,6.572,8.665,11.706,12.934,16.09c6.484,6.534,11.968,11.591,15.328,16.582    c1.709,2.502,2.976,4.94,3.897,7.808c0.921,2.874,1.517,6.227,1.524,10.656c-0.077,7.879-1.728,12.32-4.352,16.793    c-2.003,3.328-4.838,6.611-8.435,10.279c-5.337,5.523-12.505,11.706-18.849,20.883c-3.149,4.576-6.003,9.945-7.968,16.09    c-1.984,6.15-3.066,13.011-3.066,20.461v14.695h32V193.3c0.077-7.884,1.728-12.327,4.352-16.8    c2.003-3.328,4.838-6.611,8.435-10.284c5.331-5.523,12.499-11.699,18.849-20.877c3.143-4.576,5.997-9.945,7.968-16.09    c1.984-6.144,3.066-13.005,3.066-20.454C274.203,95.554,270.523,84.142,265.147,75.412z"/>
	</g>
</g>
<g>
	<g>
		<path d="M346.214,75.412c-4-6.572-8.665-11.712-12.934-16.09c-6.489-6.534-11.975-11.597-15.328-16.582    c-1.709-2.502-2.976-4.94-3.897-7.809c-0.921-2.867-1.517-6.22-1.524-10.65V9.6h-31.999v14.688    c-0.077,13.235,3.603,24.653,8.979,33.376c3.994,6.572,8.665,11.706,12.934,16.09c6.484,6.534,11.968,11.591,15.328,16.582    c1.709,2.502,2.969,4.94,3.897,7.808c0.921,2.874,1.517,6.227,1.523,10.656c-0.077,7.879-1.734,12.32-4.352,16.793    c-2.003,3.328-4.838,6.611-8.442,10.279c-5.325,5.523-12.499,11.706-18.849,20.883c-3.143,4.576-5.99,9.945-7.961,16.09    c-1.984,6.15-3.066,13.011-3.066,20.461v14.695h32V193.3c0.077-7.884,1.728-12.327,4.352-16.8    c2.003-3.328,4.838-6.611,8.435-10.284c5.331-5.523,12.499-11.699,18.849-20.877c3.149-4.576,5.997-9.945,7.968-16.09    c1.984-6.144,3.066-13.005,3.066-20.454C355.27,95.554,351.59,84.142,346.214,75.412z"/>
	</g>
</g>
<g>
	<g>
		<path d="M0,240.001c0,144.915,114.592,262.4,256.001,262.4s256.001-117.485,256.001-262.4H0z M58.432,316.8    c-3.795-10.324-6.886-20.998-9.133-32h413.402c-2.246,11.002-5.337,21.676-9.133,32H58.432z"/>
	</g>
</g>
<g>
</g>
<g>
</g>
<g>
</g>
<g>
</g>
<g>
</g>
<g>
</g>
<g>
</g>
<g>
</g>
<g>
</g>
<g>
</g>
<g>
</g>
<g>
</g>
<g>
</g>
<g>
</g>
<g>
</g>
</svg>
