<?xml version="1.0" encoding="iso-8859-1"?>
<!-- Generator: Adobe Illustrator 19.0.0, SVG Export Plug-In . SVG Version: 6.00 Build 0)  -->
<svg xmlns="http://www.w3.org/2000/svg" xmlns:xlink="http://www.w3.org/1999/xlink" version="1.1" id="Capa_1" x="0px" y="0px" viewBox="0 0 512 512" style="enable-background:new 0 0 512 512;" xml:space="preserve">
<g>
	<g>
		<path d="M495.969,290.221c-3.335-7.647-8.109-14.912-14.234-21.254c-9.203-9.561-21.293-16.928-35.552-21.728    c-12.051-4.064-25.76-6.31-41.139-6.951c0.941-20.326,1.42-35.488,1.42-35.488H9.663c0,0,5.703,100.884,11.719,131.385    C36.55,413.024,72.044,478.668,127.68,512h163.29c23.123-13.856,42.72-33.363,58.867-56.864l16.479-6.285    c14.079-5.389,41.773-16.698,68.557-32.749c13.408-8.064,26.618-17.28,37.985-28.147c5.676-5.453,10.9-11.334,15.354-17.876    c4.448-6.534,8.154-13.772,10.399-21.843l0.013-0.032c2.355-8.55,3.712-17.402,3.712-26.381    C502.342,311.239,500.429,300.429,495.969,290.221z M278.465,390.4h-140.8v-96h140.8V390.4z M455.437,336.263    c-0.653,2.362-1.991,5.28-4.249,8.602c-3.936,5.843-10.746,12.672-19.245,19.226c-12.729,9.888-29.069,19.213-44.198,26.636    c-2.253,1.107-4.461,2.163-6.644,3.187c6.771-18.228,12.18-37.574,16.154-57.728c2.131-10.79,3.904-30.388,5.312-51.213    c10.591,0.404,19.398,1.76,26.297,3.775c6.176,1.786,10.931,4.026,14.58,6.387c5.472,3.597,8.602,7.335,10.784,11.564    c2.144,4.231,3.303,9.203,3.309,15.117C457.543,326.24,456.852,331.143,455.437,336.263z"/>
	</g>
</g>
<g>
	<g>
		<path d="M212.296,56.052c-3.739-5.952-8.047-10.516-11.931-14.369c-5.901-5.748-10.753-10.105-13.568-14.183    c-1.447-2.041-2.464-3.962-3.219-6.215c-0.736-2.253-1.235-4.883-1.242-8.493V0h-32v12.794    c-0.083,11.968,3.405,22.457,8.435,30.336c3.738,5.952,8.044,10.521,11.93,14.368c5.895,5.748,10.753,10.105,13.568,14.189    c1.44,2.036,2.464,3.962,3.213,6.208c0.743,2.253,1.242,4.883,1.248,8.5c-0.083,6.425-1.395,9.74-3.565,13.357    c-1.671,2.675-4.109,5.44-7.308,8.602c-4.73,4.755-11.277,10.189-17.19,18.445c-2.924,4.122-5.606,9.005-7.462,14.605    c-1.869,5.601-2.886,11.866-2.88,18.599v12.799h32v-12.799c0.083-6.425,1.389-9.747,3.565-13.363    c1.664-2.682,4.102-5.446,7.308-8.602c4.73-4.762,11.27-10.189,17.184-18.445c2.931-4.122,5.613-8.999,7.469-14.605    c1.869-5.601,2.886-11.866,2.88-18.592C220.814,74.42,217.32,63.938,212.296,56.052z"/>
	</g>
</g>
<g>
	<g>
		<path d="M295.495,56.064c-3.737-5.952-8.051-10.528-11.93-14.374c-5.901-5.748-10.753-10.099-13.568-14.183    c-1.447-2.041-2.464-3.968-3.219-6.208c-0.736-2.253-1.235-4.89-1.242-8.5V0h-32v12.799c-0.083,11.975,3.405,22.457,8.435,30.336    c3.737,5.952,8.044,10.521,11.93,14.374c5.895,5.748,10.753,10.099,13.568,14.176c1.44,2.048,2.464,3.968,3.213,6.215    c0.743,2.253,1.242,4.883,1.248,8.5c-0.083,6.425-1.395,9.735-3.565,13.363c-1.671,2.675-4.109,5.44-7.308,8.589    c-4.73,4.762-11.277,10.202-17.19,18.452c-2.924,4.128-5.606,8.999-7.462,14.605c-1.869,5.6-2.887,11.866-2.88,18.599v12.794h32    v-12.794c0.083-6.432,1.389-9.747,3.565-13.37c1.664-2.675,4.102-5.44,7.308-8.595c4.73-4.755,11.27-10.195,17.184-18.445    c2.931-4.128,5.613-8.999,7.469-14.605c1.869-5.601,2.887-11.859,2.88-18.592C304.013,74.426,300.525,63.937,295.495,56.064z"/>
	</g>
</g>
<g>
</g>
<g>
</g>
<g>
</g>
<g>
</g>
<g>
</g>
<g>
</g>
<g>
</g>
<g>
</g>
<g>
</g>
<g>
</g>
<g>
</g>
<g>
</g>
<g>
</g>
<g>
</g>
<g>
</g>
</svg>
