<?xml version="1.0" encoding="iso-8859-1"?>
<!-- Generator: Adobe Illustrator 19.0.0, SVG Export Plug-In . SVG Version: 6.00 Build 0)  -->
<svg xmlns="http://www.w3.org/2000/svg" xmlns:xlink="http://www.w3.org/1999/xlink" version="1.1" id="Capa_1" x="0px" y="0px" viewBox="0 0 512.001 512.001" style="enable-background:new 0 0 512.001 512.001;" xml:space="preserve">
<g>
	<g>
		<path d="M220.77,57.402c-2.447-7.801-6.831-13.888-11.117-18.49c-3.239-3.474-6.443-6.265-9.233-8.75    c-4.223-3.711-7.381-6.754-9.181-9.515c-0.92-1.381-1.565-2.698-2.043-4.223c-0.471-1.53-0.788-3.325-0.794-5.764V0h-28.764    v10.654c-0.006,5.172,0.747,10.062,2.151,14.497c2.445,7.8,6.829,13.887,11.114,18.495c3.233,3.474,6.443,6.265,9.228,8.75    c4.223,3.716,7.387,6.759,9.188,9.515c0.92,1.386,1.559,2.704,2.043,4.228c0.471,1.53,0.788,3.325,0.794,5.77    c-0.006,2.48-0.334,4.292-0.817,5.839c-0.857,2.669-2.261,4.855-4.786,7.605c-1.875,2.036-4.36,4.245-7.231,6.788    c-4.263,3.831-9.533,8.382-14.037,15.107c-2.232,3.354-4.205,7.255-5.563,11.632c-1.357,4.384-2.088,9.199-2.083,14.29v10.648    h28.764v-10.654c0.006-2.485,0.334-4.292,0.817-5.845c0.857-2.669,2.261-4.855,4.786-7.605c1.875-2.036,4.36-4.245,7.226-6.788    c4.268-3.831,9.538-8.382,14.043-15.107c2.232-3.348,4.205-7.255,5.563-11.632c1.357-4.378,2.088-9.193,2.083-14.284    C222.928,66.733,222.174,61.843,220.77,57.402z"/>
	</g>
</g>
<g>
	<g>
		<path d="M295.555,57.407c-2.445-7.8-6.829-13.893-11.114-18.49c-3.239-3.48-6.443-6.27-9.233-8.75    c-4.223-3.716-7.381-6.759-9.181-9.515c-0.92-1.392-1.559-2.704-2.043-4.234c-0.471-1.53-0.788-3.325-0.794-5.764V0h-28.764    v10.654c-0.006,5.172,0.747,10.062,2.151,14.497c2.445,7.807,6.829,13.893,11.114,18.495c3.233,3.48,6.437,6.27,9.228,8.75    c4.223,3.716,7.387,6.754,9.188,9.515c0.92,1.392,1.559,2.698,2.043,4.228c0.471,1.536,0.788,3.325,0.794,5.77    c-0.006,2.485-0.334,4.292-0.817,5.845c-0.857,2.664-2.261,4.849-4.786,7.594c-1.875,2.036-4.36,4.252-7.231,6.8    c-4.263,3.826-9.533,8.382-14.037,15.101c-2.232,3.348-4.205,7.255-5.563,11.632c-1.358,4.378-2.088,9.199-2.083,14.29v10.648    h28.764v-10.648c0.006-2.485,0.334-4.297,0.817-5.851c0.857-2.664,2.261-4.849,4.786-7.6c1.875-2.036,4.36-4.252,7.226-6.795    c4.268-3.826,9.538-8.382,14.043-15.101c2.232-3.348,4.205-7.255,5.563-11.626c1.357-4.384,2.088-9.204,2.083-14.29    C297.712,66.733,296.959,61.843,295.555,57.407z"/>
	</g>
</g>
<g>
	<g>
		<path d="M452.814,248.534c-3.153-6.927-7.703-13.462-13.514-19.094c-8.733-8.486-20.094-14.842-33.556-18.984    c-10.235-3.153-21.74-5.091-34.718-5.851l4.344-32.02H53.211l46.023,339.416h230.113l11.85-87.402l1.565-1.093    c0.379-0.276,23.386-16.355,48.634-38.717c12.628-11.206,25.83-23.96,37.198-37.474c5.678-6.766,10.913-13.727,15.383-20.928    c4.458-7.214,8.197-14.669,10.648-22.689l0.011-0.018c2.572-8.537,4.148-17.454,4.153-26.595    C458.791,267.587,457.042,257.783,452.814,248.534z M151.009,345.169v-86.292h126.562v86.292H151.009z M416.094,291.99    c-1.059,3.503-3.193,8.112-6.345,13.174c-5.488,8.894-13.967,19.105-23.546,28.995c-11.955,12.368-25.56,24.294-37.347,33.942    l16.735-123.416c10.159,0.415,18.61,1.628,25.295,3.4c6.207,1.634,10.953,3.693,14.537,5.845    c5.385,3.268,8.21,6.553,10.154,10.119c1.899,3.579,2.917,7.789,2.934,13.036c0.006,4.436-0.8,9.549-2.433,14.934L416.094,291.99z    "/>
	</g>
</g>
<g>
</g>
<g>
</g>
<g>
</g>
<g>
</g>
<g>
</g>
<g>
</g>
<g>
</g>
<g>
</g>
<g>
</g>
<g>
</g>
<g>
</g>
<g>
</g>
<g>
</g>
<g>
</g>
<g>
</g>
</svg>
