<?xml version="1.0" encoding="iso-8859-1"?>
<!-- Generator: Adobe Illustrator 19.0.0, SVG Export Plug-In . SVG Version: 6.00 Build 0)  -->
<svg xmlns="http://www.w3.org/2000/svg" xmlns:xlink="http://www.w3.org/1999/xlink" version="1.1" id="Capa_1" x="0px" y="0px" viewBox="0 0 512 512" style="enable-background:new 0 0 512 512;" xml:space="preserve">
<g>
	<g>
		<path d="M500.197,251.673l10.278-198.094l-41.894-2.17L458.488,245.99c-35.691-1.768-87.737,2.175-128.834,32.011    c-42.434,30.806-56.53,85.094-61.085,122.649h-21.713c-4.561-37.555-18.651-91.842-61.085-122.649    c-41.102-29.841-93.155-33.779-128.846-32.011L41.828,51.415L0,54.658l15.271,196.835c-1.93,6.953-35.062,129.391,18.766,173.682    c76.44,62.889,193.257,24.261,212.1,17.423h23.152c18.843,6.839,135.661,45.466,212.1-17.423    C534.82,381.197,502.564,260.196,500.197,251.673z"/>
	</g>
</g>
<g>
</g>
<g>
</g>
<g>
</g>
<g>
</g>
<g>
</g>
<g>
</g>
<g>
</g>
<g>
</g>
<g>
</g>
<g>
</g>
<g>
</g>
<g>
</g>
<g>
</g>
<g>
</g>
<g>
</g>
</svg>
