<?xml version="1.0" encoding="iso-8859-1"?>
<!-- Generator: Adobe Illustrator 19.0.0, SVG Export Plug-In . SVG Version: 6.00 Build 0)  -->
<svg xmlns="http://www.w3.org/2000/svg" xmlns:xlink="http://www.w3.org/1999/xlink" version="1.1" id="Capa_1" x="0px" y="0px" viewBox="0 0 512 512" style="enable-background:new 0 0 512 512;" xml:space="preserve">
<g>
	<g>
		<path d="M187.544,371.871c-5.94-5.865-10.089-11.823-10.089-20.427c0-2.153,1.204-11.363-1-11.363    c-9.363-0.001-18.73-0.001-28.091-0.001c0,16.78,1.012,31.93,12.247,45.521c11.025,13.318,32.779,27.491,18.152,47    c-6.208,8.285-14.924,14.266-20.998,22.743c-6.365,8.96-9.402,19.508-9.402,30.458c0,1.531-0.529,11.363,0.454,11.363    c5.498,0,11.008,0,16.507,0c1.815,0,10.805,1.291,12.13,0c1.647-1.606-0.082-13.824,0.431-16.646    c1.653-9.1,9.757-15.139,15.965-21.259c8.238-8.128,14.883-17.536,17.333-29.021C216.454,405.489,204.161,388.272,187.544,371.871    z"/>
	</g>
</g>
<g>
	<g>
		<path d="M263.181,371.876c-5.94-5.865-10.089-11.817-10.089-20.433c0-2.147,1.204-11.363-1-11.363c-9.363,0-18.73,0-28.091,0    c0,16.786,1.012,31.93,12.247,45.521c11.025,13.323,32.785,27.503,18.152,47.011c-6.208,8.285-14.924,14.26-20.998,22.738    c-6.359,8.966-9.402,19.503-9.402,30.452c0,1.536-0.529,11.363,0.454,11.363c5.498,0,11.008,0,16.507,0    c1.815,0,10.805,1.291,12.13,0c1.647-1.606-0.082-13.824,0.431-16.646c1.647-9.1,9.762-15.128,15.965-21.248    c8.238-8.134,14.877-17.536,17.333-29.027C292.091,405.499,279.797,388.277,263.181,371.876z"/>
	</g>
</g>
<g>
	<g>
		<path d="M338.817,371.876c-5.94-5.865-10.089-11.817-10.089-20.433c0-2.147,1.204-11.363-1-11.363c-9.363,0-18.73,0-28.091,0    c0,16.786,1.012,31.93,12.247,45.521c11.025,13.323,32.785,27.503,18.152,47.011c-6.208,8.285-14.924,14.26-20.998,22.738    c-6.36,8.966-9.402,19.503-9.402,30.452c0,1.536-0.529,11.363,0.454,11.363c5.498,0,11.008,0,16.507,0    c1.815,0,10.805,1.291,12.13,0c1.647-1.606-0.082-13.824,0.431-16.646c1.647-9.1,9.763-15.128,15.965-21.248    c8.238-8.134,14.877-17.536,17.333-29.027C367.727,405.499,355.434,388.277,338.817,371.876z"/>
	</g>
</g>
<g>
	<g>
		<path d="M349.091,124.563V14.262H162.909l0.006,110.301L0,194.626l0.285,63.756c2.828,29.411,27.776,52.608,57.896,52.608h395.637    c30.121,0,55.354-22.947,58.182-52.357v-64.006L349.091,124.563z M465.454,264.444H389.8v-40.728h75.654V264.444z"/>
	</g>
</g>
<g>
</g>
<g>
</g>
<g>
</g>
<g>
</g>
<g>
</g>
<g>
</g>
<g>
</g>
<g>
</g>
<g>
</g>
<g>
</g>
<g>
</g>
<g>
</g>
<g>
</g>
<g>
</g>
<g>
</g>
</svg>
