<?xml version="1.0" encoding="iso-8859-1"?>
<!-- Generator: Adobe Illustrator 19.0.0, SVG Export Plug-In . SVG Version: 6.00 Build 0)  -->
<svg xmlns="http://www.w3.org/2000/svg" xmlns:xlink="http://www.w3.org/1999/xlink" version="1.1" id="Capa_1" x="0px" y="0px" viewBox="0 0 512 512" style="enable-background:new 0 0 512 512;" xml:space="preserve">
<g>
	<g>
		<path d="M20.46,0v457.424h47.791V512h47.791v-54.576h279.916V512h47.791v-54.576h47.791V0H20.46z M255.991,40.922    c13.211,0,23.902,10.691,23.902,23.895c0,13.198-10.691,23.895-23.902,23.895c-13.198,0-23.889-10.699-23.889-23.895    C232.104,51.614,242.795,40.922,255.991,40.922z M255.991,416.419c-13.198,0-23.889-10.699-23.889-23.895    c0-13.204,10.691-23.895,23.889-23.895c13.211,0,23.902,10.691,23.902,23.895C279.894,405.72,269.202,416.419,255.991,416.419z     M443.746,327.665H68.25v-34.136h375.497V327.665z M232.104,228.67c0-13.204,10.691-23.895,23.889-23.895    c13.211,0,23.902,10.691,23.902,23.895c0,13.198-10.691,23.895-23.902,23.895C242.795,252.566,232.104,241.868,232.104,228.67z     M443.746,163.812H68.25v-34.136h375.497V163.812z"/>
	</g>
</g>
<g>
</g>
<g>
</g>
<g>
</g>
<g>
</g>
<g>
</g>
<g>
</g>
<g>
</g>
<g>
</g>
<g>
</g>
<g>
</g>
<g>
</g>
<g>
</g>
<g>
</g>
<g>
</g>
<g>
</g>
</svg>
