<?xml version="1.0" encoding="iso-8859-1"?>
<!-- Generator: Adobe Illustrator 19.0.0, SVG Export Plug-In . SVG Version: 6.00 Build 0)  -->
<svg xmlns="http://www.w3.org/2000/svg" xmlns:xlink="http://www.w3.org/1999/xlink" version="1.1" id="Capa_1" x="0px" y="0px" viewBox="0 0 512 512" style="enable-background:new 0 0 512 512;" xml:space="preserve">
<g>
	<g>
		<path d="M60.403,0v454.472h40.27V512h40.27v-57.528h230.113V512h40.27v-57.528h40.27V0H60.403z M100.656,132.315h17.275V40.27    h28.764v92.044h40.897l-25.485-83.652l27.515-8.388l28.046,92.039h193.639v28.764H100.656V132.315z M201.341,373.933    c-11.121,0-20.129-9.015-20.129-20.135c0-11.126,9.009-20.135,20.129-20.135c11.132,0,20.141,9.015,20.141,20.135    C221.482,364.918,212.473,373.933,201.341,373.933z M316.397,373.933c-11.121,0-20.129-9.015-20.129-20.135    c0-11.126,9.009-20.135,20.129-20.135c11.132,0,20.141,9.015,20.141,20.135S327.529,373.933,316.397,373.933z M411.308,310.652    L411.308,310.652H273.257v103.551h-28.764V310.652H100.656v-28.764H319.28v-92.045h28.764v92.045h17.259v-92.045h28.764v92.045    h17.241V310.652z"/>
	</g>
</g>
<g>
</g>
<g>
</g>
<g>
</g>
<g>
</g>
<g>
</g>
<g>
</g>
<g>
</g>
<g>
</g>
<g>
</g>
<g>
</g>
<g>
</g>
<g>
</g>
<g>
</g>
<g>
</g>
<g>
</g>
</svg>
