<?xml version="1.0" encoding="iso-8859-1"?>
<!-- Generator: Adobe Illustrator 19.0.0, SVG Export Plug-In . SVG Version: 6.00 Build 0)  -->
<svg xmlns="http://www.w3.org/2000/svg" xmlns:xlink="http://www.w3.org/1999/xlink" version="1.1" id="Capa_1" x="0px" y="0px" viewBox="0 0 512.001 512.001" style="enable-background:new 0 0 512.001 512.001;" xml:space="preserve">
<g>
	<g>
		<path d="M282.289,0L171.846,110.442l40.002,40.002l0.131,87.732L12.881,437.295c-0.025,0.019-0.051,0.037-0.068,0.056    c-17.075,17.08-17.075,44.769,0,61.843c17.08,17.075,44.769,17.075,61.843,0c0,0,0-0.007,0.007-0.007l199.005-199.005h87.907    l39.977,39.977l110.442-110.442L282.289,0z M269.257,256.445l-13.544-13.544l-0.068-48.661l62.199,62.199L269.257,256.445z     M399.353,289.357L222.65,112.654l22.085-22.091l176.703,176.708L399.353,289.357z M262.409,72.888l22.085-22.085L461.196,227.5    l-22.085,22.091L262.409,72.888z"/>
	</g>
</g>
<g>
</g>
<g>
</g>
<g>
</g>
<g>
</g>
<g>
</g>
<g>
</g>
<g>
</g>
<g>
</g>
<g>
</g>
<g>
</g>
<g>
</g>
<g>
</g>
<g>
</g>
<g>
</g>
<g>
</g>
</svg>
