<?xml version="1.0" encoding="iso-8859-1"?>
<!-- Generator: Adobe Illustrator 19.0.0, SVG Export Plug-In . SVG Version: 6.00 Build 0)  -->
<svg xmlns="http://www.w3.org/2000/svg" xmlns:xlink="http://www.w3.org/1999/xlink" version="1.1" id="Capa_1" x="0px" y="0px" viewBox="0 0 512 512" style="enable-background:new 0 0 512 512;" xml:space="preserve">
<g>
	<g>
		<path d="M483.071,106.06L354.179,234.945l-22.705-22.705L460.359,83.36l-30.998-30.991L300.483,181.242l-22.698-22.712    L406.662,29.664L377.726,0.728c0,0-130.664,130.658-131.563,131.582c-28.357,28.345-34.942,70.146-19.924,104.836L14.118,416.877    c-19.623,22.385-18.807,56.388,2.549,77.744c21.338,21.331,55.341,22.153,77.726,2.544l181.123-210.707    c34.704,15.056,76.531,8.473,104.908-19.905C381.343,265.646,512,134.995,512,134.995L483.071,106.06z"/>
	</g>
</g>
<g>
</g>
<g>
</g>
<g>
</g>
<g>
</g>
<g>
</g>
<g>
</g>
<g>
</g>
<g>
</g>
<g>
</g>
<g>
</g>
<g>
</g>
<g>
</g>
<g>
</g>
<g>
</g>
<g>
</g>
</svg>
