<?xml version="1.0" encoding="iso-8859-1"?>
<!-- Generator: Adobe Illustrator 19.0.0, SVG Export Plug-In . SVG Version: 6.00 Build 0)  -->
<svg xmlns="http://www.w3.org/2000/svg" xmlns:xlink="http://www.w3.org/1999/xlink" version="1.1" id="Capa_1" x="0px" y="0px" viewBox="0 0 512 512" style="enable-background:new 0 0 512 512;" xml:space="preserve">
<g>
	<g>
		<path d="M509.985,381.84l-55.372-252.892l-0.132,0.034v-0.034H270.387v-20.135c0-3.947,1.582-7.473,4.234-10.148    c2.675-2.653,6.201-4.234,10.148-4.234h115.058c11.874,0,22.73-4.89,30.485-12.662c7.778-7.755,12.662-18.605,12.662-30.485    V25.395H414.21v25.888c-0.011,3.947-1.582,7.473-4.234,10.148c-2.675,2.653-6.201,4.228-10.148,4.234H284.77    c-11.874-0.006-22.73,4.89-30.485,12.662c-7.778,7.755-12.673,18.605-12.662,30.485v20.135H57.529v0.034l-0.144-0.034    L2.013,381.84c-10.188,46.553,19.296,92.559,65.842,102.747c46.553,10.195,92.564-19.284,102.752-65.836l14.324-65.439H327.07    l14.324,65.439c10.188,46.558,56.194,76.036,102.741,65.836C490.707,474.399,520.179,428.393,509.985,381.84z M161.082,261.265    v34.517h-40.271v-34.517H86.294v-40.271h34.517v-34.517h40.271v34.517h34.517v40.271H161.082z M327.916,218.117    c0-11.126,9.009-20.135,20.135-20.135c11.115,0,20.135,9.009,20.135,20.135c0,11.121-9.02,20.135-20.135,20.135    C336.925,238.253,327.916,229.238,327.916,218.117z M359.558,295.782c-11.126,0-20.135-9.015-20.135-20.135    c0-11.126,9.009-20.135,20.135-20.135c11.115,0,20.135,9.009,20.135,20.135C379.693,286.767,370.672,295.782,359.558,295.782z     M385.445,200.859c0-11.126,9.009-20.135,20.135-20.135c11.115,0,20.135,9.009,20.135,20.135c0,11.121-9.02,20.135-20.135,20.135    C394.454,220.994,385.445,211.979,385.445,200.859z M417.087,278.523c-11.126,0-20.135-9.015-20.135-20.135    c0-11.126,9.009-20.135,20.135-20.135c11.115,0,20.135,9.009,20.135,20.135C437.222,269.508,428.201,278.523,417.087,278.523z"/>
	</g>
</g>
<g>
</g>
<g>
</g>
<g>
</g>
<g>
</g>
<g>
</g>
<g>
</g>
<g>
</g>
<g>
</g>
<g>
</g>
<g>
</g>
<g>
</g>
<g>
</g>
<g>
</g>
<g>
</g>
<g>
</g>
</svg>
