<?xml version="1.0" encoding="iso-8859-1"?>
<!-- Generator: Adobe Illustrator 19.0.0, SVG Export Plug-In . SVG Version: 6.00 Build 0)  -->
<svg xmlns="http://www.w3.org/2000/svg" xmlns:xlink="http://www.w3.org/1999/xlink" version="1.1" id="Capa_1" x="0px" y="0px" viewBox="0 0 512 512" style="enable-background:new 0 0 512 512;" xml:space="preserve">
<g>
	<g>
		<path d="M437.02,117.655C390.758,71.347,326.639,42.641,256,42.647c-70.627-0.006-134.758,28.701-181.02,75.014    C28.684,163.934-0.006,228.07,0,298.721v113.737h39.823V298.721C39.834,238.942,63.989,185,103.145,145.81    C142.33,106.647,196.249,82.481,256,82.475c59.756,0.006,113.67,24.172,152.855,63.34c39.156,39.185,63.317,93.121,63.323,152.906    v113.777H512V298.721C512.011,228.071,483.316,163.934,437.02,117.655z"/>
	</g>
</g>
<g>
	<g>
		<path d="M381.156,270.202c-28.165,0-51.2,25.599-51.2,56.889v85.373c0,31.289,23.035,56.889,51.2,56.889    c1.923,0,62.577,0,62.577,0v-199.15C443.733,270.202,383.078,270.202,381.156,270.202z"/>
	</g>
</g>
<g>
	<g>
		<path d="M130.844,270.202c-1.923,0-62.577,0-62.577,0v199.151c0,0,60.654,0,62.577,0c28.16,0,51.2-25.599,51.2-56.889V327.09    C182.044,295.802,159.01,270.202,130.844,270.202z"/>
	</g>
</g>
<g>
</g>
<g>
</g>
<g>
</g>
<g>
</g>
<g>
</g>
<g>
</g>
<g>
</g>
<g>
</g>
<g>
</g>
<g>
</g>
<g>
</g>
<g>
</g>
<g>
</g>
<g>
</g>
<g>
</g>
</svg>
