<?xml version="1.0" encoding="iso-8859-1"?>
<!-- Generator: Adobe Illustrator 19.0.0, SVG Export Plug-In . SVG Version: 6.00 Build 0)  -->
<svg xmlns="http://www.w3.org/2000/svg" xmlns:xlink="http://www.w3.org/1999/xlink" version="1.1" id="Capa_1" x="0px" y="0px" viewBox="0 0 512 512" style="enable-background:new 0 0 512 512;" xml:space="preserve">
<g>
	<g>
		<path d="M474.977,36.951c-49.268-49.268-129.16-49.268-178.428,0c-1.037,1.044-94.169,94.175-94.169,94.175l14.476,14.476    c0,0-183.26,183.26-185.806,185.806c-41.31,41.31-41.31,108.289,0,149.601C51.708,501.667,78.776,512,105.85,512    c27.074,0,54.148-10.333,74.8-30.992c2.546-2.546,185.806-185.806,185.806-185.806l14.346,14.353c0,0,93.132-93.132,94.175-94.169    C524.245,166.119,524.26,86.234,474.977,36.951z M146.873,447.233c-10.954,10.954-25.518,16.993-41.017,16.993    s-30.056-6.04-41.025-16.993c-10.948-10.954-16.98-25.525-16.98-41.025c0-15.5,6.034-30.064,16.98-41.025    c10.954-10.948,25.525-16.98,41.025-16.98s30.064,6.026,41.025,16.987c10.954,10.954,16.993,25.518,16.993,41.017    C163.874,421.708,157.834,436.266,146.873,447.233z M393.004,181.795c-11.104,11.104-26.61,15.048-40.887,11.93l-43.563,43.577    l24.126,24.126L209.396,384.71c-4.041-19.526-13.582-38.151-28.739-53.309c-15.157-15.157-33.776-24.692-53.309-28.726    l123.284-123.297l24.133,24.133l43.569-43.577c-3.119-14.271,0.825-29.777,11.93-40.874c17.322-17.328,45.405-17.328,62.733,0    C410.326,136.39,410.326,164.48,393.004,181.795z"/>
	</g>
</g>
<g>
</g>
<g>
</g>
<g>
</g>
<g>
</g>
<g>
</g>
<g>
</g>
<g>
</g>
<g>
</g>
<g>
</g>
<g>
</g>
<g>
</g>
<g>
</g>
<g>
</g>
<g>
</g>
<g>
</g>
</svg>
