<?xml version="1.0" encoding="iso-8859-1"?>
<!-- Generator: Adobe Illustrator 19.0.0, SVG Export Plug-In . SVG Version: 6.00 Build 0)  -->
<svg xmlns="http://www.w3.org/2000/svg" xmlns:xlink="http://www.w3.org/1999/xlink" version="1.1" id="Capa_1" x="0px" y="0px" viewBox="0 0 512 512" style="enable-background:new 0 0 512 512;" xml:space="preserve">
<g>
	<g>
		<path d="M492.066,441.097L455.205,0H56.794l-36.86,441.097C16.726,480.099,46.123,512,85.252,512h341.494    C465.877,512,495.274,480.099,492.066,441.097z M376.946,92.488v71.835c-0.014,66.805-54.141,120.932-120.946,120.939    c-66.805-0.008-120.932-54.134-120.947-120.939V92.488H113.71V56.916h78.259v35.572h-21.344v71.835    c0.008,23.627,9.533,44.864,25.008,60.367c15.509,15.481,36.739,25,60.367,25.008c23.627-0.008,44.864-9.526,60.367-25.008    c15.474-15.509,24.994-36.739,25.008-60.367V92.488H320.03V56.916h78.259v35.572H376.946z"/>
	</g>
</g>
<g>
</g>
<g>
</g>
<g>
</g>
<g>
</g>
<g>
</g>
<g>
</g>
<g>
</g>
<g>
</g>
<g>
</g>
<g>
</g>
<g>
</g>
<g>
</g>
<g>
</g>
<g>
</g>
<g>
</g>
</svg>
