<?xml version="1.0" encoding="iso-8859-1"?>
<!-- Generator: Adobe Illustrator 19.0.0, SVG Export Plug-In . SVG Version: 6.00 Build 0)  -->
<svg xmlns="http://www.w3.org/2000/svg" xmlns:xlink="http://www.w3.org/1999/xlink" version="1.1" id="Capa_1" x="0px" y="0px" viewBox="0 0 512.001 512.001" style="enable-background:new 0 0 512.001 512.001;" xml:space="preserve">
<g>
	<g>
		<path d="M256.001,0C114.627,0,0,114.627,0,256.001s114.627,256.001,256.001,256.001s256.001-114.627,256.001-256.001    S397.374,0,256.001,0z M256.001,436.907c-99.908,0-180.906-80.998-180.906-180.906S156.092,75.093,256.001,75.093    s180.906,80.998,180.906,180.906S355.909,436.907,256.001,436.907z"/>
	</g>
</g>
<g>
	<g>
		<path d="M256.001,109.226c-80.931,0-146.773,65.844-146.773,146.773s65.844,146.773,146.773,146.773    s146.773-65.844,146.773-146.773S336.93,109.226,256.001,109.226z M211.627,320.853c-11.312,0-20.48-9.168-20.48-20.48    c0-11.312,9.168-20.48,20.48-20.48c11.312,0,20.48,9.168,20.48,20.48C232.108,311.685,222.938,320.853,211.627,320.853z     M211.627,232.106c-11.312,0-20.48-9.168-20.48-20.48s9.168-20.48,20.48-20.48c11.312,0,20.48,9.168,20.48,20.48    C232.106,222.938,222.938,232.106,211.627,232.106z M300.374,320.853c-11.312,0-20.48-9.168-20.48-20.48    c0-11.312,9.168-20.48,20.48-20.48s20.48,9.168,20.48,20.48C320.855,311.685,311.685,320.853,300.374,320.853z M300.374,232.106    c-11.312,0-20.48-9.168-20.48-20.48s9.168-20.48,20.48-20.48s20.48,9.168,20.48,20.48    C320.853,222.938,311.685,232.106,300.374,232.106z"/>
	</g>
</g>
<g>
</g>
<g>
</g>
<g>
</g>
<g>
</g>
<g>
</g>
<g>
</g>
<g>
</g>
<g>
</g>
<g>
</g>
<g>
</g>
<g>
</g>
<g>
</g>
<g>
</g>
<g>
</g>
<g>
</g>
</svg>
