<?xml version="1.0" encoding="iso-8859-1"?>
<!-- Generator: Adobe Illustrator 19.0.0, SVG Export Plug-In . SVG Version: 6.00 Build 0)  -->
<svg xmlns="http://www.w3.org/2000/svg" xmlns:xlink="http://www.w3.org/1999/xlink" version="1.1" id="Capa_1" x="0px" y="0px" viewBox="0 0 512 512" style="enable-background:new 0 0 512 512;" xml:space="preserve">
<g>
	<g>
		<path d="M116.495,120.808L116.495,120.808L90.331,17.258H0v40.27h59.243l86.792,338.047c-18.23,8.008-30.979,26.198-30.979,47.391    c0,28.609,23.189,51.775,51.775,51.775c28.58,0,51.775-23.167,51.775-51.775c0-3.958-0.483-7.795-1.323-11.505h117.702    c-0.84,3.711-1.323,7.548-1.323,11.505c0,28.609,23.189,51.775,51.769,51.775c28.591,0,51.781-23.167,51.781-51.775    c0-28.598-23.189-51.775-51.781-51.775c-0.581,0-199.019,0-199.019,0l-10.43-40.27h220.961c31.641,0,63.81-25.111,71.484-55.808    L512,120.808H116.495z M327.91,310.652h-28.764V161.078h28.764V310.652z M397.203,310.652H367.8l31.565-149.573h29.403    L397.203,310.652z"/>
	</g>
</g>
<g>
</g>
<g>
</g>
<g>
</g>
<g>
</g>
<g>
</g>
<g>
</g>
<g>
</g>
<g>
</g>
<g>
</g>
<g>
</g>
<g>
</g>
<g>
</g>
<g>
</g>
<g>
</g>
<g>
</g>
</svg>
