<?xml version="1.0" encoding="iso-8859-1"?>
<!-- Generator: Adobe Illustrator 19.0.0, SVG Export Plug-In . SVG Version: 6.00 Build 0)  -->
<svg xmlns="http://www.w3.org/2000/svg" xmlns:xlink="http://www.w3.org/1999/xlink" version="1.1" id="Capa_1" x="0px" y="0px" viewBox="0 0 512 512" style="enable-background:new 0 0 512 512;" xml:space="preserve">
<g>
	<g>
		<path d="M471.083,191.814c8.006-26.115-9.748-68.985-45.839-105.075C389.166,50.643,346.296,32.9,320.169,40.906L279.268,0    L0.003,279.267L40.91,320.18c-8.006,26.115,9.748,68.973,45.826,105.075c36.09,36.09,78.96,53.839,105.075,45.832L232.731,512    l279.267-279.272L471.083,191.814z M324.545,293.891c-14.32,14.332-33.23,21.555-51.996,21.543    c-18.76,0.012-37.67-7.211-51.996-21.543c-14.308-14.32-21.555-33.205-21.531-51.977c-0.024-18.772,7.187-37.694,21.531-52.026    c9.479-9.479,21.004-15.786,33.009-18.975l7.701,28.915c-7.211,1.92-13.955,5.619-19.556,11.22    c-8.545,8.557-12.752,19.633-12.765,30.866c0,5.643,1.089,11.256,3.25,16.54l33.846-33.846l21.154,21.154l-34.815,34.81    c6.289,3.291,13.206,4.919,20.172,4.931c11.22-0.018,22.29-4.231,30.842-12.776c5.613-5.613,9.317-12.339,11.22-19.52    l28.927,7.654C340.348,272.923,334.011,284.43,324.545,293.891z"/>
	</g>
</g>
<g>
</g>
<g>
</g>
<g>
</g>
<g>
</g>
<g>
</g>
<g>
</g>
<g>
</g>
<g>
</g>
<g>
</g>
<g>
</g>
<g>
</g>
<g>
</g>
<g>
</g>
<g>
</g>
<g>
</g>
</svg>
