<?xml version="1.0" encoding="iso-8859-1"?>
<!-- Generator: Adobe Illustrator 19.0.0, SVG Export Plug-In . SVG Version: 6.00 Build 0)  -->
<svg xmlns="http://www.w3.org/2000/svg" xmlns:xlink="http://www.w3.org/1999/xlink" version="1.1" id="Capa_1" x="0px" y="0px" viewBox="0 0 512.001 512.001" style="enable-background:new 0 0 512.001 512.001;" xml:space="preserve">
<g>
	<g>
		<path d="M494.814,369.754c2.634-13.084,11.412-60.274,11.018-106.927c-0.389-46.999-9.092-104.559-11.572-120.08    c10.838-9.049,17.742-22.658,17.742-37.882c0-27.253-22.097-49.35-49.35-49.35c-15.008,0-28.426,6.724-37.475,17.297    c-0.505-0.055-1.005-0.185-1.511-0.222c0,0-101.098-16.946-174.216-16.946c-64.562,0-145.279,13.3-163.304,16.415    c-9.037-10.123-22.152-16.538-36.797-16.538C22.097,55.522,0,77.617,0,104.871c0,13.602,5.509,25.914,14.404,34.835    c-0.957,7.686-8.698,71.656-8.698,123.12c0,50.305,7.767,101.08,9.056,109.136C5.656,380.919,0,393.368,0,407.136    c0,27.253,22.097,49.35,49.35,49.35c14.607,0,27.691-6.385,36.728-16.477c16.39,3.004,94.109,16.477,169.922,16.477    c79.212,0,168.121-16.946,168.121-16.946c0.407-0.031,0.801-0.135,1.209-0.173c9.049,10.468,22.393,17.117,37.321,17.117    c27.253,0,49.35-22.097,49.35-49.35C512,392.183,505.319,378.81,494.814,369.754z M85.368,324.365l0.05,0.339l-30.516,4.485    c-0.037-0.395-5.312-35.97-5.36-70.095c0.05-34.125,5.317-69.699,5.36-70.095l30.516,4.485l-0.05,0.339    c-0.531,3.615-4.985,36.167-4.985,65.277C80.384,288.198,84.837,320.75,85.368,324.365z"/>
	</g>
</g>
<g>
</g>
<g>
</g>
<g>
</g>
<g>
</g>
<g>
</g>
<g>
</g>
<g>
</g>
<g>
</g>
<g>
</g>
<g>
</g>
<g>
</g>
<g>
</g>
<g>
</g>
<g>
</g>
<g>
</g>
</svg>
