<?xml version="1.0" encoding="iso-8859-1"?>
<!-- Generator: Adobe Illustrator 16.0.0, SVG Export Plug-In . SVG Version: 6.00 Build 0)  -->
<!DOCTYPE svg PUBLIC "-//W3C//DTD SVG 1.1//EN" "http://www.w3.org/Graphics/SVG/1.1/DTD/svg11.dtd">
<svg version="1.1" id="Capa_1" xmlns="http://www.w3.org/2000/svg" xmlns:xlink="http://www.w3.org/1999/xlink" x="0px" y="0px"
	 width="125.105px" height="125.105px" viewBox="0 0 125.105 125.105" style="enable-background:new 0 0 125.105 125.105;"
	 xml:space="preserve">
<g>
	<circle cx="22.789" cy="22.5" r="22.5"/>
	<path d="M111.189,44.9h-55.4c-6.5,0-11.4,4.9-11.4,11.4v55.3c0,6.5,5,11.7,11.4,11.7c6.3,0,11.3-5.7,11.3-11.8v-27
		c0,0,37.101,37.199,37.2,37.199c2.3,2.301,5.4,3.5,8.6,3.4c7.7-0.199,13.6-8.199,11.5-15.6c-0.5-1.9-1.6-3.6-2.9-5l-37.299-37h27
		c6.1,0,11.799-5,11.799-11.3C122.888,49.8,117.689,44.9,111.189,44.9z"/>
</g>
<g>
</g>
<g>
</g>
<g>
</g>
<g>
</g>
<g>
</g>
<g>
</g>
<g>
</g>
<g>
</g>
<g>
</g>
<g>
</g>
<g>
</g>
<g>
</g>
<g>
</g>
<g>
</g>
<g>
</g>
</svg>
