<?xml version="1.0" encoding="iso-8859-1"?>
<!-- Generator: Adobe Illustrator 16.0.0, SVG Export Plug-In . SVG Version: 6.00 Build 0)  -->
<!DOCTYPE svg PUBLIC "-//W3C//DTD SVG 1.1//EN" "http://www.w3.org/Graphics/SVG/1.1/DTD/svg11.dtd">
<svg version="1.1" id="Capa_1" xmlns="http://www.w3.org/2000/svg" xmlns:xlink="http://www.w3.org/1999/xlink" x="0px" y="0px"
	 width="992.1px" height="992.1px" viewBox="0 0 992.1 992.1" style="enable-background:new 0 0 992.1 992.1;" xml:space="preserve"
	>
<g>
	<path d="M671.45,0h-350.8c-76.7,0-139.1,63.6-139.1,141.7v708.7c0,78.1,62.4,141.699,139.1,141.699h208.3
		c76.7,0,139.1-63.6,139.1-141.699V346.7c0-62.2-49.8-112.8-111.1-112.8h-123.3c-61.2,0-111.101,50.6-111.101,112.8v247.5
		c0,30.399,24.601,55,55,55c30.4,0,55-24.601,55-55V346.7c0-1.8,1-2.6,1.3-2.8h122.9c0.3,0.2,1.3,1.1,1.3,2.8v503.7
		c0,17.199-13.3,31.699-29.1,31.699h-208.3c-15.8,0-29.1-14.5-29.1-31.699V141.7c0-17.2,13.3-31.7,29.1-31.7h350.8
		c15.8,0,29.1,14.5,29.1,31.7v648c0,30.399,24.601,55,55,55c30.4,0,55-24.601,55-55v-648C810.55,63.6,748.15,0,671.45,0z"/>
</g>
<g>
</g>
<g>
</g>
<g>
</g>
<g>
</g>
<g>
</g>
<g>
</g>
<g>
</g>
<g>
</g>
<g>
</g>
<g>
</g>
<g>
</g>
<g>
</g>
<g>
</g>
<g>
</g>
<g>
</g>
</svg>
