<?xml version="1.0" encoding="iso-8859-1"?>
<!-- Generator: Adobe Illustrator 16.0.0, SVG Export Plug-In . SVG Version: 6.00 Build 0)  -->
<!DOCTYPE svg PUBLIC "-//W3C//DTD SVG 1.1//EN" "http://www.w3.org/Graphics/SVG/1.1/DTD/svg11.dtd">
<svg version="1.1" id="Capa_1" xmlns="http://www.w3.org/2000/svg" xmlns:xlink="http://www.w3.org/1999/xlink" x="0px" y="0px"
	 width="122.1px" height="122.1px" viewBox="0 0 122.1 122.1" style="enable-background:new 0 0 122.1 122.1;" xml:space="preserve"
	>
<g>
	<path d="M6,87.803h7.2c2.1,0,4,1.3,4.7,3.3l8.2,23c0.9,2.4,3.1,4,5.7,4h5.9c4.1,0,7-4.1,5.7-8l-5.6-15.6c-1.2-3.3,1.3-6.7,4.7-6.7
		h26.2c1.1,0,2.1,0.3,3,0.8l41.399,24.2c4,2.3,9-0.5,9-5.2v-97.6c0-4.6-5-7.5-9-5.2L71.7,29.103c-0.9,0.5-2,0.8-3,0.8H6
		c-3.3,0-6,2.7-6,6v45.9C0,85.103,2.7,87.803,6,87.803z"/>
</g>
<g>
</g>
<g>
</g>
<g>
</g>
<g>
</g>
<g>
</g>
<g>
</g>
<g>
</g>
<g>
</g>
<g>
</g>
<g>
</g>
<g>
</g>
<g>
</g>
<g>
</g>
<g>
</g>
<g>
</g>
</svg>
