<?xml version="1.0" encoding="iso-8859-1"?>
<!-- Generator: Adobe Illustrator 16.0.0, SVG Export Plug-In . SVG Version: 6.00 Build 0)  -->
<!DOCTYPE svg PUBLIC "-//W3C//DTD SVG 1.1//EN" "http://www.w3.org/Graphics/SVG/1.1/DTD/svg11.dtd">
<svg version="1.1" id="Capa_1" xmlns="http://www.w3.org/2000/svg" xmlns:xlink="http://www.w3.org/1999/xlink" x="0px" y="0px"
	 width="990.6px" height="990.6px" viewBox="0 0 990.6 990.6" style="enable-background:new 0 0 990.6 990.6;" xml:space="preserve"
	>
<g>
	<path d="M756.3,17.3h-522c-16.6,0-30,13.4-30,30v896c0,16.6,13.4,30,30,30h522c16.6,0,30-13.4,30-30v-896
		C786.3,30.7,772.899,17.3,756.3,17.3z M318.3,133.8h223.6c12.4,0,22.5,10.1,22.5,22.5s-10.1,22.5-22.5,22.5H318.3
		c-12.4,0-22.5-10.1-22.5-22.5S305.899,133.8,318.3,133.8z M672.3,559.5h-354c-12.4,0-22.5-10.101-22.5-22.5
		c0-12.4,10.1-22.5,22.5-22.5h354c12.4,0,22.5,10.1,22.5,22.5C694.8,549.399,684.7,559.5,672.3,559.5z M295.8,410.1
		c0-12.399,10.1-22.5,22.5-22.5h255c12.4,0,22.5,10.101,22.5,22.5c0,12.4-10.1,22.5-22.5,22.5h-255
		C305.899,432.6,295.8,422.5,295.8,410.1z M672.3,305.7h-354c-12.4,0-22.5-10.1-22.5-22.5s10.1-22.5,22.5-22.5h354
		c12.4,0,22.5,10.1,22.5,22.5S684.7,305.7,672.3,305.7z"/>
	<path d="M960.6,17.3h-77.7c-16.6,0-30,13.4-30,30v896c0,16.6,13.4,30,30,30h77.7c16.601,0,30-13.4,30-30v-896
		C990.6,30.7,977.2,17.3,960.6,17.3z"/>
	<path d="M107.6,17.3H30c-16.6,0-30,13.4-30,30v896c0,16.6,13.4,30,30,30h77.7c16.6,0,30-13.4,30-30v-896
		C137.6,30.7,124.2,17.3,107.6,17.3z"/>
</g>
<g>
</g>
<g>
</g>
<g>
</g>
<g>
</g>
<g>
</g>
<g>
</g>
<g>
</g>
<g>
</g>
<g>
</g>
<g>
</g>
<g>
</g>
<g>
</g>
<g>
</g>
<g>
</g>
<g>
</g>
</svg>
