<?xml version="1.0" encoding="iso-8859-1"?>
<!-- Generator: Adobe Illustrator 16.0.0, SVG Export Plug-In . SVG Version: 6.00 Build 0)  -->
<!DOCTYPE svg PUBLIC "-//W3C//DTD SVG 1.1//EN" "http://www.w3.org/Graphics/SVG/1.1/DTD/svg11.dtd">
<svg version="1.1" id="Capa_1" xmlns="http://www.w3.org/2000/svg" xmlns:xlink="http://www.w3.org/1999/xlink" x="0px" y="0px"
	 width="966px" height="966px" viewBox="0 0 966 966" style="enable-background:new 0 0 966 966;" xml:space="preserve">
<g>
	<path d="M906,178.55H60c-33.1,0-60,26.9-60,60v488.9c0,33.1,26.9,60,60,60h846c33.1,0,60-26.9,60-60v-488.9
		C966,205.45,939.1,178.55,906,178.55z M852,647.55c0,16.6-13.4,30-30,30H475.5c-16.6,0-30-13.4-30-30v-121.5c0-16.6,13.4-30,30-30
		H822c16.6,0,30,13.4,30,30V647.55z M822,406.85H144c-16.6,0-30-13.4-30-30s13.4-30,30-30h678c16.6,0,30,13.4,30,30
		S838.6,406.85,822,406.85z"/>
</g>
<g>
</g>
<g>
</g>
<g>
</g>
<g>
</g>
<g>
</g>
<g>
</g>
<g>
</g>
<g>
</g>
<g>
</g>
<g>
</g>
<g>
</g>
<g>
</g>
<g>
</g>
<g>
</g>
<g>
</g>
</svg>
