<?xml version="1.0" encoding="iso-8859-1"?>
<!-- Generator: Adobe Illustrator 16.0.0, SVG Export Plug-In . SVG Version: 6.00 Build 0)  -->
<!DOCTYPE svg PUBLIC "-//W3C//DTD SVG 1.1//EN" "http://www.w3.org/Graphics/SVG/1.1/DTD/svg11.dtd">
<svg version="1.1" id="Capa_1" xmlns="http://www.w3.org/2000/svg" xmlns:xlink="http://www.w3.org/1999/xlink" x="0px" y="0px"
	 width="122px" height="122px" viewBox="0 0 122 122" style="enable-background:new 0 0 122 122;" xml:space="preserve">
<g>
	<path d="M0,103.8C0,114,7.9,122,18.2,122h27.6l24.8-24.7c-1.3-2.8-2-5.8-2-9.1c0-12.2,10-22,22.2-22c6.8,0,13.2,3.2,17.2,8.1
		c3,3.8,5,8.7,5,14c0,8.7-5.3,16.5-13.2,19.9c-5.2,2.3-13.399,3.3-18.3-0.3l-13.8,14H103.1c10.2,0,18.9-8,18.9-18.2V18.9
		C122,8.7,113.3,0,103.1,0H38v12.9c0,0.1,3,1.1,3.3,1.3c1.3,0.6,2.5,1.4,3.6,2.2c4,2.7,6.8,7,11.6,8.4c1.5,0.4,7.3,0.5,8.9,0
		C68.3,24,70.6,22,72.7,20c4.8-4.5,10.399-8.2,17.3-8.2c6.8,0,14,3.6,18,9.1c5.5,7.4,5.6,19.4,0,26.8c-4,5.4-10.6,8.8-17.9,8.8
		c-4.399,0-8.899-1.3-12.6-3.9c-4.3-2.9-7-7.3-12.2-8.9c-1.5-0.4-7.4-0.4-8.9,0c-5.2,1.5-8.1,5.9-12.4,8.9
		c-3.7,2.5-7.8,3.9-12.3,3.9C24.4,56.4,18,52.7,14,47c-4.2-5.9-5.4-13.7-2.9-20.5c2.2-6.1,6.9-11,12.9-13.2V0h-5.8
		C7.9,0,0,8.7,0,18.9V103.8z"/>
	<circle cx="91.2" cy="88" r="10"/>
	<circle cx="32.1" cy="33.9" r="9.6"/>
	<circle cx="89.9" cy="33.9" r="9.6"/>
</g>
<g>
</g>
<g>
</g>
<g>
</g>
<g>
</g>
<g>
</g>
<g>
</g>
<g>
</g>
<g>
</g>
<g>
</g>
<g>
</g>
<g>
</g>
<g>
</g>
<g>
</g>
<g>
</g>
<g>
</g>
</svg>
