<?xml version="1.0" encoding="iso-8859-1"?>
<!-- Generator: Adobe Illustrator 16.0.0, SVG Export Plug-In . SVG Version: 6.00 Build 0)  -->
<!DOCTYPE svg PUBLIC "-//W3C//DTD SVG 1.1//EN" "http://www.w3.org/Graphics/SVG/1.1/DTD/svg11.dtd">
<svg version="1.1" id="Capa_1" xmlns="http://www.w3.org/2000/svg" xmlns:xlink="http://www.w3.org/1999/xlink" x="0px" y="0px"
	 width="122px" height="122px" viewBox="0 0 122 122" style="enable-background:new 0 0 122 122;" xml:space="preserve">
<g>
	<path d="M122,73.5v-46c0-11-9-20-20-20H20c-11,0-20,9-20,20v46c0,11,9,20,20,20h23.5l-10,10.6c-3.6,3.801-0.9,10.4,4.3,10.4H84
		c5.3,0,8-6.5,4.3-10.4l-9.8-10.6H102C113,93.5,122,84.5,122,73.5z M109,75.7c0,3.3-2.7,5.8-6,5.8H67.2H54.8h-2c-2,0-3.6-0.7-4.6-2
		c-1.8-2.2-2-5.7,0.4-8l50-50l0.2-0.2c3.7-3.8,10.2-1.1,10.2,4.2V75.7z"/>
</g>
<g>
</g>
<g>
</g>
<g>
</g>
<g>
</g>
<g>
</g>
<g>
</g>
<g>
</g>
<g>
</g>
<g>
</g>
<g>
</g>
<g>
</g>
<g>
</g>
<g>
</g>
<g>
</g>
<g>
</g>
</svg>
