<?xml version="1.0" encoding="iso-8859-1"?>
<!-- Generator: Adobe Illustrator 16.0.0, SVG Export Plug-In . SVG Version: 6.00 Build 0)  -->
<!DOCTYPE svg PUBLIC "-//W3C//DTD SVG 1.1//EN" "http://www.w3.org/Graphics/SVG/1.1/DTD/svg11.dtd">
<svg version="1.1" id="Capa_1" xmlns="http://www.w3.org/2000/svg" xmlns:xlink="http://www.w3.org/1999/xlink" x="0px" y="0px"
	 width="995.301px" height="995.301px" viewBox="0 0 995.301 995.301" style="enable-background:new 0 0 995.301 995.301;"
	 xml:space="preserve">
<g>
	<path d="M790.5,575.839c-30.9,0-60.199,6.899-86.5,19.2L596.6,487.738L955,129.339c27.301-27.301,27.301-71.7,0-99
		c-27.301-27.301-71.699-27.301-99,0L497.6,388.738l-358.4-358.3c-27.3-27.3-71.7-27.3-99,0c-27.3,27.3-27.3,71.7,0,99l358.4,358.4
		l-107.3,107.2c-26.3-12.301-55.6-19.2-86.5-19.2c-113,0-204.8,91.899-204.8,204.8s91.9,204.8,204.8,204.8
		c112.899,0,204.7-91.899,204.7-204.8c0-30.9-6.9-60.2-19.2-86.5l107.3-107.3l107.3,107.3c-12.301,26.3-19.201,55.6-19.201,86.5
		c0,112.9,91.9,204.8,204.801,204.8s204.801-91.899,204.801-204.8S903.4,575.839,790.5,575.839z M269.5,780.639
		c0,35.7-29.1,64.8-64.8,64.8c-35.7,0-64.8-29.1-64.8-64.8s29.1-64.8,64.8-64.8C240.4,715.839,269.5,744.938,269.5,780.639z
		 M855.199,780.639c0,35.7-29.1,64.8-64.799,64.8c-35.701,0-64.801-29.1-64.801-64.8s29.1-64.8,64.801-64.8
		C826.1,715.839,855.199,744.938,855.199,780.639z"/>
</g>
<g>
</g>
<g>
</g>
<g>
</g>
<g>
</g>
<g>
</g>
<g>
</g>
<g>
</g>
<g>
</g>
<g>
</g>
<g>
</g>
<g>
</g>
<g>
</g>
<g>
</g>
<g>
</g>
<g>
</g>
</svg>
