<?xml version="1.0" encoding="iso-8859-1"?>
<!-- Generator: Adobe Illustrator 16.0.0, SVG Export Plug-In . SVG Version: 6.00 Build 0)  -->
<!DOCTYPE svg PUBLIC "-//W3C//DTD SVG 1.1//EN" "http://www.w3.org/Graphics/SVG/1.1/DTD/svg11.dtd">
<svg version="1.1" id="Capa_1" xmlns="http://www.w3.org/2000/svg" xmlns:xlink="http://www.w3.org/1999/xlink" x="0px" y="0px"
	 width="983.274px" height="983.274px" viewBox="0 0 983.274 983.274" style="enable-background:new 0 0 983.274 983.274;"
	 xml:space="preserve">
<g>
	<path d="M935.075,832.887H663.274l-96.5,96.5h368.301c26.6,0,48.199-21.6,48.199-48.199
		C983.274,854.387,961.675,832.887,935.075,832.887z"/>
	<path d="M935.075,461.987c22.5-22.5,22.5-59,0-81.5l-309.7-309.7c-11.3-11.3-26-16.9-40.7-16.9s-29.5,5.7-40.8,16.9l-235.2,235.2
		l391.2,391.201L935.075,461.987z"/>
	<path d="M249.875,912.288c10.899,10.9,25.699,17,41.1,17h145.5h7.3c15.4,0,30.2-6.1,41.101-17l79.399-79.4l79.101-79.1
		l-391.2-391.201l-235.3,235.201c-22.5,22.5-22.5,59,0,81.5L249.875,912.288z"/>
</g>
<g>
</g>
<g>
</g>
<g>
</g>
<g>
</g>
<g>
</g>
<g>
</g>
<g>
</g>
<g>
</g>
<g>
</g>
<g>
</g>
<g>
</g>
<g>
</g>
<g>
</g>
<g>
</g>
<g>
</g>
</svg>
