<?xml version="1.0" encoding="iso-8859-1"?>
<!-- Generator: Adobe Illustrator 16.0.0, SVG Export Plug-In . SVG Version: 6.00 Build 0)  -->
<!DOCTYPE svg PUBLIC "-//W3C//DTD SVG 1.1//EN" "http://www.w3.org/Graphics/SVG/1.1/DTD/svg11.dtd">
<svg version="1.1" id="Capa_1" xmlns="http://www.w3.org/2000/svg" xmlns:xlink="http://www.w3.org/1999/xlink" x="0px" y="0px"
	 width="958.6px" height="958.6px" viewBox="0 0 958.6 958.6" style="enable-background:new 0 0 958.6 958.6;" xml:space="preserve"
	>
<g>
	<path d="M877.8,958.6c33.1,0,60-26.899,60-60V288.7c0-23.9-9.5-46.8-26.4-63.6L712.8,26.4C695.899,9.5,672.999,0,649.2,0h-15.801
		v220c0,33.1-26.9,60-60,60H199.2c-33.1,0-60-26.9-60-60V0H80.8c-33.1,0-60,26.9-60,60v288.3v72v478.3c0,33.101,26.9,60,60,60h37.9
		V556.7c0-33.101,26.9-60,60-60h601.299c33.102,0,60,26.899,60,60V958.6H877.8L877.8,958.6z"/>
	<path d="M507.399,211.4c16.6,0,30-13.4,30-30V0H412.9v181.4c0,16.6,13.4,30,30,30H507.399z"/>
</g>
<g>
</g>
<g>
</g>
<g>
</g>
<g>
</g>
<g>
</g>
<g>
</g>
<g>
</g>
<g>
</g>
<g>
</g>
<g>
</g>
<g>
</g>
<g>
</g>
<g>
</g>
<g>
</g>
<g>
</g>
</svg>
