<?xml version="1.0" encoding="iso-8859-1"?>
<!-- Generator: Adobe Illustrator 16.0.0, SVG Export Plug-In . SVG Version: 6.00 Build 0)  -->
<!DOCTYPE svg PUBLIC "-//W3C//DTD SVG 1.1//EN" "http://www.w3.org/Graphics/SVG/1.1/DTD/svg11.dtd">
<svg version="1.1" id="Capa_1" xmlns="http://www.w3.org/2000/svg" xmlns:xlink="http://www.w3.org/1999/xlink" x="0px" y="0px"
	 width="123.941px" height="123.941px" viewBox="0 0 123.941 123.941" style="enable-background:new 0 0 123.941 123.941;"
	 xml:space="preserve">
<g>
	<path d="M117.171,26.821H98.57c1.3,3.2,1.3,6.9-0.2,10.2c-2.1,5-7,8.2-12.399,8.2h-48c-5.4,0-10.3-3.2-12.4-8.2
		c-1.4-3.3-1.4-7-0.2-10.2h-18.6c-5.8,0-8.9,6.8-5.1,11.2l15.7,18.1c1.3,1.5,3.2,2.3,5.1,2.3h79c2,0,3.8-0.9,5.1-2.3l15.7-18.1
		C126.07,33.721,122.971,26.821,117.171,26.821z"/>
	<path d="M64.471,4.221c-0.7-0.7-1.601-1.1-2.5-1.1c-0.9,0-1.8,0.4-2.5,1.1l-21.7,22.6l-2.4,2.5c-2.1,2.2-0.5,5.9,2.5,5.9h48
		c3.101,0,4.7-3.7,2.5-5.9l-2.399-2.5L64.471,4.221z"/>
	<path d="M106.57,67.921c-1.3-1.5-3.2-2.3-5.1-2.3h-79c-2,0-3.8,0.9-5.1,2.3l-15.7,18c-3.8,4.399-0.7,11.3,5.1,11.3h18.6
		c-1.3-3.199-1.3-6.9,0.2-10.199c2.1-5,7-8.201,12.4-8.201h48c5.399,0,10.3,3.201,12.399,8.201c1.4,3.299,1.4,7,0.2,10.199h18.601
		c5.8,0,8.899-6.8,5.1-11.199L106.57,67.921z"/>
	<path d="M85.971,88.721h-48c-3.1,0-4.7,3.7-2.5,5.9l2.4,2.5l21.6,22.6c0.7,0.7,1.6,1.1,2.5,1.1c0.899,0,1.8-0.399,2.5-1.1
		l21.6-22.6l2.4-2.5C90.671,92.421,89.07,88.721,85.971,88.721z"/>
</g>
<g>
</g>
<g>
</g>
<g>
</g>
<g>
</g>
<g>
</g>
<g>
</g>
<g>
</g>
<g>
</g>
<g>
</g>
<g>
</g>
<g>
</g>
<g>
</g>
<g>
</g>
<g>
</g>
<g>
</g>
</svg>
