<?xml version="1.0" encoding="iso-8859-1"?>
<!-- Generator: Adobe Illustrator 16.0.0, SVG Export Plug-In . SVG Version: 6.00 Build 0)  -->
<!DOCTYPE svg PUBLIC "-//W3C//DTD SVG 1.1//EN" "http://www.w3.org/Graphics/SVG/1.1/DTD/svg11.dtd">
<svg version="1.1" id="Capa_1" xmlns="http://www.w3.org/2000/svg" xmlns:xlink="http://www.w3.org/1999/xlink" x="0px" y="0px"
	 width="984px" height="984px" viewBox="0 0 984 984" style="enable-background:new 0 0 984 984;" xml:space="preserve">
<g>
	<path d="M909.8,984c24.899,0,45-20.1,45-45V45c0-24.9-20.101-45-45-45h-20c-24.9,0-45,20.1-45,45v894c0,24.9,20.1,45,45,45H909.8z"
		/>
	<path d="M74.2,139c-24.9,0-45,20.1-45,45v355c0,24.9,20.1,45,45,45h371c24.9,0,45-20.1,45-45v-49H375.9c-49.6,0-90-40.4-90-90V139
		H74.2z"/>
	<path d="M490.2,445h256.7c24.9,0,45-20.1,45-45V45c0-24.9-20.1-45-45-45h-371c-24.9,0-45,20.1-45,45v94v261c0,24.9,20.1,45,45,45
		H490.2z"/>
</g>
<g>
</g>
<g>
</g>
<g>
</g>
<g>
</g>
<g>
</g>
<g>
</g>
<g>
</g>
<g>
</g>
<g>
</g>
<g>
</g>
<g>
</g>
<g>
</g>
<g>
</g>
<g>
</g>
<g>
</g>
</svg>
