<?xml version="1.0" encoding="iso-8859-1"?>
<!-- Generator: Adobe Illustrator 16.0.0, SVG Export Plug-In . SVG Version: 6.00 Build 0)  -->
<!DOCTYPE svg PUBLIC "-//W3C//DTD SVG 1.1//EN" "http://www.w3.org/Graphics/SVG/1.1/DTD/svg11.dtd">
<svg version="1.1" id="Capa_1" xmlns="http://www.w3.org/2000/svg" xmlns:xlink="http://www.w3.org/1999/xlink" x="0px" y="0px"
	 width="125.325px" height="125.325px" viewBox="0 0 125.325 125.325" style="enable-background:new 0 0 125.325 125.325;"
	 xml:space="preserve">
<g>
	<path d="M96.125,92.912V68.513l-27.9,9c-1.8,0.601-3.6,0.899-5.5,0.899s-3.7-0.299-5.5-0.899l-27.9-9v24.5c0,6.101,15,11,33.5,11
		S96.125,99.013,96.125,92.912z"/>
	<path d="M121.225,36.413l-56.699-18.3c-0.601-0.2-1.2-0.3-1.8-0.3s-1.2,0.1-1.8,0.3l-56.8,18.3c-5.5,1.7-5.5,9.6,0,11.4l6.8,2.2
		v6.3v6.3v39.9c0,2.8,2.2,5,5,5c2.8,0,5-2.2,5-5v-36.7v-6.3v-6.3l8.2,2.7l31.6,10.201c0.6,0.199,1.2,0.299,1.8,0.299
		s1.2-0.1,1.8-0.299l31.6-10.201l25.101-8.1C126.725,46.013,126.725,38.113,121.225,36.413z M68.925,46.213c-1.8,0.5-4,0.9-6.2,0.9
		c-2.2,0-4.4-0.3-6.2-0.9c-4-1.2-6.8-3.5-6.8-6.1c0-3.9,5.8-7,13-7c7.2,0,13,3.1,13,7C75.625,42.713,72.925,45.013,68.925,46.213z"
		/>
</g>
<g>
</g>
<g>
</g>
<g>
</g>
<g>
</g>
<g>
</g>
<g>
</g>
<g>
</g>
<g>
</g>
<g>
</g>
<g>
</g>
<g>
</g>
<g>
</g>
<g>
</g>
<g>
</g>
<g>
</g>
</svg>
