<?xml version="1.0" encoding="iso-8859-1"?>
<!-- Generator: Adobe Illustrator 16.0.0, SVG Export Plug-In . SVG Version: 6.00 Build 0)  -->
<!DOCTYPE svg PUBLIC "-//W3C//DTD SVG 1.1//EN" "http://www.w3.org/Graphics/SVG/1.1/DTD/svg11.dtd">
<svg version="1.1" id="Capa_1" xmlns="http://www.w3.org/2000/svg" xmlns:xlink="http://www.w3.org/1999/xlink" x="0px" y="0px"
	 width="966.627px" height="966.626px" viewBox="0 0 966.627 966.626" style="enable-background:new 0 0 966.627 966.626;"
	 xml:space="preserve">
<g>
	<path d="M966.627,766.914v-394.8c0-16.5-13.5-30-30-30l-37.1-0.4c-0.9-0.4-2-0.9-2.8-1.8l-0.101-0.1l-153.6-167.8
		c-22.3-22.2-48.101-33.5-76.7-33.5h-221.5c-52.2,0-52.3,92.9,0,92.9c1.3,0,145,0,145,0c24.7,0,40.1,13.5,40.1,35.2
		c0,22.9-14.8,36.6-39.6,36.6h-551.4c-51.2,0-52.6,103.2,0,103.2h347.6c12.8,0,22.1,8.6,22.1,20.399c0,11.801-9.3,20.4-22.1,20.4
		h-112.4c-50.7,0-52.6,103.2,0,103.2c0.8,0,112.3,0,112.3,0c12.801,0,22.101,8.6,22.101,20.399c0,11.801-9.3,20.4-22.101,20.4
		h-86.699c-52,0-51.9,103.2,0,103.2c0.5,0,86.6,0,86.6,0c12.8,0,22.1,8.6,22.1,20.399c0,11.801-9.3,20.4-22.1,20.4h-47.5
		c-26.1,0-38.8,23.6-38.5,47.1c0.3,23,13.2,45.801,38.5,45.801c0.5,0,474.8,0,474.8,0c23.8,0,67.101-3.801,89.2-29.601l1.5-1.7h32.2
		C953.228,796.914,966.627,783.414,966.627,766.914z"/>
</g>
<g>
</g>
<g>
</g>
<g>
</g>
<g>
</g>
<g>
</g>
<g>
</g>
<g>
</g>
<g>
</g>
<g>
</g>
<g>
</g>
<g>
</g>
<g>
</g>
<g>
</g>
<g>
</g>
<g>
</g>
</svg>
