<?xml version="1.0" encoding="iso-8859-1"?>
<!-- Generator: Adobe Illustrator 16.0.0, SVG Export Plug-In . SVG Version: 6.00 Build 0)  -->
<!DOCTYPE svg PUBLIC "-//W3C//DTD SVG 1.1//EN" "http://www.w3.org/Graphics/SVG/1.1/DTD/svg11.dtd">
<svg version="1.1" id="Capa_1" xmlns="http://www.w3.org/2000/svg" xmlns:xlink="http://www.w3.org/1999/xlink" x="0px" y="0px"
	 width="961.4px" height="961.4px" viewBox="0 0 961.4 961.4" style="enable-background:new 0 0 961.4 961.4;" xml:space="preserve"
	>
<g>
	<path d="M961.4,60c0-33.1-26.9-60-60-60H60C26.9,0,0,26.9,0,60v671.7h961.4V60z M865.5,599h-108H500.101H95.9
		c-37.6,0-58.6-43.3-35.4-72.8l272.7-346.9c24-30.6,70.3-30.6,94.3,0l201.3,256l53.101-67.6c24-30.6,70.3-30.6,94.3,0l124.6,158.5
		C924.101,555.8,903,599,865.5,599z"/>
	<path d="M961.4,811.7H0v89.7c0,33.1,26.9,60,60,60h841.4c33.1,0,60-26.9,60-60V811.7z"/>
</g>
<g>
</g>
<g>
</g>
<g>
</g>
<g>
</g>
<g>
</g>
<g>
</g>
<g>
</g>
<g>
</g>
<g>
</g>
<g>
</g>
<g>
</g>
<g>
</g>
<g>
</g>
<g>
</g>
<g>
</g>
</svg>
