<?xml version="1.0" encoding="iso-8859-1"?>
<!-- Generator: Adobe Illustrator 16.0.0, SVG Export Plug-In . SVG Version: 6.00 Build 0)  -->
<!DOCTYPE svg PUBLIC "-//W3C//DTD SVG 1.1//EN" "http://www.w3.org/Graphics/SVG/1.1/DTD/svg11.dtd">
<svg version="1.1" id="Capa_1" xmlns="http://www.w3.org/2000/svg" xmlns:xlink="http://www.w3.org/1999/xlink" x="0px" y="0px"
	 width="123.701px" height="123.7px" viewBox="0 0 123.701 123.7" style="enable-background:new 0 0 123.701 123.7;"
	 xml:space="preserve">
<g>
	<path d="M61.85,0c-24.8,0-44.8,20.1-44.8,44.8c0,8.8,2.6,17.4,7.4,24.799c5.3,8,13,14.5,16.9,23.101h15.5v-41h-8c-2.8,0-5-2.2-5-5
		s2.2-5,5-5h26c2.8,0,5,2.2,5,5s-2.2,5-5,5h-8v41h15.3c2.9-6.8,8-12.8,12.9-18c7.6-7.899,11.6-18.9,11.6-29.8
		C106.65,20.1,86.65,0,61.85,0z"/>
	<path d="M43.85,103.801V117.7c0,3.3,2.7,6,6,6h24c3.3,0,6-2.7,6-6v-14.2c0-0.3,0-0.5,0-0.8h-36
		C43.85,103.1,43.85,103.4,43.85,103.801z"/>
</g>
<g>
</g>
<g>
</g>
<g>
</g>
<g>
</g>
<g>
</g>
<g>
</g>
<g>
</g>
<g>
</g>
<g>
</g>
<g>
</g>
<g>
</g>
<g>
</g>
<g>
</g>
<g>
</g>
<g>
</g>
</svg>
