<?xml version="1.0" encoding="iso-8859-1"?>
<!-- Generator: Adobe Illustrator 16.0.0, SVG Export Plug-In . SVG Version: 6.00 Build 0)  -->
<!DOCTYPE svg PUBLIC "-//W3C//DTD SVG 1.1//EN" "http://www.w3.org/Graphics/SVG/1.1/DTD/svg11.dtd">
<svg version="1.1" id="Capa_1" xmlns="http://www.w3.org/2000/svg" xmlns:xlink="http://www.w3.org/1999/xlink" x="0px" y="0px"
	 width="990.1px" height="990.1px" viewBox="0 0 990.1 990.1" style="enable-background:new 0 0 990.1 990.1;" xml:space="preserve"
	>
<g>
	<path d="M74.987,990.1c19.2,0,38.4-7.299,53-22l307.5-307.4V554.6h-106.1l-307.4,307.5c-29.3,29.301-29.3,76.801,0,106.1
		C36.587,982.801,55.787,990.1,74.987,990.1z"/>
	<path d="M915.087,324.6h-143.5l101.5-101.5c29.301-29.3,29.301-76.8,0-106.1c-14.6-14.6-33.8-22-53-22c-19.199,0-38.399,7.3-53,22
		l-101.6,101.5V75c0-41.4-33.6-75-75-75s-75,33.6-75,75v143.5L413.987,117c-14.6-14.6-33.8-22-53-22s-38.4,7.3-53,22
		c-29.3,29.3-29.3,76.8,0,106.1l101.4,101.5h-143.5c-41.4,0-75,33.6-75,75c0,41.4,33.6,75,75,75h143.5h106.1v106.099v143.5
		c0,41.4,33.6,75,75,75s75-33.6,75-75v-143.5l101.5,101.5c14.6,14.602,33.8,22,53,22s38.4-7.299,53-22
		c29.3-29.299,29.3-76.799,0-106.1l-101.4-101.5h143.5c41.4,0,75-33.6,75-75C990.087,358.2,956.487,324.6,915.087,324.6z"/>
</g>
<g>
</g>
<g>
</g>
<g>
</g>
<g>
</g>
<g>
</g>
<g>
</g>
<g>
</g>
<g>
</g>
<g>
</g>
<g>
</g>
<g>
</g>
<g>
</g>
<g>
</g>
<g>
</g>
<g>
</g>
</svg>
