<?xml version="1.0" encoding="iso-8859-1"?>
<!-- Generator: Adobe Illustrator 16.0.0, SVG Export Plug-In . SVG Version: 6.00 Build 0)  -->
<!DOCTYPE svg PUBLIC "-//W3C//DTD SVG 1.1//EN" "http://www.w3.org/Graphics/SVG/1.1/DTD/svg11.dtd">
<svg version="1.1" id="Capa_1" xmlns="http://www.w3.org/2000/svg" xmlns:xlink="http://www.w3.org/1999/xlink" x="0px" y="0px"
	 width="971px" height="971px" viewBox="0 0 971 971" style="enable-background:new 0 0 971 971;" xml:space="preserve">
<g>
	<path d="M172.85,971h625c33.1,0,60-26.9,60-60c0,0,0.3-792.8,0.3-795.4C858.15,51.9,806.25,0,742.45,0c-33.899,0-64.5,14.7-85.6,38
		c-21.2-23.3-51.7-38-85.6-38c-33.9,0-64.5,14.7-85.601,38c-21.2-23.3-51.7-38-85.6-38c-33.9,0-64.5,14.7-85.601,38
		c-21.199-23.3-51.7-38-85.6-38c-64,0-115.8,51.9-115.8,115.6l-0.2,795.4C112.85,944.2,139.75,971,172.85,971z M485.55,775.5h-225.9
		c-27.6,0-50-22.4-50-50s22.4-50,50-50h225.9c27.6,0,50,22.4,50,50S513.15,775.5,485.55,775.5z M711.45,593.3h-451.8
		c-27.6,0-50-22.399-50-50c0-27.6,22.4-50,50-50h451.7c27.6,0,50,22.4,50,50C761.35,570.9,739.05,593.3,711.45,593.3z M711.45,411.2
		h-451.8c-27.6,0-50-22.4-50-50c0-27.6,22.4-50,50-50h451.7c27.6,0,50,22.4,50,50C761.35,388.8,739.05,411.2,711.45,411.2z
		 M742.45,60c30.7,0,55.601,25,55.601,55.6h-111.2C686.85,85,711.85,60,742.45,60z M571.25,60c30.6,0,55.6,25,55.6,55.6h-111.3
		C515.55,85,540.55,60,571.25,60z M399.95,60c30.7,0,55.601,25,55.601,55.6h-111.3C344.25,85,369.25,60,399.95,60z M228.65,60
		c30.7,0,55.601,25,55.601,55.6h-111.2C173.05,85,197.95,60,228.65,60z"/>
</g>
<g>
</g>
<g>
</g>
<g>
</g>
<g>
</g>
<g>
</g>
<g>
</g>
<g>
</g>
<g>
</g>
<g>
</g>
<g>
</g>
<g>
</g>
<g>
</g>
<g>
</g>
<g>
</g>
<g>
</g>
</svg>
