<?xml version="1.0" encoding="iso-8859-1"?>
<!-- Generator: Adobe Illustrator 16.0.0, SVG Export Plug-In . SVG Version: 6.00 Build 0)  -->
<!DOCTYPE svg PUBLIC "-//W3C//DTD SVG 1.1//EN" "http://www.w3.org/Graphics/SVG/1.1/DTD/svg11.dtd">
<svg version="1.1" id="Capa_1" xmlns="http://www.w3.org/2000/svg" xmlns:xlink="http://www.w3.org/1999/xlink" x="0px" y="0px"
	 width="124.319px" height="124.32px" viewBox="0 0 124.319 124.32" style="enable-background:new 0 0 124.319 124.32;"
	 xml:space="preserve">
<g>
	<path d="M31.719,106.16h-8.9c-0.5,0-0.7-0.5-0.5-0.9c0.2-0.399,0.6-0.899,1.2-1.399c2.7-2.5,4.6-4.4,5.7-5.8
		c1.7-2.101,2.9-4.2,3.7-6.2c0.8-2.101,1.2-4.3,1.2-6.5c0-4.101-1.5-7.7-4.5-10.5c-2.9-2.8-6.9-4.2-11.8-4.2
		c-4.4,0-8.2,1.2-11.3,3.5c-3.2,2.4-5.1,6.3-5.6,11.6c-0.1,0.7,0.1,1.4,0.6,2c0.4,0.601,1.1,0.9,1.8,1l8.2,0.801
		c0.7,0.1,1.4-0.2,2-0.601c0.6-0.5,0.9-1.1,0.9-1.899c0.1-2.301,0.7-3.101,1-3.5c0.3-0.301,0.9-0.801,2.2-0.801c1.5,0,2,0.5,2.2,0.7
		c0.5,0.5,0.7,1.3,0.7,2.3c0,1.101-0.4,2.301-1.2,3.5c-0.4,0.601-1.8,2.2-6.4,6.601c-4.8,4.5-8,8-9.7,10.899
		c-1.8,2.9-2.8,6-3.2,9.301c-0.1,0.8,0.2,1.5,0.7,2.1s1.2,0.9,2,0.9h29.7c1.1,0,1.9-0.9,1.9-1.9v-8.5
		C34.319,107.36,33.119,106.16,31.719,106.16z"/>
	<path d="M26.119,52.16c1.8,0,3.2-1.4,3.2-3.2V8.06c0-1.8-1.2-2.9-3-2.9h-7.3c-1.3,0-2.5,0.8-3.1,1.9c-0.9,2-2.2,3.6-4.1,5.1
		s-3.6,2.5-5.8,3.4c-1.3,0.5-1.7,1.6-1.7,3v6.4c0,2.2,1.8,3.8,4,3.1c0.7-0.2,1.1-0.5,1.7-0.7c2.2-0.9,4.3,0.7,4.3,3v18.7
		c0,1.8,1.4,3.2,3.2,3.2h8.6V52.16z"/>
	<path d="M117.819,5.16h-68c-3.6,0-6.5,2.9-6.5,6.5v13c0,3.6,2.9,6.5,6.5,6.5h68c3.6,0,6.5-2.9,6.5-6.5v-13
		C124.319,8.06,121.419,5.16,117.819,5.16z"/>
	<path d="M117.819,49.16h-68c-3.6,0-6.5,2.9-6.5,6.5v13c0,3.6,2.9,6.5,6.5,6.5h68c3.6,0,6.5-2.9,6.5-6.5v-13
		C124.319,52.06,121.419,49.16,117.819,49.16z"/>
	<path d="M117.819,93.16h-68c-3.6,0-6.5,2.9-6.5,6.5v13c0,3.6,2.9,6.5,6.5,6.5h68c3.6,0,6.5-2.9,6.5-6.5v-13
		C124.319,96.06,121.419,93.16,117.819,93.16z"/>
</g>
<g>
</g>
<g>
</g>
<g>
</g>
<g>
</g>
<g>
</g>
<g>
</g>
<g>
</g>
<g>
</g>
<g>
</g>
<g>
</g>
<g>
</g>
<g>
</g>
<g>
</g>
<g>
</g>
<g>
</g>
</svg>
