<?xml version="1.0" encoding="iso-8859-1"?>
<!-- Generator: Adobe Illustrator 16.0.0, SVG Export Plug-In . SVG Version: 6.00 Build 0)  -->
<!DOCTYPE svg PUBLIC "-//W3C//DTD SVG 1.1//EN" "http://www.w3.org/Graphics/SVG/1.1/DTD/svg11.dtd">
<svg version="1.1" id="Capa_1" xmlns="http://www.w3.org/2000/svg" xmlns:xlink="http://www.w3.org/1999/xlink" x="0px" y="0px"
	 width="979.219px" height="979.219px" viewBox="0 0 979.219 979.219" style="enable-background:new 0 0 979.219 979.219;"
	 xml:space="preserve">
<g>
	<path d="M956.501,21.368c-26-20.6-63.7-16.3-84.3,9.7l-502.801,633.6c29.4,6.7,55.801,17.2,78.7,31.6c11.2,7,21.5,14.8,30.8,23.5
		l487.301-614C986.801,79.668,982.501,41.968,956.501,21.368z"/>
	<path d="M11.901,970.869L11.901,970.869c28,0,55.8-0.2,79.4-0.4c13.5-0.1,98.5-53.3,111-53.6h0.1c13.3,0-22.2,52.1-10.2,52.1h0.1
		c156.4-4.6,209-18,253.9-49c37.199-25.8,47.1-101.4-4.801-153c-23.899-23.8-61-42.4-114.6-48.7c-12.8-1.5-26.4-2.3-41.1-2.3
		c-177.7,0-262.9,182.7-284.9,238.8C-2.199,962.468,3.601,970.869,11.901,970.869z"/>
</g>
<g>
</g>
<g>
</g>
<g>
</g>
<g>
</g>
<g>
</g>
<g>
</g>
<g>
</g>
<g>
</g>
<g>
</g>
<g>
</g>
<g>
</g>
<g>
</g>
<g>
</g>
<g>
</g>
<g>
</g>
</svg>
