<?xml version="1.0" encoding="iso-8859-1"?>
<!-- Generator: Adobe Illustrator 16.0.0, SVG Export Plug-In . SVG Version: 6.00 Build 0)  -->
<!DOCTYPE svg PUBLIC "-//W3C//DTD SVG 1.1//EN" "http://www.w3.org/Graphics/SVG/1.1/DTD/svg11.dtd">
<svg version="1.1" id="Capa_1" xmlns="http://www.w3.org/2000/svg" xmlns:xlink="http://www.w3.org/1999/xlink" x="0px" y="0px"
	 width="969.25px" height="969.25px" viewBox="0 0 969.25 969.25" style="enable-background:new 0 0 969.25 969.25;"
	 xml:space="preserve">
<g>
	<path d="M951.699,834.101L754.301,636.7C768,616,779.699,594,789.5,570.9c21.4-50.7,32.301-104.5,32.301-160
		s-10.9-109.3-32.301-160c-20.699-48.9-50.301-92.9-88-130.6c-37.699-37.7-81.699-67.3-130.6-88C520.199,10.9,466.4,0,410.9,0
		s-109.3,10.8-160,32.3C202,53,158,82.6,120.3,120.3C82.6,158,53,202,32.3,250.9C10.9,301.6,0,355.4,0,410.9s10.9,109.3,32.3,160
		C53,619.8,82.6,663.8,120.3,701.5c37.7,37.7,81.7,67.3,130.6,88c50.7,21.4,104.5,32.3,160,32.3s109.299-10.899,160-32.3
		c23.1-9.8,45.1-21.6,65.799-35.2l197.4,197.4c23.4,23.4,61.4,23.4,84.9,0l32.699-32.7C975.1,895.5,975.1,857.5,951.699,834.101z
		 M223.2,485.9c-41.4,0-75-33.601-75-75c0-41.4,33.6-75,75-75h112.7V223.2c0-41.4,33.601-75,75-75c41.4,0,75,33.6,75,75v112.7h112.7
		c41.4,0,75,33.6,75,75c0,41.399-33.6,75-75,75H485.9v112.7c0,41.399-33.6,75-75,75c-41.399,0-75-33.601-75-75V485.9H223.2z"/>
</g>
<g>
</g>
<g>
</g>
<g>
</g>
<g>
</g>
<g>
</g>
<g>
</g>
<g>
</g>
<g>
</g>
<g>
</g>
<g>
</g>
<g>
</g>
<g>
</g>
<g>
</g>
<g>
</g>
<g>
</g>
</svg>
