<?xml version="1.0" encoding="iso-8859-1"?>
<!-- Generator: Adobe Illustrator 16.0.0, SVG Export Plug-In . SVG Version: 6.00 Build 0)  -->
<!DOCTYPE svg PUBLIC "-//W3C//DTD SVG 1.1//EN" "http://www.w3.org/Graphics/SVG/1.1/DTD/svg11.dtd">
<svg version="1.1" id="Capa_1" xmlns="http://www.w3.org/2000/svg" xmlns:xlink="http://www.w3.org/1999/xlink" x="0px" y="0px"
	 width="970.454px" height="970.454px" viewBox="0 0 970.454 970.454" style="enable-background:new 0 0 970.454 970.454;"
	 xml:space="preserve">
<g>
	<path d="M965.227,327V60c0-33.1-26.9-60-60-60h-840c-33.1,0-60,26.9-60,60v267c0,12.3,3.8,24.4,10.9,34.5l391.5,602.1
		c8.1,12.5,27.6,6.801,27.6-8.199V380.9c-36.8-18.4-62-56.4-62-100.2c0-61.6,49.7-111.5,111.1-112c61.9-0.5,112.9,50.1,112.9,112
		c0,43.9-25.2,81.9-62,100.2v574.5c0,14.9,19.4,20.699,27.6,8.199l391.5-602.1C961.427,351.4,965.227,339.3,965.227,327z"/>
</g>
<g>
</g>
<g>
</g>
<g>
</g>
<g>
</g>
<g>
</g>
<g>
</g>
<g>
</g>
<g>
</g>
<g>
</g>
<g>
</g>
<g>
</g>
<g>
</g>
<g>
</g>
<g>
</g>
<g>
</g>
</svg>
