<?xml version="1.0" encoding="iso-8859-1"?>
<!-- Generator: Adobe Illustrator 16.0.0, SVG Export Plug-In . SVG Version: 6.00 Build 0)  -->
<!DOCTYPE svg PUBLIC "-//W3C//DTD SVG 1.1//EN" "http://www.w3.org/Graphics/SVG/1.1/DTD/svg11.dtd">
<svg version="1.1" id="Capa_1" xmlns="http://www.w3.org/2000/svg" xmlns:xlink="http://www.w3.org/1999/xlink" x="0px" y="0px"
	 width="982.199px" height="982.199px" viewBox="0 0 982.199 982.199" style="enable-background:new 0 0 982.199 982.199;"
	 xml:space="preserve">
<g>
	<path d="M60.25,982.199h861.7c33.199,0,60.199-26.898,60.199-60.199V60.2c0-33.2-26.9-60.2-60.199-60.2H60.25
		c-33.2,0-60.2,27-60.2,60.2v861.7C0.05,955.199,27.05,982.199,60.25,982.199z M234.85,857.1c-67,0-121.3-54.299-121.3-121.299
		S167.85,614.5,234.85,614.5s121.3,54.301,121.3,121.301S301.85,857.1,234.85,857.1z M172.75,107.4c93.2,0,183.5,18.3,268.7,54.3
		c82.2,34.8,156,84.5,219.401,147.9C724.249,373,773.95,446.8,808.749,529c36,85.1,54.301,175.5,54.301,268.699
		c0,33.102-26.9,60-60,60s-60-26.898-60-60c0-77-15.1-151.699-44.801-221.898C669.55,507.9,628.45,446.9,576.05,394.5
		c-52.4-52.4-113.4-93.5-181.3-122.2c-70.3-29.7-144.899-44.8-221.899-44.8c-33.1,0-60-26.9-60-60S139.65,107.4,172.75,107.4z
		 M171.75,332.4c62.9,0,124,12.3,181.5,36.7c55.5,23.5,105.4,57.1,148.201,99.9c42.799,42.8,76.4,92.599,99.9,148.199
		c24.299,57.5,36.699,118.602,36.699,181.5c0,33.102-26.9,60-60,60s-60-26.898-60-60c0-92.5-36-179.398-101.4-244.799
		c-65.5-65.5-152.4-101.5-244.9-101.5c-33.1,0-60-26.899-60-60C111.75,359.3,138.65,332.4,171.75,332.4z"/>
</g>
<g>
</g>
<g>
</g>
<g>
</g>
<g>
</g>
<g>
</g>
<g>
</g>
<g>
</g>
<g>
</g>
<g>
</g>
<g>
</g>
<g>
</g>
<g>
</g>
<g>
</g>
<g>
</g>
<g>
</g>
</svg>
