<?xml version="1.0" encoding="iso-8859-1"?>
<!-- Generator: Adobe Illustrator 16.0.0, SVG Export Plug-In . SVG Version: 6.00 Build 0)  -->
<!DOCTYPE svg PUBLIC "-//W3C//DTD SVG 1.1//EN" "http://www.w3.org/Graphics/SVG/1.1/DTD/svg11.dtd">
<svg version="1.1" id="Capa_1" xmlns="http://www.w3.org/2000/svg" xmlns:xlink="http://www.w3.org/1999/xlink" x="0px" y="0px"
	 width="124px" height="124px" viewBox="0 0 124 124" style="enable-background:new 0 0 124 124;" xml:space="preserve">
<g>
	<path d="M21.4,43.6c1.5,0,2.9-0.1,4.3-0.4c3.4,4.4,7.5,8.7,12.5,12.6c6.5,5.2,13,8.9,17.2,11.1V82.5c-8.3,2.8-14.3,10.6-14.3,19.8
		c0,11.5,9.4,20.9,20.9,20.9s20.9-9.4,20.9-20.9c0-9.2-6-17-14.301-19.8V66.899C72.8,64.7,79.3,61,85.8,55.8
		c5-4,9.101-8.2,12.5-12.6c1.4,0.3,2.8,0.4,4.3,0.4C114.4,43.6,124,34,124,22.2c0-11.8-9.6-21.4-21.4-21.4
		C90.8,0.8,81.2,10.4,81.2,22.2c0,5.1,1.8,9.8,4.8,13.4C78.3,45.1,67.5,51.3,62,54c-5.5-2.7-16.3-8.9-24-18.4
		c3-3.7,4.8-8.3,4.8-13.4c0-11.8-9.6-21.4-21.4-21.4C9.6,0.8,0,10.4,0,22.2C0,34,9.6,43.6,21.4,43.6z M102.6,15.1
		c2.4,0,4.601,1.2,5.9,3.1c0.8,1.2,1.3,2.6,1.3,4.1c0,2.6-1.399,4.8-3.399,6.1c-1.101,0.7-2.4,1.1-3.7,1.1
		c-3.9,0-7.101-3.2-7.101-7.1S98.7,15.1,102.6,15.1z M62,95.2c3.2,0,5.9,2.1,6.8,5c0.2,0.699,0.3,1.399,0.3,2.1
		c0,3.9-3.199,7.1-7.1,7.1c-3.9,0-7.1-3.199-7.1-7.1c0-0.7,0.1-1.4,0.3-2.1C56.1,97.3,58.8,95.2,62,95.2z M15.5,18.1
		c1.3-1.9,3.4-3.1,5.9-3.1c3.9,0,7.1,3.2,7.1,7.1c0,3.9-3.2,7.2-7.1,7.2c-1.4,0-2.6-0.4-3.7-1.1c-2-1.3-3.4-3.5-3.4-6.1
		C14.3,20.7,14.7,19.3,15.5,18.1z"/>
</g>
<g>
</g>
<g>
</g>
<g>
</g>
<g>
</g>
<g>
</g>
<g>
</g>
<g>
</g>
<g>
</g>
<g>
</g>
<g>
</g>
<g>
</g>
<g>
</g>
<g>
</g>
<g>
</g>
<g>
</g>
</svg>
