<?xml version="1.0" encoding="iso-8859-1"?>
<!-- Generator: Adobe Illustrator 16.0.0, SVG Export Plug-In . SVG Version: 6.00 Build 0)  -->
<!DOCTYPE svg PUBLIC "-//W3C//DTD SVG 1.1//EN" "http://www.w3.org/Graphics/SVG/1.1/DTD/svg11.dtd">
<svg version="1.1" id="Capa_1" xmlns="http://www.w3.org/2000/svg" xmlns:xlink="http://www.w3.org/1999/xlink" x="0px" y="0px"
	 width="980.384px" height="980.385px" viewBox="0 0 980.384 980.385" style="enable-background:new 0 0 980.384 980.385;"
	 xml:space="preserve">
<g>
	<path d="M519.913,0c-250.8,0-454,203.3-454,454c0,57.8,10.8,113.1,30.5,164l-87.4,318.2c-10.5,25.1,13.3,50.899,39.2,42.6
		l328.5-93.8c45,14.9,93.2,23,143.2,23c250.7,0,454-203.3,454-454S770.613,0,519.913,0z M676.012,230.8
		c40.801,0,73.9,33.1,73.9,73.9c0,40.8-33.1,73.9-73.9,73.9c-40.8,0-73.899-33.1-73.899-73.9
		C602.113,263.9,635.212,230.8,676.012,230.8z M363.712,230.8c40.8,0,73.9,33.1,73.9,73.9c0,40.8-33.101,73.9-73.9,73.9
		s-73.899-33.1-73.899-73.9C289.813,263.9,322.913,230.8,363.712,230.8z M802.012,537.8c-10.8,66.2-45,126.8-96.1,170.601
		c-51.7,44.399-117.8,68.8-186,68.8c-68.3,0-134.4-24.5-186.2-68.9c-51.2-44-85.3-104.7-96-171c-4.4-27.3,14.1-52.899,41.4-57.399
		c27.3-4.4,52.899,14.1,57.399,41.399c7,43,29.2,82.5,62.5,111.101c33.601,28.899,76.601,44.8,121.101,44.8
		c44.399,0,87.3-15.9,120.899-44.7c33.301-28.5,55.5-67.9,62.5-110.9c4.5-27.3,30.2-45.699,57.4-41.3
		C788.012,484.8,806.512,510.5,802.012,537.8z"/>
</g>
<g>
</g>
<g>
</g>
<g>
</g>
<g>
</g>
<g>
</g>
<g>
</g>
<g>
</g>
<g>
</g>
<g>
</g>
<g>
</g>
<g>
</g>
<g>
</g>
<g>
</g>
<g>
</g>
<g>
</g>
</svg>
