<?xml version="1.0" encoding="iso-8859-1"?>
<!-- Generator: Adobe Illustrator 16.0.0, SVG Export Plug-In . SVG Version: 6.00 Build 0)  -->
<!DOCTYPE svg PUBLIC "-//W3C//DTD SVG 1.1//EN" "http://www.w3.org/Graphics/SVG/1.1/DTD/svg11.dtd">
<svg version="1.1" id="Capa_1" xmlns="http://www.w3.org/2000/svg" xmlns:xlink="http://www.w3.org/1999/xlink" x="0px" y="0px"
	 width="120.4px" height="120.4px" viewBox="0 0 120.4 120.4" style="enable-background:new 0 0 120.4 120.4;" xml:space="preserve"
	>
<g>
	<path d="M114.3,0.8H59.6c-3.3,0-6,2.7-6,6v9.5H31.1c-3.3,0-6,2.7-6,6v11.6H6c-3.3,0-6,2.7-6,6v40.6c0,3.301,2.7,6,6,6h19.1V98.1
		c0,3.3,2.7,6,6,6h22.6v9.5c0,3.3,2.7,6,6,6h54.7c3.3,0,6-2.7,6-6V6.8C120.3,3.4,117.7,0.8,114.3,0.8z M24.7,72.4H17
		c-1.7,0-3-1.3-3-3V50.8c0-1.7,1.3-3,3-3h7.7V72.4z M53.6,90H42.1c-1.7,0-3-1.299-3-3V33.2c0-1.7,1.3-3,3-3h11.6V90H53.6z
		 M106.3,102.4c0,1.7-1.3,3-3,3H87H70.7c-1.7,0-3-1.3-3-3V17.8c0-1.7,1.3-3,3-3H87h16.3c1.7,0,3,1.3,3,3V102.4z"/>
</g>
<g>
</g>
<g>
</g>
<g>
</g>
<g>
</g>
<g>
</g>
<g>
</g>
<g>
</g>
<g>
</g>
<g>
</g>
<g>
</g>
<g>
</g>
<g>
</g>
<g>
</g>
<g>
</g>
<g>
</g>
</svg>
