<?xml version="1.0" encoding="iso-8859-1"?>
<!-- Generator: Adobe Illustrator 16.0.0, SVG Export Plug-In . SVG Version: 6.00 Build 0)  -->
<!DOCTYPE svg PUBLIC "-//W3C//DTD SVG 1.1//EN" "http://www.w3.org/Graphics/SVG/1.1/DTD/svg11.dtd">
<svg version="1.1" id="Capa_1" xmlns="http://www.w3.org/2000/svg" xmlns:xlink="http://www.w3.org/1999/xlink" x="0px" y="0px"
	 width="944px" height="944px" viewBox="0 0 944 944" style="enable-background:new 0 0 944 944;" xml:space="preserve">
<g>
	<path d="M929,71.65H174.6c-14.6,0-27.1,10.5-29.6,24.9c-10.4,61.3-58.8,109.7-120.2,120.2c-14.3,2.4-24.8,14.9-24.8,29.5v451.4
		c0,14.6,10.5,27.1,24.9,29.6c61.3,10.4,109.7,58.801,120.2,120.2c2.4,14.4,15,24.9,29.6,24.9H929c8.3,0,15-6.7,15-15V836.75
		c0-7-4.9-13-11.8-14.6c-22.9-5.3-39.9-25.8-39.9-50.3s17-45,39.9-50.3c6.8-1.601,11.8-7.601,11.8-14.601v-20c0-7-4.9-13-11.8-14.6
		c-22.9-5.3-39.9-25.8-39.9-50.3s17-45,39.9-50.3c6.8-1.601,11.8-7.601,11.8-14.601v-20c0-7-4.9-13-11.8-14.6
		c-22.9-5.3-39.9-25.8-39.9-50.3s17-45,39.9-50.301c6.8-1.6,11.8-7.6,11.8-14.6v-20c0-7-4.9-13-11.8-14.6
		c-22.9-5.3-39.9-25.8-39.9-50.3s17-45,39.9-50.3c6.899-2,11.8-8,11.8-15v-20c0-7-4.9-13-11.8-14.6c-22.9-5.3-39.9-25.8-39.9-50.3
		s17-45,39.9-50.3c6.8-1.6,11.8-7.6,11.8-14.6v-20.7C944,78.35,937.3,71.65,929,71.65z M689.8,442.75l-78.399,69
		c-8.4,7.4-12,18.7-9.301,29.601l23,95.3c6.2,25.7-21.5,46.3-44.399,32.9l-86-50.5c-9.4-5.5-21-5.5-30.4,0l-86,50.5
		c-22.8,13.399-50.6-7.2-44.399-32.9l23-95.3c2.6-10.8-1-22.2-9.301-29.601l-78.399-69c-19.7-17.399-9.2-49.899,17-52.399l104.3-9.8
		c11.1-1,20.7-8.2,24.9-18.5l36.399-88.4c10.2-24.8,45.3-24.8,55.5,0l36.4,88.4c4.2,10.3,13.8,17.4,24.899,18.5l104.301,9.8
		C699,392.85,709.6,425.35,689.8,442.75z"/>
</g>
<g>
</g>
<g>
</g>
<g>
</g>
<g>
</g>
<g>
</g>
<g>
</g>
<g>
</g>
<g>
</g>
<g>
</g>
<g>
</g>
<g>
</g>
<g>
</g>
<g>
</g>
<g>
</g>
<g>
</g>
</svg>
