<?xml version="1.0" encoding="iso-8859-1"?>
<!-- Generator: Adobe Illustrator 16.0.0, SVG Export Plug-In . SVG Version: 6.00 Build 0)  -->
<!DOCTYPE svg PUBLIC "-//W3C//DTD SVG 1.1//EN" "http://www.w3.org/Graphics/SVG/1.1/DTD/svg11.dtd">
<svg version="1.1" id="Capa_1" xmlns="http://www.w3.org/2000/svg" xmlns:xlink="http://www.w3.org/1999/xlink" x="0px" y="0px"
	 width="122px" height="122px" viewBox="0 0 122 122" style="enable-background:new 0 0 122 122;" xml:space="preserve">
<g>
	<path d="M1.75,20.8c0,9,5.6,16.7,13.6,19.6v64.2c0,1.701,1.8,3.601,3.5,3.601h11.1h14.8h4.6l-4.7,3.8c-1.2,1.2-1.9,2.2-1.9,3.9
		c0,1.699,0.7,3.1,1.9,4.3c1.2,1.2,2.8,1.8,4.5,1.8c1.7,0,3.3-0.699,4.5-1.9c15.7-15.699,15.7-15.799,15.7-15.799
		c1.201-1.301,1.801-3,1.701-4.801c-0.101-1.6-0.801-3.1-2.101-4.3c0-0.101-15.3-15.3-15.3-15.3c-1.2-1.2-2.8-1.9-4.5-1.9
		c-1.7,0-3.3,0.7-4.5,1.9c-1.2,1.199-1.9,2.8-1.9,4.5c0,1.699,0.7,3.5,1.9,4.699l4.7,5h-4.6h-11.3c-1.7,0-3.1-1.299-3.1-3.1V40
		c7-3,13.1-10.5,13.1-19.3c0-11.5-9.3-20.7-20.8-20.7C11.25,0,1.75,9.3,1.75,20.8z M22.65,12.7c4.5,0,8.1,3.6,8.1,8.1
		s-3.6,8.1-8.1,8.1s-8.1-3.6-8.1-8.1S18.15,12.7,22.65,12.7z"/>
	<path d="M120.25,101.2c0-9-5.9-16.7-13.9-19.601V17.4c0-1.7-1.199-3.3-2.899-3.3h-11.2h-14.8H72.85l4.701-3.9
		c1.199-1.2,1.899-2.3,1.899-4c0-1.7-0.7-3.1-1.899-4.3c-1.201-1.2-2.801-1.8-4.5-1.8c-1.701,0-3.301,0.7-4.5,1.9
		C52.95,17.6,52.95,17.6,52.95,17.6c-1.2,1.3-1.8,3-1.7,4.8c0.1,1.6,0.8,3.1,2.1,4.3c0.1,0.1,15.3,15.3,15.3,15.3
		c1.199,1.2,2.8,1.9,4.5,1.9c1.699,0,3.3-0.6,4.5-1.8c1.199-1.2,1.9-2.8,1.9-4.5s-0.701-3.4-1.9-4.6l-4.801-4.9h4.601H88.85
		c1.701,0,2.5,1.1,2.5,2.8v51c-7,3-12.799,10.5-12.799,19.3c0,11.5,9.299,20.7,20.799,20.7C110.75,121.9,120.25,112.6,120.25,101.2z
		 M99.65,109.301c-4.5,0-8.1-3.601-8.1-8.101s3.6-8.101,8.1-8.101s8.1,3.601,8.1,8.101S104.15,109.301,99.65,109.301z"/>
</g>
<g>
</g>
<g>
</g>
<g>
</g>
<g>
</g>
<g>
</g>
<g>
</g>
<g>
</g>
<g>
</g>
<g>
</g>
<g>
</g>
<g>
</g>
<g>
</g>
<g>
</g>
<g>
</g>
<g>
</g>
</svg>
