<?xml version="1.0" encoding="iso-8859-1"?>
<!-- Generator: Adobe Illustrator 16.0.0, SVG Export Plug-In . SVG Version: 6.00 Build 0)  -->
<!DOCTYPE svg PUBLIC "-//W3C//DTD SVG 1.1//EN" "http://www.w3.org/Graphics/SVG/1.1/DTD/svg11.dtd">
<svg version="1.1" id="Capa_1" xmlns="http://www.w3.org/2000/svg" xmlns:xlink="http://www.w3.org/1999/xlink" x="0px" y="0px"
	 width="956.199px" height="956.199px" viewBox="0 0 956.199 956.199" style="enable-background:new 0 0 956.199 956.199;"
	 xml:space="preserve">
<g>
	<path d="M676.786,773.5c17.601,17.6,40.601,26.4,63.601,26.4s46.1-8.801,63.6-26.4c35.101-35.1,35.101-92.1,0-127.301
		L633.587,475.6l165.6-165.6c35.1-35.1,35.1-92.1,0-127.3c-35.1-35.1-92.1-35.1-127.3,0L442.587,412
		c-35.101,35.1-35.101,92.099,0,127.3L676.786,773.5z"/>
	<path d="M215.887,956.199c49.7,0,90-40.299,90-90V90c0-49.7-40.3-90-90-90c-49.7,0-90,40.3-90,90v776.199
		C125.887,915.9,166.187,956.199,215.887,956.199z"/>
</g>
<g>
</g>
<g>
</g>
<g>
</g>
<g>
</g>
<g>
</g>
<g>
</g>
<g>
</g>
<g>
</g>
<g>
</g>
<g>
</g>
<g>
</g>
<g>
</g>
<g>
</g>
<g>
</g>
<g>
</g>
</svg>
