<?xml version="1.0" encoding="iso-8859-1"?>
<!-- Generator: Adobe Illustrator 16.0.0, SVG Export Plug-In . SVG Version: 6.00 Build 0)  -->
<!DOCTYPE svg PUBLIC "-//W3C//DTD SVG 1.1//EN" "http://www.w3.org/Graphics/SVG/1.1/DTD/svg11.dtd">
<svg version="1.1" id="Capa_1" xmlns="http://www.w3.org/2000/svg" xmlns:xlink="http://www.w3.org/1999/xlink" x="0px" y="0px"
	 width="973.871px" height="973.871px" viewBox="0 0 973.871 973.871" style="enable-background:new 0 0 973.871 973.871;"
	 xml:space="preserve">
<g>
	<path d="M923.871,758.285h-873.8c-27.6,0-50,22.4-50,50c0,27.602,22.4,50,50,50h873.8c27.6,0,50-22.398,50-50
		C973.871,780.686,951.471,758.285,923.871,758.285z"/>
	<path d="M907.871,115.586h-198.3c-31.8,0-57.5,25.7-57.5,57.5c0,31.8,25.7,57.5,57.5,57.5h72.3l-150.3,126.8
		c-2.3,2-5.3,3.1-8.4,3.1h-239.8c-26.9,0-53,9.6-73.4,27.2l-292.5,250.599c-21,18-23.4,49.5-5.4,70.5c9.9,11.5,23.9,17.5,38,17.5
		c11.5,0,23.1-4,32.5-12l292.399-250.7c2.301-2,5.301-3.1,8.4-3.1h239.8c26.9,0,53-9.6,73.4-27.2l153.7-129.6v68.8
		c0,31.8,25.699,57.5,57.5,57.5c31.8,0,57.5-25.7,57.5-57.5v-199.4C965.371,141.386,939.671,115.586,907.871,115.586z"/>
</g>
<g>
</g>
<g>
</g>
<g>
</g>
<g>
</g>
<g>
</g>
<g>
</g>
<g>
</g>
<g>
</g>
<g>
</g>
<g>
</g>
<g>
</g>
<g>
</g>
<g>
</g>
<g>
</g>
<g>
</g>
</svg>
