<?xml version="1.0" encoding="iso-8859-1"?>
<!-- Generator: Adobe Illustrator 16.0.0, SVG Export Plug-In . SVG Version: 6.00 Build 0)  -->
<!DOCTYPE svg PUBLIC "-//W3C//DTD SVG 1.1//EN" "http://www.w3.org/Graphics/SVG/1.1/DTD/svg11.dtd">
<svg version="1.1" id="Capa_1" xmlns="http://www.w3.org/2000/svg" xmlns:xlink="http://www.w3.org/1999/xlink" x="0px" y="0px"
	 width="966.627px" height="966.627px" viewBox="0 0 966.627 966.627" style="enable-background:new 0 0 966.627 966.627;"
	 xml:space="preserve">
<g>
	<path d="M828.113,521.801V300.4c0-28.6-11.3-54.4-33.5-76.7L626.813,70l-0.1-0.1c-0.9-0.9-1.4-1.9-1.8-2.8l-0.4-37.1
		c0-16.5-13.5-30-30-30h-394.7c-16.5,0-30,13.5-30,30v32.2l-1.7,1.5c-25.8,22.1-29.6,65.4-29.6,89.2c0,0,0,474.299,0,474.799
		c0,25.301,22.8,38.201,45.8,38.5c23.4,0.301,47.1-12.398,47.1-38.5v-47.5c0-12.799,8.6-22.1,20.4-22.1c11.8,0,20.4,9.301,20.4,22.1
		c0,0,0,86.102,0,86.602c0,51.898,103.2,52,103.2,0V580.1c0-12.799,8.6-22.1,20.399-22.1s20.4,9.301,20.4,22.1
		c0,0,0,111.6,0,112.301c0,52.6,103.2,50.699,103.2,0V580.199c0-12.799,8.6-22.1,20.399-22.1s20.4,9.301,20.4,22.1v347.5
		c0,52.602,103.2,51.201,103.2,0V376.3c0-24.8,13.699-39.6,36.6-39.6c21.7,0,35.2,15.4,35.2,40.1c0,0,0,143.7,0,145
		C735.214,574.199,828.113,574.1,828.113,521.801z"/>
</g>
<g>
</g>
<g>
</g>
<g>
</g>
<g>
</g>
<g>
</g>
<g>
</g>
<g>
</g>
<g>
</g>
<g>
</g>
<g>
</g>
<g>
</g>
<g>
</g>
<g>
</g>
<g>
</g>
<g>
</g>
</svg>
