<?xml version="1.0" encoding="iso-8859-1"?>
<!-- Generator: Adobe Illustrator 16.0.0, SVG Export Plug-In . SVG Version: 6.00 Build 0)  -->
<!DOCTYPE svg PUBLIC "-//W3C//DTD SVG 1.1//EN" "http://www.w3.org/Graphics/SVG/1.1/DTD/svg11.dtd">
<svg version="1.1" id="Capa_1" xmlns="http://www.w3.org/2000/svg" xmlns:xlink="http://www.w3.org/1999/xlink" x="0px" y="0px"
	 width="978px" height="978px" viewBox="0 0 978 978" style="enable-background:new 0 0 978 978;" xml:space="preserve">
<g>
	<path d="M49.95,842l160.2-97.7c9.7-5.899,20.8-9,32.1-9h68.8V550.4c0-16.4,3.2-32.3,9.601-47.4c6.1-14.5,14.899-27.5,26-38.6
		c11.1-11.101,24.1-19.9,38.6-26c15-6.4,31-9.601,47.4-9.601h447.6V61.6c0-34-27.6-61.6-61.6-61.6H64.75c-34,0-61.6,27.6-61.6,61.6
		v754.1C3.15,839.7,29.45,854.5,49.95,842z"/>
	<path d="M432.65,488.8c-34,0-61.601,27.601-61.601,61.601V735.3v112c0,34,27.601,61.601,61.601,61.601h372.2
		c11.3,0,22.399,3.1,32.1,9l91,55.5c5.1,3.1,10.6,4.6,16,4.6c16.1,0,30.9-12.8,30.9-30.899V550.4c0-34-27.601-61.601-61.601-61.601
		h-33H432.65z"/>
</g>
<g>
</g>
<g>
</g>
<g>
</g>
<g>
</g>
<g>
</g>
<g>
</g>
<g>
</g>
<g>
</g>
<g>
</g>
<g>
</g>
<g>
</g>
<g>
</g>
<g>
</g>
<g>
</g>
<g>
</g>
</svg>
