<?xml version="1.0" encoding="iso-8859-1"?>
<!-- Generator: Adobe Illustrator 16.0.0, SVG Export Plug-In . SVG Version: 6.00 Build 0)  -->
<!DOCTYPE svg PUBLIC "-//W3C//DTD SVG 1.1//EN" "http://www.w3.org/Graphics/SVG/1.1/DTD/svg11.dtd">
<svg version="1.1" id="Capa_1" xmlns="http://www.w3.org/2000/svg" xmlns:xlink="http://www.w3.org/1999/xlink" x="0px" y="0px"
	 width="121.8px" height="121.8px" viewBox="0 0 121.8 121.8" style="enable-background:new 0 0 121.8 121.8;" xml:space="preserve"
	>
<g>
	<path d="M20.2,101.448c16.5,16.5,40.5,20.8,60.9,13c-3.699-2.601-6.1-6.899-6.1-11.7v-1.9c-15,5.4-32.4,2.101-44.4-9.899
		c-10.6-10.7-14.3-25.601-11.3-39.3c1.2-5.5,3.6-10.8,7-15.6v9.8c0,3.3,2.7,6,6,6c3.3,0,6-2.7,6-6v-21v-5.4c0-3.3-2.7-6-6-6h-3.6
		L6,13.348c-3.3,0-6,2.7-6,6s2.7,6,6,6h9.8c-2.1,2.6-3.9,5.4-5.5,8.3C-1.4,55.348,1.8,83.049,20.2,101.448z"/>
	<path d="M89.4,108.848h2.799H115.8c3.3,0,6-2.699,6-6c0-3.299-2.7-6-6-6H105.4c2.1-2.6,4-5.399,5.5-8.299
		c12-21.801,8.699-49.701-9.701-68.101c-16.399-16.6-40.5-20.9-61-13.1c3.9,2.6,6.5,7,6.5,12v1.5c14.9-5.2,32.1-1.8,44,10.1
		c10.601,10.6,14.4,25.4,11.5,39.101C101,75.448,98.8,80.748,95.4,85.448v-9c0-3.3-2.701-6-6-6c-3.301,0-6,2.7-6,6v20.5v6
		C83.4,106.148,86.1,108.848,89.4,108.848z"/>
</g>
<g>
</g>
<g>
</g>
<g>
</g>
<g>
</g>
<g>
</g>
<g>
</g>
<g>
</g>
<g>
</g>
<g>
</g>
<g>
</g>
<g>
</g>
<g>
</g>
<g>
</g>
<g>
</g>
<g>
</g>
</svg>
