<?xml version="1.0" encoding="iso-8859-1"?>
<!-- Generator: Adobe Illustrator 16.0.0, SVG Export Plug-In . SVG Version: 6.00 Build 0)  -->
<!DOCTYPE svg PUBLIC "-//W3C//DTD SVG 1.1//EN" "http://www.w3.org/Graphics/SVG/1.1/DTD/svg11.dtd">
<svg version="1.1" id="Capa_1" xmlns="http://www.w3.org/2000/svg" xmlns:xlink="http://www.w3.org/1999/xlink" x="0px" y="0px"
	 width="125.599px" height="125.6px" viewBox="0 0 125.599 125.6" style="enable-background:new 0 0 125.599 125.6;"
	 xml:space="preserve">
<g>
	<path d="M10.05,125.6h76.8c4.3,0,7.3-3.5,7.3-7.799v-0.5c-1,0.6-3.7,0.899-5.8,0.899c-5.3,0-10.101-2.101-13.8-5.8
		c-22.101-22.1-22.101-22.1-22.3-22.2c-3.7-4-5.7-9.5-5.3-14.899c0.3-4.9,2.5-9.601,6.2-13.101c0.9-0.9,15.7-15.7,21.4-21.4
		c3.8-3.8,8.5-5.8,13.8-5.8c2.1,0,4.8,0.3,5.8,1v-9.2c0-4.3-3-8.2-7.3-8.2h-4.9c-0.5-1-1.1-1.8-1.899-2.7c-2.4-2.9-5.9-4.3-9.5-4.3
		h-4.5c-1-2-2.301-4.2-4-5.9c-1.8-1.8-3.8-3.2-6.1-4.2c-2.4-1-4.9-1.5-7.5-1.5c-2.6,0-5.1,0.5-7.5,1.5c-2.3,1-4.4,2.4-6.1,4.2
		c-1.7,1.7-3.1,3.9-4,5.9h-4.5c-3.4,0-6.9,1.2-9.4,3.8c-1,1-1.9,2.2-2.5,3.2h-4.3c-4.4,0-8,3.9-8,8.2v91.1
		C2.15,122.1,5.75,125.6,10.05,125.6z M21.15,25c0-3,2.2-5.4,5.1-5.4h10.6c0,0,0-0.3,0-0.4c0.2-6.3,5.3-11.4,11.6-11.4
		c6.3,0,11.4,5.1,11.5,11.3c0,0.1,0,0.4,0,0.4H70.55c2.899,0,4.6,2.3,4.6,5.4v1.8c0,3-1.7,4.8-4.6,4.8h-44.3c-2.9,0-5.1-1.8-5.1-4.8
		V25z"/>
	<path d="M59.95,19.2c0,0.1,0,0.4,0,0.4S59.95,19.3,59.95,19.2c-0.1-6.3-5.2-11.4-11.5-11.4C54.65,7.8,59.75,13,59.95,19.2z"/>
	<path d="M114.55,67.6h-19.4h-5.9l6.4-7c2.3-2.4,2.7-4.3,2.7-6.6c0-4.7-4.3-9-9-9c-2.4,0-4.5,0.9-6.2,2.6c0,0-21.2,21.3-21.4,21.5
		c-4,3.801-3.9,11.701,0,15.5c0.2,0.201,21.4,21.5,21.4,21.5c1.7,1.701,3.8,2.601,6.2,2.601c4.7,0,9-4.3,9-9
		c0-2.399-0.5-4.399-2.7-6.7l-6.4-7.4h5.9h19.4c4.899,0,8.899-4,8.899-9C123.35,71.7,119.45,67.6,114.55,67.6z M66.95,75.1
		C66.95,75.1,67.05,75.1,66.95,75.1L66.95,75.1z"/>
	<path d="M67.05,75.1C67.05,75.1,66.95,75.1,67.05,75.1C66.95,75.1,66.95,75.1,67.05,75.1z"/>
</g>
<g>
</g>
<g>
</g>
<g>
</g>
<g>
</g>
<g>
</g>
<g>
</g>
<g>
</g>
<g>
</g>
<g>
</g>
<g>
</g>
<g>
</g>
<g>
</g>
<g>
</g>
<g>
</g>
<g>
</g>
</svg>
