<?xml version="1.0" encoding="iso-8859-1"?>
<!-- Generator: Adobe Illustrator 16.0.0, SVG Export Plug-In . SVG Version: 6.00 Build 0)  -->
<!DOCTYPE svg PUBLIC "-//W3C//DTD SVG 1.1//EN" "http://www.w3.org/Graphics/SVG/1.1/DTD/svg11.dtd">
<svg version="1.1" id="Capa_1" xmlns="http://www.w3.org/2000/svg" xmlns:xlink="http://www.w3.org/1999/xlink" x="0px" y="0px"
	 width="124.1px" height="124.1px" viewBox="0 0 124.1 124.1" style="enable-background:new 0 0 124.1 124.1;" xml:space="preserve"
	>
<g>
	<path d="M47.95,23c0-12.7-10.3-23-23-23s-23,10.3-23,23c0,10.4,7,19.3,16.5,22.1V79c-9.5,2.801-16.5,11.6-16.5,22.1
		c0,12.701,10.3,23,23,23s23-10.299,23-23c0-10.399-7-19.299-16.5-22.1V45C40.95,42.2,47.95,33.4,47.95,23z M33.95,101c0,5-4,9-9,9
		s-9-4-9-9s4-9,9-9S33.95,96,33.95,101z M24.95,32c-5,0-9-4-9-9s4-9,9-9s9,4,9,9C33.95,27.9,29.95,32,24.95,32z"/>
	<path d="M122.15,100.801c0-10.101-6.7-18.701-15.7-21.9V19.6c0-2.2-1.1-3.4-4-3.4h-11.4h-8.6h-5.2l5.3-4.5
		C83.85,10.4,84.65,9,84.65,7.1s-0.7-3.5-2.101-4.9c-1.3-1.3-3.1-2-5-2c-1.899,0-3.699,0.8-5,2.1c-17.5,17.5-17.5,17.6-17.5,17.6
		c-1.3,1.4-2,3.4-1.9,5.3c0.1,1.8,0.9,3.4,2.3,4.8c0.1,0.1,17.1,17.1,17.1,17.1c1.301,1.3,3.101,2.1,5,2.1c1.9,0,3.7-0.7,5-2.1
		c1.301-1.3,2.101-3.1,2.101-5s-0.7-4-2.101-5.4l-5.199-5.5h5.1h4.8c1.9,0,3.2,1.6,3.2,3.5v44.5c-8,3.399-14.5,11.8-14.5,21.5
		c0,12.8,10.2,23.2,23,23.2C111.75,124,122.15,113.6,122.15,100.801z M99.25,109.801c-5,0-9.1-4.101-9.1-9.101s4.1-9.101,9.1-9.101
		s9.101,4.101,9.101,9.101S104.25,109.801,99.25,109.801z"/>
</g>
<g>
</g>
<g>
</g>
<g>
</g>
<g>
</g>
<g>
</g>
<g>
</g>
<g>
</g>
<g>
</g>
<g>
</g>
<g>
</g>
<g>
</g>
<g>
</g>
<g>
</g>
<g>
</g>
<g>
</g>
</svg>
