<?xml version="1.0" encoding="iso-8859-1"?>
<!-- Generator: Adobe Illustrator 16.0.0, SVG Export Plug-In . SVG Version: 6.00 Build 0)  -->
<!DOCTYPE svg PUBLIC "-//W3C//DTD SVG 1.1//EN" "http://www.w3.org/Graphics/SVG/1.1/DTD/svg11.dtd">
<svg version="1.1" id="Capa_1" xmlns="http://www.w3.org/2000/svg" xmlns:xlink="http://www.w3.org/1999/xlink" x="0px" y="0px"
	 width="959.9px" height="959.901px" viewBox="0 0 959.9 959.901" style="enable-background:new 0 0 959.9 959.901;"
	 xml:space="preserve">
<g>
	<path d="M334.7,102.19l423.601,151c6.398,2.3,13.5,2.3,19.898,0.1L919,204.39c13.4-4.7,13.4-23.7,0-28.3L500.1,30.59
		c-6.5-2.3-13.4-3.4-20.2-3.4c-6.8,0-13.6,1.1-20.2,3.4L334.8,73.89C321.5,78.59,321.4,97.49,334.7,102.19z"/>
	<path d="M40.8,204.39l102,35.4l317.4,110.2c12.7,4.4,26.601,4.4,39.4,0l122.6-42.5c13.4-4.6,13.5-23.6,0.102-28.3L198.4,128.29
		c-6.4-2.3-13.5-2.3-19.9-0.1l-137.7,47.9C27.3,180.69,27.3,199.69,40.8,204.39z"/>
	<path d="M41.3,805.089l364.1,126.4c13,4.5,26.6-5.1,26.6-18.9V453.39c0-17-10.8-32.2-26.899-37.801L19.9,281.79
		c-9.7-3.4-19.9,3.9-19.9,14.2v451C0,773.19,16.6,796.49,41.3,805.089z"/>
	<path d="M527.9,453.39v459.3c0,13.8,13.6,23.399,26.6,18.899L918.6,805.19c24.801-8.601,41.301-31.9,41.301-58.101v-451
		c0-10.3-10.201-17.6-19.9-14.2l-385.301,133.7C538.6,421.19,527.9,436.39,527.9,453.39z"/>
</g>
<g>
</g>
<g>
</g>
<g>
</g>
<g>
</g>
<g>
</g>
<g>
</g>
<g>
</g>
<g>
</g>
<g>
</g>
<g>
</g>
<g>
</g>
<g>
</g>
<g>
</g>
<g>
</g>
<g>
</g>
</svg>
