<?xml version="1.0" encoding="iso-8859-1"?>
<!-- Generator: Adobe Illustrator 16.0.0, SVG Export Plug-In . SVG Version: 6.00 Build 0)  -->
<!DOCTYPE svg PUBLIC "-//W3C//DTD SVG 1.1//EN" "http://www.w3.org/Graphics/SVG/1.1/DTD/svg11.dtd">
<svg version="1.1" id="Capa_1" xmlns="http://www.w3.org/2000/svg" xmlns:xlink="http://www.w3.org/1999/xlink" x="0px" y="0px"
	 width="985.1px" height="985.1px" viewBox="0 0 985.1 985.1" style="enable-background:new 0 0 985.1 985.1;" xml:space="preserve"
	>
<g>
	<path d="M60.1,985.1H925c33.2,0,60.1-26.9,60.1-60.1V60.1C985.1,26.9,958.2,0,925,0H60.1C26.9,0.1,0,26.9,0,60.1V925
		C0,958.301,26.9,985.1,60.1,985.1z M374.7,81.3c42.399,0,76.7,33.6,76.7,75.1c0,30.2-18.301,56.2-44.601,68.1l8.3,150H566.4
		c15.8,0,28.5,12.8,28.5,28.5v9.399c0,15.8-12.801,28.5-28.5,28.5H418.8l2.8,50.601h222.5c11.2,0,21.4,6.599,26,16.8L764.5,717.6
		l42.2-18.9c14.399-6.398,31.3,0,37.7,14.4l3.8,8.6c6.399,14.4,0,31.301-14.4,37.701l-76.7,34.299
		c-14.399,6.4-31.199,0-37.699-14.299L627.1,574.699c-4.6-10.199-14.8-16.799-26-16.799H385.7c-15.101,0-27.601-11.801-28.5-27
		l-17-307.7c-25-12.4-42.2-37.7-42.2-67C298,114.9,332.3,81.3,374.7,81.3z M268.7,418.4c9.2-6.3,21.7-0.2,22.3,11l2.2,38.9
		c0.5,8.6-2.9,16.899-9.3,22.6c-40.1,36.6-65,89.401-64.2,148C221.2,744.1,304.3,829,409.4,832.699
		c84,2.9,156.899-47.199,187.8-119.299c4.899-11.4,21-11.4,26.1-0.1l16.8,37.199c3.9,8.699,3.301,18.9-1.899,27
		c-46.8,73.1-128.7,121.699-221.9,121.699c-145,0-263.3-118.6-263.1-263.6C153.3,545.4,199.1,465.7,268.7,418.4z"/>
</g>
<g>
</g>
<g>
</g>
<g>
</g>
<g>
</g>
<g>
</g>
<g>
</g>
<g>
</g>
<g>
</g>
<g>
</g>
<g>
</g>
<g>
</g>
<g>
</g>
<g>
</g>
<g>
</g>
<g>
</g>
</svg>
