<?xml version="1.0" encoding="iso-8859-1"?>
<!-- Generator: Adobe Illustrator 16.0.0, SVG Export Plug-In . SVG Version: 6.00 Build 0)  -->
<!DOCTYPE svg PUBLIC "-//W3C//DTD SVG 1.1//EN" "http://www.w3.org/Graphics/SVG/1.1/DTD/svg11.dtd">
<svg version="1.1" id="Capa_1" xmlns="http://www.w3.org/2000/svg" xmlns:xlink="http://www.w3.org/1999/xlink" x="0px" y="0px"
	 width="973.8px" height="973.8px" viewBox="0 0 973.8 973.8" style="enable-background:new 0 0 973.8 973.8;" xml:space="preserve"
	>
<g>
	<path d="M923.9,758.25H50c-27.6,0-50,22.4-50,50c0,27.602,22.4,50,50,50h873.8c27.601,0,50-22.398,50-50
		C973.8,780.65,951.5,758.25,923.9,758.25z"/>
	<path d="M911.101,726.25H712.7c-31.8,0-57.5-25.699-57.5-57.5c0-31.799,25.7-57.5,57.5-57.5h72.4L634.8,484.45
		c-2.3-2-5.3-3.1-8.399-3.1h-239.8c-26.9,0-53-9.601-73.4-27.2L20.7,203.55c-21-18-23.4-49.5-5.4-70.5c9.9-11.5,23.9-17.5,38-17.5
		c11.5,0,23.1,4,32.5,12l292.4,250.7c2.3,2,5.3,3.1,8.4,3.1h239.8c26.899,0,53,9.6,73.399,27.2l153.7,129.6v-68.799
		c0-31.801,25.7-57.5,57.5-57.5s57.5,25.699,57.5,57.5V668.65C968.601,700.55,942.8,726.25,911.101,726.25z"/>
</g>
<g>
</g>
<g>
</g>
<g>
</g>
<g>
</g>
<g>
</g>
<g>
</g>
<g>
</g>
<g>
</g>
<g>
</g>
<g>
</g>
<g>
</g>
<g>
</g>
<g>
</g>
<g>
</g>
<g>
</g>
</svg>
