<?xml version="1.0" encoding="iso-8859-1"?>
<!-- Generator: Adobe Illustrator 16.0.0, SVG Export Plug-In . SVG Version: 6.00 Build 0)  -->
<!DOCTYPE svg PUBLIC "-//W3C//DTD SVG 1.1//EN" "http://www.w3.org/Graphics/SVG/1.1/DTD/svg11.dtd">
<svg version="1.1" id="Capa_1" xmlns="http://www.w3.org/2000/svg" xmlns:xlink="http://www.w3.org/1999/xlink" x="0px" y="0px"
	 width="125.702px" height="125.703px" viewBox="0 0 125.702 125.703" style="enable-background:new 0 0 125.702 125.703;"
	 xml:space="preserve">
<g>
	<path d="M5.903,110.616h14.3v11.2c0,2.699,3.3,4,5.1,2l5.9-6.2c1.199-1.2,3.1-1.2,4.3,0l5.899,6.2c1.801,1.9,5.101,0.6,5.101-2
		v-11.2h48.1c1.4,0,2.8-0.5,3.8-1.601c1.601-1.799,1.7-4.399,0.4-6.199c-2.1-2.9-3.2-7.5-2.1-11c0.399-1.301,0.899-2.5,1.6-3.7
		c0.5-0.8,0.9-1.601,1.2-2.399c0.3-0.801,0.3-1.5,0.3-2.4c0-4.6,0-18.5,0-18.5c-0.2,0-5.8,2.3-9.9-2v13.6c0,1.6-1.3,3-3,3h-64.3
		c-1.6,0-3-1.3-3-3v-62.6c0-1.6,1.3-3,3-3h61.7c0,0-2.8-5.4,3.1-9.9h-81.5c-3.3,0-5.9,2.7-5.9,5.9v77.3v20.399
		C-0.097,107.916,2.603,110.616,5.903,110.616z M9.803,92.116c0-1.601,1.3-3,3-3h74.2c-1,4.399-0.601,8.399,0.2,11.601h-40.7v-6.201
		h-26.3v6.201h-7.4c-1.6,0-3-1.301-3-3V92.116z"/>
	<path d="M39.402,21.016c0-1.6-1.3-3-3-3h-6.3c-1.6,0-3,1.3-3,3v6.3c0,1.6,1.3,3,3,3h6.3c1.601,0,3-1.3,3-3V21.016z"/>
	<path d="M39.402,42.416c0-1.6-1.3-3-3-3h-6.3c-1.6,0-3,1.3-3,3v6.3c0,1.6,1.3,3,3,3h6.3c1.601,0,3-1.3,3-3V42.416z"/>
	<path d="M36.503,60.815h-6.3c-1.601,0-3,1.3-3,3v6.3c0,1.601,1.3,3,3,3h6.3c1.6,0,3-1.3,3-3v-6.3
		C39.402,62.116,38.103,60.815,36.503,60.815z"/>
	<path d="M101.902,4.616l21.7,21.8c2.8,2.8,2.8,6.9,0,9.6l-21.7,21.7c-2.699,2.7-7.1,2.9-9.8,0.1c-2.7-2.7-2.399-7.2,0.2-9.8
		l9.8-9.8h-39.6c-1.9,0-3.8-0.8-5.101-2.2c-3.1-3.4-2.3-9.2,1.7-11.4c1-0.6,2.2-0.9,3.3-0.9h39.601c0,0-9.7-9.7-9.8-9.7
		c-2.601-2.6-2.9-7.1-0.2-9.7C94.803,1.716,99.103,1.815,101.902,4.616z"/>
</g>
<g>
</g>
<g>
</g>
<g>
</g>
<g>
</g>
<g>
</g>
<g>
</g>
<g>
</g>
<g>
</g>
<g>
</g>
<g>
</g>
<g>
</g>
<g>
</g>
<g>
</g>
<g>
</g>
<g>
</g>
</svg>
