<?xml version="1.0" encoding="iso-8859-1"?>
<!-- Generator: Adobe Illustrator 16.0.0, SVG Export Plug-In . SVG Version: 6.00 Build 0)  -->
<!DOCTYPE svg PUBLIC "-//W3C//DTD SVG 1.1//EN" "http://www.w3.org/Graphics/SVG/1.1/DTD/svg11.dtd">
<svg version="1.1" id="Capa_1" xmlns="http://www.w3.org/2000/svg" xmlns:xlink="http://www.w3.org/1999/xlink" x="0px" y="0px"
	 width="124px" height="124px" viewBox="0 0 124 124" style="enable-background:new 0 0 124 124;" xml:space="preserve">
<g>
	<path d="M8.4,118.275l44.1-19.4c2.2-1,3.6-3.1,3.6-5.5v-8.899c-2.8,2.1-6.2,3.3-9.8,3.3c-4.4,0-8.5-1.7-11.5-4.8l-16.5-16.5
		l-0.2-0.2l-0.2-0.2c-0.4-0.5-1.2-1.3-1.9-2.399c-0.8-1.301-1.5-2.801-1.9-4.4c-1.5-5.4,0-11.5,4.1-15.7l0,0
		c0.6-0.6,3.2-3.2,16.3-16.3c3.1-3.1,7.2-4.8,11.5-4.8c3.7,0,7.3,1.3,10.1,3.5v-14.8c0-4.3-4.5-7.2-8.4-5.5l-44.1,19.5
		c-2.2,0.9-3.6,3.1-3.6,5.5v82.2C0,117.176,4.5,120.075,8.4,118.275z"/>
	<path d="M89.6,27.275c14,14,15.9,15.9,16.301,16.3l0,0c4,4.2,5.6,10.2,4.1,15.7c-0.5,1.6-1.1,3.1-1.9,4.4
		c-0.699,1.1-1.5,2-1.899,2.399l-0.2,0.2l-0.2,0.2l-16.6,16.5c-3.101,3.1-7.2,4.8-11.5,4.8c-3.601,0-7-1.2-9.8-3.3v8.899
		c0,2.4,1.399,4.5,3.6,5.5l44.1,19.4c4,1.7,8.4-1.2,8.4-5.5v-82.1c0-2.4-1.4-4.5-3.6-5.5L76.3,5.675c-4-1.7-8.399,1.2-8.399,5.5
		v14.9c2.899-2.3,6.399-3.5,10.1-3.5C82.4,22.475,86.5,24.175,89.6,27.275z"/>
	<path d="M98.6,50.475l-16.1-16.1c-1.2-1.2-2.9-1.9-4.5-1.9s-3.2,0.6-4.5,1.9c-2.5,2.5-2.5,6.5,0,9l5.3,5.3H45.1l5.3-5.3
		c2.5-2.5,2.5-6.5,0-9c-1.2-1.2-2.9-1.9-4.5-1.9s-3.2,0.6-4.5,1.9l-16.1,16.1c-2.5,2.5-2.2,6.4,0,9l16.5,16.5
		c1.2,1.2,2.9,1.899,4.5,1.899c1.6,0,3.2-0.6,4.5-1.899c2.5-2.5,2.5-6.5,0-9l-5.7-5.7h33.7l-5.7,5.7c-2.5,2.5-2.5,6.5,0,9
		c1.2,1.2,2.9,1.899,4.5,1.899c1.601,0,3.2-0.6,4.5-1.899l16.5-16.5C101.1,56.975,101,52.975,98.6,50.475z"/>
</g>
<g>
</g>
<g>
</g>
<g>
</g>
<g>
</g>
<g>
</g>
<g>
</g>
<g>
</g>
<g>
</g>
<g>
</g>
<g>
</g>
<g>
</g>
<g>
</g>
<g>
</g>
<g>
</g>
<g>
</g>
</svg>
