<?xml version="1.0" encoding="iso-8859-1"?>
<!-- Generator: Adobe Illustrator 16.0.0, SVG Export Plug-In . SVG Version: 6.00 Build 0)  -->
<!DOCTYPE svg PUBLIC "-//W3C//DTD SVG 1.1//EN" "http://www.w3.org/Graphics/SVG/1.1/DTD/svg11.dtd">
<svg version="1.1" id="Capa_1" xmlns="http://www.w3.org/2000/svg" xmlns:xlink="http://www.w3.org/1999/xlink" x="0px" y="0px"
	 width="124px" height="124px" viewBox="0 0 124 124" style="enable-background:new 0 0 124 124;" xml:space="preserve">
<g>
	<path d="M109.389,50.7c0-5.4,0.5-11.2,0-16.7s-2.1-10.6-6.2-14.8l-13.6-13.3c-3.9-4-9.2-5.9-14.7-5.9h-53.6c-3.4,0-6.9,2.3-6.9,5.7
		v96.1c4-3.2,16.6-10.6,18-11.5l0.5-0.3c2.8-5,5.9-10.8,9.1-17.2c4.8-9.6,8.5-19.1,11.2-28.1c-1.9-6.4-3.1-12.6-3.4-18.5v-0.8
		c-0.3-4.2-0.7-11.3,2.9-14c1.1-0.8,2.4-1.3,3.7-1.3c0.7,0,1.4,0.1,2,0.4c2.4,0.8,3.9,3.3,4.3,7.3c0.4,2.2,0.2,4.4,0,6.2
		c-0.4,4.5-1.5,13.1-3.3,20.6c0,0.2,0.2,0.6,0.3,0.9c0.1,0.2,0.1,0.3,0.2,0.5c4.5,13.1,12.6,22.9,24.5,29.8
		c4.5-0.5,8.8-0.8,12.5-0.8c3.3,0,7.7,0.1,11.7,1.1c0.2,0.101,0.7,0.101,0.7,0.2C109.389,67.8,109.389,59.2,109.389,50.7z"/>
	<path d="M47.089,82.8c7.4-3.3,15.2-5.5,22.8-6.6c1.1-0.101,1.5-1.5,0.7-2.3c-5.5-5-9.5-11-12.2-16.4c-0.5-1-2-0.9-2.4,0.2
		c-2,5.899-4.7,12.1-8.2,18.8c-0.8,1.5-1.6,3-2.4,4.5C44.789,82.1,45.989,83.3,47.089,82.8z"/>
	<path d="M35.489,98.1c-0.3,0.5-0.5,0.801-0.7,1.101c-1.7,2.7-3.3,5-4.9,7.1c-1.8,2.4-3.6,4.7-5.7,6.8
		c-0.8,0.801-1.7,1.601-2.6,2.301c-1.1,0.899-2.5,1.399-3.3,2.5c-0.6,0.699-0.8,1.699-0.8,2.6c0.1,1.9,1.6,3.5,3.6,3.5l0,0h0.1h78
		c5.3,0,10.101-4.3,10.101-9.6V89.6c0,0-0.9,0.101-1.301,0.101c-5.899,0-14.6-2.4-22.8-6.3c-0.399-0.2-0.899-0.301-1.3-0.301
		c-1.7-0.199-3.5-0.199-5.2-0.199c-2.5,0-5,0.199-7.5,0.5c-1.899,0.3-3.8,0.6-5.7,1c-10.2,2-20.5,6.5-28.899,12.6
		C36.089,97.3,35.789,97.7,35.489,98.1z"/>
</g>
<g>
</g>
<g>
</g>
<g>
</g>
<g>
</g>
<g>
</g>
<g>
</g>
<g>
</g>
<g>
</g>
<g>
</g>
<g>
</g>
<g>
</g>
<g>
</g>
<g>
</g>
<g>
</g>
<g>
</g>
</svg>
