<?xml version="1.0" encoding="iso-8859-1"?>
<!-- Generator: Adobe Illustrator 16.0.0, SVG Export Plug-In . SVG Version: 6.00 Build 0)  -->
<!DOCTYPE svg PUBLIC "-//W3C//DTD SVG 1.1//EN" "http://www.w3.org/Graphics/SVG/1.1/DTD/svg11.dtd">
<svg version="1.1" id="Capa_1" xmlns="http://www.w3.org/2000/svg" xmlns:xlink="http://www.w3.org/1999/xlink" x="0px" y="0px"
	 width="963.6px" height="963.599px" viewBox="0 0 963.6 963.599" style="enable-background:new 0 0 963.6 963.599;"
	 xml:space="preserve">
<g>
	<path d="M225.3,73.2c-35.8,22.5-64.3,49.1-84.6,79.2c-11,16.4-19.4,33.3-25.1,50.8h111.5c10.8-14.6,27-30.1,51.3-45.3
		c25.6-16.1,55.8-28.8,89.6-37.7c35.899-9.5,74.2-14.4,113.8-14.4s77.8,4.8,113.8,14.4c33.9,9,64,21.7,89.601,37.7
		c24.199,15.2,40.5,30.8,51.3,45.3H848c-5.7-17.5-14.101-34.4-25.101-50.8c-20.3-30.1-48.8-56.8-84.6-79.2
		C669,29.8,577.899,5.9,481.8,5.9S294.6,29.8,225.3,73.2z"/>
	<path d="M963.6,897.7V323.3c0-33.1-26.899-60-60-60H857H757H206.7h-100H60c-33.1,0-60,26.9-60,60v574.4c0,33.1,26.9,60,60,60h843.6
		C936.7,957.7,963.6,930.799,963.6,897.7z M643.8,670.5h-102v102c0,33.101-26.9,60-60,60s-60-26.899-60-60v-102h-102
		c-33.1,0-60-26.899-60-60c0-33.1,26.9-60,60-60h102v-39.8v-62.2c0-14,4.8-26.8,12.8-37c11-14,28-23,47.2-23s36.2,9,47.2,23
		c8,10.2,12.8,23.101,12.8,37v62.2v39.8h102c33.1,0,60,26.9,60,60C703.8,643.6,676.899,670.5,643.8,670.5z"/>
</g>
<g>
</g>
<g>
</g>
<g>
</g>
<g>
</g>
<g>
</g>
<g>
</g>
<g>
</g>
<g>
</g>
<g>
</g>
<g>
</g>
<g>
</g>
<g>
</g>
<g>
</g>
<g>
</g>
<g>
</g>
</svg>
