<?xml version="1.0" encoding="iso-8859-1"?>
<!-- Generator: Adobe Illustrator 16.0.0, SVG Export Plug-In . SVG Version: 6.00 Build 0)  -->
<!DOCTYPE svg PUBLIC "-//W3C//DTD SVG 1.1//EN" "http://www.w3.org/Graphics/SVG/1.1/DTD/svg11.dtd">
<svg version="1.1" id="Capa_1" xmlns="http://www.w3.org/2000/svg" xmlns:xlink="http://www.w3.org/1999/xlink" x="0px" y="0px"
	 width="124.4px" height="124.4px" viewBox="0 0 124.4 124.4" style="enable-background:new 0 0 124.4 124.4;" xml:space="preserve"
	>
<g>
	<path d="M55.75,84.4h-35.8c-0.8,0-1.7,0.5-1.7,1.399v36.8c0,0.801,0.9,1.801,1.7,1.801h35.8c0.8,0,1.5-1,1.5-1.801V85.8
		C57.25,84.9,56.65,84.4,55.75,84.4z"/>
	<path d="M68.75,84.4h35.801c0.8,0,1.699,0.5,1.699,1.399v36.8c0,0.801-0.899,1.801-1.699,1.801H68.75c-0.799,0-1.5-1-1.5-1.801
		V85.8C67.25,84.9,67.851,84.4,68.75,84.4z"/>
	<path d="M104.551,36.4h-4.6c-1.601,0-1.701-1.6-0.9-2.5c0.3-0.3,0.5-0.6,0.699-0.9c0.5-0.6,0.9-1.2,1.301-1.8c1-1.6,1.8-3.3,2.3-5
		c0.5-1.7,0.8-3.5,0.899-5.4c0.101-1.8-0.1-3.6-0.5-5.4c-0.399-1.8-1-3.5-1.899-5.1s-2-3.1-3.3-4.4C94.851,2.2,89.65,0,84.25,0
		c-3.6,0-7.1,1-10.1,2.8c-6,3.6-8.699,9.9-10.6,15.8c-0.2,0.7-0.8,1-1.4,1s-1.2-0.3-1.4-1c-1.8-5.9-4.5-12.2-10.5-15.7
		c-3.1-1.8-6.5-2.8-10.1-2.8c-5.4,0-10.5,2.1-14.3,5.9c-1.3,1.3-2.4,2.8-3.3,4.4c-0.9,1.6-1.5,3.3-1.9,5.1c-0.4,1.8-0.6,3.6-0.5,5.4
		s0.4,3.6,0.9,5.4c0.5,1.8,1.3,3.5,2.3,5c0.4,0.6,0.9,1.3,1.3,1.8c0.2,0.3,0.5,0.6,0.7,0.9c0.9,1,0.7,2.5-0.9,2.5h-4.6
		c-0.8,0-1.7,0.8-1.7,1.6v34.8c0,0.799,0.9,1.5,1.7,1.5h35.8c0.8,0,1.5-0.701,1.5-1.5V48v-0.8V46v-8c0-0.8,0.7-1.6,1.5-1.6h0.6h3
		h2.9h0.6c0.801,0,1.5,0.8,1.5,1.6v8v1.2V48v24.8c0,0.8,0.601,1.5,1.5,1.5h35.801c0.8,0,1.699-0.7,1.699-1.5V38
		C106.25,37.2,105.351,36.4,104.551,36.4z M51.75,31.5c-0.4,0.5-1,0.7-1.6,0.5c-0.8-0.2-1.7-0.4-2.5-0.7c-4.6-1.2-10.3-2.6-12.9-5.1
		c-0.1-0.1-0.2-0.2-0.2-0.2c-3.2-3.3-3.3-8.6-0.2-11.7c1.5-1.5,3.7-2.4,5.9-2.4c1.5,0,2.9,0.4,4.1,1.1c3.8,2.4,5.5,9.1,6.9,14.4
		c0.2,0.7,0.4,1.5,0.6,2.2C52.05,30.3,52.25,30.9,51.75,31.5z M90.051,26.1c-0.1,0.1-0.1,0.2-0.2,0.2c-2.601,2.5-8.3,4-12.899,5.1
		c-0.9,0.2-1.701,0.4-2.5,0.7c-0.601,0.2-1.201-0.1-1.601-0.5c-0.5-0.6-0.3-1.3-0.101-1.9c0.201-0.7,0.4-1.4,0.601-2.2
		c1.399-5.4,3.101-12.1,6.899-14.3c1.201-0.7,2.701-1.1,4.101-1.1c2.2,0,4.399,0.9,5.899,2.4C93.25,17.5,93.15,22.7,90.051,26.1z"/>
</g>
<g>
</g>
<g>
</g>
<g>
</g>
<g>
</g>
<g>
</g>
<g>
</g>
<g>
</g>
<g>
</g>
<g>
</g>
<g>
</g>
<g>
</g>
<g>
</g>
<g>
</g>
<g>
</g>
<g>
</g>
</svg>
