<?xml version="1.0" encoding="iso-8859-1"?>
<!-- Generator: Adobe Illustrator 16.0.0, SVG Export Plug-In . SVG Version: 6.00 Build 0)  -->
<!DOCTYPE svg PUBLIC "-//W3C//DTD SVG 1.1//EN" "http://www.w3.org/Graphics/SVG/1.1/DTD/svg11.dtd">
<svg version="1.1" id="Capa_1" xmlns="http://www.w3.org/2000/svg" xmlns:xlink="http://www.w3.org/1999/xlink" x="0px" y="0px"
	 width="980px" height="980px" viewBox="0 0 980 980" style="enable-background:new 0 0 980 980;" xml:space="preserve">
<g>
	<path d="M836.5,143.6c-45-45-97.399-80.3-155.7-105C620.3,13,556.101,0,490,0c-66.1,0-130.3,13-190.8,38.5
		c-58.4,24.7-110.8,60-155.7,105c-45,45-80.3,97.4-105,155.7C12.9,359.7,0,423.8,0,490s13,130.3,38.5,190.8
		c24.7,58.4,60,110.801,105,155.7c45,45,97.4,80.3,155.7,105C359.7,967.101,423.8,980,490,980s130.3-13,190.8-38.5
		c58.4-24.7,110.801-60,155.7-105c45-45,80.3-97.399,105-155.7C967.101,620.3,980,556.2,980,490s-13-130.3-38.5-190.8
		C916.8,240.9,881.5,188.5,836.5,143.6z M898.101,450.101H763C760.2,388.8,750.8,329.9,735.4,276c29.7-9.2,57.2-20,82.3-32.4
		C861.9,302.2,890.601,373,898.101,450.101z M530,104.9c8.9,4.1,17.601,9.5,26.3,16.3c23.2,18.2,45.2,46,63.801,80.4
		c3,5.6,6,11.4,8.8,17.4c-31.7,5.4-65,9-99,10.6V104.9H530z M359.7,201.6c18.6-34.5,40.7-62.3,63.8-80.4
		c8.7-6.8,17.5-12.3,26.4-16.4v124.8C415.8,228,382.5,224.5,350.8,219C353.8,213.1,356.7,207.3,359.7,201.6z M313.4,329.3
		c2.7-11.7,5.6-23.1,8.8-34.2c41,7.9,83.8,12.7,127.8,14.6V450H297C299.101,408.4,304.601,367.9,313.4,329.3z M450,530.101v140.3
		c-43.8,1.8-86.399,6.7-127.3,14.5c-3.4-11.601-6.5-23.5-9.3-35.8c-8.7-38-14.101-77.9-16.3-119H450z M450,750.5v123.101
		c-8.899-4.101-17.7-9.5-26.399-16.4c-23.2-18.2-45.2-46-63.801-80.4c-2.8-5.1-5.5-10.399-8.1-15.8
		C383.101,755.601,416.2,752.101,450,750.5z M620.2,776.8c-18.6,34.5-40.7,62.301-63.8,80.4c-8.7,6.8-17.5,12.2-26.3,16.3v-123
		c33.8,1.601,66.8,5.101,98.199,10.4C625.601,766.3,623,771.601,620.2,776.8z M666.5,649.101c-2.8,12.3-5.899,24.199-9.3,35.8
		c-40.8-7.8-83.4-12.601-127.2-14.5v-140.3h152.8C680.7,571.101,675.2,611,666.5,649.101z M530,450.101V309.7
		c43.9-1.8,86.7-6.7,127.7-14.6c3.2,11.1,6.2,22.5,8.8,34.2c8.8,38.6,14.3,79,16.4,120.7H530V450.101z M760.5,181.9
		c-16.3,6.9-33.7,13.1-52,18.6c-5.6-12.8-11.5-25.1-17.899-36.9c-9-16.6-18.5-31.9-28.7-45.9C697.9,134.3,731,156,760.5,181.9z
		 M318,117.8c-10.1,14-19.7,29.3-28.6,45.9c-6.4,11.8-12.3,24.1-17.9,36.9c-18.3-5.5-35.6-11.7-51.9-18.6
		C248.9,156.1,282,134.4,318,117.8z M162.3,243.6c25,12.4,52.5,23.2,82.2,32.3c-15.4,53.9-24.8,112.8-27.6,174.1h-135
		C89.4,373,118.2,302.2,162.3,243.6z M81.9,530.101H217c2.9,61.3,12.5,120.199,27.9,174c-29.9,9.199-57.5,20-82.7,32.5
		C118.2,677.9,89.4,607.101,81.9,530.101z M219.5,798.2c16.4-7,34-13.3,52.5-18.8c5.4,12.2,11.1,24,17.3,35.399
		c9.5,17.601,19.7,33.801,30.5,48.5C283.2,846.5,249.5,824.5,219.5,798.2z M660,863.3c10.9-14.699,21.101-30.899,30.601-48.5
		c6.1-11.3,11.899-23.199,17.3-35.399c18.6,5.6,36.2,11.899,52.6,18.899C730.5,824.5,696.7,846.5,660,863.3z M817.7,736.5
		c-25.2-12.399-52.8-23.3-82.8-32.5c15.5-53.8,25-112.7,27.899-173.899H898C890.601,607.101,861.9,677.9,817.7,736.5z"/>
</g>
<g>
</g>
<g>
</g>
<g>
</g>
<g>
</g>
<g>
</g>
<g>
</g>
<g>
</g>
<g>
</g>
<g>
</g>
<g>
</g>
<g>
</g>
<g>
</g>
<g>
</g>
<g>
</g>
<g>
</g>
</svg>
