<?xml version="1.0" encoding="iso-8859-1"?>
<!-- Generator: Adobe Illustrator 16.0.0, SVG Export Plug-In . SVG Version: 6.00 Build 0)  -->
<!DOCTYPE svg PUBLIC "-//W3C//DTD SVG 1.1//EN" "http://www.w3.org/Graphics/SVG/1.1/DTD/svg11.dtd">
<svg version="1.1" id="Capa_1" xmlns="http://www.w3.org/2000/svg" xmlns:xlink="http://www.w3.org/1999/xlink" x="0px" y="0px"
	 width="125.557px" height="125.556px" viewBox="0 0 125.557 125.556" style="enable-background:new 0 0 125.557 125.556;"
	 xml:space="preserve">
<g>
	<path d="M107.774,103.678c3.3,0,6-2.7,6-6v-40.3h-102v40.199c0,3.301,2.7,6,6,6h90V103.678z M87.574,81.378c0-1.7,1.301-3,3-3h10.5
		c1.7,0,3,1.3,3,3v10.5c0,1.699-1.3,3-3,3h-10.5c-1.699,0-3-1.301-3-3V81.378z"/>
	<path d="M2.975,47.378h8.8h102h8.8c2.101,0,3.5-2,2.801-4l-6.2-17.5c-0.8-2.4-3.101-4-5.7-4h-101.5c-2.5,0-4.8,1.6-5.7,4l-6.1,17.5
		C-0.525,45.378,0.975,47.378,2.975,47.378z"/>
</g>
<g>
</g>
<g>
</g>
<g>
</g>
<g>
</g>
<g>
</g>
<g>
</g>
<g>
</g>
<g>
</g>
<g>
</g>
<g>
</g>
<g>
</g>
<g>
</g>
<g>
</g>
<g>
</g>
<g>
</g>
</svg>
