<?xml version="1.0" encoding="iso-8859-1"?>
<!-- Generator: Adobe Illustrator 16.0.0, SVG Export Plug-In . SVG Version: 6.00 Build 0)  -->
<!DOCTYPE svg PUBLIC "-//W3C//DTD SVG 1.1//EN" "http://www.w3.org/Graphics/SVG/1.1/DTD/svg11.dtd">
<svg version="1.1" id="Capa_1" xmlns="http://www.w3.org/2000/svg" xmlns:xlink="http://www.w3.org/1999/xlink" x="0px" y="0px"
	 width="124px" height="124px" viewBox="0 0 124 124" style="enable-background:new 0 0 124 124;" xml:space="preserve">
<g>
	<path d="M86,124h27c3.3,0,6-2.7,6-6V45.2c0-1.9-0.9-3.7-2.4-4.8l-8.199-6.1c-1.5-1.1-2.4-2.9-2.4-4.8V6c0-3.3-2.7-6-6-6h-8
		c-3.3,0-6,2.7-6,6v6c0,2.5-2.8,3.9-4.8,2.4L65.5,3c-2.1-1.5-5-1.5-7.1,0l-51,37.4C5.9,41.5,5,43.3,5,45.3V118c0,3.3,2.7,6,6,6h27
		c3.3,0,6-2.7,6-6V77c0-3.3,2.7-6,6-6h24c3.3,0,6,2.7,6,6v41C80,121.3,82.7,124,86,124z"/>
</g>
<g>
</g>
<g>
</g>
<g>
</g>
<g>
</g>
<g>
</g>
<g>
</g>
<g>
</g>
<g>
</g>
<g>
</g>
<g>
</g>
<g>
</g>
<g>
</g>
<g>
</g>
<g>
</g>
<g>
</g>
</svg>
