<?xml version="1.0" encoding="iso-8859-1"?>
<!-- Generator: Adobe Illustrator 16.0.0, SVG Export Plug-In . SVG Version: 6.00 Build 0)  -->
<!DOCTYPE svg PUBLIC "-//W3C//DTD SVG 1.1//EN" "http://www.w3.org/Graphics/SVG/1.1/DTD/svg11.dtd">
<svg version="1.1" id="Capa_1" xmlns="http://www.w3.org/2000/svg" xmlns:xlink="http://www.w3.org/1999/xlink" x="0px" y="0px"
	 width="124.1px" height="124.1px" viewBox="0 0 124.1 124.1" style="enable-background:new 0 0 124.1 124.1;" xml:space="preserve"
	>
<g>
	<path d="M120.05,64.6c0-18-14.2-32.6-32-33.3l-0.1-15.9C87.05,7.4,68.649,0,46.05,0c-22.6,0-41.1,7.4-41.9,15.4L4.05,107
		c0,0.199,0,0.4,0,0.6c0,0.2,0,0.301,0,0.5c0,8.9,18.8,16,42,16s42-7.199,42-16c0-0.199,0-0.3,0-0.5c0-0.199,0.1-0.4,0.1-0.6v-9.1
		C105.85,97.199,120.05,82.6,120.05,64.6z M46.05,7.6c15.7,0,28.4,3.9,28.4,8.6c0,4.8-12.7,8.6-28.4,8.6s-28.4-3.9-28.4-8.6
		C17.65,11.4,30.35,7.6,46.05,7.6z M21.05,102.8c0,2-1.3,4.601-3.3,4.601h-0.2c-2,0-3.5-2.5-3.5-4.601V36.1c0-2,1.5-2.7,3.5-2.7h0.2
		c2,0,3.3,0.7,3.3,2.7V102.8z M50.05,108.8c0,2-1.9,4.601-3.9,4.601h-0.2c-2,0-3.8-2.601-3.8-4.601V42c0-2,1.9-2.6,3.8-2.6h0.2
		c2,0,3.9,0.6,3.9,2.6V108.8z M78.05,49.7v29.9v17.2v6.101c0,2-1.6,4.6-3.5,4.6h-0.2c-2,0-3.2-2.5-3.2-4.6V94.1V71.9V57.3V36.1
		c0-0.4,0.101-0.7,0.101-1c0.399-1.3,1.5-1.8,3.1-1.8h0.2c0.2,0,0.3,0,0.5,0c1.7,0.1,3,0.9,3,2.7V49.7z M88.05,81.9V47.4
		c8.9,0.7,16,8.1,16,17.2S96.95,81.199,88.05,81.9z"/>
</g>
<g>
</g>
<g>
</g>
<g>
</g>
<g>
</g>
<g>
</g>
<g>
</g>
<g>
</g>
<g>
</g>
<g>
</g>
<g>
</g>
<g>
</g>
<g>
</g>
<g>
</g>
<g>
</g>
<g>
</g>
</svg>
