<?xml version="1.0" encoding="iso-8859-1"?>
<!-- Generator: Adobe Illustrator 16.0.0, SVG Export Plug-In . SVG Version: 6.00 Build 0)  -->
<!DOCTYPE svg PUBLIC "-//W3C//DTD SVG 1.1//EN" "http://www.w3.org/Graphics/SVG/1.1/DTD/svg11.dtd">
<svg version="1.1" id="Capa_1" xmlns="http://www.w3.org/2000/svg" xmlns:xlink="http://www.w3.org/1999/xlink" x="0px" y="0px"
	 width="958.6px" height="958.6px" viewBox="0 0 958.6 958.6" style="enable-background:new 0 0 958.6 958.6;" xml:space="preserve"
	>
<g>
	<path d="M937.85,898.6v-45.8h-917v45.8c0,33.101,26.9,60,60,60h797.099C911.051,958.6,937.85,931.7,937.85,898.6z"/>
	<path d="M937.85,60c0-33.1-26.9-60-60-60h-57.4v78.7c0,33.1-26.898,60-60,60H386.35c-33.1,0-60-26.9-60-60V0h-16.8
		c-23.9,0-46.8,9.5-63.6,26.4L47.15,225.1c-16.9,16.9-26.4,39.8-26.4,63.6v484.1h917.1V60z M523.35,628.2
		c-91.099,0-164.9-73.801-164.9-164.9c0-91.1,73.801-164.9,164.9-164.9c91.1,0,164.9,73.9,164.9,164.9
		C688.25,554.399,614.449,628.2,523.35,628.2z"/>
</g>
<g>
</g>
<g>
</g>
<g>
</g>
<g>
</g>
<g>
</g>
<g>
</g>
<g>
</g>
<g>
</g>
<g>
</g>
<g>
</g>
<g>
</g>
<g>
</g>
<g>
</g>
<g>
</g>
<g>
</g>
</svg>
