<?xml version="1.0" encoding="iso-8859-1"?>
<!-- Generator: Adobe Illustrator 16.0.0, SVG Export Plug-In . SVG Version: 6.00 Build 0)  -->
<!DOCTYPE svg PUBLIC "-//W3C//DTD SVG 1.1//EN" "http://www.w3.org/Graphics/SVG/1.1/DTD/svg11.dtd">
<svg version="1.1" id="Capa_1" xmlns="http://www.w3.org/2000/svg" xmlns:xlink="http://www.w3.org/1999/xlink" x="0px" y="0px"
	 width="124.6px" height="124.6px" viewBox="0 0 124.6 124.6" style="enable-background:new 0 0 124.6 124.6;" xml:space="preserve"
	>
<g>
	<path d="M62.3,33.9c14.9,0,27,12.1,27,27c0,4.3-1,8.3-2.801,11.9c1.601,2.799,2.101,6.1,1.4,9.299L85.1,95
		c11-7.4,18.2-19.9,18.2-34.1c0-22.6-18.4-41-41-41c-22.6,0-41,18.4-41,41c0,14.1,7.1,26.5,17.9,33.9L36.5,82.2
		c-0.7-3.3-0.2-6.7,1.5-9.601c-1.7-3.5-2.7-7.5-2.7-11.699C35.3,46.1,47.399,33.9,62.3,33.9z"/>
	<path d="M45.399,121.6l-1.5-11.6c-1.1-1.4-1.9-3-2.4-4.8c-16.1-7.8-27.2-24.2-27.2-43.3c0-26.5,21.5-48,48-48s48,21.5,48,48
		c0,19.1-11.2,35.699-27.5,43.4c-0.5,1.699-1.301,3.299-2.4,4.699l-1.5,11.7c26.2-7.3,45.4-31.2,45.4-59.7c0-34.2-27.801-62-62-62
		c-34.2,0-62,27.8-62,62C0.3,90.4,19.399,114.301,45.399,121.6z"/>
	<path d="M45,94.801c0.1,1.399,0.6,2.799,1.3,4c0.3,0.5,0.7,1,1.2,1.399c0.5,0.5,1.1,1,1.7,1.3l0.2,4.2l0.1,2.5L50,118.6
		c0,1.801,0.8,3.301,2,4.4c0.2,0.2,0.4,0.301,0.6,0.5c1,0.7,2.2,1.1,3.5,1.1h3.7h4.5h3.9c1.199,0,2.299-0.399,3.299-1
		C71.8,123.4,72.1,123.2,72.3,123c1.199-1.1,2-2.699,2-4.4l0.5-10.5l0.1-2.799l0.2-3.9c0.5-0.301,1-0.7,1.5-1.1
		c0.601-0.5,1-1.101,1.5-1.701c0.7-1.1,1.2-2.5,1.3-3.899c0-0.5,2.6-13.5,2.6-13.5C82.1,80.5,82.2,79.7,82.2,79
		c-0.101-2.3-1.101-4.6-2.801-6.1c-1.5-1.2-3.5-2.2-5.6-2.2h-23c-2.1,0-4.1,1-5.6,2.3c-1.8,1.5-2.7,3.801-2.8,6.1
		c0,0.701,0,1.5,0.2,2.201C42.399,81.301,45,94.301,45,94.801z"/>
	<path d="M48.399,54.7c0,4.5,2.1,8.399,5.4,11c2.4,1.899,5.4,3,8.6,3c3.2,0,6.301-1.101,8.6-3c3.301-2.601,5.4-6.5,5.4-11
		c0-7.7-6.3-14-14-14C54.7,40.7,48.399,47,48.399,54.7z"/>
</g>
<g>
</g>
<g>
</g>
<g>
</g>
<g>
</g>
<g>
</g>
<g>
</g>
<g>
</g>
<g>
</g>
<g>
</g>
<g>
</g>
<g>
</g>
<g>
</g>
<g>
</g>
<g>
</g>
<g>
</g>
</svg>
