<?xml version="1.0" encoding="iso-8859-1"?>
<!-- Generator: Adobe Illustrator 16.0.0, SVG Export Plug-In . SVG Version: 6.00 Build 0)  -->
<!DOCTYPE svg PUBLIC "-//W3C//DTD SVG 1.1//EN" "http://www.w3.org/Graphics/SVG/1.1/DTD/svg11.dtd">
<svg version="1.1" id="Capa_1" xmlns="http://www.w3.org/2000/svg" xmlns:xlink="http://www.w3.org/1999/xlink" x="0px" y="0px"
	 width="983.391px" height="983.391px" viewBox="0 0 983.391 983.391" style="enable-background:new 0 0 983.391 983.391;"
	 xml:space="preserve">
<g>
	<path d="M616.495,592.301c-47.6-50.801-91.3-109.801-129.899-175.601c-16.101-27.5-32.9-57-46.101-89.1c-1.7-4.1-3.3-8.2-4.8-12.2
		h-81c-16,0-29,13-29,29v528.2c0,16,13,29,29,29h274c16,0,29-13,29-29V619.4c-1.9-0.701-3.9-1.5-5.8-2.301
		C638.495,611.4,626.495,603.1,616.495,592.301z"/>
	<path d="M37.896,814.301l201.3,79.199c9.8,3.9,20.5-3.4,20.5-14V339.2c0-14.4-8.8-27.3-22.2-32.6l-200.5-78.9
		c-10.2-4-21.3,3.5-21.3,14.5v539.4C15.695,796.1,24.495,809,37.896,814.301z"/>
	<path d="M883.896,445.4c-33,52.901-71.8,102.7-115.3,147.901c-10.101,10.5-21.9,18.6-35.101,24.199c-3.2,1.4-6.5,2.5-9.8,3.6
		v249.701c0,14.398,8.8,27.299,22.2,32.6l200.5,78.9c10.2,4,21.3-3.5,21.3-14.5V428.2c0-14.399-8.8-27.3-22.2-32.6l-26.3-10.3
		C907.995,406.3,895.795,426.3,883.896,445.4z"/>
	<path d="M660.195,551.199c9,9.602,20.9,14.4,32.8,14.4c11,0,22-4.1,30.7-12.199c0.6-0.5,1.1-1.1,1.7-1.6
		c40.5-42.102,76.7-88.5,107.7-138.101c10.1-16.1,20.399-33,30-50.5c25.199-45.9,45.699-95.9,45.699-147.2
		c0-119.3-96.699-216-216-216c-119.3,0-216,96.7-216,216c0,35,9.801,68,23.801,99.5c10.899,24.5,24.399,48.1,37.8,71
		c33.899,57.9,73.6,113,119.399,162.199C658.495,549.4,659.396,550.301,660.195,551.199z M624.695,315.3
		c-35-22.2-58.1-61.3-58.1-105.7c-0.101-69.1,56-125.2,125.1-125.2s125.2,56.1,125.2,125.2c0,47.3-26.3,88.5-65,109.8
		c-8.8,4.8-18.2,8.6-28.2,11.2c-10.2,2.7-20.9,4.1-32,4.1c-13.5,0-26.4-2.1-38.6-6.1C642.995,325.5,633.495,320.9,624.695,315.3z"/>
</g>
<g>
</g>
<g>
</g>
<g>
</g>
<g>
</g>
<g>
</g>
<g>
</g>
<g>
</g>
<g>
</g>
<g>
</g>
<g>
</g>
<g>
</g>
<g>
</g>
<g>
</g>
<g>
</g>
<g>
</g>
</svg>
