<?xml version="1.0" encoding="iso-8859-1"?>
<!-- Generator: Adobe Illustrator 16.0.0, SVG Export Plug-In . SVG Version: 6.00 Build 0)  -->
<!DOCTYPE svg PUBLIC "-//W3C//DTD SVG 1.1//EN" "http://www.w3.org/Graphics/SVG/1.1/DTD/svg11.dtd">
<svg version="1.1" id="Capa_1" xmlns="http://www.w3.org/2000/svg" xmlns:xlink="http://www.w3.org/1999/xlink" x="0px" y="0px"
	 width="968.051px" height="968.051px" viewBox="0 0 968.051 968.051" style="enable-background:new 0 0 968.051 968.051;"
	 xml:space="preserve">
<g>
	<path d="M378.226,627.8l76.6,317.3c7.4,30.601,50.9,30.601,58.3,0l76.601-317.3c-34,10.7-69.4,16.2-105.7,16.2
		S412.325,638.5,378.226,627.8z"/>
	<path d="M776.025,292c0-80.6-32.7-153.6-85.5-206.5c-52.9-52.8-125.9-85.5-206.5-85.5c-161.3,0-292,130.7-292,292
		c0,117.4,69.2,218.5,169.1,264.9c37.4,17.399,79,27.1,122.9,27.1s85.6-9.7,122.9-27.1C706.825,510.5,776.025,409.4,776.025,292z"/>
</g>
<g>
</g>
<g>
</g>
<g>
</g>
<g>
</g>
<g>
</g>
<g>
</g>
<g>
</g>
<g>
</g>
<g>
</g>
<g>
</g>
<g>
</g>
<g>
</g>
<g>
</g>
<g>
</g>
<g>
</g>
</svg>
