<?xml version="1.0" encoding="iso-8859-1"?>
<!-- Generator: Adobe Illustrator 16.0.0, SVG Export Plug-In . SVG Version: 6.00 Build 0)  -->
<!DOCTYPE svg PUBLIC "-//W3C//DTD SVG 1.1//EN" "http://www.w3.org/Graphics/SVG/1.1/DTD/svg11.dtd">
<svg version="1.1" id="Capa_1" xmlns="http://www.w3.org/2000/svg" xmlns:xlink="http://www.w3.org/1999/xlink" x="0px" y="0px"
	 width="981.6px" height="981.6px" viewBox="0 0 981.6 981.6" style="enable-background:new 0 0 981.6 981.6;" xml:space="preserve"
	>
<g>
	<path d="M50.562,981.6c12.8,0,25.6-4.9,35.4-14.6l82-82l-35.9-35.9l-34.9-34.9l-82,82c-19.5,19.5-19.5,51.201,0,70.701
		C24.962,976.699,37.763,981.6,50.562,981.6z"/>
	<path d="M714.562,0c-64.6,1.5-128.7,26.9-177.9,76.2c-20.5,20.5-36.8,43.5-49.099,68.1l20.599,20.6l154,154l154,154l20.601,20.6
		c24.6-12.2,47.6-28.6,68.1-49.1c49.3-49.3,74.7-113.4,76.2-177.9l-12.1,12.1c-6.801,6.8-15.801,10.3-24.7,10.3
		c-9,0-17.9-3.4-24.7-10.3c-13.7-13.7-13.7-35.8,0-49.5l49.1-49.1c-8.899-27.4-22.399-53.7-40.6-77.5l-67.5,67.5
		c-6.8,6.8-15.8,10.3-24.7,10.3c-9,0-17.899-3.4-24.7-10.3c-13.699-13.7-13.699-35.8,0-49.5l67.5-67.5
		c-23.8-18.2-50.1-31.7-77.5-40.6l-49.1,49.1c-6.8,6.8-15.8,10.3-24.7,10.3c-9,0-17.899-3.4-24.7-10.3
		c-13.699-13.7-13.699-35.8,0-49.5L714.562,0z"/>
	<path d="M458.662,214.4l-348.1,439.1c-18.9,23.9-17,58.199,4.6,79.699l31.5,31.5l34.9,34.9l35.9,35.9l30.5,30.5
		c11.6,11.6,27,17.6,42.4,17.6c13.101,0,26.3-4.299,37.3-13l439.1-348.1l-4.9-4.9l-149.2-149.1L463.562,219.4L458.662,214.4z"/>
</g>
<g>
</g>
<g>
</g>
<g>
</g>
<g>
</g>
<g>
</g>
<g>
</g>
<g>
</g>
<g>
</g>
<g>
</g>
<g>
</g>
<g>
</g>
<g>
</g>
<g>
</g>
<g>
</g>
<g>
</g>
</svg>
