<?xml version="1.0" encoding="iso-8859-1"?>
<!-- Generator: Adobe Illustrator 16.0.0, SVG Export Plug-In . SVG Version: 6.00 Build 0)  -->
<!DOCTYPE svg PUBLIC "-//W3C//DTD SVG 1.1//EN" "http://www.w3.org/Graphics/SVG/1.1/DTD/svg11.dtd">
<svg version="1.1" id="Capa_1" xmlns="http://www.w3.org/2000/svg" xmlns:xlink="http://www.w3.org/1999/xlink" x="0px" y="0px"
	 width="961.1px" height="961.1px" viewBox="0 0 961.1 961.1" style="enable-background:new 0 0 961.1 961.1;" xml:space="preserve"
	>
<g>
	<path d="M6.33,168.4v732.7c0,33.1,26.9,60,60,60h732.699c33.102,0,60-26.9,60-60V317.4l-401.5,403.799
		c-10.6,10.602-23.7,18.701-37.899,23.4L273.93,792.4c-7.9,2.6-16.1,3.9-24.4,3.9c-12.2,0-24.4-2.9-35.4-8.5
		c-10.3-5.201-19.5-12.801-26.5-21.9c-15-19.201-20.1-43.701-14.2-67.301l39-154.9c4.2-16.6,12.8-31.898,24.9-44l389-391.299h-560
		C33.13,108.4,6.33,135.3,6.33,168.4z"/>
	<path d="M883.131,208l59.6-60c16.299-16.3,16-50-0.6-66.6L873.33,12.6C864.93,4.2,852.131,0,839.43,0c-12.4,0-24.6,4-32.6,12
		l-59.6,60l36.4,36.4l75.398,75.4L883.131,208z"/>
	<path d="M270.63,558.4l-39,154.9c-3,12,6.5,23,17.9,23c1.9,0,3.8-0.301,5.7-0.9l145.7-47.801c0.399-0.1,0.8-0.299,1.1-0.4
		l-130.8-130.898C271.03,557,270.83,557.699,270.63,558.4z"/>
	<polygon points="310.73,511 446.73,647 840.83,250.6 704.83,114.6 	"/>
</g>
<g>
</g>
<g>
</g>
<g>
</g>
<g>
</g>
<g>
</g>
<g>
</g>
<g>
</g>
<g>
</g>
<g>
</g>
<g>
</g>
<g>
</g>
<g>
</g>
<g>
</g>
<g>
</g>
<g>
</g>
</svg>
