<?xml version="1.0" encoding="iso-8859-1"?>
<!-- Generator: Adobe Illustrator 16.0.0, SVG Export Plug-In . SVG Version: 6.00 Build 0)  -->
<!DOCTYPE svg PUBLIC "-//W3C//DTD SVG 1.1//EN" "http://www.w3.org/Graphics/SVG/1.1/DTD/svg11.dtd">
<svg version="1.1" id="Capa_1" xmlns="http://www.w3.org/2000/svg" xmlns:xlink="http://www.w3.org/1999/xlink" x="0px" y="0px"
	 width="964.5px" height="964.5px" viewBox="0 0 964.5 964.5" style="enable-background:new 0 0 964.5 964.5;" xml:space="preserve"
	>
<g>
	<path d="M558.856,408.6v-58h-80v58v30v30h-6.3c-33.1,0-60,26.9-60,60v375.9c0,33.1,26.9,60,60,60h93.5c33.101,0,60-26.9,60-60
		V528.6c0-33.1-26.899-60-60-60h-7.3v-30v-30H558.856z"/>
	<path d="M863.757,230.8v-171c0-33-26.8-59.8-59.8-59.8h-452.9c-26.399,0-49.8,17.4-57.3,42.7c-18.7,63.2-89.9,136-179,192.5
		c-25.4,16.1-14,55.3,16,55.3h348.1h80h245C836.957,290.6,863.757,263.8,863.757,230.8z"/>
</g>
<g>
</g>
<g>
</g>
<g>
</g>
<g>
</g>
<g>
</g>
<g>
</g>
<g>
</g>
<g>
</g>
<g>
</g>
<g>
</g>
<g>
</g>
<g>
</g>
<g>
</g>
<g>
</g>
<g>
</g>
</svg>
