<?xml version="1.0" encoding="iso-8859-1"?>
<!-- Generator: Adobe Illustrator 16.0.0, SVG Export Plug-In . SVG Version: 6.00 Build 0)  -->
<!DOCTYPE svg PUBLIC "-//W3C//DTD SVG 1.1//EN" "http://www.w3.org/Graphics/SVG/1.1/DTD/svg11.dtd">
<svg version="1.1" id="Capa_1" xmlns="http://www.w3.org/2000/svg" xmlns:xlink="http://www.w3.org/1999/xlink" x="0px" y="0px"
	 width="991.5px" height="991.5px" viewBox="0 0 991.5 991.5" style="enable-background:new 0 0 991.5 991.5;" xml:space="preserve"
	>
<g>
	<path d="M100.8,540.801H501c11.5,0,20.8,9.299,20.8,20.799v26.6c0.2,0,0.5,0,0.7,0h78.6c0.2,0,0.5,0,0.7,0v-26.6
		C601.8,506,556.6,460.8,501,460.8H100.8c-11.5,0-20.8-9.3-20.8-20.8V273.5c0-11.5,9.3-20.8,20.8-20.8h11.1v-80h-11.1
		C45.2,172.7,0,217.9,0,273.5V440C0,495.6,45.2,540.801,100.8,540.801z"/>
	<path d="M931.5,21.5H231.9c-33.1,0-60,26.9-60,60v206.3c0,33.1,26.9,60,60,60h699.6c33.1,0,60-26.9,60-60V81.5
		C991.5,48.3,964.6,21.5,931.5,21.5z"/>
	<path d="M601.7,618.199c-0.2,0-0.5,0-0.7,0h-78.5c-0.2,0-0.5,0-0.7,0c-32.8,0.4-59.3,27.102-59.3,60V910c0,33.1,26.9,60,60,60h78.6
		c33.101,0,60-26.9,60-60V678.199C661,645.301,634.6,618.6,601.7,618.199z"/>
</g>
<g>
</g>
<g>
</g>
<g>
</g>
<g>
</g>
<g>
</g>
<g>
</g>
<g>
</g>
<g>
</g>
<g>
</g>
<g>
</g>
<g>
</g>
<g>
</g>
<g>
</g>
<g>
</g>
<g>
</g>
</svg>
