<?xml version="1.0" encoding="iso-8859-1"?>
<!-- Generator: Adobe Illustrator 16.0.0, SVG Export Plug-In . SVG Version: 6.00 Build 0)  -->
<!DOCTYPE svg PUBLIC "-//W3C//DTD SVG 1.1//EN" "http://www.w3.org/Graphics/SVG/1.1/DTD/svg11.dtd">
<svg version="1.1" id="Capa_1" xmlns="http://www.w3.org/2000/svg" xmlns:xlink="http://www.w3.org/1999/xlink" x="0px" y="0px"
	 width="970px" height="970px" viewBox="0 0 970 970" style="enable-background:new 0 0 970 970;" xml:space="preserve">
<g>
	<path d="M743.65,146.9c-3.8-8.3-8.6-16-14.4-23C710.85,101.7,684.05,89,655.65,89h-34.5c-7.5-17-17.9-32.3-31.1-45.5
		c-13.7-13.7-29.601-24.4-47.4-31.9C524.35,3.9,504.85,0,484.75,0c-20.1,0-39.6,3.9-58,11.7c-17.8,7.5-33.699,18.2-47.399,31.9
		C366.25,56.7,355.75,72,348.25,89h-34.5c-26.6,0-53,11.3-72.5,30.9c-7.9,8-14.5,17.1-19.5,27h-33.3c-33.1,0-60,26.9-60,60V910
		c0,33.1,26.9,60,60,60H781.55c33.1,0,60-26.9,60-60V206.9c0-33.1-26.9-60-60-60H743.65z M484.75,60c48.5,0,87.9,38.9,89,86.9
		c0,0.7,0,1.4,0,2.1h81.9c22.4,0,38,20.5,38,43.9V207c0,23.4-15.6,41-38,41h-341.9c-22.399,0-43.1-17.7-43.1-41v-14.1
		c0-23.4,20.8-43.9,43.1-43.9h81.9c0-0.7,0-1.4,0-2.1C396.85,98.9,436.25,60,484.75,60z"/>
</g>
<g>
</g>
<g>
</g>
<g>
</g>
<g>
</g>
<g>
</g>
<g>
</g>
<g>
</g>
<g>
</g>
<g>
</g>
<g>
</g>
<g>
</g>
<g>
</g>
<g>
</g>
<g>
</g>
<g>
</g>
</svg>
