<?xml version="1.0" encoding="iso-8859-1"?>
<!-- Generator: Adobe Illustrator 16.0.0, SVG Export Plug-In . SVG Version: 6.00 Build 0)  -->
<!DOCTYPE svg PUBLIC "-//W3C//DTD SVG 1.1//EN" "http://www.w3.org/Graphics/SVG/1.1/DTD/svg11.dtd">
<svg version="1.1" id="Capa_1" xmlns="http://www.w3.org/2000/svg" xmlns:xlink="http://www.w3.org/1999/xlink" x="0px" y="0px"
	 width="970px" height="970px" viewBox="0 0 970 970" style="enable-background:new 0 0 970 970;" xml:space="preserve">
<g>
	<path d="M687,965.45c38.7,0,70-31.301,70-70v-750.9h143c38.7,0,70-31.3,70-70c0-38.7-31.3-70-70-70H687H435.5H246.9
		c-66,0-128,25.7-174.6,72.3C25.7,123.45,0,185.55,0,251.45s25.7,128,72.3,174.6c46.6,46.601,108.7,72.301,174.6,72.301h118.6v397.1
		c0,38.699,31.3,70,70,70s70-31.301,70-70v-466c0-0.3,0-0.6,0-1s0-0.6,0-1v-283H617v751C617,934.149,648.3,965.45,687,965.45z
		 M365.5,358.55H246.9c-59,0-107-48-107-107s48-107,107-107h118.6V358.55z"/>
</g>
<g>
</g>
<g>
</g>
<g>
</g>
<g>
</g>
<g>
</g>
<g>
</g>
<g>
</g>
<g>
</g>
<g>
</g>
<g>
</g>
<g>
</g>
<g>
</g>
<g>
</g>
<g>
</g>
<g>
</g>
</svg>
