<?xml version="1.0" encoding="iso-8859-1"?>
<!-- Generator: Adobe Illustrator 16.0.0, SVG Export Plug-In . SVG Version: 6.00 Build 0)  -->
<!DOCTYPE svg PUBLIC "-//W3C//DTD SVG 1.1//EN" "http://www.w3.org/Graphics/SVG/1.1/DTD/svg11.dtd">
<svg version="1.1" id="Capa_1" xmlns="http://www.w3.org/2000/svg" xmlns:xlink="http://www.w3.org/1999/xlink" x="0px" y="0px"
	 width="981.647px" height="981.647px" viewBox="0 0 981.647 981.647" style="enable-background:new 0 0 981.647 981.647;"
	 xml:space="preserve">
<g>
	<path d="M941.213,125.447l-140.601-107c-39.5-30.2-96-22.5-126.1,17.1l-330.799,434.5c-24.8-7.7-50.7-11.601-76.9-11.601
		c-11.8,0-23.7,0.8-35.4,2.4c-69.2,9.399-130.7,45.201-173,100.8c-42.3,55.5-60.4,124.2-51.1,193.5c8.6,63.1,39.7,120.8,87.8,162.5
		c47.6,41.3,108.4,64,171.2,64l0,0c11.8,0,23.7-0.8,35.4-2.4c69.2-9.399,130.7-45.199,173-100.8
		c42.299-55.6,60.5-124.3,51.099-193.6c-5.2-38-18.5-74-38.799-105.8l125.599-165l70.801,53.899c16.3,12.4,35.399,18.4,54.399,18.4
		c27.101,0,54-12.2,71.7-35.5c30.1-39.601,22.5-96-17.1-126.1l-70.801-53.9l41.601-54.7l69,52.5c16.3,12.4,35.399,18.4,54.399,18.4
		c27.101,0,54-12.2,71.7-35.5C988.414,211.947,980.813,155.547,941.213,125.447z M277.514,800.848c-3.7,0.5-7.5,0.8-11.2,0.8
		c-40.5,0-75.2-30.4-80.6-70.6c0-0.4-0.1-0.7-0.1-1.101c-5.4-44.2,25.8-84.7,70-90.7c3.7-0.5,7.5-0.8,11.2-0.8
		c40.5,0,75.2,30.4,80.601,70.601c2.899,21.6-2.7,43-15.9,60.399c-13,17.101-31.8,28.2-53.1,31.3
		C278.114,800.747,277.813,800.747,277.514,800.848z"/>
</g>
<g>
</g>
<g>
</g>
<g>
</g>
<g>
</g>
<g>
</g>
<g>
</g>
<g>
</g>
<g>
</g>
<g>
</g>
<g>
</g>
<g>
</g>
<g>
</g>
<g>
</g>
<g>
</g>
<g>
</g>
</svg>
