<?xml version="1.0" encoding="iso-8859-1"?>
<!-- Generator: Adobe Illustrator 16.0.0, SVG Export Plug-In . SVG Version: 6.00 Build 0)  -->
<!DOCTYPE svg PUBLIC "-//W3C//DTD SVG 1.1//EN" "http://www.w3.org/Graphics/SVG/1.1/DTD/svg11.dtd">
<svg version="1.1" id="Capa_1" xmlns="http://www.w3.org/2000/svg" xmlns:xlink="http://www.w3.org/1999/xlink" x="0px" y="0px"
	 width="979.4px" height="979.4px" viewBox="0 0 979.4 979.4" style="enable-background:new 0 0 979.4 979.4;" xml:space="preserve"
	>
<g>
	<path d="M978.851,300.4c0-33.1-26.9-60-60-60h-77.701v470.2c0,17.5-3.4,34.6-10.199,50.6c-6.6,15.5-15.9,29.4-27.801,41.301
		s-25.799,21.301-41.299,27.801c-16.102,6.799-33.102,10.199-50.602,10.199H239.75v78.9c0,33.1,26.9,60,60,60h619.101
		c33.1,0,60-26.9,60-60V300.4L978.851,300.4z"/>
	<path d="M0.55,573.301h239.2h531.399V240.4V60c0-33.1-26.9-60-60-60H60.55c-33.1,0-60,26.9-60,60V573.301z M81.85,411.8
		l200.7-255.3c16-20.4,46.9-20.4,62.9,0l65.9,83.9l80.7,102.6l40.4-51.4c16-20.4,46.9-20.4,62.9,0l94.5,120.2
		c15.5,19.699,1.5,48.5-23.602,48.5h-82H399.85h-160.1h-134.3C80.45,460.3,66.45,431.5,81.85,411.8z"/>
	<path d="M0.55,710.6c0,33.1,26.9,60,60,60h179.2h471.399c33.1,0,60-26.9,60-60v-57.299H239.75H0.55V710.6z"/>
</g>
<g>
</g>
<g>
</g>
<g>
</g>
<g>
</g>
<g>
</g>
<g>
</g>
<g>
</g>
<g>
</g>
<g>
</g>
<g>
</g>
<g>
</g>
<g>
</g>
<g>
</g>
<g>
</g>
<g>
</g>
</svg>
