<?xml version="1.0" encoding="iso-8859-1"?>
<!-- Generator: Adobe Illustrator 16.0.0, SVG Export Plug-In . SVG Version: 6.00 Build 0)  -->
<!DOCTYPE svg PUBLIC "-//W3C//DTD SVG 1.1//EN" "http://www.w3.org/Graphics/SVG/1.1/DTD/svg11.dtd">
<svg version="1.1" id="Capa_1" xmlns="http://www.w3.org/2000/svg" xmlns:xlink="http://www.w3.org/1999/xlink" x="0px" y="0px"
	 width="123.9px" height="123.9px" viewBox="0 0 123.9 123.9" style="enable-background:new 0 0 123.9 123.9;" xml:space="preserve"
	>
<g>
	<path d="M101.8,104h1.9c4.6,0,8.7-3.4,8.7-8V8.2c0-4.5-4.101-8.2-8.601-8.2h-63c-4.6,0-8.3,3.5-8.3,8c0,1.2,1,2,2.1,2h52.6
		c6.899,0,12.2,5.9,12.2,12.8v79.5C99.5,103.4,100.7,104,101.8,104z"/>
	<path d="M36.7,19H18.6c-3.7,0-7.1,2.6-7.1,6.3v91.9c0,3.7,3.4,6.7,7.1,6.7h65.7c3.9,0,7.101-3.2,7.101-7.101v-16.7V25.9
		c0-4-3.301-6.9-7.4-6.9H36.7z M72.5,101.3c0,3.4-2.4,5.7-5.8,5.7H51.2h-15c-3.7,0-6.8-2.8-6.8-6.6c0-3.7,3-6.4,6.7-6.4h0.6h14.5
		h14.5h0.5c3.7,0,6.399,3.1,6.399,6.8v0.5H72.5z M72.5,59.1c0,3.9-2.8,6.9-6.7,6.9H59c-0.4,0-0.5,0.4-0.5,0.8V73.4
		c0,4-3.4,7.6-7.3,7.6h-0.5c-3.7,0-7.2-3.4-7.2-7.2v-7.1c0-0.4,0.1-0.8-0.2-0.8h-6.6h-0.3c-3.8,0-6.9-3-6.9-6.8v-0.8
		c0-3.7,3-6.4,6.7-6.4h0.5h6.6c0.4,0,0.2-0.6,0.2-1V44c0-3.8,3.5-7.1,7.3-7.1h0.5c3.8,0,7.1,3.3,7.1,7.2V51c0,0.4,0.2,1,0.5,1H66
		c3.7,0,6.4,2.7,6.4,6.4v0.7H72.5z"/>
</g>
<g>
</g>
<g>
</g>
<g>
</g>
<g>
</g>
<g>
</g>
<g>
</g>
<g>
</g>
<g>
</g>
<g>
</g>
<g>
</g>
<g>
</g>
<g>
</g>
<g>
</g>
<g>
</g>
<g>
</g>
</svg>
