<?xml version="1.0" encoding="iso-8859-1"?>
<!-- Generator: Adobe Illustrator 16.0.0, SVG Export Plug-In . SVG Version: 6.00 Build 0)  -->
<!DOCTYPE svg PUBLIC "-//W3C//DTD SVG 1.1//EN" "http://www.w3.org/Graphics/SVG/1.1/DTD/svg11.dtd">
<svg version="1.1" id="Capa_1" xmlns="http://www.w3.org/2000/svg" xmlns:xlink="http://www.w3.org/1999/xlink" x="0px" y="0px"
	 width="971.3px" height="971.3px" viewBox="0 0 971.3 971.3" style="enable-background:new 0 0 971.3 971.3;" xml:space="preserve"
	>
<g>
	<path d="M429.65,736.2c-16.5,0-30-13.5-30-30v-52.9H571.55v52.9c0,16.5-13.5,30-30,30H429.65z M631.55,653.2v53
		c0,49.6-40.399,90-90,90H429.65c-49.601,0-90-40.4-90-90v-53H64.75c-7.8,0-15.5-0.7-23-2.2v260.3c0,33.101,26.9,60,60,60h383h1.8
		h383c33.101,0,60-26.899,60-60V651c-7.5,1.4-15.2,2.2-23,2.2H631.55z M966.55,250.3v282.9c0,25-15.3,46.399-37,55.399
		c-7.1,2.9-14.899,4.601-23,4.601h-420h-1.8h-420c-8.2,0-15.9-1.601-23-4.601c-21.7-9-37-30.399-37-55.399V250.3
		c0-33.1,26.9-60,60-60h65.2c3.3-10.2,7.6-20.2,12.9-30c3.3-6.1,6.9-12.1,10.9-18.1c2.7-4,5.6-8,8.7-11.9
		c18.7-24.1,43.1-45.7,72.9-64.4c67.3-42.2,155.8-65.6,249.4-65.9l0,0c0.3,0,0.6,0,0.9,0c0.3,0,0.6,0,0.899,0l0,0
		c93.601,0.3,182.101,23.6,249.4,65.8c29.8,18.7,54.2,40.3,72.899,64.4c3,3.9,5.9,7.9,8.7,11.9c4,5.9,7.601,12,10.9,18.1
		c5.3,9.8,9.6,19.8,12.899,30h65.2C939.65,190.3,966.55,217.1,966.55,250.3z M753.45,190.3c-6.5-10.4-14.9-20.4-25.101-30
		c-10-9.4-21.6-18.3-34.899-26.6c-1.8-1.1-3.601-2.3-5.5-3.4C633.65,98,562.15,80.2,485.65,80c-76.5,0.1-148,17.9-202.3,50.3
		c-1.8,1.1-3.7,2.2-5.5,3.4c-13.3,8.3-24.9,17.3-34.9,26.6c-10.2,9.6-18.6,19.6-25.1,30H753.45z"/>
</g>
<g>
</g>
<g>
</g>
<g>
</g>
<g>
</g>
<g>
</g>
<g>
</g>
<g>
</g>
<g>
</g>
<g>
</g>
<g>
</g>
<g>
</g>
<g>
</g>
<g>
</g>
<g>
</g>
<g>
</g>
</svg>
