<?xml version="1.0" encoding="iso-8859-1"?>
<!-- Generator: Adobe Illustrator 16.0.0, SVG Export Plug-In . SVG Version: 6.00 Build 0)  -->
<!DOCTYPE svg PUBLIC "-//W3C//DTD SVG 1.1//EN" "http://www.w3.org/Graphics/SVG/1.1/DTD/svg11.dtd">
<svg version="1.1" id="Capa_1" xmlns="http://www.w3.org/2000/svg" xmlns:xlink="http://www.w3.org/1999/xlink" x="0px" y="0px"
	 width="124px" height="124px" viewBox="0 0 124 124" style="enable-background:new 0 0 124 124;" xml:space="preserve">
<g>
	<path d="M77,61h14.8c1.8,0,3.2-1.2,3.2-3V34h-6V16.1c0-4.6-4.3-9.1-9-9.1H62H44c-4.7,0-9,4.5-9,9.1V34h-6v24c0,1.8,1.4,3,3.2,3H47
		c0.1-4,3.4-7,7.2-7H62h7.8C73.6,54,76.9,57,77,61z M62,34H49V21h13h13v13H62z"/>
	<polygon points="54,61 54,75 54,76 62,76 70,76 70,75 70,61 62,61 	"/>
	<path d="M6.2,117H62h55.8c3.4,0,6.2-3,6.2-6.5V40.3c0-3.4-2.8-6.3-6.2-6.3H109v24c0,9.5-7.7,17-17.2,17H77v0.9
		c0,3.899-3.4,7.1-7.2,7.1H62h-7.8c-3.9,0-7.2-3.2-7.2-7.1V75H32.2C22.7,75,15,67.5,15,58V34H6.2C2.8,34,0,36.8,0,40.3v70.3
		C0,114,2.8,117,6.2,117z"/>
</g>
<g>
</g>
<g>
</g>
<g>
</g>
<g>
</g>
<g>
</g>
<g>
</g>
<g>
</g>
<g>
</g>
<g>
</g>
<g>
</g>
<g>
</g>
<g>
</g>
<g>
</g>
<g>
</g>
<g>
</g>
</svg>
