<?xml version="1.0" encoding="iso-8859-1"?>
<!-- Generator: Adobe Illustrator 16.0.0, SVG Export Plug-In . SVG Version: 6.00 Build 0)  -->
<!DOCTYPE svg PUBLIC "-//W3C//DTD SVG 1.1//EN" "http://www.w3.org/Graphics/SVG/1.1/DTD/svg11.dtd">
<svg version="1.1" id="Capa_1" xmlns="http://www.w3.org/2000/svg" xmlns:xlink="http://www.w3.org/1999/xlink" x="0px" y="0px"
	 width="124px" height="124px" viewBox="0 0 124 124" style="enable-background:new 0 0 124 124;" xml:space="preserve">
<g>
	<path d="M62,124c34.2,0,62-27.8,62-62S96.2,0,62,0S0,27.8,0,62S27.8,124,62,124z M62,15c25.9,0,47,21.1,47,47c0,25.9-21.1,47-47,47
		c-25.9,0-47-21.1-47-47C15,36.1,36.1,15,62,15z"/>
	<path d="M39.2,47.5l6.3,0.8c2.8,0.3,5.5-1.3,6.3-4c0.7-2,1.6-4,3.3-5.4c1.9-1.6,4.2-2.4,7.1-2.4c3,0,5.2,0.7,6.899,2.2
		c1.601,1.4,2.301,3,2.301,4.9c0,1.3-0.4,2.6-1.301,3.7c-0.3,0.4-1.6,1.7-6.8,6C59,56.8,56.1,60,54.6,62.9
		c-1.5,3-2.3,6.699-2.3,11.199l0,0c0,3.301,2.7,5.9,5.9,5.9h6c3.2,0,5.7-2.5,5.899-5.6c0.101-1.5,0.301-2.9,0.601-3.7
		C71,70.1,72,68.6,75.4,65.8c5.899-4.9,9.6-8.7,11.5-11.7c2-3.1,3-6.5,3-10c0-6.2-2.7-11.8-7.9-16.4c-5.1-4.5-12.1-6.8-20.6-6.8
		c-8.1,0-14.8,2.3-19.9,6.8c-4,3.5-6.3,7.8-7.5,12.7C33.3,43.6,35.7,47,39.2,47.5z"/>
	<path d="M64.1,84.5h-5.7c-3.3,0-6,2.7-6,6v5.7c0,3.3,2.7,6,6,6h5.7c3.301,0,6-2.7,6-6v-5.7C70.1,87.2,67.4,84.5,64.1,84.5z"/>
</g>
<g>
</g>
<g>
</g>
<g>
</g>
<g>
</g>
<g>
</g>
<g>
</g>
<g>
</g>
<g>
</g>
<g>
</g>
<g>
</g>
<g>
</g>
<g>
</g>
<g>
</g>
<g>
</g>
<g>
</g>
</svg>
