<?xml version="1.0" encoding="iso-8859-1"?>
<!-- Generator: Adobe Illustrator 16.0.0, SVG Export Plug-In . SVG Version: 6.00 Build 0)  -->
<!DOCTYPE svg PUBLIC "-//W3C//DTD SVG 1.1//EN" "http://www.w3.org/Graphics/SVG/1.1/DTD/svg11.dtd">
<svg version="1.1" id="Capa_1" xmlns="http://www.w3.org/2000/svg" xmlns:xlink="http://www.w3.org/1999/xlink" x="0px" y="0px"
	 width="124px" height="124px" viewBox="0 0 124 124" style="enable-background:new 0 0 124 124;" xml:space="preserve">
<g>
	<path d="M5,40.1h22.1c2.8,0,5-2.2,5-5V12.9c0-2.8-2.2-5-5-5c-2.8,0-5,2.2-5,5v14.6c0,1.4-1.1,2.5-2.5,2.5H5c-2.8,0-5,2.2-5,5
		S2.3,40.1,5,40.1z"/>
	<path d="M119,30.2h-14.6c-1.4,0-2.5-1.1-2.5-2.5V13c0-2.8-2.2-5-5-5c-2.801,0-5,2.2-5,5v22.1c0,2.8,2.199,5,5,5H119
		c2.8,0,5-2.2,5-5C124,32.4,121.7,30.2,119,30.2z"/>
	<path d="M5,94h14.6c1.4,0,2.5,1.101,2.5,2.5V111.1c0,2.8,2.2,5,5,5c2.8,0,5-2.2,5-5V89c0-2.799-2.2-5-5-5H5c-2.8,0-5,2.201-5,5
		C0,91.8,2.3,94,5,94z"/>
	<path d="M119,83.9H96.8c-2.8,0-5,2.2-5,5V111c0,2.801,2.2,5,5,5s5-2.199,5-5V96.4c0-1.4,1.101-2.5,2.5-2.5H119c2.8,0,5-2.199,5-5
		C124,86.201,121.7,83.9,119,83.9z"/>
	<path d="M42,43.7c-3.3,0-6,2.7-6,6v24.6c0,3.3,2.7,6,6,6h40c3.3,0,6-2.7,6-6V49.7c0-3.3-2.7-6-6-6H42z M74,63.9
		c0,1.4-1.1,2.5-2.5,2.5h-19c-1.4,0-2.5-1.1-2.5-2.5v-3.6c0-1.4,1.1-2.5,2.5-2.5h19c1.4,0,2.5,1.1,2.5,2.5V63.9z"/>
</g>
<g>
</g>
<g>
</g>
<g>
</g>
<g>
</g>
<g>
</g>
<g>
</g>
<g>
</g>
<g>
</g>
<g>
</g>
<g>
</g>
<g>
</g>
<g>
</g>
<g>
</g>
<g>
</g>
<g>
</g>
</svg>
