<?xml version="1.0" encoding="iso-8859-1"?>
<!-- Generator: Adobe Illustrator 16.0.0, SVG Export Plug-In . SVG Version: 6.00 Build 0)  -->
<!DOCTYPE svg PUBLIC "-//W3C//DTD SVG 1.1//EN" "http://www.w3.org/Graphics/SVG/1.1/DTD/svg11.dtd">
<svg version="1.1" id="Capa_1" xmlns="http://www.w3.org/2000/svg" xmlns:xlink="http://www.w3.org/1999/xlink" x="0px" y="0px"
	 width="984.6px" height="984.6px" viewBox="0 0 984.6 984.6" style="enable-background:new 0 0 984.6 984.6;" xml:space="preserve"
	>
<g>
	<path d="M648.4,680.3c46.9,0,85-38.1,85-85V488.2c0-39.9-7.9-78.601-23.4-115.2c-15-35.2-36.301-66.8-63.5-94s-58.801-48.5-94-63.5
		c-36.6-15.5-75.4-23.4-115.2-23.4H329l46.199-46.2c33.2-33.199,33.2-87,0-120.199C342-7.5,288.2-7.5,255,25.7L64.3,216.2
		c-33.2,33.199-33.2,87,0,120.199L255,527.1c16.6,16.601,38.3,24.9,60.1,24.9s43.5-8.3,60.1-24.9c33.2-33.199,33.2-87,0-120.199
		L330.3,361.899H437.2c33.5,0,65.101,13.2,89.101,37.2S563.5,454.7,563.5,488.2v107.1C563.4,642.2,601.4,680.3,648.4,680.3z"/>
	<path d="M171.1,983.8h642.4c94.5,0,171.1-76.6,171.1-171.1V581.2c0-46.9-37.5-85.7-84.4-86.101c-47.199-0.399-85.6,37.801-85.6,85
		v213.2c0,11.2-9.199,20.4-20.4,20.4H190.4c-11.3,0-20.4-9.101-20.4-20.4V581.2c0-46.9-37.5-85.7-84.4-86.101
		C38.4,494.7,0,532.9,0,580.1V812.7C0,907.2,76.6,983.8,171.1,983.8z"/>
</g>
<g>
</g>
<g>
</g>
<g>
</g>
<g>
</g>
<g>
</g>
<g>
</g>
<g>
</g>
<g>
</g>
<g>
</g>
<g>
</g>
<g>
</g>
<g>
</g>
<g>
</g>
<g>
</g>
<g>
</g>
</svg>
