<?xml version="1.0" encoding="iso-8859-1"?>
<!-- Generator: Adobe Illustrator 16.0.0, SVG Export Plug-In . SVG Version: 6.00 Build 0)  -->
<!DOCTYPE svg PUBLIC "-//W3C//DTD SVG 1.1//EN" "http://www.w3.org/Graphics/SVG/1.1/DTD/svg11.dtd">
<svg version="1.1" id="Capa_1" xmlns="http://www.w3.org/2000/svg" xmlns:xlink="http://www.w3.org/1999/xlink" x="0px" y="0px"
	 width="981.4px" height="981.4px" viewBox="0 0 981.4 981.4" style="enable-background:new 0 0 981.4 981.4;" xml:space="preserve"
	>
<g>
	<path d="M490.7,981.4c41.4,0,75-33.601,75-75V75c0-41.4-33.6-75-75-75s-75,33.6-75,75v831.3C415.7,947.8,449.3,981.4,490.7,981.4z"
		/>
	<path d="M660.8,732.3c14.601,14.601,33.801,22,53,22c19.2,0,38.4-7.3,53-22l189.7-189.699c14.101-14.101,22-33.101,22-53
		c0-19.9-7.899-39-22-53L769,249.1c-29.3-29.3-76.8-29.3-106.1,0c-29.3,29.3-29.3,76.8,0,106.1l134.5,134.5L660.8,626.3
		C631.5,655.601,631.5,703.101,660.8,732.3z"/>
	<path d="M2.9,489.601c0,19.899,7.9,39,22,53L214.6,732.3c14.6,14.601,33.8,22,53,22c19.2,0,38.4-7.3,53-22
		c29.3-29.3,29.3-76.8,0-106.1l-136.7-136.6l134.5-134.5c29.3-29.3,29.3-76.8,0-106.1c-29.3-29.3-76.8-29.3-106.1,0L24.8,436.601
		C10.8,450.601,2.9,469.7,2.9,489.601z"/>
</g>
<g>
</g>
<g>
</g>
<g>
</g>
<g>
</g>
<g>
</g>
<g>
</g>
<g>
</g>
<g>
</g>
<g>
</g>
<g>
</g>
<g>
</g>
<g>
</g>
<g>
</g>
<g>
</g>
<g>
</g>
</svg>
