<?xml version="1.0" encoding="iso-8859-1"?>
<!-- Generator: Adobe Illustrator 16.0.0, SVG Export Plug-In . SVG Version: 6.00 Build 0)  -->
<!DOCTYPE svg PUBLIC "-//W3C//DTD SVG 1.1//EN" "http://www.w3.org/Graphics/SVG/1.1/DTD/svg11.dtd">
<svg version="1.1" id="Capa_1" xmlns="http://www.w3.org/2000/svg" xmlns:xlink="http://www.w3.org/1999/xlink" x="0px" y="0px"
	 width="123.5px" height="123.5px" viewBox="0 0 123.5 123.5" style="enable-background:new 0 0 123.5 123.5;" xml:space="preserve"
	>
<g>
	<rect x="53.413" y="69.1" width="14" height="54.4"/>
	<rect x="53.413" width="14" height="13.3"/>
	<path d="M15.113,59.1h38.2h14h30.101c1.7,0,3.3-0.7,4.399-1.9l11-11.9c2.101-2.3,2.101-5.8,0-8.1l-11-11.9
		c-1.1-1.2-2.699-1.9-4.399-1.9h-30h-14h-38.3c-3.3,0-6,2.7-6,6v23.8C9.113,56.4,11.812,59.1,15.113,59.1z M43.212,35.2h10.2h14h9
		c3.3,0,6,2.7,6,6c0,3.3-2.7,6-6,6h-9h-14h-10.2c-3.3,0-6-2.7-6-6C37.212,37.9,39.913,35.2,43.212,35.2z"/>
</g>
<g>
</g>
<g>
</g>
<g>
</g>
<g>
</g>
<g>
</g>
<g>
</g>
<g>
</g>
<g>
</g>
<g>
</g>
<g>
</g>
<g>
</g>
<g>
</g>
<g>
</g>
<g>
</g>
<g>
</g>
</svg>
