<?xml version="1.0" encoding="iso-8859-1"?>
<!-- Generator: Adobe Illustrator 16.0.0, SVG Export Plug-In . SVG Version: 6.00 Build 0)  -->
<!DOCTYPE svg PUBLIC "-//W3C//DTD SVG 1.1//EN" "http://www.w3.org/Graphics/SVG/1.1/DTD/svg11.dtd">
<svg version="1.1" id="Capa_1" xmlns="http://www.w3.org/2000/svg" xmlns:xlink="http://www.w3.org/1999/xlink" x="0px" y="0px"
	 width="977px" height="977px" viewBox="0 0 977 977" style="enable-background:new 0 0 977 977;" xml:space="preserve">
<g>
	<path d="M207.15,959.4c23.4,23.399,61.4,23.399,84.9,0L959.449,292c23.4-23.4,23.4-61.4,0-84.9l-189.7-189.5
		c-23.399-23.4-61.399-23.4-84.899,0l-16.2,16.2l97.1,97.1c11.7,11.7,11.7,30.7,0,42.4c-5.899,5.9-13.5,8.8-21.2,8.8
		c-7.699,0-15.399-2.9-21.199-8.8l-97.101-97.1l-53.2,53.2l49.301,49.3c11.699,11.7,11.699,30.7,0,42.4c-5.9,5.9-13.5,8.8-21.2,8.8
		s-15.4-2.9-21.2-8.8l-49.3-49.3l-57.4,57.4l49.299,49.3c11.7,11.7,11.7,30.7,0,42.4c-5.899,5.9-13.5,8.8-21.199,8.8
		c-7.7,0-15.4-2.9-21.2-8.8l-49.3-49.3l-57.4,57.5l97.1,97.1c11.7,11.7,11.7,30.7,0,42.399c-5.899,5.9-13.5,8.801-21.199,8.801
		c-7.7,0-15.4-2.9-21.2-8.801l-97.101-97.1l-56.3,56.3l49.3,49.3c11.7,11.7,11.7,30.7,0,42.4c-5.899,5.9-13.5,8.8-21.199,8.8
		c-7.7,0-15.4-2.899-21.2-8.8l-49.3-49.299l-57.4,57.399l49.3,49.301c11.7,11.699,11.7,30.699,0,42.399c-5.9,5.9-13.5,8.8-21.2,8.8
		c-7.7,0-15.4-2.899-21.2-8.8l-49.4-49.2L76.15,626.4l97.1,97.1c11.7,11.7,11.7,30.7,0,42.4c-5.9,5.899-13.5,8.8-21.2,8.8
		c-7.7,0-15.4-2.9-21.2-8.8L33.75,668.8L17.55,685c-23.4,23.4-23.4,61.4,0,84.9L207.15,959.4z"/>
</g>
<g>
</g>
<g>
</g>
<g>
</g>
<g>
</g>
<g>
</g>
<g>
</g>
<g>
</g>
<g>
</g>
<g>
</g>
<g>
</g>
<g>
</g>
<g>
</g>
<g>
</g>
<g>
</g>
<g>
</g>
</svg>
