<?xml version="1.0" encoding="iso-8859-1"?>
<!-- Generator: Adobe Illustrator 16.0.0, SVG Export Plug-In . SVG Version: 6.00 Build 0)  -->
<!DOCTYPE svg PUBLIC "-//W3C//DTD SVG 1.1//EN" "http://www.w3.org/Graphics/SVG/1.1/DTD/svg11.dtd">
<svg version="1.1" id="Capa_1" xmlns="http://www.w3.org/2000/svg" xmlns:xlink="http://www.w3.org/1999/xlink" x="0px" y="0px"
	 width="964px" height="964px" viewBox="0 0 964 964" style="enable-background:new 0 0 964 964;" xml:space="preserve">
<g>
	<path d="M482,0C215.8,0,0,215.8,0,482s215.8,482,482,482s482-215.8,482-482S748.2,0,482,0z M647.8,245c43.3,0,78.5,35.1,78.5,78.5
		c0,43.3-35.1,78.5-78.5,78.5c-43.399,0-78.5-35.1-78.5-78.5S604.4,245,647.8,245z M316.2,245c43.3,0,78.5,35.1,78.5,78.5
		c0,43.3-35.101,78.5-78.5,78.5c-43.4,0-78.5-35.1-78.5-78.5S272.9,245,316.2,245z M737.3,772.4c-27.2,4.5-53-14-57.399-41.301
		c-7.601-46.3-31.5-88.8-67.4-119.6c-36.3-31.1-82.6-48.2-130.4-48.2c-47.899,0-94.3,17.2-130.5,48.3
		C315.7,642.4,291.8,685,284.2,731.4c-4,24.5-25.2,42-49.3,42c-2.7,0-5.3-0.2-8.1-0.7c-27.3-4.4-45.8-30.101-41.4-57.4
		c11.3-69.7,47.1-133.5,100.9-179.7C340.7,488.9,410.2,463.2,482,463.2c71.7,0,141.1,25.7,195.5,72.3
		c53.8,46.1,89.6,109.8,101,179.3C783,742.2,764.5,767.9,737.3,772.4z"/>
</g>
<g>
</g>
<g>
</g>
<g>
</g>
<g>
</g>
<g>
</g>
<g>
</g>
<g>
</g>
<g>
</g>
<g>
</g>
<g>
</g>
<g>
</g>
<g>
</g>
<g>
</g>
<g>
</g>
<g>
</g>
</svg>
