<?xml version="1.0" encoding="iso-8859-1"?>
<!-- Generator: Adobe Illustrator 16.0.0, SVG Export Plug-In . SVG Version: 6.00 Build 0)  -->
<!DOCTYPE svg PUBLIC "-//W3C//DTD SVG 1.1//EN" "http://www.w3.org/Graphics/SVG/1.1/DTD/svg11.dtd">
<svg version="1.1" id="Capa_1" xmlns="http://www.w3.org/2000/svg" xmlns:xlink="http://www.w3.org/1999/xlink" x="0px" y="0px"
	 width="963.14px" height="963.14px" viewBox="0 0 963.14 963.14" style="enable-background:new 0 0 963.14 963.14;"
	 xml:space="preserve">
<g>
	<path d="M0.139,245.62l28,405.399c2.2,31.5,28.3,55.9,59.9,55.9h636c30.4,0,55.601-23.5,57.7-53.801c0,0,30.7-395.299,40.9-508.499
		c1.399-15.5,14.399-27.3,29.899-27.3h62.4c26.3,0,48.2-21.9,48.2-48.2c0-26.3-21.9-48.2-48.2-48.2h-127.3
		c-30.101,0-50,26.9-53.4,54.1l-10.5,82.5c-1.899,15-14.6,26.2-29.8,26.2H57.839C24.339,183.819-2.161,212.22,0.139,245.62z"/>
	<circle cx="140.039" cy="852.02" r="90.2"/>
	<circle cx="670.039" cy="852.02" r="90.2"/>
</g>
<g>
</g>
<g>
</g>
<g>
</g>
<g>
</g>
<g>
</g>
<g>
</g>
<g>
</g>
<g>
</g>
<g>
</g>
<g>
</g>
<g>
</g>
<g>
</g>
<g>
</g>
<g>
</g>
<g>
</g>
</svg>
