<?xml version="1.0" encoding="iso-8859-1"?>
<!-- Generator: Adobe Illustrator 16.0.0, SVG Export Plug-In . SVG Version: 6.00 Build 0)  -->
<!DOCTYPE svg PUBLIC "-//W3C//DTD SVG 1.1//EN" "http://www.w3.org/Graphics/SVG/1.1/DTD/svg11.dtd">
<svg version="1.1" id="Capa_1" xmlns="http://www.w3.org/2000/svg" xmlns:xlink="http://www.w3.org/1999/xlink" x="0px" y="0px"
	 width="124px" height="124px" viewBox="0 0 124 124" style="enable-background:new 0 0 124 124;" xml:space="preserve">
<g>
	<path d="M43.05,63h-12c-3.3,0-6,2.7-6,6v24c0,3.3,2.7,6,6,6h12c3.3,0,6-2.7,6-6V69C49.05,65.7,46.35,63,43.05,63z"/>
	<path d="M64.05,46c-3.3,0-6,2.7-6,6v41c0,3.3,2.7,6,6,6h12c3.3,0,6-2.7,6-6V52c0-3.3-2.7-6-6-6H64.05z"/>
	<path d="M109.05,46h-12c-3.3,0-6,2.7-6,6v41c0,3.3,2.7,6,6,6h12c3.3,0,6-2.7,6-6V52C115.05,48.7,112.35,46,109.05,46z"/>
	<path d="M6.55,124h111.9c3.3,0,5.5-3.2,5.5-6.5v-2c0-3.3-2.2-6.4-5.5-6.4h-97.7c-3.3,0-5.7-2.3-5.7-5.699V5.5
		c0-3.3-3.1-5.5-6.4-5.5h-2c-3.4,0-6.6,2.2-6.6,5.5v111.9C0.05,120.8,3.25,124,6.55,124z"/>
</g>
<g>
</g>
<g>
</g>
<g>
</g>
<g>
</g>
<g>
</g>
<g>
</g>
<g>
</g>
<g>
</g>
<g>
</g>
<g>
</g>
<g>
</g>
<g>
</g>
<g>
</g>
<g>
</g>
<g>
</g>
</svg>
