<?xml version="1.0" encoding="iso-8859-1"?>
<!-- Generator: Adobe Illustrator 16.0.0, SVG Export Plug-In . SVG Version: 6.00 Build 0)  -->
<!DOCTYPE svg PUBLIC "-//W3C//DTD SVG 1.1//EN" "http://www.w3.org/Graphics/SVG/1.1/DTD/svg11.dtd">
<svg version="1.1" id="Capa_1" xmlns="http://www.w3.org/2000/svg" xmlns:xlink="http://www.w3.org/1999/xlink" x="0px" y="0px"
	 width="125.1px" height="125.1px" viewBox="0 0 125.1 125.1" style="enable-background:new 0 0 125.1 125.1;" xml:space="preserve"
	>
<g>
	<path d="M125,61.85c0-12.9-10.4-23.3-23.3-23.3H23.3C10.4,38.55,0,48.95,0,61.85v0.5l0,0l0,0l0,0v0.2v0.2l0,0l0,0l0,0v0.5
		c0,12.899,10.4,23.3,23.3,23.3h78.5c12.9,0,23.3-10.4,23.3-23.3v-0.5c0-0.101,0-0.2,0-0.3s0-0.2,0-0.3v-0.3H125z M22.8,74.35
		c-6.5,0-11.9-5.2-12-11.8c0.1-6.5,5.4-11.8,12-11.8c6.6,0,11.9,5.2,12,11.8C34.6,69.05,29.3,74.35,22.8,74.35z M62,74.35
		c-6.5,0-11.9-5.2-12-11.8c0.1-6.5,5.4-11.8,12-11.8c6.6,0,11.9,5.3,12,11.8C73.9,69.05,68.5,74.35,62,74.35z M101,74.35
		c-6.5,0-11.9-5.2-12-11.8c0.1-6.5,5.4-11.8,12-11.8s11.9,5.2,12,11.8C112.9,69.05,107.5,74.35,101,74.35z"/>
</g>
<g>
</g>
<g>
</g>
<g>
</g>
<g>
</g>
<g>
</g>
<g>
</g>
<g>
</g>
<g>
</g>
<g>
</g>
<g>
</g>
<g>
</g>
<g>
</g>
<g>
</g>
<g>
</g>
<g>
</g>
</svg>
