<?xml version="1.0" encoding="iso-8859-1"?>
<!-- Generator: Adobe Illustrator 16.0.0, SVG Export Plug-In . SVG Version: 6.00 Build 0)  -->
<!DOCTYPE svg PUBLIC "-//W3C//DTD SVG 1.1//EN" "http://www.w3.org/Graphics/SVG/1.1/DTD/svg11.dtd">
<svg version="1.1" id="Capa_1" xmlns="http://www.w3.org/2000/svg" xmlns:xlink="http://www.w3.org/1999/xlink" x="0px" y="0px"
	 width="124.1px" height="124.1px" viewBox="0 0 124.1 124.1" style="enable-background:new 0 0 124.1 124.1;" xml:space="preserve"
	>
<g>
	<path d="M103.675,26.6c-9-9-23.5-9-32.5,0c-7.2,7.2-8.6,17.8-4.301,26.4c-4.1,3.9-8.699,6-13.5,6c-3.5,0-7-1.2-10.2-3.3V45.1
		c9.5-2.8,16.5-11.6,16.5-22.1c0-12.7-10.3-23-23-23c-12.7,0-23,10.3-23,23c0,10.4,7,19.3,16.5,22.1V79
		c-9.5,2.8-16.5,11.6-16.5,22.1c0,12.7,10.3,23,23,23c12.7,0,23-10.3,23-23c0-10.4-7-19.3-16.5-22.1v-8.801
		c3.3,1.201,6.8,1.801,10.2,1.801c8,0,15.9-3.301,22.3-9.4c8.8,5.301,20.4,4.1,28-3.5C112.675,50.2,112.675,35.6,103.675,26.6z
		 M45.575,101.1c0,5-4,9-9,9s-9-4-9-9s4-9,9-9S45.575,96.1,45.575,101.1z M36.575,32.1c-5,0-9-4-9-9s4-9,9-9s9,4,9,9
		C45.575,28,41.575,32.1,36.575,32.1z M93.774,49.2c-3.5,3.5-9.199,3.5-12.699,0s-3.5-9.2,0-12.7s9.199-3.5,12.699,0
		S97.274,45.7,93.774,49.2z"/>
</g>
<g>
</g>
<g>
</g>
<g>
</g>
<g>
</g>
<g>
</g>
<g>
</g>
<g>
</g>
<g>
</g>
<g>
</g>
<g>
</g>
<g>
</g>
<g>
</g>
<g>
</g>
<g>
</g>
<g>
</g>
</svg>
