<?xml version="1.0" encoding="iso-8859-1"?>
<!-- Generator: Adobe Illustrator 16.0.0, SVG Export Plug-In . SVG Version: 6.00 Build 0)  -->
<!DOCTYPE svg PUBLIC "-//W3C//DTD SVG 1.1//EN" "http://www.w3.org/Graphics/SVG/1.1/DTD/svg11.dtd">
<svg version="1.1" id="Capa_1" xmlns="http://www.w3.org/2000/svg" xmlns:xlink="http://www.w3.org/1999/xlink" x="0px" y="0px"
	 width="124px" height="124px" viewBox="0 0 124 124" style="enable-background:new 0 0 124 124;" xml:space="preserve">
<g>
	<path d="M118,8.15H6c-3.3,0-6,2.7-6,6v15.9c0,3.3,2.7,6,6,6h112c3.3,0,6-2.7,6-6v-15.9C124,10.85,121.3,8.15,118,8.15z M22.4,26.55
		c0,1.7-1.3,3-3,3h-8.9c-1.7,0-3-1.3-3-3v-8.9c0-1.7,1.3-3,3-3h8.9c1.7,0,3,1.3,3,3V26.55z M46,26.55c0,1.7-1.3,3-3,3h-8.9
		c-1.7,0-3-1.3-3-3v-8.9c0-1.7,1.3-3,3-3H43c1.7,0,3,1.3,3,3V26.55z M69.6,26.55c0,1.7-1.3,3-3,3H57.7c-1.7,0-3-1.3-3-3v-8.9
		c0-1.7,1.3-3,3-3H66.6c1.7,0,3,1.3,3,3V26.55z M93.2,26.55c0,1.7-1.3,3-3,3h-8.9c-1.7,0-3-1.3-3-3v-8.9c0-1.7,1.3-3,3-3h8.9
		c1.7,0,3,1.3,3,3V26.55z M117.2,19.15c0,1.7-1.3,3-3,3h-1.4c-1.7,0-3-1.3-3-3v-1.4c0-1.7,1.3-3,3-3h1.4c1.7,0,3,1.3,3,3V19.15z"/>
	<path d="M118,48.05H6c-3.3,0-6,2.7-6,6v16c0,3.299,2.7,6,6,6h112c3.3,0,6-2.701,6-6v-16C124,50.75,121.3,48.05,118,48.05z
		 M22.4,66.45c0,1.7-1.3,3-3,3h-8.9c-1.7,0-3-1.3-3-3v-8.9c0-1.7,1.3-3,3-3h8.9c1.7,0,3,1.3,3,3V66.45z M46,66.45c0,1.7-1.3,3-3,3
		h-8.9c-1.7,0-3-1.3-3-3v-8.9c0-1.7,1.3-3,3-3H43c1.7,0,3,1.3,3,3V66.45z M69.6,66.45c0,1.7-1.3,3-3,3H57.7c-1.7,0-3-1.3-3-3v-8.9
		c0-1.7,1.3-3,3-3H66.6c1.7,0,3,1.3,3,3V66.45z M93.2,66.45c0,1.7-1.3,3-3,3h-8.9c-1.7,0-3-1.3-3-3v-8.9c0-1.7,1.3-3,3-3h8.9
		c1.7,0,3,1.3,3,3V66.45z"/>
	<path d="M118,87.95H6c-3.3,0-6,2.7-6,6v15.899c0,3.301,2.7,6,6,6h112c3.3,0,6-2.699,6-6V94.051C124,90.65,121.3,87.95,118,87.95z
		 M22.4,106.45c0,1.7-1.3,3-3,3h-8.9c-1.7,0-3-1.3-3-3v-8.899c0-1.701,1.3-3,3-3h8.9c1.7,0,3,1.299,3,3V106.45z M46,106.45
		c0,1.7-1.3,3-3,3h-8.9c-1.7,0-3-1.3-3-3v-8.899c0-1.701,1.3-3,3-3H43c1.7,0,3,1.299,3,3V106.45z M69.6,106.45c0,1.7-1.3,3-3,3H57.7
		c-1.7,0-3-1.3-3-3v-8.899c0-1.701,1.3-3,3-3H66.6c1.7,0,3,1.299,3,3V106.45z M93.2,106.45c0,1.7-1.3,3-3,3h-8.9c-1.7,0-3-1.3-3-3
		v-8.899c0-1.701,1.3-3,3-3h8.9c1.7,0,3,1.299,3,3V106.45z"/>
</g>
<g>
</g>
<g>
</g>
<g>
</g>
<g>
</g>
<g>
</g>
<g>
</g>
<g>
</g>
<g>
</g>
<g>
</g>
<g>
</g>
<g>
</g>
<g>
</g>
<g>
</g>
<g>
</g>
<g>
</g>
</svg>
