<?xml version="1.0" encoding="iso-8859-1"?>
<!-- Generator: Adobe Illustrator 16.0.0, SVG Export Plug-In . SVG Version: 6.00 Build 0)  -->
<!DOCTYPE svg PUBLIC "-//W3C//DTD SVG 1.1//EN" "http://www.w3.org/Graphics/SVG/1.1/DTD/svg11.dtd">
<svg version="1.1" id="Capa_1" xmlns="http://www.w3.org/2000/svg" xmlns:xlink="http://www.w3.org/1999/xlink" x="0px" y="0px"
	 width="975.8px" height="975.8px" viewBox="0 0 975.8 975.8" style="enable-background:new 0 0 975.8 975.8;" xml:space="preserve"
	>
<g>
	<path d="M902.8,364.2c-10.3-19.8-30.8-32.3-53.2-32.3H710.7v394.5H745c0,10.7,1.8,20.9,5.1,30.5c3.9,11.3,10,21.601,17.7,30.5
		c17,19.601,42.2,32,70.2,32s53.1-12.399,70.2-32c7.699-8.899,13.8-19.2,17.699-30.5c3.301-9.6,5.101-19.8,5.101-30.5h14.8
		c16.6,0,30-13.399,30-30V519.1c0-9.6-2.3-19.1-6.8-27.7L902.8,364.2z"/>
	<path d="M598.8,726.4h30.5h21.4V331.9v-30.5v-30.5v-54.5c0-33.1-26.9-60-60-60H60c-33.1,0-60,26.9-60,60v450
		c0,33.101,26.9,60,60,60h56.2c0,10.5,1.7,20.601,4.9,30c3.8,11.101,9.6,21.2,17,30c17.1,20.2,42.6,33,71,33c28.4,0,54-12.8,71-33
		c7.4-8.8,13.2-18.899,17-30c3.2-9.399,4.9-19.5,4.9-30h266.2H598.8z"/>
</g>
<g>
</g>
<g>
</g>
<g>
</g>
<g>
</g>
<g>
</g>
<g>
</g>
<g>
</g>
<g>
</g>
<g>
</g>
<g>
</g>
<g>
</g>
<g>
</g>
<g>
</g>
<g>
</g>
<g>
</g>
</svg>
