<?xml version="1.0" encoding="iso-8859-1"?>
<!-- Generator: Adobe Illustrator 16.0.0, SVG Export Plug-In . SVG Version: 6.00 Build 0)  -->
<!DOCTYPE svg PUBLIC "-//W3C//DTD SVG 1.1//EN" "http://www.w3.org/Graphics/SVG/1.1/DTD/svg11.dtd">
<svg version="1.1" id="Capa_1" xmlns="http://www.w3.org/2000/svg" xmlns:xlink="http://www.w3.org/1999/xlink" x="0px" y="0px"
	 width="125.9px" height="125.9px" viewBox="0 0 125.9 125.9" style="enable-background:new 0 0 125.9 125.9;" xml:space="preserve"
	>
<g>
	<path d="M6.413,23.4l28.8,28.8c1-2.2,2.4-4.3,4.2-6l10.7-10.7l-27.9-27.8c-2.3-2.3-6.1-2.3-8.5,0l-7.3,7.3
		C4.113,17.3,4.113,21.1,6.413,23.4z"/>
	<path d="M121.213,10.9c-0.1-2.6-1.1-5.1-2.8-7.1c-2.1-2.4-5.2-3.8-8.3-3.8l-48.1,0.1c-6.1,0-11.1,4.9-11.1,11s5,11.1,11.1,11.1
		h21.3l-34,33.9c-1.4,1.4-2.1,3.3-2.1,5.2c0,0.1,0,0.2,0,0.2v58.4c0,3.3,2.7,6,6,6h10.3c3.3,0,6-2.7,6-6V70.4
		c0-1.9,0.801-3.7,2.101-5l27.399-27.5v21.3c0,6.101,5,11.101,11.101,11.101c6.1,0,11.1-5,11.1-11.101V11.1
		C121.213,11.1,121.213,11,121.213,10.9z"/>
</g>
<g>
</g>
<g>
</g>
<g>
</g>
<g>
</g>
<g>
</g>
<g>
</g>
<g>
</g>
<g>
</g>
<g>
</g>
<g>
</g>
<g>
</g>
<g>
</g>
<g>
</g>
<g>
</g>
<g>
</g>
</svg>
