<?xml version="1.0" encoding="iso-8859-1"?>
<!-- Generator: Adobe Illustrator 16.0.0, SVG Export Plug-In . SVG Version: 6.00 Build 0)  -->
<!DOCTYPE svg PUBLIC "-//W3C//DTD SVG 1.1//EN" "http://www.w3.org/Graphics/SVG/1.1/DTD/svg11.dtd">
<svg version="1.1" id="Capa_1" xmlns="http://www.w3.org/2000/svg" xmlns:xlink="http://www.w3.org/1999/xlink" x="0px" y="0px"
	 width="124px" height="124px" viewBox="0 0 124 124" style="enable-background:new 0 0 124 124;" xml:space="preserve">
<g>
	<path d="M118,25.5H62v-4c0-3.3-2.7-6-6-6H6c-3.3,0-6,2.7-6,6v10.2v6.5v64.3c0,3.3,2.7,6,6,6h27c-0.7-1.9-1-3.8-1-5.9V60.4
		c0-9.9,8-17.9,17.9-17.9h30.5c5.3,0,10,2,13.3,6H118.1c2.101,0,3.9,0.3,5.9,0.9V31.5C124,28.2,121.3,25.5,118,25.5z"/>
	<path d="M118.1,60.5H86v-0.1c0-3.3-2.7-5.9-5.9-5.9H49.9c-3.3,0-5.9,2.6-5.9,5.9v42.1c0,3.3,2.7,6,6,6h68c3.3,0,6-2.7,6-6V66.3
		c0-0.1,0-0.1,0-0.2C124,63,121.3,60.5,118.1,60.5z"/>
	<path d="M118,108.5L118,108.5c3.3,0,6-2.7,6-6C124,105.8,121.3,108.5,118,108.5z"/>
</g>
<g>
</g>
<g>
</g>
<g>
</g>
<g>
</g>
<g>
</g>
<g>
</g>
<g>
</g>
<g>
</g>
<g>
</g>
<g>
</g>
<g>
</g>
<g>
</g>
<g>
</g>
<g>
</g>
<g>
</g>
</svg>
