<?xml version="1.0" encoding="iso-8859-1"?>
<!-- Generator: Adobe Illustrator 16.0.0, SVG Export Plug-In . SVG Version: 6.00 Build 0)  -->
<!DOCTYPE svg PUBLIC "-//W3C//DTD SVG 1.1//EN" "http://www.w3.org/Graphics/SVG/1.1/DTD/svg11.dtd">
<svg version="1.1" id="Capa_1" xmlns="http://www.w3.org/2000/svg" xmlns:xlink="http://www.w3.org/1999/xlink" x="0px" y="0px"
	 width="124px" height="124px" viewBox="0 0 124 124" style="enable-background:new 0 0 124 124;" xml:space="preserve">
<g>
	<path d="M58.7,79.7l-7.6,7.6c-3.2,3.2-3.2,8.3,0,11.4L53,100.6c3.2,3.2,8.3,3.2,11.4,0L72,93l28.6,28.6c3.2,3.2,8.301,3.2,11.4,0
		l9.5-9.5c3.2-3.2,3.2-8.3,0-11.399L93,72l7.6-7.601c3.2-3.199,3.2-8.3,0-11.4L98.7,51.1c-3.2-3.2-8.3-3.2-11.4,0l-7.6,7.6l0,0
		L58.7,79.7z"/>
	<path d="M31,52l-7.6,7.6c-3.2,3.2-3.2,8.3,0,11.4l1.9,1.899c3.2,3.2,8.3,3.2,11.4,0l7.6-7.6l21-21l7.601-7.6
		c3.199-3.2,3.199-8.3,0-11.4l-1.9-1.9c-3.2-3.2-8.3-3.2-11.4,0L52,31l-28.6-28.6c-3.2-3.2-8.3-3.2-11.4,0l-9.5,9.5
		c-3.2,3.2-3.2,8.3,0,11.4L31,52z"/>
</g>
<g>
</g>
<g>
</g>
<g>
</g>
<g>
</g>
<g>
</g>
<g>
</g>
<g>
</g>
<g>
</g>
<g>
</g>
<g>
</g>
<g>
</g>
<g>
</g>
<g>
</g>
<g>
</g>
<g>
</g>
</svg>
