<?xml version="1.0" encoding="iso-8859-1"?>
<!-- Generator: Adobe Illustrator 16.0.0, SVG Export Plug-In . SVG Version: 6.00 Build 0)  -->
<!DOCTYPE svg PUBLIC "-//W3C//DTD SVG 1.1//EN" "http://www.w3.org/Graphics/SVG/1.1/DTD/svg11.dtd">
<svg version="1.1" id="Capa_1" xmlns="http://www.w3.org/2000/svg" xmlns:xlink="http://www.w3.org/1999/xlink" x="0px" y="0px"
	 width="123.695px" height="123.694px" viewBox="0 0 123.695 123.694" style="enable-background:new 0 0 123.695 123.694;"
	 xml:space="preserve">
<g>
	<path d="M112.912,89.7c0.2-0.3,0.301-0.601,0.4-0.9c0.6-1.399,0.5-2.7,0.5-4.1V6.2c0-3.4-2.8-6.2-6.2-6.2h-91.6
		c-3.4,0-6.2,2.8-6.2,6.2v80.6V108c0,3.4,2.8,6.2,6.2,6.2h34.7v-10.3h-27.5c-1.7,0-3.1-1.4-3.1-3.101V95c0-1.7,1.4-3.1,3.1-3.1h27.5
		V81.6h-17.2c-1.7,0-3.1-1.399-3.1-3.1V13.4c0-1.7,1.4-3.1,3.1-3.1h67c1.7,0,3.1,1.4,3.1,3.1v65.1c0,1.7-1.399,3.1-3.1,3.1h-14.9
		V91.9h15.101c-1.101,4.5-0.7,8.6,0.199,12h-15.3v10.3h22.9c1.5,0,3-0.5,4-1.601c1.7-1.899,1.8-4.6,0.399-6.5
		c-1.399-1.899-2.199-4.5-2.5-6.8c-0.3-2.3,0-4.6,0.9-6.7C111.712,91.5,112.412,90.6,112.912,89.7z"/>
	<path d="M41.812,65.3l21.8-21.7c2.8-2.8,6.9-2.8,9.601,0l21.699,21.7c2.7,2.7,2.9,7.101,0.101,9.8c-2.7,2.7-7.2,2.4-9.8-0.199
		L75.412,65.1V116.7c0,1.899-0.8,3.8-2.199,5.1c-3.4,3.101-9.2,2.3-11.4-1.7c-0.6-1-0.9-2.199-0.9-3.3V65.2c0,0-9.7,9.7-9.7,9.8
		c-2.6,2.6-7.1,2.9-9.7,0.2C38.912,72.4,39.112,68.1,41.812,65.3z"/>
	<path d="M85.812,47.9c2.7,2.7,7.1,2.6,9.7-0.1c2.5-2.6,2.2-7.1-0.3-9.6l-22-22c-1.301-1.3-3.101-2-4.801-2c-1.699,0-3.5,0.7-4.8,2
		l-22,22c-2.6,2.6-2.8,7-0.3,9.6c2.6,2.8,7,2.8,9.7,0.1l12.399-12.4c2.801-2.8,7.301-2.8,10,0L85.812,47.9z"/>
</g>
<g>
</g>
<g>
</g>
<g>
</g>
<g>
</g>
<g>
</g>
<g>
</g>
<g>
</g>
<g>
</g>
<g>
</g>
<g>
</g>
<g>
</g>
<g>
</g>
<g>
</g>
<g>
</g>
<g>
</g>
</svg>
