<?xml version="1.0" encoding="iso-8859-1"?>
<!-- Generator: Adobe Illustrator 19.0.0, SVG Export Plug-In . SVG Version: 6.00 Build 0)  -->
<svg xmlns="http://www.w3.org/2000/svg" xmlns:xlink="http://www.w3.org/1999/xlink" version="1.1" id="Capa_1" x="0px" y="0px" viewBox="0 0 511.999 511.999" style="enable-background:new 0 0 511.999 511.999;" xml:space="preserve">
<g>
	<g>
		<path d="M503.88,171.662c-4.29-10.884-10.496-21.269-18.713-30.483c-12.314-13.873-29.028-24.886-49.475-32.153    c-20.485-7.292-44.712-11.046-73.274-11.058h-0.427l-0.66-4.581c-5.383-48.355-66.499-86.505-141.267-86.505    c-74.548,0-135.553,37.937-141.241,86.091l-0.648,4.497H0l62.804,106.772L19.476,505.118h401.177l-14.358-99.667l8.25-8.593    c19.011-19.806,38.5-42.007,54.961-65.049c8.231-11.53,15.717-23.282,21.981-35.168c6.263-11.899,11.343-23.928,14.578-36.229    c3.733-14.294,5.927-28.956,5.933-43.625C512.007,201.524,509.612,186.188,503.88,171.662z M252.353,265.713h-32.418v32.353    h32.418v32.353h-32.418v32.353h32.418v32.347h-64.706V201h64.706V265.713z M462.26,248.934    c-2.071,7.92-5.766,16.986-10.832,26.581c-7.59,14.423-18.215,29.984-30.34,45.346c-7.26,9.214-15.077,18.338-23.055,27.209    l-29.493-204.717c19.017,0.434,34.585,2.899,46.976,6.69c10.289,3.138,18.416,7.143,24.879,11.621    c9.674,6.762,15.814,14.481,20.053,23.553c4.18,9.059,6.276,19.69,6.276,31.57C466.719,226.895,465.166,237.824,462.26,248.934z"/>
	</g>
</g>
<g>
</g>
<g>
</g>
<g>
</g>
<g>
</g>
<g>
</g>
<g>
</g>
<g>
</g>
<g>
</g>
<g>
</g>
<g>
</g>
<g>
</g>
<g>
</g>
<g>
</g>
<g>
</g>
<g>
</g>
</svg>
