<?xml version="1.0" encoding="iso-8859-1"?>
<!-- Generator: Adobe Illustrator 19.0.0, SVG Export Plug-In . SVG Version: 6.00 Build 0)  -->
<svg xmlns="http://www.w3.org/2000/svg" xmlns:xlink="http://www.w3.org/1999/xlink" version="1.1" id="Capa_1" x="0px" y="0px" viewBox="0 0 511.998 511.998" style="enable-background:new 0 0 511.998 511.998;" xml:space="preserve">
<g>
	<g>
		<path d="M507.753,70.126H4.281L0,119.285c61.031,22.706,113.501,62.92,151.262,114.604    c39.723,54.346,63.195,121.451,63.19,193.904c0,4.778-0.173,9.438-0.378,14.078h82.862c-0.21-4.623-0.36-9.312-0.36-14.078    c-0.006-72.441,23.45-139.523,63.153-193.862c37.959-51.971,90.801-92.341,152.269-115L507.753,70.126z"/>
	</g>
</g>
<g>
	<g>
		<path d="M127.058,251.577c-30.537-41.803-71.681-75.325-119.413-96.761c13.713,31.376,41.862,91.519,74.582,137.154    c36.053,50.286,76.884,96.934,102.025,124.431C181.937,354.843,161.083,298.153,127.058,251.577z"/>
	</g>
</g>
<g>
	<g>
		<path d="M383.942,251.607c-34.207,46.863-55.084,103.944-57.17,165.916c25.038-27.335,66.493-74.576,103.038-125.552    c32.91-45.904,61.205-106.51,74.821-137.717C456.358,175.664,414.753,209.432,383.942,251.607z"/>
	</g>
</g>
<g>
</g>
<g>
</g>
<g>
</g>
<g>
</g>
<g>
</g>
<g>
</g>
<g>
</g>
<g>
</g>
<g>
</g>
<g>
</g>
<g>
</g>
<g>
</g>
<g>
</g>
<g>
</g>
<g>
</g>
</svg>
