<?xml version="1.0" encoding="iso-8859-1"?>
<!-- Generator: Adobe Illustrator 19.0.0, SVG Export Plug-In . SVG Version: 6.00 Build 0)  -->
<svg xmlns="http://www.w3.org/2000/svg" xmlns:xlink="http://www.w3.org/1999/xlink" version="1.1" id="Capa_1" x="0px" y="0px" viewBox="0 0 512.001 512.001" style="enable-background:new 0 0 512.001 512.001;" xml:space="preserve">
<g>
	<g>
		<polygon points="452.768,81.381 452.768,224.695 496.493,218.63 496.493,87.452   "/>
	</g>
</g>
<g>
	<g>
		<path d="M475.324,467.143l-0.007-0.012c-1.118-4.429-2.854-8.508-4.953-12.468c-3.167-5.915-7.196-11.531-11.793-16.666    c-4.617-5.122-9.757-9.745-15.579-13.405c-5.815-3.604-12.119-5.797-18.77-7.327c-6.646-1.493-13.636-2.236-20.645-2.243    c-7.208,0.012-14.418,0.781-21.332,2.661c-10.987,3.073-20.864,9.288-29.689,16.934c-8.745,7.721-16.322,16.847-21.144,27.304    c-1.693,3.923-6.441,9.202-12.631,12.906c-6.127,3.798-13.474,5.99-18.965,5.928c-6.153,0.051-13.868-1.905-20.126-5.079    c-0.743-0.368-1.381-0.794-2.074-1.181c15.448-13.73,25.23-33.694,25.23-55.981c0-14.217-4.035-27.46-10.907-38.784    l-39.697-98.583c13.999-9.17,26.398-20.57,36.705-33.7l132.589-18.402V77.039L288.944,58.63C260.929,22.937,217.434,0,168.548,0    C84.027,0,15.508,68.519,15.508,153.041c0,58.274,32.576,108.934,80.512,134.783l58.268,144.683    c6.558,34.712,36.999,60.973,73.603,60.973c6.921,0,13.598-1.018,19.964-2.774c1.174,1.193,2.286,2.455,3.548,3.536    c6.478,5.516,14.104,9.776,22.32,12.85c8.221,3.049,17.053,4.892,26.092,4.909c12.706-0.063,24.774-4.166,35.25-10.513    c10.413-6.441,19.476-15.166,24.787-26.635c2.187-4.941,7.271-11.537,13.281-16.741c5.941-5.272,12.924-9.176,17.334-10.294    c3.541-0.981,8.258-1.574,13.118-1.561c4.729,0,9.607,0.538,13.749,1.474c4.129,0.912,7.521,2.318,9.102,3.341    c3.467,2.118,8.17,6.502,11.781,11.25c1.831,2.374,3.417,4.829,4.591,7.04c1.186,2.206,1.936,4.186,2.218,5.353l-0.007-0.012    c2.793,11.2,5.085,20.377,5.085,20.377l30.308-7.578C480.409,487.483,478.122,478.337,475.324,467.143z M168.548,231.123    c-43.114,0-78.082-34.968-78.082-78.082c0-43.12,34.968-78.082,78.082-78.082c43.12,0,78.082,34.963,78.082,78.082    C246.631,196.155,211.668,231.123,168.548,231.123z"/>
	</g>
</g>
<g>
	<g>
		<circle cx="168.545" cy="153.043" r="46.849"/>
	</g>
</g>
<g>
</g>
<g>
</g>
<g>
</g>
<g>
</g>
<g>
</g>
<g>
</g>
<g>
</g>
<g>
</g>
<g>
</g>
<g>
</g>
<g>
</g>
<g>
</g>
<g>
</g>
<g>
</g>
<g>
</g>
</svg>
