<?xml version="1.0" encoding="iso-8859-1"?>
<!-- Generator: Adobe Illustrator 19.0.0, SVG Export Plug-In . SVG Version: 6.00 Build 0)  -->
<svg xmlns="http://www.w3.org/2000/svg" xmlns:xlink="http://www.w3.org/1999/xlink" version="1.1" id="Capa_1" x="0px" y="0px" viewBox="0 0 512 512" style="enable-background:new 0 0 512 512;" xml:space="preserve">
<g>
	<g>
		<polygon points="422.4,217.6 422.4,339.201 89.593,339.201 89.593,217.6 0,217.6 0,480 89.593,480 89.593,428.801 422.4,428.801     422.4,480 512,480 512,217.6   "/>
	</g>
</g>
<g>
	<g>
		<path d="M403.201,32H108.8c-35.2,0-64,28.801-64,64v89.6h76.801v121.6h268.8V185.6h76.8V96C467.201,60.801,438.4,32,403.201,32z     M179.2,166.401c-10.598,0-19.2-8.602-19.2-19.2s8.602-19.2,19.2-19.2c10.598,0,19.2,8.602,19.2,19.2    S189.798,166.401,179.2,166.401z M332.8,166.401c-10.598,0-19.2-8.602-19.2-19.2s8.602-19.2,19.2-19.2s19.2,8.602,19.2,19.2    S343.398,166.401,332.8,166.401z"/>
	</g>
</g>
<g>
</g>
<g>
</g>
<g>
</g>
<g>
</g>
<g>
</g>
<g>
</g>
<g>
</g>
<g>
</g>
<g>
</g>
<g>
</g>
<g>
</g>
<g>
</g>
<g>
</g>
<g>
</g>
<g>
</g>
</svg>
